<svg id="图层_1" data-name="图层 1" xmlns="http://www.w3.org/2000/svg" xmlns:xlink="http://www.w3.org/1999/xlink" viewBox="0 0 595.32001 841.91998"><defs><style>.cls-1{fill:none;}.cls-2{clip-path:url(#clip-path);}.cls-3{clip-path:url(#clip-path-2);}.cls-4{clip-path:url(#clip-path-3);}</style><clipPath id="clip-path"><rect class="cls-1" width="595.32001" height="841.91998"/></clipPath><clipPath id="clip-path-2"><rect class="cls-1" x="278.80853" y="484.63998" width="145.05902" height="21.02499"/></clipPath><clipPath id="clip-path-3"><rect class="cls-1" x="336.47437" y="515.84" width="85.64001" height="21.02499"/></clipPath></defs><g class="cls-2"><path d="M234.82373,166.15c2.29736,5.5752,7.84424,8.26465,13.19531,9.749l-.05615.33691a4.59623,4.59623,0,0,0-3.52978,3.47363c-5.01514-2.68945-8.46045-6.416-10.08545-13.55957H231.042v8.88086c1.73682-.41992,3.72559-.89648,5.71485-1.42871l.05615.22363a54.63585,54.63585,0,0,1-7.48,5.79981,2.53841,2.53841,0,0,1-.72852.92383l-3.4458-4.50977c1.37256-.9248,1.59668-1.26074,1.59668-2.04492V166.15h-4.90283l-.22363-.78418h5.12646V153.71149l5.21094.58789c-.05615.30859-.30811.53222-.92432.61621v7.873a47.12992,47.12992,0,0,0,9.04883-8.43262l4.4541,3.417c-.168.25293-.47607.4209-1.1206.25293a49.58187,49.58187,0,0,1-12.38233,5.85449v1.48535h10.95362l2.10107-2.85742s2.40918,1.9043,3.81006,3.19336c-.084.30859-.39209.44824-.812.44824Z"/><path d="M281.86816,165.73c1.9336,2.10059,5.46338,2.91309,8.43262,3.05371l-.05566.41992a5.42812,5.42812,0,0,0-2.71778,3.89454,11.73928,11.73928,0,0,1-3.7539-2.88575v8.96485c-.02783.25195-2.12891,1.06445-3.58594,1.06445h-.78418v-1.84961h-5.82715v.78516c0,.28027-1.26074,1.17675-3.418,1.17675H269.374V170.32379a24.01436,24.01436,0,0,1-6.10742,3.19434l-.19629-.22461a21.48706,21.48706,0,0,0,6.86377-7.56348h-6.07959l-.22363-.78515h6.69531a23.75326,23.75326,0,0,0,1.23242-2.91309H266.04l-.22412-.78418H271.811c.28027-.95313.50439-1.877.70068-2.83008h-7.56445l-.22413-.78418h7.95655c.22363-1.34472.39209-2.66113.47607-3.92187l5.687.95215c-.084.41992-.39209.70019-1.09277.72851-.13965.75684-.27979,1.5127-.44824,2.24121h5.6875l2.0166-2.5498s2.29785,1.709,3.67041,2.88574c-.08447.30859-.39209.44824-.8125.44824H277.106a25.69406,25.69406,0,0,1-.92432,2.83008h5.29492l1.877-2.35352s2.1289,1.59668,3.41748,2.68946c-.084.30859-.39209.44824-.78418.44824H275.87305a21.83309,21.83309,0,0,1-1.48438,2.91309h9.46875l2.10156-2.63282s2.40918,1.76465,3.8379,2.96973c-.05616.30762-.39258.44824-.8125.44824Zm.19629,2.04492A19.59937,19.59937,0,0,1,281.084,165.73h-7.1997a21.553,21.553,0,0,1-1.93311,2.35352l2.01709.72754h5.21045l1.793-1.877Zm-8.48828,5.2666h5.82715v-3.44531h-5.82715Zm5.82715,4.56641v-3.78223h-5.82715V177.608Z"/><path d="M320.11621,163.12457c.95215,5.127,4.37012,10.0293,11.93457,12.83106l-.02734.33593c-2.07422.41993-3.27832,1.76465-3.61426,4.11817-5.88379-3.78223-7.90039-10.64551-8.62891-16.249-.89648,6.75195-3.78222,12.41113-14.25976,16.249l-.22363-.36426c7.61914-4.90234,9.665-10.47754,10.2246-16.9209h-9.749l-.22363-.78418h10.02929c.168-2.66211.13965-5.46386.13965-8.43261l5.5752.5039c-.084.44824-.36426.7002-1.03711.8125-.05566,2.46485-.084,4.84668-.2793,7.11621h5.40625L327.709,159.398s2.60547,1.96094,4.17383,3.27832c-.084.30762-.41992.44824-.84082.44824Z"/><path d="M374.19336,161.38727c-.22461.28027-.50488.36426-1.12109.39258a30.62839,30.62839,0,0,1-4.791,2.24121l1.26172,1.2041c-.22461.25293-.50488.33691-1.12109.39258-1.457.67285-3.64258,1.541-5.54688,2.21289l.8125.05664c-.05664.41992-.33594.61621-.9248.72851v1.76465H367.918l2.12891-2.83008s2.4375,1.877,3.86523,3.166c-.084.30859-.41992.44824-.83984.44824H362.7627v4.53809c0,2.77441-.72852,4.28711-5.68653,4.707a4.41556,4.41556,0,0,0-1.00879-2.91406,5.91044,5.91044,0,0,0-3.38965-1.42871V175.731s4.42579.28027,5.18262.28027c.44824,0,.58789-.13965.58789-.5039v-4.34278H347.91406l-.22363-.78418h10.75781v-2.91406l2.85742.22461a36.37857,36.37857,0,0,0,2.21387-3.02539h-10.8418l-.25293-.78516h11.2627l2.24121-2.10058,1.793,1.709c.28027-.8125.55957-1.793.75586-2.63379H351.94922c.33594,2.21289-.44922,3.75391-1.56934,4.37012a1.9547,1.9547,0,0,1-2.91308-.95215,2.08652,2.08652,0,0,1,1.34375-2.5498,4.1707,4.1707,0,0,0,1.68164-4.06153l.33593-.02832a9.26046,9.26046,0,0,1,.95313,2.4375h11.73828a43.0262,43.0262,0,0,0,2.40918-6.33105l5.01465,1.87695c-.14063.30762-.47656.53223-1.12109.44824a44.19937,44.19937,0,0,1-5.29493,4.00586h3.81055l2.15723-2.15722Zm-22.38477-7.31153c8.74121,1.14844,5.29493,7.84375,1.84961,5.18262a10.801,10.801,0,0,0-2.07324-5.043Zm6.44336-.33593c8.377,1.90429,4.11914,8.124.89649,5.07031a12.16922,12.16922,0,0,0-1.12012-4.959Z"/><path d="M168.94922,233.76129a57.906,57.906,0,0,1-4.67871,6.499,2.80975,2.80975,0,0,1-1.0083,1.457l-2.82959-4.08985c1.42871-.8125,1.65283-1.12109,1.65283-1.793v-11.29h-3.58594l-.25195-.78515h3.894l1.73682-1.708,3.13769,2.60449a1.64944,1.64944,0,0,1-1.20459.50489v10.085c.98047-.55957,2.01709-1.12012,3.02539-1.709Zm-8.57276-17.28515c8.68506.70019,5.771,7.25585,2.29737,4.98632a14.00851,14.00851,0,0,0-2.52149-4.84668ZM177.522,231.96832a13.9656,13.9656,0,0,0,7.73194,5.1543l-.05567.30859c-1.42871.39258-2.46582,1.625-2.91406,3.58594-2.68945-1.87695-4.23-4.67871-5.23828-8.54492v9.35742c0,.252-1.14893,1.00879-3.05371,1.00879h-.70069v-7.11621a20.27794,20.27794,0,0,1-7.84423,5.63086l-.252-.33594a18.59977,18.59977,0,0,0,6.13526-9.04883H166.708l-.22412-.78418h6.80761v-2.998h-1.90478v.30859c0,.22363-1.06445,1.00781-2.88574,1.00781h-.64453V216.72809l3.92236,1.457h6.75146l1.65332-1.84961,3.47364,2.63379a1.95671,1.95671,0,0,1-1.12061.61621v8.71289c0,.05566-.19629.168-.47607.28027.36425.30762,2.1289,1.84864,3.22168,2.94141-.084.30762-.39258.44824-.78467.44824Zm-6.13525-12.999v3.78223H173.544V218.9693Zm0,8.43262H173.544v-3.86621h-2.15723Zm5.40674-8.43262v3.78223h2.01709V218.9693Zm2.01709,4.56641h-2.01709v3.86621h2.01709Zm-1.76465,4.65039v2.998h3.13769l1.73633-2.5498a8.543,8.543,0,0,1-2.46484.5039h-.64453v-.95214Z"/><path d="M207.95361,227.51422c6.8916,2.63281,3.502,7.89942.84034,5.35059a13.99172,13.99172,0,0,0-.84034-4.11817v12.999c0,.22363-1.20459,1.06445-3.05371,1.06445h-.70068v-8.90918a22.49315,22.49315,0,0,1-3.78174,4.0625l-.3081-.28027a34.66358,34.66358,0,0,0,3.69824-11.57032H200.5293l-.22364-.78418h3.89356v-4.4541c-1.26026.13965-2.54883.252-3.78174.30762l-.084-.28027a34.52359,34.52359,0,0,0,7.62011-4.70606l4.20215,3.61426a2.18213,2.18213,0,0,1-2.01709.05566c-.64453.168-1.37256.30762-2.18506.47657v4.62207l1.3169-1.96094s1.793,1.59668,2.8291,2.66113c-.084.3086-.36426.44824-.75635.44824h-3.38965Zm16.13672,10.56152s1.93311,1.65235,3.05371,2.77344c-.08447.30762-.36425.44824-.78466.44824H210.11084l-.22412-.78418h6.61133v-5.21093h-4.39844l-.22363-.78516h4.62207v-4.90234h-4.84668l-.22364-.78418h10.53321l1.68115-2.38184s1.90479,1.625,2.99756,2.71777c-.05615.3086-.36426.44825-.75635.44825h-5.603v4.90234h.84034l1.76513-2.40918s2.04492,1.625,3.22168,2.74609c-.084.30762-.36426.44825-.78418.44825h-5.043v5.21093h2.12891Zm-8.04053-11.8789c0,.33691-1.625,1.14844-3.13769,1.14844h-.53223V217.00836l3.81006,1.457h4.65088l1.68066-1.82129,3.502,2.63282a1.9566,1.9566,0,0,1-1.12061.58886V225.609a6.27254,6.27254,0,0,1-3.13769.86816h-.64453v-1.06445H216.0498Zm0-6.94727v5.37891h5.07081v-5.37891Z"/><path d="M253.42969,233.84528a69.49973,69.49973,0,0,1-5.35108,6.24707,2.99809,2.99809,0,0,1-1.06445,1.625l-2.82959-4.08985c1.42871-.8125,1.65283-1.12109,1.65283-1.793v-11.29h-3.05322l-.25244-.78515h3.36181l1.73682-1.708,3.1377,2.60449a1.64948,1.64948,0,0,1-1.20459.50489v10.30957c1.20459-.58887,2.49316-1.20508,3.7539-1.84961Zm-9.77735-17.36914c9.60938.084,7.42383,7.31152,3.55762,5.3789a17.71377,17.71377,0,0,0-3.75391-5.21094Zm23.897,13.75488c-.19629.33691-.47608.4209-1.17676.50488a19.19339,19.19339,0,0,1-4.37061,6.27539,34.50641,34.50641,0,0,0,7.22852,1.625l-.02832.33594a4.90347,4.90347,0,0,0-3.55762,3.89355,19.50892,19.50892,0,0,1-6.75195-3.50195,27.80028,27.80028,0,0,1-10.00147,3.47461l-.14013-.30859a22.94285,22.94285,0,0,0,8.32031-5.07032,18.44261,18.44261,0,0,1-3.27734-7.53613H251.833l-.25244-.78516h10.05761l2.04493-1.93261H263.207c-2.57764,0-2.85742-.72852-2.85742-3.05371v-5.09864h-2.96973v1.40039c0,2.46582-.70019,6.668-7.06006,8.76954l-.168-.22461c3.08154-2.60547,3.418-5.9668,3.418-8.51661v-3.69824l4.37012,1.48535H260.041l1.82128-1.98925,3.27735,2.57714a1.52276,1.52276,0,0,1-.98047.41993v3.89453c0,.30859.05615.41992.39258.41992h1.37256a6.324,6.324,0,0,0,.75634-.05566c.19629-.02832.53223-.084.75684-.13965h.252l.168.05566c.84033.41992,1.09278.8125,1.09278,1.5127,0,1.457-1.28907,2.24121-4.25879,2.24121h-.53223Zm-13.30713-.30762a11.37679,11.37679,0,0,0,4.62207,5.54688,18.84508,18.84508,0,0,0,2.94189-5.54688Z"/><path d="M292.294,235.83453c1.40039-.50488,2.91357-1.09277,4.4541-1.709l.084.25195a66.724,66.724,0,0,1-6.10693,6.13574,2.85407,2.85407,0,0,1-.98047,1.28809l-2.85791-4.11816c1.31689-.8125,1.541-1.12012,1.541-1.793V224.76813h-3.78222l-.252-.78418h4.09034l1.76513-1.73731,3.16553,2.63379a1.58993,1.58993,0,0,1-1.1206.50391Zm-5.26661-19.35839c9.44092.11132,6.94727,7.31152,3.10938,5.21093a15.76348,15.76348,0,0,0-3.30567-5.043Zm20.59082,7.36816s2.3252,1.87695,3.69825,3.13769c-.084.30762-.39258.44825-.8125.44825h-6.416v13.81152c0,.41992-1.793,1.42871-3.36133,1.42871h-.78515V227.43024H294.1709l-.22412-.78516h5.99463V216.33551l5.18359.50488c-.05664.3916-.22461.67188-1.03711.78418v9.02051h1.457Z"/><path d="M337.96582,233.42535a76.17733,76.17733,0,0,1-5.127,6.72364,2.98083,2.98083,0,0,1-1.06446,1.56836l-2.8291-4.08985c1.42871-.8125,1.65235-1.12109,1.65235-1.793v-11.29h-3.69727l-.25293-.78515h4.00684l1.73632-1.708,3.1377,2.60449a1.6469,1.6469,0,0,1-1.2041.50489v10.001c1.12012-.61621,2.32519-1.28808,3.5293-1.96094Zm-9.38477-16.97754c8.68457.7002,5.77051,7.25586,2.29688,4.98633a14.00857,14.00857,0,0,0-2.52148-4.84668Zm23.4209,21.59961a1.459,1.459,0,0,1,1.00782,1.5127c0,1.373-1.12012,2.04492-4.50977,2.04492h-1.709c-2.63379,0-3.02637-.70019-3.02637-2.96875v-7.70508h-.78418c-.39258,4.81934-1.56836,9.10547-9.94531,11.90723l-.28028-.39258c5.60254-3.22168,6.21973-6.86328,6.3877-10.75781a6.59752,6.59752,0,0,1-2.3252.50391h-.53222v-11.29l3.92187,1.51367h.39258a2.81559,2.81559,0,0,1-1.14844-.5332,10.46,10.46,0,0,0-2.46582-5.40625l.22363-.168c7.03223,1.09179,6.3877,5.6582,4.11914,6.10742h2.68946a54.62244,54.62244,0,0,0,1.709-6.3877l5.07032,1.56836c-.11231.33692-.44825.56055-1.09278.50489a48.54122,48.54122,0,0,1-4.51074,4.31445h1.20508l1.56836-1.65332,3.19433,2.38086a1.27564,1.27564,0,0,1-.78418.4209v7.25586c0,.22363-1.65332.83984-2.85742.92382v6.02344c0,.33594.084.44824.50391.44824h1.76465a.63446.63446,0,0,0,.58886-.30761,29.62262,29.62262,0,0,0,1.25977-3.166h.28125Zm-11.96289-14.84765V230.147h6.584v-6.94726Z"/><path d="M373.30078,233.42535v2.82911c0,.28027-1.14941,1.23242-3.05469,1.23242h-.67187v-20.0586l4.08984,1.5127h1.98926l1.7373-1.9043,3.44532,2.68946a2.00011,2.00011,0,0,1-1.12012.61621v14.37109c-.02832.28027-1.793,1.20508-3.166,1.20508h-.61621v-2.49317Zm0-13.69921v6.05078h2.63281v-6.05078Zm2.63281,12.91406v-6.0791h-2.63281v6.0791Zm18.9668-13.44727a1.99214,1.99214,0,0,1-1.14941.58887V238.356c0,2.57715-.58789,4.00586-5.01465,4.39844a4.46379,4.46379,0,0,0-.83985-2.71778,4.78441,4.78441,0,0,0-2.9414-1.3164V238.356s3.58594.19629,4.31347.19629c.50489,0,.64454-.19629.64454-.61719v-6.05078h-4.59473c-.67188,4.23047-2.85742,8.26465-9.44141,10.8418l-.22363-.22461c5.43457-4.14551,6.19141-9.30079,6.19141-15.12793V216.89606l4.34277,1.48437h3.44531l1.709-1.96094Zm-4.9873,11.90723v-5.60352H385.627v1.84864a28.36513,28.36513,0,0,1-.19629,3.75488ZM385.627,219.16559v5.54687h4.28614v-5.54687Z"/><path d="M436.76172,230.53961a1.68736,1.68736,0,0,1-1.1211.53223c-.252,5.54687-.72851,7.98437-2.21289,9.02051a6.31125,6.31125,0,0,1-4.00585,1.00879,3.94052,3.94052,0,0,0-.5879-2.68946,5.147,5.147,0,0,0-2.74609-1.34472l.02832-.28028c1.14844.084,2.99707.168,3.55762.168a1.08832,1.08832,0,0,0,.8125-.22363c.53222-.44824.8125-2.57715.98047-6.35938h-7.14356v10.81348c0,.41992-1.90527,1.51269-3.53027,1.51269h-.83985V230.37164H411.2959l-.252-.78418h8.90917v-6.1914H413.3125l-.252-.78516h6.89257v-6.38672l5.29493.50391c-.05664.33594-.22461.61621-.92481.72851v5.1543h3.165l1.51367-1.793,3.75391,2.68946a1.56465,1.56465,0,0,1-1.03711.47656l-.41992,5.51855,1.98926-1.84863Zm-12.43848-.95215h2.91309l.47656-6.1914h-3.38965Zm3.9502-12.29882c10.61718-.58887,8.82422,7.45214,4.5664,5.65917a17.594,17.594,0,0,0-4.73437-5.49121Z"/><path d="M175.24365,467.94928a20.48024,20.48024,0,0,0,3.20459.17773c1.50586,0,5.271,0,6.87305-.04882v.19336a1.8529,1.8529,0,0,0-1.24951,1.90625H178.3999c-3.26806,0-5.09472-.60938-6.16845-2.9004a6.22966,6.22966,0,0,1-2.1626,3.17188l-.12842-.16016a13.37419,13.37419,0,0,0,.80127-6.39257l2.41943.1289v-.94531H170.085l-.12842-.44922h5.28711l.73682-.99414a3.42879,3.42879,0,0,1-.86524.12891h-.36816v-.5293h-1.89062v.38476c0,.19336-.91309.65821-1.77833.65821h-.30468v-6.7461l2.16308.834h1.63428l.96143-1.07422,2.03466,1.53711a1.16949,1.16949,0,0,1-.689.36914v4.08594c0,.03125-.144.11133-.33643.1914.28858.24024.78516.64258,1.21778,1.02539v-4.45312l1.79443.73633h.38428c.01611-.56055.01611-1.36133.01611-1.98633h-2.40332l-.12793-.44922h4.83838l1.08936-1.44141s1.23388.97852,1.9707,1.63477c-.04785.17578-.22412.25586-.44824.25586h-2.49951a15.645,15.645,0,0,1-1.84229,1.98633h1.73l.81689-.86524,1.68262,1.26563a.91041.91041,0,0,1-.52881.27344v5.31835a1.76061,1.76061,0,0,1-.84912.38477c2.25879.94531,1.29785,3.23633-.35254,2.48438a8.86562,8.86562,0,0,0-1.84277-2.43555c-.57617,1.25-1.73,2.14648-4.06934,2.72265l-.144-.25585c3.15625-1.49024,3.06006-3.75,3.07617-8.07422l2.355.46484v-.834h-2.916v5.6875c0,.14453-.59278.48046-1.26563.54492l.04834.04883c-.04834.17578-.22412.25586-.44873.25586h-2.57959Zm-2.08252-3.60352a.71336.71336,0,0,1-.417.16016,12.78226,12.78226,0,0,1-.3042,2.01758,3.92677,3.92677,0,0,0,.72119.6582Zm-.30468-7.53125v1.81055h1.89062v-1.81055Zm1.89062,3.97461v-1.71484h-1.89062v1.71484Zm.49658,2.291v2.24219h.16065l1.041-1.49024s.689.59375,1.314,1.18555v-1.9375h-2.51563Zm7.16162-2.86914a.60911.60911,0,0,1-.52832.22461,15.15992,15.15992,0,0,1-.51269,4.34179,6.382,6.382,0,0,1,1.041.11329Z"/><path d="M199.83545,457.13483a1.16784,1.16784,0,0,1-.689.38476V469.504a3.54635,3.54635,0,0,1-2.147.73828h-.38428v-1.39453h-5.87988v.70508c0,.30468-.97754.89648-2.05078.89648h-.40088V455.61334l2.59522,1.02539h5.55957l1.16992-1.29687Zm-9.1001-.04688v3.39649h5.87988V457.088Zm0,3.84375v3.46094h5.87988V460.9317Zm5.87988,7.4668v-3.55664h-5.87988v3.55664Z"/><path d="M216.56055,464.41022a1.15256,1.15256,0,0,1-.68946.38281v4.82422a3.78858,3.78858,0,0,1-2.03418.64062h-.417v-1.25h-4.53418v.832c0,.16016-.7207.68946-1.9541.68946h-.44922v-5.334a24.86832,24.86832,0,0,1-4.35742,1.2168l-.08008-.17578a23.55972,23.55972,0,0,0,6.63281-4.03711,1.54066,1.54066,0,0,1-1.28173-.36914,6.19947,6.19947,0,0,0-.561-1.9707,17.27139,17.27139,0,0,1-4.48584,3.15625l-.1123-.12891a20.03485,20.03485,0,0,0,5.09521-7.70508l3.14014.84766c-.08008.17773-.2085.27344-.67285.24023-.24073.40039-.52881.78516-.8169,1.18555h3.2041l1.458-1.3125,2.14649,2.05078c-.12793.207-.3042.27148-.76856.30469a16.37782,16.37782,0,0,1-5.81641,5.41406h4.03809L214.333,462.711Zm-7.93067-6.50586c-.38476.46484-.78515.92969-1.21777,1.3789,1.8584.38282,2.40332,1.28125,2.24316,2.002a15.19741,15.19741,0,0,0,2.56348-3.38086Zm4.79,10.65429v-4.19726h-4.53418v4.19726Z"/><path d="M233.542,459.13873c-.12842.14453-.28906.19141-.625.22461a14.62036,14.62036,0,0,1-2.37109,2.13086l-.12842-.09765c.11182-.72071.1919-1.7461.22412-2.51563h-3.57275a10.46535,10.46535,0,0,1-2.65967,3.14063l-.19238-.11133c.12841-.28907.24023-.625.35254-.96094h-2.13086v.80078c3.87744,1.25,2.00293,4.166.49707,2.77149a7.00147,7.00147,0,0,0-.49707-2.13086v7.498a2.178,2.178,0,0,1-1.7461.60938H220.292V465.4024a12.9221,12.9221,0,0,1-2.16308,2.32422l-.17627-.16015a19.82824,19.82824,0,0,0,2.11474-6.61719h-1.87451l-.12842-.44922H220.292V457.92c-.72119.04883-1.458.09766-2.16308.11328l-.03223-.17773a21.82885,21.82885,0,0,0,4.59814-2.57813l2.355,2.14649a1.29284,1.29284,0,0,1-1.18554,0c-.416.0957-.897.17578-1.42578.25586v2.82031l.91308-1.33008s.78516.70508,1.37793,1.29883a27.58285,27.58285,0,0,0,1.02539-5.19141l3.09229.76954c-.064.22265-.272.35156-.64063.36718a16.71061,16.71061,0,0,1-.88134,2.01953h3.14062L231.603,457.295Zm-3.1084.84961c-.03222.24024-.19238.38281-.561.43164v7.54688c0,1.50586-.32031,2.30664-2.67529,2.51562a3.13,3.13,0,0,0-.36866-1.57031,1.75216,1.75216,0,0,0-1.314-.7207v-.209s1.52246.09571,1.84277.09571c.208,0,.28809-.08008.28809-.24024v-5.07812l-.11231.01562a12.42488,12.42488,0,0,1-3.36425,5.63867l-.208-.11132a24.45731,24.45731,0,0,0,1.4414-6.53711l2.24317.52929v-2.54883Zm-.19238,1.873c4.74219,3.2207,2.80371,7.67578.78516,5.625a17.64267,17.64267,0,0,0-.97754-5.56055Z"/><path d="M263.62988,456.463s1.10547.94531,1.73047,1.57031c-.03223.17579-.208.25586-.43262.25586h-2.78808v1.85938a3.43085,3.43085,0,0,1-1.8584.43164H259.897v-2.291h-1.24951v2.03516a3.26011,3.26011,0,0,1-1.81055.44727h-.36865v-2.48243h-1.37793v1.97071a3.261,3.261,0,0,1-1.82666.44922h-.36816v-2.41993h-2.73975l-.12842-.44922h2.86817V455.293l2.7876.24023c-.03174.209-.16016.36914-.59278.44922v1.85742h1.37793v-2.48242l2.75586.24024c-.03223.207-.144.36914-.57666.44922v1.793H259.897v-2.51562l2.83594.24023c-.03223.209-.144.38477-.59326.44922v1.82617h.51269Zm-.44824,3.42774,1.9707,1.89062a.80921.80921,0,0,1-.60937.19336c-.57617.38477-1.56983.97656-2.22656,1.3125l-.11231-.08008V461.4942h-9.43652a2.02525,2.02525,0,0,1-.22461,1.4082l2.27539.86524h1.56982v-2.01758l2.80371.24024c-.03173.209-.12841.35156-.5288.416v1.36133h1.458l1.05762-1.20117,2.24317,1.69922a1.23344,1.23344,0,0,1-.78516.43164v2.291c0,1.28321-.32031,1.98633-2.61133,2.16406a2.999,2.999,0,0,0-.24072-1.3789,1.37761,1.37761,0,0,0-1.04151-.60742v-.19336s1.02539.06445,1.314.06445c.20849,0,.25635-.0957.25635-.27344v-2.54687h-1.65039v5.67187c0,.17578-1.00928.59375-1.8584.59375h-.41651v-6.26562h-1.69824v4.11719c0,.209-.99365.70507-1.92236.70507h-.3208v-5.97461a1.60793,1.60793,0,0,1-.72119.51172c-1.47364.54492-2.38672-1.42578-.75293-2.19531a1.64727,1.64727,0,0,0,1.00976-1.60156l.17578-.01563a5.7197,5.7197,0,0,1,.5293,1.28125h9.34033Z"/><path d="M280.62744,467.93365c.60889,1.13868.70459,1.79493.36865,2.09961-.94531.84961-2.45166.04688-3.17285-.64062a12.05253,12.05253,0,0,1-3.30029-7.00195.43086.43086,0,0,1-.43213.209h-2.45166v4.26172c1.0415-.16016,2.147-.35352,3.28467-.54492l.03174.17578a59.03859,59.03859,0,0,1-6.85694,3.20508.683.683,0,0,1-.44922.416l-1.47363-2.41992c.689-.08008,1.79443-.24023,3.14014-.46484v-4.62891H266.7207l-.12841-.44922h4.7583l1.13769-1.47461s1.25.96094,2.01856,1.63477c-.144-.91406-.24024-1.89063-.3042-2.88477h-7.96289l-.12842-.44726h8.07519c-.064-1.1543-.08007-2.3711-.08007-3.60547l2.96386.28906c-.03174.207-.16015.40039-.57666.46484-.01611.96094-.03174,1.92188,0,2.85157h1.186l.76855-.94532c-.064-.0332-.1123-.04882-.17578-.08007a4.89194,4.89194,0,0,0-1.314-1.97071l.11181-.0957c3.23633-.38477,3.41309,1.4082,2.53174,2.0332.48047.36914,1.13721.86524,1.61816,1.25-.04833.17578-.24072.25586-.481.25586h-4.22949c.14453,3.18946.75293,6.00977,2.72363,7.707.208.209.33642.209.51269-.04882a18.8969,18.8969,0,0,0,1.1377-2.06641l.16016.04883Z"/><path d="M286.08887,466.89264c1.20215.97656,2.98047,1.26562,6.3291,1.26562,1.71387,0,3.17187-.01562,4.90234-.1289v.19336a1.9941,1.9941,0,0,0-1.394,1.84179h-4.19775c-3.34864,0-4.71-.8164-5.97559-2.6582-.22461-.33789-.40088-.28906-.59326.01563-.3042.51171-1.02539,1.61718-1.522,2.53125a.33436.33436,0,0,1-.19239.36914l-1.37793-2.17969c.57715-.27344,1.29785-.65625,1.92285-.99414V461.67h-1.76269l-.0957-.44922h1.602l1.02539-1.36132,2.1626,1.73046a1.29575,1.29575,0,0,1-.833.36719ZM282.93262,455.629c5.36718,1.00976,3.541,5.0957,1.44238,3.541a9.614,9.614,0,0,0-1.57031-3.46093Zm4.03759,4.96679-.12841-.44726h6.92187l1.2334-1.61914s1.37793,1.07422,2.19531,1.81054c-.04834.17579-.24072.25586-.46484.25586h-5.96l2.16308.99414a.52175.52175,0,0,1-.54492.25586,17.13788,17.13788,0,0,1-3.5249,3.20508c1.3457-.06445,3.25244-.16015,5.207-.28906a19.81352,19.81352,0,0,0-1.18555-2.5625l.144-.08008c5.84863,2.01758,3.87744,6.584,1.61816,4.72461a10.74915,10.74915,0,0,0-.43262-1.68164c-1.32959.51367-3.3164,1.21875-5.70361,1.92188a1.0264,1.0264,0,0,1-.51269.35351l-.70459-2.45117a2.181,2.181,0,0,0,.59277-.22461,11.00426,11.00426,0,0,0,2.19433-4.166Zm1.10547-3.23632-.12841-.44727h5.06347l1.18555-1.58789s1.3457,1.05859,2.14648,1.7793c-.04785.17578-.22412.25586-.46435.25586Z"/><path d="M307.13965,460.82037l1.53808,1.1543a.90143.90143,0,0,1-.49609.25586v6.34375c0,1.08984-.19238,1.63477-1.68262,1.76367a2.84828,2.84828,0,0,0-.12793-1.02539.74441.74441,0,0,0-.57714-.43359v-.22461s.43261.0332.59277.0332c.17578,0,.209-.08008.209-.24023v-1.93946h-.99414v3.34961c0,.17578-.68847.57617-1.42578.57617h-.27246v-5.35156c-.38379.28906-.86523.625-1.47363,1.02539v3.76563c0,.11133-.57715.51172-1.57031.51172h-.35254v-3.043c-.27246.16015-.56055.33594-.86524.51172a.68408.68408,0,0,1-.44824.418l-1.18555-2.35547c.52832-.06446,1.42578-.209,2.499-.40039V463.127h-.35254l-.70508.834-1.81055-1.13867a3.26006,3.26006,0,0,1,.625-.38282c.35254-.96289.75293-2.37109,1.1211-3.71875h-1.16895l-.12793-.44726h1.41016c.32031-1.18555.57617-2.30664.68847-2.9961l2.45118.5918c-.06348.209-.24024.38477-.65723.35352-.14356.56054-.33594,1.26562-.54492,2.05078h.43359l.92871-1.13867s1.05762.76953,1.71387,1.33007c-.04688.17579-.208.25586-.44824.25586h-2.75489l-.27343.99414,1.9873.209c-.04785.22461-.17676.38476-.59277.44726v2.3086h.01562l.65723-.86524s.40039.32032.80078.65625V460.8692l1.7627.73633h.80078Zm-6.23242-.625c-.25586.91407-.5127,1.7793-.72071,2.48438h.72071Zm2.99609,4.69532V463.127h-1.47363v2.03516Zm5.65527-8.57227a.60091.60091,0,0,1-.64062.25586,9.35831,9.35831,0,0,0,4.50195,2.09961l-.03125.22461a2.63457,2.63457,0,0,0-1.20215,1.89062,9.60867,9.60867,0,0,1-3.57324-3.83007,10.00427,10.00427,0,0,1-5.22266,3.877l-.14453-.16016a11.87041,11.87041,0,0,0,3.83008-5.52734Zm-3.957,5.73633v1.74609h.99414v-1.74609Zm.99414,4.0039v-1.80859h-.99414v1.80859Zm-.834-5.75-.12793-.44921h2.43555l.86523-1.07422s.97754.73828,1.58594,1.26562c-.04785.17774-.208.25781-.43262.25781Zm4.32617,7.16016c0,.12891-.60937.40039-1.10547.40039h-.25586v-6.29492l1.77735.17578c-.03125.16016-.12793.28906-.416.33594Zm.86523-6.32812,2.24317.209c-.04785.24023-.208.36719-.57715.416v6.72851c0,1.21875-.22461,1.875-2.05078,2.05078a2.31082,2.31082,0,0,0-.28809-1.20117,1.53482,1.53482,0,0,0-1.07324-.56055v-.22461s1.20117.08008,1.47363.08008c.208,0,.27246-.06445.27246-.24023Z"/><path d="M318.48145,460.91608c4.13378,1.123,1.9873,4.21484.417,2.67578a5.50157,5.50157,0,0,0-.417-2.291v8.57227c0,.1914-.91309.625-1.7461.625h-.44824v-6.07227a11.86673,11.86673,0,0,1-2.19531,2.27539l-.17676-.16015a17.39914,17.39914,0,0,0,2.13086-6.7461h-1.88965l-.12891-.44922h2.25977V455.2442l2.78711.25781c-.03223.24024-.14453.40039-.59277.46485v3.3789h.08007l.94532-1.47265s1.07324,1.00781,1.65039,1.666c-.04785.17578-.208.25586-.43262.25586h-2.24316Zm10.31835,6.95312c.46387.27344.6084.51367.6084.91406,0,.834-.70508,1.25-2.22656,1.25h-.68945c-1.34571,0-1.57031-.46484-1.57031-1.77929V457.27936h-1.47364v5.127c0,3.07617-.30469,6.20117-4.64648,8.13867l-.12793-.11133c2.32324-2.17968,2.58008-4.93554,2.58008-8.01171v-6.45508l2.53125.86328h.92871l1.07324-1.28125,2.01953,1.65039a.98933.98933,0,0,1-.6416.30469v10.10937c0,.209.03223.30469.16016.30469h.30468a.43.43,0,0,0,.32032-.16016,11.3054,11.3054,0,0,0,.625-1.84179h.14453Z"/><path d="M334.46973,460.19537c-.04785.14453-.17676.25586-.49707.32032v9.34179a2.78326,2.78326,0,0,1-1.89063.65625h-.43262V462.502a12.307,12.307,0,0,1-1.58593,1.33008l-.16016-.11133a27.31944,27.31944,0,0,0,2.85156-8.44336l3.23731.92969c-.08106.207-.27344.33594-.65723.33594a19.0208,19.0208,0,0,1-1.63476,3.38086Zm8.98828-.46484s1.29785,1.041,2.05078,1.73047c-.04785.17578-.22461.25586-.46484.25586h-5.752c-.22363.81836-.43261,1.58789-.625,2.21094h2.51563l1.31347-1.26563,2.16309,2.06836c-.14356.16016-.30371.207-.67285.24023a22.26354,22.26354,0,0,1-2.93164,2.32227c2.53125,1.26562,1.9707,3.50977.24023,3.10937a14.25928,14.25928,0,0,0-5.35156-3.75l.0957-.16015a12.30821,12.30821,0,0,1,4.23047.48047c.36817-.84961.73633-1.82617.97656-2.59571h-2.59472l-.81739.97852-2.11523-1.21875a3.40168,3.40168,0,0,1,.56152-.40039c.19239-.56055.416-1.26563.624-2.01953h-2.72266l-.12891-.44727h2.98047c.24024-.84961.48047-1.74609.68848-2.5957h-2.61133l-.12793-.44922H337.834c.28907-1.2168.5293-2.30664.625-2.98047l2.916.60938c-.06445.19336-.24023.38476-.67285.38476-.12793.5293-.30469,1.2168-.49707,1.98633h1.41015l1.05762-1.42578s1.21777.96094,1.92285,1.61914c-.03222.17578-.209.25586-.44922.25586h-4.05273c-.22461.832-.44922,1.73047-.68945,2.5957h2.93164Z"/><path d="M350.874,463.20709c4.2295,2.41992,2.05078,6.07227.32032,4.18164.0166-.22265.03222-.44726.03222-.67187-.96094.52929-2.19531,1.15234-3.60547,1.77734a1.04863,1.04863,0,0,1-.44824.40039l-1.20117-2.83594a1.99445,1.99445,0,0,0,.67285-.24023,12.3778,12.3778,0,0,0,1.8418-4.61328h-2.33887l-.12793-.44922h5.207l1.07324-1.44141s1.21778.97657,1.93848,1.63477c-.04785.17578-.22363.25586-.44824.25586h-4.82227l2.51465.76953a.53961.53961,0,0,1-.51172.32031,18.19539,18.19539,0,0,1-3.55761,3.877c.96191-.08008,2.30761-.209,3.76562-.35352a14.92161,14.92161,0,0,0-.48144-2.54687Zm-4.10156-5.49414-.12793-.44922h3.70117l1.07325-1.4414s1.21777.97656,1.93847,1.63281c-.04785.17773-.208.25781-.44922.25781Zm14.67578,2.11328a1.15722,1.15722,0,0,1-.70508.32227c-.14355,6.53515-.38378,8.50586-1.3291,9.4043a3.09613,3.09613,0,0,1-2.27539.80078,2.93826,2.93826,0,0,0-.24023-1.50586,2.02473,2.02473,0,0,0-1.23438-.73828l.0166-.19141c.48047.04883,1.20215.08008,1.53809.08008a.71712.71712,0,0,0,.52832-.19141c.54492-.48047.72168-2.80469.84961-8.043h-1.61816c-.12891,4.918-.833,8.41016-5.81641,10.71875l-.14356-.209c3.18848-2.707,3.66895-6.02344,3.7168-10.50977H353.085l-.14355-.44922h1.79394c0-1.26562-.0166-2.61132-.0166-4.07031l2.916.25781c-.04786.25586-.22364.40039-.6084.46485-.0166,1.18554-.0166,2.291-.03223,3.34765h1.42578l1.1543-1.15429Z"/><path d="M376.20312,466.05865c-.09667.14454-.24023.22461-.60937.14454a13.96122,13.96122,0,0,1-2.93164.60937A12.99155,12.99155,0,0,0,377.292,468.127v.19141a2.56228,2.56228,0,0,0-1.74609,2.084,7.61885,7.61885,0,0,1-5.27149-5.44921,9.4407,9.4407,0,0,1-1.90625,1.13867v1.95508c.88086-.08008,1.8584-.17774,2.83594-.27344l.03223.17578c-.89746.48242-2.56445,1.36328-4.59863,2.24414a1.32366,1.32366,0,0,1-.417.33594l-1.20117-2.16211c.94531-.44922,1.08985-.64063,1.08985-.96094v-.51367a28.34482,28.34482,0,0,1-4.07032.80078l-.06347-.19141a13.61549,13.61549,0,0,0,5.35058-2.85156h-4.918l-.1289-.44922H369.169a1.83745,1.83745,0,0,1-.417-.22461,2.47523,2.47523,0,0,0-.51172-1.47461l.11133-.08007c2.96485-.16016,2.69239,1.41015,1.68262,1.77929h4.03809l1.10546-1.50586s1.249,1.00977,1.98633,1.69727c-.04785.17773-.22461.25781-.44922.25781h-2.45117Zm-10.46289-5.81445a25.7184,25.7184,0,0,1-1.84179,1.9707.60619.60619,0,0,1-.40039.43165l-1.37891-2.2754c.65723-.0957,2.13086-.40039,3.62109-.70507v-4.4043l2.75586.24023c-.03222.22266-.14453.38477-.59277.44727v6.92187c0,.16016-.94531.5293-1.77832.5293h-.38477Zm-2.67578-4.13476c4.23047,1.123,1.90723,4.19921.32032,2.5957a5.63306,5.63306,0,0,0-.46387-2.53125Zm7.9795,2.01953v-2.80469l2.85156.22461c-.0166.209-.12793.35351-.5127.418V458.129h.75293l1.08985-1.459s1.23339.97852,1.9707,1.65039c-.04785.17774-.22461.25782-.46484.25782h-3.34864v2.94726h.5293l1.02539-1.41015s1.16895.96093,1.85742,1.60156c-.04785.17773-.22363.25781-.44824.25781H368.6084l-.12793-.44922H371.044v-2.94726h-2.80372l-.1289-.44922Zm-.5293,6.63281a5.06024,5.06024,0,0,0,1.58691,1.69922,11.43312,11.43312,0,0,0,1.81055-1.81055h-3.26953Z"/><path d="M391.32617,467.9024s1.3125.92969,2.13086,1.58594c-.0332.17578-.22461.25586-.44922.25586h-14.5957l-.12891-.44726h2.62793v-8.12305l2.41895.89648h1.00976c.01563-.36914.04883-.80078.06446-1.25h-6.02442l-.12793-.44922h6.168c.01563-.46484.03223-.9121.04883-1.3125h-2.66016v.33594c0,.19141-1.00976.65625-1.89062.65625h-.30469v-4.59765l2.35547.88086h7.67383l.97851-1.041,2.01758,1.50586a.94956.94956,0,0,1-.59179.32031v2.11524c0,.04882-.17676.14453-.417.24023.417.30469.99317.73633,1.42578,1.08984-.04785.17579-.22363.25586-.44824.25586h-6.12109c-.19141.4336-.40039.88086-.57617,1.25h2.00293l.96093-1.23437,2.30762,1.55469c-.1123.17578-.28906.27148-.7207.35156v6.18555Zm-9.51758-9.293h1.28125v-1.82618h-1.28125Zm1.39356,3.91015v1.39258h4.85449v-1.39258Zm4.85449,1.8418h-4.85449v1.31445h4.85449Zm-4.85449,1.76172v1.29883h4.85449v-1.29883Zm0,3.17383h4.85449V467.8692h-4.85449Zm4.34277-9.918c-.04883.28711-.27344.43164-.6416.49609l-.208.49609h3.2041l.5127-.60742a1.00989,1.00989,0,0,1-.208.01563h-.40137v-.72071h-5.0625Zm-2.45215-2.59571v1.82618h1.34668v-1.82618Zm3.36426,0v1.82618h1.3457v-1.82618Z"/><path d="M400.42383,465.37115a39.8305,39.8305,0,0,1-3.06055,3.57227,1.71378,1.71378,0,0,1-.6084.92969l-1.61816-2.33985c.8164-.46484.94531-.64062.94531-1.02539v-6.457h-1.74609l-.14453-.44726h1.92285l.99316-.97852,1.79492,1.49024a.94515.94515,0,0,1-.68945.28906v5.89648c.68945-.33789,1.42578-.68945,2.14649-1.05859Zm-5.5918-9.93359c5.49609.04688,4.24609,4.18164,2.03516,3.07617a10.15685,10.15685,0,0,0-2.14649-2.98047Zm13.667,7.86719c-.1123.1914-.27246.24023-.67285.28711a10.99065,10.99065,0,0,1-2.5,3.58984,19.63322,19.63322,0,0,0,4.13379.92774l-.01562.19336a2.804,2.804,0,0,0-2.03516,2.22656,11.16433,11.16433,0,0,1-3.86133-2.002,15.89815,15.89815,0,0,1-5.71973,1.98633l-.08007-.17578a13.135,13.135,0,0,0,4.75879-2.90039,10.53061,10.53061,0,0,1-1.874-4.31055h-1.12207l-.14453-.44726h5.75195l1.16895-1.10547h-.27149c-1.4746,0-1.63476-.418-1.63476-1.748v-2.91406h-1.69727v.80078c0,1.41016-.40136,3.8125-4.03808,5.01367l-.09668-.127a5.912,5.912,0,0,0,1.95508-4.87109v-2.11524l2.5.84961h1.20117l1.041-1.13867,1.875,1.47461a.86393.86393,0,0,1-.56054.24023v2.22657c0,.17773.03125.24023.22461.24023h.78418a3.73644,3.73644,0,0,0,.43261-.03125c.11231-.01562.30469-.04883.43262-.08008h.14453l.0957.03125c.48145.24024.625.46485.625.86524,0,.834-.7373,1.2832-2.43457,1.2832h-.30468Zm-7.61035-.17774a6.51454,6.51454,0,0,0,2.64356,3.17383,10.79852,10.79852,0,0,0,1.68261-3.17383Z"/><path d="M414.60156,466.50787c.80078-.28711,1.666-.625,2.54688-.97656l.04883.14453a38.18557,38.18557,0,0,1-3.49219,3.50781,1.61891,1.61891,0,0,1-.56153.73633l-1.63378-2.35351c.752-.46485.88085-.64258.88085-1.02539v-6.36133h-2.16308l-.14356-.44922h2.33887l1.00879-.99219,1.81055,1.50586a.9058.9058,0,0,1-.64063.28711Zm-3.01172-11.07031c5.39844.06445,3.97266,4.18164,1.77832,2.98047a8.99972,8.99972,0,0,0-1.89062-2.88477Zm11.77539,4.21289s1.33008,1.07422,2.11524,1.79492c-.04883.17578-.22461.25586-.46485.25586h-3.66894v7.89844c0,.24023-1.02539.81836-1.92285.81836h-.44824v-8.7168H415.6748l-.12792-.44726h3.42871v-5.89649l2.96386.28711c-.03125.22461-.12793.38477-.59277.44922V461.254h.833Z"/><rect x="233.64" y="472.621" width="192.00002" height="0.77899"/><path d="M178.42236,489.586c.73682,3.17187-3.3164,2.0664-1.50634-.11328a1.38438,1.38438,0,0,0,.70507-.88086,1.17888,1.17888,0,0,1-.59277.11328,28.04305,28.04305,0,0,1-2.33887,3.668,4.8795,4.8795,0,0,1,2.3711,3.99023c0,1.58594-.59278,2.5625-2.40332,2.59571a4.89516,4.89516,0,0,0-.208-1.61915.91956.91956,0,0,0-.417-.35156v4.05274c0,.14453-.625.65625-1.68213.65625h-.38428V486.86139l2.2749.84961h.54444l1.02539-.99414,1.85888,1.68359c.01612-.08008.01612-.16015.03174-.25781h.17676a7.88126,7.88126,0,0,1,.416.99414h2.56347a1.64937,1.64937,0,0,1-.46435-.30469,4.01729,4.01729,0,0,0-.60889-2.32226l.1123-.08008c3.31641.36719,3.14014,2.19531,2.09864,2.707h2.147l.96143-.96094,1.68212,1.60156c-.12841.12891-.28857.16016-.60888.17579a17.2192,17.2192,0,0,1-1.82617,1.10546c.32031.28907.67285.59375.94531.84961-.03223.17579-.2085.25586-.43262.25586h-7.16211l-.12793-.44726h4.83838l1.02539-1.41016s.24072.19141.561.46485c.08007-.36915.17578-.80079.24023-1.18555Zm-3.84521,7.1289a.501.501,0,0,0,.32031-.08007.98593.98593,0,0,0,.28858-.84961,6.21244,6.21244,0,0,0-.897-3.36328c.22364-1.07422.5127-2.98047.64063-4.26172h-.89746v8.55468Zm11.56738,2.38672a.87931.87931,0,0,1,.57715.91407c0,.832-.65723,1.29687-2.49951,1.29687h-.897c-1.47413,0-1.68262-.416-1.68262-1.77734V494.6153h-.91309c-.208,2.67578-.94531,5.2246-5.335,6.92187l-.14453-.19141c2.8999-2.11523,3.06006-4.4375,3.124-6.73046h-1.31347l-.12793-.44727h6.63281l1.08936-1.49023s1.23388,1.00976,1.95459,1.68164c-.04786.17578-.22413.25586-.44825.25586h-2.37158v4.32617c0,.19336.03223.25781.25635.25781h.86523a.33965.33965,0,0,0,.32032-.17773,11.5379,11.5379,0,0,0,.70507-1.7461h.16016Z"/><path d="M192.96826,502.9317l-.36865.35156c-2.75537-2.27343-4.26172-4.74218-4.26172-8.16992,0-3.42969,1.50635-5.92773,4.26172-8.17187l.36865.35351a11.055,11.055,0,0,0-2.70752,7.81836A11.49108,11.49108,0,0,0,192.96826,502.9317Z"/><path d="M200.06543,497.91608c-.09619.16015-.24023.25781-.625.209a13.68431,13.68431,0,0,1-5.207,3.01172l-.11231-.16016a14.0414,14.0414,0,0,0,3.36475-4.5664Zm3.84473-5.10938c6.28076.5918,5.06347,5.10938,2.78808,3.877a8.1128,8.1128,0,0,0-1.08935-1.875c-.78516.19141-1.71436.38477-2.7876.60938v3.97266c0,1.41015-.35254,2.22656-2.772,2.38671a2.84,2.84,0,0,0-.28858-1.42578,1.5841,1.5841,0,0,0-1.21777-.65625v-.17578s1.28223.08008,1.60254.08008c.208,0,.27246-.11328.27246-.25781v-3.459c-1.1377.207-2.3877.43164-3.71729.64063a.98521.98521,0,0,1-.4165.36719l-1.07324-2.3711a6.25934,6.25934,0,0,0,.88086-.16015,22.86836,22.86836,0,0,0,5.73584-2.57813c-1.23389.32031-2.7876.70313-4.53418,1.08789a.79056.79056,0,0,1-.32032.25781l-1.05761-2.35546a3.78736,3.78736,0,0,0,.625-.12891,9.10936,9.10936,0,0,0,3.06006-1.60156c-1.69825.06445-3.42871.0957-4.999.08007l-.01562-.24023a72.12844,72.12844,0,0,0,11.43945-2.53125l2.147,2.17773c-.20849.16016-.625.17774-1.21777-.06445-1.394.19336-3.17236.33789-5.07861.46485l1.18554.6582c-.08007.16015-.28857.25586-.64111.17578a22.74185,22.74185,0,0,1-4.55029,1.26562c1.33008.01563,3.18847,0,5.14306-.01562A11.88723,11.88723,0,0,0,204.792,489.586l2.32276,1.77734c-.11182.14453-.36866.24024-.769.12891a40.84769,40.84769,0,0,1-8.63574,3.14062c1.93848-.0332,4.67871-.09765,7.59473-.209a10.39232,10.39232,0,0,0-1.52246-1.50586Zm-.40039,3.79688c6.585.73632,5.1914,5.51172,2.80371,4.13281a9.95292,9.95292,0,0,0-2.93164-4.02149Z"/><path d="M210.31738,487.295l.36817-.35351c2.75586,2.27539,4.2622,4.74218,4.2622,8.17187,0,3.42774-1.50634,5.94336-4.2622,8.16992l-.36817-.35156a11.06094,11.06094,0,0,0,2.70752-7.81836A11.48454,11.48454,0,0,0,210.31738,487.295Z"/><polygon points="216.36 503.82 216.36 504.6 424.32 504.6 424.32 504.166 280.309 504.166 280.309 503.82 216.36 503.82"/><path d="M185.88184,521.81061s1.394,1.12109,2.19531,1.85937c-.04785.17578-.22461.25586-.46485.25586h-7.48193c-.24072.834-.481,1.61914-.67334,2.24219H182.918l1.29785-1.23242,2.09863,2.01758c-.12793.16015-.28808.209-.65674.24023a25.67149,25.67149,0,0,1-3.50878,2.48438c2.772,1.26562,2.2915,3.65234.4165,3.34765a16.492,16.492,0,0,0-6.21631-3.82812l.08008-.17578a12.92382,12.92382,0,0,1,5.063.416,27.6805,27.6805,0,0,0,1.44189-2.82031h-3.5249l-.84912,1.02539-2.21094-1.29688a4.05271,4.05271,0,0,1,.561-.40039c.22412-.5625.46435-1.26562.70459-2.01953h-4.24561l-.12793-.44922h4.50195c.27246-.832.52832-1.73047.75293-2.57812h-4.19775l-.12842-.44922h4.4541c.32032-1.21875.57715-2.32422.68946-2.98047l3.01172.86524a.60075.60075,0,0,1-.70508.33593l-.49658,1.7793h2.2915l1.16894-1.55469s1.31446,1.041,2.083,1.7461c-.04785.17773-.22412.25781-.44824.25781h-5.22363c-.22364.8164-.48047,1.71289-.73633,2.57812h4.40576Z"/><path d="M202.0625,529.45319s1.44189,1.25,2.24316,2.05078c-.04834.17578-.24072.25586-.48095.25586H189.4375l-.12842-.44727H193.875V517.9024l2.78809.25586c-.03223.22461-.12793.36914-.5127.416v12.73828h1.21777V517.93365l2.7876.25586c-.03174.22461-.12842.36914-.51269.418v8.85938c.62451-2.21094,1.23388-4.72656,1.58642-6.58594l3.02783.834c-.08007.209-.25634.36915-.65673.36915a46.96992,46.96992,0,0,1-3.95752,6.72851v2.5h1.16943Zm-11.92041-8.55469c5.22314,4.19726,3.68506,9.17969,1.53809,7.1289a24.43711,24.43711,0,0,0-1.74659-7.04882Z"/><path d="M210.72852,534.13092l-.36866.35352c-2.75586-2.27539-4.26172-4.74219-4.26172-8.17188,0-3.42773,1.50586-5.92773,4.26172-8.16992l.36866.35156a11.06145,11.06145,0,0,0-2.708,7.81836A11.485,11.485,0,0,0,210.72852,534.13092Z"/><path d="M217.457,528.18756a42.82322,42.82322,0,0,1-4.4541,3.38086.72594.72594,0,0,1-.43262.48047l-.99365-2.51563c.36865-.08007.97754-.209,1.71436-.40039v-4.5332h-1.29786l-.12793-.44922H213.291V519.8399h-1.47364l-.12842-.44726h3.25245l1.041-1.49024s1.16992,1.00782,1.82715,1.68165c-.04834.17578-.22461.25585-.44922.25585H215.4541v4.26172l.625-1.07226s.48047.51172.88086.99219a7.54791,7.54791,0,0,0,.30469-3.07618l.208-.01562c1.33007,2.51562,1.18554,4.42187.57714,5.44726a1.072,1.072,0,1,1-1.65039-1.23437,2.42508,2.42508,0,0,0,.32032-.543H215.4541V528.588c.64063-.17578,1.29785-.35156,1.95459-.54492Zm8.23486,1.90625s1.10547,1.26563,1.61817,2.01953c-.04834.17578-.2085.25586-.43262.25586h-7.22558l-.12842-.44922h2.94824v-6.35937h-1.28174l-.09619-.30469c-.1123,3.36523-1.3457,6.13672-5.207,7.60938l-.12793-.14258c2.59521-1.97071,3.31641-4.64649,3.31641-7.90039V517.838l2.61132.25586c-.03222.22461-.16015.38477-.57714.44922v.7207h3.06054l1.10547-1.53906s1.25,1.043,1.9707,1.73047c-.04785.17773-.22461.25781-.46484.25781H224.6665v5.39844h.03174l.8335-1.55469s.96142,1.08985,1.42578,1.7461c-.03174.17773-.1919.25781-.4165.25781H224.6665V531.92h.064Zm-3.22021-4.98242V519.713h-1.3623v5.39844Z"/><path d="M227.78906,526.26569a2.26737,2.26737,0,0,0,.65674-.24024,9.62085,9.62085,0,0,0,1.9707-2.291c-.4165.22265-.86474.46289-1.3457.70507a1.13379,1.13379,0,0,1-.49658.4961l-1.00977-2.43555a1.95735,1.95735,0,0,0,.57715-.22461,11.5888,11.5888,0,0,0,2.14649-4.582l2.85253,1.05664a.51135.51135,0,0,1-.52929.28906,17.94784,17.94784,0,0,1-3.44434,3.42969c.6084-.0332,1.32959-.06445,2.09863-.11328a12.02824,12.02824,0,0,0,.78516-1.76172l2.62793,1.41016a.61024.61024,0,0,1-.625.22265,20.29392,20.29392,0,0,1-4.51855,4.00586c1.23388-.04687,2.916-.16015,4.59863-.28711l.01562.17578a48.58726,48.58726,0,0,1-4.88671,2.19532,1.2018,1.2018,0,0,1-.46436.40039Zm5.91211,2.35546A38.80613,38.80613,0,0,1,229.167,531.92a.71948.71948,0,0,1-.46484.44922l-.99317-2.64258c1.0254-.16015,3.57276-.6582,5.96-1.23437Zm9.45264-4.66406c-.11182.17774-.272.24024-.67285.28906a13.06511,13.06511,0,0,1-2.33936,4.72657,8.6649,8.6649,0,0,0,3.07617,1.71484l-.03173.17578a2.62878,2.62878,0,0,0-1.63428,1.95508,8.44566,8.44566,0,0,1-2.83594-2.38867,13.16139,13.16139,0,0,1-4.72656,2.45312l-.11231-.19336a11.70328,11.70328,0,0,0,4.05371-3.50781,14.81631,14.81631,0,0,1-1.3457-4.11914c-.38476,3.20508-1.458,5.84961-4.50195,7.88281l-.19239-.22265c2.9961-3.6211,2.80372-8.043,2.80372-13.37891h-1.29786l-.144-.44922h5.60791l.80078-.96094,2.00293,1.459a1.21886,1.21886,0,0,1-.70508.32031c-.27246.89649-.84912,2.59375-1.26562,3.6836h.40039l1.1377-1.13672Zm-6.3125-4.61328c-.01611,1.36133-.03174,2.66016-.09619,3.89258a12.6151,12.6151,0,0,0,2.13086,4.42187,14.75484,14.75484,0,0,0,1.3457-3.8125h-.59277l-.59278.67383-1.8584-1.043a2.333,2.333,0,0,1,.52881-.35156c.40039-1.041.94532-2.74023,1.23389-3.78125Z"/><path d="M244.04932,518.4942l.36865-.35156c2.75586,2.27539,4.26172,4.74219,4.26172,8.16992,0,3.42969-1.50586,5.94531-4.26172,8.17188l-.36865-.35352a11.055,11.055,0,0,0,2.70752-7.81836A11.48867,11.48867,0,0,0,244.04932,518.4942Z"/><polygon points="250.08 535.02 250.08 535.8 422.578 535.8 422.578 535.365 337.974 535.365 337.974 535.02 250.08 535.02"/><path d="M185.44531,553.21881c-.12793.16016-.28808.209-.64062.22461a17.49038,17.49038,0,0,1-2.73975,1.28125l.72119.68945c-.12842.14453-.28857.19336-.64111.22461-.833.38477-2.08252.88086-3.17236,1.26563l.46484.03125c-.03223.24219-.19238.35351-.52881.418v1.00976h2.94776l1.21777-1.61914s1.394,1.07422,2.21094,1.81055c-.04786.17578-.24024.25586-.48047.25586h-5.896v2.5957c0,1.58594-.4165,2.45117-3.25244,2.69141a2.52586,2.52586,0,0,0-.57666-1.666,3.37559,3.37559,0,0,0-1.939-.8164v-.19336s2.53174.16015,2.96436.16015c.25635,0,.33643-.08008.33643-.28711v-2.48437H170.417l-.12793-.44727h6.15235v-1.668l1.63427.12891a20.86646,20.86646,0,0,0,1.26563-1.73047h-6.20069l-.144-.44922h6.44092l1.28174-1.20117,1.02539.97852c.16016-.46485.32031-1.02539.43262-1.50782h-9.45264a2.309,2.309,0,0,1-.89746,2.5,1.11759,1.11759,0,0,1-1.666-.54492,1.19163,1.19163,0,0,1,.76856-1.457,2.38768,2.38768,0,0,0,.96142-2.32422l.19239-.01562a5.28728,5.28728,0,0,1,.54443,1.39453h6.71338a24.597,24.597,0,0,0,1.37793-3.6211l2.86767,1.07227c-.08007.17773-.27246.30469-.64062.25781a25.39533,25.39533,0,0,1-3.02832,2.291h2.17871l1.23389-1.23438Zm-12.80078-4.18164c4.99854.6582,3.02783,4.48633,1.05713,2.96484a6.18479,6.18479,0,0,0-1.18555-2.88476Zm3.68457-.19141c4.79053,1.08985,2.35547,4.64649.5127,2.90039a6.9559,6.9559,0,0,0-.64063-2.83593Z"/><path d="M198.918,561.086s1.49023,1.12109,2.38769,1.875c-.04834.17578-.22461.25586-.48095.25586H186.229l-.12841-.44922h6.26464V557.8653h-4.18164l-.12793-.44727h4.30957v-4.11914h-2.43554a12.03671,12.03671,0,0,1-3.84473,4.02148l-.16016-.11132a22.93271,22.93271,0,0,0,2.6753-7.78711l3.23633.92968c-.064.209-.272.35157-.65674.35157a17.90732,17.90732,0,0,1-.99317,2.14843h2.17871v-3.877l3.15625.28711c-.03222.24023-.144.40039-.59277.46484v3.125h1.95459l1.26611-1.55468s1.39356.99414,2.291,1.74609c-.04834.17578-.22461.25586-.481.25586h-5.03076V557.418h1.47412l1.28174-1.60352s1.458,1.07422,2.33887,1.79493c-.04785.17578-.22412.25586-.46436.25586h-4.63037v4.90234h2.65967Z"/><path d="M215.53125,561.295s1.29736,1.05664,2.05078,1.77735c-.03223.17578-.22461.25781-.44922.25781h-9.26025l-.12842-.44922H211.75v-4.74219h-2.49951l-.12842-.44922H211.75v-3.957h-1.23389a11.81355,11.81355,0,0,1-2.19482,3.7168l-.2085-.11133a27.95291,27.95291,0,0,0,.73682-3.91015,2.95821,2.95821,0,0,1-.40039.0957,18.18824,18.18824,0,0,1-1.666,5.94531c2.85157,2.13086.70508,3.86133-.64111,2.83594a6.88816,6.88816,0,0,0-.5127-1.043,10.8582,10.8582,0,0,1-3.41259,2.78906l-.16016-.16015a11.04976,11.04976,0,0,0,2.75586-3.81446,13.54176,13.54176,0,0,0-2.25928-2.22656c.3208-1.12109.689-2.93164.99366-4.67773h-1.314l-.144-.44922h1.522c.272-1.57032.46436-3.04492.52881-3.89258l2.64355.44726c-.04785.17774-.14453.35352-.64111.4004-.11182.76953-.32031,1.84375-.54443,3.04492h.67285l1.00928-1.07422,1.61816,1.42773c.12842-1.02539.2085-2.05078.24023-3.04492l2.61182.49609v-1.666l2.7876.25586c-.03174.22461-.144.36914-.52881.418v3.748h.38476l1.07325-1.47461s1.20166.99415,1.90674,1.668c-.04834.17578-.22413.25586-.44874.25586h-2.916v3.957h.24023l1.00977-1.42578s1.13721.97657,1.77832,1.61719c-.04785.17773-.2085.25781-.43262.25781h-2.5957v4.74219h.36865Zm-10.02979-8.123c-.33642,1.666-.73681,3.50781-1.1538,4.94921.38476.17774.72119.3379,1.0415.49805a24.62822,24.62822,0,0,0,1.0415-5.44726Zm6.24854.11132v-2.40234a1.04078,1.04078,0,0,1-.36865.0957,22.9498,22.9498,0,0,1-.689,2.30664Z"/><path d="M232.59229,558.00983a1.14161,1.14161,0,0,1-.689.38476v4.82227a3.77359,3.77359,0,0,1-2.03467.64062h-.4165v-1.25H224.918v.834c0,.16015-.7207.68945-1.95459.68945h-.44873V558.795a24.54,24.54,0,0,1-4.35791,1.2168l-.08008-.17578a23.47269,23.47269,0,0,0,6.6333-4.03711,1.53515,1.53515,0,0,1-1.28223-.36914,6.22775,6.22775,0,0,0-.56054-1.9707,17.22737,17.22737,0,0,1-4.48633,3.15625l-.11182-.127a20.041,20.041,0,0,0,5.09473-7.707l3.14014.84961c-.08008.17578-.208.27148-.67286.24023-.24023.4004-.52832.78516-.81689,1.18555h3.20459l1.45752-1.31445,2.147,2.05078c-.12793.209-.30469.27344-.769.30469a16.36363,16.36363,0,0,1-5.81592,5.416h4.0376l1.08935-1.20117Zm-7.93067-6.50391c-.38428.46289-.78516.92773-1.21777,1.377,1.85888.38477,2.40332,1.28125,2.24316,2.002a15.17272,15.17272,0,0,0,2.56348-3.37891Zm4.79053,10.6543V557.961H224.918v4.19922Z"/><path d="M387.47266,557.80084s1.3623,1.02539,2.19531,1.73047c-.04785.17774-.24024.25781-.46485.25781h-10.8623l-.12793-.44922h8.05859Zm5.91211-.92773a1.02718,1.02718,0,0,1-.67188.30469c-.19336,3.8125-.51367,5.63867-1.42676,6.32812a3.83036,3.83036,0,0,1-2.61133.60742,1.78369,1.78369,0,0,0-.43261-1.42578,3.78938,3.78938,0,0,0-1.92285-.81641V561.711c.91308.06445,2.24316.1289,2.62793.1289a.77112.77112,0,0,0,.54492-.14453c.43164-.33593.65625-2.11523.80078-4.93554h-6.96973l-.76855,1.00976-2.14746-1.13672a3.99374,3.99374,0,0,1,.48144-.40039,46.45829,46.45829,0,0,0,.81641-5.28906l2.94824.5625c-.04785.19141-.208.38281-.625.40039-.16016,1.12109-.48047,3.13867-.7207,4.40625h3.957c.27246-1.95508.46484-4.42383.56152-6.07226h-8.02734l-.14453-.44922H387.666l.92871-1.18555,2.32324,1.69727a1.03127,1.03127,0,0,1-.64063.33789c-.09668,1.42578-.33691,3.97265-.56054,5.67187h.416l1.2334-1.16992Z"/><path d="M408.89258,552.91412c-.03223.22461-.14453.40235-.59278.46485v10.01367a2.93181,2.93181,0,0,1-2.01855.70508H405.832v-1.53711h-8.34765l-.70508,1.02539-2.43457-1.1543a4.28447,4.28447,0,0,1,.60839-.5918V552.627l3.04493.28711c-.04883.24219-.17676.40235-.59375.46485v8.73242h2.93261V549.11725l3.09278.27344c-.03321.24023-.14453.40039-.59375.46484v12.25586H405.832v-9.46875Z"/><path d="M410.125,552.754c4.67773.209,2.93164,3.81445,1.02539,2.5a5.00853,5.00853,0,0,0-1.13867-2.41992Zm4.72559-.46289c-.5127,1.793-1.39356,5.07812-1.56934,5.94336a6.34983,6.34983,0,0,0-.22461,1.53711c.04785.91406.80078,1.3789.75293,2.83593a1.47433,1.47433,0,0,1-1.58691,1.44336,1.029,1.029,0,0,1-1.05664-.834c.32031-1.65039.27148-3.252-.11231-3.50781a1.66705,1.66705,0,0,0-.833-.25782v-.28711h.72071c.25586,0,.33593,0,.52929-.32031.36817-.59375.36817-.59375,3.15625-6.61719Zm-3.76465-3.04493c4.87011-.06445,3.42773,3.70118,1.39355,2.5625a6.53513,6.53513,0,0,0-1.50586-2.46679Zm12.28906-.27148s1.36133,1.12109,2.16211,1.87305c-.04785.17773-.22461.25781-.46484.25781H423.919v10.26953c0,1.49024-.417,2.54688-3.02833,2.707a2.51173,2.51173,0,0,0-.52832-1.63476,3.01218,3.01218,0,0,0-1.85839-.76758v-.19336s2.27539.12891,2.75586.12891c.27148,0,.36816-.12891.36816-.33594V551.10553h-6.873l-.12793-.44922h7.5293Zm-4.88672,10.50977v-1.41016h-1.13867v1.52148c0,.12891-.6084.56055-1.61719.56055h-.36914v-7.418l2.19531.81836h.78516l.89648-.96289,1.82715,1.39453a.90425.90425,0,0,1-.52832.27344V559.004a3.45808,3.45808,0,0,1-1.69922.48047Zm0-1.85938V554.004h-1.13867v3.62109Z"/><rect x="233.7" y="566.22098" width="191.93898" height="0.77899"/><path d="M184.6123,584.70709c.625.22461.78516.46485.78516.86524,0,.89648-.81738,1.28125-4.03711,1.28125h-2.00293c-1.92285,0-2.43554-.32032-2.43554-1.77735v-.92968c-.04786.14453-.22413.209-.41651.209h-2.08252v2.32227c.78516-.19141,1.602-.4004,2.40332-.60938l.03174.16016c-.59277.44922-1.394,1.00976-2.43506,1.68359v4.85352c0,1.459-.30469,2.24414-2.58008,2.45117a3.07386,3.07386,0,0,0-.33593-1.53711,1.71058,1.71058,0,0,0-1.25-.68945v-.209s1.394.08008,1.71435.08008c.22412,0,.3042-.0625.3042-.24024v-3.39648c-.33594.19336-.70459.40039-1.07324.60938a.78245.78245,0,0,1-.46485.46484l-.833-2.61133c.49707-.08008,1.3457-.25586,2.37109-.498v-2.834h-2.01855l-.12793-.44922h2.14648v-3.8457l2.74023.25586c-.03222.24023-.19238.40039-.59277.44922V583.793l.88086-1.457s1.05762,1.05664,1.61817,1.74609v-3.92578l2.62792.209c-.03222.2246-.17675.36914-.52929.416V582.961a18.26034,18.26034,0,0,0,3.62109-2.51563l2.21094,1.82618c-.19238.17578-.52832.209-1.07324.0332a27.03358,27.03358,0,0,1-4.75879,1.2168v1.05664c0,.25781.1123.32031.67334.32031H181.584c.59327,0,1.16993,0,1.458-.01563a.77176.77176,0,0,0,.54492-.1914,6.08692,6.08692,0,0,0,.80127-1.52344h.16016Zm-1.522,2.40235,2.05078,1.55468a1.06922,1.06922,0,0,1-.64111.33594v5.56055a3.92876,3.92876,0,0,1-1.8584.51172h-.38428V593.92H179.165v.65625c0,.209-.94531.70508-1.87451.70508h-.3208V587.3028l2.2915.89648h2.83545ZM179.165,588.6485V590.795h3.09228V588.6485Zm3.09228,4.82226V591.2442H179.165v2.22656Z"/><path d="M199.19043,587.84772s1.26562.97656,2.01855,1.63476c-.04785.17578-.22412.25586-.46435.25586h-2.99609v3.10742c0,1.47461-.43262,2.19532-3.15625,2.38672a1.85266,1.85266,0,0,0-.52881-1.37695,3.44376,3.44376,0,0,0-1.81055-.67383v-.1914s2.33936.16015,2.73975.16015c.24072,0,.3208-.08008.3208-.28906v-3.12305h-8.82813l-.12793-.44922h8.95606v-1.69726l2.96386.24023c-.03222.24024-.17627.36719-.5288.416v1.041h.33642Zm-7.33789-.30469c-2.49951,0-3.39649-.22461-3.39649-1.82617v-5.56055l2.499.91406h5.25537l.99365-1.10547,2.11426,1.57032a.992.992,0,0,1-.62451.35156v2.5a4.52286,4.52286,0,0,1-1.92237.46484h-.40087v-.68945H190.731v1.16992c0,.33594.17627.416,1.07373.416h3.34863c.94531,0,1.9541,0,2.41895-.03125a1.07871,1.07871,0,0,0,.769-.28906,7.31778,7.31778,0,0,0,1.08935-1.90625h.16016l.06445,1.92187c.8169.22461,1.05762.46484,1.05762.86523,0,1.043-.97754,1.23438-5.76807,1.23438Zm-2.291,2.22656c5.09473.51367,3.39649,4.39063,1.37793,3.01172a7.63545,7.63545,0,0,0-1.50586-2.93164Zm1.16944-8.25V583.713h5.63965v-2.19336Z"/><path d="M216.41211,584.1778a14.28528,14.28528,0,0,1-2.11475,6.50585,10.05088,10.05088,0,0,0,3.33252,2.40235l-.04785.16015a2.40444,2.40444,0,0,0-1.9707,1.90625,8.18533,8.18533,0,0,1-2.4834-3.02734,12.75555,12.75555,0,0,1-5.67188,3.10742l-.09619-.14258a11.62783,11.62783,0,0,0,5.01514-4.82421,21.72574,21.72574,0,0,1-.78516-3.69922,10.97894,10.97894,0,0,1-1.95507,2.16211l-.19239-.11133c.14453-.32227.28858-.67383.43262-1.043a1.46784,1.46784,0,0,1-.46436.09766c-.5288.30273-1.1538.623-1.79443.91211l.59277.04882c-.03222.24024-.19238.35157-.5288.40039v.5293c.96142-.11328,1.95459-.24219,2.96435-.38476l.03174.207c-.78467.35351-1.76221.7539-2.99609,1.21875v2.24218c0,1.459-.32032,2.22657-2.6753,2.43555a2.68665,2.68665,0,0,0-.38476-1.49023,1.93922,1.93922,0,0,0-1.37793-.68946v-.207s1.666.09571,1.98681.09571c.22412,0,.28858-.06446.28858-.24024v-1.3457c-.60938.209-1.25.43164-1.939.67187a.71732.71732,0,0,1-.46435.40235l-.89746-2.293c.689-.04688,1.87451-.17578,3.30078-.35156v-1.42579l1.041.08008c.22461-.35351.44873-.7539.625-1.08984H205.79a17.21587,17.21587,0,0,1-3.7334,2.35547l-.144-.16016a17.64574,17.64574,0,0,0,2.45117-2.19531H202.9541l-.14453-.44922h1.95508c.46435-.52734.897-1.08789,1.31347-1.64844h-3.89355l-.12793-.44922h2.38721V582.752h-1.66651l-.12793-.44726h1.79444v-2.21289l2.75586.209c-.03223.24024-.14405.38477-.59278.46485v1.41015l.72119-.99414s.36817.30469.78467.67383c.27246-.56055.49659-1.10547.689-1.61914l2.41943,1.18555c-.09619.17773-.25635.27343-.65674.209a20.78629,20.78629,0,0,1-2.21093,3.2207h.48046l.80079-1.08984s.60888.49609,1.12158.97656a29.06976,29.06976,0,0,0,.73681-4.61328l3.02832.73633c-.04785.209-.24023.35351-.625.36914a22.94446,22.94446,0,0,1-.80078,2.5h1.33008l1.1211-1.49023s1.26562,1.00976,2.00292,1.68164c-.04785.17578-.2246.25586-.44873.25586Zm-6.47266,3.20507a21.20993,21.20993,0,0,0,.65674-2.082h-2.62744a19.91621,19.91621,0,0,1-1.65039,1.64844h.91309l1.00976-1.02539Zm-3.33252-4.63086v1.76368c.38428-.57813.73682-1.16993,1.05713-1.76368Zm6.29639,1.42579a12.80307,12.80307,0,0,1-.97754,1.875,11.99846,11.99846,0,0,0,1.08984,2.7871,16.29563,16.29563,0,0,0,.89747-4.6621Z"/><path d="M220.56006,591.1485c0,.16015-.8335.52734-1.56983.52734h-.35253v-9.5332l2.45117.22461c-.03223.209-.14453.35351-.52881.418Zm3.36474-10.75195c-.03222.2246-.16015.38476-.57714.44921v6.39258c-.03223,3.39649-.977,6.36133-4.21387,8.043l-.12793-.12891c1.82666-2.09765,2.291-4.80664,2.291-7.91406v-7.09765Zm5.60743,1.68359v2.48242h.81738l.897-1.00976,1.90674,1.44335a.95944.95944,0,0,1-.561.30469v5.44727c0,1.37695-.24024,2.082-2.1626,2.24219a5.3877,5.3877,0,0,0-.11231-1.42579.79494.79494,0,0,0-.64111-.57617v-.209s.43262.01562.60889.01562c.19238,0,.22461-.0957.22461-.24023v-5.543h-.97754v9.67773c0,.14258-.65723.5918-1.7627.5918h-.40039V585.01178h-.94531v7.48242c0,.14453-.625.60742-1.68213.60742h-.36865v-9.37109l2.25927.832h.73682v-2.48242h-3.47656l-.12793-.44922h6.55273l1.1211-1.52148s1.26611,1.02539,2.00293,1.71289c-.04786.17773-.22412.25781-.46485.25781Z"/><path d="M342.96973,581.88678s1.41015,1.07422,2.25879,1.79492c-.04786.17578-.24024.25586-.46387.25586H337.1543a26.19638,26.19638,0,0,1-.30469,2.78906h3.332l1.20215-1.15429,1.9707,1.69726a1.15727,1.15727,0,0,1-.70508.32227c-.24023,4.22851-.65722,6.18359-1.63379,6.95312a3.70787,3.70787,0,0,1-2.48339.6875,2.20123,2.20123,0,0,0-.35254-1.53711,3.10181,3.10181,0,0,0-1.666-.8164l.01563-.16016c.75293.04688,1.875.11133,2.24316.11133a.88877.88877,0,0,0,.57715-.16016c.48047-.40039.78418-2.291.97656-5.49609h-3.55664c-.65625,3.52539-2.32324,6.53711-6.585,8.17187l-.09668-.14453c3.70117-2.85156,4.4707-7.00195,4.48633-11.26367H330.2168l-.12891-.44726h11.64844Zm-7.19336-1.8418c5.46386.25586,3.57324,4.502,1.3623,3.01172a6.86389,6.86389,0,0,0-1.47461-2.93164Z"/><path d="M346.14062,583.93756c4.61426.46484,2.707,3.92578.86524,2.54883a5.65066,5.65066,0,0,0-.99316-2.46875Zm4.67774-.48047c-.51172,1.7793-1.39356,5.0625-1.56934,5.91211a6.52314,6.52314,0,0,0-.22461,1.53906c.04786.94532.80176,1.44141.75293,2.93164a1.47945,1.47945,0,0,1-1.57031,1.457,1.05365,1.05365,0,0,1-1.05664-.832c.33594-1.73046.28809-3.36523-.1123-3.62109a1.67347,1.67347,0,0,0-.833-.27344v-.28711h.7207c.25586,0,.33594,0,.52832-.32031.36817-.59375.36817-.59375,3.14063-6.55273Zm-3.55664-3.1875c4.95117.30469,3.125,4.05274,1.12207,2.69141a7.43219,7.43219,0,0,0-1.2334-2.61133Zm12.36914,4.94922s1.18555.94531,1.875,1.58789c-.04883.17578-.22461.25586-.44922.25586h-6.10352a12.59123,12.59123,0,0,1-4.95117,6.2168l-.16015-.12891a14.93679,14.93679,0,0,0,3.14062-6.08789H350.29l-.12793-.44922h2.93164c.12891-.52929.24023-1.07226.33691-1.60156H351.2832l-.12793-.44922h2.35547c.09571-.56055.16016-1.10547.22364-1.65039h-2.86719l-.12891-.44727h3.04492c.08008-.81835.12793-1.63476.14453-2.40429l3.123.40039c-.03125.19336-.16016.35351-.6084.416-.08008.51368-.16015,1.043-.25586,1.58789H358.125l.99316-1.3789s1.1377.92969,1.81055,1.57031c-.04785.17578-.22461.25586-.44824.25586h-4.375c-.0957.54492-.22363,1.08984-.35156,1.65039h1.874l.97754-1.26562s1.10547.86523,1.76269,1.459c-.04785.17578-.208.25586-.44921.25586H355.625a15.35574,15.35574,0,0,1-.51172,1.60156h3.47656Zm-6.04,4.82422c4.29395.51172,2.19434,3.62109.5127,2.21094a5.05331,5.05331,0,0,0-.64063-2.14844Zm6.34473-1.9707s.89648.8164,1.41015,1.377a.38481.38481,0,0,1-.417.25586H358.958V592.879c0,1.4414-.35254,2.21093-2.77149,2.40234a2.49927,2.49927,0,0,0-.40136-1.457,2.15247,2.15247,0,0,0-1.457-.67383v-.209s1.76172.11328,2.09864.11328c.22363,0,.30371-.06445.30371-.25586v-3.09375h-2.67578l-.127-.44727h2.80274v-1.98828l2.75586.22461c-.03125.24024-.19141.36914-.52832.418v1.3457h.17676Z"/><path d="M362.27246,590.84381c2.27539.25586,3.541.96094,4.166,1.92188a1.80968,1.80968,0,0,1,.30371,1.07421,1.16784,1.16784,0,0,1-1.2334,1.23243,1.18325,1.18325,0,0,1-1.16895-.73633,7.95854,7.95854,0,0,0-2.17968-3.31641Z"/><path d="M393.06445,581.98248a1.14816,1.14816,0,0,1-.625.33789v3.41211a3.18266,3.18266,0,0,1-1.81054.57617h-.38379v-.92773h-1.81055v.6875c0,.19336-.94531.6582-1.82715.6582h-.30371v-4.375a.97258.97258,0,0,1-.6084.25586c-.1289,2.66016-.36914,3.6543-1.08984,4.15039a3.34361,3.34361,0,0,1-1.9707.43164,1.93087,1.93087,0,0,0-.24024-1.20117,1.66806,1.66806,0,0,0-1.02539-.57617v-.08008a7.122,7.122,0,0,1-3.07617,2.48242l-.14453-.1914a7.70665,7.70665,0,0,0,2.16308-5.35156h-1.874l-.14453-.44922h2.03418c.0166-.57618.03223-1.168.03223-1.76172l2.75585.209c-.03222.22461-.17578.36719-.54492.416-.03125.38476-.04785.7539-.0957,1.13672h.99316l1.042-.97657,1.79394,1.47461V580.67l2.19434.84961H390.085l.97754-1.05859Zm-4.38965,10.41407c6.45606.80273,3.39649,3.76562,1.55372,2.48437a13.37014,13.37014,0,0,0-4.59766-2.32227c-1.05762,1.15235-3.02832,2.06641-6.88965,2.69141l-.0957-.24023c5.52734-1.7793,5.91113-3.81446,6.04-6.77735l2.90039.56055c-.04883.207-.22461.36719-.625.36719a6.76181,6.76181,0,0,1-1.042,3.06054c1.00878.01563,1.89062.08008,2.64355.16016V587.9278h-5.71973v4.30859c0,.14453-.68847.498-1.85839.498h-.416v-6.15235l2.43457.89649h5.49512l1.08984-1.2168,2.00293,1.50586a.87429.87429,0,0,1-.625.30469v3.877a3.173,3.173,0,0,1-1.9707.44727Zm-6.249-10.125a7.154,7.154,0,0,1-.99219,2.94726c.40039.0332.99219.06445,1.249.06445a.56664.56664,0,0,0,.417-.11132c.25586-.209.40039-1.10547.51172-2.90039Zm7.81934,2.66015v-2.96484h-1.81055v2.96484Z"/><path d="M401.79492,587.14264c1.31446,3.1875,4.48633,4.72656,7.54688,5.57617l-.03321.19141a2.62725,2.62725,0,0,0-2.01757,1.98633,10.64845,10.64845,0,0,1-5.76856-7.75391h-1.89062v5.07812c.99316-.24023,2.13086-.51171,3.26855-.8164l.03223.1289a31.41626,31.41626,0,0,1-4.27832,3.31641,1.42864,1.42864,0,0,1-.416.52734l-1.9707-2.57812c.78515-.5293.91308-.72266.91308-1.16992v-4.48633H394.377l-.1289-.44922h2.93261v-6.66406l2.9795.33594c-.03125.17578-.17578.30468-.52832.35156v4.50195a26.8243,26.8243,0,0,0,5.1748-4.82226l2.54785,1.95507c-.09668.14453-.27246.24024-.6416.14453a28.31829,28.31829,0,0,1-7.08105,3.34766v.84961h6.26464l1.20118-1.63477s1.3789,1.08985,2.17968,1.82813c-.04882.17578-.22461.25586-.46484.25586Z"/><path d="M422.91016,592.28522s1.49023,1.12109,2.38672,1.875c-.04786.17578-.22461.25586-.48047.25586H410.2207l-.1289-.44922h6.26562v-4.90235h-4.18164l-.1289-.44726h4.31054v-4.11914h-2.43554a12.02986,12.02986,0,0,1-3.84571,4.02148l-.16015-.11133a22.92232,22.92232,0,0,0,2.67578-7.78711l3.23632.92969c-.06445.209-.27246.35156-.65624.35156a17.75733,17.75733,0,0,1-.99415,2.14844h2.17969v-3.87695l3.15625.28711c-.0332.24023-.14453.40039-.59375.46484v3.125H420.875l1.26562-1.55469s1.39454.99415,2.291,1.7461c-.04785.17578-.22461.25586-.48047.25586h-5.03125v4.11914h1.47461l1.28125-1.60352s1.459,1.07422,2.33984,1.79492c-.04882.17579-.2246.25586-.46484.25586h-4.63086v4.90235h2.66016Z"/><rect x="233.7" y="597.41998" width="191.93898" height="0.78"/><path d="M174.12012,623.85358a20.164,20.164,0,0,0,3.33252.19336c1.42627,0,4.96679,0,6.50488-.04883v.19336a1.77569,1.77569,0,0,0-1.21729,1.80859h-5.33544c-3.52491,0-5.49561-.64062-6.61719-3.1875a8.8105,8.8105,0,0,1-2.11475,3.70117l-.17627-.1289a21.38185,21.38185,0,0,0,1.12158-8.21875l2.419.44922v-1.23438l2.58008.25586c-.03223.19336-.12842.33789-.49707.38477V619.961h.12793l.94531-1.42578s.89746.8164,1.50635,1.4414v-2.96289a.99054.99054,0,0,1-.24024.03125h-7.61035l-.12842-.44922H171.669V614.3692H169.3457l-.12793-.44922H171.669v-2.6582l2.67578.22266c-.01612.19336-.11231.32031-.481.38476V613.92h.25635l.97754-1.29687s1.08935.88086,1.74609,1.49023c-.04785.17578-.22412.25586-.44824.25586h-2.53174v2.22656h.2085l1.00927-1.36132s.94532.7539,1.61817,1.36132v-1.23242l2.33935.86524h1.29785v-3.25391h-3.78125l-.14453-.44727h3.749l.97754-1.07421,2.05078,1.53906a1.12114,1.12114,0,0,1-.689.36719V617.045a3.88805,3.88805,0,0,1-1.79443.48047h-.36817v-.84961h-1.50634v3.99024c0,.24023.064.30468.49658.30468h1.28174c.4165,0,.81689,0,1.00927-.01757a.51319.51319,0,0,0,.44873-.19141,13.31923,13.31923,0,0,0,.78516-1.82617h.16016l.04834,1.89062c.56054.22461.68847.46485.68847.84961,0,.86524-.80078,1.28125-3.39648,1.28125h-1.53809c-1.73047,0-2.11474-.35351-2.11474-1.77929v-.832a.50117.50117,0,0,1-.27246.06446h-2.30713Zm-2.083-5.03125a.70151.70151,0,0,1-.52832.209,21.80785,21.80785,0,0,1-.5127,3.06055,3.9158,3.9158,0,0,0,1.041,1.00976Z"/><path d="M197.49414,623.46881s1.50586,1.13867,2.41943,1.9082c-.04834.17579-.24072.25586-.481.25586H184.78906l-.12793-.44922h2.30664V615.15436l3.09229.25586c-.03174.24023-.144.40039-.59277.46484v9.30859H191.502V611.502l3.1084.28711c-.03223.24024-.12793.40039-.57715.46485v5.43164h1.37793L196.709,616.004s1.47413,1.12109,2.35547,1.873c-.04785.17774-.24023.25782-.48047.25782H194.0332v7.04882h2.11524Z"/><path d="M214.41113,613.51959a1.03443,1.03443,0,0,1-.6084.35352V625.504a3.53139,3.53139,0,0,1-2.13085.73828h-.4004v-1.50781h-5.73632v.76953c0,.30468-.99317.89843-2.05078.89843h-.4004V612.01373l2.59571,1.02539h5.43115l1.1377-1.25Zm-8.876-.03125v5.0625h5.73632v-5.0625Zm5.73632,10.79883v-5.28711h-5.73632v5.28711Z"/><path d="M216.50879,626.38483a13.309,13.309,0,0,0,2.22656-4.74219l2.6919,1.07422c-.08008.1914-.3042.32031-.67286.28711a9.312,9.312,0,0,1-4.06982,3.50976Zm15.36426-13.33008a1.139,1.139,0,0,1-.64063.35351v10.58985c0,1.459-.32031,2.24414-2.61133,2.45117a3.35149,3.35149,0,0,0-.33691-1.53711,1.73753,1.73753,0,0,0-1.28125-.70508v-.209s1.42578.08008,1.73047.08008c.25586,0,.32031-.11133.32031-.32032v-3.55664h-1.84277a7.51671,7.51671,0,0,1-4.24561,6.20117l-.144-.1289A8.90654,8.90654,0,0,0,225,621.54694h-8.29932l-.12793-.44922h1.314v-6.66407h-.96192l-.12792-.44921h1.08984v-2.51563l2.62695.24024c-.03174.19335-.14355.33789-.51269.40039v1.875h1.52246v-2.5l2.67578.24023c-.03223.209-.12842.35352-.5293.418v1.55273l.54492-.94531s.60889.64258,1.04151,1.1875V611.7735l2.40332.834h1.23388l.97706-1.10547Zm-11.87207,1.3789v1.7461h1.52246v-1.7461Zm0,4.10157h1.52246V616.629H220.001Zm0,2.5625h1.52246v-2.11524H220.001Zm1.33007.70508c4.63038.73828,2.72364,4.24609.91309,2.82031a5.80908,5.80908,0,0,0-1.041-2.74024Zm2.916-2.082s.44824.44922.88086.92969a28.8028,28.8028,0,0,0,.12842-2.916v-3.334a.749.749,0,0,1-.2085.0332h-1.37793v6.26368Zm4.80664.03125v-3.1875h-1.71435v1.15235c0,.67383-.01612,1.34765-.08057,2.03515Zm-1.71435-6.69726v3.06055h1.71435v-3.06055Z"/><path d="M249.21,622.98834v1.97071h-8.02637v-1.44141c.88086-.96094,1.81006-1.875,2.59522-2.69141,1.82666-1.875,2.54736-2.96484,2.54736-4.63086,0-1.50586-.75293-2.45117-1.98633-2.45117a2.67828,2.67828,0,0,0-.60937.06445l-.352,1.58594c-.17627,1.08985-.70508,1.34571-1.20166,1.34571a1.12293,1.12293,0,0,1-1.04151-.67188c.144-1.85937,1.95459-2.86914,4.10157-2.86914,2.53173,0,3.70068,1.33008,3.70068,3.14062,0,1.666-1.36133,3.125-4.42188,5.127-.54443.38476-1.24951.94531-1.98632,1.52148Z"/><path d="M259.03027,619.22467c0,4.18164-1.9707,6.00781-4.18164,6.00781-2.22705,0-4.16552-1.82617-4.16552-6.00781,0-4.19922,1.93847-6.02539,4.16552-6.02539C257.05957,613.19928,259.03027,615.02545,259.03027,619.22467Zm-4.18164,5.44727c.94532,0,1.7627-1.16993,1.7627-5.44727,0-4.31055-.81738-5.48047-1.7627-5.48047s-1.73047,1.1543-1.73047,5.48047C253.11816,623.51764,253.90332,624.67194,254.84863,624.67194Z"/><path d="M268.69043,622.98834v1.97071h-8.02734v-1.44141c.88134-.96094,1.81054-1.875,2.5957-2.69141,1.82617-1.875,2.54736-2.96484,2.54736-4.63086,0-1.50586-.75293-2.45117-1.98681-2.45117a2.67007,2.67007,0,0,0-.6084.06445l-.35254,1.58594c-.17627,1.08985-.70508,1.34571-1.20166,1.34571a1.12293,1.12293,0,0,1-1.04151-.67188c.14454-1.85937,1.95459-2.86914,4.10157-2.86914,2.53125,0,3.70117,1.33008,3.70117,3.14062,0,1.666-1.36231,3.125-4.42188,5.127-.54492.38476-1.25.94531-1.9873,1.52148Z"/><path d="M278.42969,622.98834v1.97071h-8.02637v-1.44141c.88086-.96094,1.81006-1.875,2.59522-2.69141,1.82666-1.875,2.54736-2.96484,2.54736-4.63086,0-1.50586-.75293-2.45117-1.98633-2.45117a2.67828,2.67828,0,0,0-.60937.06445l-.35206,1.58594c-.17626,1.08985-.70507,1.34571-1.20166,1.34571a1.12292,1.12292,0,0,1-1.0415-.67188c.144-1.85937,1.95459-2.86914,4.10156-2.86914,2.53174,0,3.70069,1.33008,3.70069,3.14062,0,1.666-1.36133,3.125-4.42188,5.127-.54443.38476-1.24951.94531-1.98633,1.52148Z"/><path d="M280.44727,623.7735a1.47422,1.47422,0,0,1,2.94824,0,1.47445,1.47445,0,0,1-2.94824,0Z"/><path d="M293.13574,624.463v.4961h-7.12939v-.4961l2.291-.28906c.01612-1.00781.03223-2.0332.03223-3.01172v-6.48828l-1.89063.17578v-.5918l4.3418-.99414.24072.17578-.06445,2.61133v5.11133c0,.97852.01611,2.00391.03223,3.01172Z"/><path d="M302.876,624.463v.4961h-7.12989v-.4961l2.291-.28906c.0166-1.00781.03223-2.0332.03223-3.01172v-6.48828l-1.89063.17578v-.5918l4.3418-.99414.24121.17578-.06445,2.61133v5.11133c0,.97852.01562,2.00391.03125,3.01172Z"/><path d="M305.374,623.7735a1.47423,1.47423,0,0,1,2.94825,0,1.47445,1.47445,0,0,1-2.94825,0Z"/><path d="M318.0625,624.463v.4961h-7.12891v-.4961l2.291-.28906c.01562-1.00781.03125-2.0332.03125-3.01172v-6.48828l-1.89063.17578v-.5918l4.3418-.99414.24121.17578-.06445,2.61133v5.11133c0,.97852.0166,2.00391.03223,3.01172Z"/><path d="M327.93066,613.47272v1.23242l-4.02148,10.25391h-2.40332l-.16016-.16016,5.51172-9.35547h-6.60156v-1.9707Z"/><path d="M329.67285,619.78522h13.74707v1.168H329.67285Z"/><path d="M357.02637,622.98834v1.97071H349v-1.44141c.88086-.96094,1.81055-1.875,2.59473-2.69141,1.82715-1.875,2.54785-2.96484,2.54785-4.63086,0-1.50586-.75293-2.45117-1.98633-2.45117a2.66976,2.66976,0,0,0-.60937.06445l-.35254,1.58594c-.17579,1.08985-.70508,1.34571-1.20118,1.34571a1.1236,1.1236,0,0,1-1.042-.67188c.14453-1.85937,1.95508-2.86914,4.10156-2.86914,2.53125,0,3.70118,1.33008,3.70118,3.14062,0,1.666-1.36133,3.125-4.42188,5.127-.54492.38476-1.25.94531-1.98633,1.52148Z"/><path d="M366.84668,619.22467c0,4.18164-1.9707,6.00781-4.18164,6.00781-2.22754,0-4.166-1.82617-4.166-6.00781,0-4.19922,1.93848-6.02539,4.166-6.02539C364.876,613.19928,366.84668,615.02545,366.84668,619.22467Zm-4.18164,5.44727c.94531,0,1.76269-1.16993,1.76269-5.44727,0-4.31055-.81738-5.48047-1.76269-5.48047s-1.73047,1.1543-1.73047,5.48047C360.93457,623.51764,361.71973,624.67194,362.665,624.67194Z"/><path d="M376.50586,622.98834v1.97071h-8.02637v-1.44141c.88086-.96094,1.81055-1.875,2.59571-2.69141,1.82617-1.875,2.54785-2.96484,2.54785-4.63086,0-1.50586-.75391-2.45117-1.98731-2.45117a2.66729,2.66729,0,0,0-.6084.06445l-.35351,1.58594c-.17578,1.08985-.7041,1.34571-1.20117,1.34571a1.12125,1.12125,0,0,1-1.041-.67188c.14453-1.85937,1.9541-2.86914,4.10156-2.86914,2.53125,0,3.70118,1.33008,3.70118,3.14062,0,1.666-1.36231,3.125-4.42188,5.127-.54492.38476-1.25.94531-1.9873,1.52148Z"/><path d="M386.24609,622.98834v1.97071h-8.02734v-1.44141c.88184-.96094,1.81055-1.875,2.5957-2.69141,1.82617-1.875,2.54785-2.96484,2.54785-4.63086,0-1.50586-.75292-2.45117-1.9873-2.45117a2.67292,2.67292,0,0,0-.6084.06445l-.35254,1.58594c-.17578,1.08985-.70508,1.34571-1.20117,1.34571a1.1236,1.1236,0,0,1-1.042-.67188c.14453-1.85937,1.95508-2.86914,4.10156-2.86914,2.53223,0,3.70117,1.33008,3.70117,3.14062,0,1.666-1.3623,3.125-4.42187,5.127-.54492.38476-1.25.94531-1.98731,1.52148Z"/><path d="M388.26367,623.7735a1.47422,1.47422,0,0,1,2.94824,0,1.47445,1.47445,0,0,1-2.94824,0Z"/><path d="M400.95312,624.463v.4961h-7.13085v-.4961l2.291-.28906c.0166-1.00781.0332-2.0332.0332-3.01172v-6.48828l-1.89062.17578v-.5918l4.3418-.99414.24023.17578-.06445,2.61133v5.11133c0,.97852.01562,2.00391.03222,3.01172Z"/><path d="M411.17285,622.98834v1.97071h-8.02637v-1.44141c.88086-.96094,1.81055-1.875,2.59571-2.69141,1.82617-1.875,2.54687-2.96484,2.54687-4.63086,0-1.50586-.75293-2.45117-1.98633-2.45117a2.67549,2.67549,0,0,0-.60937.06445l-.35254,1.58594c-.17676,1.08985-.70508,1.34571-1.20215,1.34571a1.12323,1.12323,0,0,1-1.041-.67188c.14453-1.85937,1.95507-2.86914,4.10156-2.86914,2.53125,0,3.70117,1.33008,3.70117,3.14062,0,1.666-1.36133,3.125-4.42187,5.127-.54493.38476-1.25.94531-1.98633,1.52148Z"/><path d="M413.18945,623.7735a1.47472,1.47472,0,0,1,2.94922,0,1.47495,1.47495,0,0,1-2.94922,0Z"/><path d="M426.00684,613.47272v1.23242l-4.02149,10.25391H419.582l-.16015-.16016,5.51171-9.35547H418.332v-1.9707Z"/><rect x="232.25999" y="628.61998" width="194.75999" height="0.78"/><g class="cls-3"><polyline points="279.308 505.165 423.368 505.165 423.368 485.14 279.308 485.14 279.308 505.165"/></g><g class="cls-4"><polyline points="336.975 536.365 421.615 536.365 421.615 516.34 336.975 516.34 336.975 536.365"/></g></g></svg>