<?xml version="1.0" encoding="utf-8"?>
<!-- Generator: Adobe Illustrator 26.0.0, SVG Export Plug-In . SVG Version: 6.00 Build 0)  -->
<svg version="1.2" baseProfile="tiny" id="图层_1"
	 xmlns="http://www.w3.org/2000/svg" xmlns:xlink="http://www.w3.org/1999/xlink" x="0px" y="0px" viewBox="0 0 873.6 775.4"
	 overflow="visible" xml:space="preserve">
<g>
	<polygon fill="none" points="356.2,178.9 356.2,184.6 361.8,178.9 	"/>
	<path fill="none" d="M395.5,32.7c-2.1,0-3.9,1.7-3.9,3.9c0,0.1,0,0.1-0.1,0.2v1.6h7.7v-1.7c0-0.1,0-0.1,0-0.2
		C399.3,34.4,397.6,32.7,395.5,32.7z"/>
	<path fill="none" d="M437.8,26.3c-0.7,0-1.4,0.3-1.8,0.9c-2.8,5.2-2.8,11.3,0,16.5c0.4,0.6,1.1,0.9,1.8,0.9c0.7,0,1.4-0.3,1.8-0.9
		c2.8-5.2,2.8-11.3,0-16.5C439.2,26.7,438.5,26.3,437.8,26.3z"/>
	<path fill="none" d="M409.2,32.7c-1.5,0-2.8,1.3-2.8,2.8c0,0.1,0,0.1-0.1,0.2v6c0,0.1,0.1,0.1,0.1,0.2c0,1.5,1.3,2.8,2.8,2.8
		c0.1,0,0.1,0,0.2,0.1h0.2c0.1,0,0.1-0.1,0.2-0.1c1.5,0,2.8-1.3,2.8-2.8v-9.1H409.2z"/>
	<path fill="none" d="M509.2,178.9h-5.9l-1.4,1.4v6.1c0-0.1,0-0.2,0.1-0.3L509.2,178.9z"/>
	<path fill="none" d="M129.5,757.4h7.7v-1.8c0,0,0,0,0,0c0,0,0,0,0,0c0-2.1-1.7-3.9-3.9-3.9s-3.9,1.7-3.9,3.9c0,0,0,0,0,0
		c0,0,0,0,0,0V757.4z"/>
	<polygon fill="none" points="429.6,355.1 426,365.8 433.2,365.8 	"/>
	<polygon fill="none" points="501.9,178.9 501.9,179.2 502.1,178.9 	"/>
	<polygon fill="none" points="380.8,167.1 381.7,166.2 381.7,160.3 374.9,167.1 	"/>
	<path fill="none" d="M135.3,44c-2.1,0-3.9,1.7-3.9,3.9c0,0.1,0,0.1-0.1,0.2v1.6h7.7v-1.7c0-0.1,0-0.1,0-0.2
		C139.1,45.6,137.4,44,135.3,44z"/>
	<path fill="none" d="M82.8,56c0.1,0,0.1-0.1,0.2-0.1c1.8,0,3.3-1.5,3.3-3.3v-5.2c0,0,0,0,0,0c0,0,0,0,0,0c0-1.8-1.5-3.3-3.3-3.3
		c0,0,0,0,0,0c0,0,0,0,0,0h-4.4v12H82.8z"/>
	<polygon fill="none" points="168.1,173 168.1,72.2 149.2,72.2 149.2,273.8 168.1,273.8 	"/>
	<polygon fill="none" points="68,173 68,273.8 86.8,273.8 86.8,72.2 68,72.2 	"/>
	<polygon fill="none" points="295.1,167.1 295.1,161.7 289.8,167.1 	"/>
	<path fill="none" d="M154,47.9C154,47.9,154,47.9,154,47.9C154,47.8,154,47.8,154,47.9c0-2.2-1.7-3.9-3.9-3.9s-3.9,1.7-3.9,3.9
		c0,0,0,0,0,0c0,0,0,0,0,0v1.7h7.7V47.9z"/>
	<polygon fill="none" points="230,119.3 226.4,130 233.6,130 	"/>
	<path fill="none" d="M590,135.3c1.9,0,3.5-1.6,3.5-3.5v-4.2c0,0,0,0,0,0c0,0,0,0,0,0c0-1.9-1.6-3.5-3.5-3.5s-3.5,1.6-3.5,3.5
		c0,0,0,0,0,0c0,0,0,0,0,0v4.2C586.5,133.7,588.1,135.3,590,135.3z"/>
	<polygon fill="none" points="588.4,392.1 588.4,397.5 593.7,392.1 	"/>
	<polygon fill="none" points="588.4,178.9 588.4,184.8 594.3,178.9 	"/>
	<path fill="none" d="M422,525.1c-1.5,0-2.8,1.3-2.8,2.8c0,0.1,0,0.1-0.1,0.2v6c0,0.1,0.1,0.1,0.1,0.2c0,1.5,1.3,2.8,2.8,2.8h0.5
		c0,0,0,0,0,0c0,0,0,0,0,0c1.5,0,2.8-1.3,2.8-2.8v-9.1H422z"/>
	<polygon fill="none" points="612.7,380.3 613.9,379.1 613.9,373.2 606.8,380.3 	"/>
	<polygon fill="none" points="613.9,380.3 613.9,380.3 613.8,380.3 	"/>
	<path fill="none" d="M408.3,525c-2.1,0-3.9,1.7-3.9,3.9c0,0.1,0,0.1-0.1,0.2v1.6h7.7v-1.8c0-0.1,0-0.1,0-0.2
		C412,526.7,410.3,525,408.3,525z"/>
	<polygon fill="none" points="270.3,392.1 269.7,392.8 269.7,398.7 276.2,392.1 	"/>
	<polygon fill="none" points="270.8,178.9 269.7,180.1 269.7,186 276.8,178.9 	"/>
	<polygon fill="none" points="527.3,167.1 527.3,162 522.2,167.1 	"/>
	<polygon fill="none" points="613.2,167.1 613.9,166.4 613.9,160.5 607.3,167.1 	"/>
	<path fill="none" d="M619.1,530.7h7.7v-1.8c0,0,0,0,0,0c0,0,0,0,0,0c0-2.1-1.7-3.9-3.9-3.9s-3.9,1.7-3.9,3.9c0,0,0,0,0,0
		c0,0,0,0,0,0V530.7z"/>
	<polygon fill="none" points="168.1,676.1 168.1,626.1 149.2,626.1 149.2,726.2 168.1,726.2 	"/>
	<polygon fill="none" points="606.9,119.3 603.4,130 610.5,130 	"/>
	<path fill="none" d="M148.2,751.7c-2.1,0-3.9,1.7-3.9,3.9c0,0.1,0,0.1-0.1,0.2v1.6h7.7v-1.8c0-0.1,0-0.1,0-0.2
		C152,753.4,150.3,751.7,148.2,751.7z"/>
	<polygon fill="none" points="295.1,380.3 295.1,374.4 289.3,380.3 	"/>
	<path fill="none" d="M636.8,525.1c-1.5,0-2.8,1.3-2.8,2.8c0,0.1,0,0.1-0.1,0.2v6c0,0.1,0.1,0.1,0.1,0.2c0,1.5,1.3,2.8,2.8,2.8h0.5
		c0,0,0,0,0,0c0,0,0,0,0,0c1.5,0,2.8-1.3,2.8-2.8v-9.1H636.8z"/>
	<path fill="none" d="M652.9,36.6C652.9,36.6,652.9,36.6,652.9,36.6C652.9,36.6,652.9,36.6,652.9,36.6c0-2.2-1.7-3.9-3.9-3.9
		s-3.9,1.7-3.9,3.9c0,0,0,0,0,0c0,0,0,0,0,0v1.7h7.7V36.6z"/>
	<path fill="none" d="M662.7,32.7c-1.5,0-2.8,1.3-2.8,2.8c0,0.1,0,0.1-0.1,0.2v6c0,0.1,0.1,0.1,0.1,0.2c0,1.5,1.3,2.8,2.8,2.8
		c0.1,0,0.1,0,0.2,0.1h0.2c0.1,0,0.1-0.1,0.2-0.1c1.5,0,2.8-1.3,2.8-2.8v-9.1H662.7z"/>
	<path fill="none" d="M718.5,693.1L705,706.6l13.5,13.5c3.3-3.6,5.4-8.3,5.4-13.6C723.9,701.4,721.8,696.6,718.5,693.1z"/>
	<path fill="none" d="M105.7,448.2v6.1h3.7c0.1,0,0.1-0.1,0.2-0.1c1.7,0,3-1.4,3-3c0-1.6-1.3-2.9-2.9-3c-0.1,0-0.1,0-0.2,0H105.7z"
		/>
	<path fill="none" d="M105.7,455v7.7h3.7c0.1,0,0.1-0.1,0.2-0.1c2.1,0,3.9-1.7,3.9-3.9c0-2.1-1.7-3.8-3.7-3.9c-0.1,0-0.1,0-0.2,0
		H105.7z"/>
	<path fill="none" d="M704,686.7c-5.2,0-10,2.1-13.6,5.4l13.5,13.5l13.6-13.6C714,688.7,709.2,686.7,704,686.7z"/>
	<path fill="none" d="M125.3,456.3C125.3,456.3,125.3,456.3,125.3,456.3C125.3,456.3,125.3,456.3,125.3,456.3c0-1.7-1.4-3.1-3-3.1
		c-1.7,0-3,1.4-3,3c0,0,0,0,0,0c0,0,0,0,0,0v1.3h6.1V456.3z"/>
	<rect x="220.3" y="636.2" fill="none" width="8.7" height="79.8"/>
	<path fill="none" d="M230.4,726.2h181.3v-9.4v-81.2v-9.4H230.4v9.4v81.2V726.2z M347.9,675.1c0-0.4,0.3-0.7,0.7-0.7h6.3
		c0.4,0,0.7,0.3,0.7,0.7v2.1c0,0.4-0.3,0.7-0.7,0.7s-0.7-0.3-0.7-0.7v-1.4h-4.9v11.9c0,0.4-0.3,0.7-0.7,0.7s-0.7-0.3-0.7-0.7V675.1z
		 M333.1,679.3C333.1,679.3,333.1,679.3,333.1,679.3C333.1,679.3,333.1,679.3,333.1,679.3c0-2.8,2.2-5,5-5s5,2.2,5,4.9c0,0,0,0,0,0
		c0,0,0,0,0,0v4.2v0c0,0,0,0,0,0c0,2.7-2.2,4.9-4.9,4.9s-4.9-2.2-4.9-4.9c0,0,0,0,0,0V679.3z M321.1,674.4h1.4v-5.6
		c0-0.4,0.3-0.7,0.7-0.7s0.7,0.3,0.7,0.7v5.6h3.5c0.4,0,0.7,0.3,0.7,0.7s-0.3,0.7-0.7,0.7h-3.5v11.9c0,0.4-0.3,0.7-0.7,0.7
		s-0.7-0.3-0.7-0.7v-11.9h-1.4c-0.4,0-0.7-0.3-0.7-0.7S320.7,674.4,321.1,674.4z M305.6,679.3C305.6,679.3,305.6,679.3,305.6,679.3
		C305.6,679.3,305.6,679.3,305.6,679.3c0-2.8,2.2-5,5-5s5,2.2,5,4.9c0,0,0,0,0,0c0,0,0,0,0,0v4.2v0c0,0,0,0,0,0
		c0,2.7-2.2,4.9-4.9,4.9s-4.9-2.2-4.9-4.9c0,0,0,0,0,0V679.3z M286.5,675.1c0-0.4,0.3-0.7,0.7-0.7h6.4h2.4c0.1,0,0.2-0.1,0.3-0.1
		c2.4,0,4.4,2,4.4,4.4c0,0,0,0,0,0c0,0,0,0,0,0v9c0,0.4-0.3,0.7-0.7,0.7s-0.7-0.3-0.7-0.7v-9c0,0,0,0,0,0c0,0,0,0,0,0
		c0-1.6-1.2-2.9-2.8-3c-0.1,0-0.1,0-0.2,0h-1.9v11.9c0,0.4-0.3,0.7-0.7,0.7s-0.7-0.3-0.7-0.7v-11.9h-4.9v11.9c0,0.4-0.3,0.7-0.7,0.7
		s-0.7-0.3-0.7-0.7V675.1z"/>
	<polygon fill="none" points="68,676.1 68,726.2 86.8,726.2 86.8,626.1 68,626.1 	"/>
	<path fill="none" d="M338,687c1.9,0,3.5-1.6,3.5-3.5v-4.2c0,0,0,0,0,0c0,0,0,0,0,0c0-1.9-1.6-3.5-3.5-3.5s-3.5,1.6-3.5,3.5
		c0,0,0,0,0,0c0,0,0,0,0,0v4.2C334.5,685.5,336.1,687,338,687z"/>
	<path fill="none" d="M803.5,184.2c2.1,0,3.7-1.6,3.9-3.7c0,0,0-0.1,0-0.2v-4.3c0-0.1,0-0.1,0-0.2c-0.1-2.1-1.8-3.7-3.9-3.7
		c-2.1,0-3.9,1.7-3.9,3.9c0,0.1,0,0.1-0.1,0.2v3.9c0,0.1,0.1,0.1,0.1,0.2C799.6,182.5,801.3,184.2,803.5,184.2z"/>
	<path fill="none" d="M704,726.5c5.2,0,9.9-2,13.5-5.3L704,707.6l-13.5,13.5C694,724.4,698.8,726.5,704,726.5z"/>
	<path fill="none" d="M310.5,687c1.9,0,3.5-1.6,3.5-3.5v-4.2c0,0,0,0,0,0c0,0,0,0,0,0c0-1.9-1.6-3.5-3.5-3.5s-3.5,1.6-3.5,3.5
		c0,0,0,0,0,0c0,0,0,0,0,0v4.2C307,685.5,308.6,687,310.5,687z"/>
	<path fill="none" d="M689.4,693.1c-3.3,3.5-5.3,8.3-5.3,13.5c0,5.2,2,10,5.3,13.5l13.5-13.5L689.4,693.1z"/>
	<path fill="none" d="M758.3,253.5h98.8v-161h-98.8V253.5z M826.4,165.6c0-0.2,0.2-0.4,0.4-0.4s0.4,0.2,0.4,0.4v12.1l3.6-1.8
		c0,0,0.1-0.1,0.1-0.1c0.1,0,0.1,0,0.2,0l4.1-2.1c0.2-0.1,0.4,0,0.5,0.2s0,0.4-0.2,0.5l-3.9,2l4.1,8.1c0.1,0.2,0,0.4-0.2,0.5
		c-0.1,0-0.1,0-0.2,0c-0.1,0-0.3-0.1-0.3-0.2l-4.1-8.1l-3.7,1.9v6.1c0,0.2-0.2,0.4-0.4,0.4s-0.4-0.2-0.4-0.4V165.6z M813.7,171.9
		c0-0.2,0.2-0.4,0.4-0.4h6.4c0.2,0,0.4,0.2,0.4,0.4v2.1c0,0.2-0.2,0.4-0.4,0.4s-0.4-0.2-0.4-0.4v-1.7h-5.6v12.3
		c0,0.2-0.2,0.4-0.4,0.4s-0.4-0.2-0.4-0.4V171.9z M798.8,176.1c0-0.1,0-0.2,0.1-0.2c0.1-2.4,2.1-4.4,4.6-4.4c2.5,0,4.6,2.1,4.6,4.6
		c0,0.1,0,0.1-0.1,0.2v3.9c0,0.1,0.1,0.1,0.1,0.2c0,2.5-2.1,4.6-4.6,4.6c-2.4,0-4.4-1.9-4.6-4.3c-0.1-0.1-0.1-0.1-0.1-0.2V176.1z
		 M780.1,171.6c0.2-0.1,0.4,0.1,0.4,0.3l2.9,11.5l2.8-7.4c0.1-0.3,0.6-0.3,0.7,0l2.8,7.4l2.9-11.5c0-0.2,0.2-0.3,0.4-0.3
		c0.2,0,0.3,0.2,0.3,0.4l-3.2,12.7c0,0.2-0.2,0.3-0.3,0.3c0,0,0,0,0,0c-0.1,0-0.3-0.1-0.3-0.2l-2.8-7.6l-2.8,7.6
		c-0.1,0.1-0.2,0.2-0.4,0.2c-0.2,0-0.3-0.1-0.3-0.3l-3.2-12.7C779.8,171.8,779.9,171.6,780.1,171.6z"/>
	<path fill="none" d="M147.8,72.2H88.3v654h59.5V72.2z M100.6,453l-3.4,10.1c0,0.1-0.2,0.2-0.3,0.2c0,0,0,0,0,0
		c-0.2,0-0.3-0.1-0.3-0.2L93.1,453c-0.1-0.2,0-0.4,0.2-0.5c0.2-0.1,0.4,0,0.5,0.2l3,9.1l3.1-9.1c0.1-0.2,0.3-0.3,0.5-0.2
		C100.6,452.7,100.7,452.9,100.6,453z M133,690.4c0.3,0.3,0.3,0.7,0,1c-0.1,0.1-0.3,0.2-0.5,0.2s-0.4-0.1-0.5-0.2l-14.2-14.2
		l-14.2,14.2c-0.1,0.1-0.3,0.2-0.5,0.2s-0.4-0.1-0.5-0.2c-0.3-0.3-0.3-0.7,0-1l14.2-14.2l-14.2-14.2c-0.3-0.3-0.3-0.7,0-1
		s0.7-0.3,1,0l14.2,14.2l14.2-14.2c0.3-0.3,0.7-0.3,1,0s0.3,0.7,0,1l-14.2,14.2L133,690.4z M114.2,458.8c0,2.5-2,4.5-4.4,4.6
		c-0.1,0-0.1,0.1-0.2,0.1h-4.3c-0.2,0-0.4-0.2-0.4-0.4v-15.2c0-0.2,0.2-0.4,0.4-0.4h4.1c0.1,0,0.1-0.1,0.2-0.1
		c2.1,0,3.8,1.7,3.8,3.8c0,1.5-0.9,2.7-2.1,3.4C112.9,455.2,114.2,456.8,114.2,458.8z M118.5,456.3c0-2.1,1.7-3.8,3.8-3.8
		c2.1,0,3.7,1.7,3.7,3.8c0,0,0,0,0,0c0,0,0,0,0,0v1.7c0,0.2-0.2,0.4-0.4,0.4h-6.4v2.1c0,1.2,1,2.2,2.2,2.2c0.1,0,0.1,0,0.2,0.1h4
		c0.2,0,0.4,0.2,0.4,0.4s-0.2,0.4-0.4,0.4h-4.3c-0.1,0-0.2,0-0.2-0.1c-1.5-0.1-2.6-1.3-2.6-2.8c0,0,0,0,0,0V458V456.3
		C118.5,456.3,118.5,456.3,118.5,456.3C118.5,456.3,118.5,456.3,118.5,456.3z M131.1,461.4c0,0.7,0.6,1.3,1.4,1.3
		c0.2,0,0.4,0.2,0.4,0.4s-0.2,0.4-0.4,0.4c-1.1,0-1.9-0.8-2-1.8c-0.1-0.1-0.1-0.1-0.1-0.2v-13.6c0-0.2,0.2-0.4,0.4-0.4
		s0.4,0.2,0.4,0.4v13.3C131.1,461.2,131.1,461.3,131.1,461.4z M133,189.3c-0.1,0.1-0.3,0.2-0.5,0.2s-0.4-0.1-0.5-0.2L117.7,175
		l-14.2,14.2c-0.1,0.1-0.3,0.2-0.5,0.2c-0.2,0-0.4-0.1-0.5-0.2c-0.3-0.3-0.3-0.7,0-1l14.2-14.3l-14.2-14.3c-0.3-0.3-0.3-0.7,0-1
		c0.3-0.3,0.7-0.3,1,0l14.2,14.2l14.2-14.2c0.3-0.3,0.7-0.3,1,0c0.3,0.3,0.3,0.7,0,1L118.8,174l14.2,14.3
		C133.3,188.5,133.3,189,133,189.3z M142.6,453.3h-3.1v9.8c0,0.2-0.2,0.4-0.4,0.4s-0.4-0.2-0.4-0.4v-9.8h-1.3
		c-0.2,0-0.4-0.2-0.4-0.4s0.2-0.4,0.4-0.4h1.3v-4.7c0-0.2,0.2-0.4,0.4-0.4s0.4,0.2,0.4,0.4v4.7h3.1c0.2,0,0.4,0.2,0.4,0.4
		S142.7,453.3,142.6,453.3z"/>
	<rect x="413.2" y="636.2" fill="none" width="8.8" height="79.8"/>
	<path d="M88.3,71.4v0.7h59.5v-0.7c0-0.4,0.3-0.7,0.7-0.7h-61C87.9,70.7,88.3,71.1,88.3,71.4z"/>
	<path d="M68,273.8V173c0,0.4-0.3,0.7-0.7,0.7h-0.7v100.8c0,0.4,0.3,0.7,0.7,0.7h19.6v-1.4H68z"/>
	<path d="M68,173V72.2h18.8v-0.7c0-0.4,0.3-0.7,0.7-0.7H67.3c-0.4,0-0.7,0.3-0.7,0.7v100.9h0.7C67.6,172.3,68,172.6,68,173z"/>
	<path d="M168.1,173v100.8h-18.8v1.4h19.6c0.4,0,0.7-0.3,0.7-0.7V173.7h-0.7C168.4,173.7,168.1,173.4,168.1,173z"/>
	<path d="M149.2,71.4v0.7h18.8V173c0-0.4,0.3-0.7,0.7-0.7h0.7V71.4c0-0.4-0.3-0.7-0.7-0.7h-20.3C148.9,70.7,149.2,71.1,149.2,71.4z"
		/>
	<path fill="#008272" d="M168.1,173c0,0.4,0.3,0.7,0.7,0.7h0.7H325V173v-0.7H169.5h-0.7C168.4,172.3,168.1,172.6,168.1,173z"/>
	<path fill="#008272" d="M68,173c0-0.4-0.3-0.7-0.7-0.7h-0.7h-50c-0.4,0-0.7,0.3-0.7,0.7s0.3,0.7,0.7,0.7h50h0.7
		C67.6,173.7,68,173.4,68,173z"/>
	<path d="M168.1,676.1v50h-18.8v0.7c0,0.4-0.3,0.7-0.7,0.7h20.3c0.4,0,0.7-0.3,0.7-0.7v-50h-0.7
		C168.4,676.8,168.1,676.5,168.1,676.1z"/>
	<path d="M147.8,726.9v-0.7H88.3v0.7c0,0.4-0.3,0.7-0.7,0.7h61C148.1,727.6,147.8,727.3,147.8,726.9z"/>
	<path d="M86.8,726.9v-0.7H68v-50c0,0.4-0.3,0.7-0.7,0.7h-0.7v50c0,0.4,0.3,0.7,0.7,0.7h20.3C87.1,727.6,86.8,727.3,86.8,726.9z"/>
	<path d="M168.1,626.1v50c0-0.4,0.3-0.7,0.7-0.7h0.7v-50c0-0.4-0.3-0.7-0.7-0.7h-19.6v1.4H168.1z"/>
	<path d="M68,676.1v-50h18.8v-1.4H67.3c-0.4,0-0.7,0.3-0.7,0.7v50h0.7C67.6,675.4,68,675.7,68,676.1z"/>
	<path d="M68,676.1c0-0.4-0.3-0.7-0.7-0.7h-0.7h-50c-0.4,0-0.7,0.3-0.7,0.7s0.3,0.7,0.7,0.7h50h0.7C67.6,676.8,68,676.5,68,676.1z"
		/>
	<path d="M168.1,676.1c0,0.4,0.3,0.7,0.7,0.7h0.7h49.3v-1.4h-49.3h-0.7C168.4,675.4,168.1,675.7,168.1,676.1z"/>
	<path d="M102.5,188.2c-0.3,0.3-0.3,0.7,0,1c0.1,0.1,0.3,0.2,0.5,0.2c0.2,0,0.4-0.1,0.5-0.2l14.2-14.2l-1-1L102.5,188.2z"/>
	<path d="M133,159.7c0.3-0.3,0.3-0.7,0-1c-0.3-0.3-0.7-0.3-1,0L117.7,173l1,1L133,159.7z"/>
	<path d="M118.8,174l-1-1l-14.2-14.2c-0.3-0.3-0.7-0.3-1,0c-0.3,0.3-0.3,0.7,0,1l14.2,14.3l1,1l14.2,14.2c0.1,0.1,0.3,0.2,0.5,0.2
		s0.4-0.1,0.5-0.2c0.3-0.3,0.3-0.7,0-1L118.8,174z"/>
	<path d="M218.8,716.7c0,0.4,0.3,0.7,0.7,0.7h9.4v9.4c0,0.4,0.3,0.7,0.7,0.7h182.8c0.4,0,0.7-0.3,0.7-0.7v-9.4h9.5
		c0.4,0,0.7-0.3,0.7-0.7v-81.2c0-0.4-0.3-0.7-0.7-0.7h-9.5v-9.4c0-0.4-0.3-0.7-0.7-0.7H229.7c-0.4,0-0.7,0.3-0.7,0.7v9.4h-9.4
		c-0.4,0-0.7,0.3-0.7,0.7v39.9v1.4V716.7z M220.3,636.2h8.7v-0.7c0-0.4,0.3-0.7,0.7-0.7s0.7,0.3,0.7,0.7v-9.4h181.3v9.4
		c0-0.4,0.3-0.7,0.7-0.7s0.7,0.3,0.7,0.7v0.7h8.8V716h-8.8v0.7c0,0.4-0.3,0.7-0.7,0.7s-0.7-0.3-0.7-0.7v9.4H230.4v-9.4
		c0,0.4-0.3,0.7-0.7,0.7s-0.7-0.3-0.7-0.7V716h-8.7V636.2z"/>
	<path d="M229,716.7c0,0.4,0.3,0.7,0.7,0.7s0.7-0.3,0.7-0.7v-81.2c0-0.4-0.3-0.7-0.7-0.7s-0.7,0.3-0.7,0.7v0.7V716V716.7z"/>
	<path d="M412.4,717.5c0.4,0,0.7-0.3,0.7-0.7V716v-79.8v-0.7c0-0.4-0.3-0.7-0.7-0.7s-0.7,0.3-0.7,0.7v81.2
		C411.7,717.1,412,717.5,412.4,717.5z"/>
	<path d="M224.6,736.4c-0.4,0-0.7,0.3-0.7,0.7s0.3,0.7,0.7,0.7h192.9c0.4,0,0.7-0.3,0.7-0.7s-0.3-0.7-0.7-0.7H224.6z"/>
	<path fill="#008272" d="M325.7,172.3c0.4,0,0.7,0.3,0.7,0.7v0.7h60.2c0.4,0,0.7-0.3,0.7-0.7s-0.3-0.7-0.7-0.7h-60.2v-59.5H325v59.5
		v0.7C325,172.6,325.3,172.3,325.7,172.3z"/>
	<path fill="#008272" d="M325.7,172.3c-0.4,0-0.7,0.3-0.7,0.7v0.7v59.5h0.7h0.7v-59.5V173C326.4,172.6,326.1,172.3,325.7,172.3z"/>
	<path fill="#008272" d="M335.8,112.8c0.4,0,0.7-0.3,0.7-0.7s-0.3-0.7-0.7-0.7h-20.3c-0.4,0-0.7,0.3-0.7,0.7s0.3,0.7,0.7,0.7h9.4
		h1.4H335.8z"/>
	<path fill="#002FA7" d="M326.4,233.9v0.7h9.4c0.4,0,0.7-0.3,0.7-0.7s-0.3-0.7-0.7-0.7h-9.4h-0.7
		C326.1,233.2,326.4,233.5,326.4,233.9z"/>
	<path fill="#002FA7" d="M325.7,233.2H325h-9.4c-0.4,0-0.7,0.3-0.7,0.7s0.3,0.7,0.7,0.7h9.4v-0.7C325,233.5,325.3,233.2,325.7,233.2
		z"/>
	<path fill="#008272" d="M360.8,159.9c0.2-0.2,0.2-0.4,0-0.6s-0.4-0.2-0.6,0l-4,4v1.2L360.8,159.9z"/>
	<path fill="#008272" d="M367.8,159.9c0.2-0.2,0.2-0.4,0-0.6c-0.2-0.2-0.4-0.2-0.6,0l-7.7,7.8h1.2L367.8,159.9z"/>
	<path fill="#008272" d="M367.8,167.1l7.2-7.2c0.2-0.2,0.2-0.4,0-0.6s-0.4-0.2-0.6,0l-7.8,7.8H367.8z"/>
	<path fill="#008272" d="M381.7,160.3v-0.7c0-0.2,0.1-0.3,0.3-0.4c-0.2-0.1-0.3,0-0.4,0.1l-7.8,7.8h1.2L381.7,160.3z"/>
	<polygon fill="#008272" points="381.7,167.1 381.7,166.2 380.8,167.1 	"/>
	<path fill="#008272" d="M360.7,167.1h-1.2h-3.4v-2.6v-1.2v-3.7c0-0.2-0.2-0.4-0.4-0.4s-0.4,0.2-0.4,0.4v7.9c0,0.2,0.2,0.4,0.4,0.4
		h26.3c0.2,0,0.4-0.2,0.4-0.4v-7.9c0-0.2-0.2-0.4-0.4-0.4c-0.1,0-0.1,0-0.1,0c-0.2,0.1-0.3,0.2-0.3,0.4v0.7v5.9v0.9h-0.9h-5.9h-1.2
		h-5.9h-1.2H360.7z"/>
	<polygon fill="#008272" points="356.2,184.6 356.2,185.7 363,178.9 361.8,178.9 	"/>
	<path fill="#008272" d="M361.7,186.1c-0.2,0.2-0.2,0.4,0,0.6c0.1,0.1,0.2,0.1,0.3,0.1s0.2,0,0.3-0.1l7.8-7.8h-1.2L361.7,186.1z"/>
	<path fill="#008272" d="M368.8,186.1c-0.2,0.2-0.2,0.4,0,0.6c0.1,0.1,0.2,0.1,0.3,0.1s0.2,0,0.3-0.1l7.8-7.8H376L368.8,186.1z"/>
	<path fill="#008272" d="M375.9,186.1c-0.2,0.2-0.2,0.4,0,0.6c0.1,0.1,0.2,0.1,0.3,0.1s0.2,0,0.3-0.1l5.2-5.2v-1.2L375.9,186.1z"/>
	<path fill="#008272" d="M382.1,186.8c0.2,0,0.4-0.2,0.4-0.4v-7.9c0-0.2-0.2-0.4-0.4-0.4h-26.3c-0.2,0-0.4,0.2-0.4,0.4v7.9
		c0,0.2,0.2,0.4,0.4,0.4s0.4-0.2,0.4-0.4v-0.7v-1.2v-5.6h5.6h1.2h6h1.2h5.9h1.2h4.4v1.4v1.2v4.9
		C381.7,186.6,381.8,186.8,382.1,186.8z"/>
	<path fill="#008272" d="M275.7,159.9c0.2-0.2,0.2-0.4,0-0.6c-0.2-0.2-0.4-0.2-0.6,0l-5.4,5.5v1.2L275.7,159.9z"/>
	<path fill="#008272" d="M282.8,159.9c0.2-0.2,0.2-0.4,0-0.6s-0.4-0.2-0.6,0l-7.8,7.8h1.2L282.8,159.9z"/>
	<path fill="#008272" d="M289.9,159.9c0.2-0.2,0.2-0.4,0-0.6s-0.4-0.2-0.6,0l-7.8,7.8h1.2L289.9,159.9z"/>
	<polygon fill="#008272" points="295.1,161.7 295.1,160.6 288.6,167.1 289.8,167.1 	"/>
	<path fill="#008272" d="M269.7,165.9v-1.2v-5.2c0-0.2-0.2-0.4-0.4-0.4s-0.4,0.2-0.4,0.4v7.9c0,0.2,0.2,0.4,0.4,0.4h26.3
		c0.2,0,0.4-0.2,0.4-0.4v-7.9c0-0.2-0.2-0.4-0.4-0.4s-0.4,0.2-0.4,0.4v1v1.2v5.3h-5.3h-1.2h-5.9h-1.2h-5.9h-1.2h-4.7V165.9z"/>
	<polygon fill="#008272" points="269.7,178.9 269.7,180.1 270.8,178.9 	"/>
	<path fill="#008272" d="M269.7,186v0.4c0,0.1,0,0.2-0.1,0.3c0,0,0,0,0,0c0.1,0.1,0.2,0.1,0.3,0.1s0.2,0,0.3-0.1l7.8-7.8h-1.2
		L269.7,186z"/>
	<path fill="#008272" d="M276.7,186.1c-0.2,0.2-0.2,0.4,0,0.6c0.1,0.1,0.2,0.1,0.3,0.1s0.2,0,0.3-0.1l7.8-7.8h-1.2L276.7,186.1z"/>
	<path fill="#008272" d="M283.7,186.1c-0.2,0.2-0.2,0.4,0,0.6c0.1,0.1,0.2,0.1,0.3,0.1s0.2,0,0.3-0.1l7.8-7.8h-1.2L283.7,186.1z"/>
	<path fill="#008272" d="M290.9,186.1c-0.2,0.2-0.2,0.4,0,0.6c0.1,0.1,0.2,0.1,0.3,0.1c0.1,0,0.2,0,0.3-0.1l3.7-3.7v-1.2
		L290.9,186.1z"/>
	<path fill="#008272" d="M295.6,186.8c0.2,0,0.4-0.2,0.4-0.4v-7.9c0-0.2-0.2-0.4-0.4-0.4h-26.3c-0.2,0-0.4,0.2-0.4,0.4v7.9
		c0,0.2,0.2,0.4,0.4,0.4c0.1,0,0.2,0,0.3-0.1c0.1-0.1,0.1-0.2,0.1-0.3V186v-5.9v-1.2h1.1h5.9h1.2h5.9h1.2h5.9h1.2h3v2.9v1.2v3.4
		C295.1,186.6,295.3,186.8,295.6,186.8z"/>
	<path fill="#002FA7" d="M325.7,233.2c-0.4,0-0.7,0.3-0.7,0.7v0.7v150.8h0.7h0.7V234.6v-0.7C326.4,233.5,326.1,233.2,325.7,233.2z"
		/>
	<path fill="#002FA7" d="M325.7,385.5H325h-60.2c-0.4,0-0.7,0.3-0.7,0.7s0.3,0.7,0.7,0.7H325v-0.7
		C325,385.8,325.3,385.5,325.7,385.5z"/>
	<path fill="#002FA7" d="M326.4,386.2v0.7h230.8v-1.4H326.4h-0.7C326.1,385.5,326.4,385.8,326.4,386.2z"/>
	<path fill="#002FA7" d="M325.7,385.5c-0.4,0-0.7,0.3-0.7,0.7v0.7v150.9h-9.4c-0.4,0-0.7,0.3-0.7,0.7s0.3,0.7,0.7,0.7h20.3
		c0.4,0,0.7-0.3,0.7-0.7s-0.3-0.7-0.7-0.7h-9.4V386.9v-0.7C326.4,385.8,326.1,385.5,325.7,385.5z"/>
	<polygon fill="#002FA7" points="269.7,392.1 269.7,392.8 270.3,392.1 	"/>
	<path fill="#002FA7" d="M270.1,391.3L270.1,391.3C270.1,391.3,270.1,391.3,270.1,391.3z"/>
	<path fill="#002FA7" d="M269.7,398.7v1c0,0.2-0.2,0.4-0.4,0.4c0,0,0,0,0,0c0.1,0,0.2,0,0.3-0.1l7.7-7.8h-1.2L269.7,398.7z"/>
	<path fill="#002FA7" d="M277.2,391.3L277.2,391.3C277.2,391.3,277.2,391.3,277.2,391.3z"/>
	<path fill="#002FA7" d="M276.1,399.4c-0.2,0.2-0.2,0.4,0,0.6c0.1,0.1,0.2,0.1,0.3,0.1s0.2,0,0.3-0.1l7.8-7.8h-1.2L276.1,399.4z"/>
	<path fill="#002FA7" d="M283.2,399.4c-0.2,0.2-0.2,0.4,0,0.6c0.1,0.1,0.2,0.1,0.3,0.1s0.2,0,0.3-0.1l7.8-7.8h-1.2L283.2,399.4z"/>
	<path fill="#002FA7" d="M290.3,399.4c-0.2,0.2-0.2,0.4,0,0.6c0.1,0.1,0.2,0.1,0.3,0.1s0.2,0,0.3-0.1l4.3-4.3v-1.2L290.3,399.4z"/>
	<path fill="#002FA7" d="M295.6,400.1c0.2,0,0.4-0.2,0.4-0.4v-7.9c0-0.2-0.2-0.4-0.4-0.4h-18.4h0h-7.1h0h-0.8
		c-0.2,0-0.4,0.2-0.4,0.4v7.9c0,0.2,0.2,0.4,0.4,0.4c0,0,0,0,0,0c0.2,0,0.4-0.2,0.4-0.4v-1v-5.9v-0.6h0.6h5.9h1.2h6h1.2h5.9h1.2h3.5
		v2.3v1.2v4C295.1,399.9,295.3,400.1,295.6,400.1z"/>
	<path fill="#002FA7" d="M275.1,373.1c0.2-0.2,0.2-0.4,0-0.6c-0.2-0.2-0.4-0.2-0.6,0l-4.9,4.9v1.2L275.1,373.1z"/>
	<path fill="#002FA7" d="M268.9,378.5L268.9,378.5C268.9,378.5,268.9,378.5,268.9,378.5z"/>
	<path fill="#002FA7" d="M282.2,373.1c0.2-0.2,0.2-0.4,0-0.6s-0.4-0.2-0.6,0l-7.7,7.7h1.2L282.2,373.1z"/>
	<path fill="#002FA7" d="M289.4,373.1c0.2-0.2,0.2-0.4,0-0.6c-0.2-0.2-0.4-0.2-0.6,0l-7.8,7.7h1.2L289.4,373.1z"/>
	<path fill="#002FA7" d="M296,373.4L296,373.4C296,373.4,296,373.4,296,373.4z"/>
	<polygon fill="#002FA7" points="295.1,374.4 295.1,373.3 288.1,380.3 289.3,380.3 	"/>
	<path fill="#002FA7" d="M268.9,378.5L268.9,378.5v2.2c0,0.2,0.2,0.4,0.4,0.4h26.3c0.2,0,0.4-0.2,0.4-0.4v-7.3v0v-0.6
		c0-0.2-0.2-0.4-0.4-0.4s-0.4,0.2-0.4,0.4v0.4v1.2v5.8h-5.9h-1.2h-5.9H281h-5.9h-1.2h-4.2v-1.6v-1.2v-4.6c0-0.2-0.2-0.4-0.4-0.4
		s-0.4,0.2-0.4,0.4V378.5z"/>
	<path fill="#002FA7" d="M557.2,446.4h1.4v-59.5h60.2c0.4,0,0.7-0.3,0.7-0.7s-0.3-0.7-0.7-0.7h-60.2V326h-0.7h-0.7v59.5v1.4V446.4z"
		/>
	<path fill="#002FA7" d="M547.7,446.4c-0.4,0-0.7,0.3-0.7,0.7s0.3,0.7,0.7,0.7H568c0.4,0,0.7-0.3,0.7-0.7s-0.3-0.7-0.7-0.7h-9.4
		h-1.4H547.7z"/>
	<path fill="#C0392B" d="M557.9,326h0.7h9.4c0.4,0,0.7-0.3,0.7-0.7s-0.3-0.7-0.7-0.7h-9.4v0.7C558.6,325.7,558.3,326,557.9,326z"/>
	<path fill="#C0392B" d="M557.2,325.3v-0.7h-9.4c-0.4,0-0.7,0.3-0.7,0.7s0.3,0.7,0.7,0.7h9.4h0.7C557.5,326,557.2,325.7,557.2,325.3
		z"/>
	<path fill="#002FA7" d="M592.7,373.1c0.2-0.2,0.2-0.4,0-0.6s-0.4-0.2-0.6,0l-3.7,3.7v1.2L592.7,373.1z"/>
	<path fill="#002FA7" d="M599.7,373.1c0.2-0.2,0.2-0.4,0-0.6s-0.4-0.2-0.6,0l-7.7,7.7h1.2L599.7,373.1z"/>
	<path fill="#002FA7" d="M606.9,373.1c0.2-0.2,0.2-0.4,0-0.6c-0.2-0.2-0.4-0.2-0.6,0l-7.8,7.7h1.2L606.9,373.1z"/>
	<path fill="#002FA7" d="M613.9,373.2v-0.4c0-0.1,0-0.2,0.1-0.3c0,0,0,0,0,0c-0.2-0.2-0.4-0.2-0.6,0l-7.8,7.7h1.2L613.9,373.2z"/>
	<polygon fill="#002FA7" points="613.8,380.3 613.9,380.3 613.9,379.1 612.7,380.3 	"/>
	<path fill="#002FA7" d="M588,372.4c-0.2,0-0.4,0.2-0.4,0.4v7.9c0,0.2,0.2,0.4,0.4,0.4h26.3c0.2,0,0.4-0.2,0.4-0.4v-7.9
		c0-0.2-0.2-0.4-0.4-0.4c-0.1,0-0.2,0-0.3,0.1c-0.1,0.1-0.1,0.2-0.1,0.3v0.4v5.8v1.2v0h0h-1.2h-5.9h-1.2h-5.9h-1.2h-5.9h-1.2h-3
		v-2.9v-1.2v-3.4C588.4,372.6,588.2,372.4,588,372.4z"/>
	<polygon fill="#002FA7" points="588.4,397.5 588.4,398.7 594.9,392.1 593.7,392.1 	"/>
	<path fill="#002FA7" d="M593.6,399.4c-0.2,0.2-0.2,0.4,0,0.6c0.1,0.1,0.2,0.1,0.3,0.1s0.2,0,0.3-0.1l7.8-7.8h-1.2L593.6,399.4z"/>
	<path fill="#002FA7" d="M600.7,399.4c-0.2,0.2-0.2,0.4,0,0.6c0.1,0.1,0.2,0.1,0.3,0.1s0.2,0,0.3-0.1l7.8-7.8h-1.2L600.7,399.4z"/>
	<path fill="#002FA7" d="M607.8,399.4c-0.2,0.2-0.2,0.4,0,0.6c0.1,0.1,0.2,0.1,0.3,0.1s0.2,0,0.3-0.1l5.5-5.5v-1.2L607.8,399.4z"/>
	<path fill="#002FA7" d="M614.3,400.1c0.2,0,0.4-0.2,0.4-0.4v-7.9c0-0.2-0.2-0.4-0.4-0.4H588c-0.2,0-0.4,0.2-0.4,0.4v7.9
		c0,0.2,0.2,0.4,0.4,0.4s0.4-0.2,0.4-0.4v-1v-1.2v-5.3h5.3h1.2h6h1.2h5.9h1.2h4.7v1.1v1.2v5.2C613.9,399.9,614,400.1,614.3,400.1z"
		/>
	<path fill="#C0392B" d="M557.9,326c0.4,0,0.7-0.3,0.7-0.7v-0.7V173.7h-0.7h-0.7v150.8v0.7C557.2,325.7,557.5,326,557.9,326z"/>
	<rect x="689.6" y="172.3" fill="#C0392B" width="67.3" height="1.4"/>
	<path fill="#C0392B" d="M557.9,173.7h0.7H678v-1.4H558.6v0.7C558.6,173.4,558.3,173.7,557.9,173.7z"/>
	<path fill="#C0392B" d="M557.2,173v-0.7H497c-0.4,0-0.7,0.3-0.7,0.7s0.3,0.7,0.7,0.7h60.2h0.7C557.5,173.7,557.2,173.4,557.2,173z"
		/>
	<path fill="#C0392B" d="M678,213.6c0,0.4,0.3,0.7,0.7,0.7s0.7-0.3,0.7-0.7v-81.2c0-0.4-0.3-0.7-0.7-0.7s-0.7,0.3-0.7,0.7v39.9v1.4
		V213.6z"/>
	<path fill="#C0392B" d="M557.9,173.7c0.4,0,0.7-0.3,0.7-0.7v-0.7V21.4h9.4c0.4,0,0.7-0.3,0.7-0.7S568.4,20,568,20h-20.3
		c-0.4,0-0.7,0.3-0.7,0.7s0.3,0.7,0.7,0.7h9.4v150.9v0.7C557.2,173.4,557.5,173.7,557.9,173.7z"/>
	<path fill="#C0392B" d="M689.6,132.4c0-0.4-0.3-0.7-0.7-0.7s-0.7,0.3-0.7,0.7v81.2c0,0.4,0.3,0.7,0.7,0.7s0.7-0.3,0.7-0.7v-39.8
		v-1.4V132.4z"/>
	<path d="M857.8,91.1H757.6c-0.4,0-0.7,0.3-0.7,0.7v80.5v1.4v80.5c0,0.4,0.3,0.7,0.7,0.7h100.3c0.4,0,0.7-0.3,0.7-0.7V91.8
		C858.5,91.4,858.2,91.1,857.8,91.1z M857.1,253.5h-98.8v-161h98.8V253.5z"/>
	<polygon fill="#C0392B" points="588.4,184.8 588.4,186 595.5,178.9 594.3,178.9 	"/>
	<path fill="#C0392B" d="M594.2,186.1c-0.2,0.2-0.2,0.4,0,0.6c0.1,0.1,0.2,0.1,0.3,0.1s0.2,0,0.3-0.1l7.8-7.8h-1.2L594.2,186.1z"/>
	<path fill="#C0392B" d="M601.3,186.1c-0.2,0.2-0.2,0.4,0,0.6c0.1,0.1,0.2,0.1,0.3,0.1s0.2,0,0.3-0.1l7.8-7.8h-1.2L601.3,186.1z"/>
	<path fill="#C0392B" d="M608.3,186.1c-0.2,0.2-0.2,0.4,0,0.6c0.1,0.1,0.2,0.1,0.3,0.1s0.2,0,0.3-0.1l4.9-4.9v-1.2L608.3,186.1z"/>
	<path fill="#C0392B" d="M614.7,178.5c0-0.2-0.2-0.4-0.4-0.4H588c-0.2,0-0.4,0.2-0.4,0.4v7.9c0,0.2,0.2,0.4,0.4,0.4s0.4-0.2,0.4-0.4
		V186v-1.2v-5.9h5.9h1.2h5.9h1.2h5.9h1.2h4.2v1.7v1.2v4.6c0,0.2,0.2,0.4,0.4,0.4s0.4-0.2,0.4-0.4V178.5z"/>
	<path fill="#C0392B" d="M593.2,159.9c0.2-0.2,0.2-0.4,0-0.6c-0.2-0.2-0.4-0.2-0.6,0l-4.2,4.3v1.2L593.2,159.9z"/>
	<path fill="#C0392B" d="M600.3,159.9c0.2-0.2,0.2-0.4,0-0.6s-0.4-0.2-0.6,0l-7.8,7.8h1.2L600.3,159.9z"/>
	<path fill="#C0392B" d="M607.4,159.9c0.2-0.2,0.2-0.4,0-0.6s-0.4-0.2-0.6,0l-7.8,7.8h1.2L607.4,159.9z"/>
	<path fill="#C0392B" d="M613.9,160.5v-1c0-0.2,0.2-0.4,0.4-0.4c-0.1,0-0.2,0-0.3,0.1l-7.8,7.8h1.2L613.9,160.5z"/>
	<polygon fill="#C0392B" points="613.9,167.1 613.9,166.4 613.2,167.1 	"/>
	<path fill="#C0392B" d="M588,167.9h26.3c0.2,0,0.4-0.2,0.4-0.4v-7.9c0-0.2-0.2-0.4-0.4-0.4c0,0,0,0,0,0c-0.2,0-0.4,0.2-0.4,0.4v1
		v5.9v0.7h-0.7h-5.9h-1.2h-5.9H599h-5.9H592h-3.5v-2.3v-1.2v-4c0-0.2-0.2-0.4-0.4-0.4s-0.4,0.2-0.4,0.4v7.9
		C587.6,167.7,587.8,167.9,588,167.9z"/>
	<path fill="#C0392B" d="M508.2,159.9c0.2-0.2,0.2-0.4,0-0.6s-0.4-0.2-0.6,0l-5.7,5.7v1.2L508.2,159.9z"/>
	<path fill="#C0392B" d="M515.3,159.9c0.2-0.2,0.2-0.4,0-0.6s-0.4-0.2-0.6,0l-7.8,7.8h1.2L515.3,159.9z"/>
	<path fill="#C0392B" d="M522.3,159.9c0.2-0.2,0.2-0.4,0-0.6s-0.4-0.2-0.6,0l-7.8,7.8h1.2L522.3,159.9z"/>
	<polygon fill="#C0392B" points="527.3,162 527.3,160.8 521,167.1 522.2,167.1 	"/>
	<path fill="#C0392B" d="M501.5,159.2c-0.2,0-0.4,0.2-0.4,0.4v7.9c0,0.2,0.2,0.4,0.4,0.4h26.3c0.2,0,0.4-0.2,0.4-0.4v-7.9
		c0-0.2-0.2-0.4-0.4-0.4s-0.4,0.2-0.4,0.4v1.2v1.2v5.1h-5.1H521h-5.9H514h-5.9h-1.2h-5v-0.9V165v-5.4
		C501.9,159.4,501.7,159.2,501.5,159.2z"/>
	<polygon fill="#C0392B" points="502.1,178.9 501.9,179.2 501.9,180.3 503.3,178.9 	"/>
	<path fill="#C0392B" d="M502,186.1c-0.1,0.1-0.1,0.2-0.1,0.3s0,0.2,0.1,0.3s0.2,0.1,0.3,0.1s0.2,0,0.3-0.1l7.8-7.8h-1.2L502,186.1z
		"/>
	<path fill="#C0392B" d="M509.1,186.1c-0.2,0.2-0.2,0.4,0,0.6c0.1,0.1,0.2,0.1,0.3,0.1s0.2,0,0.3-0.1l7.8-7.8h-1.2L509.1,186.1z"/>
	<path fill="#C0392B" d="M516.2,186.1c-0.2,0.2-0.2,0.4,0,0.6c0.1,0.1,0.2,0.1,0.3,0.1s0.2,0,0.3-0.1l7.8-7.8h-1.2L516.2,186.1z"/>
	<path fill="#C0392B" d="M523.3,186.1c-0.2,0.2-0.2,0.4,0,0.6c0.1,0.1,0.2,0.1,0.3,0.1c0.1,0,0.2,0,0.3-0.1l3.4-3.5V182L523.3,186.1
		z"/>
	<path fill="#C0392B" d="M527.8,186.8c0.2,0,0.4-0.2,0.4-0.4v-7.9c0-0.2-0.2-0.4-0.4-0.4h-26.3c-0.2,0-0.4,0.2-0.4,0.4v7.9
		c0,0.2,0.2,0.4,0.4,0.4s0.4-0.2,0.4-0.4v-6.1v-1.2v-0.2h0.2h1.2h5.9h1.2h5.9h1.2h5.9h1.2h2.8v3.1v1.2v3.2
		C527.3,186.6,527.5,186.8,527.8,186.8z"/>
	<path d="M86.8,626.1v100.1v0.7c0,0.4,0.3,0.7,0.7,0.7s0.7-0.3,0.7-0.7v-0.7v-654v-0.7c0-0.4-0.3-0.7-0.7-0.7s-0.7,0.3-0.7,0.7v0.7
		v201.7v1.4v349.4V626.1z"/>
	<path d="M147.8,71.4v0.7v654v0.7c0,0.4,0.3,0.7,0.7,0.7s0.7-0.3,0.7-0.7v-0.7V626.1v-1.4V275.3v-1.4V72.2v-0.7
		c0-0.4-0.3-0.7-0.7-0.7S147.8,71.1,147.8,71.4z"/>
	<path d="M102.5,690.4c-0.3,0.3-0.3,0.7,0,1c0.1,0.1,0.3,0.2,0.5,0.2s0.4-0.1,0.5-0.2l14.2-14.2l-1-1L102.5,690.4z"/>
	<path d="M133,660.9c-0.3-0.3-0.7-0.3-1,0l-14.2,14.2l1,1l14.2-14.2C133.3,661.7,133.3,661.2,133,660.9z"/>
	<path d="M103.5,660.9c-0.3-0.3-0.7-0.3-1,0s-0.3,0.7,0,1l14.2,14.2l1,1l14.2,14.2c0.1,0.1,0.3,0.2,0.5,0.2s0.4-0.1,0.5-0.2
		c0.3-0.3,0.3-0.7,0-1l-14.2-14.2l-1-1L103.5,660.9z"/>
	<path fill="#008272" d="M688.7,721.4c-0.1-0.3,0-0.5,0.2-0.7l0.6-0.6c-3.3-3.6-5.3-8.3-5.3-13.5c0-5.2,2-9.9,5.3-13.5l-0.5-0.5
		c-0.2-0.2-0.3-0.6-0.1-0.9c-3.8,3.9-6.1,9.1-6.1,14.9C682.7,712.3,685,717.6,688.7,721.4z"/>
	<path fill="#008272" d="M689.9,691.5l0.5,0.5c3.6-3.3,8.3-5.4,13.6-5.4c5.2,0,10,2,13.5,5.3l0.5-0.5c0.3-0.3,0.7-0.3,1,0
		s0.3,0.7,0,1l-0.5,0.5c3.3,3.6,5.3,8.3,5.3,13.5c0,5.2-2.1,10-5.4,13.6l0.5,0.5c0.3,0.3,0.3,0.6,0.1,0.9c3.7-3.7,6-8.7,6.2-14.3
		h-0.7c-0.4,0-0.7-0.3-0.7-0.7s0.3-0.7,0.7-0.7h0.7c-0.4-11.2-9.4-20.2-20.6-20.6v0.7c0,0.4-0.3,0.7-0.7,0.7s-0.7-0.3-0.7-0.7v-0.7
		c-5.6,0.2-10.6,2.5-14.3,6.2C689.3,691.3,689.6,691.3,689.9,691.5z"/>
	<path fill="#008272" d="M718,721.7l-0.5-0.5c-3.5,3.3-8.3,5.3-13.5,5.3c-5.2,0-10-2-13.5-5.3l-0.6,0.6c-0.1,0.1-0.3,0.2-0.5,0.2
		c-0.1,0-0.2,0-0.2,0c3.8,3.7,9.1,6,14.8,6c5.8,0,11.1-2.3,14.9-6.1c-0.1,0.1-0.3,0.1-0.4,0.1C718.4,721.9,718.2,721.8,718,721.7z"
		/>
	<path fill="#008272" d="M719.1,692.5c0.3-0.3,0.3-0.7,0-1s-0.7-0.3-1,0l-0.5,0.5L704,705.6l1,1l13.6-13.6L719.1,692.5z"/>
	<path fill="#008272" d="M689.9,721.7l0.6-0.6l13.5-13.5l-1-1l-13.5,13.5l-0.6,0.6c-0.2,0.2-0.3,0.5-0.2,0.7c0,0.1,0.1,0.2,0.2,0.3
		c0.1,0.1,0.2,0.1,0.3,0.2c0.1,0,0.2,0,0.2,0C689.6,721.9,689.8,721.8,689.9,721.7z"/>
	<path fill="#008272" d="M688.9,692.5l0.5,0.5l13.5,13.5l1,1l13.5,13.5l0.5,0.5c0.1,0.1,0.3,0.2,0.5,0.2c0.1,0,0.3-0.1,0.4-0.1
		c0,0,0.1,0,0.1-0.1c0,0,0-0.1,0.1-0.1c0.2-0.3,0.2-0.7-0.1-0.9l-0.5-0.5L705,706.6l-1-1l-13.5-13.5l-0.5-0.5
		c-0.3-0.3-0.6-0.3-0.9-0.1c0,0-0.1,0-0.1,0.1c0,0-0.1,0.1-0.1,0.1C688.6,691.9,688.6,692.3,688.9,692.5z"/>
	<path fill="#C0392B" d="M704,566.6c0.4,0,0.7,0.3,0.7,0.7v0h1.7l-2.4-14.5l-2.4,14.5h1.7v0C703.3,566.9,703.6,566.6,704,566.6z"/>
	<path fill="#C0392B" d="M704,686.7c0.4,0,0.7-0.3,0.7-0.7v-0.7v-118v0c0-0.4-0.3-0.7-0.7-0.7s-0.7,0.3-0.7,0.7v0v118v0.7
		C703.3,686.4,703.6,686.7,704,686.7z"/>
	<path fill="#002FA7" d="M844,706.6c0,0.4-0.3,0.7-0.7,0.7v1.7l14.5-2.4l-14.5-2.4v1.7C843.7,705.9,844,706.2,844,706.6z"/>
	<path fill="#002FA7" d="M723.9,706.6c0,0.4,0.3,0.7,0.7,0.7h0.7h118c0,0,0,0,0,0c0.4,0,0.7-0.3,0.7-0.7s-0.3-0.7-0.7-0.7
		c0,0,0,0,0,0h-118h-0.7C724.2,705.9,723.9,706.2,723.9,706.6z"/>
	<path fill="#008272" d="M673.3,699.3c-0.1-0.2-0.4-0.4-0.6-0.4h-10c-0.4,0-0.7,0.3-0.7,0.7s0.3,0.7,0.7,0.7h8.8l-9.4,17
		c-0.1,0.2-0.1,0.5,0,0.7c0.1,0.2,0.4,0.4,0.6,0.4h10c0.4,0,0.7-0.3,0.7-0.7s-0.3-0.7-0.7-0.7h-8.8l9.4-17
		C673.5,699.8,673.5,699.5,673.3,699.3z"/>
	<path fill="#C0392B" d="M728.2,575.3c0.4,0,0.7,0.3,0.7,0.7v0.2l5.9-8.8c0.2-0.3,0.1-0.8-0.2-1c-0.3-0.2-0.8-0.1-1,0.2l-5.4,8.1
		l-5.4-8.1c-0.2-0.3-0.7-0.4-1-0.2c-0.3,0.2-0.4,0.7-0.2,1l5.9,8.8V576C727.4,575.6,727.8,575.3,728.2,575.3z"/>
	<path fill="#C0392B" d="M728.2,585.7c0.4,0,0.7-0.3,0.7-0.7v-8.8V576c0-0.4-0.3-0.7-0.7-0.7s-0.7,0.3-0.7,0.7v0.2v8.8
		C727.4,585.4,727.8,585.7,728.2,585.7z"/>
	<path fill="#002FA7" d="M825,671.3c-0.2-0.3-0.7-0.4-1-0.2c-0.3,0.2-0.4,0.7-0.2,1l5.8,8.6l0.9-1.3L825,671.3z"/>
	<path fill="#002FA7" d="M835.9,690.2c0.1,0.2,0.4,0.3,0.6,0.3c0.1,0,0.3,0,0.4-0.1c0.3-0.2,0.4-0.7,0.2-1l-5.8-8.6l-0.9,1.3
		L835.9,690.2z"/>
	<path fill="#002FA7" d="M824,690.4c0.1,0.1,0.3,0.1,0.4,0.1c0.2,0,0.5-0.1,0.6-0.3l5.4-8.1l0.9-1.3l5.8-8.6c0.2-0.3,0.1-0.8-0.2-1
		c-0.3-0.2-0.8-0.1-1,0.2l-5.4,8.1l-0.9,1.3l-5.8,8.6C823.6,689.7,823.7,690.2,824,690.4z"/>
	<path d="M287.2,688.5c0.4,0,0.7-0.3,0.7-0.7v-11.9h4.9v-0.7c0-0.4,0.3-0.7,0.7-0.7h-6.4c-0.4,0-0.7,0.3-0.7,0.7v12.7
		C286.5,688.2,286.8,688.5,287.2,688.5z"/>
	<path d="M294.3,675.1v0.7h1.9c0.1,0,0.1,0,0.2,0c-0.1,0-0.1,0-0.2,0c-0.4,0-0.7-0.3-0.7-0.7c0-0.3,0.2-0.5,0.4-0.7h-2.4
		C294,674.4,294.3,674.7,294.3,675.1z"/>
	<path d="M295.5,675c0,0.4,0.3,0.7,0.7,0.7c0.1,0,0.1,0,0.2,0c1.6,0.1,2.8,1.4,2.8,3c0,0,0,0,0,0c0-0.4,0.3-0.7,0.7-0.7
		s0.7,0.3,0.7,0.7c0,0,0,0,0,0c0-2.4-2-4.4-4.4-4.4c-0.1,0-0.2,0-0.3,0.1C295.7,674.5,295.5,674.8,295.5,675z"/>
	<path d="M299.9,678c-0.4,0-0.7,0.3-0.7,0.7c0,0,0,0,0,0v9c0,0.4,0.3,0.7,0.7,0.7s0.7-0.3,0.7-0.7v-9c0,0,0,0,0,0
		C300.6,678.4,300.3,678,299.9,678z"/>
	<path d="M292.9,675.1v0.7v11.9c0,0.4,0.3,0.7,0.7,0.7s0.7-0.3,0.7-0.7v-11.9v-0.7c0-0.4-0.3-0.7-0.7-0.7S292.9,674.7,292.9,675.1z"
		/>
	<path d="M306.3,678.6c0.4,0,0.7,0.3,0.7,0.7c0,0,0,0,0,0c0-1.9,1.6-3.5,3.5-3.5s3.5,1.6,3.5,3.5c0,0,0,0,0,0c0-0.4,0.3-0.7,0.7-0.7
		s0.7,0.3,0.7,0.7c0,0,0,0,0,0c0-2.7-2.2-4.9-5-4.9s-5,2.2-5,4.9c0,0,0,0,0,0C305.6,678.9,305.9,678.6,306.3,678.6z"/>
	<path d="M315.5,683.6L315.5,683.6C315.5,683.6,315.5,683.6,315.5,683.6C315.5,683.6,315.5,683.6,315.5,683.6z"/>
	<path d="M314.8,678.6c-0.4,0-0.7,0.3-0.7,0.7c0,0,0,0,0,0v4.2c0-0.4,0.3-0.7,0.7-0.7s0.7,0.3,0.7,0.7v-4.2c0,0,0,0,0,0
		C315.5,678.9,315.1,678.6,314.8,678.6z"/>
	<path d="M314.8,682.8c-0.4,0-0.7,0.3-0.7,0.7c0,1.9-1.6,3.5-3.5,3.5s-3.5-1.6-3.5-3.5v0c0,0.4-0.3,0.7-0.7,0.7
		c-0.4,0-0.7-0.3-0.7-0.7c0,2.7,2.2,4.9,4.9,4.9s4.9-2.2,4.9-4.9c0,0,0,0,0-0.1C315.5,683.1,315.1,682.8,314.8,682.8z"/>
	<path d="M306.3,684.3c0.4,0,0.7-0.3,0.7-0.7v0v-4.2c0,0,0,0,0,0c0-0.4-0.3-0.7-0.7-0.7s-0.7,0.3-0.7,0.7c0,0,0,0,0,0v4.3
		c0,0,0,0,0,0C305.6,684,305.9,684.3,306.3,684.3z"/>
	<path d="M323.9,668.7c0-0.4-0.3-0.7-0.7-0.7s-0.7,0.3-0.7,0.7v5.6h1.4V668.7z"/>
	<path d="M322.5,687.8c0,0.4,0.3,0.7,0.7,0.7s0.7-0.3,0.7-0.7v-11.9h-1.4V687.8z"/>
	<path d="M321.1,675.8h1.4h1.4h3.5c0.4,0,0.7-0.3,0.7-0.7s-0.3-0.7-0.7-0.7h-3.5h-1.4h-1.4c-0.4,0-0.7,0.3-0.7,0.7
		S320.7,675.8,321.1,675.8z"/>
	<path d="M333.8,678.6c0.4,0,0.7,0.3,0.7,0.7c0,0,0,0,0,0c0-1.9,1.6-3.5,3.5-3.5s3.5,1.6,3.5,3.5c0,0,0,0,0,0c0-0.4,0.3-0.7,0.7-0.7
		s0.7,0.3,0.7,0.7c0,0,0,0,0,0c0-2.7-2.2-4.9-5-4.9s-5,2.2-5,4.9c0,0,0,0,0,0C333.1,678.9,333.4,678.6,333.8,678.6z"/>
	<path d="M343,683.6L343,683.6C343,683.6,342.9,683.6,343,683.6C342.9,683.6,343,683.6,343,683.6z"/>
	<path d="M342.2,678.6c-0.4,0-0.7,0.3-0.7,0.7c0,0,0,0,0,0v4.2c0-0.4,0.3-0.7,0.7-0.7s0.7,0.3,0.7,0.7v-4.2c0,0,0,0,0,0
		C342.9,678.9,342.6,678.6,342.2,678.6z"/>
	<path d="M342.2,682.8c-0.4,0-0.7,0.3-0.7,0.7c0,1.9-1.6,3.5-3.5,3.5s-3.5-1.6-3.5-3.5v0c0,0.4-0.3,0.7-0.7,0.7
		c-0.4,0-0.7-0.3-0.7-0.7c0,2.7,2.2,4.9,4.9,4.9s4.9-2.2,4.9-4.9c0,0,0,0,0-0.1C343,683.1,342.6,682.8,342.2,682.8z"/>
	<path d="M333.8,684.3c0.4,0,0.7-0.3,0.7-0.7v0v-4.2c0,0,0,0,0,0c0-0.4-0.3-0.7-0.7-0.7s-0.7,0.3-0.7,0.7c0,0,0,0,0,0v4.3
		c0,0,0,0,0,0C333.1,684,333.4,684.3,333.8,684.3z"/>
	<path d="M348.6,688.5c0.4,0,0.7-0.3,0.7-0.7v-11.9h4.9v1.4c0,0.4,0.3,0.7,0.7,0.7s0.7-0.3,0.7-0.7v-2.1c0-0.4-0.3-0.7-0.7-0.7h-6.3
		c-0.4,0-0.7,0.3-0.7,0.7v12.7C347.9,688.2,348.2,688.5,348.6,688.5z"/>
	<path fill="#002FA7" d="M415,371.7c0,0.4-0.3,0.7-0.7,0.7c-0.1,0-0.2,0-0.4,0c0.1,0.1,0.2,0.1,0.3,0.1h2.6c0.4,0,0.7-0.3,0.7-0.7
		s-0.3-0.7-0.7-0.7h-2.3C414.9,371.2,415,371.5,415,371.7z"/>
	<path fill="#002FA7" d="M410.6,368.8c-0.3,0-0.5-0.2-0.6-0.4c0.2,2.1,1.9,3.8,4,4c0.1,0,0.2,0,0.4,0c0.4,0,0.7-0.3,0.7-0.7
		c0-0.3-0.2-0.5-0.4-0.7c-0.1,0-0.2-0.1-0.3-0.1c-1.6,0-3-1.3-3-3c0-0.1,0-0.2-0.1-0.3v0.3C411.3,368.5,411,368.8,410.6,368.8z"/>
	<path fill="#002FA7" d="M410.6,363.5c-0.4,0-0.7-0.3-0.7-0.7c0-0.1,0-0.2,0-0.3c-0.1,0.1-0.1,0.2-0.1,0.3v5.3c0,0.1,0,0.2,0.1,0.3
		c0.1,0.2,0.4,0.4,0.6,0.4c0.4,0,0.7-0.3,0.7-0.7v-0.3v-4.7C411.2,363.3,410.9,363.5,410.6,363.5z"/>
	<path fill="#002FA7" d="M410.6,363.5c0.3,0,0.5-0.2,0.7-0.4c0-0.1,0.1-0.2,0.1-0.3c0-1.6,1.3-3,3-3h0c-0.4,0-0.7-0.3-0.7-0.7
		c0-0.4,0.3-0.7,0.7-0.7c-2.3,0-4.2,1.8-4.3,4.1c0,0.1,0,0.2,0,0.3C409.9,363.2,410.2,363.5,410.6,363.5z"/>
	<path fill="#002FA7" d="M413.6,359.1c0,0.4,0.3,0.7,0.7,0.7h0h2.6c0.4,0,0.7-0.3,0.7-0.7s-0.3-0.7-0.7-0.7h-2.6c0,0,0,0,0,0
		C413.9,358.4,413.6,358.7,413.6,359.1z"/>
	<path fill="#002FA7" d="M429.6,352.1C429.6,352.1,429.6,352.1,429.6,352.1c-0.3,0-0.6,0.2-0.7,0.5l-6.3,19
		c-0.1,0.4,0.1,0.8,0.5,0.9c0.1,0,0.2,0,0.2,0c0.3,0,0.6-0.2,0.7-0.5l1.6-4.8h-0.5c-0.4,0-0.7-0.3-0.7-0.7s0.3-0.7,0.7-0.7h0.9
		l3.6-10.7l3.6,10.7h0.9c0.4,0,0.7,0.3,0.7,0.7s-0.3,0.7-0.7,0.7h-0.4l1.6,4.8c0.1,0.4,0.5,0.6,0.9,0.5c0.4-0.1,0.6-0.5,0.5-0.9
		l-6.4-19C430.2,352.3,429.9,352.1,429.6,352.1z"/>
	<path fill="#002FA7" d="M434.8,366.5c0-0.4-0.3-0.7-0.7-0.7h-0.9H426h-0.9c-0.4,0-0.7,0.3-0.7,0.7s0.3,0.7,0.7,0.7h0.5h8.1h0.4
		C434.5,367.2,434.8,366.9,434.8,366.5z"/>
	<path fill="#002FA7" d="M451.2,358.5c-0.3-0.2-0.8-0.1-1,0.2l-3.6,5.5l0.9,1.3l4-6C451.6,359.2,451.5,358.7,451.2,358.5z"/>
	<path fill="#002FA7" d="M441.7,371.4c-0.2,0.3-0.1,0.8,0.2,1c0.1,0.1,0.3,0.1,0.4,0.1c0.2,0,0.5-0.1,0.6-0.3l3.6-5.5l-0.9-1.3
		L441.7,371.4z"/>
	<path fill="#002FA7" d="M442.9,358.7c-0.2-0.3-0.7-0.4-1-0.2c-0.3,0.2-0.4,0.7-0.2,1l4,6l0.9,1.3l3.6,5.5c0.1,0.2,0.4,0.3,0.6,0.3
		c0.1,0,0.3,0,0.4-0.1c0.3-0.2,0.4-0.7,0.2-1l-4-6l-0.9-1.3L442.9,358.7z"/>
	<path fill="#002FA7" d="M456.4,371.8c0,0.4,0.3,0.7,0.7,0.7s0.7-0.3,0.7-0.7v-12.7c0-0.4-0.3-0.7-0.7-0.7s-0.7,0.3-0.7,0.7V371.8z"
		/>
	<path fill="#002FA7" d="M457.1,354.5c0.4,0,0.7-0.3,0.7-0.7v-1c0-0.4-0.3-0.7-0.7-0.7s-0.7,0.3-0.7,0.7v1
		C456.4,354.2,456.7,354.5,457.1,354.5z"/>
	<path fill="#002FA7" d="M466.8,359.1c0,0.4-0.4,0.7-0.8,0.7c-0.1,0-0.1,0-0.2,0c0.1,0,0.2,0.1,0.2,0.1c1.5,0,3.1,0.4,4.5,1
		c0.1,0,0.2,0.1,0.3,0.1c0.3,0,0.5-0.2,0.7-0.4c0.2-0.4,0-0.8-0.4-0.9c-1.5-0.6-3.1-1-4.7-1.1C466.7,358.5,466.8,358.8,466.8,359.1z
		"/>
	<path fill="#002FA7" d="M465.9,359.8c0.1,0,0.1,0,0.2,0c0.4,0,0.7-0.3,0.8-0.7c0-0.3-0.1-0.5-0.4-0.7c-0.1,0-0.2-0.1-0.3-0.1
		c-1.5-0.1-2.9,0.9-3.4,2.4c-0.4,1.4,0.1,2.9,1.3,3.7c-0.2-0.2-0.2-0.5-0.1-0.8c0.2-0.4,0.6-0.5,1-0.3l0.1,0.1c0,0-0.1-0.1-0.1-0.1
		c-0.8-0.4-1.1-1.3-0.9-2.2C464.4,360.3,465.1,359.8,465.9,359.8z"/>
	<path fill="#002FA7" d="M464,363.6c-0.1,0.3-0.1,0.5,0.1,0.8c0.1,0.1,0.1,0.2,0.2,0.2l5.8,2.8c0,0,0.1,0,0.1,0c0,0,0,0-0.1,0
		c-0.4-0.2-0.5-0.6-0.3-1c0.2-0.3,0.5-0.4,0.8-0.4l-5.6-2.6l-0.1-0.1C464.6,363.1,464.2,363.3,464,363.6z"/>
	<path fill="#002FA7" d="M469.9,366.4c-0.2,0.4,0,0.8,0.3,1c0,0,0,0,0.1,0c0.8,0.4,1.2,1.3,1,2.1c-0.2,0.9-1,1.5-1.9,1.5
		c0,0,0,0-0.1,0c0.4,0,0.7,0.3,0.8,0.6c0,0.4-0.2,0.7-0.6,0.8c1.5,0,2.9-1.1,3.2-2.6c0.4-1.5-0.4-3.1-1.8-3.8c0,0-0.1,0-0.1,0
		C470.4,365.9,470,366.1,469.9,366.4z"/>
	<path fill="#002FA7" d="M470.1,371.7c0-0.4-0.4-0.7-0.8-0.6c0,0,0,0,0,0c-1.9,0.2-3.7-0.1-5.4-1c-0.4-0.2-0.8,0-1,0.3s0,0.8,0.3,1
		c1.6,0.8,3.3,1.2,5.1,1.2c0.4,0,0.8,0,1.2-0.1c0,0,0,0,0,0C469.8,372.4,470.1,372.1,470.1,371.7z"/>
	<path fill="#008272" d="M216.6,136c0,0.4,0.3,0.7,0.7,0.7s0.7-0.3,0.7-0.7v-12.7c0-0.4-0.3-0.7-0.7-0.7s-0.7,0.3-0.7,0.7V136z"/>
	<path fill="#008272" d="M217.3,118.8c0.4,0,0.7-0.3,0.7-0.7V117c0-0.4-0.3-0.7-0.7-0.7s-0.7,0.3-0.7,0.7v1.1
		C216.6,118.5,216.9,118.8,217.3,118.8z"/>
	<path fill="#008272" d="M223.7,136.7c0.3,0,0.6-0.2,0.7-0.5l1.6-4.8h-0.4c-0.4,0-0.7-0.3-0.7-0.7s0.3-0.7,0.7-0.7h0.9l3.6-10.7
		l3.6,10.7h0.9c0.4,0,0.7,0.3,0.7,0.7s-0.3,0.7-0.7,0.7H234l1.6,4.8c0.1,0.4,0.5,0.6,0.9,0.5c0.4-0.1,0.6-0.5,0.5-0.9l-6.4-19
		c-0.1-0.3-0.4-0.5-0.7-0.5c0,0,0,0,0,0c-0.3,0-0.6,0.2-0.7,0.5l-6.3,19c-0.1,0.4,0.1,0.8,0.5,0.9
		C223.5,136.7,223.6,136.7,223.7,136.7z"/>
	<path fill="#008272" d="M235.2,130.7c0-0.4-0.3-0.7-0.7-0.7h-0.9h-7.1h-0.9c-0.4,0-0.7,0.3-0.7,0.7s0.3,0.7,0.7,0.7h0.4h8.1h0.4
		C234.9,131.4,235.2,131.1,235.2,130.7z"/>
	<path fill="#008272" d="M251.7,123.7c0.2-0.3,0.1-0.8-0.2-1c-0.3-0.2-0.8-0.1-1,0.2l-3.6,5.4l0.9,1.3L251.7,123.7z"/>
	<path fill="#008272" d="M242.3,136.6c0.1,0.1,0.3,0.1,0.4,0.1c0.2,0,0.5-0.1,0.6-0.3l3.6-5.4l-0.9-1.3l-4,5.9
		C241.9,135.9,242,136.4,242.3,136.6z"/>
	<path fill="#008272" d="M250.6,136.4c0.1,0.2,0.4,0.3,0.6,0.3c0.1,0,0.3,0,0.4-0.1c0.3-0.2,0.4-0.7,0.2-1l-4-5.9l-0.9-1.3l-3.6-5.4
		c-0.2-0.3-0.7-0.4-1-0.2c-0.3,0.2-0.4,0.7-0.2,1l4,5.9l0.9,1.3L250.6,136.4z"/>
	<path fill="#008272" d="M256.8,136c0,0.4,0.3,0.7,0.7,0.7s0.7-0.3,0.7-0.7v-12.7c0-0.4-0.3-0.7-0.7-0.7s-0.7,0.3-0.7,0.7V136z"/>
	<path fill="#008272" d="M257.5,118.8c0.4,0,0.7-0.3,0.7-0.7V117c0-0.4-0.3-0.7-0.7-0.7s-0.7,0.3-0.7,0.7v1.1
		C256.8,118.5,257.1,118.8,257.5,118.8z"/>
	<path fill="#008272" d="M267.2,123.3c0,0.4-0.3,0.7-0.8,0.7c-0.1,0-0.1,0-0.2,0c0.1,0,0.2,0.1,0.2,0.1c1.6,0,3.1,0.4,4.5,1
		c0.1,0,0.2,0.1,0.3,0.1c0.3,0,0.5-0.2,0.7-0.4c0.2-0.4,0-0.8-0.4-0.9c-1.5-0.6-3.1-1-4.7-1.1C267.1,122.8,267.2,123,267.2,123.3z"
		/>
	<path fill="#008272" d="M266.2,124c0.1,0,0.1,0,0.2,0c0.4,0,0.7-0.3,0.8-0.7c0-0.3-0.1-0.5-0.4-0.7c-0.1,0-0.2-0.1-0.3-0.1
		c-1.5-0.1-2.9,0.9-3.4,2.4s0.2,3.1,1.5,3.8c0,0,0,0,0.1,0l0,0c-0.4-0.2-0.5-0.6-0.3-1c0.2-0.4,0.6-0.5,0.9-0.3
		c-0.7-0.4-1.1-1.3-0.8-2.1C264.8,124.6,265.5,124.1,266.2,124z"/>
	<path fill="#008272" d="M264.4,127.8c-0.2,0.4,0,0.8,0.3,1l0,0l5.8,2.8c0.1,0,0.2,0,0.2,0.1c-0.1,0-0.1-0.1-0.2-0.1
		c-0.4-0.2-0.5-0.6-0.3-1c0.1-0.3,0.4-0.4,0.6-0.4l-5.5-2.7c0,0,0,0,0,0C265,127.3,264.6,127.5,264.4,127.8z"/>
	<path fill="#008272" d="M270.3,130.6c-0.2,0.4,0,0.8,0.3,1c0.1,0,0.2,0.1,0.2,0.1c0.7,0.4,1,1.3,0.8,2c-0.2,0.9-1,1.5-1.9,1.5
		c0,0,0,0-0.1,0c0.4,0,0.7,0.3,0.8,0.6c0,0.4-0.2,0.7-0.6,0.8c1.5,0,2.9-1.1,3.2-2.6c0.4-1.5-0.4-3.1-1.8-3.8
		c-0.1-0.1-0.2-0.1-0.3-0.1C270.7,130.2,270.4,130.3,270.3,130.6z"/>
	<path fill="#008272" d="M270.4,135.9c0-0.4-0.4-0.7-0.8-0.6c0,0,0,0,0,0c-1.9,0.2-3.7-0.2-5.4-1c-0.4-0.2-0.8,0-1,0.3s0,0.8,0.3,1
		c1.6,0.8,3.3,1.2,5.1,1.2c0.4,0,0.8,0,1.2-0.1c0,0,0,0,0,0C270.2,136.6,270.5,136.3,270.4,135.9z"/>
	<path fill="#C0392B" d="M585.8,126.8c0.4,0,0.7,0.3,0.7,0.7c0,0,0,0,0,0c0-1.9,1.6-3.5,3.5-3.5s3.5,1.6,3.5,3.5c0,0,0,0,0,0
		c0-0.4,0.3-0.7,0.7-0.7s0.7,0.3,0.7,0.7c0,0,0,0,0,0c0-2.7-2.2-5-4.9-5s-5,2.2-5,5c0,0,0,0,0,0
		C585.1,127.1,585.4,126.8,585.8,126.8z"/>
	<path fill="#C0392B" d="M595,131.8L595,131.8C595,131.8,594.9,131.8,595,131.8C594.9,131.8,595,131.8,595,131.8z"/>
	<path fill="#C0392B" d="M594.2,126.8c-0.4,0-0.7,0.3-0.7,0.7c0,0,0,0,0,0v4.2c0-0.4,0.3-0.7,0.7-0.7s0.7,0.3,0.7,0.7v-4.2
		c0,0,0,0,0,0C594.9,127.1,594.6,126.8,594.2,126.8z"/>
	<path fill="#C0392B" d="M594.2,131.1c-0.4,0-0.7,0.3-0.7,0.7c0,1.9-1.6,3.5-3.5,3.5s-3.5-1.6-3.5-3.5v0c0,0.4-0.3,0.7-0.7,0.7
		c-0.4,0-0.7-0.3-0.7-0.7c0,2.7,2.2,4.9,4.9,4.9s4.9-2.2,4.9-4.9c0,0,0,0,0-0.1C595,131.4,594.6,131.1,594.2,131.1z"/>
	<path fill="#C0392B" d="M585.1,131.8C585.1,131.8,585.1,131.8,585.1,131.8c0,0.4,0.3,0.7,0.7,0.7c0.4,0,0.7-0.3,0.7-0.7v0v-4.2
		c0,0,0,0,0,0c0-0.4-0.3-0.7-0.7-0.7s-0.7,0.3-0.7,0.7c0,0,0,0,0,0V131.8z"/>
	<path fill="#C0392B" d="M600.4,136.7c0.1,0,0.2,0,0.2,0c0.3,0,0.6-0.2,0.7-0.5l1.6-4.8h-0.4c-0.4,0-0.7-0.3-0.7-0.7
		s0.3-0.7,0.7-0.7h0.9l3.6-10.7l3.6,10.7h0.9c0.4,0,0.7,0.3,0.7,0.7s-0.3,0.7-0.7,0.7H611l1.6,4.8c0.1,0.4,0.5,0.6,0.9,0.5
		c0.4-0.1,0.6-0.5,0.5-0.9l-6.3-19c-0.1-0.3-0.4-0.5-0.7-0.5h0c-0.3,0-0.6,0.2-0.7,0.5l-6.4,19C599.8,136.2,600,136.6,600.4,136.7z"
		/>
	<path fill="#C0392B" d="M612.1,130.7c0-0.4-0.3-0.7-0.7-0.7h-0.9h-7.1h-0.9c-0.4,0-0.7,0.3-0.7,0.7s0.3,0.7,0.7,0.7h0.4h8.1h0.4
		C611.8,131.4,612.1,131.1,612.1,130.7z"/>
	<path fill="#C0392B" d="M619,135.6c-0.2,0.3-0.1,0.8,0.2,1c0.1,0.1,0.3,0.1,0.4,0.1c0.2,0,0.5-0.1,0.6-0.3l3.6-5.4l-0.9-1.3
		L619,135.6z"/>
	<path fill="#C0392B" d="M624.7,129.7l4-5.9c0.2-0.3,0.1-0.8-0.2-1c-0.3-0.2-0.8-0.1-1,0.2l-3.6,5.4L624.7,129.7z"/>
	<path fill="#C0392B" d="M620.2,122.9c-0.2-0.3-0.7-0.4-1-0.2c-0.3,0.2-0.4,0.7-0.2,1l4,5.9l0.9,1.3l3.6,5.4
		c0.1,0.2,0.4,0.3,0.6,0.3c0.1,0,0.3,0,0.4-0.1c0.3-0.2,0.4-0.7,0.2-1l-4-5.9l-0.9-1.3L620.2,122.9z"/>
	<path fill="#C0392B" d="M634.4,122.6c-0.4,0-0.7,0.3-0.7,0.7V136c0,0.4,0.3,0.7,0.7,0.7s0.7-0.3,0.7-0.7v-12.7
		C635.2,123,634.8,122.6,634.4,122.6z"/>
	<path fill="#C0392B" d="M635.2,117c0-0.4-0.3-0.7-0.7-0.7s-0.7,0.3-0.7,0.7v1.1c0,0.4,0.3,0.7,0.7,0.7s0.7-0.3,0.7-0.7V117z"/>
	<path fill="#C0392B" d="M644.1,123.3c0,0.4-0.4,0.7-0.8,0.7c-0.1,0-0.1,0-0.2,0c0.1,0,0.2,0.1,0.2,0.1c1.6,0,3.1,0.4,4.5,1
		c0.1,0,0.2,0.1,0.3,0.1c0.3,0,0.5-0.2,0.7-0.4c0.2-0.4,0-0.8-0.4-0.9c-1.5-0.6-3.1-1-4.7-1.1C644,122.8,644.1,123,644.1,123.3z"/>
	<path fill="#C0392B" d="M644.1,123.3c0-0.3-0.1-0.5-0.4-0.7c-0.1,0-0.2-0.1-0.3-0.1c-1.6-0.1-2.9,0.9-3.4,2.4
		c-0.4,1.5,0.2,3.1,1.5,3.8c0,0,0,0,0.1,0l0,0c-0.4-0.2-0.5-0.6-0.3-1c0.2-0.4,0.6-0.5,0.9-0.3c-0.7-0.4-1.1-1.3-0.8-2.1
		c0.2-0.8,0.9-1.3,1.7-1.3c0.1,0,0.1,0,0.2,0C643.8,124,644.1,123.7,644.1,123.3z"/>
	<path fill="#C0392B" d="M641.3,127.8c-0.2,0.4,0,0.8,0.3,1l0,0l5.8,2.8c0.1,0,0.2,0,0.2,0.1c-0.1,0-0.1-0.1-0.2-0.1
		c-0.4-0.2-0.5-0.6-0.3-1c0.1-0.2,0.4-0.4,0.6-0.4l-5.5-2.7c0,0,0,0,0,0C641.9,127.3,641.5,127.5,641.3,127.8z"/>
	<path fill="#C0392B" d="M647.2,130.6c-0.2,0.4,0,0.8,0.3,1c0.1,0,0.2,0.1,0.2,0.1c0.7,0.4,1,1.3,0.8,2c-0.2,0.9-1,1.5-1.9,1.5
		c0,0,0,0-0.1,0c0.4,0,0.7,0.3,0.8,0.6c0,0.4-0.2,0.7-0.6,0.8c1.5,0,2.9-1.1,3.2-2.6c0.4-1.5-0.4-3.1-1.8-3.8
		c-0.1-0.1-0.2-0.1-0.3-0.1C647.6,130.2,647.3,130.3,647.2,130.6z"/>
	<path fill="#C0392B" d="M647.4,135.9c0-0.4-0.4-0.7-0.8-0.6c0,0,0,0,0,0c-1.9,0.2-3.7-0.2-5.4-1c-0.4-0.2-0.8,0-1,0.3s0,0.8,0.3,1
		c1.6,0.8,3.3,1.2,5.1,1.2c0.4,0,0.8,0,1.2-0.1c0,0,0,0,0,0C647.1,136.6,647.4,136.3,647.4,135.9z"/>
	<path d="M783,184.7c0,0.2,0.2,0.3,0.3,0.3c0.2,0,0.3-0.1,0.4-0.2l2.8-7.6l2.8,7.6c0.1,0.1,0.2,0.2,0.3,0.2c0,0,0,0,0,0
		c0.2,0,0.3-0.1,0.3-0.3l3.2-12.7c0-0.2-0.1-0.4-0.3-0.4c-0.2-0.1-0.4,0.1-0.4,0.3l-2.9,11.5l-2.8-7.4c-0.1-0.3-0.6-0.3-0.7,0
		l-2.8,7.4l-2.9-11.5c0-0.2-0.2-0.3-0.4-0.3c-0.2,0-0.3,0.2-0.3,0.4L783,184.7z"/>
	<path d="M799.2,175.8c0.2,0,0.4,0.2,0.4,0.4v0.2c0-0.1,0.1-0.1,0.1-0.2c0-2.1,1.7-3.9,3.9-3.9c2.1,0,3.8,1.7,3.9,3.7
		c0.1-0.1,0.2-0.2,0.3-0.2c0.2,0,0.4,0.2,0.4,0.4v0.2c0-0.1,0.1-0.1,0.1-0.2c0-2.5-2.1-4.6-4.6-4.6c-2.5,0-4.5,2-4.6,4.4
		C799,175.8,799.1,175.8,799.2,175.8z"/>
	<path d="M807.7,175.8c-0.1,0-0.3,0.1-0.3,0.2c0,0.1,0,0.1,0,0.2v4.3c0,0.1,0,0.1,0,0.2c0-0.1,0-0.1,0-0.2c0-0.2,0.2-0.4,0.4-0.4
		c0.1,0,0.2,0.1,0.3,0.2v-3.9v-0.2C808,175.9,807.8,175.8,807.7,175.8z"/>
	<path d="M807.7,180c-0.2,0-0.4,0.2-0.4,0.4c0,0.1,0,0.1,0,0.2c-0.1,2-1.8,3.7-3.9,3.7c-2.1,0-3.9-1.7-3.9-3.9c0-0.1,0-0.1-0.1-0.2
		v0.2c0,0.2-0.2,0.4-0.4,0.4c-0.1,0-0.2-0.1-0.3-0.1c0.1,2.4,2.1,4.3,4.6,4.3c2.5,0,4.6-2.1,4.6-4.6c0-0.1,0-0.1-0.1-0.2
		C807.9,180.1,807.8,180,807.7,180z"/>
	<path d="M799.2,180.8c0.2,0,0.4-0.2,0.4-0.4v-0.2v-3.9v-0.2c0-0.2-0.2-0.4-0.4-0.4c-0.1,0-0.2,0.1-0.3,0.1c0,0.1-0.1,0.1-0.1,0.2
		v4.3c0,0.1,0,0.2,0.1,0.2C799,180.7,799.1,180.8,799.2,180.8z"/>
	<path d="M814,185c0.2,0,0.4-0.2,0.4-0.4v-12.3h5.6v1.7c0,0.2,0.2,0.4,0.4,0.4s0.4-0.2,0.4-0.4v-2.1c0-0.2-0.2-0.4-0.4-0.4H814
		c-0.2,0-0.4,0.2-0.4,0.4v12.7C813.7,184.8,813.8,185,814,185z"/>
	<path d="M826.7,185c0.2,0,0.4-0.2,0.4-0.4v-6.1l-0.2,0.1c-0.1,0-0.1,0-0.2,0c-0.1,0-0.3-0.1-0.3-0.2c-0.1-0.2,0-0.4,0.2-0.5
		l0.5-0.3v-12.1c0-0.2-0.2-0.4-0.4-0.4s-0.4,0.2-0.4,0.4v19C826.4,184.8,826.5,185,826.7,185z"/>
	<path d="M831.3,176l0.2,0.4l3.9-2c0.2-0.1,0.2-0.3,0.2-0.5s-0.3-0.2-0.5-0.2l-4.1,2.1C831.1,175.8,831.2,175.9,831.3,176z"/>
	<path d="M826.4,178.5c0.1,0.1,0.2,0.2,0.3,0.2c0.1,0,0.1,0,0.2,0l0.2-0.1l3.7-1.9l-0.2-0.4c-0.1-0.1,0-0.3,0-0.4l-3.6,1.8l-0.5,0.3
		C826.4,178.1,826.3,178.3,826.4,178.5z"/>
	<path d="M830.6,176.3l0.2,0.4l4.1,8.1c0.1,0.1,0.2,0.2,0.3,0.2c0.1,0,0.1,0,0.2,0c0.2-0.1,0.2-0.3,0.2-0.5l-4.1-8.1l-0.2-0.4
		c-0.1-0.1-0.2-0.2-0.3-0.2c-0.1,0-0.1,0-0.2,0c-0.1,0-0.1,0.1-0.1,0.1C830.6,176,830.5,176.2,830.6,176.3z"/>
	<path d="M79.2,751.4c0,0.2-0.2,0.3-0.4,0.3c0,0,0,0,0,0c1.6,0,3.2,0.4,4.6,1c0,0,0.1,0,0.1,0c0.1,0,0.3-0.1,0.3-0.2
		c0.1-0.2,0-0.4-0.2-0.5c-1.5-0.7-3.2-1-4.9-1.1C79.1,751.1,79.2,751.3,79.2,751.4z"/>
	<path d="M77.1,756.1c0.1-0.2,0.3-0.2,0.4-0.2c-0.9-0.5-1.3-1.6-1-2.6c0.3-1,1.2-1.7,2.3-1.6c0,0,0,0,0,0c0.2,0,0.4-0.1,0.4-0.3
		c0-0.2-0.1-0.4-0.3-0.4c0,0,0,0,0,0c-1.4-0.1-2.6,0.8-3,2.1c-0.4,1.3,0.2,2.7,1.4,3.4c0,0,0.1,0,0.1,0l0,0
		C77.1,756.5,77,756.3,77.1,756.1z"/>
	<path d="M83,758.9c0.1-0.1,0.1-0.2,0.2-0.2l-5.6-2.7c0,0,0,0,0,0c-0.2-0.1-0.4,0-0.4,0.2c-0.1,0.2,0,0.4,0.2,0.5l0,0l5.8,2.8
		c0.1,0,0.1,0,0.2,0c0,0,0,0,0,0c-0.1,0-0.1-0.1-0.2-0.1C83,759.3,82.9,759,83,758.9z"/>
	<path d="M82.1,763.7C82.1,763.7,82.1,763.7,82.1,763.7c0.2,0,0.3,0.1,0.3,0.3c0,0.2-0.1,0.4-0.3,0.4c1.4,0,2.6-1,2.9-2.3
		c0.3-1.4-0.3-2.8-1.6-3.4c-0.1,0-0.2,0-0.2,0c-0.1,0-0.2,0.1-0.2,0.2c-0.1,0.2,0,0.4,0.2,0.5c0.1,0,0.1,0.1,0.2,0.1
		c0.8,0.5,1.3,1.5,1,2.5C84.1,763,83.2,763.7,82.1,763.7z"/>
	<path d="M82.5,764.1c0-0.2-0.2-0.3-0.4-0.3c0,0,0,0,0,0c-1.9,0.2-3.9-0.2-5.6-1c-0.2-0.1-0.4,0-0.5,0.2c-0.1,0.2,0,0.4,0.2,0.5
		c1.5,0.8,3.2,1.2,4.9,1.2c0.4,0,0.7,0,1.1-0.1c0,0,0,0,0,0C82.3,764.4,82.5,764.2,82.5,764.1z"/>
	<path d="M107.6,745l-3.9,17.8l-3.8-11.4c0-0.1-0.2-0.2-0.3-0.2c0,0,0,0,0,0c-0.2,0-0.3,0.1-0.3,0.2l-3.8,11.4l-4-17.8
		c0-0.2-0.2-0.3-0.4-0.3c-0.2,0-0.3,0.2-0.3,0.4l4.3,19c0,0.2,0.2,0.3,0.3,0.3c0,0,0,0,0,0c0.2,0,0.3-0.1,0.3-0.2l3.9-11.6l3.9,11.6
		c0.1,0.2,0.2,0.3,0.4,0.2c0.2,0,0.3-0.1,0.3-0.3l4.2-19c0-0.2-0.1-0.4-0.3-0.4C107.9,744.7,107.7,744.8,107.6,745z"/>
	<path d="M114,751.4v12.7c0,0.2,0.2,0.4,0.4,0.4s0.4-0.2,0.4-0.4v-12.3h-0.4C114.2,751.8,114,751.6,114,751.4z"/>
	<path d="M114.4,751.1h0.4v-6c0-0.2-0.2-0.4-0.4-0.4s-0.4,0.2-0.4,0.4v6.4C114,751.2,114.2,751.1,114.4,751.1z"/>
	<path d="M118.8,751.4c0-0.1,0.1-0.2,0.2-0.3h-4.2h-0.4c-0.2,0-0.4,0.2-0.4,0.4s0.2,0.4,0.4,0.4h0.4h4.4c0.1,0,0.1,0,0.2,0
		c0,0-0.1,0-0.1,0C118.9,751.7,118.8,751.6,118.8,751.4z"/>
	<path d="M119.1,751c-0.1,0-0.1,0-0.2,0.1c-0.1,0.1-0.2,0.2-0.2,0.3c0,0.2,0.2,0.4,0.4,0.4c0,0,0.1,0,0.1,0c1.8,0.1,3.2,1.5,3.2,3.3
		c0,0,0,0,0,0c0-0.2,0.2-0.3,0.4-0.3s0.3,0.2,0.4,0.3c0,0,0,0,0,0C123.2,752.8,121.4,751,119.1,751z"/>
	<path d="M122.8,754.7c-0.2,0-0.3,0.2-0.4,0.3c0,0,0,0,0,0v9c0,0.2,0.2,0.4,0.4,0.4s0.4-0.2,0.4-0.4v-9c0,0,0,0,0,0
		C123.2,754.9,123,754.7,122.8,754.7z"/>
	<path d="M132.7,764c0,0.2-0.2,0.4-0.4,0.4c-0.1,0-0.2,0-0.3,0c0.1,0.1,0.1,0.1,0.2,0.1h5.3c0.2,0,0.4-0.2,0.4-0.4s-0.2-0.4-0.4-0.4
		h-5.1C132.7,763.8,132.7,763.9,132.7,764z"/>
	<path d="M129.2,761.3c-0.1,0-0.2-0.1-0.3-0.1c0.1,1.7,1.5,3.1,3.2,3.2c0.1,0,0.2,0,0.3,0c0.2,0,0.4-0.2,0.4-0.4
		c0-0.1-0.1-0.2-0.2-0.3c-0.1,0-0.1-0.1-0.2-0.1c-1.5,0-2.8-1.3-2.8-2.8c0-0.1,0-0.1-0.1-0.2v0.2
		C129.5,761.1,129.4,761.3,129.2,761.3z"/>
	<path d="M128.8,757.8v3.1c0,0.1,0,0.2,0.1,0.2c0.1,0.1,0.2,0.1,0.3,0.1c0.2,0,0.4-0.2,0.4-0.4v-0.2v-2.5h-0.4
		C129,758.1,128.8,758,128.8,757.8z"/>
	<path d="M129.2,757.4h0.4v-1.8c0,0,0,0,0,0c0,0.2-0.2,0.3-0.4,0.3s-0.3-0.2-0.4-0.3c0,0,0,0,0,0v2.2
		C128.8,757.6,129,757.4,129.2,757.4z"/>
	<path d="M133.4,751c-2.5,0-4.6,2.1-4.6,4.6c0,0,0,0,0,0c0,0.2,0.2,0.3,0.4,0.3s0.3-0.2,0.4-0.3c0,0,0,0,0,0c0-2.1,1.7-3.9,3.9-3.9
		s3.9,1.7,3.9,3.9c0,0,0,0,0,0c0-0.2,0.2-0.3,0.4-0.3s0.3,0.2,0.4,0.3c0,0,0,0,0,0C138,753.1,135.9,751,133.4,751z"/>
	<path d="M137.6,755.3c-0.2,0-0.3,0.2-0.4,0.3c0,0,0,0,0,0v1.8h-7.7h-0.4c-0.2,0-0.4,0.2-0.4,0.4s0.2,0.4,0.4,0.4h0.4h8.1
		c0.2,0,0.4-0.2,0.4-0.4v-2.2c0,0,0,0,0,0C138,755.4,137.8,755.3,137.6,755.3z"/>
	<path d="M147.5,764c0,0.2-0.2,0.4-0.4,0.4c-0.1,0-0.2,0-0.3,0c0.1,0.1,0.1,0.1,0.2,0.1h5.3c0.2,0,0.4-0.2,0.4-0.4s-0.2-0.4-0.4-0.4
		h-5.1C147.4,763.8,147.5,763.9,147.5,764z"/>
	<path d="M143.9,761.3c-0.1,0-0.2-0.1-0.3-0.1c0.1,1.7,1.5,3.1,3.2,3.2c0.1,0,0.2,0,0.3,0c0.2,0,0.4-0.2,0.4-0.4
		c0-0.1-0.1-0.2-0.2-0.3c-0.1,0-0.1-0.1-0.2-0.1c-1.5,0-2.8-1.3-2.8-2.8c0-0.1,0-0.1-0.1-0.2v0.2
		C144.3,761.1,144.1,761.3,143.9,761.3z"/>
	<path d="M143.9,758.1c-0.2,0-0.4-0.2-0.4-0.4v3.1c0,0.1,0,0.2,0.1,0.2c0.1,0.1,0.2,0.1,0.3,0.1c0.2,0,0.4-0.2,0.4-0.4v-0.2v-2.5
		H143.9z"/>
	<path d="M143.9,757.4h0.4v-1.6c-0.1,0.1-0.2,0.2-0.3,0.2c-0.2,0-0.4-0.2-0.4-0.4c0-0.1,0-0.1,0-0.2c0,0.1-0.1,0.1-0.1,0.2v2.2
		C143.6,757.6,143.7,757.4,143.9,757.4z"/>
	<path d="M144,756c0.1,0,0.2-0.1,0.3-0.2c0-0.1,0.1-0.1,0.1-0.2c0-2.1,1.7-3.9,3.9-3.9c2.1,0,3.8,1.7,3.9,3.7
		c0.1-0.1,0.2-0.2,0.3-0.2c0.2,0,0.4,0.2,0.4,0.4v0.2c0-0.1,0.1-0.1,0.1-0.2c0-2.5-2.1-4.6-4.6-4.6c-2.5,0-4.5,2-4.6,4.4
		c0,0.1,0,0.1,0,0.2C143.6,755.8,143.8,756,144,756z"/>
	<path d="M143.9,758.1h0.4h8.1c0.2,0,0.4-0.2,0.4-0.4v-2v-0.2c0-0.2-0.2-0.4-0.4-0.4c-0.1,0-0.3,0.1-0.3,0.2c0,0.1,0,0.1,0,0.2v1.8
		h-7.7h-0.4c-0.2,0-0.4,0.2-0.4,0.4S143.7,758.1,143.9,758.1z"/>
	<path d="M158.8,762.3c-0.2,0-0.3-0.1-0.4-0.3c0,1.3,1.1,2.4,2.5,2.4c0.2,0,0.4-0.2,0.4-0.4s-0.2-0.4-0.4-0.4c-1,0-1.8-0.8-1.8-1.8
		v0C159.1,762.2,158.9,762.3,158.8,762.3z"/>
	<path d="M158.8,744.7c-0.2,0-0.4,0.2-0.4,0.4V762c0,0,0,0,0,0c0,0.2,0.2,0.3,0.4,0.3c0.2,0,0.4-0.2,0.4-0.4v0v-16.9
		C159.1,744.9,158.9,744.7,158.8,744.7z"/>
	<path d="M78.2,36.9c-0.2,0-0.4,0.2-0.4,0.4v6.4c0-0.2,0.2-0.4,0.4-0.4h0.4v-6C78.5,37,78.4,36.9,78.2,36.9z"/>
	<path d="M82.6,56.3c0-0.1,0.1-0.2,0.2-0.3h-4.2V44h-0.4c-0.2,0-0.4-0.2-0.4-0.4v12.7c0,0.2,0.2,0.4,0.4,0.4h4.7
		c0.1,0,0.2,0,0.2-0.1c-0.1,0-0.1,0-0.2,0C82.7,56.6,82.6,56.5,82.6,56.3z"/>
	<path d="M86.6,53c-0.2,0-0.4-0.2-0.4-0.4v0c0,1.8-1.5,3.3-3.3,3.3c-0.1,0-0.1,0-0.2,0.1c-0.1,0.1-0.2,0.2-0.2,0.3
		c0,0.2,0.2,0.4,0.4,0.4c0.1,0,0.1,0,0.2,0c2.1-0.1,3.8-1.8,3.9-4C87,52.8,86.8,53,86.6,53z"/>
	<path d="M86.6,47.7c-0.2,0-0.3-0.2-0.4-0.3c0,0,0,0,0,0v5.2v0c0,0.2,0.2,0.4,0.4,0.4c0.2,0,0.3-0.1,0.4-0.3c0,0,0,0,0,0v-5.3
		c0,0,0,0,0,0C87,47.5,86.8,47.7,86.6,47.7z"/>
	<path d="M83.3,43.6c0,0.2-0.2,0.3-0.3,0.4c0,0,0,0,0,0c1.8,0,3.3,1.5,3.3,3.3c0,0,0,0,0,0c0,0.2,0.2,0.3,0.4,0.3s0.3-0.2,0.4-0.3
		c0,0,0,0,0,0c0-2.2-1.8-4.1-4-4.1c0,0,0,0,0,0C83.1,43.3,83.3,43.4,83.3,43.6z"/>
	<path d="M77.8,43.6c0,0.2,0.2,0.4,0.4,0.4h0.4h4.4c0,0,0,0,0,0c0.2,0,0.3-0.2,0.3-0.4s-0.2-0.3-0.3-0.4c0,0,0,0,0,0h-4.4h-0.4
		C78,43.2,77.8,43.4,77.8,43.6z"/>
	<path d="M97.2,56.7c0.2,0,0.3-0.1,0.4-0.2l3.9-11.7l3.9,11.7c0,0.1,0.2,0.2,0.3,0.2c0,0,0,0,0,0c0.2,0,0.3-0.1,0.3-0.3l4.3-19.1
		c0-0.2-0.1-0.4-0.3-0.4c-0.2,0-0.4,0.1-0.4,0.3l-4,17.8l-3.8-11.5c0-0.1-0.2-0.2-0.3-0.2c-0.2,0-0.3,0.1-0.3,0.2L97.3,55l-3.9-17.8
		c0-0.2-0.2-0.3-0.4-0.3c-0.2,0-0.3,0.2-0.3,0.4l4.2,19.1C96.9,56.6,97,56.7,97.2,56.7z"/>
	<path d="M116.2,36.9c-0.2,0-0.4,0.2-0.4,0.4v6.4c0-0.2,0.2-0.4,0.4-0.4h0.4v-6C116.6,37,116.4,36.9,116.2,36.9z"/>
	<path d="M115.9,43.6v12.7c0,0.2,0.2,0.4,0.4,0.4s0.4-0.2,0.4-0.4V44h-0.4C116,44,115.9,43.8,115.9,43.6z"/>
	<path d="M115.9,43.6c0,0.2,0.2,0.4,0.4,0.4h0.4h4.4c0,0,0,0,0,0c-0.2,0-0.3-0.2-0.3-0.4s0.2-0.3,0.3-0.4c0,0,0,0,0,0h-4.4h-0.4
		C116,43.2,115.9,43.4,115.9,43.6z"/>
	<path d="M120.7,43.6c0,0.2,0.2,0.3,0.3,0.4c0,0,0,0,0,0c1.8,0,3.2,1.4,3.3,3.2c0.1-0.1,0.2-0.2,0.3-0.2c0.2,0,0.4,0.2,0.4,0.4v0.2
		c0-0.1,0.1-0.1,0.1-0.2c0-2.2-1.8-4.1-4-4.1c0,0,0,0,0,0C120.8,43.3,120.7,43.4,120.7,43.6z"/>
	<path d="M124.7,47c-0.1,0-0.3,0.1-0.3,0.2c0,0.1,0,0.1,0,0.2v9c0,0.2,0.2,0.4,0.4,0.4s0.4-0.2,0.4-0.4v-8.8v-0.2
		C125,47.1,124.9,47,124.7,47z"/>
	<path d="M134.6,56.3c0,0.2-0.2,0.4-0.4,0.4c-0.1,0-0.2,0-0.3,0c0.1,0.1,0.1,0.1,0.2,0.1h5.3c0.2,0,0.4-0.2,0.4-0.4
		s-0.2-0.4-0.4-0.4h-5.1C134.5,56,134.6,56.1,134.6,56.3z"/>
	<path d="M131,53.5c-0.1,0-0.2-0.1-0.3-0.1c0.1,1.7,1.5,3.1,3.2,3.2c0.1,0,0.2,0,0.3,0c0.2,0,0.4-0.2,0.4-0.4c0-0.1-0.1-0.2-0.2-0.3
		c-0.1,0-0.1-0.1-0.2-0.1c-1.5,0-2.8-1.3-2.8-2.8c0-0.1,0-0.1-0.1-0.2v0.2C131.4,53.3,131.2,53.5,131,53.5z"/>
	<path d="M131,49.6h0.4V48c-0.1,0.1-0.2,0.2-0.3,0.2c-0.2,0-0.4-0.2-0.4-0.4c0-0.1,0-0.1,0-0.2c0,0.1-0.1,0.1-0.1,0.2V50
		C130.7,49.8,130.8,49.6,131,49.6z"/>
	<path d="M131,50.3c-0.2,0-0.4-0.2-0.4-0.4v3.2c0,0.1,0,0.2,0.1,0.2c0.1,0.1,0.2,0.1,0.3,0.1c0.2,0,0.4-0.2,0.4-0.4v-0.2v-2.6H131z"
		/>
	<path d="M131.1,48.2c0.1,0,0.2-0.1,0.3-0.2c0-0.1,0.1-0.1,0.1-0.2c0-2.1,1.7-3.9,3.9-3.9c2.1,0,3.8,1.7,3.9,3.7
		c0.1-0.1,0.2-0.2,0.3-0.2c0.2,0,0.4,0.2,0.4,0.4V48c0-0.1,0.1-0.1,0.1-0.2c0-2.5-2.1-4.6-4.6-4.6c-2.5,0-4.5,2-4.6,4.4
		c0,0.1,0,0.1,0,0.2C130.7,48,130.9,48.2,131.1,48.2z"/>
	<path d="M131,50.3h0.4h8.1c0.2,0,0.4-0.2,0.4-0.4V48v-0.2c0-0.2-0.2-0.4-0.4-0.4c-0.1,0-0.3,0.1-0.3,0.2c0,0.1,0,0.1,0,0.2v1.7
		h-7.7H131c-0.2,0-0.4,0.2-0.4,0.4S130.8,50.3,131,50.3z"/>
	<path d="M149.4,56.3c0,0.2-0.2,0.4-0.4,0.4c-0.1,0-0.2,0-0.3,0c0.1,0.1,0.1,0.1,0.2,0.1h5.3c0.2,0,0.4-0.2,0.4-0.4
		s-0.2-0.4-0.4-0.4h-5.1C149.3,56,149.4,56.1,149.4,56.3z"/>
	<path d="M145.9,53.5c-0.1,0-0.2-0.1-0.3-0.1c0.1,1.7,1.5,3.1,3.2,3.2c0.1,0,0.2,0,0.3,0c0.2,0,0.4-0.2,0.4-0.4
		c0-0.1-0.1-0.2-0.2-0.3c-0.1,0-0.1-0.1-0.2-0.1c-1.5,0-2.8-1.3-2.8-2.8c0-0.1,0-0.1-0.1-0.2v0.2C146.2,53.3,146,53.5,145.9,53.5z"
		/>
	<path d="M145.5,50c0-0.2,0.2-0.4,0.4-0.4h0.4v-1.7c0,0,0,0,0,0c0,0.2-0.2,0.3-0.4,0.3s-0.3-0.2-0.4-0.3c0,0,0,0,0,0V50z"/>
	<path d="M145.5,50v3.2c0,0.1,0,0.2,0.1,0.2c0.1,0.1,0.2,0.1,0.3,0.1c0.2,0,0.4-0.2,0.4-0.4v-0.2v-2.6h-0.4
		C145.7,50.3,145.5,50.2,145.5,50z"/>
	<path d="M145.9,48.2c0.2,0,0.3-0.2,0.4-0.3c0,0,0,0,0,0c0-2.1,1.7-3.9,3.9-3.9s3.9,1.7,3.9,3.9c0,0,0,0,0,0c0-0.2,0.2-0.3,0.4-0.3
		s0.3,0.2,0.4,0.3c0,0,0,0,0,0c0-2.5-2.1-4.6-4.6-4.6s-4.6,2.1-4.6,4.6c0,0,0,0,0,0C145.5,48,145.7,48.2,145.9,48.2z"/>
	<path d="M154.3,47.5c-0.2,0-0.3,0.2-0.4,0.3c0,0,0,0,0,0v1.7h-7.7h-0.4c-0.2,0-0.4,0.2-0.4,0.4s0.2,0.4,0.4,0.4h0.4h8.1
		c0.2,0,0.4-0.2,0.4-0.4v-2.1c0,0,0,0,0,0C154.7,47.7,154.5,47.5,154.3,47.5z"/>
	<path d="M160.7,54.5c-0.2,0-0.3-0.1-0.4-0.3c0,1.3,1.1,2.4,2.5,2.4c0.2,0,0.4-0.2,0.4-0.4s-0.2-0.4-0.4-0.4c-1,0-1.8-0.8-1.8-1.8v0
		C161,54.4,160.9,54.5,160.7,54.5z"/>
	<path d="M160.7,36.9c-0.2,0-0.4,0.2-0.4,0.4v16.9c0,0,0,0,0,0c0,0.2,0.2,0.3,0.4,0.3c0.2,0,0.4-0.2,0.4-0.4v0V37.2
		C161,37,160.9,36.9,160.7,36.9z"/>
	<path d="M100.4,452.6c-0.2-0.1-0.4,0-0.5,0.2l-3.1,9.1l-3-9.1c-0.1-0.2-0.3-0.3-0.5-0.2c-0.2,0.1-0.3,0.3-0.2,0.5l3.4,10.1
		c0,0.1,0.2,0.2,0.3,0.2c0,0,0,0,0,0c0.2,0,0.3-0.1,0.3-0.2l3.4-10.1C100.7,452.9,100.6,452.7,100.4,452.6z"/>
	<path d="M109.2,463c0-0.1,0.1-0.2,0.2-0.3h-3.7v0.4c0,0.2-0.2,0.4-0.4,0.4h4.3c0.1,0,0.2,0,0.2-0.1c-0.1,0-0.1,0-0.2,0
		C109.4,463.4,109.2,463.2,109.2,463z"/>
	<path d="M109.7,454.9c2.1,0.1,3.7,1.8,3.7,3.9c0,2.1-1.7,3.9-3.9,3.9c-0.1,0-0.1,0-0.2,0.1c-0.1,0.1-0.2,0.2-0.2,0.3
		c0,0.2,0.2,0.4,0.4,0.4c0.1,0,0.1,0,0.2,0c2.4-0.1,4.4-2.1,4.4-4.6c0-1.9-1.2-3.6-2.9-4.3C110.8,454.7,110.3,454.9,109.7,454.9
		C109.7,454.9,109.7,454.9,109.7,454.9z"/>
	<path d="M105.7,455h3.9c0.1,0,0.1,0,0.2,0c0,0,0,0,0,0c-0.1,0-0.1,0-0.2,0c-0.2,0-0.4-0.2-0.4-0.4c0-0.1,0.1-0.2,0.2-0.3h-3.7V455z
		"/>
	<path d="M113.3,451.2c0-2.1-1.7-3.8-3.8-3.8c-0.1,0-0.1,0-0.2,0.1h0.2c0.2,0,0.4,0.2,0.4,0.4c0,0.1-0.1,0.3-0.2,0.3
		c1.6,0.1,2.9,1.4,2.9,3c0,1.7-1.4,3-3,3c-0.1,0-0.1,0-0.2,0.1c-0.1,0.1-0.2,0.2-0.2,0.3c0,0.2,0.2,0.4,0.4,0.4c0.1,0,0.1,0,0.2,0
		c0.5,0,1-0.2,1.5-0.4C112.5,453.9,113.3,452.6,113.3,451.2z"/>
	<path d="M105.7,463.1v-0.4V455v-0.7v-6.1h3.9c0.1,0,0.1,0,0.2,0c0.1-0.1,0.2-0.2,0.2-0.3c0-0.2-0.2-0.4-0.4-0.4h-0.2h-4.1
		c-0.2,0-0.4,0.2-0.4,0.4v15.2c0,0.2,0.2,0.4,0.4,0.4S105.7,463.3,105.7,463.1z"/>
	<path d="M121.8,463c0,0.2-0.2,0.4-0.4,0.4c-0.1,0-0.2,0-0.3,0c0.1,0.1,0.1,0.1,0.2,0.1h4.3c0.2,0,0.4-0.2,0.4-0.4s-0.2-0.4-0.4-0.4
		h-4C121.7,462.8,121.8,462.9,121.8,463z"/>
	<path d="M118.9,460.8c-0.2,0-0.3-0.1-0.4-0.3c0,1.5,1.2,2.7,2.6,2.8c0.1,0,0.2,0,0.3,0c0.2,0,0.4-0.2,0.4-0.4
		c0-0.1-0.1-0.2-0.2-0.3c-0.1,0-0.1-0.1-0.2-0.1c-1.2,0-2.2-1-2.2-2.2v0C119.2,460.7,119,460.8,118.9,460.8z"/>
	<path d="M118.5,458v2.5c0,0,0,0,0,0c0,0.2,0.2,0.3,0.4,0.3c0.2,0,0.4-0.2,0.4-0.4v0v-2.1h-0.4C118.7,458.3,118.5,458.2,118.5,458z"
		/>
	<path d="M118.5,458c0-0.2,0.2-0.4,0.4-0.4h0.4v-1.3c0,0,0,0,0,0c0,0.2-0.2,0.3-0.4,0.3s-0.3-0.2-0.4-0.3c0,0,0,0,0,0V458z"/>
	<path d="M118.9,456.6c0.2,0,0.3-0.2,0.4-0.3c0,0,0,0,0,0c0-1.7,1.4-3,3-3c1.7,0,3,1.4,3,3c0,0,0,0,0,0c0-0.2,0.2-0.3,0.4-0.3
		s0.3,0.2,0.4,0.3c0,0,0,0,0,0c0-2.1-1.7-3.8-3.7-3.8c-2.1,0-3.8,1.7-3.8,3.8c0,0,0,0,0,0C118.5,456.5,118.7,456.6,118.9,456.6z"/>
	<path d="M125.6,455.9c-0.2,0-0.3,0.2-0.4,0.3c0,0,0,0,0,0v1.3h-6.1h-0.4c-0.2,0-0.4,0.2-0.4,0.4s0.2,0.4,0.4,0.4h0.4h6.4
		c0.2,0,0.4-0.2,0.4-0.4v-1.7c0,0,0,0,0,0C126,456.1,125.8,455.9,125.6,455.9z"/>
	<path d="M130.7,461.7c-0.1,0-0.2-0.1-0.3-0.1c0.1,1,1,1.8,2,1.8c0.2,0,0.4-0.2,0.4-0.4s-0.2-0.4-0.4-0.4c-0.7,0-1.4-0.6-1.4-1.3
		c0-0.1,0-0.1-0.1-0.2v0.2C131,461.6,130.9,461.7,130.7,461.7z"/>
	<path d="M130.7,447.5c-0.2,0-0.4,0.2-0.4,0.4v13.6c0,0.1,0,0.2,0.1,0.2c0.1,0.1,0.2,0.1,0.3,0.1c0.2,0,0.4-0.2,0.4-0.4v-0.2v-13.3
		C131,447.6,130.9,447.5,130.7,447.5z"/>
	<path d="M138.8,463.1c0,0.2,0.2,0.4,0.4,0.4s0.4-0.2,0.4-0.4v-9.8h-0.7V463.1z"/>
	<path d="M139.5,447.8c0-0.2-0.2-0.4-0.4-0.4s-0.4,0.2-0.4,0.4v4.7h0.7V447.8z"/>
	<path d="M142.6,452.6h-3.1h-0.7h-1.3c-0.2,0-0.4,0.2-0.4,0.4s0.2,0.4,0.4,0.4h1.3h0.7h3.1c0.2,0,0.4-0.2,0.4-0.4
		S142.7,452.6,142.6,452.6z"/>
	<path d="M379.9,45c0,0.2-0.2,0.4-0.4,0.4c-0.1,0-0.2,0-0.2,0c0.1,0,0.1,0.1,0.2,0.1h5.3c0.2,0,0.4-0.2,0.4-0.4V34.4
		c0-0.2-0.2-0.4-0.4-0.4h-3.2c-0.2,0-0.4,0.2-0.4,0.4s0.2,0.4,0.4,0.4h2.8v9.9h-4.7C379.9,44.8,379.9,44.9,379.9,45z"/>
	<path d="M374.3,40.1c-0.2,0-0.4-0.2-0.4-0.3c0,3,2.4,5.5,5.4,5.6c0.1,0,0.2,0,0.2,0c0.2,0,0.4-0.2,0.4-0.4c0-0.1-0.1-0.2-0.2-0.3
		c-0.1,0-0.1-0.1-0.2-0.1c-2.7,0-5-2.2-5-5v0C374.6,39.9,374.5,40.1,374.3,40.1z"/>
	<path d="M373.9,39.7C373.9,39.7,373.9,39.7,373.9,39.7c0,0.2,0.2,0.4,0.4,0.4c0.2,0,0.4-0.2,0.4-0.4v0v-8.4c0,0,0,0,0,0
		c0,0.2-0.2,0.3-0.4,0.3s-0.3-0.2-0.4-0.3c0,0,0,0,0,0V39.7z"/>
	<path d="M374.3,31.6c0.2,0,0.3-0.2,0.4-0.3c0,0,0,0,0,0c0-2.7,2.1-4.8,4.8-4.9c-0.1-0.1-0.2-0.2-0.2-0.3c0-0.2,0.2-0.4,0.4-0.4h0.2
		c-0.1,0-0.1-0.1-0.2-0.1c-3.1,0-5.7,2.5-5.7,5.7c0,0,0,0,0,0C373.9,31.4,374.1,31.6,374.3,31.6z"/>
	<path d="M379.2,26c0,0.1,0.1,0.3,0.2,0.3c0,0,0.1,0,0.2,0h5.3c0.2,0,0.4-0.2,0.4-0.4s-0.2-0.4-0.4-0.4h-5.1h-0.2
		C379.4,25.6,379.2,25.8,379.2,26z"/>
	<path d="M394.8,45c0,0.2-0.2,0.4-0.4,0.4c-0.1,0-0.2,0-0.3,0c0.1,0.1,0.1,0.1,0.2,0.1h5.3c0.2,0,0.4-0.2,0.4-0.4s-0.2-0.4-0.4-0.4
		h-5.1C394.7,44.8,394.8,44.9,394.8,45z"/>
	<path d="M391.2,42.2c-0.1,0-0.2-0.1-0.3-0.1c0.1,1.7,1.5,3.1,3.2,3.2c0.1,0,0.2,0,0.3,0c0.2,0,0.4-0.2,0.4-0.4
		c0-0.1-0.1-0.2-0.2-0.3c-0.1,0-0.1-0.1-0.2-0.1c-1.5,0-2.8-1.3-2.8-2.8c0-0.1,0-0.1-0.1-0.2v0.2C391.6,42.1,391.4,42.2,391.2,42.2z
		"/>
	<path d="M391.2,39c-0.2,0-0.4-0.2-0.4-0.4v3.2c0,0.1,0,0.2,0.1,0.2c0.1,0.1,0.2,0.1,0.3,0.1c0.2,0,0.4-0.2,0.4-0.4v-0.2V39H391.2z"
		/>
	<path d="M391.2,38.3h0.4v-1.6c-0.1,0.1-0.2,0.2-0.3,0.2c-0.2,0-0.4-0.2-0.4-0.4c0-0.1,0-0.1,0-0.2c0,0.1-0.1,0.1-0.1,0.2v2.1
		C390.8,38.5,391,38.3,391.2,38.3z"/>
	<path d="M391.3,36.9c0.1,0,0.2-0.1,0.3-0.2c0-0.1,0.1-0.1,0.1-0.2c0-2.1,1.7-3.9,3.9-3.9c2.1,0,3.8,1.7,3.9,3.7
		c0.1-0.1,0.2-0.2,0.3-0.2c0.2,0,0.4,0.2,0.4,0.4v0.2c0-0.1,0.1-0.1,0.1-0.2c0-2.5-2.1-4.6-4.6-4.6c-2.5,0-4.5,2-4.6,4.4
		c0,0.1,0,0.1,0,0.2C390.9,36.8,391.1,36.9,391.3,36.9z"/>
	<path d="M391.2,39h0.4h8.1c0.2,0,0.4-0.2,0.4-0.4v-1.9v-0.2c0-0.2-0.2-0.4-0.4-0.4c-0.1,0-0.3,0.1-0.3,0.2c0,0.1,0,0.1,0,0.2v1.7
		h-7.7h-0.4c-0.2,0-0.4,0.2-0.4,0.4S391,39,391.2,39z"/>
	<path d="M409.2,32C409.2,32,409.2,32,409.2,32C409.2,32,409.2,32,409.2,32L409.2,32z"/>
	<path d="M413.3,41.9L413.3,41.9C413.3,41.9,413.3,41.9,413.3,41.9C413.3,41.9,413.3,41.9,413.3,41.9z"/>
	<path d="M409.6,32.3c0,0.2-0.2,0.4-0.4,0.4h3.3v9.1c0-0.2,0.2-0.4,0.4-0.4s0.4,0.2,0.4,0.4v-9.5c0-0.2-0.2-0.4-0.4-0.4h-3.7
		C409.4,32,409.6,32.1,409.6,32.3z"/>
	<path d="M409.5,44.8C409.5,44.7,409.5,44.7,409.5,44.8L409.5,44.8C409.4,44.7,409.5,44.7,409.5,44.8z"/>
	<path d="M409.5,45.2c-0.1,0.1-0.2,0.1-0.3,0.1c-0.1,0-0.2,0-0.3,0c0.1,0.1,0.1,0.1,0.2,0.1h0.5c0.1,0,0.2,0,0.2-0.1
		c-0.1,0-0.1,0-0.2,0C409.7,45.3,409.6,45.3,409.5,45.2z"/>
	<path d="M413.3,41.8c0-0.2-0.2-0.4-0.4-0.4s-0.4,0.2-0.4,0.4c0,1.5-1.3,2.8-2.8,2.8c-0.1,0-0.1,0-0.2,0.1c0,0-0.1,0-0.1,0.1
		c0.1,0.1,0.1,0.1,0.1,0.2s0,0.2-0.1,0.2c0.1,0.1,0.2,0.1,0.3,0.1c0.1,0,0.1,0,0.2,0c1.4-0.1,2.6-1,3.1-2.2l-0.4-0.5
		c-0.1-0.2-0.1-0.4,0.1-0.5c0.2-0.1,0.4-0.1,0.5,0.1l0,0.1C413.2,42.1,413.3,42,413.3,41.8C413.3,41.9,413.3,41.9,413.3,41.8z"/>
	<path d="M412.7,42.1c-0.2,0.1-0.2,0.3-0.1,0.5l0.4,0.5l1.7,2.2c0.1,0.1,0.2,0.1,0.3,0.1c0.1,0,0.2,0,0.2-0.1
		c0.2-0.1,0.2-0.3,0.1-0.5l-2.1-2.6l0-0.1C413.1,42,412.8,41.9,412.7,42.1z"/>
	<path d="M406.1,41.5c0.1,0,0.2,0.1,0.3,0.2v-6c-0.1,0.1-0.2,0.2-0.3,0.2c-0.2,0-0.4-0.2-0.4-0.4c0-0.1,0-0.1,0-0.2
		c0,0.1-0.1,0.1-0.1,0.2v6.4c0,0.1,0,0.2,0.1,0.2c0-0.1,0-0.2,0-0.3C405.7,41.6,405.9,41.5,406.1,41.5z"/>
	<path d="M409.5,45.2c0.1-0.1,0.1-0.1,0.1-0.2s0-0.2-0.1-0.2c0,0-0.1,0-0.1-0.1c-0.1,0-0.1-0.1-0.2-0.1c-1.5,0-2.8-1.3-2.8-2.8
		c0-0.1,0-0.1-0.1-0.2c-0.1-0.1-0.2-0.2-0.3-0.2c-0.2,0-0.4,0.2-0.4,0.4c0,0.1,0,0.2,0,0.3c0.1,1.7,1.5,3.1,3.2,3.2
		c0.1,0,0.2,0,0.3,0C409.3,45.3,409.4,45.3,409.5,45.2z"/>
	<path d="M406.1,35.8c0.1,0,0.2-0.1,0.3-0.2c0-0.1,0.1-0.1,0.1-0.2c0-1.5,1.3-2.8,2.8-2.8c0.2,0,0.4-0.2,0.4-0.4s-0.2-0.4-0.4-0.4
		c0,0,0,0-0.1,0c-1.8,0-3.3,1.5-3.4,3.3c0,0.1,0,0.1,0,0.2C405.7,35.7,405.9,35.8,406.1,35.8z"/>
	<path d="M427.1,32h-6.3c-0.2,0-0.4,0.2-0.4,0.4V45c0,0.2,0.2,0.4,0.4,0.4s0.4-0.2,0.4-0.4V32.7h5.6v1.7c0,0.2,0.2,0.4,0.4,0.4
		s0.4-0.2,0.4-0.4v-2.1C427.5,32.1,427.3,32,427.1,32z"/>
	<path d="M435.5,43.6c0.2-0.1,0.4-0.1,0.5,0.1c0,0,0,0,0,0c-2.8-5.2-2.8-11.3,0-16.5c0,0,0,0,0,0c-0.1,0.2-0.3,0.2-0.5,0.1
		c-0.2-0.1-0.2-0.3-0.1-0.5c0,0,0,0,0,0c-2.9,5.4-2.9,11.9,0,17.3c0,0,0,0,0,0C435.3,44,435.3,43.8,435.5,43.6z"/>
	<path d="M435.4,26.8C435.4,26.8,435.5,26.8,435.4,26.8C435.4,26.7,435.4,26.8,435.4,26.8z"/>
	<path d="M440.2,26.8C440.2,26.8,440.2,26.8,440.2,26.8C440.2,26.8,440.2,26.8,440.2,26.8C440.2,26.8,440.2,26.8,440.2,26.8z"/>
	<path d="M435.5,27.3c0.2,0.1,0.4,0.1,0.5-0.1c0,0,0,0,0,0c0.4-0.6,1.1-0.9,1.8-0.9s1.4,0.3,1.8,0.9c0,0,0,0,0,0
		c-0.1-0.2,0-0.4,0.1-0.5c0.1-0.1,0.3-0.1,0.4,0c-0.6-0.7-1.4-1.1-2.3-1.1c-0.9,0-1.8,0.4-2.3,1.1c0,0,0,0,0,0c0,0,0,0,0,0
		c0,0,0,0,0,0C435.3,27,435.3,27.2,435.5,27.3z"/>
	<path d="M440.2,26.8C440.2,26.8,440.2,26.8,440.2,26.8C440.1,26.8,440.1,26.7,440.2,26.8c-0.2-0.2-0.3-0.2-0.5-0.1
		c-0.2,0.1-0.2,0.3-0.1,0.5c0,0,0,0,0,0c2.8,5.2,2.8,11.3,0,16.5c0,0,0,0,0,0c0.1-0.2,0.3-0.2,0.5-0.1c0.2,0.1,0.2,0.3,0.1,0.5
		c0,0,0,0,0,0C443.1,38.7,443.1,32.3,440.2,26.8C440.2,26.8,440.2,26.8,440.2,26.8z"/>
	<path d="M440.1,43.6c-0.2-0.1-0.4-0.1-0.5,0.1c0,0,0,0,0,0c-0.4,0.6-1.1,0.9-1.8,0.9c-0.7,0-1.4-0.3-1.8-0.9c0,0,0,0,0,0
		c-0.1-0.2-0.3-0.2-0.5-0.1c-0.2,0.1-0.2,0.3-0.1,0.5c0,0,0,0,0,0c0.6,0.8,1.4,1.2,2.4,1.2c0.9,0,1.8-0.4,2.4-1.2c0,0,0,0,0,0
		C440.3,44,440.2,43.8,440.1,43.6z"/>
	<path d="M633.5,45c0,0.2-0.2,0.4-0.4,0.4c-0.1,0-0.2,0-0.2,0c0.1,0,0.1,0.1,0.2,0.1h5.3c0.2,0,0.4-0.2,0.4-0.4V34.4
		c0-0.2-0.2-0.4-0.4-0.4h-3.2c-0.2,0-0.4,0.2-0.4,0.4s0.2,0.4,0.4,0.4h2.8v9.9h-4.7C633.4,44.8,633.5,44.9,633.5,45z"/>
	<path d="M627.8,40.1c-0.1,0-0.2-0.1-0.3-0.2c0.1,2.9,2.5,5.3,5.4,5.4c0.1,0,0.2,0,0.2,0c0.2,0,0.4-0.2,0.4-0.4
		c0-0.1-0.1-0.2-0.2-0.3c-0.1,0-0.1-0.1-0.2-0.1c-2.7,0-4.9-2.2-4.9-5c0-0.1,0-0.1-0.1-0.2v0.2C628.1,39.9,628,40.1,627.8,40.1z"/>
	<path d="M627.8,31.6c-0.2,0-0.4-0.2-0.4-0.4c0-0.1,0-0.1,0-0.2c0,0.1-0.1,0.1-0.1,0.2v8.5c0,0.1,0,0.1,0.1,0.2
		c0.1,0.1,0.2,0.2,0.3,0.2c0.2,0,0.4-0.2,0.4-0.4v-0.2v-8.1C628.1,31.5,628,31.6,627.8,31.6z"/>
	<path d="M627.8,31.6c0.1,0,0.2-0.1,0.3-0.2c0-0.1,0.1-0.1,0.1-0.2c0-2.7,2.1-4.8,4.8-4.9c-0.1-0.1-0.2-0.2-0.2-0.3
		c0-0.2,0.2-0.4,0.4-0.4h0.2c-0.1,0-0.1-0.1-0.2-0.1c-3.1,0-5.6,2.5-5.7,5.5c0,0.1,0,0.1,0,0.2C627.5,31.4,627.6,31.6,627.8,31.6z"
		/>
	<path d="M632.8,26c0,0.1,0.1,0.3,0.2,0.3c0,0,0.1,0,0.2,0h5.3c0.2,0,0.4-0.2,0.4-0.4s-0.2-0.4-0.4-0.4h-5.1h-0.2
		C632.9,25.6,632.8,25.8,632.8,26z"/>
	<path d="M648.3,45c0,0.2-0.2,0.4-0.4,0.4c-0.1,0-0.2,0-0.3,0c0.1,0.1,0.1,0.1,0.2,0.1h5.3c0.2,0,0.4-0.2,0.4-0.4s-0.2-0.4-0.4-0.4
		h-5.1C648.2,44.8,648.3,44.9,648.3,45z"/>
	<path d="M644.8,42.2c-0.2,0-0.3-0.1-0.4-0.3c0,1.8,1.5,3.3,3.2,3.4c0.1,0,0.2,0,0.3,0c0.2,0,0.4-0.2,0.4-0.4c0-0.1-0.1-0.2-0.2-0.3
		c-0.1,0-0.1-0.1-0.2-0.1c-1.5,0-2.8-1.3-2.8-2.8v0C645.1,42.1,645,42.2,644.8,42.2z"/>
	<path d="M644.4,38.7c0-0.2,0.2-0.4,0.4-0.4h0.4v-1.7c0,0,0,0,0,0c0,0.2-0.2,0.3-0.4,0.3s-0.3-0.2-0.4-0.3c0,0,0,0,0,0V38.7z"/>
	<path d="M644.4,38.7v3.2c0,0,0,0,0,0c0,0.2,0.2,0.3,0.4,0.3c0.2,0,0.4-0.2,0.4-0.4v0V39h-0.4C644.6,39,644.4,38.9,644.4,38.7z"/>
	<path d="M644.8,36.9c0.2,0,0.3-0.2,0.4-0.3c0,0,0,0,0,0c0-2.1,1.7-3.9,3.9-3.9s3.9,1.7,3.9,3.9c0,0,0,0,0,0c0-0.2,0.2-0.3,0.4-0.3
		s0.3,0.2,0.4,0.3c0,0,0,0,0,0c0-2.5-2.1-4.6-4.6-4.6c-2.5,0-4.6,2.1-4.6,4.6c0,0,0,0,0,0C644.4,36.8,644.6,36.9,644.8,36.9z"/>
	<path d="M653.2,36.2c-0.2,0-0.3,0.2-0.4,0.3c0,0,0,0,0,0v1.7h-7.7h-0.4c-0.2,0-0.4,0.2-0.4,0.4s0.2,0.4,0.4,0.4h0.4h8.1
		c0.2,0,0.4-0.2,0.4-0.4v-2.1c0,0,0,0,0,0C653.6,36.4,653.4,36.2,653.2,36.2z"/>
	<path d="M666.8,41.9L666.8,41.9C666.8,41.9,666.8,41.9,666.8,41.9C666.8,41.9,666.8,41.9,666.8,41.9z"/>
	<path d="M663.1,32.3c0,0.2-0.2,0.4-0.4,0.4h3.3v9.1c0-0.2,0.2-0.4,0.4-0.4s0.4,0.2,0.4,0.4v-9.5c0-0.2-0.2-0.4-0.4-0.4h-3.7
		C662.9,32,663.1,32.1,663.1,32.3z"/>
	<path d="M662.7,32C662.7,32,662.7,32,662.7,32C662.7,32,662.7,32,662.7,32L662.7,32z"/>
	<path d="M663,44.8C663,44.7,663,44.7,663,44.8L663,44.8C662.9,44.7,663,44.7,663,44.8z"/>
	<path d="M663,45.2c-0.1,0.1-0.2,0.1-0.3,0.1c-0.1,0-0.2,0-0.3,0c0.1,0.1,0.1,0.1,0.2,0.1h0.5c0.1,0,0.2,0,0.2-0.1
		c-0.1,0-0.1,0-0.2,0C663.2,45.3,663.1,45.3,663,45.2z"/>
	<path d="M666.8,41.8c0-0.2-0.2-0.4-0.4-0.4s-0.4,0.2-0.4,0.4c0,1.5-1.3,2.8-2.8,2.8c-0.1,0-0.1,0-0.2,0.1c0,0-0.1,0-0.1,0.1
		c0.1,0.1,0.1,0.1,0.1,0.2s0,0.2-0.1,0.2c0.1,0.1,0.2,0.1,0.3,0.1c0.1,0,0.1,0,0.2,0c1.4-0.1,2.6-1,3.1-2.2l-0.4-0.5
		c-0.1-0.2-0.1-0.4,0.1-0.5c0.2-0.1,0.4-0.1,0.5,0.1l0,0.1C666.7,42.1,666.8,42,666.8,41.8C666.8,41.9,666.8,41.9,666.8,41.8z"/>
	<path d="M666.2,42.1c-0.2,0.1-0.2,0.3-0.1,0.5l0.4,0.5l1.7,2.2c0.1,0.1,0.2,0.1,0.3,0.1c0.1,0,0.2,0,0.2-0.1
		c0.2-0.1,0.2-0.3,0.1-0.5l-2.1-2.6l0-0.1C666.6,42,666.3,41.9,666.2,42.1z"/>
	<path d="M659.6,41.5c0.1,0,0.2,0.1,0.3,0.2v-6c-0.1,0.1-0.2,0.2-0.3,0.2c-0.2,0-0.4-0.2-0.4-0.4c0-0.1,0-0.1,0-0.2
		c0,0.1-0.1,0.1-0.1,0.2v6.4c0,0.1,0,0.2,0.1,0.2c0-0.1,0-0.2,0-0.3C659.2,41.6,659.4,41.5,659.6,41.5z"/>
	<path d="M663,45.2c0.1-0.1,0.1-0.1,0.1-0.2s0-0.2-0.1-0.2c0,0-0.1,0-0.1-0.1c-0.1,0-0.1-0.1-0.2-0.1c-1.5,0-2.8-1.3-2.8-2.8
		c0-0.1,0-0.1-0.1-0.2c-0.1-0.1-0.2-0.2-0.3-0.2c-0.2,0-0.4,0.2-0.4,0.4c0,0.1,0,0.2,0,0.3c0.1,1.7,1.5,3.1,3.2,3.2
		c0.1,0,0.2,0,0.3,0C662.8,45.3,662.9,45.3,663,45.2z"/>
	<path d="M659.6,35.8c0.1,0,0.2-0.1,0.3-0.2c0-0.1,0.1-0.1,0.1-0.2c0-1.5,1.3-2.8,2.8-2.8c0.2,0,0.4-0.2,0.4-0.4s-0.2-0.4-0.4-0.4
		c0,0,0,0-0.1,0c-1.8,0-3.3,1.5-3.4,3.3c0,0.1,0,0.1,0,0.2C659.2,35.7,659.4,35.8,659.6,35.8z"/>
	<path d="M680.7,34.8c0.2,0,0.4-0.2,0.4-0.4v-2.1c0-0.2-0.2-0.4-0.4-0.4h-6.4c-0.2,0-0.4,0.2-0.4,0.4V45c0,0.2,0.2,0.4,0.4,0.4
		s0.4-0.2,0.4-0.4V32.7h5.6v1.7C680.3,34.6,680.5,34.8,680.7,34.8z"/>
	<path d="M690.9,26c0-0.2,0.2-0.3,0.3-0.4c0,0,0,0,0,0h-4.2c-0.2,0-0.4,0.2-0.4,0.4s0.2,0.4,0.4,0.4h4.2c0,0,0,0,0,0
		C691.1,26.3,690.9,26.2,690.9,26z"/>
	<path d="M695.9,30.2c0-2.5-2.1-4.6-4.6-4.6c0,0,0,0,0,0c-0.2,0-0.3,0.2-0.3,0.4s0.2,0.3,0.3,0.4c0,0,0,0,0,0c2.1,0,3.9,1.7,3.9,3.9
		s-1.7,3.9-3.9,3.9c0.6,0,1.2,0.1,1.8,0.4C694.7,33.7,695.9,32.1,695.9,30.2z"/>
	<path d="M690.9,34.4c0-0.2,0.2-0.3,0.3-0.4c0,0,0,0,0,0h-2.1c-0.2,0-0.4,0.2-0.4,0.4s0.2,0.4,0.4,0.4h2.1c0,0,0,0,0,0
		C691.1,34.8,690.9,34.6,690.9,34.4z"/>
	<path d="M695.5,38.3c0.2,0,0.3,0.2,0.4,0.3c0,0,0,0,0,0c0-1.9-1.2-3.5-2.8-4.2c-0.5-0.2-1.1-0.4-1.8-0.4c0,0,0,0,0,0
		c-0.2,0-0.3,0.2-0.3,0.4s0.2,0.3,0.3,0.4c0,0,0,0,0,0c2.1,0,3.9,1.7,3.9,3.9c0,0,0,0,0,0C695.2,38.5,695.3,38.3,695.5,38.3z"/>
	<path d="M695.2,40.8c0-0.2,0.2-0.4,0.4-0.4s0.4,0.2,0.4,0.4v-2.1c0,0,0,0,0,0c0-0.2-0.2-0.3-0.4-0.3s-0.3,0.2-0.4,0.3c0,0,0,0,0,0
		V40.8z"/>
	<path d="M695.9,40.8L695.9,40.8C695.9,40.8,695.9,40.8,695.9,40.8C695.9,40.8,695.9,40.8,695.9,40.8z"/>
	<path d="M695.5,40.4c-0.2,0-0.4,0.2-0.4,0.4c0,2.1-1.7,3.9-3.9,3.9c-0.1,0-0.1,0-0.2,0.1h0.2c0.2,0,0.4,0.2,0.4,0.4
		c0,0.1-0.1,0.2-0.1,0.3c2.4-0.1,4.4-2.1,4.4-4.5c0,0,0,0,0-0.1C695.9,40.6,695.7,40.4,695.5,40.4z"/>
	<path d="M691.6,45c0-0.2-0.2-0.4-0.4-0.4h-0.2h-4c-0.2,0-0.4,0.2-0.4,0.4s0.2,0.4,0.4,0.4h4.2c0.1,0,0.2,0,0.2-0.1
		C691.6,45.3,691.6,45.2,691.6,45z"/>
	<path d="M392.7,537.4c0,0.2-0.2,0.4-0.4,0.4h5.2c0.2,0,0.4-0.2,0.4-0.4v-10.6c0-0.2-0.2-0.4-0.4-0.4h-3.2c-0.2,0-0.4,0.2-0.4,0.4
		s0.2,0.4,0.4,0.4h2.8v9.8h-4.9C392.6,537,392.7,537.2,392.7,537.4z"/>
	<path d="M392.3,537.8L392.3,537.8C392.3,537.8,392.3,537.8,392.3,537.8C392.3,537.8,392.3,537.8,392.3,537.8z"/>
	<path d="M387.1,532.5c-0.2,0-0.4-0.2-0.4-0.4c0,3.1,2.5,5.6,5.6,5.6c0,0,0,0,0,0c0.2,0,0.4-0.2,0.4-0.4s-0.2-0.4-0.4-0.4
		c-2.7,0-4.9-2.2-4.9-4.9v0C387.4,532.3,387.2,532.5,387.1,532.5z"/>
	<path d="M387.1,524c-0.2,0-0.3-0.2-0.4-0.3c0,0,0,0,0,0v8.5c0,0,0,0,0,0c0,0.2,0.2,0.4,0.4,0.4c0.2,0,0.4-0.2,0.4-0.4v0v-8.4
		c0,0,0,0,0,0C387.4,523.8,387.2,524,387.1,524z"/>
	<path d="M392.2,518.7c-0.1-0.1-0.2-0.2-0.2-0.3c0-0.2,0.2-0.4,0.4-0.4h0.2c-0.1,0-0.1-0.1-0.2-0.1c-3.1,0-5.7,2.5-5.7,5.7
		c0,0,0,0,0,0c0,0.2,0.2,0.3,0.4,0.3s0.3-0.2,0.4-0.3c0,0,0,0,0,0C387.4,521,389.5,518.8,392.2,518.7z"/>
	<path d="M392,518.4c0,0.1,0.1,0.3,0.2,0.3c0,0,0.1,0,0.2,0h5.3c0.2,0,0.4-0.2,0.4-0.4s-0.2-0.4-0.4-0.4h-5.1h-0.2
		C392.1,518,392,518.2,392,518.4z"/>
	<path d="M407.2,537.8L407.2,537.8C407.2,537.8,407.1,537.8,407.2,537.8C407.1,537.8,407.1,537.8,407.2,537.8z"/>
	<path d="M407.5,537.4c0,0.2-0.2,0.4-0.4,0.4h5.2c0.2,0,0.4-0.2,0.4-0.4s-0.2-0.4-0.4-0.4h-5.2C407.4,537,407.5,537.2,407.5,537.4z"
		/>
	<path d="M404,534.6c-0.1,0-0.2-0.1-0.3-0.1c0.1,1.8,1.6,3.2,3.4,3.2c0,0,0,0,0.1,0c0.2,0,0.4-0.2,0.4-0.4s-0.2-0.4-0.4-0.4
		c-1.5,0-2.8-1.3-2.8-2.8c0-0.1,0-0.1-0.1-0.2v0.2C404.3,534.5,404.2,534.6,404,534.6z"/>
	<path d="M404,530.7h0.4v-1.6c-0.1,0.1-0.2,0.2-0.3,0.2c-0.2,0-0.4-0.2-0.4-0.4c0-0.1,0-0.1,0-0.2c0,0.1-0.1,0.1-0.1,0.2v2.2
		C403.6,530.9,403.8,530.7,404,530.7z"/>
	<path d="M404,531.5c-0.2,0-0.4-0.2-0.4-0.4v3.2c0,0.1,0,0.2,0.1,0.2c0.1,0.1,0.2,0.1,0.3,0.1c0.2,0,0.4-0.2,0.4-0.4v-0.2v-2.6H404z
		"/>
	<path d="M404,529.3c0.1,0,0.2-0.1,0.3-0.2c0-0.1,0.1-0.1,0.1-0.2c0-2.1,1.7-3.9,3.9-3.9c2.1,0,3.8,1.7,3.9,3.7
		c0.1-0.1,0.2-0.2,0.3-0.2c0.2,0,0.4,0.2,0.4,0.4v0.2c0-0.1,0.1-0.1,0.1-0.2c0-2.5-2.1-4.6-4.6-4.6c-2.5,0-4.5,2-4.6,4.4
		c0,0.1,0,0.1,0,0.2C403.7,529.1,403.8,529.3,404,529.3z"/>
	<path d="M404,531.5h0.4h8.1c0.2,0,0.4-0.2,0.4-0.4v-2v-0.2c0-0.2-0.2-0.4-0.4-0.4c-0.1,0-0.3,0.1-0.3,0.2c0,0.1,0,0.1,0,0.2v1.8
		h-7.7H404c-0.2,0-0.4,0.2-0.4,0.4S403.8,531.5,404,531.5z"/>
	<path d="M422,524.4C422,524.4,422,524.4,422,524.4C422,524.4,422,524.4,422,524.4L422,524.4z"/>
	<path d="M426,534.3L426,534.3C426,534.3,426,534.3,426,534.3C426,534.3,426,534.3,426,534.3z"/>
	<path d="M422.4,524.7c0,0.2-0.2,0.4-0.4,0.4h3.3v9.1c0-0.2,0.2-0.4,0.4-0.4s0.4,0.2,0.4,0.4v-9.5c0-0.2-0.2-0.4-0.4-0.4H422
		C422.2,524.4,422.4,524.5,422.4,524.7z"/>
	<path d="M422,537.8h0.5c0,0,0,0,0,0c-0.1,0-0.2,0-0.2-0.1C422.2,537.7,422.1,537.8,422,537.8z"/>
	<path d="M422,537c0.1,0,0.2,0,0.2,0.1c0.1-0.1,0.1-0.1,0.2-0.1c0,0,0,0,0,0H422z"/>
	<path d="M422,537.8L422,537.8C422,537.8,422,537.8,422,537.8C422,537.8,422,537.8,422,537.8z"/>
	<path d="M426,534.3c0-0.2-0.2-0.4-0.4-0.4s-0.4,0.2-0.4,0.4c0,1.5-1.3,2.8-2.8,2.8c0,0,0,0,0,0c-0.1,0-0.2,0-0.2,0.1
		c0.1,0.1,0.1,0.2,0.1,0.3s0,0.2-0.1,0.3c0.1,0.1,0.1,0.1,0.2,0.1c0,0,0,0,0,0c1.5,0,2.8-1,3.3-2.3l-0.4-0.5
		c-0.1-0.2-0.1-0.4,0.1-0.5c0.2-0.1,0.4-0.1,0.5,0.1l0,0.1C426,534.5,426,534.4,426,534.3C426,534.3,426,534.3,426,534.3z"/>
	<path d="M425.4,534.5c-0.2,0.1-0.2,0.4-0.1,0.5l0.4,0.5l1.8,2.1c0.1,0.1,0.2,0.1,0.3,0.1c0.1,0,0.2,0,0.2-0.1
		c0.2-0.1,0.2-0.4,0.1-0.5l-2.1-2.6l0-0.1C425.8,534.4,425.6,534.4,425.4,534.5z"/>
	<path d="M418.9,533.9c0.1,0,0.2,0.1,0.3,0.2v-6c-0.1,0.1-0.2,0.2-0.3,0.2c-0.2,0-0.4-0.2-0.4-0.4c0-0.1,0-0.1,0-0.2
		c0,0.1-0.1,0.1-0.1,0.2v6.4c0,0.1,0,0.2,0.1,0.2c0-0.1,0-0.2,0-0.3C418.5,534.1,418.7,533.9,418.9,533.9z"/>
	<path d="M422.4,537.4c0-0.1,0-0.2-0.1-0.3c-0.1-0.1-0.1-0.1-0.2-0.1c-1.5,0-2.8-1.3-2.8-2.8c0-0.1,0-0.1-0.1-0.2
		c-0.1-0.1-0.2-0.2-0.3-0.2c-0.2,0-0.4,0.2-0.4,0.4c0,0.1,0,0.2,0,0.3c0.1,1.8,1.6,3.2,3.4,3.2c0,0,0,0,0.1,0c0.1,0,0.2,0,0.2-0.1
		C422.3,537.6,422.4,537.5,422.4,537.4z"/>
	<path d="M418.9,528.3c0.1,0,0.2-0.1,0.3-0.2c0-0.1,0.1-0.1,0.1-0.2c0-1.5,1.3-2.8,2.8-2.8c0.2,0,0.4-0.2,0.4-0.4s-0.2-0.4-0.4-0.4
		c0,0,0,0-0.1,0c-1.8,0-3.3,1.5-3.4,3.3c0,0.1,0,0.1,0,0.2C418.5,528.1,418.7,528.3,418.9,528.3z"/>
	<path d="M439.9,527.2c0.2,0,0.4-0.2,0.4-0.4v-2.1c0-0.2-0.2-0.4-0.4-0.4h-6.3c-0.2,0-0.4,0.2-0.4,0.4v12.7c0,0.2,0.2,0.4,0.4,0.4
		s0.4-0.2,0.4-0.4v-12.3h5.6v1.7C439.5,527,439.7,527.2,439.9,527.2z"/>
	<path d="M450.5,537.8c0.2,0,0.4-0.2,0.4-0.4v-19c0-0.1-0.1-0.3-0.2-0.3c-0.1-0.1-0.3,0-0.4,0.1l-4.3,4.3c-0.1,0.1-0.1,0.4,0,0.5
		s0.4,0.1,0.5,0l3.6-3.6v18.2C450.2,537.6,450.3,537.8,450.5,537.8z"/>
	<path d="M607.1,537.8L607.1,537.8C607.1,537.8,607.1,537.8,607.1,537.8C607.1,537.8,607.1,537.8,607.1,537.8z"/>
	<path d="M607.5,537.4c0,0.2-0.2,0.4-0.4,0.4h5.2c0.2,0,0.4-0.2,0.4-0.4v-10.6c0-0.2-0.2-0.4-0.4-0.4h-3.2c-0.2,0-0.4,0.2-0.4,0.4
		s0.2,0.4,0.4,0.4h2.8v9.8h-4.9C607.4,537,607.5,537.2,607.5,537.4z"/>
	<path d="M601.9,532.5c-0.2,0-0.4-0.2-0.4-0.4c0,3.1,2.5,5.6,5.6,5.6c0,0,0,0,0,0c0.2,0,0.4-0.2,0.4-0.4s-0.2-0.4-0.4-0.4
		c-2.7,0-4.9-2.2-4.9-4.9v0C602.2,532.3,602,532.5,601.9,532.5z"/>
	<path d="M601.9,524c-0.2,0-0.3-0.2-0.4-0.3c0,0,0,0,0,0v8.5c0,0,0,0,0,0c0,0.2,0.2,0.4,0.4,0.4c0.2,0,0.4-0.2,0.4-0.4v0v-8.4
		c0,0,0,0,0,0C602.2,523.8,602,524,601.9,524z"/>
	<path d="M607,518.7c-0.1-0.1-0.2-0.2-0.2-0.3c0-0.2,0.2-0.4,0.4-0.4h0.2c-0.1,0-0.1-0.1-0.2-0.1c-3.1,0-5.7,2.5-5.7,5.7
		c0,0,0,0,0,0c0,0.2,0.2,0.3,0.4,0.3s0.3-0.2,0.4-0.3c0,0,0,0,0,0C602.2,521,604.3,518.8,607,518.7z"/>
	<path d="M606.8,518.4c0,0.1,0.1,0.3,0.2,0.3c0,0,0.1,0,0.2,0h5.3c0.2,0,0.4-0.2,0.4-0.4s-0.2-0.4-0.4-0.4h-5.1h-0.2
		C606.9,518,606.8,518.2,606.8,518.4z"/>
	<path d="M622,537.8L622,537.8C622,537.8,621.9,537.8,622,537.8C621.9,537.8,621.9,537.8,622,537.8z"/>
	<path d="M622.3,537.4c0,0.2-0.2,0.4-0.4,0.4h5.2c0.2,0,0.4-0.2,0.4-0.4s-0.2-0.4-0.4-0.4H622C622.2,537,622.3,537.2,622.3,537.4z"
		/>
	<path d="M618.8,534.6c-0.1,0-0.2-0.1-0.3-0.1c0.1,1.8,1.6,3.2,3.4,3.2c0,0,0,0,0.1,0c0.2,0,0.4-0.2,0.4-0.4s-0.2-0.4-0.4-0.4
		c-1.5,0-2.8-1.3-2.8-2.8c0-0.1,0-0.1-0.1-0.2v0.2C619.1,534.5,619,534.6,618.8,534.6z"/>
	<path d="M618.4,531.1v3.2c0,0.1,0,0.2,0.1,0.2c0.1,0.1,0.2,0.1,0.3,0.1c0.2,0,0.4-0.2,0.4-0.4v-0.2v-2.6h-0.4
		C618.6,531.5,618.4,531.3,618.4,531.1z"/>
	<path d="M618.8,530.7h0.4v-1.8c0,0,0,0,0,0c0,0.2-0.2,0.3-0.4,0.3s-0.3-0.2-0.4-0.3c0,0,0,0,0,0v2.2
		C618.4,530.9,618.6,530.7,618.8,530.7z"/>
	<path d="M623,524.3c-2.5,0-4.6,2.1-4.6,4.6c0,0,0,0,0,0c0,0.2,0.2,0.3,0.4,0.3s0.3-0.2,0.4-0.3c0,0,0,0,0,0c0-2.1,1.7-3.9,3.9-3.9
		s3.9,1.7,3.9,3.9c0,0,0,0,0,0c0-0.2,0.2-0.3,0.4-0.3s0.3,0.2,0.4,0.3c0,0,0,0,0,0C627.6,526.4,625.5,524.3,623,524.3z"/>
	<path d="M627.2,528.6c-0.2,0-0.3,0.2-0.4,0.3c0,0,0,0,0,0v1.8h-7.7h-0.4c-0.2,0-0.4,0.2-0.4,0.4s0.2,0.4,0.4,0.4h0.4h8.1
		c0.2,0,0.4-0.2,0.4-0.4v-2.2c0,0,0,0,0,0C627.6,528.7,627.4,528.6,627.2,528.6z"/>
	<path d="M637.2,524.7c0,0.2-0.2,0.4-0.4,0.4h3.3v9.1c0-0.2,0.2-0.4,0.4-0.4s0.4,0.2,0.4,0.4v-9.5c0-0.2-0.2-0.4-0.4-0.4h-3.6
		C637,524.4,637.2,524.5,637.2,524.7z"/>
	<path d="M636.8,524.4C636.8,524.4,636.8,524.4,636.8,524.4C636.8,524.4,636.8,524.4,636.8,524.4L636.8,524.4z"/>
	<path d="M640.8,534.3L640.8,534.3C640.8,534.3,640.8,534.3,640.8,534.3C640.8,534.3,640.8,534.3,640.8,534.3z"/>
	<path d="M636.8,537.8L636.8,537.8C636.8,537.8,636.8,537.8,636.8,537.8C636.8,537.8,636.8,537.8,636.8,537.8z"/>
	<path d="M636.8,537c0.1,0,0.2,0,0.2,0.1c0.1-0.1,0.1-0.1,0.2-0.1c0,0,0,0,0,0H636.8z"/>
	<path d="M636.8,537.8h0.5c0,0,0,0,0,0c-0.1,0-0.2,0-0.2-0.1C637,537.7,636.9,537.8,636.8,537.8z"/>
	<path d="M640.8,534.3c0-0.2-0.2-0.4-0.4-0.4s-0.4,0.2-0.4,0.4c0,1.5-1.3,2.8-2.8,2.8c0,0,0,0,0,0c-0.1,0-0.2,0-0.2,0.1
		c0.1,0.1,0.1,0.2,0.1,0.3s0,0.2-0.1,0.3c0.1,0.1,0.1,0.1,0.2,0.1c0,0,0,0,0,0c1.5,0,2.8-1,3.3-2.3l-0.4-0.5
		c-0.1-0.2-0.1-0.4,0.1-0.5s0.4-0.1,0.5,0.1l0,0.1C640.8,534.5,640.8,534.4,640.8,534.3C640.8,534.3,640.8,534.3,640.8,534.3z"/>
	<path d="M640.2,534.5c-0.2,0.1-0.2,0.4-0.1,0.5l0.4,0.5l1.8,2.1c0.1,0.1,0.2,0.1,0.3,0.1c0.1,0,0.2,0,0.2-0.1
		c0.2-0.1,0.2-0.4,0.1-0.5l-2.1-2.6l0-0.1C640.6,534.4,640.4,534.4,640.2,534.5z"/>
	<path d="M633.7,533.9c0.1,0,0.2,0.1,0.3,0.2v-6c-0.1,0.1-0.2,0.2-0.3,0.2c-0.2,0-0.4-0.2-0.4-0.4c0-0.1,0-0.1,0-0.2
		c0,0.1-0.1,0.1-0.1,0.2v6.4c0,0.1,0,0.2,0.1,0.2c0-0.1,0-0.2,0-0.3C633.3,534.1,633.5,533.9,633.7,533.9z"/>
	<path d="M637.2,537.4c0-0.1,0-0.2-0.1-0.3c-0.1-0.1-0.1-0.1-0.2-0.1c-1.5,0-2.8-1.3-2.8-2.8c0-0.1,0-0.1-0.1-0.2
		c-0.1-0.1-0.2-0.2-0.3-0.2c-0.2,0-0.4,0.2-0.4,0.4c0,0.1,0,0.2,0,0.3c0.1,1.8,1.6,3.2,3.4,3.2c0,0,0,0,0.1,0c0.1,0,0.2,0,0.2-0.1
		C637.1,537.6,637.2,537.5,637.2,537.4z"/>
	<path d="M633.7,528.3c0.1,0,0.2-0.1,0.3-0.2c0-0.1,0.1-0.1,0.1-0.2c0-1.5,1.3-2.8,2.8-2.8c0.2,0,0.4-0.2,0.4-0.4s-0.2-0.4-0.4-0.4
		c0,0,0,0-0.1,0c-1.8,0-3.3,1.5-3.4,3.3c0,0.1,0,0.1,0,0.2C633.3,528.1,633.5,528.3,633.7,528.3z"/>
	<path d="M654.7,527.2c0.2,0,0.4-0.2,0.4-0.4v-2.1c0-0.2-0.2-0.4-0.4-0.4h-6.3c-0.2,0-0.4,0.2-0.4,0.4v12.7c0,0.2,0.2,0.4,0.4,0.4
		s0.4-0.2,0.4-0.4v-12.3h5.6v1.7C654.4,527,654.5,527.2,654.7,527.2z"/>
	<path d="M665.3,518.7c-0.2,0-0.4-0.2-0.4-0.4c0-0.1,0.1-0.2,0.2-0.3c-2,0.1-3.8,1.4-4.4,3.4c-0.1,0.2,0.1,0.4,0.2,0.4
		c0,0,0.1,0,0.1,0c0.2,0,0.3-0.1,0.3-0.3C661.9,519.9,663.5,518.7,665.3,518.7C665.3,518.7,665.3,518.8,665.3,518.7
		c0.1,0.1,0.1,0,0.2,0C665.5,518.7,665.4,518.7,665.3,518.7C665.4,518.7,665.4,518.7,665.3,518.7z"/>
	<path d="M668.6,524.7L668.6,524.7c0.1-0.2,0.4-0.3,0.5-0.1c0.1,0.1,0.2,0.2,0.2,0.4c0.9-1.4,0.9-3.2,0.1-4.6
		c-0.8-1.5-2.3-2.4-4-2.4c-0.1,0-0.2,0-0.2,0.1c-0.1,0.1-0.2,0.2-0.2,0.3c0,0.2,0.2,0.4,0.4,0.4c0,0,0,0,0,0c0.1,0,0.1,0,0.2,0
		c1.3,0.1,2.6,0.8,3.2,2c0.7,1.2,0.6,2.7-0.1,3.9C668.6,524.6,668.6,524.7,668.6,524.7z"/>
	<path d="M669.1,524.6c-0.2-0.1-0.4-0.1-0.5,0.1l0,0l-7.8,12.5c-0.1,0.1-0.1,0.3,0,0.4c0.1,0.1,0.2,0.2,0.3,0.2h8.5
		c0.2,0,0.4-0.2,0.4-0.4s-0.2-0.4-0.4-0.4h-7.8l7.5-12c0,0,0-0.1,0-0.1C669.3,524.8,669.3,524.6,669.1,524.6z"/>
	<path d="M578.3,98.4c-0.1,0-0.2,0-0.2-0.1c-0.1-0.1-0.2-0.4,0-0.5l0,0l-2.2-2.1l-11.4,17.2l16.3-12.5l-2.2-2l0,0
		C578.5,98.3,578.4,98.4,578.3,98.4z"/>
	<path d="M626.4,45.9L578,97.8l0,0c-0.1,0.1-0.1,0.4,0,0.5c0.1,0.1,0.2,0.1,0.2,0.1c0.1,0,0.2,0,0.3-0.1l0,0L627,46.4
		c0.1-0.1,0.1-0.4,0-0.5C626.8,45.7,626.6,45.7,626.4,45.9z"/>
	<path d="M337.9,92.9c-0.1,0-0.2,0-0.2-0.1c-0.2-0.1-0.2-0.3-0.1-0.5l0,0l-2.4-1.8l-9.6,18.2l14.9-14.1l-2.4-1.8l0,0
		C338.1,92.8,338,92.9,337.9,92.9z"/>
	<path d="M372.9,45.9l-35.3,46.4l0,0c-0.1,0.2-0.1,0.4,0.1,0.5c0.1,0,0.1,0.1,0.2,0.1c0.1,0,0.2,0,0.3-0.1l0,0l35.3-46.4
		c0.1-0.2,0.1-0.4-0.1-0.5S373,45.8,372.9,45.9z"/>
	<path d="M332.6,439.7l8.9,18.5l2.5-1.8l0,0c-0.1-0.2-0.1-0.4,0.1-0.5s0.4-0.1,0.5,0.1l0,0l2.5-1.7L332.6,439.7z"/>
	<path d="M344.1,455.9c-0.2,0.1-0.2,0.3-0.1,0.5l0,0l41.3,58.3c0.1,0.1,0.2,0.2,0.3,0.2c0.1,0,0.1,0,0.2-0.1
		c0.2-0.1,0.2-0.3,0.1-0.5L344.6,456l0,0C344.5,455.9,344.3,455.8,344.1,455.9z"/>
	<path d="M557.9,452.1l8.5,18.7l2.5-1.7l0,0c-0.1-0.2-0.1-0.4,0.1-0.5c0.2-0.1,0.4-0.1,0.5,0.1l0,0l2.5-1.7L557.9,452.1z"/>
	<path d="M569,468.6c-0.2,0.1-0.2,0.3-0.1,0.5l0,0l31.4,46.7c0.1,0.1,0.2,0.2,0.3,0.2c0.1,0,0.1,0,0.2-0.1c0.2-0.1,0.2-0.3,0.1-0.5
		l-31.4-46.7l0,0C569.4,468.5,569.2,468.5,569,468.6z"/>
</g>
</svg>
