<svg id="图层_1" data-name="图层 1" xmlns="http://www.w3.org/2000/svg" viewBox="0 0 595.32001 841.91998"><path d="M97.42267,58.18451c.86035,2.08887,2.93945,3.09668,4.94433,3.65332l-.021.126a1.72425,1.72425,0,0,0-1.32276,1.30175,6.98311,6.98311,0,0,1-3.77929-5.081H96.00519v3.32812c.65088-.15722,1.396-.33593,2.1416-.53515l.021.084a20.50813,20.50813,0,0,1-2.80274,2.17285.954.954,0,0,1-.27344.34668l-1.291-1.69043c.51465-.34668.59863-.47265.59863-.7666V58.18451h-1.8374l-.084-.294h1.92139V53.52338l1.95215.2207c-.02051.11523-.11523.19922-.34619.23047v2.95019a17.66121,17.66121,0,0,0,3.39111-3.15918l1.669,1.28028c-.063.09472-.17871.15722-.41993.09472a18.59435,18.59435,0,0,1-4.64013,2.19336v.55664h4.105l.78711-1.07031s.90283.71387,1.42773,1.19629c-.03125.11621-.147.168-.30469.168Z"/><path d="M109.81232,58.02728a4.72637,4.72637,0,0,0,3.15966,1.14453l-.021.15723a2.03338,2.03338,0,0,0-1.01856,1.459,4.39195,4.39195,0,0,1-1.40625-1.08105v3.35938a2.56492,2.56492,0,0,1-1.34375.39843h-.29394V62.7724H106.7049v.294c0,.10546-.47266.4414-1.28125.4414h-.29395V59.749a9.00422,9.00422,0,0,1-2.28809,1.19629l-.07373-.084a8.04318,8.04318,0,0,0,2.57178-2.834h-2.27783l-.084-.29394h2.50928a8.96738,8.96738,0,0,0,.46192-1.0918h-2.06836l-.084-.29394h2.24658c.105-.35743.189-.70313.26221-1.06055h-2.834l-.084-.294H106.369c.084-.5039.14648-.99707.17822-1.46972l2.13135.35742c-.03174.15722-.14746.26172-.40967.27246-.05225.28418-.105.56738-.168.83984h2.13135l.75586-.95508s.86035.64063,1.375,1.08106c-.03125.11523-.147.168-.30469.168h-4.03125a9.60049,9.60049,0,0,1-.34619,1.06055h1.98389l.70361-.88184s.79785.59863,1.28076,1.00781c-.03125.11524-.147.168-.29394.168h-3.79a8.19154,8.19154,0,0,1-.55616,1.0918h3.54834l.78711-.98731s.90332.66211,1.43848,1.11328c-.021.11524-.147.168-.30469.168Zm.07324.7666a7.15022,7.15022,0,0,1-.36719-.7666h-2.69824a7.99272,7.99272,0,0,1-.72461.88184l.75586.27246h1.95312l.67188-.70313Zm-3.18066,1.97364h2.18359v-1.291H106.7049Zm2.18359,1.71093v-1.417H106.7049v1.417Z"/><path d="M118.90509,57.05072c.35742,1.92188,1.6377,3.75879,4.47266,4.80859l-.01075.126a1.63217,1.63217,0,0,0-1.35449,1.543c-2.2041-1.417-2.96-3.98926-3.2334-6.08887-.33593,2.53028-1.417,4.65039-5.34326,6.08887l-.084-.13672a7.5696,7.5696,0,0,0,3.83154-6.34082h-3.65332l-.084-.29395h3.75879c.0625-.99707.05224-2.04687.05224-3.15917l2.08936.18847c-.03174.168-.13672.2627-.38868.30469-.021.92383-.03125,1.81543-.105,2.666h2.02588l.87159-1.10253s.97607.73535,1.564,1.22851c-.03125.11524-.15723.168-.31445.168Z"/><path d="M133.93,56.40033c-.084.10449-.189.13672-.41992.14648a11.42648,11.42648,0,0,1-1.79541.83985l.47266.45117c-.084.09473-.189.127-.41992.14746-.5459.252-1.36475.57715-2.07862.8291l.3042.02149c-.02051.15722-.126.23047-.34619.27246v.66113h1.93164l.79785-1.05957s.91358.70312,1.44873,1.18652c-.03125.11524-.15722.168-.31494.168h-3.86328v1.7002c0,1.03906-.273,1.60644-2.13135,1.76367a1.65007,1.65007,0,0,0-.37793-1.0918,2.20321,2.20321,0,0,0-1.27-.53515v-.126s1.65869.10449,1.9419.10449c.168,0,.2207-.05176.2207-.18847v-1.627h-3.94727l-.084-.29492h4.03125v-1.0918l1.0708.084a13.5584,13.5584,0,0,0,.82959-1.13281h-4.063l-.09424-.29493H129.993l.83984-.78711.67188.64063c.10547-.30469.21-.67188.28369-.98633h-6.19385a1.51118,1.51118,0,0,1-.58789,1.63672.73233.73233,0,0,1-1.09179-.35645.78151.78151,0,0,1,.5039-.95507,1.56462,1.56462,0,0,0,.62989-1.52246l.126-.01075a3.46818,3.46818,0,0,1,.35694.91309h4.39892a16.09533,16.09533,0,0,0,.90234-2.37207l1.8794.70312c-.05225.11621-.17822.2002-.41992.168a16.46682,16.46682,0,0,1-1.98389,1.501h1.42774l.8081-.80762Zm-8.38818-2.74023c3.27539.43066,1.98437,2.93945.69336,1.94238a4.04822,4.04822,0,0,0-.77735-1.88965Zm2.415-.126c3.13867.71387,1.543,3.04394.33594,1.90039a4.57492,4.57492,0,0,0-.41993-1.8584Z"/><path d="M138.34113,60.13763a21.6809,21.6809,0,0,1-1.75342,2.43555,1.05282,1.05282,0,0,1-.37793.5459l-1.06006-1.5332c.53564-.30469.61963-.41993.61963-.67188V56.68353H134.4256l-.09473-.29394h1.459l.65136-.64063,1.17578.97656a.62017.62017,0,0,1-.45166.18848v3.7793c.36768-.209.75586-.41992,1.13379-.63965Zm-3.21241-6.47753c3.2544.26269,2.1626,2.71875.86084,1.86914a5.25562,5.25562,0,0,0-.94482-1.81641Zm6.42481,5.80566A5.23692,5.23692,0,0,0,144.451,61.3974l-.021.11523a1.63383,1.63383,0,0,0-1.09179,1.34375,5.22936,5.22936,0,0,1-1.96338-3.20214v3.50683c0,.09473-.43018.37793-1.144.37793h-.2622V60.872a7.60066,7.60066,0,0,1-2.93946,2.11035l-.09472-.126a6.97,6.97,0,0,0,2.29883-3.39062h-1.73194l-.084-.294h2.55127v-1.123h-.71387V58.164c0,.084-.39941.37793-1.08154.37793h-.2417V53.75482l1.46972.5459h2.53028l.61914-.69336,1.30176.98731a.72658.72658,0,0,1-.41993.23046v3.26465c0,.02149-.07324.06348-.17822.10547.13623.11524.79785.69336,1.20752,1.10254-.03174.11523-.14746.168-.29394.168Zm-2.29883-4.87109v1.417h.80811v-1.417Zm0,3.15918h.80811V56.3056h-.80811Zm2.02588-3.15918v1.417h.75586v-1.417Zm.75586,1.71093h-.75586v1.44825h.75586Zm-.66162,1.74317v1.123h1.17578l.65137-.95507a3.2107,3.2107,0,0,1-.92383.18847h-.2417v-.35644Z"/><path d="M147.71759,57.79681c2.583.98633,1.3125,2.96.31543,2.00489a5.2634,5.2634,0,0,0-.31543-1.54395v4.8711a1.42881,1.42881,0,0,1-1.144.39941h-.26221V60.18939a8.43859,8.43859,0,0,1-1.41748,1.52246l-.11572-.10449a12.97545,12.97545,0,0,0,1.38574-4.33594h-1.228l-.084-.29394h1.45947v-1.669c-.47266.05274-.95557.09375-1.41748.11524l-.03174-.10547a12.89038,12.89038,0,0,0,2.85547-1.76367l1.5752,1.35449a.81483.81483,0,0,1-.75586.02148c-.2417.0625-.51465.11524-.81934.17871v1.73145l.49365-.73438s.67188.59864,1.06006.99707c-.03125.11524-.13623.168-.2832.168h-1.27051Zm6.04688,3.957s.7246.61914,1.14453,1.03906c-.03125.11621-.13672.168-.29395.168h-6.08887l-.084-.293h2.47754V60.71478H149.2713l-.084-.29394h1.73242V58.58392h-1.81641l-.084-.29394h3.94726l.62989-.89258s.71386.6084,1.12353,1.01855c-.021.11524-.13623.168-.28369.168h-2.09961v1.83692h.31543l.66113-.90332s.76661.60937,1.207,1.02929c-.03125.11524-.13623.168-.29394.168h-1.88965v1.95313h.79785Zm-3.0127-4.45118c0,.126-.60889.43067-1.17578.43067h-.19922v-3.874l1.42773.5459h1.74219l.62988-.68261,1.3125.9873a.73381.73381,0,0,1-.41992.2207V57.082a2.34729,2.34729,0,0,1-1.17578.32617h-.24121v-.39941h-1.90039Zm0-2.60351v2.01562h1.90039V54.69916Z"/><path d="M159.51935,60.16888a25.98234,25.98234,0,0,1-2.00488,2.34082,1.12485,1.12485,0,0,1-.39893.60938l-1.06006-1.5332c.53516-.30469.61914-.41993.61914-.67188V56.68353h-1.14453l-.09424-.29394h1.25977l.65088-.64063,1.17578.97656a.6198.6198,0,0,1-.45117.18848v3.86328c.45117-.21972.93408-.45117,1.40625-.69238Zm-3.66358-6.50878c3.60108.03125,2.78174,2.74023,1.3335,2.01562A6.65712,6.65712,0,0,0,155.782,53.7226Zm8.95459,5.15429c-.07324.126-.17822.15821-.44043.18946a7.19736,7.19736,0,0,1-1.63769,2.35156,12.89568,12.89568,0,0,0,2.708.6084l-.01026.126a1.83945,1.83945,0,0,0-1.33349,1.459,7.31112,7.31112,0,0,1-2.52979-1.31153,10.42514,10.42514,0,0,1-3.74756,1.30176l-.05273-.11523a8.61617,8.61617,0,0,0,3.11816-1.90039,6.91245,6.91245,0,0,1-1.22851-2.82422h-.73487l-.09423-.294h3.76855l.7666-.72461h-.17871c-.96582,0-1.0708-.27246-1.0708-1.14355V54.62592h-1.11279v.52441c0,.92383-.2627,2.499-2.64551,3.28613l-.063-.084a3.871,3.871,0,0,0,1.28076-3.19141V53.77533l1.6377.55664h.78711l.68261-.74512,1.22852.96582a.57346.57346,0,0,1-.36768.15723v1.459c0,.11622.021.15723.147.15723h.51465a2.34527,2.34527,0,0,0,.2832-.02051c.07324-.01074.19922-.03125.2832-.05273h.09473l.063.02148c.31494.15723.40966.30371.40966.56641,0,.5459-.48339.83984-1.5957.83984h-.19971Zm-4.98632-.11523a4.25642,4.25642,0,0,0,1.73242,2.07812,7.05965,7.05965,0,0,0,1.10205-2.07812Z"/><path d="M168.84357,60.914c.52539-.18848,1.09179-.40918,1.66943-.64062l.03174.09472a25.06472,25.06472,0,0,1-2.28906,2.29981,1.06732,1.06732,0,0,1-.36719.48242l-1.0708-1.543c.49365-.30469.57763-.41992.57763-.67187v-4.168h-1.41748l-.09423-.29395h1.53222l.66162-.65137,1.186.98731a.59479.59479,0,0,1-.41992.18848Zm-1.97364-7.2539c3.53809.042,2.60352,2.74023,1.16553,1.95312a5.91873,5.91873,0,0,0-1.23877-1.89062Zm7.71631,2.76074s.87158.7041,1.38574,1.17578c-.03173.11621-.147.168-.30419.168h-2.4043v5.17578c0,.15723-.67188.53515-1.25977.53515h-.29394V57.76459h-2.1626l-.084-.29395h2.24658V53.60736l1.94238.18945c-.02148.14649-.084.252-.38867.294v3.37988h.5459Z"/><path d="M362.53644,62.46771a5.95294,5.95294,0,0,1-1.00781.07324,2.15655,2.15655,0,0,1-2.00538-.98632,27.87855,27.87855,0,0,1-1.249-2.582c-.11523-.2627-.87109-.32618-.87109-.32618v3.22266c0,.27344.168.37891.72412.43066.063.01075.105.03223.105.11621s-.03125.1045-.11524.1045h-3.18115c-.09424,0-.11572-.02051-.11572-.1045s.042-.10546.10547-.11621c.58789-.0625.75586-.14648.75586-.43066V55.36127c0-.29492-.168-.37891-.7666-.44141-.063-.01074-.105-.02148-.105-.11523,0-.084.05224-.10547.11572-.10547,1.44824,0,2.41406-.042,3.8418-.042,1.60644,0,2.61425.73535,2.61425,1.95312a1.82,1.82,0,0,1-1.55371,2.01563,22.5204,22.5204,0,0,0,1.51172,2.84472c.41992.65039.70313.78711,1.17578.78711.07324,0,.105.01074.105.09473S362.59943,62.457,362.53644,62.46771Zm-4.26221-7.42187c-.30469,0-.78711.02051-.87109.03125V57.8808c0,.33594.53515.41992,1.07031.41992.75586,0,1.27051-.65137,1.27051-1.70117A1.43424,1.43424,0,0,0,358.27423,55.04584Z"/><path d="M372.12286,62.52045h-3.18115c-.084,0-.11572-.02051-.11572-.1045s.042-.10546.10547-.11621c.5459-.05175.73437-.15722.73437-.43066V56.09564c0-.042-.02051-.0625-.042-.0625a.07533.07533,0,0,0-.0625.0625L367.451,62.21576c-.084.27344-.17871.30469-.40918.30469-.252,0-.31543-.05274-.43066-.31543l-2.44629-6.18262c-.02051-.042-.042-.07324-.0625-.07324-.02149,0-.042.03125-.042.11523v5.36426c0,.47266.39844.7666.97608.87109.063.01075.105.03223.105.11621s-.021.1045-.11524.1045h-2.32031c-.084,0-.11523-.02051-.11523-.1045s.05224-.10546.11523-.11621c.58789-.10449.85059-.40918.85059-.87109V55.78119c0-.4834-.252-.7666-.86133-.86133-.05225-.01074-.10449-.02148-.10449-.11523,0-.084.03125-.10547.11523-.10547h2.41455c.13623,0,.17823.084.231.19922l2.19434,5.40722,1.88964-5.40722c.042-.11524.07325-.19922.252-.19922h2.43554c.084,0,.11524.02148.11524.10547,0,.09375-.063.10449-.11524.11523-.57763.05274-.75586.168-.75586.47266v6.47656c0,.28418.18848.36816.75586.43066.0625.01075.11524.03223.11524.11621S372.20685,62.52045,372.12286,62.52045Z"/><path d="M376.0506,62.70892a6.621,6.621,0,0,1-2.37256-.47168c-.126-.042-.17822-.10547-.189-.18945a16.64884,16.64884,0,0,0-.30468-2.00488.45943.45943,0,0,0-.01026-.05274c0-.05273.03174-.07324.084-.09375a.20119.20119,0,0,1,.07373-.01074c.0625,0,.084.03125.10449.09473a3.29721,3.29721,0,0,0,2.6875,2.22461c1.08154,0,1.69043-.42969,1.69043-1.13282,0-.71484-.57715-1.292-1.96289-1.79589-1.79541-.63965-2.625-1.333-2.625-2.60352,0-1.28027,1.00781-2.16211,2.89746-2.16211a9.99615,9.99615,0,0,1,1.61719.23047.72367.72367,0,0,0,.15722.01074,2.25887,2.25887,0,0,0,.39893-.042.73246.73246,0,0,1,.126-.02051c.07373,0,.09424.041.105.14649.042.5039.168,1.48047.26269,1.99414v.05273a.05815.05815,0,0,1-.05273.06348.25608.25608,0,0,1-.07324.02051c-.06348,0-.084-.042-.10547-.1045a2.81787,2.81787,0,0,0-2.41407-1.87988c-1.18652,0-1.71142.41992-1.71142,1.04,0,.66113.5459,1.0918,2.10986,1.57422,1.76367.53613,2.74024,1.417,2.74024,2.80371C379.284,61.84857,378.22345,62.70892,376.0506,62.70892Z"/><path d="M388.03009,62.52045h-3.18066c-.09473,0-.11573-.02051-.11573-.1045s.042-.10546.105-.11621c.55664-.05175.72461-.15722.72461-.43066V58.75189h-2.835v3.11719c0,.27344.168.37891.72461.43066.063.01075.105.03223.105.11621s-.021.1045-.11572.1045h-3.18066c-.084,0-.11524-.02051-.11524-.1045s.05225-.10546.10449-.11621c.58789-.0625.75586-.14648.75586-.43066V55.35052c0-.28417-.168-.36816-.75586-.43066-.05224-.01074-.10449-.03125-.10449-.11523s.03125-.10547.11524-.10547h3.18066c.09473,0,.11572.02148.11572.10547s-.042.10449-.105.11523c-.55664.05274-.72461.15723-.72461.43066V58.248h2.835V55.35052c0-.27343-.168-.37792-.72461-.43066-.063-.01074-.105-.03125-.105-.11523s.021-.10547.11573-.10547h3.18066c.084,0,.11523.02148.11523.10547s-.05224.10449-.10449.11523c-.58789.0625-.75586.14649-.75586.43066v6.51856c0,.28418.168.36816.75586.43066.05225.01075.10449.03223.10449.11621S388.11407,62.52045,388.03009,62.52045Z"/><path d="M395.44318,60.3476a19.24551,19.24551,0,0,0-.39844,2.03613c-.02149.168-.06348.18945-.168.18945-1.46973-.03223-2.13135-.05273-2.751-.05273h-3.15966c-.09424,0-.11573-.02051-.11573-.1045s.042-.10546.10547-.11621c.58789-.0625.75586-.14648.75586-.43066V55.36127c0-.29492-.168-.37891-.75586-.44141-.06347-.01074-.10547-.02148-.10547-.11523,0-.084.02149-.10547.11573-.10547h3.78955a15.96177,15.96177,0,0,0,1.8374-.10449h.03174c.07324,0,.15722.042.17822.17871.03174.41992.168,1.44824.26221,1.95214v.042c0,.05273-.01026.0625-.0625.07324a.266.266,0,0,1-.07373.02148c-.063,0-.084-.042-.105-.10547a2.29951,2.29951,0,0,0-2.13086-1.69042h-1.25977v3.21289c.17822,0,.86035,0,.97607-.01075a.90149.90149,0,0,0,.50391-.26269,4.26726,4.26726,0,0,0,.66162-1.1543c.01026-.0625.042-.084.084-.084a.12859.12859,0,0,1,.0625.01074c.07373.02051.10547.042.10547.10449V56.914a9.82351,9.82351,0,0,0-.168,1.55469,10.022,10.022,0,0,0,.168,1.56348v.03222c0,.0625-.03174.084-.10547.10449-.02051,0-.03125.01075-.042.01075-.0625,0-.084-.03125-.10449-.09473a3.92306,3.92306,0,0,0-.67187-1.14453.97467.97467,0,0,0-.49366-.252c-.11572-.01075-.79785-.02051-.97607-.02051v3.0332a.35939.35939,0,0,0,.31445.36816,3.74286,3.74286,0,0,0,.69336.05176,4.00435,4.00435,0,0,0,1.08106-.10449,3.11463,3.11463,0,0,0,1.64844-1.72168c.042-.0625.0625-.10547.11523-.10547a.25866.25866,0,0,1,.07324.02149c.06348.02148.09473.03125.09473.084C395.45392,60.31635,395.44318,60.32611,395.44318,60.3476Z"/><path d="M397.8797,62.65717a.98687.98687,0,1,1,.97656-.98731A1.0137,1.0137,0,0,1,397.8797,62.65717Z"/><path d="M406.0799,60.21088a19.88605,19.88605,0,0,0-.39893,2.1416c-.021.126-.042.168-.147.168h-5.00782a.11894.11894,0,0,1-.13623-.126.86558.86558,0,0,1,.09424-.30469,7.05441,7.05441,0,0,1,2.541-3.26465,2.92077,2.92077,0,0,0,1.21777-2.24707c0-.99707-.57764-1.53222-1.27051-1.53222-.56689,0-.92382.26269-.92382.70312,0,.37793.26269.58789.26269.94531a.80944.80944,0,0,1-.80859.76661.7955.7955,0,0,1-.8291-.89258c0-1.03906.87109-2.05762,2.55078-2.05762,1.66894,0,2.6875.88184,2.6875,2.1416,0,1.21778-.61914,1.98438-2.39356,2.834A4.03326,4.03326,0,0,0,401.7757,61.166h.33593c.41993,0,1.15479-.00976,1.81592-.0625.88184-.07421,1.45947-.11523,1.90039-.94531a.09155.09155,0,0,1,.09473-.0625.21857.21857,0,0,1,.07324.00977c.063.02148.09473.043.09473.07422C406.09064,60.18939,406.0799,60.20013,406.0799,60.21088Z"/><path d="M410.33282,62.70892c-2.21533,0-2.84521-1.83691-2.84521-4.09375,0-1.94238.59814-4.10449,2.84521-4.10449,2.23584,0,2.86573,1.9209,2.86573,4.10449C413.19855,60.58881,412.56866,62.70892,410.33282,62.70892Zm0-7.67382c-.80859,0-1.13378,1.28125-1.13378,3.59082,0,2.37207.32519,3.52734,1.13378,3.52734.80811,0,1.13379-1.15527,1.13379-3.52734C411.46661,56.31635,411.14093,55.0351,410.33282,55.0351Z"/><path d="M420.02374,60.21088a20.0082,20.0082,0,0,0-.39892,2.1416c-.021.126-.042.168-.147.168h-5.00732c-.084,0-.13672-.042-.13672-.126a.84836.84836,0,0,1,.09473-.30469,7.04759,7.04759,0,0,1,2.54-3.26465,2.91928,2.91928,0,0,0,1.21777-2.24707c0-.99707-.57715-1.53222-1.27-1.53222-.56689,0-.92383.26269-.92383.70312,0,.37793.26221.58789.26221.94531a.80863.80863,0,0,1-.80811.76661.79586.79586,0,0,1-.82959-.89258c0-1.03906.87159-2.05762,2.55127-2.05762,1.66944,0,2.6875.88184,2.6875,2.1416,0,1.21778-.61962,1.98438-2.39355,2.834a4.03055,4.03055,0,0,0-1.74268,1.67968h.33594c.41992,0,1.15479-.00976,1.81641-.0625.88183-.07421,1.459-.11523,1.8999-.94531a.09133.09133,0,0,1,.09424-.0625.21981.21981,0,0,1,.07373.00977c.063.02148.09424.043.09424.07422C420.034,60.18939,420.02374,60.20013,420.02374,60.21088Z"/><path d="M426.99542,60.21088a20.0082,20.0082,0,0,0-.39892,2.1416c-.021.126-.042.168-.147.168H421.4422c-.084,0-.13672-.042-.13672-.126a.84836.84836,0,0,1,.09473-.30469,7.04759,7.04759,0,0,1,2.54-3.26465,2.91928,2.91928,0,0,0,1.21777-2.24707c0-.99707-.57715-1.53222-1.27-1.53222-.56689,0-.92383.26269-.92383.70312,0,.37793.26221.58789.26221.94531a.80863.80863,0,0,1-.80811.76661.79586.79586,0,0,1-.82959-.89258c0-1.03906.87159-2.05762,2.55127-2.05762,1.66944,0,2.6875.88184,2.6875,2.1416,0,1.21778-.61963,1.98438-2.39355,2.834a4.03055,4.03055,0,0,0-1.74268,1.67968h.33594c.41992,0,1.15479-.00976,1.81641-.0625.88183-.07421,1.459-.11523,1.8999-.94531a.09133.09133,0,0,1,.09424-.0625.21981.21981,0,0,1,.07373.00977c.063.02148.09424.043.09424.07422C427.00568,60.18939,426.99542,60.20013,426.99542,60.21088Z"/><path d="M429.77814,62.65717a.98687.98687,0,1,1,.97656-.98731A1.0137,1.0137,0,0,1,429.77814,62.65717Z"/><path d="M437.13849,62.52045h-3.59033c-.11573,0-.15772-.01075-.15772-.09473s.03174-.11523.11572-.126c.75586-.07324.96582-.23047.96582-.5039V55.84369c0-.11524-.03173-.17871-.126-.17871a3.06351,3.06351,0,0,0-.68213.23144.1231.1231,0,0,1-.05273.00977.15432.15432,0,0,1-.13672-.168.14413.14413,0,0,1,.09472-.13574c.79785-.31543,1.88965-.79785,2.50879-1.08106.01074-.01074.02149-.01074.042-.01074.05274,0,.11573.084.11573.15723v7.12793c0,.30468.17822.43066.93408.5039.09473.01075.11572.042.11572.126S437.25372,62.52045,437.13849,62.52045Z"/><path d="M444.95,60.21088a19.88565,19.88565,0,0,0-.39892,2.1416c-.021.126-.042.168-.147.168H439.3963a.11894.11894,0,0,1-.13623-.126.86558.86558,0,0,1,.09424-.30469,7.05438,7.05438,0,0,1,2.541-3.26465,2.92075,2.92075,0,0,0,1.21778-2.24707c0-.99707-.57764-1.53222-1.27051-1.53222-.56689,0-.92383.26269-.92383.70312,0,.37793.2627.58789.2627.94531a.80944.80944,0,0,1-.8086.76661.79551.79551,0,0,1-.8291-.89258c0-1.03906.8711-2.05762,2.55078-2.05762,1.66895,0,2.6875.88184,2.6875,2.1416,0,1.21778-.61914,1.98438-2.39355,2.834a4.03329,4.03329,0,0,0-1.74268,1.67968h.33594c.41992,0,1.15479-.00976,1.81592-.0625.88183-.07421,1.45947-.11523,1.90039-.94531a.09155.09155,0,0,1,.09473-.0625.2186.2186,0,0,1,.07324.00977c.063.02148.09472.043.09472.07422C444.96075,60.18939,444.95,60.20013,444.95,60.21088Z"/><path d="M447.73322,62.65717a.98688.98688,0,1,1,.97607-.98731A1.01423,1.01423,0,0,1,447.73322,62.65717Z"/><path d="M453.21368,62.70892c-2.21484,0-2.84472-1.83691-2.84472-4.09375,0-1.94238.59863-4.10449,2.84472-4.10449,2.23633,0,2.86622,1.9209,2.86622,4.10449C456.0799,60.58881,455.45,62.70892,453.21368,62.70892Zm0-7.67382c-.8081,0-1.13378,1.28125-1.13378,3.59082,0,2.37207.32568,3.52734,1.13378,3.52734.8086,0,1.13379-1.15527,1.13379-3.52734C454.34747,56.31635,454.02228,55.0351,453.21368,55.0351Z"/><path d="M460.17511,62.70892c-1.8999,0-2.88721-.93359-2.88721-2.30859a2.09225,2.09225,0,0,1,1.45948-2.04785,2.064,2.064,0,0,1-1.13379-1.87891c0-1.17578.93408-1.96289,2.58252-1.96289,1.72168,0,2.58252.85059,2.58252,1.96289a1.87152,1.87152,0,0,1-1.24952,1.77442,2.30488,2.30488,0,0,1,1.5752,2.12011C463.10431,61.76459,462.159,62.70892,460.17511,62.70892Zm-.68213-3.86328a1.56127,1.56127,0,0,0-.92383,1.44922,1.72751,1.72751,0,0,0,1.55371,1.84766,1.08872,1.08872,0,0,0,1.186-1.207A2.4358,2.4358,0,0,0,459.493,58.84564Zm.71387-3.78906c-.68262,0-1.04981.38867-1.04981,1.12305,0,.61914.40918,1.09179,1.585,1.62695a1.36554,1.36554,0,0,0,.8711-1.28027A1.43426,1.43426,0,0,0,460.20685,55.05658Z"/><path d="M465.68732,62.65717a.98687.98687,0,1,1,.97656-.98731A1.0137,1.0137,0,0,1,465.68732,62.65717Z"/><path d="M477.4256,62.52045h-3.18115c-.084,0-.11573-.02051-.11573-.1045s.042-.10546.10547-.11621c.5459-.05175.73438-.15722.73438-.43066V56.09564c0-.042-.02051-.0625-.042-.0625a.07535.07535,0,0,0-.0625.0625l-2.11035,6.12012c-.084.27344-.17871.30469-.40918.30469-.252,0-.31543-.05274-.43066-.31543l-2.44629-6.18262c-.02051-.042-.042-.07324-.0625-.07324-.02148,0-.042.03125-.042.11523v5.36426c0,.47266.39844.7666.97607.87109.063.01075.105.03223.105.11621s-.021.1045-.11523.1045h-2.32031c-.084,0-.11524-.02051-.11524-.1045s.05225-.10546.11524-.11621c.58789-.10449.85058-.40918.85058-.87109V55.78119c0-.4834-.252-.7666-.86133-.86133-.05224-.01074-.10449-.02148-.10449-.11523,0-.084.03125-.10547.11524-.10547h2.41455c.13623,0,.17822.084.231.19922l2.19434,5.40722,1.88965-5.40722c.042-.11524.07324-.19922.252-.19922h2.43555c.084,0,.11523.02148.11523.10547,0,.09375-.063.10449-.11523.11523-.57764.05274-.75586.168-.75586.47266v6.47656c0,.28418.18848.36816.75586.43066.0625.01075.11523.03223.11523.11621S477.50958,62.52045,477.4256,62.52045Z"/><path d="M484.13556,62.2265a1.93709,1.93709,0,0,1-1.25977.45117c-.66162,0-.96582-.252-1.06054-.78711a2.37286,2.37286,0,0,1-1.97364.78711,1.353,1.353,0,0,1-1.49072-1.38574c0-1.07031.59815-1.63769,2.07861-1.89941.35694-.06348.83985-.168,1.23877-.28418,0-1.123-.5039-1.52246-1.12353-1.52246-.58789,0-.8291.21093-.8291.49414,0,.24121.13672.27246.13672.57715,0,.35644-.2417.54589-.66163.54589a.63378.63378,0,0,1-.66162-.68261c0-.81836.89258-1.4795,2.4043-1.4795,1.69043,0,2.38281.83985,2.38281,2.09961v2.27735c0,.4834.05274.68261.33594.68261a.727.727,0,0,0,.35742-.11523c.042-.02148.0625-.042.09424-.042.021,0,.042.02051.07373.0625a.17353.17353,0,0,1,.03125.09472A.16259.16259,0,0,1,484.13556,62.2265Zm-2.42529-2.57226c-.31495.10546-.67188.1582-.98682.24218a1.00562,1.00562,0,0,0-.88184,1.10157.77491.77491,0,0,0,.8711.7666h.03174a1.18639,1.18639,0,0,0,.96582-.47266Z"/><path d="M489.09161,58.7724c-.96582,0-.15722-.96582-1.15478-.96582a.9629.9629,0,0,0-.98682.92383v3.10742c0,.29394.15723.41992.58789.46191.063.01075.105.03223.105.11621s-.03173.1045-.11572.1045h-2.77148c-.09424,0-.11524-.02051-.11524-.1045s.042-.10546.105-.11621c.43018-.042.58789-.168.58789-.46191V58.122c0-.28418-.03174-.31543-.53564-.31543a.12076.12076,0,0,1-.126-.126.12686.12686,0,0,1,.09473-.13574c.68262-.127,1.42773-.31543,2.06836-.49414h.03125c.063,0,.084.042.084.13672v.58789a2.32441,2.32441,0,0,1,1.64844-.73438,1.04064,1.04064,0,0,1,1.08105,1.01758C489.6795,58.54193,489.49054,58.7724,489.09161,58.7724Z"/><path d="M496.57745,62.52045h-2.13134c-.15723,0-.18848-.042-.27246-.168L492.452,59.8017l-.17872.11523v1.9209c0,.29394.22071.41992.62989.46191.063.01075.105.03223.105.11621s-.03174.1045-.11572.1045h-2.77149c-.09424,0-.11523-.02051-.11523-.1045s.042-.10546.105-.11621c.43017-.042.58789-.168.58789-.46191V55.581c0-.27246-.01026-.30371-.53565-.30371a.133.133,0,0,1-.03125-.26269A19.47774,19.47774,0,0,0,492.2,54.51068h.03125c.063,0,.084.042.084.13574V59.371l1.6167-1.32226a.32917.32917,0,0,0,.11572-.23145c0-.168-.14746-.32519-.44141-.39941-.10449-.02051-.126-.041-.126-.125,0-.09473.03173-.09473.15771-.09473h2.1626c.11523,0,.147,0,.147.09473,0,.084-.021.10449-.11572.125a3.4523,3.4523,0,0,0-1.30176.67187l-.95508.78809,2.1836,3.07519a1.14147,1.14147,0,0,0,.8291.33594c.07373.01074.10547.03223.10547.10547C496.69318,62.4892,496.67169,62.52045,496.57745,62.52045Z"/><path d="M501.66,62.52045h-3.59033c-.11572,0-.15771-.01075-.15771-.09473s.03173-.11523.11572-.126c.75586-.07324.96582-.23047.96582-.5039V55.84369c0-.11524-.03174-.17871-.126-.17871a3.06368,3.06368,0,0,0-.68213.23144.1231.1231,0,0,1-.05273.00977.15433.15433,0,0,1-.13672-.168.14414.14414,0,0,1,.09473-.13574c.79785-.31543,1.88965-.79785,2.50879-1.08106.01074-.01074.02148-.01074.042-.01074.05273,0,.11572.084.11572.15723v7.12793c0,.30468.17822.43066.93408.5039.09473.01075.11573.042.11573.126S501.77521,62.52045,501.66,62.52045Z"/><rect x="88.5" y="68.82001" width="418.32001" height="0.71997"/><path d="M464.47638,788.64545h-1.1543v1.79492h-1.49121v-1.79492h-3.06543v-.88184l3.39112-4.89258h1.16552v4.68262h1.1543Zm-2.64551-1.0918v-3.55957l-2.47754,3.55957Z"/><path d="M466.49347,786.07318a4.8112,4.8112,0,0,1,1.41748-.18848c1.77393,0,2.86572.80762,2.86572,2.25684,0,1.60645-1.30176,2.47754-3.08642,2.47754-1.46973,0-2.36231-.72461-2.44629-1.86914a.72441.72441,0,0,1,.68261-.47266c.43067,0,.67188.23145.74512.85059l.14746,1.04a1.54563,1.54563,0,0,0,.56641.084c.95557,0,1.5957-.71484,1.5957-1.92187,0-1.249-.5664-1.87891-1.501-1.87891a3.81708,3.81708,0,0,0-1.207.17871l-.30468-.20019.252-3.51661H470.493v1.292H466.6297Z"/><path d="M479.76544,781.99994h.90235l-3.18067,10.34082h-.90283Z"/><path d="M491.68243,790.11517v.3252h-4.67187v-.3252l1.50146-.18945c.01026-.66113.021-1.333.021-1.97363v-4.251l-1.23877.11524v-.38868l2.84522-.65039.15722.11524-.042,1.71093v3.34864c0,.64062.01074,1.3125.021,1.97363Z"/><path d="M498.37091,789.14935v1.291h-5.25976V789.496c.57763-.63086,1.18652-1.22851,1.70117-1.76367,1.19629-1.22851,1.66894-1.94238,1.66894-3.03418,0-.9873-.49316-1.60644-1.30176-1.60644a1.792,1.792,0,0,0-.39892.042l-.231,1.03906c-.11523.71387-.46191.88184-.78711.88184a.73621.73621,0,0,1-.68261-.44043c.09472-1.21778,1.28076-1.87989,2.6875-1.87989,1.65869,0,2.4248.87207,2.4248,2.0586,0,1.09179-.89209,2.04687-2.89746,3.35937-.35645.252-.81836.61914-1.30176.99707Z"/><path d="M504.98517,788.64545h-1.1543v1.79492h-1.49121v-1.79492h-3.06543v-.88184l3.39111-4.89258h1.16553v4.68262h1.1543Zm-2.64551-1.0918v-3.55957l-2.47754,3.55957Z"/></svg>