  0
SECTION
  2
HEADER
  9
$ACADVER
  1
AC1015
  9
$ACADMAINTVER
 70
     6
  9
$DWGCODEPAGE
  3
ANSI_1252
  9
$INSBASE
 10
0.0
 20
0.0
 30
0.0
  9
$EXTMIN
 10
0.0
 20
0.0
 30
0.0
  9
$EXTMAX
 10
83.400047
 20
62.0
 30
2.0
  9
$LIMMIN
 10
0.0
 20
0.0
  9
$LIMMAX
 10
420.0
 20
297.0
  9
$ORTHOMODE
 70
     0
  9
$REGENMODE
 70
     1
  9
$FILLMODE
 70
     1
  9
$QTEXTMODE
 70
     0
  9
$MIRRTEXT
 70
     1
  9
$LTSCALE
 40
1.0
  9
$ATTMODE
 70
     1
  9
$TEXTSIZE
 40
2.5
  9
$TRACEWID
 40
1.0
  9
$TEXTSTYLE
  7
Standard
  9
$CLAYER
  8
0
  9
$CELTYPE
  6
ByLayer
  9
$CECOLOR
 62
   256
  9
$CELTSCALE
 40
1.0
  9
$DISPSILH
 70
     0
  9
$DIMSCALE
 40
1.0
  9
$DIMASZ
 40
2.5
  9
$DIMEXO
 40
0.625
  9
$DIMDLI
 40
3.75
  9
$DIMRND
 40
0.0
  9
$DIMDLE
 40
0.0
  9
$DIMEXE
 40
1.25
  9
$DIMTP
 40
0.0
  9
$DIMTM
 40
0.0
  9
$DIMTXT
 40
2.5
  9
$DIMCEN
 40
2.5
  9
$DIMTSZ
 40
0.0
  9
$DIMTOL
 70
     0
  9
$DIMLIM
 70
     0
  9
$DIMTIH
 70
     0
  9
$DIMTOH
 70
     0
  9
$DIMSE1
 70
     0
  9
$DIMSE2
 70
     0
  9
$DIMTAD
 70
     1
  9
$DIMZIN
 70
     8
  9
$DIMBLK
  1

  9
$DIMASO
 70
     1
  9
$DIMSHO
 70
     1
  9
$DIMPOST
  1

  9
$DIMAPOST
  1

  9
$DIMALT
 70
     0
  9
$DIMALTD
 70
     3
  9
$DIMALTF
 40
0.03937
  9
$DIMLFAC
 40
1.0
  9
$DIMTOFL
 70
     1
  9
$DIMTVP
 40
0.0
  9
$DIMTIX
 70
     0
  9
$DIMSOXD
 70
     0
  9
$DIMSAH
 70
     0
  9
$DIMBLK1
  1

  9
$DIMBLK2
  1

  9
$DIMSTYLE
  2
STANDARD
  9
$DIMCLRD
 70
     0
  9
$DIMCLRE
 70
     0
  9
$DIMCLRT
 70
     0
  9
$DIMTFAC
 40
1.0
  9
$DIMGAP
 40
0.625
  9
$DIMJUST
 70
     0
  9
$DIMSD1
 70
     0
  9
$DIMSD2
 70
     0
  9
$DIMTOLJ
 70
     0
  9
$DIMTZIN
 70
     8
  9
$DIMALTZ
 70
     0
  9
$DIMALTTZ
 70
     0
  9
$DIMUPT
 70
     0
  9
$DIMDEC
 70
     2
  9
$DIMTDEC
 70
     2
  9
$DIMALTU
 70
     2
  9
$DIMALTTD
 70
     3
  9
$DIMTXSTY
  7
Standard
  9
$DIMAUNIT
 70
     0
  9
$DIMADEC
 70
     0
  9
$DIMALTRND
 40
0.0
  9
$DIMAZIN
 70
     0
  9
$DIMDSEP
 70
    44
  9
$DIMATFIT
 70
     0
  9
$DIMFRAC
 70
     0
  9
$DIMLDRBLK
  1

  9
$DIMLUNIT
 70
     2
  9
$DIMLWD
 70
    -2
  9
$DIMLWE
 70
    -2
  9
$DIMTMOVE
 70
     0
  9
$LUNITS
 70
     2
  9
$LUPREC
 70
     4
  9
$SKETCHINC
 40
1.0
  9
$FILLETRAD
 40
2.5
  9
$AUNITS
 70
     0
  9
$AUPREC
 70
     0
  9
$MENU
  1
.
  9
$ELEVATION
 40
0.0
  9
$PELEVATION
 40
0.0
  9
$THICKNESS
 40
0.0
  9
$LIMCHECK
 70
     0
  9
$CHAMFERA
 40
2.5
  9
$CHAMFERB
 40
2.5
  9
$CHAMFERC
 40
0.0
  9
$CHAMFERD
 40
0.0
  9
$SKPOLY
 70
     0
  9
$TDCREATE
 40
2447893.333333333
  9
$TDUCREATE
 40
0.0
  9
$TDUPDATE
 40
2459908.404799202
  9
$TDUUPDATE
 40
2459908.071465868
  9
$TDINDWG
 40
0.0
  9
$TDUSRTIMER
 40
0.0
  9
$USRTIMER
 70
     1
  9
$ANGBASE
 50
0.0
  9
$ANGDIR
 70
     0
  9
$PDMODE
 70
     0
  9
$PDSIZE
 40
0.0
  9
$PLINEWID
 40
0.0
  9
$SPLFRAME
 70
     0
  9
$SPLINETYPE
 70
     6
  9
$SPLINESEGS
 70
     8
  9
$HANDSEED
  5
245
  9
$SURFTAB1
 70
     6
  9
$SURFTAB2
 70
     6
  9
$SURFTYPE
 70
     6
  9
$SURFU
 70
     6
  9
$SURFV
 70
     6
  9
$UCSBASE
  2

  9
$UCSNAME
  2

  9
$UCSORG
 10
0.0
 20
0.0
 30
0.0
  9
$UCSXDIR
 10
1.0
 20
0.0
 30
0.0
  9
$UCSYDIR
 10
0.0
 20
1.0
 30
0.0
  9
$UCSORTHOREF
  2

  9
$UCSORTHOVIEW
 70
     1
  9
$UCSORGTOP
 10
0.0
 20
0.0
 30
0.0
  9
$UCSORGBOTTOM
 10
0.0
 20
0.0
 30
0.0
  9
$UCSORGLEFT
 10
0.0
 20
0.0
 30
0.0
  9
$UCSORGRIGHT
 10
0.0
 20
0.0
 30
0.0
  9
$UCSORGFRONT
 10
0.0
 20
0.0
 30
0.0
  9
$UCSORGBACK
 10
0.0
 20
0.0
 30
0.0
  9
$PUCSBASE
  2

  9
$PUCSNAME
  2

  9
$PUCSORG
 10
0.0
 20
0.0
 30
0.0
  9
$PUCSXDIR
 10
1.0
 20
0.0
 30
0.0
  9
$PUCSYDIR
 10
0.0
 20
1.0
 30
0.0
  9
$PUCSORTHOREF
  2

  9
$PUCSORTHOVIEW
 70
     0
  9
$PUCSORGTOP
 10
0.0
 20
0.0
 30
0.0
  9
$PUCSORGBOTTOM
 10
0.0
 20
0.0
 30
0.0
  9
$PUCSORGLEFT
 10
0.0
 20
0.0
 30
0.0
  9
$PUCSORGRIGHT
 10
0.0
 20
0.0
 30
0.0
  9
$PUCSORGFRONT
 10
0.0
 20
0.0
 30
0.0
  9
$PUCSORGBACK
 10
0.0
 20
0.0
 30
0.0
  9
$USERI1
 70
     0
  9
$USERI2
 70
     0
  9
$USERI3
 70
     0
  9
$USERI4
 70
     0
  9
$USERI5
 70
     0
  9
$USERR1
 40
0.0
  9
$USERR2
 40
0.0
  9
$USERR3
 40
0.0
  9
$USERR4
 40
0.0
  9
$USERR5
 40
0.0
  9
$WORLDVIEW
 70
     1
  9
$SHADEDGE
 70
     3
  9
$SHADEDIF
 70
    70
  9
$TILEMODE
 70
     1
  9
$MAXACTVP
 70
    64
  9
$PINSBASE
 10
0.0
 20
0.0
 30
0.0
  9
$PLIMCHECK
 70
     0
  9
$PEXTMIN
 10
0.0
 20
0.0
 30
0.0
  9
$PEXTMAX
 10
83.400047
 20
62.0
 30
2.0
  9
$PLIMMIN
 10
0.0
 20
0.0
  9
$PLIMMAX
 10
420.0
 20
297.0
  9
$UNITMODE
 70
     0
  9
$VISRETAIN
 70
     0
  9
$PLINEGEN
 70
     0
  9
$PSLTSCALE
 70
     1
  9
$TREEDEPTH
 70
  3020
  9
$CMLSTYLE
  2
Standard
  9
$CMLJUST
 70
     0
  9
$CMLSCALE
 40
20.0
  9
$PROXYGRAPHICS
 70
     1
  9
$MEASUREMENT
 70
     1
  9
$CELWEIGHT
370
    -1
  9
$ENDCAPS
280
     0
  9
$JOINSTYLE
280
     0
  9
$LWDISPLAY
290
     0
  9
$INSUNITS
 70
     0
  9
$HYPERLINKBASE
  1

  9
$STYLESHEET
  1

  9
$XEDIT
290
     1
  9
$CEPSNTYPE
380
     0
  9
$PSTYLEMODE
290
     0
  9
$FINGERPRINTGUID
  2
{9952288C-F37B-454A-9C8E-545140FFFF6E}
  9
$VERSIONGUID
  2
{FAEB1C32-E019-11D5-929B-00C0DF256EC4}
  9
$EXTNAMES
290
     1
  9
$PSVPSCALE
 40
0.0
  9
$OLESTARTUP
290
     0
  0
ENDSEC
  0
SECTION
  2
CLASSES
  0
CLASS
  1
ACDBDICTIONARYWDFLT
  2
AcDbDictionaryWithDefault
  3
ObjectDBX Classes
 90
        0
280
     0
281
     0
  0
CLASS
  1
VISUALSTYLE
  2
AcDbVisualStyle
  3
ObjectDBX Classes
 90
     4095
280
     0
281
     0
  0
CLASS
  1
MATERIAL
  2
AcDbMaterial
  3
ObjectDBX Classes
 90
     1153
280
     0
281
     0
  0
CLASS
  1
SCALE
  2
AcDbScale
  3
ObjectDBX Classes
 90
     1153
280
     0
281
     0
  0
CLASS
  1
TABLESTYLE
  2
AcDbTableStyle
  3
ObjectDBX Classes
 90
     4095
280
     0
281
     0
  0
CLASS
  1
MLEADERSTYLE
  2
AcDbMLeaderStyle
  3
ACDB_MLEADERSTYLE_CLASS
 90
     4095
280
     0
281
     0
  0
CLASS
  1
SUN
  2
AcDbSun
  3
SCENEOE
 90
     1153
280
     0
281
     0
  0
CLASS
  1
ACDBPLACEHOLDER
  2
AcDbPlaceHolder
  3
ObjectDBX Classes
 90
        0
280
     0
281
     0
  0
CLASS
  1
LAYOUT
  2
AcDbLayout
  3
ObjectDBX Classes
 90
        0
280
     0
281
     0
  0
ENDSEC
  0
SECTION
  2
TABLES
  0
TABLE
  2
VPORT
  5
8
330
0
100
AcDbSymbolTable
 70
     1
  0
VPORT
  5
29
330
8
100
AcDbSymbolTableRecord
100
AcDbViewportTableRecord
  2
*Active
 70
     0
 10
0.0
 20
0.0
 11
1.0
 21
1.0
 12
10.429907
 22
4.5
 13
0.0
 23
0.0
 14
0.5
 24
0.5
 15
0.5
 25
0.5
 16
0.0
 26
0.0
 36
1.0
 17
0.0
 27
0.0
 37
0.0
 40
9.0
 41
1.972973
 42
50.0
 43
0.0
 44
0.0
 50
0.0
 51
0.0
 71
     0
 72
   100
 73
     1
 74
     3
 75
     0
 76
     0
 77
     0
 78
     0
281
     0
 65
     1
110
0.0
120
0.0
130
0.0
111
1.0
121
0.0
131
0.0
112
0.0
122
1.0
132
0.0
 79
     0
146
0.0
  0
ENDTAB
  0
TABLE
  2
LTYPE
  5
5
330
0
100
AcDbSymbolTable
 70
     2
  0
LTYPE
  5
14
330
5
100
AcDbSymbolTableRecord
100
AcDbLinetypeTableRecord
  2
ByBlock
 70
     0
  3

 72
    65
 73
     0
 40
0.0
  0
LTYPE
  5
15
330
5
100
AcDbSymbolTableRecord
100
AcDbLinetypeTableRecord
  2
ByLayer
 70
     0
  3

 72
    65
 73
     0
 40
0.0
  0
LTYPE
  5
16
330
5
100
AcDbSymbolTableRecord
100
AcDbLinetypeTableRecord
  2
Continuous
 70
     0
  3
Solid line
 72
    65
 73
     0
 40
0.0
  0
LTYPE
  5
6F
330
5
100
AcDbSymbolTableRecord
100
AcDbLinetypeTableRecord
  2
DASHDOT
 70
     0
  3
 __ . __ . __ . __ . __ . __ . __ . 
 72
    65
 73
     4
 40
18.5
 49
12.0
 74
     0
 49
-3.0
 74
     0
 49
0.5
 74
     0
 49
-3.0
 74
     0
  0
ENDTAB
  0
TABLE
  2
LAYER
  5
2
330
0
100
AcDbSymbolTable
 70
     1
  0
LAYER
  5
10
330
2
100
AcDbSymbolTableRecord
100
AcDbLayerTableRecord
  2
0
 70
     0
 62
     7
  6
Continuous
370
    13
390
F
  0
ENDTAB
  0
TABLE
  2
STYLE
  5
3
330
0
100
AcDbSymbolTable
 70
     2
  0
STYLE
  5
11
330
3
100
AcDbSymbolTableRecord
100
AcDbTextStyleTableRecord
  2
Standard
 70
     0
 40
0.0
 41
1.0
 50
0.0
 71
     0
 42
2.5
  3
isocp.shx
  4

  0
STYLE
  5
6E
330
3
100
AcDbSymbolTableRecord
100
AcDbTextStyleTableRecord
  2
GDT
 70
     0
 40
0.0
 41
1.0
 50
0.0
 71
     0
 42
0.2
  3
gdt.shx
  4

  0
ENDTAB
  0
TABLE
  2
VIEW
  5
6
330
0
100
AcDbSymbolTable
 70
     0
  0
ENDTAB
  0
TABLE
  2
UCS
  5
7
330
0
100
AcDbSymbolTable
 70
     0
  0
ENDTAB
  0
TABLE
  2
APPID
  5
9
330
0
100
AcDbSymbolTable
 70
     1
  0
APPID
  5
12
330
9
100
AcDbSymbolTableRecord
100
AcDbRegAppTableRecord
  2
ACAD
 70
     0
  0
ENDTAB
  0
TABLE
  2
DIMSTYLE
  5
A
330
0
100
AcDbSymbolTable
 70
     1
100
AcDbDimStyleTable
  0
DIMSTYLE
105
27
330
A
100
AcDbSymbolTableRecord
100
AcDbDimStyleTableRecord
  2
STANDARD
 70
     0
 41
2.5
 42
0.625
 43
3.75
 44
1.25
 73
     0
 74
     0
 77
     1
 78
     8
140
2.5
141
2.5
143
0.03937
147
0.625
171
     3
172
     1
178
     0
271
     2
272
     2
274
     3
278
    44
283
     0
284
     8
289
     0
340
0
  0
ENDTAB
  0
TABLE
  2
BLOCK_RECORD
  5
1
330
0
100
AcDbSymbolTable
 70
     2
  0
BLOCK_RECORD
  5
1F
330
1
100
AcDbSymbolTableRecord
100
AcDbBlockTableRecord
  2
*Model_Space
340
22
  0
BLOCK_RECORD
  5
1B
330
1
100
AcDbSymbolTableRecord
100
AcDbBlockTableRecord
  2
*Paper_Space
340
1E
  0
BLOCK_RECORD
  5
23
330
1
100
AcDbSymbolTableRecord
100
AcDbBlockTableRecord
  2
*Paper_Space0
340
26
  0
BLOCK_RECORD
  5
70
330
1
100
AcDbSymbolTableRecord
100
AcDbBlockTableRecord
  2
BLOCK1
340
0
102
{BLKREFS
331
244
102
}
  0
ENDTAB
  0
ENDSEC
  0
SECTION
  2
BLOCKS
  0
BLOCK
  5
20
330
1F
100
AcDbEntity
  8
0
100
AcDbBlockBegin
  2
*Model_Space
 70
     0
 10
0.0
 20
0.0
 30
0.0
  3
*Model_Space
  1

  0
ENDBLK
  5
21
330
1F
100
AcDbEntity
  8
0
100
AcDbBlockEnd
  0
BLOCK
  5
1C
330
1B
100
AcDbEntity
 67
     1
  8
0
100
AcDbBlockBegin
  2
*Paper_Space
 70
     0
 10
0.0
 20
0.0
 30
0.0
  3
*Paper_Space
  1

  0
ENDBLK
  5
1D
330
1B
100
AcDbEntity
 67
     1
  8
0
100
AcDbBlockEnd
  0
BLOCK
  5
24
330
23
100
AcDbEntity
  8
0
100
AcDbBlockBegin
  2
*Paper_Space0
 70
     0
 10
0.0
 20
0.0
 30
0.0
  3
*Paper_Space0
  1

  0
ENDBLK
  5
25
330
23
100
AcDbEntity
  8
0
100
AcDbBlockEnd
  0
BLOCK
  5
23E
330
70
100
AcDbEntity
  8
0
100
AcDbBlockBegin
  2
BLOCK1
 70
     0
 10
0.0
 20
0.0
 30
0.0
  3
BLOCK1
  1

  0
ARC
  5
71
330
70
100
AcDbEntity
  8
0
 62
     7
370
    35
100
AcDbCircle
 10
40.5
 20
23.5
 30
0.0
 40
1.0
100
AcDbArc
 50
180.0
 51
270.0
  0
ARC
  5
72
330
70
100
AcDbEntity
  8
0
 62
     7
370
    35
100
AcDbCircle
 10
40.5
 20
-23.5
 30
0.0
 40
1.0
100
AcDbArc
 50
90.0
 51
180.0
  0
LINE
  5
73
330
70
100
AcDbEntity
  8
0
 62
     7
370
    35
100
AcDbLine
 10
39.5
 20
26.5
 30
0.0
 11
39.5
 21
23.5
 31
0.0
  0
LINE
  5
74
330
70
100
AcDbEntity
  8
0
 62
     7
370
    35
100
AcDbLine
 10
39.5
 20
-23.5
 30
0.0
 11
39.5
 21
-26.5
 31
0.0
  0
LINE
  5
75
330
70
100
AcDbEntity
  8
0
 62
     7
370
    35
100
AcDbLine
 10
40.5
 20
-22.5
 30
0.0
 11
76.5
 21
-22.5
 31
0.0
  0
LINE
  5
76
330
70
100
AcDbEntity
  8
0
 62
     7
370
    35
100
AcDbLine
 10
40.5
 20
22.5
 30
0.0
 11
76.5
 21
22.5
 31
0.0
  0
LINE
  5
77
330
70
100
AcDbEntity
  8
0
 62
     7
370
    35
100
AcDbLine
 10
38.5
 20
-27.5
 30
0.0
 11
39.5
 21
-26.5
 31
0.0
  0
LINE
  5
78
330
70
100
AcDbEntity
  8
0
 62
     7
370
    35
100
AcDbLine
 10
38.5
 20
27.5
 30
0.0
 11
39.5
 21
26.5
 31
0.0
  0
LINE
  5
79
330
70
100
AcDbEntity
  8
0
 62
     7
370
    35
100
AcDbLine
 10
78.5
 20
20.5
 30
0.0
 11
76.5
 21
22.5
 31
0.0
  0
LINE
  5
7A
330
70
100
AcDbEntity
  8
0
 62
     7
370
    35
100
AcDbLine
 10
78.5
 20
-20.5
 30
0.0
 11
76.5
 21
-22.5
 31
0.0
  0
LINE
  5
7B
330
70
100
AcDbEntity
  8
0
 62
     7
370
    35
100
AcDbLine
 10
38.5
 20
-27.5
 30
0.0
 11
33.5
 21
-27.5
 31
0.0
  0
LINE
  5
7C
330
70
100
AcDbEntity
  8
0
 62
     7
370
    35
100
AcDbLine
 10
38.5
 20
27.5
 30
0.0
 11
33.5
 21
27.5
 31
0.0
  0
LINE
  5
7D
330
70
100
AcDbEntity
  8
0
 62
     7
370
    35
100
AcDbLine
 10
78.5
 20
20.5
 30
0.0
 11
78.5
 21
-20.5
 31
0.0
  0
LINE
  5
7E
330
70
100
AcDbEntity
  8
0
 62
     7
370
    35
100
AcDbLine
 10
32.5
 20
-26.5
 30
0.0
 11
33.5
 21
-27.5
 31
0.0
  0
LINE
  5
7F
330
70
100
AcDbEntity
  8
0
 62
     7
370
    35
100
AcDbLine
 10
32.5
 20
26.5
 30
0.0
 11
33.5
 21
27.5
 31
0.0
  0
LINE
  5
80
330
70
100
AcDbEntity
  8
0
 62
     7
370
    35
100
AcDbLine
 10
32.5
 20
26.5
 30
0.0
 11
32.5
 21
25.0
 31
0.0
  0
LINE
  5
81
330
70
100
AcDbEntity
  8
0
 62
     7
370
    35
100
AcDbLine
 10
32.5
 20
-25.0
 30
0.0
 11
32.5
 21
-26.5
 31
0.0
  0
LINE
  5
82
330
70
100
AcDbEntity
  8
0
 62
     7
370
    35
100
AcDbLine
 10
31.5
 20
24.0
 30
0.0
 11
32.5
 21
25.0
 31
0.0
  0
LINE
  5
83
330
70
100
AcDbEntity
  8
0
 62
     7
370
    35
100
AcDbLine
 10
31.5
 20
-24.0
 30
0.0
 11
32.5
 21
-25.0
 31
0.0
  0
LINE
  5
84
330
70
100
AcDbEntity
  8
0
 62
     7
370
    35
100
AcDbLine
 10
31.5
 20
-24.0
 30
0.0
 11
30.5
 21
-24.0
 31
0.0
  0
LINE
  5
85
330
70
100
AcDbEntity
  8
0
 62
     7
370
    35
100
AcDbLine
 10
31.5
 20
24.0
 30
0.0
 11
30.5
 21
24.0
 31
0.0
  0
LINE
  5
86
330
70
100
AcDbEntity
  8
0
 62
     7
370
    35
100
AcDbLine
 10
29.5
 20
25.0
 30
0.0
 11
30.5
 21
24.0
 31
0.0
  0
LINE
  5
87
330
70
100
AcDbEntity
  8
0
 62
     7
370
    35
100
AcDbLine
 10
29.5
 20
-25.0
 30
0.0
 11
30.5
 21
-24.0
 31
0.0
  0
LINE
  5
88
330
70
100
AcDbEntity
  8
0
 62
     7
370
    35
100
AcDbLine
 10
29.5
 20
-26.521716
 30
0.0
 11
29.5
 21
-25.776128
 31
0.0
  0
LINE
  5
89
330
70
100
AcDbEntity
  8
0
 62
     7
370
    35
100
AcDbLine
 10
29.5
 20
25.0
 30
0.0
 11
29.5
 21
26.590104
 31
0.0
  0
LINE
  5
8A
330
70
100
AcDbEntity
  8
0
 62
     7
370
    35
100
AcDbLine
 10
29.5
 20
-25.776881
 30
0.0
 11
29.5
 21
-25.0
 31
0.0
  0
SPLINE
  5
8B
330
70
100
AcDbEntity
  8
0
 62
     7
370
    35
100
AcDbSpline
210
0.0
220
0.0
230
1.0
 70
     8
 71
     5
 72
    30
 73
    24
 74
     0
 42
0.000000001
 43
0.0
 40
0.0
 40
0.0
 40
0.0
 40
0.0
 40
0.0
 40
0.0
 40
0.278447720339857
 40
0.278447720339857
 40
0.278447720339857
 40
0.5568954406797089
 40
0.5568954406797089
 40
0.5568954406797089
 40
1.184295980792323
 40
1.184295980792323
 40
1.184295980792323
 40
1.96845178142576
 40
1.96845178142576
 40
1.96845178142576
 40
2.933581351955584
 40
2.933581351955584
 40
2.933581351955584
 40
5.507985082388856
 40
5.507985082388856
 40
5.507985082388856
 40
6.973990802777283
 40
6.973990802777283
 40
6.973990802777283
 40
6.973990802777283
 40
6.973990802777283
 40
6.973990802777283
 10
29.49999999484146
 20
-25.77853447765496
 30
0.0
 10
29.47588621257353
 20
-25.80314980239105
 30
0.0
 10
29.45279864697097
 20
-25.82881923084354
 30
0.0
 10
29.4303723166734
 20
-25.85536027128082
 30
0.0
 10
29.38563650466836
 20
-25.9094862247197
 30
0.0
 10
29.33929789827587
 20
-25.9646478705144
 30
0.0
 10
29.315122227354
 20
-25.99217970227752
 30
0.0
 10
29.23474946875475
 20
-26.08153324050515
 30
0.0
 10
29.1482417775976
 20
-26.17019347411351
 30
0.0
 10
29.0861018895249
 20
-26.23092006021453
 30
0.0
 10
28.94209334384495
 20
-26.36598787706571
 30
0.0
 10
28.79027509042814
 20
-26.49725851938309
 30
0.0
 10
28.70417307873044
 20
-26.56890461384458
 30
0.0
 10
28.50855953596006
 20
-26.72627830199118
 30
0.0
 10
28.30658894431933
 20
-26.87817226258129
 30
0.0
 10
28.19348957706847
 20
-26.96054360703175
 30
0.0
 10
27.7747166856065
 20
-27.25695066907791
 30
0.0
 10
27.34157850306358
 20
-27.5356115877505
 30
0.0
 10
27.0253328202148
 20
-27.72914291223711
 30
0.0
 10
26.51884105377297
 20
-28.02626681021827
 30
0.0
 10
26.00580688480947
 20
-28.31061039879452
 30
0.0
 10
25.81888036794136
 20
-28.41229164727988
 30
0.0
 10
25.63136673597474
 20
-28.51255828521611
 30
0.0
 10
25.44328660591859
 20
-28.61154800797556
 30
0.0
  0
LINE
  5
8C
330
70
100
AcDbEntity
  8
0
 62
     7
370
    35
100
AcDbLine
 10
29.5
 20
-25.777355
 30
0.0
 11
29.5
 21
-25.778247
 31
0.0
  0
ARC
  5
8D
330
70
100
AcDbEntity
  8
0
 62
     7
370
    35
100
AcDbCircle
 10
-28.888268
 20
34.30557
 30
0.0
 40
84.31552148759677
100
AcDbArc
 50
311.953209
 51
313.827949
  0
LINE
  5
8E
330
70
100
AcDbEntity
  8
0
 62
     7
370
    35
100
AcDbLine
 10
27.478451
 20
-28.398953
 30
0.0
 11
25.941521
 21
-28.344633
 31
0.0
  0
LINE
  5
8F
330
70
100
AcDbEntity
  8
0
 62
     7
370
    35
100
AcDbLine
 10
-27.478485
 20
28.39898
 30
0.0
 11
-25.941387
 21
28.344706
 31
0.0
  0
ARC
  5
90
330
70
100
AcDbEntity
  8
0
 62
     7
370
    35
100
AcDbCircle
 10
28.888268
 20
-34.30557
 30
0.0
 40
84.31552158307208
100
AcDbArc
 50
131.953209
 51
133.827949
  0
LINE
  5
91
330
70
100
AcDbEntity
  8
0
 62
     7
370
    35
100
AcDbLine
 10
-29.5
 20
26.521655
 30
0.0
 11
-29.5
 21
25.775973
 31
0.0
  0
SPLINE
  5
92
330
70
100
AcDbEntity
  8
0
 62
     7
370
    35
100
AcDbSpline
210
0.0
220
0.0
230
1.0
 70
     8
 71
     5
 72
    30
 73
    24
 74
     0
 42
0.000000001
 43
0.0
 40
0.0
 40
0.0
 40
0.0
 40
0.0
 40
0.0
 40
0.0
 40
0.2784477205118546
 40
0.2784477205118546
 40
0.2784477205118546
 40
0.5568954410237064
 40
0.5568954410237064
 40
0.5568954410237064
 40
1.184295980662539
 40
1.184295980662539
 40
1.184295980662539
 40
1.968451780735627
 40
1.968451780735627
 40
1.968451780735627
 40
2.933581350625947
 40
2.933581350625947
 40
2.933581350625947
 40
5.507985079516716
 40
5.507985079516716
 40
5.507985079516716
 40
6.97399080482581
 40
6.97399080482581
 40
6.97399080482581
 40
6.97399080482581
 40
6.97399080482581
 40
6.97399080482581
 10
-29.49999999578301
 20
25.77853447669384
 30
0.0
 10
-29.47588621346827
 20
25.8031498014123
 30
0.0
 10
-29.45279864782835
 20
25.82881922985329
 30
0.0
 10
-29.43037231750613
 20
25.85536027028711
 30
0.0
 10
-29.38563650547848
 20
25.90948622373215
 30
0.0
 10
-29.33929789909941
 20
25.96464786955909
 30
0.0
 10
-29.31512222818505
 20
25.9921797013421
 30
0.0
 10
-29.23474946966809
 20
26.08153323954456
 30
0.0
 10
-29.14824177858449
 20
26.1701934731343
 30
0.0
 10
-29.08610189058586
 20
26.23092005919954
 30
0.0
 10
-28.94209334506809
 20
26.36598787597562
 30
0.0
 10
-28.79027509180797
 20
26.49725851822485
 30
0.0
 10
-28.70417308019046
 20
26.56890461265438
 30
0.0
 10
-28.50855953759992
 20
26.7262783007291
 30
0.0
 10
-28.30658894613467
 20
26.87817226125135
 30
0.0
 10
-28.19348957897684
 20
26.96054360566716
 30
0.0
 10
-27.77471668783482
 20
27.25695066760247
 30
0.0
 10
-27.34157850560243
 20
27.53561158616975
 30
0.0
 10
-27.02533282293916
 20
27.72914291060704
 30
0.0
 10
-26.51884105611297
 20
28.02626680890846
 30
0.0
 10
-26.00580688674509
 20
28.3106103977777
 30
0.0
 10
-25.81888036925546
 20
28.41229164661904
 30
0.0
 10
-25.6313667366636
 20
28.51255828490268
 30
0.0
 10
-25.44328660597865
 20
28.61154800800175
 30
0.0
  0
LINE
  5
93
330
70
100
AcDbEntity
  8
0
 62
     7
370
    35
100
AcDbLine
 10
-29.5
 20
25.777464
 30
0.0
 11
-29.5
 21
25.778322
 31
0.0
  0
SPLINE
  5
94
330
70
100
AcDbEntity
  8
0
 62
     7
370
    35
100
AcDbSpline
210
0.0
220
0.0
230
1.0
 70
     8
 71
     5
 72
    48
 73
    42
 74
     0
 42
0.000000001
 43
0.0
 40
0.0
 40
0.0
 40
0.0
 40
0.0
 40
0.0
 40
0.0
 40
2.140938094115677
 40
2.140938094115677
 40
2.140938094115677
 40
3.888678275636003
 40
3.888678275636003
 40
3.888678275636003
 40
5.264897617740487
 40
5.264897617740487
 40
5.264897617740487
 40
6.305549678645351
 40
6.305549678645351
 40
6.305549678645351
 40
6.494263685665315
 40
6.494263685665315
 40
6.494263685665315
 40
6.682977692685272
 40
6.682977692685272
 40
6.682977692685272
 40
6.87166497567482
 40
6.87166497567482
 40
6.87166497567482
 40
7.060352258664373
 40
7.060352258664373
 40
7.060352258664373
 40
8.536383787425201
 40
8.536383787425201
 40
8.536383787425201
 40
9.555921857176124
 40
9.555921857176124
 40
9.555921857176124
 40
10.16697222874521
 40
10.16697222874521
 40
10.16697222874521
 40
10.7780226003143
 40
10.7780226003143
 40
10.7780226003143
 40
11.70213966517745
 40
11.70213966517745
 40
11.70213966517745
 40
11.70213966517745
 40
11.70213966517745
 40
11.70213966517745
 10
-21.46644190374764
 20
28.61135646296544
 30
0.0
 10
-21.19177815955277
 20
28.46676900396569
 30
0.0
 10
-20.91832262551242
 20
28.31945894497521
 30
0.0
 10
-20.64666902478618
 20
28.16928831980809
 30
0.0
 10
-20.15571893754369
 20
27.8898157548955
 30
0.0
 10
-19.67237306650663
 20
27.59671294451644
 30
0.0
 10
-19.45750495685672
 20
27.46219749713983
 30
0.0
 10
-19.07661759579432
 20
27.21486118765591
 30
0.0
 10
-18.70608041830285
 20
26.95421608167554
 30
0.0
 10
-18.54595015723118
 20
26.83696533958613
 30
0.0
 10
-18.26915547659159
 20
26.62451881966862
 30
0.0
 10
-18.00708556785082
 20
26.40109958010113
 30
0.0
 10
-17.89812822796518
 20
26.30316672376145
 30
0.0
 10
-17.77423015288889
 20
26.18431130423141
 30
0.0
 10
-17.6603285984269
 20
26.06361227887224
 30
0.0
 10
-17.64308372062855
 20
26.04503410236685
 30
0.0
 10
-17.60915914508606
 20
26.00784681249193
 30
0.0
 10
-17.57640005367631
 20
25.97059005812228
 30
0.0
 10
-17.56031537466486
 20
25.95193720662233
 30
0.0
 10
-17.52895034710032
 20
25.91464617438497
 30
0.0
 10
-17.49841487926997
 20
25.87776914909171
 30
0.0
 10
-17.48322075960452
 20
25.85952021586217
 30
0.0
 10
-17.45263560918513
 20
25.82359956520304
 30
0.0
 10
-17.42102406584967
 20
25.78914387657982
 30
0.0
 10
-17.40479060499176
 20
25.77232769507697
 30
0.0
 10
-17.25662685615405
 20
25.62906832365112
 30
0.0
 10
-17.07047361364751
 20
25.52496105417558
 30
0.0
 10
-16.89676974566004
 20
25.45198321429793
 30
0.0
 10
-16.59202719382305
 20
25.35139190310253
 30
0.0
 10
-16.27478051559113
 20
25.28035270098717
 30
0.0
 10
-16.14389900660976
 20
25.25525922369357
 30
0.0
 10
-15.932626996687
 20
25.22042375349909
 30
0.0
 10
-15.71912352195235
 20
25.19299490057322
 30
0.0
 10
-15.6388193197386
 20
25.18366143591846
 30
0.0
 10
-15.47778994629765
 20
25.16673665290311
 30
0.0
 10
-15.31601974929158
 20
25.15310432863919
 30
0.0
 10
-15.23497952554126
 20
25.14706474947813
 30
0.0
 10
-15.03114274738475
 20
25.13379212346923
 30
0.0
 10
-14.82678696871149
 20
25.12523284741685
 30
0.0
 10
-14.70363932856923
 20
25.1217595876714
 30
0.0
 10
-14.58050155119672
 20
25.1200086608109
 30
0.0
 10
-14.45741924936786
 20
25.12009749256185
 30
0.0
  0
ARC
  5
95
330
70
100
AcDbEntity
  8
0
 62
     7
370
    35
100
AcDbCircle
 10
-21.498481
 20
-355.634762
 30
0.0
 40
384.2461461085404
100
AcDbArc
 50
87.86412
 51
89.995229
  0
LINE
  5
96
330
70
100
AcDbEntity
  8
0
 62
     7
370
    35
100
AcDbLine
 10
-14.457419
 20
25.120097
 30
0.0
 11
-14.073045
 21
25.120099
 31
0.0
  0
LINE
  5
97
330
70
100
AcDbEntity
  8
0
 62
     7
370
    35
100
AcDbLine
 10
-13.68867
 20
25.120101
 30
0.0
 11
-14.073045
 21
25.120099
 31
0.0
  0
SPLINE
  5
98
330
70
100
AcDbEntity
  8
0
 62
     7
370
    35
100
AcDbSpline
210
0.0
220
0.0
230
1.0
 70
     8
 71
     5
 72
    48
 73
    42
 74
     0
 42
0.000000001
 43
0.0
 40
0.0
 40
0.0
 40
0.0
 40
0.0
 40
0.0
 40
0.0
 40
2.140968123197792
 40
2.140968123197792
 40
2.140968123197792
 40
3.888729344571344
 40
3.888729344571344
 40
3.888729344571344
 40
5.264962074718679
 40
5.264962074718679
 40
5.264962074718679
 40
6.305621665619586
 40
6.305621665619586
 40
6.305621665619586
 40
6.494336470392446
 40
6.494336470392446
 40
6.494336470392446
 40
6.683051275165303
 40
6.683051275165303
 40
6.683051275165303
 40
6.871739358235104
 40
6.871739358235104
 40
6.871739358235104
 40
7.060427441304901
 40
7.060427441304901
 40
7.060427441304901
 40
8.536468880203167
 40
8.536468880203167
 40
8.536468880203167
 40
9.55601353552987
 40
9.55601353552987
 40
9.55601353552987
 40
10.16706708708005
 40
10.16706708708005
 40
10.16706708708005
 40
10.77812063863024
 40
10.77812063863024
 40
10.77812063863024
 40
11.70223116164379
 40
11.70223116164379
 40
11.70223116164379
 40
11.70223116164379
 40
11.70223116164379
 40
11.70223116164379
 10
-6.679586926106488
 20
28.61141647510431
 30
0.0
 10
-6.954254793655769
 20
28.46682800855096
 30
0.0
 10
-7.227714414941266
 20
28.31951668232533
 30
0.0
 10
-7.499372045669319
 20
28.16934455048693
 30
0.0
 10
-7.990328981221282
 20
27.88986904178419
 30
0.0
 10
-8.473681565951264
 20
27.59676252568588
 30
0.0
 10
-8.688552406238596
 20
27.4622454274637
 30
0.0
 10
-9.06944425247786
 20
27.21490613974549
 30
0.0
 10
-9.439985811449045
 20
26.95425762069754
 30
0.0
 10
-9.60011774737848
 20
26.83700546711063
 30
0.0
 10
-9.8769150847994
 20
26.62455652438616
 30
0.0
 10
-10.13898755809476
 20
26.40113464119536
 30
0.0
 10
-10.24794580530272
 20
26.30320077079025
 30
0.0
 10
-10.37184490243534
 20
26.18434413823637
 30
0.0
 10
-10.4857474029662
 20
26.0636438749788
 30
0.0
 10
-10.50299238085886
 20
26.04506555518773
 30
0.0
 10
-10.53691715453642
 20
26.00787797868102
 30
0.0
 10
-10.56967643950882
 20
25.9706209375327
 30
0.0
 10
-10.58576120965058
 20
25.95196794034027
 30
0.0
 10
-10.61712643027902
 20
25.9146766257186
 30
0.0
 10
-10.64766212059543
 20
25.87779933643343
 30
0.0
 10
-10.6628563605875
 20
25.85955027583655
 30
0.0
 10
-10.69344177170017
 20
25.82362937969425
 30
0.0
 10
-10.7250536121437
 20
25.78917346123572
 30
0.0
 10
-10.74128723425046
 20
25.77235716942502
 30
0.0
 10
-10.88945272346955
 20
25.62909650841574
 30
0.0
 10
-11.07560762394751
 20
25.52498788972813
 30
0.0
 10
-11.2493126499802
 20
25.45200867938397
 30
0.0
 10
-11.55405743395129
 20
25.35141479658462
 30
0.0
 10
-11.8713062915307
 20
25.28037280393807
 30
0.0
 10
-12.002188665698
 20
25.25527816339471
 30
0.0
 10
-12.21346196245557
 20
25.22044081112803
 30
0.0
 10
-12.42696672408114
 20
25.19301002519565
 30
0.0
 10
-12.50727134553564
 20
25.18367583667733
 30
0.0
 10
-12.66830155816349
 20
25.16674959390195
 30
0.0
 10
-12.83007259443071
 20
25.15311579264283
 30
0.0
 10
-12.9111132379237
 20
25.14707547216919
 30
0.0
 10
-13.11494956582512
 20
25.13380107891783
 30
0.0
 10
-13.31930489113236
 20
25.12523996729193
 30
0.0
 10
-13.44245165633921
 20
25.12176559221769
 30
0.0
 10
-13.56558856292301
 20
25.12001351830899
 30
0.0
 10
-13.68866999913833
 20
25.12010117260209
 30
0.0
  0
SPLINE
  5
99
330
70
100
AcDbEntity
  8
0
 62
     7
370
    35
100
AcDbSpline
210
0.0
220
0.0
230
1.0
 70
     8
 71
     5
 72
    48
 73
    42
 74
     0
 42
0.000000001
 43
0.0
 40
0.0
 40
0.0
 40
0.0
 40
0.0
 40
0.0
 40
0.0
 40
2.140977676860477
 40
2.140977676860477
 40
2.140977676860477
 40
3.888776091188323
 40
3.888776091188323
 40
3.888776091188323
 40
5.265052542317435
 40
5.265052542317435
 40
5.265052542317435
 40
6.305748733316882
 40
6.305748733316882
 40
6.305748733316882
 40
6.494469114007488
 40
6.494469114007488
 40
6.494469114007488
 40
6.683189494698097
 40
6.683189494698097
 40
6.683189494698097
 40
6.871883147505325
 40
6.871883147505325
 40
6.871883147505325
 40
7.060576800312548
 40
7.060576800312548
 40
7.060576800312548
 40
8.536646536654294
 40
8.536646536654294
 40
8.536646536654294
 40
9.556230108425499
 40
9.556230108425499
 40
9.556230108425499
 40
10.16730971103216
 40
10.16730971103216
 40
10.16730971103216
 40
10.77838931363881
 40
10.77838931363881
 40
10.77838931363881
 40
11.70260197544301
 40
11.70260197544301
 40
11.70260197544301
 40
11.70260197544301
 40
11.70260197544301
 40
11.70260197544301
 10
-2.702676290985455
 20
28.61159728421437
 30
0.0
 10
-2.42800137275177
 20
28.4670311094703
 30
0.0
 10
-2.154534707853097
 20
28.31974133270165
 30
0.0
 10
-1.882870103967714
 20
28.16958982069549
 30
0.0
 10
-1.391896805604508
 20
27.89014771128318
 30
0.0
 10
-0.9085280806446789
 20
27.59707041002745
 30
0.0
 10
-0.6936481378569455
 20
27.46256425480879
 30
0.0
 10
-0.3127382557119361
 20
27.21524147205652
 30
0.0
 10
0.0578210967249379
 20
26.95460572395488
 30
0.0
 10
0.2179616899323221
 20
26.83735771277204
 30
0.0
 10
0.494774682527464
 20
26.62491433368302
 30
0.0
 10
0.756862723488158
 20
26.40149533076758
 30
0.0
 10
0.8658277309586652
 20
26.30356207598168
 30
0.0
 10
0.9897348593653863
 20
26.18470545334026
 30
0.0
 10
1.103645195730412
 20
26.0640042126806
 30
0.0
 10
1.120891290892819
 20
26.04542580750667
 30
0.0
 10
1.154818289727562
 20
26.00823801156436
 30
0.0
 10
1.187579778644742
 20
25.9709806510514
 30
0.0
 10
1.203665657724488
 20
25.95232747409044
 30
0.0
 10
1.235033031228513
 20
25.91503572026092
 30
0.0
 10
1.265570763597081
 20
25.87815788772209
 30
0.0
 10
1.280765998655379
 20
25.85990854079466
 30
0.0
 10
1.311353365959866
 20
25.82398706919992
 30
0.0
 10
1.342967129066984
 20
25.78953061522325
 30
0.0
 10
1.359201707696784
 20
25.77271407242906
 30
0.0
 10
1.507374407367369
 20
25.62945284893417
 30
0.0
 10
1.693536932352575
 20
25.52534546198838
 30
0.0
 10
1.867246704140629
 20
25.45236686427515
 30
0.0
 10
2.17200265358269
 20
25.35177166689474
 30
0.0
 10
2.489262109402846
 20
25.28072659703454
 30
0.0
 10
2.620150177009105
 20
25.25563011915191
 30
0.0
 10
2.83143293743754
 20
25.22078930802191
 30
0.0
 10
3.044947090936885
 20
25.19335434269484
 30
0.0
 10
3.125255440599176
 20
25.18401846121002
 30
0.0
 10
3.286293115840795
 20
25.16708863177523
 30
0.0
 10
3.448071620271816
 20
25.15345082773312
 30
0.0
 10
3.529115997113513
 20
25.14740839945055
 30
0.0
 10
3.732970053548884
 20
25.13412790010553
 30
0.0
 10
3.937343187321094
 20
25.12556039508322
 30
0.0
 10
4.060504020034914
 20
25.12208201450438
 30
0.0
 10
4.183655019577935
 20
25.12032593565921
 30
0.0
 10
4.306750562649681
 20
25.12040962454496
 30
0.0
  0
ARC
  5
9A
330
70
100
AcDbEntity
  8
0
 62
     7
370
    35
100
AcDbCircle
 10
-2.724096
 20
-354.902483
 30
0.0
 40
383.5142605222495
100
AcDbArc
 50
87.861443
 51
89.593026
  0
ARC
  5
9B
330
70
100
AcDbEntity
  8
0
 62
     7
370
    35
100
AcDbCircle
 10
-2.688622
 20
-351.427017
 30
0.0
 40
380.0386137649502
100
AcDbArc
 50
89.594652
 51
90.002107
  0
LINE
  5
9C
330
70
100
AcDbEntity
  8
0
 62
     7
370
    35
100
AcDbLine
 10
4.691145
 20
25.120394
 30
0.0
 11
4.306751
 21
25.12041
 31
0.0
  0
LINE
  5
9D
330
70
100
AcDbEntity
  8
0
 62
     7
370
    35
100
AcDbLine
 10
4.691145
 20
25.120394
 30
0.0
 11
5.075538
 21
25.120378
 31
0.0
  0
SPLINE
  5
9E
330
70
100
AcDbEntity
  8
0
 62
     7
370
    35
100
AcDbSpline
210
0.0
220
0.0
230
1.0
 70
     8
 71
     5
 72
    48
 73
    42
 74
     0
 42
0.000000001
 43
0.0
 40
0.0
 40
0.0
 40
0.0
 40
0.0
 40
0.0
 40
0.0
 40
2.140877097687682
 40
2.140877097687682
 40
2.140877097687682
 40
3.888586666589441
 40
3.888586666589441
 40
3.888586666589441
 40
5.264794548482338
 40
5.264794548482338
 40
5.264794548482338
 40
6.305444395369642
 40
6.305444395369642
 40
6.305444395369642
 40
6.494158574645231
 40
6.494158574645231
 40
6.494158574645231
 40
6.682872753920818
 40
6.682872753920818
 40
6.682872753920818
 40
6.871560204215318
 40
6.871560204215318
 40
6.871560204215318
 40
7.060247654509827
 40
7.060247654509827
 40
7.060247654509827
 40
8.536263957032757
 40
8.536263957032757
 40
8.536263957032757
 40
9.555813553304473
 40
9.555813553304473
 40
9.555813553304473
 40
10.16687697391481
 40
10.16687697391481
 40
10.16687697391481
 40
10.77794039452516
 40
10.77794039452516
 40
10.77794039452516
 40
11.70216510165349
 40
11.70216510165349
 40
11.70216510165349
 40
11.70216510165349
 40
11.70216510165349
 40
11.70216510165349
 10
12.08468277505398
 20
28.61120550476882
 30
0.0
 10
11.81002339754764
 20
28.46663781210927
 30
0.0
 10
11.53657199121112
 20
28.31934800791928
 30
0.0
 10
11.26492224558496
 20
28.16919798367615
 30
0.0
 10
10.77397634721265
 20
27.88976206874531
 30
0.0
 10
10.29063381222721
 20
27.5966964345955
 30
0.0
 10
10.07576571380572
 20
27.46219686432939
 30
0.0
 10
9.694876541122984
 20
27.21488791932885
 30
0.0
 10
9.324336938131843
 20
26.95426961422307
 30
0.0
 10
9.16420467184333
 20
26.83702985848813
 30
0.0
 10
8.887405505367772
 20
26.62460169735343
 30
0.0
 10
8.625330736621217
 20
26.40119956714796
 30
0.0
 10
8.516370875611367
 20
26.30327341109836
 30
0.0
 10
8.39246968767035
 20
26.18442540846898
 30
0.0
 10
8.278565019268575
 20
26.06373297433777
 30
0.0
 10
8.261319619580986
 20
26.04515574168186
 30
0.0
 10
8.227394005353156
 20
26.00797029422364
 30
0.0
 10
8.194633885975852
 20
25.97071528841829
 30
0.0
 10
8.178548681854426
 20
25.95206329367872
 30
0.0
 10
8.147182661487454
 20
25.91477388927195
 30
0.0
 10
8.11664631443527
 20
25.87789838094855
 30
0.0
 10
8.101451784792335
 20
25.85965018980365
 30
0.0
 10
8.070865866326887
 20
25.82373101881263
 30
0.0
 10
8.039253633850178
 20
25.78927685606099
 30
0.0
 10
8.023019850845472
 20
25.77246145723266
 30
0.0
 10
7.874854667844794
 20
25.62921083902343
 30
0.0
 10
7.688699841860984
 20
25.52511508845274
 30
0.0
 10
7.514995481104877
 20
25.45214795302862
 30
0.0
 10
7.210250087945234
 20
25.35157394841577
 30
0.0
 10
6.893001286989772
 20
25.28055214855571
 30
0.0
 10
6.762117364055694
 20
25.25546541729353
 30
0.0
 10
6.55084077599245
 20
25.22064052810694
 30
0.0
 10
6.33733288467611
 20
25.19322206323305
 30
0.0
 10
6.257026547343786
 20
25.18389240227587
 30
0.0
 10
6.095992927819758
 20
25.16697515158337
 30
0.0
 10
5.934218527590498
 20
25.1533501587932
 30
0.0
 10
5.853176213894965
 20
25.14731418403132
 30
0.0
 10
5.649322533438089
 20
25.13404967232825
 30
0.0
 10
5.444949843547326
 20
25.12549854085005
 30
0.0
 10
5.321787368542672
 20
25.12203009141226
 30
0.0
 10
5.198634771899489
 20
25.12028406166878
 30
0.0
 10
5.0755376797608
 20
25.12037788893272
 30
0.0
  0
ARC
  5
9F
330
70
100
AcDbEntity
  8
0
 62
     7
370
    35
100
AcDbCircle
 10
-145.595935
 20
-150.489419
 30
0.0
 40
248.9395262495254
100
AcDbArc
 50
45.584018
 51
45.95311
  0
SPLINE
  5
A0
330
70
100
AcDbEntity
  8
0
 62
     7
370
    35
100
AcDbSpline
210
0.0
220
0.0
230
1.0
 70
     8
 71
     5
 72
    48
 73
    42
 74
     0
 42
0.000000001
 43
0.0
 40
0.0
 40
0.0
 40
0.0
 40
0.0
 40
0.0
 40
0.0
 40
2.140871851350562
 40
2.140871851350562
 40
2.140871851350562
 40
3.888571962214462
 40
3.888571962214462
 40
3.888571962214462
 40
5.264769858305605
 40
5.264769858305605
 40
5.264769858305605
 40
6.305411688458131
 40
6.305411688458131
 40
6.305411688458131
 40
6.494124681615684
 40
6.494124681615684
 40
6.494124681615684
 40
6.68283767477323
 40
6.68283767477323
 40
6.68283767477323
 40
6.87152393967511
 40
6.87152393967511
 40
6.87152393967511
 40
7.060210204576987
 40
7.060210204576987
 40
7.060210204576987
 40
8.536220484245163
 40
8.536220484245163
 40
8.536220484245163
 40
9.55576002305514
 40
9.55576002305514
 40
9.55576002305514
 40
10.1668161087627
 40
10.1668161087627
 40
10.1668161087627
 40
10.77787219447027
 40
10.77787219447027
 40
10.77787219447027
 40
11.7020665229219
 40
11.7020665229219
 40
11.7020665229219
 40
11.7020665229219
 40
11.7020665229219
 40
11.7020665229219
 10
16.06140183271338
 20
28.61118422583595
 30
0.0
 10
16.33605992214303
 20
28.46661381015296
 30
0.0
 10
16.60951002491788
 20
28.31932128583492
 30
0.0
 10
16.88115845027831
 20
28.16916855863633
 30
0.0
 10
17.37210125092699
 20
27.88972814172459
 30
0.0
 10
17.8554405904561
 20
27.59665814778413
 30
0.0
 10
18.0703068896276
 20
27.46215687905683
 30
0.0
 10
18.45119247526845
 20
27.21484519478094
 30
0.0
 10
18.82172838863247
 20
26.95422439665737
 30
0.0
 10
18.98185886375543
 20
26.83698371664805
 30
0.0
 10
19.25865474764814
 20
26.62455411885726
 30
0.0
 10
19.52072614890534
 20
26.40115089233871
 30
0.0
 10
19.62968454605228
 20
26.30322434798306
 30
0.0
 10
19.75358397571776
 20
26.18437600550497
 30
0.0
 10
19.86748690853884
 20
26.06368343201823
 30
0.0
 10
19.88473206279225
 20
26.04510616055592
 30
0.0
 10
19.91865718722942
 20
26.00792064589473
 30
0.0
 10
19.9514168197029
 20
25.97066559457159
 30
0.0
 10
19.96750177896236
 20
25.95201358173482
 30
0.0
 10
19.99886732138383
 20
25.91472415848246
 30
0.0
 10
20.02940320976507
 20
25.87784865191787
 30
0.0
 10
20.0445975144225
 20
25.85960046406758
 30
0.0
 10
20.07518298782801
 20
25.823681297721
 30
0.0
 10
20.1067947785153
 20
25.78922712422382
 30
0.0
 10
20.12302834034238
 20
25.77241171416566
 30
0.0
 10
20.27119183699312
 20
25.62916062362514
 30
0.0
 10
20.45734492799096
 20
25.5250638654249
 30
0.0
 10
20.63104822917532
 20
25.45209586725904
 30
0.0
 10
20.93579095589933
 20
25.35152086850615
 30
0.0
 10
21.25303724449995
 20
25.28049824514061
 30
0.0
 10
21.38391972109379
 20
25.25541129593654
 30
0.0
 10
21.59519383276936
 20
25.22058613636839
 30
0.0
 10
21.80869927325673
 20
25.19316748699968
 30
0.0
 10
21.88900458922739
 20
25.18383778190137
 30
0.0
 10
22.05003616782811
 20
25.16692046947303
 30
0.0
 10
22.21180853031712
 20
25.15329547749161
 30
0.0
 10
22.29284982623293
 20
25.14725952076434
 30
0.0
 10
22.49669838821758
 20
25.1339952694338
 30
0.0
 10
22.70106594498488
 20
25.1254444108167
 30
0.0
 10
22.82422430410118
 20
25.12197615142328
 30
0.0
 10
22.94737278199549
 20
25.12023029572099
 30
0.0
 10
23.07046575501115
 20
25.12032427637219
 30
0.0
  0
ARC
  5
A1
330
70
100
AcDbEntity
  8
0
 62
     7
370
    35
100
AcDbCircle
 10
16.066401
 20
-354.340905
 30
0.0
 40
382.9520893913042
100
AcDbArc
 50
88.292317
 51
90.000752
  0
LINE
  5
A2
330
70
100
AcDbEntity
  8
0
 62
     7
370
    35
100
AcDbLine
 10
23.070466
 20
25.120324
 30
0.0
 11
23.454852
 21
25.120341
 31
0.0
  0
LINE
  5
A3
330
70
100
AcDbEntity
  8
0
 62
     7
370
    35
100
AcDbLine
 10
23.83924
 20
25.120358
 30
0.0
 11
23.454852
 21
25.120341
 31
0.0
  0
SPLINE
  5
A4
330
70
100
AcDbEntity
  8
0
 62
     7
370
    35
100
AcDbSpline
210
0.0
220
0.0
230
1.0
 70
     8
 71
     5
 72
    45
 73
    39
 74
     0
 42
0.000000001
 43
0.0
 40
1.274244755611154
 40
1.274244755611154
 40
1.274244755611154
 40
1.274244755611154
 40
1.274244755611154
 40
1.274244755611154
 40
1.749324704572974
 40
1.749324704572974
 40
1.749324704572974
 40
3.128719111689593
 40
3.128719111689593
 40
3.128719111689593
 40
4.172151219128761
 40
4.172151219128761
 40
4.172151219128761
 40
4.361446890923726
 40
4.361446890923726
 40
4.361446890923726
 40
4.550742562718687
 40
4.550742562718687
 40
4.550742562718687
 40
4.740006598523681
 40
4.740006598523681
 40
4.740006598523681
 40
4.929270634328677
 40
4.929270634328677
 40
4.929270634328677
 40
6.401664480513695
 40
6.401664480513695
 40
6.401664480513695
 40
7.419272992108933
 40
7.419272992108933
 40
7.419272992108933
 40
8.029327831781103
 40
8.029327831781103
 40
8.029327831781103
 40
8.639382671453282
 40
8.639382671453282
 40
8.639382671453282
 40
9.576653459744424
 40
9.576653459744424
 40
9.576653459744424
 40
9.576653459744424
 40
9.576653459744424
 40
9.576653459744424
 10
28.71231134195989
 20
27.37779350736066
 30
0.0
 10
28.65442423386341
 20
27.34026071559535
 30
0.0
 10
28.59671570016227
 20
27.30244939438273
 30
0.0
 10
28.53919774460156
 20
27.26434774404864
 30
0.0
 10
28.31549062017034
 20
27.11444443126049
 30
0.0
 10
28.09540514273575
 20
26.95986648626659
 30
0.0
 10
27.93479943592148
 20
26.84245622271413
 30
0.0
 10
27.65711038861466
 20
26.62968851328932
 30
0.0
 10
27.39409804050432
 20
26.40591057566796
 30
0.0
 10
27.28470537357344
 20
26.30779548544898
 30
0.0
 10
27.1602619892176
 20
26.18869671147151
 30
0.0
 10
27.0457834431053
 20
26.06770988248948
 30
0.0
 10
27.02844331389628
 20
26.04907997293983
 30
0.0
 10
26.99432690858139
 20
26.01178650723518
 30
0.0
 10
26.96137337984649
 20
25.974417885618
 30
0.0
 10
26.94518266669087
 20
25.95571159198476
 30
0.0
 10
26.91363030835894
 20
25.91829642258445
 30
0.0
 10
26.88296862996939
 20
25.88125983339728
 30
0.0
 10
26.86772867521719
 20
25.86292300788453
 30
0.0
 10
26.83708517319501
 20
25.82681219219796
 30
0.0
 10
26.80546955380643
 20
25.79214331576652
 30
0.0
 10
26.7892510933157
 20
25.77521398705905
 30
0.0
 10
26.64191350543328
 20
25.63166761735128
 30
0.0
 10
26.45639804705964
 20
25.52726877214177
 30
0.0
 10
26.28323434723564
 20
25.45412000866868
 30
0.0
 10
25.97940102658042
 20
25.35326317752965
 30
0.0
 10
25.66300680144259
 20
25.28198913729203
 30
0.0
 10
25.53242325966853
 20
25.25679541496294
 30
0.0
 10
25.32159894400926
 20
25.22180209181391
 30
0.0
 10
25.10853301827174
 20
25.19422388236591
 30
0.0
 10
25.02837893319678
 20
25.18483405250026
 30
0.0
 10
24.867645706316
 20
25.16779868190937
 30
0.0
 10
24.70616326575321
 20
25.15405540058294
 30
0.0
 10
24.62526511872757
 20
25.14795947942993
 30
0.0
 10
24.41983546890425
 20
25.13441347247277
 30
0.0
 10
24.21386749153491
 20
25.12565853520777
 30
0.0
 10
24.0889663243037
 20
25.12208098930159
 30
0.0
 10
23.96407460903084
 20
25.12027323292607
 30
0.0
 10
23.839239928737
 20
25.12035770860978
 30
0.0
  0
LINE
  5
A5
330
70
100
AcDbEntity
  8
0
 62
     7
370
    35
100
AcDbLine
 10
29.5
 20
26.590104
 30
0.0
 11
28.712312
 21
27.377792
 31
0.0
  0
LINE
  5
A6
330
70
100
AcDbEntity
  8
0
 62
     7
370
    35
100
AcDbLine
 10
-29.5
 20
-25.0
 30
0.0
 11
-29.5
 21
-25.575345
 31
0.0
  0
LINE
  5
A7
330
70
100
AcDbEntity
  8
0
 62
     7
370
    35
100
AcDbLine
 10
-29.5
 20
-25.0
 30
0.0
 11
-29.5
 21
-26.590104
 31
0.0
  0
LINE
  5
A8
330
70
100
AcDbEntity
  8
0
 62
     7
370
    35
100
AcDbLine
 10
-29.5
 20
25.776881
 30
0.0
 11
-29.5
 21
25.0
 31
0.0
  0
ARC
  5
A9
330
70
100
AcDbEntity
  8
0
 62
     7
370
    35
100
AcDbCircle
 10
21.498481
 20
355.634762
 30
0.0
 40
384.2461461757561
100
AcDbArc
 50
267.86412
 51
269.995229
  0
LINE
  5
AA
330
70
100
AcDbEntity
  8
0
 62
     7
370
    35
100
AcDbLine
 10
21.46649
 20
-28.61165
 30
0.0
 11
25.443345
 21
-28.61165
 31
0.0
  0
LINE
  5
AB
330
70
100
AcDbEntity
  8
0
 62
     7
370
    35
100
AcDbLine
 10
-25.443345
 20
28.61165
 30
0.0
 11
-21.46649
 21
28.61165
 31
0.0
  0
LINE
  5
AC
330
70
100
AcDbEntity
  8
0
 62
     7
370
    35
100
AcDbLine
 10
-6.67946
 20
28.61165
 30
0.0
 11
-2.702594
 21
28.61165
 31
0.0
  0
LINE
  5
AD
330
70
100
AcDbEntity
  8
0
 62
     7
370
    35
100
AcDbLine
 10
12.084594
 20
28.61165
 30
0.0
 11
16.061375
 21
28.61165
 31
0.0
  0
SPLINE
  5
AE
330
70
100
AcDbEntity
  8
0
 62
     7
370
    35
100
AcDbSpline
210
0.0
220
0.0
230
1.0
 70
     8
 71
     5
 72
    48
 73
    42
 74
     0
 42
0.000000001
 43
0.0
 40
0.0
 40
0.0
 40
0.0
 40
0.0
 40
0.0
 40
0.0
 40
2.140938094052238
 40
2.140938094052238
 40
2.140938094052238
 40
3.888678275560354
 40
3.888678275560354
 40
3.888678275560354
 40
5.26489761771575
 40
5.26489761771575
 40
5.26489761771575
 40
6.305549678638993
 40
6.305549678638993
 40
6.305549678638993
 40
6.494263685656761
 40
6.494263685656761
 40
6.494263685656761
 40
6.682977692674522
 40
6.682977692674522
 40
6.682977692674522
 40
6.871664975661872
 40
6.871664975661872
 40
6.871664975661872
 40
7.060352258649225
 40
7.060352258649225
 40
7.060352258649225
 40
8.53638378724001
 40
8.53638378724001
 40
8.53638378724001
 40
9.555921857020321
 40
9.555921857020321
 40
9.555921857020321
 40
10.16697222857738
 40
10.16697222857738
 40
10.16697222857738
 40
10.77802260013444
 40
10.77802260013444
 40
10.77802260013444
 40
11.70213966502105
 40
11.70213966502105
 40
11.70213966502105
 40
11.70213966502105
 40
11.70213966502105
 40
11.70213966502105
 10
21.46644190369213
 20
-28.61135646293925
 30
0.0
 10
21.19177815950392
 20
-28.46676900395281
 30
0.0
 10
20.91832262547016
 20
-28.31945894497414
 30
0.0
 10
20.64666902475179
 20
-28.16928831981926
 30
0.0
 10
20.15571893751734
 20
-27.88981575492051
 30
0.0
 10
19.67237306648803
 20
-27.59671294455205
 30
0.0
 10
19.45750495683314
 20
-27.46219749717308
 30
0.0
 10
19.07661759576508
 20
-27.2148611876862
 30
0.0
 10
18.70608041826819
 20
-26.95421608169983
 30
0.0
 10
18.54595015719909
 20
-26.83696533961113
 30
0.0
 10
18.26915547655017
 20
-26.62451881968412
 30
0.0
 10
18.00708556780095
 20
-26.40109958010682
 30
0.0
 10
17.89812822790404
 20
-26.30316672375604
 30
0.0
 10
17.774230152826
 20
-26.18431130422265
 30
0.0
 10
17.66032859836461
 20
-26.06361227886172
 30
0.0
 10
17.64308372056685
 20
-26.04503410235656
 30
0.0
 10
17.6091591450257
 20
-26.00784681248219
 30
0.0
 10
17.57640005361763
 20
-25.97059005811335
 30
0.0
 10
17.56031537460712
 20
-25.95193720661386
 30
0.0
 10
17.52895034704482
 20
-25.91464617437765
 30
0.0
 10
17.49841487921706
 20
-25.8777691490859
 30
0.0
 10
17.4832207595529
 20
-25.85952021585721
 30
0.0
 10
17.45263560913593
 20
-25.82359956519997
 30
0.0
 10
17.42102406580225
 20
-25.78914387657893
 30
0.0
 10
17.40479060494496
 20
-25.77232769507722
 30
0.0
 10
17.25662685612411
 20
-25.62906832367468
 30
0.0
 10
17.07047361362876
 20
-25.52496105421426
 30
0.0
 10
16.89676974558919
 20
-25.45198321431207
 30
0.0
 10
16.59202719376573
 20
-25.35139190311709
 30
0.0
 10
16.27478051555118
 20
-25.28035270099605
 30
0.0
 10
16.14389900656693
 20
-25.25525922369789
 30
0.0
 10
15.93262699664258
 20
-25.22042375349725
 30
0.0
 10
15.71912352190674
 20
-25.19299490056656
 30
0.0
 10
15.63881931969511
 20
-25.18366143591048
 30
0.0
 10
15.47778994625854
 20
-25.1667366528931
 30
0.0
 10
15.31601974925696
 20
-25.15310432862751
 30
0.0
 10
15.23497952550894
 20
-25.1470647494656
 30
0.0
 10
15.03114274735255
 20
-25.13379212345379
 30
0.0
 10
14.82678696867929
 20
-25.12523284739705
 30
0.0
 10
14.70363932853457
 20
-25.12175958764799
 30
0.0
 10
14.58050155115961
 20
-25.12000866078257
 30
0.0
 10
14.45741924932785
 20
-25.12009749252672
 30
0.0
  0
LINE
  5
AF
330
70
100
AcDbEntity
  8
0
 62
     7
370
    35
100
AcDbLine
 10
14.073045
 20
-25.120099
 30
0.0
 11
14.457419
 21
-25.120097
 31
0.0
  0
LINE
  5
B0
330
70
100
AcDbEntity
  8
0
 62
     7
370
    35
100
AcDbLine
 10
13.68867
 20
-25.120101
 30
0.0
 11
14.073045
 21
-25.120099
 31
0.0
  0
LINE
  5
B1
330
70
100
AcDbEntity
  8
0
 62
     7
370
    35
100
AcDbLine
 10
13.612436
 20
-25.120095
 30
0.0
 11
13.68867
 21
-25.120101
 31
0.0
  0
SPLINE
  5
B2
330
70
100
AcDbEntity
  8
0
 62
     7
370
    35
100
AcDbSpline
210
0.0
220
0.0
230
1.0
 70
     8
 71
     5
 72
    48
 73
    42
 74
     0
 42
0.000000001
 43
0.0
 40
0.0
 40
0.0
 40
0.0
 40
0.0
 40
0.0
 40
0.0
 40
2.140968123237857
 40
2.140968123237857
 40
2.140968123237857
 40
3.888729344616127
 40
3.888729344616127
 40
3.888729344616127
 40
5.264962074749312
 40
5.264962074749312
 40
5.264962074749312
 40
6.305621665655152
 40
6.305621665655152
 40
6.305621665655152
 40
6.494336470428941
 40
6.494336470428941
 40
6.494336470428941
 40
6.683051275202726
 40
6.683051275202726
 40
6.683051275202726
 40
6.871739358273469
 40
6.871739358273469
 40
6.871739358273469
 40
7.060427441344214
 40
7.060427441344214
 40
7.060427441344214
 40
8.536468880334331
 40
8.536468880334331
 40
8.536468880334331
 40
9.556013535650179
 40
9.556013535650179
 40
9.556013535650179
 40
10.16706708718741
 40
10.16706708718741
 40
10.16706708718741
 40
10.77812063872463
 40
10.77812063872463
 40
10.77812063872463
 40
11.70223116172268
 40
11.70223116172268
 40
11.70223116172268
 40
11.70223116172268
 40
11.70223116172268
 40
11.70223116172268
 10
6.679586926084072
 20
-28.61141647507965
 30
0.0
 10
6.954254793640311
 20
-28.46682800852989
 30
0.0
 10
7.227714414932466
 20
-28.31951668230738
 30
0.0
 10
7.499372045649925
 20
-28.16934455048019
 30
0.0
 10
7.990328981209454
 20
-27.8898690417823
 30
0.0
 10
8.473681565945988
 20
-27.59676252568223
 30
0.0
 10
8.688552406229512
 20
-27.46224542746286
 30
0.0
 10
9.069444252466699
 20
-27.21490613974326
 30
0.0
 10
9.43998581143425
 20
-26.95425762069075
 30
0.0
 10
9.600117747360985
 20
-26.8370054671018
 30
0.0
 10
9.876915084777597
 20
-26.62455652437188
 30
0.0
 10
10.13898755806876
 20
-26.40113464117635
 30
0.0
 10
10.24794580526704
 20
-26.3032007707769
 30
0.0
 10
10.37184490239947
 20
-26.18434413822133
 30
0.0
 10
10.48574740293289
 20
-26.06364387496513
 30
0.0
 10
10.50299238082602
 20
-26.04506555517435
 30
0.0
 10
10.53691715450469
 20
-26.00787797866839
 30
0.0
 10
10.56967643947863
 20
-25.97062093752124
 30
0.0
 10
10.58576120962126
 20
-25.9519679403295
 30
0.0
 10
10.61712643025179
 20
-25.91467662570946
 30
0.0
 10
10.64766212057066
 20
-25.87779933642627
 30
0.0
 10
10.66285636056401
 20
-25.85955027583041
 30
0.0
 10
10.69344177167922
 20
-25.82362937969017
 30
0.0
 10
10.72505361212502
 20
-25.78917346123353
 30
0.0
 10
10.74128723423277
 20
-25.77235716942371
 30
0.0
 10
10.88945272346675
 20
-25.62909650841356
 30
0.0
 10
11.07560762395392
 20
-25.52498788972068
 30
0.0
 10
11.24931264998457
 20
-25.45200867937641
 30
0.0
 10
11.55405743396426
 20
-25.35141479657251
 30
0.0
 10
11.87130629155275
 20
-25.28037280392421
 30
0.0
 10
12.00218866571661
 20
-25.25527816338201
 30
0.0
 10
12.21346196247042
 20
-25.22044081111753
 30
0.0
 10
12.42696672409232
 20
-25.19301002518854
 30
0.0
 10
12.50727134554494
 20
-25.18367583667172
 30
0.0
 10
12.66830155816904
 20
-25.16674959389984
 30
0.0
 10
12.83007259443263
 20
-25.15311579264449
 30
0.0
 10
12.91111323792389
 20
-25.14707547217272
 30
0.0
 10
13.11494956582182
 20
-25.13380107892554
 30
0.0
 10
13.31930489112646
 20
-25.12523996730189
 30
0.0
 10
13.44245165633238
 20
-25.12176559222775
 30
0.0
 10
13.56558856291595
 20
-25.12001351831731
 30
0.0
 10
13.68866999913194
 20
-25.12010117260583
 30
0.0
  0
SPLINE
  5
B3
330
70
100
AcDbEntity
  8
0
 62
     7
370
    35
100
AcDbSpline
210
0.0
220
0.0
230
1.0
 70
     8
 71
     5
 72
    48
 73
    42
 74
     0
 42
0.000000001
 43
0.0
 40
0.0
 40
0.0
 40
0.0
 40
0.0
 40
0.0
 40
0.0
 40
2.140977676832113
 40
2.140977676832113
 40
2.140977676832113
 40
3.888776091157821
 40
3.888776091157821
 40
3.888776091157821
 40
5.265052542279473
 40
5.265052542279473
 40
5.265052542279473
 40
6.305748733274393
 40
6.305748733274393
 40
6.305748733274393
 40
6.494469113965092
 40
6.494469113965092
 40
6.494469113965092
 40
6.683189494655797
 40
6.683189494655797
 40
6.683189494655797
 40
6.871883147463116
 40
6.871883147463116
 40
6.871883147463116
 40
7.060576800270439
 40
7.060576800270439
 40
7.060576800270439
 40
8.536646536397246
 40
8.536646536397246
 40
8.536646536397246
 40
9.556230108168487
 40
9.556230108168487
 40
9.556230108168487
 40
10.16730971077994
 40
10.16730971077994
 40
10.16730971077994
 40
10.77838931339139
 40
10.77838931339139
 40
10.77838931339139
 40
11.70260197519487
 40
11.70260197519487
 40
11.70260197519487
 40
11.70260197519487
 40
11.70260197519487
 40
11.70260197519487
 10
2.702676290984413
 20
-28.6115972842051
 30
0.0
 10
2.42800137275344
 20
-28.4670311094668
 30
0.0
 10
2.154534707858211
 20
-28.3197413327031
 30
0.0
 10
1.882870103959761
 20
-28.1695898206913
 30
0.0
 10
1.391896805599945
 20
-27.89014771128218
 30
0.0
 10
0.9085280806442253
 20
-27.5970704100286
 30
0.0
 10
0.6936481378563114
 20
-27.46256425480952
 30
0.0
 10
0.3127382557126828
 20
-27.21524147205713
 30
0.0
 10
-0.0578210967228745
 20
-26.95460572395627
 30
0.0
 10
-0.2179616899332846
 20
-26.83735771277102
 30
0.0
 10
-0.4947746825273504
 20
-26.62491433368328
 30
0.0
 10
-0.7568627234867892
 20
-26.40149533076972
 30
0.0
 10
-0.865827730959398
 20
-26.30356207598231
 30
0.0
 10
-0.9897348593658942
 20
-26.18470545334172
 30
0.0
 10
-1.103645195730431
 20
-26.06400421268249
 30
0.0
 10
-1.120891290892833
 20
-26.04542580750855
 30
0.0
 10
-1.154818289727556
 20
-26.00823801156617
 30
0.0
 10
-1.187579778644672
 20
-25.97098065105309
 30
0.0
 10
-1.203665657724387
 20
-25.95232747409206
 30
0.0
 10
-1.235033031228306
 20
-25.91503572026234
 30
0.0
 10
-1.265570763596733
 20
-25.87815788772327
 30
0.0
 10
-1.280765998654948
 20
-25.85990854079569
 30
0.0
 10
-1.311353365959255
 20
-25.82398706920067
 30
0.0
 10
-1.342967129066186
 20
-25.78953061522369
 30
0.0
 10
-1.359201707695891
 20
-25.77271407242934
 30
0.0
 10
-1.507374407346479
 20
-25.62945284895175
 30
0.0
 10
-1.693536932302574
 20
-25.52534546201416
 30
0.0
 10
-1.867246704187301
 20
-25.45236686425817
 30
0.0
 10
-2.172002653604246
 20
-25.35177166688951
 30
0.0
 10
-2.489262109397135
 20
-25.28072659703631
 30
0.0
 10
-2.620150177004032
 20
-25.25563011915395
 30
0.0
 10
-2.831432937433236
 20
-25.22078930802423
 30
0.0
 10
-3.044947090933511
 20
-25.19335434269711
 30
0.0
 10
-3.125255440596528
 20
-25.18401846121218
 30
0.0
 10
-3.286293115839634
 20
-25.16708863177697
 30
0.0
 10
-3.448071620272154
 20
-25.15345082773425
 30
0.0
 10
-3.529115997114554
 20
-25.14740839945138
 30
0.0
 10
-3.732970053550699
 20
-25.13412790010572
 30
0.0
 10
-3.937343187323291
 20
-25.12556039508324
 30
0.0
 10
-4.060504020036809
 20
-25.12208201450468
 30
0.0
 10
-4.183655019579426
 20
-25.12032593566038
 30
0.0
 10
-4.306750562650342
 20
-25.12040962454807
 30
0.0
  0
ARC
  5
B4
330
70
100
AcDbEntity
  8
0
 62
     7
370
    35
100
AcDbCircle
 10
2.733917
 20
354.666366
 30
0.0
 40
383.2782359555977
100
AcDbArc
 50
267.858766
 51
269.591307
  0
ARC
  5
B5
330
70
100
AcDbEntity
  8
0
 62
     7
370
    35
100
AcDbCircle
 10
2.688622
 20
351.427017
 30
0.0
 40
380.0386137907017
100
AcDbArc
 50
269.594652
 51
270.002107
  0
LINE
  5
B6
330
70
100
AcDbEntity
  8
0
 62
     7
370
    35
100
AcDbLine
 10
-4.306751
 20
-25.12041
 30
0.0
 11
-4.691145
 21
-25.120394
 31
0.0
  0
LINE
  5
B7
330
70
100
AcDbEntity
  8
0
 62
     7
370
    35
100
AcDbLine
 10
-5.075538
 20
-25.120378
 30
0.0
 11
-4.691145
 21
-25.120394
 31
0.0
  0
LINE
  5
B8
330
70
100
AcDbEntity
  8
0
 62
     7
370
    35
100
AcDbLine
 10
-5.15177
 20
-25.120368
 30
0.0
 11
-5.075538
 21
-25.120378
 31
0.0
  0
SPLINE
  5
B9
330
70
100
AcDbEntity
  8
0
 62
     7
370
    35
100
AcDbSpline
210
0.0
220
0.0
230
1.0
 70
     8
 71
     5
 72
    48
 73
    42
 74
     0
 42
0.000000001
 43
0.0
 40
0.0
 40
0.0
 40
0.0
 40
0.0
 40
0.0
 40
0.0
 40
2.140877097726801
 40
2.140877097726801
 40
2.140877097726801
 40
3.888586666632555
 40
3.888586666632555
 40
3.888586666632555
 40
5.264794548515692
 40
5.264794548515692
 40
5.264794548515692
 40
6.305444395389648
 40
6.305444395389648
 40
6.305444395389648
 40
6.494158574666257
 40
6.494158574666257
 40
6.494158574666257
 40
6.682872753942871
 40
6.682872753942871
 40
6.682872753942871
 40
6.871560204238397
 40
6.871560204238397
 40
6.871560204238397
 40
7.060247654533921
 40
7.060247654533921
 40
7.060247654533921
 40
8.536263956917368
 40
8.536263956917368
 40
8.536263956917368
 40
9.555813553183194
 40
9.555813553183194
 40
9.555813553183194
 40
10.16687697380377
 40
10.16687697380377
 40
10.16687697380377
 40
10.77794039442436
 40
10.77794039442436
 40
10.77794039442436
 40
11.70216510155596
 40
11.70216510155596
 40
11.70216510155596
 40
11.70216510155596
 40
11.70216510155596
 40
11.70216510155596
 10
-12.08468277508839
 20
-28.61120550479873
 30
0.0
 10
-11.81002339757919
 20
-28.46663781212578
 30
0.0
 10
-11.53657199124036
 20
-28.31934800792421
 30
0.0
 10
-11.26492224560908
 20
-28.16919798367198
 30
0.0
 10
-10.77397634723292
 20
-27.88976206872959
 30
0.0
 10
-10.29063381224295
 20
-27.59669643457465
 30
0.0
 10
-10.075765713822
 20
-27.46219686430877
 30
0.0
 10
-9.694876541139333
 20
-27.21488791931082
 30
0.0
 10
-9.32433693814823
 20
-26.95426961420985
 30
0.0
 10
-9.164204671862077
 20
-26.83702985847895
 30
0.0
 10
-8.887405505387944
 20
-26.62460169735129
 30
0.0
 10
-8.625330736643178
 20
-26.40119956715145
 30
0.0
 10
-8.51637087563326
 20
-26.3032734111037
 30
0.0
 10
-8.392469687693012
 20
-26.18442540847665
 30
0.0
 10
-8.278565019291847
 20
-26.0637329743461
 30
0.0
 10
-8.261319619604071
 20
-26.04515574168995
 30
0.0
 10
-8.22739400537586
 20
-26.00797029423115
 30
0.0
 10
-8.194633885998142
 20
-25.97071528842499
 30
0.0
 10
-8.178548681876512
 20
-25.95206329368494
 30
0.0
 10
-8.147182661509039
 20
-25.91477388927705
 30
0.0
 10
-8.116646314456311
 20
-25.87789838095226
 30
0.0
 10
-8.101451784813113
 20
-25.85965018980663
 30
0.0
 10
-8.070865866347194
 20
-25.82373101881404
 30
0.0
 10
-8.039253633870228
 20
-25.78927685606079
 30
0.0
 10
-8.023019850865452
 20
-25.77246145723166
 30
0.0
 10
-7.874854667878004
 20
-25.62921083902848
 30
0.0
 10
-7.688699841916744
 20
-25.52511508846088
 30
0.0
 10
-7.514995481095458
 20
-25.45214795300944
 30
0.0
 10
-7.210250087953015
 20
-25.35157394840797
 30
0.0
 10
-6.893001287015863
 20
-25.28055214855656
 30
0.0
 10
-6.762117364081618
 20
-25.25546541729605
 30
0.0
 10
-6.550840776017048
 20
-25.22064052811141
 30
0.0
 10
-6.337332884699518
 20
-25.19322206323867
 30
0.0
 10
-6.257026547365528
 20
-25.18389240228165
 30
0.0
 10
-6.095992927838141
 20
-25.16697515158913
 30
0.0
 10
-5.934218527605581
 20
-25.15335015879873
 30
0.0
 10
-5.853176213908386
 20
-25.14731418403673
 30
0.0
 10
-5.649322533449039
 20
-25.1340496723337
 30
0.0
 10
-5.44494984355606
 20
-25.12549854085627
 30
0.0
 10
-5.32178736855088
 20
-25.12203009141941
 30
0.0
 10
-5.198634771907186
 20
-25.12028406167748
 30
0.0
 10
-5.075537679768272
 20
-25.12037788894379
 30
0.0
  0
ARC
  5
BA
330
70
100
AcDbEntity
  8
0
 62
     7
370
    35
100
AcDbCircle
 10
145.595935
 20
150.489419
 30
0.0
 40
248.9395263071552
100
AcDbArc
 50
225.584018
 51
225.95311
  0
SPLINE
  5
BB
330
70
100
AcDbEntity
  8
0
 62
     7
370
    35
100
AcDbSpline
210
0.0
220
0.0
230
1.0
 70
     8
 71
     5
 72
    48
 73
    42
 74
     0
 42
0.000000001
 43
0.0
 40
0.0
 40
0.0
 40
0.0
 40
0.0
 40
0.0
 40
0.0
 40
2.140871851294866
 40
2.140871851294866
 40
2.140871851294866
 40
3.888571962163026
 40
3.888571962163026
 40
3.888571962163026
 40
5.264769858276881
 40
5.264769858276881
 40
5.264769858276881
 40
6.305411688440017
 40
6.305411688440017
 40
6.305411688440017
 40
6.494124681595751
 40
6.494124681595751
 40
6.494124681595751
 40
6.682837674751481
 40
6.682837674751481
 40
6.682837674751481
 40
6.871523939651512
 40
6.871523939651512
 40
6.871523939651512
 40
7.060210204551547
 40
7.060210204551547
 40
7.060210204551547
 40
8.536220484322213
 40
8.536220484322213
 40
8.536220484322213
 40
9.555760023149587
 40
9.555760023149587
 40
9.555760023149587
 40
10.16681610886131
 40
10.16681610886131
 40
10.16681610886131
 40
10.77787219457303
 40
10.77787219457303
 40
10.77787219457303
 40
11.70206652306208
 40
11.70206652306208
 40
11.70206652306208
 40
11.70206652306208
 40
11.70206652306208
 40
11.70206652306208
 10
-16.06140183278842
 20
-28.61118422588171
 30
0.0
 10
-16.33605992220658
 20
-28.46661381018885
 30
0.0
 10
-16.60951002497025
 20
-28.31932128586286
 30
0.0
 10
-16.88115845032154
 20
-28.16916855865857
 30
0.0
 10
-17.37210125095941
 20
-27.88972814173703
 30
0.0
 10
-17.85544059048043
 20
-27.59665814779595
 30
0.0
 10
-18.07030688964857
 20
-27.46215687907017
 30
0.0
 10
-18.45119247529312
 20
-27.21484519479434
 30
0.0
 10
-18.82172838866444
 20
-26.95422439667492
 30
0.0
 10
-18.98185886379255
 20
-26.83698371666666
 30
0.0
 10
-19.25865474769332
 20
-26.62455411888016
 30
0.0
 10
-19.52072614895818
 20
-26.40115089236463
 30
0.0
 10
-19.62968454611334
 20
-26.30322434800483
 30
0.0
 10
-19.7535839757805
 20
-26.18437600552671
 30
0.0
 10
-19.8674869085991
 20
-26.06368343203615
 30
0.0
 10
-19.88473206285174
 20
-26.04510616057346
 30
0.0
 10
-19.91865718728709
 20
-26.00792064591132
 30
0.0
 10
-19.95141681975815
 20
-25.97066559458675
 30
0.0
 10
-19.96750177901625
 20
-25.95201358174915
 30
0.0
 10
-19.99886732143449
 20
-25.91472415849481
 30
0.0
 10
-20.02940320981192
 20
-25.87784865192789
 30
0.0
 10
-20.04459751446738
 20
-25.8596004640764
 30
0.0
 10
-20.07518298786897
 20
-25.82368129772743
 30
0.0
 10
-20.10679477855281
 20
-25.78922712422809
 30
0.0
 10
-20.12302834037838
 20
-25.77241171416893
 30
0.0
 10
-20.27119183702851
 20
-25.62916062361143
 30
0.0
 10
-20.45734492804593
 20
-25.52506386541026
 30
0.0
 10
-20.63104822912292
 20
-25.4520958672917
 30
0.0
 10
-20.93579095586139
 20
-25.35152086853009
 30
0.0
 10
-21.25303724447836
 20
-25.2804982451572
 30
0.0
 10
-21.38391972107119
 20
-25.25541129595138
 30
0.0
 10
-21.59519383274969
 20
-25.22058613637883
 30
0.0
 10
-21.80869927323988
 20
-25.19316748700491
 30
0.0
 10
-21.88900458921099
 20
-25.18383778190457
 30
0.0
 10
-22.05003616781269
 20
-25.16692046947185
 30
0.0
 10
-22.21180853030245
 20
-25.153295477486
 30
0.0
 10
-22.29284982621858
 20
-25.14725952075664
 30
0.0
 10
-22.4966983882078
 20
-25.13399526942116
 30
0.0
 10
-22.70106594497891
 20
-25.12544441080156
 30
0.0
 10
-22.82422430409877
 20
-25.12197615140795
 30
0.0
 10
-22.94737278199605
 20
-25.12023029570735
 30
0.0
 10
-23.07046575501396
 20
-25.12032427636281
 30
0.0
  0
ARC
  5
BC
330
70
100
AcDbEntity
  8
0
 62
     7
370
    35
100
AcDbCircle
 10
-16.066401
 20
354.340905
 30
0.0
 40
382.952089234984
100
AcDbArc
 50
268.292321
 51
270.000752
  0
LINE
  5
BD
330
70
100
AcDbEntity
  8
0
 62
     7
370
    35
100
AcDbLine
 10
-23.070466
 20
-25.120324
 30
0.0
 11
-23.454852
 21
-25.120341
 31
0.0
  0
LINE
  5
BE
330
70
100
AcDbEntity
  8
0
 62
     7
370
    35
100
AcDbLine
 10
-23.83924
 20
-25.120358
 30
0.0
 11
-23.454852
 21
-25.120341
 31
0.0
  0
SPLINE
  5
BF
330
70
100
AcDbEntity
  8
0
 62
     7
370
    35
100
AcDbSpline
210
0.0
220
0.0
230
1.0
 70
     8
 71
     5
 72
    45
 73
    39
 74
     0
 42
0.000000001
 43
0.0
 40
1.274244766507662
 40
1.274244766507662
 40
1.274244766507662
 40
1.274244766507662
 40
1.274244766507662
 40
1.274244766507662
 40
1.749324706697924
 40
1.749324706697924
 40
1.749324706697924
 40
3.128719115787162
 40
3.128719115787162
 40
3.128719115787162
 40
4.172151224939564
 40
4.172151224939564
 40
4.172151224939564
 40
4.361446897103466
 40
4.361446897103466
 40
4.361446897103466
 40
4.550742569267378
 40
4.550742569267378
 40
4.550742569267378
 40
4.740006605438261
 40
4.740006605438261
 40
4.740006605438261
 40
4.929270641609145
 40
4.929270641609145
 40
4.929270641609145
 40
6.40166448536888
 40
6.40166448536888
 40
6.40166448536888
 40
7.41927299567769
 40
7.41927299567769
 40
7.41927299567769
 40
8.029327834695202
 40
8.029327834695202
 40
8.029327834695202
 40
8.63938267371271
 40
8.63938267371271
 40
8.63938267371271
 40
9.576653470352952
 40
9.576653470352952
 40
9.576653470352952
 40
9.576653470352952
 40
9.576653470352952
 40
9.576653470352952
 10
-28.71231134196445
 20
-27.37779350735606
 30
0.0
 10
-28.65442423493472
 20
-27.34026071628189
 30
0.0
 10
-28.59671570229411
 20
-27.30244939577093
 30
0.0
 10
-28.53919774778727
 20
-27.26434774614981
 30
0.0
 10
-28.31549062412988
 20
-27.11444443397328
 30
0.0
 10
-28.09540514742654
 20
-26.95986648963567
 30
0.0
 10
-27.9347994403084
 20
-26.8424562259763
 30
0.0
 10
-27.65711039244861
 20
-26.62968851635177
 30
0.0
 10
-27.39409804375403
 20
-26.40591057850909
 30
0.0
 10
-27.28470537654393
 20
-26.30779548816942
 30
0.0
 10
-27.16026199184911
 20
-26.18869671404232
 30
0.0
 10
-27.04578344537541
 20
-26.06770988488277
 30
0.0
 10
-27.0284433161059
 20
-26.04907997530034
 30
0.0
 10
-26.99432691066906
 20
-26.01178650952841
 30
0.0
 10
-26.96137338181025
 20
-25.97441788784032
 30
0.0
 10
-26.9451826685872
 20
-25.95571159417315
 30
0.0
 10
-26.91363031013411
 20
-25.91829642469478
 30
0.0
 10
-26.88296863166202
 20
-25.88125983540666
 30
0.0
 10
-26.86772867687955
 20
-25.86292300983815
 30
0.0
 10
-26.83708517481837
 20
-25.82681219403069
 30
0.0
 10
-26.80546955542632
 20
-25.7921433174632
 30
0.0
 10
-26.78925109494482
 20
-25.77521398868359
 30
0.0
 10
-26.64191350760167
 20
-25.63166761879728
 30
0.0
 10
-26.45639804965908
 20
-25.5272687733998
 30
0.0
 10
-26.28323435012283
 20
-25.45412000979106
 30
0.0
 10
-25.97940103007166
 20
-25.35326317849408
 30
0.0
 10
-25.663006805501
 20
-25.28198913811968
 30
0.0
 10
-25.53242326392608
 20
-25.25679541573209
 30
0.0
 10
-25.32159894856319
 20
-25.22180209249071
 30
0.0
 10
-25.10853302311506
 20
-25.19422388295582
 30
0.0
 10
-25.02837893813846
 20
-25.18483405305719
 30
0.0
 10
-24.8676457114518
 20
-25.1677986824016
 30
0.0
 10
-24.70616327107748
 20
-25.15405540101035
 30
0.0
 10
-24.62526512414491
 20
-25.14795947982449
 30
0.0
 10
-24.41983547331327
 20
-25.13441347270033
 30
0.0
 10
-24.21386749492308
 20
-25.12565853531984
 30
0.0
 10
-24.08896632657853
 20
-25.12208098935357
 30
0.0
 10
-23.96407461019199
 20
-25.12027323294974
 30
0.0
 10
-23.83923992878578
 20
-25.12035770864068
 30
0.0
  0
LINE
  5
C0
330
70
100
AcDbEntity
  8
0
 62
     7
370
    35
100
AcDbLine
 10
-29.5
 20
-26.590104
 30
0.0
 11
-28.712312
 21
-27.377792
 31
0.0
  0
LINE
  5
C1
330
70
100
AcDbEntity
  8
0
 62
     7
370
    35
100
AcDbLine
 10
-29.5
 20
-25.0
 30
0.0
 11
-30.5
 21
-24.0
 31
0.0
  0
LINE
  5
C2
330
70
100
AcDbEntity
  8
0
 62
     7
370
    35
100
AcDbLine
 10
-29.5
 20
25.0
 30
0.0
 11
-30.5
 21
24.0
 31
0.0
  0
LINE
  5
C3
330
70
100
AcDbEntity
  8
0
 62
     7
370
    35
100
AcDbLine
 10
2.702594
 20
-28.61165
 30
0.0
 11
6.67946
 21
-28.61165
 31
0.0
  0
LINE
  5
C4
330
70
100
AcDbEntity
  8
0
 62
     7
370
    35
100
AcDbLine
 10
-16.061375
 20
-28.61165
 30
0.0
 11
-12.084594
 21
-28.61165
 31
0.0
  0
LINE
  5
C5
330
70
100
AcDbEntity
  8
0
 62
     7
370
    35
100
AcDbLine
 10
-30.5
 20
-24.0
 30
0.0
 11
-36.0
 21
-24.0
 31
0.0
  0
LINE
  5
C6
330
70
100
AcDbEntity
  8
0
 62
     7
370
    35
100
AcDbLine
 10
-30.5
 20
24.0
 30
0.0
 11
-36.0
 21
24.0
 31
0.0
  0
LINE
  5
C7
330
70
100
AcDbEntity
  8
0
 62
     7
370
    35
100
AcDbLine
 10
-36.0
 20
24.0
 30
0.0
 11
-39.5
 21
27.5
 31
0.0
  0
LINE
  5
C8
330
70
100
AcDbEntity
  8
0
 62
     7
370
    35
100
AcDbLine
 10
-36.0
 20
-24.0
 30
0.0
 11
-39.5
 21
-27.5
 31
0.0
  0
LINE
  5
C9
330
70
100
AcDbEntity
  8
0
 62
     7
370
    35
100
AcDbLine
 10
-39.5
 20
-27.5
 30
0.0
 11
-153.5
 21
-27.5
 31
0.0
  0
LINE
  5
CA
330
70
100
AcDbEntity
  8
0
 62
     7
370
    35
100
AcDbLine
 10
-39.5
 20
27.5
 30
0.0
 11
-153.5
 21
27.5
 31
0.0
  0
ARC
  5
CB
330
70
100
AcDbEntity
  8
0
 62
     7
370
    35
100
AcDbCircle
 10
-153.5
 20
-29.5
 30
0.0
 40
2.0
100
AcDbArc
 50
90.0
 51
180.0
  0
ARC
  5
CC
330
70
100
AcDbEntity
  8
0
 62
     7
370
    35
100
AcDbCircle
 10
-153.5
 20
29.5
 30
0.0
 40
2.0
100
AcDbArc
 50
180.0
 51
270.0
  0
LINE
  5
CD
330
70
100
AcDbEntity
  8
0
 62
     7
370
    35
100
AcDbLine
 10
-155.5
 20
-29.5
 30
0.0
 11
-155.5
 21
-31.5
 31
0.0
  0
LINE
  5
CE
330
70
100
AcDbEntity
  8
0
 62
     7
370
    35
100
AcDbLine
 10
-155.5
 20
31.5
 30
0.0
 11
-155.5
 21
29.5
 31
0.0
  0
LINE
  5
CF
330
70
100
AcDbEntity
  8
0
 62
     7
370
    35
100
AcDbLine
 10
-155.5
 20
31.5
 30
0.0
 11
-157.5
 21
33.5
 31
0.0
  0
LINE
  5
D0
330
70
100
AcDbEntity
  8
0
 62
     7
370
    35
100
AcDbLine
 10
-155.5
 20
-31.5
 30
0.0
 11
-157.5
 21
-33.5
 31
0.0
  0
LINE
  5
D1
330
70
100
AcDbEntity
  8
0
 62
     7
370
    35
100
AcDbLine
 10
-163.5
 20
-33.5
 30
0.0
 11
-157.5
 21
-33.5
 31
0.0
  0
LINE
  5
D2
330
70
100
AcDbEntity
  8
0
 62
     7
370
    35
100
AcDbLine
 10
-163.5
 20
33.5
 30
0.0
 11
-157.5
 21
33.5
 31
0.0
  0
LINE
  5
D3
330
70
100
AcDbEntity
  8
0
 62
     7
370
    35
100
AcDbLine
 10
-163.5
 20
33.5
 30
0.0
 11
-165.5
 21
31.5
 31
0.0
  0
LINE
  5
D4
330
70
100
AcDbEntity
  8
0
 62
     7
370
    35
100
AcDbLine
 10
-163.5
 20
-33.5
 30
0.0
 11
-165.5
 21
-31.5
 31
0.0
  0
LINE
  5
D5
330
70
100
AcDbEntity
  8
0
 62
     7
370
    35
100
AcDbLine
 10
-165.5
 20
-28.5
 30
0.0
 11
-165.5
 21
-31.5
 31
0.0
  0
LINE
  5
D6
330
70
100
AcDbEntity
  8
0
 62
     7
370
    35
100
AcDbLine
 10
-165.5
 20
31.5
 30
0.0
 11
-165.5
 21
28.5
 31
0.0
  0
ARC
  5
D7
330
70
100
AcDbEntity
  8
0
 62
     7
370
    35
100
AcDbCircle
 10
-166.5
 20
-28.5
 30
0.0
 40
1.0
100
AcDbArc
 50
0.0
 51
90.0
  0
ARC
  5
D8
330
70
100
AcDbEntity
  8
0
 62
     7
370
    35
100
AcDbCircle
 10
-166.5
 20
28.5
 30
0.0
 40
1.0
100
AcDbArc
 50
270.0
 51
360.0
  0
LINE
  5
D9
330
70
100
AcDbEntity
  8
0
 62
     7
370
    35
100
AcDbLine
 10
-166.5
 20
27.5
 30
0.0
 11
-218.5
 21
27.5
 31
0.0
  0
LINE
  5
DA
330
70
100
AcDbEntity
  8
0
 62
     7
370
    35
100
AcDbLine
 10
-166.5
 20
-27.5
 30
0.0
 11
-218.5
 21
-27.5
 31
0.0
  0
LINE
  5
DB
330
70
100
AcDbEntity
  8
0
 62
     7
370
    35
100
AcDbLine
 10
-218.5
 20
27.5
 30
0.0
 11
-219.5
 21
26.5
 31
0.0
  0
LINE
  5
DC
330
70
100
AcDbEntity
  8
0
 62
     7
370
    35
100
AcDbLine
 10
-218.5
 20
-27.5
 30
0.0
 11
-219.5
 21
-26.5
 31
0.0
  0
LINE
  5
DD
330
70
100
AcDbEntity
  8
0
 62
     7
370
    35
100
AcDbLine
 10
-219.5
 20
-23.5
 30
0.0
 11
-219.5
 21
-26.5
 31
0.0
  0
LINE
  5
DE
330
70
100
AcDbEntity
  8
0
 62
     7
370
    35
100
AcDbLine
 10
-219.5
 20
26.5
 30
0.0
 11
-219.5
 21
23.5
 31
0.0
  0
ARC
  5
DF
330
70
100
AcDbEntity
  8
0
 62
     7
370
    35
100
AcDbCircle
 10
-220.5
 20
-23.5
 30
0.0
 40
1.0
100
AcDbArc
 50
0.0
 51
90.0
  0
ARC
  5
E0
330
70
100
AcDbEntity
  8
0
 62
     7
370
    35
100
AcDbCircle
 10
-220.5
 20
23.5
 30
0.0
 40
1.0
100
AcDbArc
 50
270.0
 51
0.0
  0
LINE
  5
E1
330
70
100
AcDbEntity
  8
0
 62
     7
370
    35
100
AcDbLine
 10
-220.5
 20
22.5
 30
0.0
 11
-268.5
 21
22.5
 31
0.0
  0
LINE
  5
E2
330
70
100
AcDbEntity
  8
0
 62
     7
370
    35
100
AcDbLine
 10
-220.5
 20
-22.5
 30
0.0
 11
-268.5
 21
-22.5
 31
0.0
  0
LINE
  5
E3
330
70
100
AcDbEntity
  8
0
 62
     7
370
    35
100
AcDbLine
 10
-270.5
 20
-20.5
 30
0.0
 11
-268.5
 21
-22.5
 31
0.0
  0
LINE
  5
E4
330
70
100
AcDbEntity
  8
0
 62
     7
370
    35
100
AcDbLine
 10
-270.5
 20
20.5
 30
0.0
 11
-268.5
 21
22.5
 31
0.0
  0
LINE
  5
E5
330
70
100
AcDbEntity
  8
0
 62
     7
370
    35
100
AcDbLine
 10
-270.5
 20
-20.5
 30
0.0
 11
-270.5
 21
20.5
 31
0.0
  0
ARC
  5
E6
330
70
100
AcDbEntity
  8
0
 62
     7
370
    35
100
AcDbCircle
 10
-215.5
 20
39.0
 30
0.0
 40
5.0
100
AcDbArc
 50
90.0
 51
180.0
  0
ARC
  5
E7
330
70
100
AcDbEntity
  8
0
 62
     7
370
    35
100
AcDbCircle
 10
-215.5
 20
-39.0
 30
0.0
 40
5.0
100
AcDbArc
 50
180.0
 51
270.0
  0
LINE
  5
E8
330
70
100
AcDbEntity
  8
0
 62
     7
370
    35
100
AcDbLine
 10
-205.5
 20
-44.0
 30
0.0
 11
-215.5
 21
-44.0
 31
0.0
  0
LINE
  5
E9
330
70
100
AcDbEntity
  8
0
 62
     7
370
    35
100
AcDbLine
 10
-205.5
 20
44.0
 30
0.0
 11
-215.5
 21
44.0
 31
0.0
  0
LINE
  5
EA
330
70
100
AcDbEntity
  8
0
 62
     7
370
    35
100
AcDbLine
 10
-220.5
 20
-29.0
 30
0.0
 11
-220.5
 21
-39.0
 31
0.0
  0
LINE
  5
EB
330
70
100
AcDbEntity
  8
0
 62
     7
370
    35
100
AcDbLine
 10
-220.5
 20
39.0
 30
0.0
 11
-220.5
 21
29.0
 31
0.0
  0
ARC
  5
EC
330
70
100
AcDbEntity
  8
0
 62
     7
370
    35
100
AcDbCircle
 10
-205.5
 20
-49.0
 30
0.0
 40
5.0
100
AcDbArc
 50
0.0
 51
90.0
  0
ARC
  5
ED
330
70
100
AcDbEntity
  8
0
 62
     7
370
    35
100
AcDbCircle
 10
-205.5
 20
49.0
 30
0.0
 40
5.0
100
AcDbArc
 50
270.0
 51
0.0
  0
LINE
  5
EE
330
70
100
AcDbEntity
  8
0
 62
     7
370
    35
100
AcDbLine
 10
-219.0
 20
-27.5
 30
0.0
 11
-220.5
 21
-29.0
 31
0.0
  0
LINE
  5
EF
330
70
100
AcDbEntity
  8
0
 62
     7
370
    35
100
AcDbLine
 10
-219.0
 20
-26.999773
 30
0.0
 11
-219.0
 21
-27.5
 31
0.0
  0
LINE
  5
F0
330
70
100
AcDbEntity
  8
0
 62
     7
370
    35
100
AcDbLine
 10
-219.0
 20
27.5
 30
0.0
 11
-220.5
 21
29.0
 31
0.0
  0
LINE
  5
F1
330
70
100
AcDbEntity
  8
0
 62
     7
370
    35
100
AcDbLine
 10
-219.0
 20
27.5
 30
0.0
 11
-219.0
 21
26.999773
 31
0.0
  0
LINE
  5
F2
330
70
100
AcDbEntity
  8
0
 62
     7
370
    35
100
AcDbLine
 10
-200.5
 20
73.0
 30
0.0
 11
-200.5
 21
51.0
 31
0.0
  0
LINE
  5
F3
330
70
100
AcDbEntity
  8
0
 62
     7
370
    35
100
AcDbLine
 10
-200.5
 20
75.0
 30
0.0
 11
-200.5
 21
73.0
 31
0.0
  0
LINE
  5
F4
330
70
100
AcDbEntity
  8
0
 62
     7
370
    35
100
AcDbLine
 10
-200.5
 20
-73.0
 30
0.0
 11
-200.5
 21
-75.0
 31
0.0
  0
LINE
  5
F5
330
70
100
AcDbEntity
  8
0
 62
     7
370
    35
100
AcDbLine
 10
-200.5
 20
-51.0
 30
0.0
 11
-200.5
 21
-73.0
 31
0.0
  0
LINE
  5
F6
330
70
100
AcDbEntity
  8
0
 62
     7
370
    35
100
AcDbLine
 10
-200.5
 20
-49.0
 30
0.0
 11
-200.5
 21
-51.0
 31
0.0
  0
LINE
  5
F7
330
70
100
AcDbEntity
  8
0
 62
     7
370
    35
100
AcDbLine
 10
-200.5
 20
51.0
 30
0.0
 11
-200.5
 21
49.0
 31
0.0
  0
LINE
  5
F8
330
70
100
AcDbEntity
  8
0
 62
     7
370
    35
100
AcDbLine
 10
-219.0
 20
-27.5
 30
0.0
 11
-167.0
 21
-27.5
 31
0.0
  0
LINE
  5
F9
330
70
100
AcDbEntity
  8
0
 62
     7
370
    35
100
AcDbLine
 10
-165.5
 20
29.0
 30
0.0
 11
-165.5
 21
39.0
 31
0.0
  0
LINE
  5
FA
330
70
100
AcDbEntity
  8
0
 62
     7
370
    35
100
AcDbLine
 10
-165.5
 20
28.500002
 30
0.0
 11
-165.5
 21
29.0
 31
0.0
  0
LINE
  5
FB
330
70
100
AcDbEntity
  8
0
 62
     7
370
    35
100
AcDbLine
 10
-165.5
 20
-29.0
 30
0.0
 11
-165.5
 21
-28.500002
 31
0.0
  0
LINE
  5
FC
330
70
100
AcDbEntity
  8
0
 62
     7
370
    35
100
AcDbLine
 10
-165.5
 20
-39.0
 30
0.0
 11
-165.5
 21
-29.0
 31
0.0
  0
LINE
  5
FD
330
70
100
AcDbEntity
  8
0
 62
     7
370
    35
100
AcDbLine
 10
-167.0
 20
-27.5
 30
0.0
 11
-165.5
 21
-29.0
 31
0.0
  0
LINE
  5
FE
330
70
100
AcDbEntity
  8
0
 62
     7
370
    35
100
AcDbLine
 10
-219.0
 20
27.5
 30
0.0
 11
-167.0
 21
27.5
 31
0.0
  0
LINE
  5
FF
330
70
100
AcDbEntity
  8
0
 62
     7
370
    35
100
AcDbLine
 10
-167.0
 20
27.5
 30
0.0
 11
-165.5
 21
29.0
 31
0.0
  0
LINE
  5
100
330
70
100
AcDbEntity
  8
0
 62
     7
370
    35
100
AcDbLine
 10
-184.5
 20
73.0
 30
0.0
 11
-184.5
 21
51.0
 31
0.0
  0
LINE
  5
101
330
70
100
AcDbEntity
  8
0
 62
     7
370
    35
100
AcDbLine
 10
-200.5
 20
51.0
 30
0.0
 11
-184.5
 21
51.0
 31
0.0
  0
LINE
  5
102
330
70
100
AcDbEntity
  8
0
 62
     7
370
    35
100
AcDbLine
 10
-200.5
 20
73.0
 30
0.0
 11
-184.5
 21
73.0
 31
0.0
  0
ARC
  5
103
330
70
100
AcDbEntity
  8
0
 62
     7
370
    35
100
AcDbCircle
 10
-205.5
 20
-75.0
 30
0.0
 40
5.0
100
AcDbArc
 50
270.0
 51
0.0
  0
LINE
  5
104
330
70
100
AcDbEntity
  8
0
 62
     7
370
    13
100
AcDbLine
 10
-205.5
 20
-44.0
 30
0.0
 11
-205.5
 21
-80.0
 31
0.0
  0
LINE
  5
105
330
70
100
AcDbEntity
  8
0
 62
     7
370
    13
100
AcDbLine
 10
-205.5
 20
80.0
 30
0.0
 11
-205.5
 21
44.0
 31
0.0
  0
ARC
  5
106
330
70
100
AcDbEntity
  8
0
 62
     7
370
    35
100
AcDbCircle
 10
-205.5
 20
75.0
 30
0.0
 40
5.0
100
AcDbArc
 50
360.0
 51
90.0
  0
LINE
  5
107
330
70
100
AcDbEntity
  8
0
 62
     7
370
    35
100
AcDbLine
 10
-184.5
 20
-51.0
 30
0.0
 11
-184.5
 21
-73.0
 31
0.0
  0
LINE
  5
108
330
70
100
AcDbEntity
  8
0
 62
     7
370
    35
100
AcDbLine
 10
-200.5
 20
-73.0
 30
0.0
 11
-184.5
 21
-73.0
 31
0.0
  0
LINE
  5
109
330
70
100
AcDbEntity
  8
0
 62
     7
370
    35
100
AcDbLine
 10
-200.5
 20
-51.0
 30
0.0
 11
-184.5
 21
-51.0
 31
0.0
  0
ARC
  5
10A
330
70
100
AcDbEntity
  8
0
 62
     7
370
    35
100
AcDbCircle
 10
-170.5
 20
39.0
 30
0.0
 40
5.0
100
AcDbArc
 50
0.0
 51
90.0
  0
ARC
  5
10B
330
70
100
AcDbEntity
  8
0
 62
     7
370
    35
100
AcDbCircle
 10
-170.5
 20
-39.0
 30
0.0
 40
5.0
100
AcDbArc
 50
270.0
 51
0.0
  0
LINE
  5
10C
330
70
100
AcDbEntity
  8
0
 62
     7
370
    35
100
AcDbLine
 10
-184.5
 20
51.0
 30
0.0
 11
-184.5
 21
49.0
 31
0.0
  0
LINE
  5
10D
330
70
100
AcDbEntity
  8
0
 62
     7
370
    35
100
AcDbLine
 10
-184.5
 20
-49.0
 30
0.0
 11
-184.5
 21
-51.0
 31
0.0
  0
LINE
  5
10E
330
70
100
AcDbEntity
  8
0
 62
     7
370
    35
100
AcDbLine
 10
-184.5
 20
-73.0
 30
0.0
 11
-184.5
 21
-75.0
 31
0.0
  0
LINE
  5
10F
330
70
100
AcDbEntity
  8
0
 62
     7
370
    35
100
AcDbLine
 10
-184.5
 20
75.0
 30
0.0
 11
-184.5
 21
73.0
 31
0.0
  0
LINE
  5
110
330
70
100
AcDbEntity
  8
0
 62
     7
370
    35
100
AcDbLine
 10
-205.5
 20
80.0
 30
0.0
 11
-214.5
 21
80.0
 31
0.0
  0
LINE
  5
111
330
70
100
AcDbEntity
  8
0
 62
     7
370
    35
100
AcDbLine
 10
-205.5
 20
-80.0
 30
0.0
 11
-214.5
 21
-80.0
 31
0.0
  0
LINE
  5
112
330
70
100
AcDbEntity
  8
0
 62
     7
370
    13
100
AcDbLine
 10
-214.5
 20
80.0
 30
0.0
 11
-214.5
 21
44.0
 31
0.0
  0
LINE
  5
113
330
70
100
AcDbEntity
  8
0
 62
     7
370
    13
100
AcDbLine
 10
-214.5
 20
-44.0
 30
0.0
 11
-214.5
 21
-80.0
 31
0.0
  0
LINE
  5
114
330
70
100
AcDbEntity
  8
0
 62
     7
370
    35
100
AcDbLine
 10
-170.5
 20
-44.0
 30
0.0
 11
-179.5
 21
-44.0
 31
0.0
  0
LINE
  5
115
330
70
100
AcDbEntity
  8
0
 62
     7
370
    35
100
AcDbLine
 10
-170.5
 20
44.0
 30
0.0
 11
-179.5
 21
44.0
 31
0.0
  0
ARC
  5
116
330
70
100
AcDbEntity
  8
0
 62
     7
370
    35
100
AcDbCircle
 10
-179.5
 20
-75.0
 30
0.0
 40
5.0
100
AcDbArc
 50
180.0
 51
270.0
  0
ARC
  5
117
330
70
100
AcDbEntity
  8
0
 62
     7
370
    35
100
AcDbCircle
 10
-179.5
 20
75.0
 30
0.0
 40
5.0
100
AcDbArc
 50
90.0
 51
180.0
  0
LINE
  5
118
330
70
100
AcDbEntity
  8
0
 62
     7
370
    13
100
AcDbLine
 10
-179.5
 20
-44.0
 30
0.0
 11
-179.5
 21
-80.0
 31
0.0
  0
LINE
  5
119
330
70
100
AcDbEntity
  8
0
 62
     7
370
    13
100
AcDbLine
 10
-179.5
 20
80.0
 30
0.0
 11
-179.5
 21
44.0
 31
0.0
  0
ARC
  5
11A
330
70
100
AcDbEntity
  8
0
 62
     7
370
    35
100
AcDbCircle
 10
-179.5
 20
-49.0
 30
0.0
 40
5.0
100
AcDbArc
 50
90.0
 51
180.0
  0
ARC
  5
11B
330
70
100
AcDbEntity
  8
0
 62
     7
370
    35
100
AcDbCircle
 10
-179.5
 20
49.0
 30
0.0
 40
5.0
100
AcDbArc
 50
180.0
 51
270.0
  0
ARC
  5
11C
330
70
100
AcDbEntity
  8
0
 62
     7
370
    35
100
AcDbCircle
 10
-214.5
 20
85.0
 30
0.0
 40
5.0
100
AcDbArc
 50
180.0
 51
270.0
  0
LINE
  5
11D
330
70
100
AcDbEntity
  8
0
 62
     7
370
    35
100
AcDbLine
 10
-219.5
 20
85.0
 30
0.0
 11
-219.5
 21
42.000004
 31
0.0
  0
LINE
  5
11E
330
70
100
AcDbEntity
  8
0
 62
     7
370
    35
100
AcDbLine
 10
-219.5
 20
-42.000004
 30
0.0
 11
-219.5
 21
-85.0
 31
0.0
  0
ARC
  5
11F
330
70
100
AcDbEntity
  8
0
 62
     7
370
    35
100
AcDbCircle
 10
-214.5
 20
-85.0
 30
0.0
 40
5.0
100
AcDbArc
 50
90.0
 51
180.0
  0
LINE
  5
120
330
70
100
AcDbEntity
  8
0
 62
     7
370
    35
100
AcDbLine
 10
-170.5
 20
80.0
 30
0.0
 11
-179.5
 21
80.0
 31
0.0
  0
LINE
  5
121
330
70
100
AcDbEntity
  8
0
 62
     7
370
    13
100
AcDbLine
 10
-170.5
 20
44.0
 30
0.0
 11
-170.5
 21
80.0
 31
0.0
  0
LINE
  5
122
330
70
100
AcDbEntity
  8
0
 62
     7
370
    13
100
AcDbLine
 10
-170.5
 20
-80.0
 30
0.0
 11
-170.5
 21
-44.0
 31
0.0
  0
LINE
  5
123
330
70
100
AcDbEntity
  8
0
 62
     7
370
    35
100
AcDbLine
 10
-170.5
 20
-80.0
 30
0.0
 11
-179.5
 21
-80.0
 31
0.0
  0
LINE
  5
124
330
70
100
AcDbEntity
  8
0
 62
     7
370
    35
100
AcDbLine
 10
-219.499997
 20
88.299108
 30
0.0
 11
-219.5
 21
87.840144
 31
0.0
  0
LINE
  5
125
330
70
100
AcDbEntity
  8
0
 62
     7
370
    35
100
AcDbLine
 10
-219.500033
 20
89.344738
 30
0.0
 11
-219.499997
 21
88.299113
 31
0.0
  0
LINE
  5
126
330
70
100
AcDbEntity
  8
0
 62
     7
370
    35
100
AcDbLine
 10
-219.499997
 20
84.811873
 30
0.0
 11
-219.5
 21
84.511031
 31
0.0
  0
LINE
  5
127
330
70
100
AcDbEntity
  8
0
 62
     7
370
    35
100
AcDbLine
 10
-219.500009
 20
84.999783
 30
0.0
 11
-219.499997
 21
84.811877
 31
0.0
  0
LINE
  5
128
330
70
100
AcDbEntity
  8
0
 62
     7
370
    35
100
AcDbLine
 10
-219.499997
 20
83.356191
 30
0.0
 11
-219.5
 21
83.0843
 31
0.0
  0
LINE
  5
129
330
70
100
AcDbEntity
  8
0
 62
     7
370
    35
100
AcDbLine
 10
-219.500033
 20
84.228808
 30
0.0
 11
-219.499997
 21
83.356195
 31
0.0
  0
LINE
  5
12A
330
70
100
AcDbEntity
  8
0
 62
     7
370
    35
100
AcDbLine
 10
-219.499997
 20
81.656012
 30
0.0
 11
-219.500001
 21
81.411959
 31
0.0
  0
LINE
  5
12B
330
70
100
AcDbEntity
  8
0
 62
     7
370
    35
100
AcDbLine
 10
-219.500033
 20
82.490269
 30
0.0
 11
-219.499997
 21
81.656016
 31
0.0
  0
LINE
  5
12C
330
70
100
AcDbEntity
  8
0
 62
     7
370
    35
100
AcDbLine
 10
-219.499997
 20
79.716321
 30
0.0
 11
-219.500001
 21
79.49892
 31
0.0
  0
LINE
  5
12D
330
70
100
AcDbEntity
  8
0
 62
     7
370
    35
100
AcDbLine
 10
-219.500033
 20
80.509772
 30
0.0
 11
-219.499997
 21
79.716325
 31
0.0
  0
LINE
  5
12E
330
70
100
AcDbEntity
  8
0
 62
     7
370
    35
100
AcDbLine
 10
-219.499997
 20
77.542809
 30
0.0
 11
-219.500001
 21
77.350808
 31
0.0
  0
LINE
  5
12F
330
70
100
AcDbEntity
  8
0
 62
     7
370
    35
100
AcDbLine
 10
-219.500033
 20
78.293125
 30
0.0
 11
-219.499997
 21
77.542812
 31
0.0
  0
LINE
  5
130
330
70
100
AcDbEntity
  8
0
 62
     7
370
    35
100
AcDbLine
 10
-219.499997
 20
75.14185
 30
0.0
 11
-219.500001
 21
74.973946
 31
0.0
  0
LINE
  5
131
330
70
100
AcDbEntity
  8
0
 62
     7
370
    35
100
AcDbLine
 10
-219.500033
 20
75.846831
 30
0.0
 11
-219.499997
 21
75.141854
 31
0.0
  0
LINE
  5
132
330
70
100
AcDbEntity
  8
0
 62
     7
370
    35
100
AcDbLine
 10
-219.499997
 20
72.520488
 30
0.0
 11
-219.500001
 21
72.375334
 31
0.0
  0
LINE
  5
133
330
70
100
AcDbEntity
  8
0
 62
     7
370
    35
100
AcDbLine
 10
-219.500033
 20
73.178066
 30
0.0
 11
-219.499997
 21
72.520491
 31
0.0
  0
LINE
  5
134
330
70
100
AcDbEntity
  8
0
 62
     7
370
    35
100
AcDbLine
 10
-219.499997
 20
69.68641
 30
0.0
 11
-219.500002
 21
69.562629
 31
0.0
  0
LINE
  5
135
330
70
100
AcDbEntity
  8
0
 62
     7
370
    35
100
AcDbLine
 10
-219.500033
 20
70.294657
 30
0.0
 11
-219.499997
 21
69.686413
 31
0.0
  0
LINE
  5
136
330
70
100
AcDbEntity
  8
0
 62
     7
370
    35
100
AcDbLine
 10
-219.499997
 20
66.64793
 30
0.0
 11
-219.500002
 21
66.544111
 31
0.0
  0
LINE
  5
137
330
70
100
AcDbEntity
  8
0
 62
     7
370
    35
100
AcDbLine
 10
-219.500033
 20
67.205061
 30
0.0
 11
-219.499997
 21
66.647932
 31
0.0
  0
LINE
  5
138
330
70
100
AcDbEntity
  8
0
 62
     7
370
    35
100
AcDbLine
 10
-219.499997
 20
63.41396
 30
0.0
 11
-219.500002
 21
63.328649
 31
0.0
  0
LINE
  5
139
330
70
100
AcDbEntity
  8
0
 62
     7
370
    35
100
AcDbLine
 10
-219.500033
 20
63.918341
 30
0.0
 11
-219.499997
 21
63.413962
 31
0.0
  0
LINE
  5
13A
330
70
100
AcDbEntity
  8
0
 62
     7
370
    35
100
AcDbLine
 10
-219.499997
 20
59.993986
 30
0.0
 11
-219.500002
 21
59.925667
 31
0.0
  0
LINE
  5
13B
330
70
100
AcDbEntity
  8
0
 62
     7
370
    35
100
AcDbLine
 10
-219.500033
 20
60.444138
 30
0.0
 11
-219.499997
 21
59.993988
 31
0.0
  0
LINE
  5
13C
330
70
100
AcDbEntity
  8
0
 62
     7
370
    35
100
AcDbLine
 10
-219.499997
 20
56.398039
 30
0.0
 11
-219.500002
 21
56.345119
 31
0.0
  0
LINE
  5
13D
330
70
100
AcDbEntity
  8
0
 62
     7
370
    35
100
AcDbLine
 10
-219.500033
 20
56.792642
 30
0.0
 11
-219.499997
 21
56.398041
 31
0.0
  0
LINE
  5
13E
330
70
100
AcDbEntity
  8
0
 62
     7
370
    35
100
AcDbLine
 10
-219.499997
 20
52.636667
 30
0.0
 11
-219.500002
 21
52.597461
 31
0.0
  0
LINE
  5
13F
330
70
100
AcDbEntity
  8
0
 62
     7
370
    35
100
AcDbLine
 10
-219.500033
 20
52.974563
 30
0.0
 11
-219.499997
 21
52.636669
 31
0.0
  0
LINE
  5
140
330
70
100
AcDbEntity
  8
0
 62
     7
370
    35
100
AcDbLine
 10
-219.499997
 20
48.720903
 30
0.0
 11
-219.500002
 21
48.693997
 31
0.0
  0
LINE
  5
141
330
70
100
AcDbEntity
  8
0
 62
     7
370
    35
100
AcDbLine
 10
-219.500033
 20
49.0011
 30
0.0
 11
-219.499997
 21
48.720904
 31
0.0
  0
LINE
  5
142
330
70
100
AcDbEntity
  8
0
 62
     7
370
    35
100
AcDbLine
 10
-219.499997
 20
44.662232
 30
0.0
 11
-219.500001
 21
44.64518
 31
0.0
  0
LINE
  5
143
330
70
100
AcDbEntity
  8
0
 62
     7
370
    35
100
AcDbLine
 10
-219.500033
 20
44.883909
 30
0.0
 11
-219.499997
 21
44.662233
 31
0.0
  0
LINE
  5
144
330
70
100
AcDbEntity
  8
0
 62
     7
370
    35
100
AcDbLine
 10
-219.500003
 20
-45.165242
 30
0.0
 11
-219.499996
 21
-45.394097
 31
0.0
  0
LINE
  5
145
330
70
100
AcDbEntity
  8
0
 62
     7
370
    35
100
AcDbLine
 10
-219.499999
 20
-45.147091
 30
0.0
 11
-219.500003
 21
-45.16524
 31
0.0
  0
LINE
  5
146
330
70
100
AcDbEntity
  8
0
 62
     7
370
    35
100
AcDbLine
 10
-219.500003
 20
-49.207088
 30
0.0
 11
-219.499996
 21
-49.494373
 31
0.0
  0
LINE
  5
147
330
70
100
AcDbEntity
  8
0
 62
     7
370
    35
100
AcDbLine
 10
-219.499998
 20
-49.178843
 30
0.0
 11
-219.500003
 21
-49.207086
 31
0.0
  0
LINE
  5
148
330
70
100
AcDbEntity
  8
0
 62
     7
370
    35
100
AcDbLine
 10
-219.500003
 20
-53.104601
 30
0.0
 11
-219.499996
 21
-53.449472
 31
0.0
  0
LINE
  5
149
330
70
100
AcDbEntity
  8
0
 62
     7
370
    35
100
AcDbLine
 10
-219.499998
 20
-53.063812
 30
0.0
 11
-219.500003
 21
-53.1046
 31
0.0
  0
LINE
  5
14A
330
70
100
AcDbEntity
  8
0
 62
     7
370
    35
100
AcDbLine
 10
-219.500003
 20
-56.84635
 30
0.0
 11
-219.499996
 21
-57.247795
 31
0.0
  0
LINE
  5
14B
330
70
100
AcDbEntity
  8
0
 62
     7
370
    35
100
AcDbLine
 10
-219.499998
 20
-56.791635
 30
0.0
 11
-219.500003
 21
-56.846348
 31
0.0
  0
LINE
  5
14C
330
70
100
AcDbEntity
  8
0
 62
     7
370
    35
100
AcDbLine
 10
-219.500003
 20
-60.421358
 30
0.0
 11
-219.499996
 21
-60.8782
 31
0.0
  0
LINE
  5
14D
330
70
100
AcDbEntity
  8
0
 62
     7
370
    35
100
AcDbLine
 10
-219.499998
 20
-60.351045
 30
0.0
 11
-219.500003
 21
-60.421356
 31
0.0
  0
LINE
  5
14E
330
70
100
AcDbEntity
  8
0
 62
     7
370
    35
100
AcDbLine
 10
-219.500003
 20
-63.81914
 30
0.0
 11
-219.499996
 21
-64.33004
 31
0.0
  0
LINE
  5
14F
330
70
100
AcDbEntity
  8
0
 62
     7
370
    35
100
AcDbLine
 10
-219.499998
 20
-63.731647
 30
0.0
 11
-219.500003
 21
-63.819138
 31
0.0
  0
LINE
  5
150
330
70
100
AcDbEntity
  8
0
 62
     7
370
    35
100
AcDbLine
 10
-219.500003
 20
-67.02973
 30
0.0
 11
-219.499996
 21
-67.593188
 31
0.0
  0
LINE
  5
151
330
70
100
AcDbEntity
  8
0
 62
     7
370
    35
100
AcDbLine
 10
-219.499998
 20
-66.923547
 30
0.0
 11
-219.500003
 21
-67.029727
 31
0.0
  0
LINE
  5
152
330
70
100
AcDbEntity
  8
0
 62
     7
370
    35
100
AcDbLine
 10
-219.500003
 20
-70.043709
 30
0.0
 11
-219.499996
 21
-70.658073
 31
0.0
  0
LINE
  5
153
330
70
100
AcDbEntity
  8
0
 62
     7
370
    35
100
AcDbLine
 10
-219.499998
 20
-69.91739
 30
0.0
 11
-219.500003
 21
-70.043707
 31
0.0
  0
LINE
  5
154
330
70
100
AcDbEntity
  8
0
 62
     7
370
    35
100
AcDbLine
 10
-219.500003
 20
-72.852239
 30
0.0
 11
-219.499996
 21
-73.515706
 31
0.0
  0
LINE
  5
155
330
70
100
AcDbEntity
  8
0
 62
     7
370
    35
100
AcDbLine
 10
-219.499999
 20
-72.704377
 30
0.0
 11
-219.500003
 21
-72.852236
 31
0.0
  0
LINE
  5
156
330
70
100
AcDbEntity
  8
0
 62
     7
370
    35
100
AcDbLine
 10
-219.500003
 20
-75.44708
 30
0.0
 11
-219.499996
 21
-76.157705
 31
0.0
  0
LINE
  5
157
330
70
100
AcDbEntity
  8
0
 62
     7
370
    35
100
AcDbLine
 10
-219.499999
 20
-75.276301
 30
0.0
 11
-219.500003
 21
-75.447077
 31
0.0
  0
LINE
  5
158
330
70
100
AcDbEntity
  8
0
 62
     7
370
    35
100
AcDbLine
 10
-219.500003
 20
-77.820622
 30
0.0
 11
-219.499996
 21
-78.576321
 31
0.0
  0
LINE
  5
159
330
70
100
AcDbEntity
  8
0
 62
     7
370
    35
100
AcDbLine
 10
-219.499999
 20
-77.625584
 30
0.0
 11
-219.500003
 21
-77.820619
 31
0.0
  0
LINE
  5
15A
330
70
100
AcDbEntity
  8
0
 62
     7
370
    35
100
AcDbLine
 10
-219.500003
 20
-79.965903
 30
0.0
 11
-219.499996
 21
-80.764458
 31
0.0
  0
LINE
  5
15B
330
70
100
AcDbEntity
  8
0
 62
     7
370
    35
100
AcDbLine
 10
-219.499999
 20
-79.745308
 30
0.0
 11
-219.500003
 21
-79.965899
 31
0.0
  0
LINE
  5
15C
330
70
100
AcDbEntity
  8
0
 62
     7
370
    35
100
AcDbLine
 10
-219.500003
 20
-81.87663
 30
0.0
 11
-219.499996
 21
-82.7157
 31
0.0
  0
LINE
  5
15D
330
70
100
AcDbEntity
  8
0
 62
     7
370
    35
100
AcDbLine
 10
-219.499999
 20
-81.629235
 30
0.0
 11
-219.500003
 21
-81.876626
 31
0.0
  0
LINE
  5
15E
330
70
100
AcDbEntity
  8
0
 62
     7
370
    35
100
AcDbLine
 10
-219.500003
 20
-83.547199
 30
0.0
 11
-219.499996
 21
-84.424322
 31
0.0
  0
LINE
  5
15F
330
70
100
AcDbEntity
  8
0
 62
     7
370
    35
100
AcDbLine
 10
-219.5
 20
-83.271825
 30
0.0
 11
-219.500003
 21
-83.547195
 31
0.0
  0
LINE
  5
160
330
70
100
AcDbEntity
  8
0
 62
     7
370
    35
100
AcDbLine
 10
-219.500003
 20
-84.972709
 30
0.0
 11
-219.500004
 21
-84.9997
 31
0.0
  0
LINE
  5
161
330
70
100
AcDbEntity
  8
0
 62
     7
370
    35
100
AcDbLine
 10
-219.5
 20
-84.668255
 30
0.0
 11
-219.500003
 21
-84.972705
 31
0.0
  0
LINE
  5
162
330
70
100
AcDbEntity
  8
0
 62
     7
370
    35
100
AcDbLine
 10
-219.500003
 20
-88.303826
 30
0.0
 11
-219.499996
 21
-89.351879
 31
0.0
  0
LINE
  5
163
330
70
100
AcDbEntity
  8
0
 62
     7
370
    35
100
AcDbLine
 10
-219.5
 20
-87.871696
 30
0.0
 11
-219.500003
 21
-88.303821
 31
0.0
  0
LINE
  5
164
330
70
100
AcDbEntity
  8
0
 62
     7
370
    35
100
AcDbLine
 10
-219.5
 20
-85.0
 30
0.0
 11
-219.5
 21
-87.871696
 31
0.0
  0
LINE
  5
165
330
70
100
AcDbEntity
  8
0
 62
     7
370
    35
100
AcDbLine
 10
-219.5
 20
87.871696
 30
0.0
 11
-219.5
 21
85.0
 31
0.0
  0
ARC
  5
166
330
70
100
AcDbEntity
  8
0
 62
     7
370
    35
100
AcDbCircle
 10
-170.5
 20
85.0
 30
0.0
 40
5.0
100
AcDbArc
 50
270.0
 51
0.0
  0
ARC
  5
167
330
70
100
AcDbEntity
  8
0
 62
     7
370
    35
100
AcDbCircle
 10
-170.5
 20
-85.0
 30
0.0
 40
5.0
100
AcDbArc
 50
0.0
 51
90.0
  0
LINE
  5
168
330
70
100
AcDbEntity
  8
0
 62
     7
370
    35
100
AcDbLine
 10
-165.5
 20
39.011249
 30
0.0
 11
-165.5
 21
85.0
 31
0.0
  0
LINE
  5
169
330
70
100
AcDbEntity
  8
0
 62
     7
370
    35
100
AcDbLine
 10
-165.5
 20
-85.0
 30
0.0
 11
-165.5
 21
-39.011239
 31
0.0
  0
SPLINE
  5
16A
330
70
100
AcDbEntity
  8
0
 62
     7
370
    35
100
AcDbSpline
210
0.0
220
0.0
230
1.0
 70
     8
 71
     5
 72
    21
 73
    15
 74
     0
 42
0.000000001
 43
0.0
 40
0.0
 40
0.0
 40
0.0
 40
0.0
 40
0.0
 40
0.0
 40
1.035081090892955
 40
1.035081090892955
 40
1.035081090892955
 40
1.368339676287245
 40
1.368339676287245
 40
1.368339676287245
 40
1.73578480663374
 40
1.73578480663374
 40
1.73578480663374
 40
2.553768946216498
 40
2.553768946216498
 40
2.553768946216498
 40
2.553768946216498
 40
2.553768946216498
 40
2.553768946216498
 10
-217.8511609892447
 20
88.3048247201556
 30
0.0
 10
-217.9642468144116
 20
88.22162412314967
 30
0.0
 10
-218.0897938250901
 20
88.15858212235925
 30
0.0
 10
-218.2188116336953
 20
88.10783909624124
 30
0.0
 10
-218.3942058893156
 20
88.05214779996861
 30
0.0
 10
-218.573189981931
 20
88.00817612816795
 30
0.0
 10
-218.6169836505608
 20
87.99808802583
 30
0.0
 10
-218.7093493705498
 20
87.97808864837108
 30
0.0
 10
-218.8023293564942
 20
87.96040995821208
 30
0.0
 10
-218.8512492687723
 20
87.95171257707608
 30
0.0
 10
-219.009400107431
 20
87.9253585358509
 30
0.0
 10
-219.1686212051727
 20
87.90410644729224
 30
0.0
 10
-219.278897256136
 20
87.89146902526856
 30
0.0
 10
-219.3893531790158
 20
87.88070764098235
 30
0.0
 10
-219.5000034284595
 20
87.87169576011503
 30
0.0
  0
LINE
  5
16B
330
70
100
AcDbEntity
  8
0
 62
     7
370
    13
100
AcDbLine
 10
-219.499997
 20
88.299113
 30
0.0
 11
-217.867791
 21
88.293398
 31
0.0
  0
LINE
  5
16C
330
70
100
AcDbEntity
  8
0
 62
     7
370
    35
100
AcDbLine
 10
-217.5
 20
91.328547
 30
0.0
 11
-217.5
 21
91.314748
 31
0.0
  0
ARC
  5
16D
330
70
100
AcDbEntity
  8
0
 62
     7
370
    35
100
AcDbCircle
 10
123.548129
 20
-256.92258
 30
0.0
 40
487.4249532829793
100
AcDbArc
 50
134.402431
 51
134.73242
  0
ARC
  5
16E
330
70
100
AcDbEntity
  8
0
 62
     7
370
    35
100
AcDbCircle
 10
-227.850824
 20
-1221.499181
 30
0.0
 40
1312.868531912973
100
AcDbArc
 50
89.376466
 51
89.548268
  0
LINE
  5
16F
330
70
100
AcDbEntity
  8
0
 62
     7
370
    35
100
AcDbLine
 10
-167.5
 20
-91.328547
 30
0.0
 11
-167.5
 21
-91.314748
 31
0.0
  0
ARC
  5
170
330
70
100
AcDbEntity
  8
0
 62
     7
370
    35
100
AcDbCircle
 10
-508.548129
 20
256.92258
 30
0.0
 40
487.4249532624727
100
AcDbArc
 50
314.402431
 51
314.73242
  0
LINE
  5
171
330
70
100
AcDbEntity
  8
0
 62
     7
370
    35
100
AcDbLine
 10
-165.5
 20
-89.344833
 30
0.0
 11
-165.5
 21
-88.299103
 31
0.0
  0
LINE
  5
172
330
70
100
AcDbEntity
  8
0
 62
     7
370
    13
100
AcDbLine
 10
-167.132202
 20
-88.293398
 30
0.0
 11
-165.500003
 21
-88.299113
 31
0.0
  0
ARC
  5
173
330
70
100
AcDbEntity
  8
0
 62
     7
370
    35
100
AcDbCircle
 10
-157.14069
 20
1223.068189
 30
0.0
 40
1314.437561278784
100
AcDbArc
 50
269.376839
 51
269.548437
  0
LINE
  5
174
330
70
100
AcDbEntity
  8
0
 62
     7
370
    35
100
AcDbLine
 10
-165.5
 20
-88.299103
 30
0.0
 11
-165.5
 21
-87.870749
 31
0.0
  0
SPLINE
  5
175
330
70
100
AcDbEntity
  8
0
 62
     7
370
    35
100
AcDbSpline
210
0.0
220
0.0
230
1.0
 70
     8
 71
     5
 72
    21
 73
    15
 74
     0
 42
0.000000001
 43
0.0
 40
0.0
 40
0.0
 40
0.0
 40
0.0
 40
0.0
 40
0.0
 40
1.03508109104254
 40
1.03508109104254
 40
1.03508109104254
 40
1.36833967644524
 40
1.36833967644524
 40
1.36833967644524
 40
1.735784806798399
 40
1.735784806798399
 40
1.735784806798399
 40
2.553768946466065
 40
2.553768946466065
 40
2.553768946466065
 40
2.553768946466065
 40
2.553768946466065
 40
2.553768946466065
 10
-167.1488390107845
 20
-88.30482472012626
 30
0.0
 10
-167.0357531856135
 20
-88.22162412307942
 30
0.0
 10
-166.9102061749093
 20
-88.15858212229
 30
0.0
 10
-166.7811883663644
 20
-88.10783909621051
 30
0.0
 10
-166.6057941107207
 20
-88.0521477999469
 30
0.0
 10
-166.4268100180825
 20
-88.0081761281535
 30
0.0
 10
-166.3830163494512
 20
-87.99808802581795
 30
0.0
 10
-166.2906506294594
 20
-87.97808864836354
 30
0.0
 10
-166.1976706435126
 20
-87.96040995820762
 30
0.0
 10
-166.1487507312334
 20
-87.95171257707293
 30
0.0
 10
-165.9905998925619
 20
-87.92535853584934
 30
0.0
 10
-165.8313787948079
 20
-87.90410644729039
 30
0.0
 10
-165.7211027438331
 20
-87.89146902526579
 30
0.0
 10
-165.6106468209419
 20
-87.88070764097863
 30
0.0
 10
-165.4999965714867
 20
-87.87169576011048
 30
0.0
  0
SPLINE
  5
176
330
70
100
AcDbEntity
  8
0
 62
     7
370
    35
100
AcDbSpline
210
0.0
220
0.0
230
1.0
 70
     8
 71
     5
 72
    24
 73
    18
 74
     0
 42
0.000000001
 43
0.0
 40
0.0
 40
0.0
 40
0.0
 40
0.0
 40
0.0
 40
0.0
 40
0.3274858185970165
 40
0.3274858185970165
 40
0.3274858185970165
 40
0.6558171834600339
 40
0.6558171834600339
 40
0.6558171834600339
 40
1.310832219776388
 40
1.310832219776388
 40
1.310832219776388
 40
6.681291406523606
 40
6.681291406523606
 40
6.681291406523606
 40
7.703729436526026
 40
7.703729436526026
 40
7.703729436526026
 40
7.703729436526026
 40
7.703729436526026
 40
7.703729436526026
 10
-167.1488390107846
 20
-88.30482472012626
 30
0.0
 10
-167.1846178539577
 20
-88.33114827667409
 30
0.0
 10
-167.2200370338068
 20
-88.35807800104706
 30
0.0
 10
-167.2551823199919
 20
-88.38549015798793
 30
0.0
 10
-167.32521034685
 20
-88.44100378701339
 30
0.0
 10
-167.3950335919994
 20
-88.49712174800489
 30
0.0
 10
-167.4296106352085
 20
-88.52484028266662
 30
0.0
 10
-167.535156918193
 20
-88.60825645298732
 30
0.0
 10
-167.6419850058725
 20
-88.69050801126244
 30
0.0
 10
-167.7135535302947
 20
-88.7449941784988
 30
0.0
 10
-168.3739698659599
 20
-89.24547046680615
 30
0.0
 10
-169.0570146371787
 20
-89.73418028739017
 30
0.0
 10
-169.6773341211739
 20
-90.15909850203622
 30
0.0
 10
-170.4292547808886
 20
-90.65504180730149
 30
0.0
 10
-171.1929842393469
 20
-91.13894792248814
 30
0.0
 10
-171.3154267879729
 20
-91.21604175270252
 30
0.0
 10
-171.4381400422666
 20
-91.292832026689
 30
0.0
 10
-171.5611206380426
 20
-91.36932778995221
 30
0.0
  0
SPLINE
  5
177
330
70
100
AcDbEntity
  8
0
 62
     7
370
    35
100
AcDbSpline
210
0.0
220
0.0
230
1.0
 70
     8
 71
     5
 72
    24
 73
    18
 74
     0
 42
0.000000001
 43
0.0
 40
0.0
 40
0.0
 40
0.0
 40
0.0
 40
0.0
 40
0.0
 40
0.3274864792076791
 40
0.3274864792076791
 40
0.3274864792076791
 40
0.6558184113221001
 40
0.6558184113221001
 40
0.6558184113221001
 40
1.310834871389089
 40
1.310834871389089
 40
1.310834871389089
 40
6.681308202399249
 40
6.681308202399249
 40
6.681308202399249
 40
7.703749892055515
 40
7.703749892055515
 40
7.703749892055515
 40
7.703749892055515
 40
7.703749892055515
 40
7.703749892055515
 10
-180.3232327324412
 20
-88.30474064568226
 30
0.0
 10
-180.2874539064332
 20
-88.33106451528714
 30
0.0
 10
-180.2520347448293
 20
-88.35799455060027
 30
0.0
 10
-180.2168894778057
 20
-88.38540701720893
 30
0.0
 10
-180.1468615010228
 20
-88.44092125807786
 30
0.0
 10
-180.0770383089934
 20
-88.49703983602532
 30
0.0
 10
-180.0424612471948
 20
-88.52475871478266
 30
0.0
 10
-179.9369150320925
 20
-88.60817584501346
 30
0.0
 10
-179.8300870181415
 20
-88.69042839655138
 30
0.0
 10
-179.7585185348109
 20
-88.74491524646184
 30
0.0
 10
-179.0981023288586
 20
-89.24539811992312
 30
0.0
 10
-178.4150578812198
 20
-89.73411547574683
 30
0.0
 10
-177.7947387688785
 20
-90.15904113216126
 30
0.0
 10
-177.042818554453
 20
-90.65499411161731
 30
0.0
 10
-176.2790896028001
 20
-91.13891061337938
 30
0.0
 10
-176.1566470391971
 20
-91.21600618321597
 30
0.0
 10
-176.0339337704
 20
-91.2927982129839
 30
0.0
 10
-175.9109531604925
 20
-91.36929574737951
 30
0.0
  0
ARC
  5
178
330
70
100
AcDbEntity
  8
0
 62
     7
370
    13
100
AcDbCircle
 10
-180.313121
 20
1271.630402
 30
0.0
 40
1359.935143045888
100
AcDbArc
 50
269.764802
 51
269.999574
  0
ARC
  5
179
330
70
100
AcDbEntity
  8
0
 62
     7
370
    35
100
AcDbCircle
 10
-175.897718
 20
1223.244075
 30
0.0
 40
1314.613372304284
100
AcDbArc
 50
269.376621
 51
269.999423
  0
SPLINE
  5
17A
330
70
100
AcDbEntity
  8
0
 62
     7
370
    35
100
AcDbSpline
210
0.0
220
0.0
230
1.0
 70
     8
 71
     5
 72
    24
 73
    18
 74
     0
 42
0.000000001
 43
0.0
 40
0.0
 40
0.0
 40
0.0
 40
0.0
 40
0.0
 40
0.0
 40
1.035082788282318
 40
1.035082788282318
 40
1.035082788282318
 40
1.368341756513364
 40
1.368341756513364
 40
1.368341756513364
 40
1.735787251934265
 40
1.735787251934265
 40
1.735787251934265
 40
3.022280280652816
 40
3.022280280652816
 40
3.022280280652816
 40
3.677515160170596
 40
3.677515160170596
 40
3.677515160170596
 40
3.677515160170596
 40
3.677515160170596
 40
3.677515160170596
 10
-180.3232327324412
 20
-88.30474064568226
 30
0.0
 10
-180.4363184606688
 20
-88.22153909056793
 30
0.0
 10
-180.5618653862475
 20
-88.15849598711013
 30
0.0
 10
-180.6908831599995
 20
-88.10775183676235
 30
0.0
 10
-180.8662773839422
 20
-88.05205905421535
 30
0.0
 10
-181.0452614861331
 20
-88.00808592047174
 30
0.0
 10
-181.0890551430762
 20
-87.99799746744034
 30
0.0
 10
-181.1814208350185
 20
-87.97799735889195
 30
0.0
 10
-181.2744008008553
 20
-87.96031794784506
 30
0.0
 10
-181.3233207010498
 20
-87.95162019244125
 30
0.0
 10
-181.5439761682295
 20
-87.91484878947158
 30
0.0
 10
-181.7667150826594
 20
-87.88800915365363
 30
0.0
 10
-181.9397187422563
 20
-87.87171718961541
 30
0.0
 10
-182.2027799500097
 20
-87.85335680524602
 30
0.0
 10
-182.4664585208069
 20
-87.84412787890123
 30
0.0
 10
-182.555504708658
 20
-87.84203117928965
 30
0.0
 10
-182.6445641184371
 20
-87.84095076425709
 30
0.0
 10
-182.7336387520768
 20
-87.84089958707122
 30
0.0
  0
LINE
  5
17B
330
70
100
AcDbEntity
  8
0
 62
     7
370
    35
100
AcDbLine
 10
-182.925827
 20
-87.840885
 30
0.0
 11
-182.733639
 21
-87.8409
 31
0.0
  0
LINE
  5
17C
330
70
100
AcDbEntity
  8
0
 62
     7
370
    35
100
AcDbLine
 10
-183.118024
 20
-87.840897
 30
0.0
 11
-182.733639
 21
-87.8409
 31
0.0
  0
LINE
  5
17D
330
70
100
AcDbEntity
  8
0
 62
     7
370
    35
100
AcDbLine
 10
-183.118024
 20
-87.840897
 30
0.0
 11
-183.50241
 21
-87.840895
 31
0.0
  0
SPLINE
  5
17E
330
70
100
AcDbEntity
  8
0
 62
     7
370
    35
100
AcDbSpline
210
0.0
220
0.0
230
1.0
 70
     8
 71
     5
 72
    24
 73
    18
 74
     0
 42
0.000000001
 43
0.0
 40
0.0
 40
0.0
 40
0.0
 40
0.0
 40
0.0
 40
0.0
 40
1.03508006955582
 40
1.03508006955582
 40
1.03508006955582
 40
1.368338408989094
 40
1.368338408989094
 40
1.368338408989094
 40
1.735783317218832
 40
1.735783317218832
 40
1.735783317218832
 40
3.022275019861431
 40
3.022275019861431
 40
3.022275019861431
 40
3.677510247198986
 40
3.677510247198986
 40
3.677510247198986
 40
3.677510247198986
 40
3.677510247198986
 40
3.677510247198986
 10
-185.9128148265312
 20
-88.30470676534266
 30
0.0
 10
-185.7997291343931
 20
-88.22150653652153
 30
0.0
 10
-185.6741822718434
 20
-88.15846494651065
 30
0.0
 10
-185.5451646167726
 20
-88.10772236691737
 30
0.0
 10
-185.3697705743688
 20
-88.05203171609874
 30
0.0
 10
-185.1907867086324
 20
-88.00806076413588
 30
0.0
 10
-185.1469930875651
 20
-87.99797283980162
 30
0.0
 10
-185.0546274629838
 20
-87.97797384496043
 30
0.0
 10
-184.9616475753227
 20
-87.96029555845142
 30
0.0
 10
-184.9127277120281
 20
-87.95159839429705
 30
0.0
 10
-184.6920723254338
 20
-87.91482964534028
 30
0.0
 10
-184.4693335381484
 20
-87.8879927095889
 30
0.0
 10
-184.296329982507
 20
-87.8717028467583
 30
0.0
 10
-184.0332688193761
 20
-87.85334565272451
 30
0.0
 10
-183.7695903395551
 20
-87.84411993354107
 30
0.0
 10
-183.6805440953863
 20
-87.84202431641343
 30
0.0
 10
-183.5914846345938
 20
-87.84094498617331
 30
0.0
 10
-183.502409955271
 20
-87.84089489564283
 30
0.0
  0
SPLINE
  5
17F
330
70
100
AcDbEntity
  8
0
 62
     7
370
    35
100
AcDbSpline
210
0.0
220
0.0
230
1.0
 70
     8
 71
     5
 72
    24
 73
    18
 74
     0
 42
0.000000001
 43
0.0
 40
0.0
 40
0.0
 40
0.0
 40
0.0
 40
0.0
 40
0.0
 40
0.3274854538568909
 40
0.3274854538568909
 40
0.3274854538568909
 40
0.6558163492874158
 40
0.6558163492874158
 40
0.6558163492874158
 40
1.310830676308587
 40
1.310830676308587
 40
1.310830676308587
 40
6.681285501380166
 40
6.681285501380166
 40
6.681285501380166
 40
7.703723440712577
 40
7.703723440712577
 40
7.703723440712577
 40
7.703723440712577
 40
7.703723440712577
 40
7.703723440712577
 10
-185.9128148265312
 20
-88.30470676534263
 30
0.0
 10
-185.9485936230744
 20
-88.33103020204852
 30
0.0
 10
-185.9840127562655
 20
-88.35795980954231
 30
0.0
 10
-186.0191579956573
 20
-88.38537185239768
 30
0.0
 10
-186.0891859167457
 20
-88.44088524921905
 30
0.0
 10
-186.1590090536839
 20
-88.49700298772429
 30
0.0
 10
-186.193586092378
 20
-88.52472145454658
 30
0.0
 10
-186.2991322149572
 20
-88.60813731187234
 30
0.0
 10
-186.4059601331341
 20
-88.69038857974397
 30
0.0
 10
-186.477528549121
 20
-88.7448745700913
 30
0.0
 10
-187.1379440167826
 20
-89.24534944760607
 30
0.0
 10
-187.8209876402069
 20
-89.73405873504186
 30
0.0
 10
-188.4413059297052
 20
-90.1589772648028
 30
0.0
 10
-189.1932249826112
 20
-90.65492188644353
 30
0.0
 10
-189.9569525853489
 20
-91.13883036807982
 30
0.0
 10
-190.0793949053401
 20
-91.21592465007532
 30
0.0
 10
-190.2021079254475
 20
-91.29271540213634
 30
0.0
 10
-190.3250882814167
 20
-91.36921166948957
 30
0.0
  0
SPLINE
  5
180
330
70
100
AcDbEntity
  8
0
 62
     7
370
    35
100
AcDbSpline
210
0.0
220
0.0
230
1.0
 70
     8
 71
     5
 72
    24
 73
    18
 74
     0
 42
0.000000001
 43
0.0
 40
0.0
 40
0.0
 40
0.0
 40
0.0
 40
0.0
 40
0.0
 40
0.3274854537651271
 40
0.3274854537651271
 40
0.3274854537651271
 40
0.6558163472931067
 40
0.6558163472931067
 40
0.6558163472931067
 40
1.310830674299357
 40
1.310830674299357
 40
1.310830674299357
 40
6.681285499339346
 40
6.681285499339346
 40
6.681285499339346
 40
7.703723438741028
 40
7.703723438741028
 40
7.703723438741028
 40
7.703723438741028
 40
7.703723438741028
 40
7.703723438741028
 10
-199.0871851736488
 20
-88.30470676552432
 30
0.0
 10
-199.0514063771019
 20
-88.33103020217615
 30
0.0
 10
-199.0159872439199
 20
-88.35795980965398
 30
0.0
 10
-198.9808420045469
 20
-88.38537185252221
 30
0.0
 10
-198.9108140837026
 20
-88.44088524924831
 30
0.0
 10
-198.8409909470138
 20
-88.49700298767512
 30
0.0
 10
-198.8064139075709
 20
-88.52472145514668
 30
0.0
 10
-198.7008677852175
 20
-88.60813731236256
 30
0.0
 10
-198.594039867227
 20
-88.69038858001598
 30
0.0
 10
-198.5224714512197
 20
-88.7448745703034
 30
0.0
 10
-197.8620559834156
 20
-89.24534944741758
 30
0.0
 10
-197.1790123600125
 20
-89.7340587349064
 30
0.0
 10
-196.5586940705903
 20
-90.15897726477914
 30
0.0
 10
-195.8067750177143
 20
-90.65492188653378
 30
0.0
 10
-195.0430474149476
 20
-91.13883036806949
 30
0.0
 10
-194.9206050949424
 20
-91.21592465004754
 30
0.0
 10
-194.7978920748191
 20
-91.29271540208418
 30
0.0
 10
-194.674911718832
 20
-91.36921166940559
 30
0.0
  0
ARC
  5
181
330
70
100
AcDbEntity
  8
0
 62
     7
370
    13
100
AcDbCircle
 10
-199.0936
 20
1271.632258
 30
0.0
 40
1359.936965186929
100
AcDbArc
 50
269.765499
 51
270.00027
  0
ARC
  5
182
330
70
100
AcDbEntity
  8
0
 62
     7
370
    35
100
AcDbCircle
 10
-194.677253
 20
1223.25697
 30
0.0
 40
1314.626181597841
100
AcDbArc
 50
269.377306
 51
270.000102
  0
SPLINE
  5
183
330
70
100
AcDbEntity
  8
0
 62
     7
370
    35
100
AcDbSpline
210
0.0
220
0.0
230
1.0
 70
     8
 71
     5
 72
    24
 73
    18
 74
     0
 42
0.000000001
 43
0.0
 40
0.0
 40
0.0
 40
0.0
 40
0.0
 40
0.0
 40
0.0
 40
1.035080069457964
 40
1.035080069457964
 40
1.035080069457964
 40
1.368338408887293
 40
1.368338408887293
 40
1.368338408887293
 40
1.73578331711537
 40
1.73578331711537
 40
1.73578331711537
 40
3.022275019715319
 40
3.022275019715319
 40
3.022275019715319
 40
3.677510247052195
 40
3.677510247052195
 40
3.677510247052195
 40
3.677510247052195
 40
3.677510247052195
 40
3.677510247052195
 10
-199.0871851736488
 20
-88.3047067655243
 30
0.0
 10
-199.2002708658194
 20
-88.22150653685854
 30
0.0
 10
-199.3258177283528
 20
-88.15846494687035
 30
0.0
 10
-199.4548353833829
 20
-88.1077223672463
 30
0.0
 10
-199.6302294257599
 20
-88.05203171635017
 30
0.0
 10
-199.8092132914713
 20
-88.00806076430283
 30
0.0
 10
-199.8530069125354
 20
-87.99797283994751
 30
0.0
 10
-199.9453725371108
 20
-87.97797384506333
 30
0.0
 10
-200.038352424767
 20
-87.96029555851541
 30
0.0
 10
-200.0872722880596
 20
-87.95159839434226
 30
0.0
 10
-200.3079276746407
 20
-87.91482964530691
 30
0.0
 10
-200.530666461916
 20
-87.88799270949917
 30
0.0
 10
-200.7036700175635
 20
-87.87170284663331
 30
0.0
 10
-200.9667311806853
 20
-87.85334565256109
 30
0.0
 10
-201.2304096604973
 20
-87.84411993335813
 30
0.0
 10
-201.3194559046648
 20
-87.84202431622597
 30
0.0
 10
-201.408515365456
 20
-87.84094498598351
 30
0.0
 10
-201.4975900447772
 20
-87.84089489545292
 30
0.0
  0
LINE
  5
184
330
70
100
AcDbEntity
  8
0
 62
     7
370
    35
100
AcDbLine
 10
-201.68978
 20
-87.840883
 30
0.0
 11
-201.49759
 21
-87.840895
 31
0.0
  0
LINE
  5
185
330
70
100
AcDbEntity
  8
0
 62
     7
370
    35
100
AcDbLine
 10
-201.881976
 20
-87.840897
 30
0.0
 11
-201.49759
 21
-87.840895
 31
0.0
  0
LINE
  5
186
330
70
100
AcDbEntity
  8
0
 62
     7
370
    35
100
AcDbLine
 10
-201.881976
 20
-87.840897
 30
0.0
 11
-202.266361
 21
-87.8409
 31
0.0
  0
SPLINE
  5
187
330
70
100
AcDbEntity
  8
0
 62
     7
370
    35
100
AcDbSpline
210
0.0
220
0.0
230
1.0
 70
     8
 71
     5
 72
    24
 73
    18
 74
     0
 42
0.000000001
 43
0.0
 40
0.0
 40
0.0
 40
0.0
 40
0.0
 40
0.0
 40
0.0
 40
1.035082788619243
 40
1.035082788619243
 40
1.035082788619243
 40
1.368341756822369
 40
1.368341756822369
 40
1.368341756822369
 40
1.73578725221414
 40
1.73578725221414
 40
1.73578725221414
 40
3.022280280877987
 40
3.022280280877987
 40
3.022280280877987
 40
3.677515160351015
 40
3.677515160351015
 40
3.677515160351015
 40
3.677515160351015
 40
3.677515160351015
 40
3.677515160351015
 10
-204.676767267688
 20
-88.30474064557178
 30
0.0
 10
-204.5636815394201
 20
-88.22153909037995
 30
0.0
 10
-204.4381346138066
 20
-88.15849598688305
 30
0.0
 10
-204.3091168401363
 20
-88.10775183658376
 30
0.0
 10
-204.1337226161535
 20
-88.05205905405792
 30
0.0
 10
-203.9547385139204
 20
-88.00808592035494
 30
0.0
 10
-203.9109448569806
 20
-87.99799746733724
 30
0.0
 10
-203.8185791650449
 20
-87.97799735881836
 30
0.0
 10
-203.7255991992148
 20
-87.96031794780173
 30
0.0
 10
-203.6766792990237
 20
-87.95162019241376
 30
0.0
 10
-203.4560238318533
 20
-87.91484878951431
 30
0.0
 10
-203.233284917433
 20
-87.88800915376531
 30
0.0
 10
-203.0602812578263
 20
-87.87171718977585
 30
0.0
 10
-202.7972200500849
 20
-87.85335680547598
 30
0.0
 10
-202.5335414792997
 20
-87.84412787918608
 30
0.0
 10
-202.4444952914541
 20
-87.84203117959109
 30
0.0
 10
-202.3554358816804
 20
-87.84095076457297
 30
0.0
 10
-202.2663612480461
 20
-87.84089958739905
 30
0.0
  0
SPLINE
  5
188
330
70
100
AcDbEntity
  8
0
 62
     7
370
    35
100
AcDbSpline
210
0.0
220
0.0
230
1.0
 70
     8
 71
     5
 72
    24
 73
    18
 74
     0
 42
0.000000001
 43
0.0
 40
0.0
 40
0.0
 40
0.0
 40
0.0
 40
0.0
 40
0.0
 40
0.3274864793450379
 40
0.3274864793450379
 40
0.3274864793450379
 40
0.6558184107089688
 40
0.6558184107089688
 40
0.6558184107089688
 40
1.310834870807074
 40
1.310834870807074
 40
1.310834870807074
 40
6.681308201715384
 40
6.681308201715384
 40
6.681308201715384
 40
7.703749891082762
 40
7.703749891082762
 40
7.703749891082762
 40
7.703749891082762
 40
7.703749891082762
 40
7.703749891082762
 10
-204.6767672676881
 20
-88.30474064557178
 30
0.0
 10
-204.7125460937123
 20
-88.33106451520366
 30
0.0
 10
-204.747965255335
 20
-88.35799455052242
 30
0.0
 10
-204.7831105223788
 20
-88.38540701712216
 30
0.0
 10
-204.8531384991088
 20
-88.44092125788399
 30
0.0
 10
-204.922961691084
 20
-88.4970398357212
 30
0.0
 10
-204.957538753281
 20
-88.52475871477088
 30
0.0
 10
-205.0630849683106
 20
-88.60817584492042
 30
0.0
 10
-205.1699129821696
 20
-88.69042839646268
 30
0.0
 10
-205.2414814654913
 20
-88.74491524643202
 30
0.0
 10
-205.9018976713497
 20
-89.24539812027496
 30
0.0
 10
-206.5849421189948
 20
-89.73411547597878
 30
0.0
 10
-207.2052612315027
 20
-90.15904113234073
 30
0.0
 10
-207.9571814459006
 20
-90.65499411167602
 30
0.0
 10
-208.7209103974927
 20
-91.13891061349804
 30
0.0
 10
-208.8433529610574
 20
-91.21600618333224
 30
0.0
 10
-208.9660662298154
 20
-91.29279821310313
 30
0.0
 10
-209.0890468396826
 20
-91.36929574750727
 30
0.0
  0
LINE
  5
189
330
70
100
AcDbEntity
  8
0
 62
     7
370
    35
100
AcDbLine
 10
-217.5
 20
-91.349157
 30
0.0
 11
-219.5
 21
-89.351927
 31
0.0
  0
SPLINE
  5
18A
330
70
100
AcDbEntity
  8
0
 62
     7
370
    35
100
AcDbSpline
210
0.0
220
0.0
230
1.0
 70
     8
 71
     5
 72
    24
 73
    18
 74
     0
 42
0.000000001
 43
0.0
 40
0.0
 40
0.0
 40
0.0
 40
0.0
 40
0.0
 40
0.0
 40
0.3274858185984545
 40
0.3274858185984545
 40
0.3274858185984545
 40
0.6558171857861043
 40
0.6558171857861043
 40
0.6558171857861043
 40
1.310832222088584
 40
1.310832222088584
 40
1.310832222088584
 40
6.681291408988877
 40
6.681291408988877
 40
6.681291408988877
 40
7.70372943892751
 40
7.70372943892751
 40
7.70372943892751
 40
7.70372943892751
 40
7.70372943892751
 40
7.70372943892751
 10
-217.8511609892446
 20
-88.3048247201556
 30
0.0
 10
-217.8153821460675
 20
-88.33114827669444
 30
0.0
 10
-217.7799629662171
 20
-88.35807800106448
 30
0.0
 10
-217.7448176800331
 20
-88.3854901580078
 30
0.0
 10
-217.6747896529332
 20
-88.44100378724201
 30
0.0
 10
-217.6049664075464
 20
-88.49712174845344
 30
0.0
 10
-217.570389365335
 20
-88.52484028233258
 30
0.0
 10
-217.4648430821135
 20
-88.60825645286903
 30
0.0
 10
-217.3580149941817
 20
-88.69050801133707
 30
0.0
 10
-217.2864464697576
 20
-88.74499417856752
 30
0.0
 10
-216.6260301340575
 20
-89.24547046685855
 30
0.0
 10
-215.9429853628129
 20
-89.73418028744683
 30
0.0
 10
-215.3226658789323
 20
-90.15909850204838
 30
0.0
 10
-214.5707452192184
 20
-90.65504180735242
 30
0.0
 10
-213.8070157607446
 20
-91.13894792253325
 30
0.0
 10
-213.6845732121246
 20
-91.21604175273926
 30
0.0
 10
-213.5618599578363
 20
-91.29283202671547
 30
0.0
 10
-213.438879362065
 20
-91.36932778996646
 30
0.0
  0
LINE
  5
18B
330
70
100
AcDbEntity
  8
0
 62
     7
370
    13
100
AcDbLine
 10
-219.500003
 20
-88.303826
 30
0.0
 11
-217.851161
 21
-88.304825
 31
0.0
  0
LINE
  5
18C
330
70
100
AcDbEntity
  8
0
 62
     7
370
    35
100
AcDbLine
 10
-217.5
 20
-91.363069
 30
0.0
 11
-217.5
 21
-91.349157
 31
0.0
  0
ARC
  5
18D
330
70
100
AcDbEntity
  8
0
 62
     7
370
    35
100
AcDbCircle
 10
-213.447558
 20
1220.534607
 30
0.0
 40
1311.903935015447
100
AcDbArc
 50
269.823014
 51
270.000379
  0
SPLINE
  5
18E
330
70
100
AcDbEntity
  8
0
 62
     7
370
    35
100
AcDbSpline
210
0.0
220
0.0
230
1.0
 70
     8
 71
     5
 72
    21
 73
    15
 74
     0
 42
0.000000001
 43
0.0
 40
0.0
 40
0.0
 40
0.0
 40
0.0
 40
0.0
 40
0.0
 40
1.035081090752448
 40
1.035081090752448
 40
1.035081090752448
 40
1.368339676146738
 40
1.368339676146738
 40
1.368339676146738
 40
1.735784806493209
 40
1.735784806493209
 40
1.735784806493209
 40
2.553768946075977
 40
2.553768946075977
 40
2.553768946075977
 40
2.553768946075977
 40
2.553768946075977
 40
2.553768946075977
 10
-217.8511609892446
 20
-88.30482472015558
 30
0.0
 10
-217.9642468143961
 20
-88.22162412316081
 30
0.0
 10
-218.0897938250558
 20
-88.15858212237613
 30
0.0
 10
-218.2188116337312
 20
-88.10783909622958
 30
0.0
 10
-218.3942058893339
 20
-88.05214779996388
 30
0.0
 10
-218.5731899819309
 20
-88.00817612816775
 30
0.0
 10
-218.6169836505607
 20
-87.9980880258298
 30
0.0
 10
-218.7093493705497
 20
-87.9780886483709
 30
0.0
 10
-218.8023293564941
 20
-87.96040995821191
 30
0.0
 10
-218.8512492687722
 20
-87.95171257707592
 30
0.0
 10
-219.009400107431
 20
-87.92535853585075
 30
0.0
 10
-219.1686212051726
 20
-87.90410644729211
 30
0.0
 10
-219.2788972561359
 20
-87.89146902526839
 30
0.0
 10
-219.3893531790156
 20
-87.8807076409822
 30
0.0
 10
-219.5000034284594
 20
-87.87169576011489
 30
0.0
  0
LINE
  5
18F
330
70
100
AcDbEntity
  8
0
 62
     7
370
    35
100
AcDbLine
 10
-165.5
 20
88.303817
 30
0.0
 11
-165.5
 21
89.351984
 31
0.0
  0
LINE
  5
190
330
70
100
AcDbEntity
  8
0
 62
     7
370
    35
100
AcDbLine
 10
-165.5
 20
87.871696
 30
0.0
 11
-165.5
 21
88.303817
 31
0.0
  0
LINE
  5
191
330
70
100
AcDbEntity
  8
0
 62
     7
370
    35
100
AcDbLine
 10
-165.5
 20
85.0
 30
0.0
 11
-165.5
 21
87.871696
 31
0.0
  0
LINE
  5
192
330
70
100
AcDbEntity
  8
0
 62
     7
370
    35
100
AcDbLine
 10
-165.5
 20
-87.871696
 30
0.0
 11
-165.5
 21
-85.0
 31
0.0
  0
SPLINE
  5
193
330
70
100
AcDbEntity
  8
0
 62
     7
370
    35
100
AcDbSpline
210
0.0
220
0.0
230
1.0
 70
     8
 71
     5
 72
    24
 73
    18
 74
     0
 42
0.000000001
 43
0.0
 40
0.0
 40
0.0
 40
0.0
 40
0.0
 40
0.0
 40
0.0
 40
0.3274858185984406
 40
0.3274858185984406
 40
0.3274858185984406
 40
0.6558171842084577
 40
0.6558171842084577
 40
0.6558171842084577
 40
1.310832220510932
 40
1.310832220510932
 40
1.310832220510932
 40
6.681291407321641
 40
6.681291407321641
 40
6.681291407321641
 40
7.703729437260346
 40
7.703729437260346
 40
7.703729437260346
 40
7.703729437260346
 40
7.703729437260346
 40
7.703729437260346
 10
-217.8511609892447
 20
88.30482472015558
 30
0.0
 10
-217.8153821460676
 20
88.33114827669439
 30
0.0
 10
-217.7799629662172
 20
88.35807800106443
 30
0.0
 10
-217.7448176800332
 20
88.38549015800774
 30
0.0
 10
-217.6747896531017
 20
88.44100378710839
 30
0.0
 10
-217.6049664078824
 20
88.49712174818335
 30
0.0
 10
-217.5703893649965
 20
88.52484028260005
 30
0.0
 10
-217.4648430819422
 20
88.60825645300083
 30
0.0
 10
-217.3580149941818
 20
88.69050801133679
 30
0.0
 10
-217.2864464697576
 20
88.7449941785673
 30
0.0
 10
-216.6260301340673
 20
89.24547046685038
 30
0.0
 10
-215.942985362833
 20
89.7341802874341
 30
0.0
 10
-215.3226658789079
 20
90.1590985020628
 30
0.0
 10
-214.5707452192083
 20
90.6550418073589
 30
0.0
 10
-213.8070157607446
 20
91.13894792253326
 30
0.0
 10
-213.6845732121246
 20
91.21604175273906
 30
0.0
 10
-213.5618599578364
 20
91.2928320267155
 30
0.0
 10
-213.4388793620651
 20
91.36932778996652
 30
0.0
  0
LINE
  5
194
330
70
100
AcDbEntity
  8
0
 62
     7
370
    35
100
AcDbLine
 10
-175.910953
 20
-91.36935
 30
0.0
 11
-171.561121
 21
-91.36935
 31
0.0
  0
LINE
  5
195
330
70
100
AcDbEntity
  8
0
 62
     7
370
    35
100
AcDbLine
 10
-194.674912
 20
-91.36935
 30
0.0
 11
-190.325088
 21
-91.36935
 31
0.0
  0
LINE
  5
196
330
70
100
AcDbEntity
  8
0
 62
     7
370
    35
100
AcDbLine
 10
-213.438879
 20
-91.36935
 30
0.0
 11
-209.089047
 21
-91.36935
 31
0.0
  0
SPLINE
  5
197
330
70
100
AcDbEntity
  8
0
 62
     7
370
    35
100
AcDbSpline
210
0.0
220
0.0
230
1.0
 70
     8
 71
     5
 72
    24
 73
    18
 74
     0
 42
0.000000001
 43
0.0
 40
0.0
 40
0.0
 40
0.0
 40
0.0
 40
0.0
 40
0.0
 40
0.3274864793450094
 40
0.3274864793450094
 40
0.3274864793450094
 40
0.6558184107642686
 40
0.6558184107642686
 40
0.6558184107642686
 40
1.310834870862363
 40
1.310834870862363
 40
1.310834870862363
 40
6.681308201800329
 40
6.681308201800329
 40
6.681308201800329
 40
7.703749891167972
 40
7.703749891167972
 40
7.703749891167972
 40
7.703749891167972
 40
7.703749891167972
 40
7.703749891167972
 10
-204.676767267688
 20
88.30474064557148
 30
0.0
 10
-204.7125460937122
 20
88.33106451520334
 30
0.0
 10
-204.747965255335
 20
88.3579945505221
 30
0.0
 10
-204.7831105223787
 20
88.38540701712185
 30
0.0
 10
-204.8531384991146
 20
88.4409212578884
 30
0.0
 10
-204.9229616910957
 20
88.49703983573042
 30
0.0
 10
-204.957538753269
 20
88.5247587147612
 30
0.0
 10
-205.0630849683044
 20
88.60817584491556
 30
0.0
 10
-205.1699129821695
 20
88.69042839646238
 30
0.0
 10
-205.2414814654911
 20
88.74491524643172
 30
0.0
 10
-205.9018976713528
 20
89.24539812027726
 30
0.0
 10
-206.5849421190015
 20
89.73411547598155
 30
0.0
 10
-207.2052612314941
 20
90.15904113233654
 30
0.0
 10
-207.9571814458973
 20
90.65499411167339
 30
0.0
 10
-208.7209103974926
 20
91.13891061349797
 30
0.0
 10
-208.8433529610575
 20
91.2160061833321
 30
0.0
 10
-208.9660662298155
 20
91.29279821310311
 30
0.0
 10
-209.0890468396827
 20
91.36929574750731
 30
0.0
  0
ARC
  5
198
330
70
100
AcDbEntity
  8
0
 62
     7
370
    13
100
AcDbCircle
 10
-204.686879
 20
-1271.630403
 30
0.0
 40
1359.935143856075
100
AcDbArc
 50
89.764802
 51
89.999574
  0
ARC
  5
199
330
70
100
AcDbEntity
  8
0
 62
     7
370
    35
100
AcDbCircle
 10
-209.102282
 20
-1223.244074
 30
0.0
 40
1314.613370964902
100
AcDbArc
 50
89.376621
 51
89.999423
  0
SPLINE
  5
19A
330
70
100
AcDbEntity
  8
0
 62
     7
370
    35
100
AcDbSpline
210
0.0
220
0.0
230
1.0
 70
     8
 71
     5
 72
    24
 73
    18
 74
     0
 42
0.000000001
 43
0.0
 40
0.0
 40
0.0
 40
0.0
 40
0.0
 40
0.0
 40
0.0
 40
1.035082788748697
 40
1.035082788748697
 40
1.035082788748697
 40
1.368341756951855
 40
1.368341756951855
 40
1.368341756951855
 40
1.735787252343598
 40
1.735787252343598
 40
1.735787252343598
 40
3.022280280950299
 40
3.022280280950299
 40
3.022280280950299
 40
3.677515160423359
 40
3.677515160423359
 40
3.677515160423359
 40
3.677515160423359
 40
3.677515160423359
 40
3.677515160423359
 10
-204.6767672676879
 20
88.30474064557147
 30
0.0
 10
-204.5636815394058
 20
88.22153909036926
 30
0.0
 10
-204.4381346137752
 20
88.15849598686685
 30
0.0
 10
-204.3091168401696
 20
88.10775183659399
 30
0.0
 10
-204.1337226161704
 20
88.05205905406183
 30
0.0
 10
-203.9547385139204
 20
88.00808592035469
 30
0.0
 10
-203.9109448569806
 20
87.99799746733702
 30
0.0
 10
-203.818579165045
 20
87.97799735881814
 30
0.0
 10
-203.7255991992148
 20
87.96031794780153
 30
0.0
 10
-203.6766792990237
 20
87.95162019241356
 30
0.0
 10
-203.4560238318609
 20
87.91484878951545
 30
0.0
 10
-203.2332849174484
 20
87.88800915376706
 30
0.0
 10
-203.0602812578107
 20
87.87171718977476
 30
0.0
 10
-202.7972200500772
 20
87.85335680547576
 30
0.0
 10
-202.5335414792997
 20
87.84412787918617
 30
0.0
 10
-202.4444952914541
 20
87.84203117959119
 30
0.0
 10
-202.3554358816805
 20
87.84095076457307
 30
0.0
 10
-202.2663612480461
 20
87.84089958739916
 30
0.0
  0
LINE
  5
19B
330
70
100
AcDbEntity
  8
0
 62
     7
370
    35
100
AcDbLine
 10
-202.266361
 20
87.8409
 30
0.0
 11
-202.074166
 21
87.840885
 31
0.0
  0
LINE
  5
19C
330
70
100
AcDbEntity
  8
0
 62
     7
370
    35
100
AcDbLine
 10
-201.881976
 20
87.840897
 30
0.0
 11
-202.266361
 21
87.8409
 31
0.0
  0
LINE
  5
19D
330
70
100
AcDbEntity
  8
0
 62
     7
370
    35
100
AcDbLine
 10
-201.881976
 20
87.840897
 30
0.0
 11
-201.49759
 21
87.840895
 31
0.0
  0
SPLINE
  5
19E
330
70
100
AcDbEntity
  8
0
 62
     7
370
    35
100
AcDbSpline
210
0.0
220
0.0
230
1.0
 70
     8
 71
     5
 72
    24
 73
    18
 74
     0
 42
0.000000001
 43
0.0
 40
0.0
 40
0.0
 40
0.0
 40
0.0
 40
0.0
 40
0.0
 40
1.035080069583363
 40
1.035080069583363
 40
1.035080069583363
 40
1.368338409012645
 40
1.368338409012645
 40
1.368338409012645
 40
1.735783317240685
 40
1.735783317240685
 40
1.735783317240685
 40
3.022275019847533
 40
3.022275019847533
 40
3.022275019847533
 40
3.677510247184735
 40
3.677510247184735
 40
3.677510247184735
 40
3.677510247184735
 40
3.677510247184735
 40
3.677510247184735
 10
-199.0871851736488
 20
88.30470676552358
 30
0.0
 10
-199.2002708658332
 20
88.22150653684788
 30
0.0
 10
-199.3258177283831
 20
88.15846494685448
 30
0.0
 10
-199.4548353833507
 20
88.10772236725607
 30
0.0
 10
-199.6302294257434
 20
88.0520317163538
 30
0.0
 10
-199.8092132914712
 20
88.00806076430244
 30
0.0
 10
-199.8530069125352
 20
87.99797283994715
 30
0.0
 10
-199.9453725371108
 20
87.97797384506298
 30
0.0
 10
-200.0383524247669
 20
87.96029555851509
 30
0.0
 10
-200.0872722880595
 20
87.95159839434193
 30
0.0
 10
-200.3079276746414
 20
87.9148296453065
 30
0.0
 10
-200.5306664619179
 20
87.88799270949873
 30
0.0
 10
-200.7036700175614
 20
87.87170284663331
 30
0.0
 10
-200.9667311806842
 20
87.85334565256107
 30
0.0
 10
-201.2304096604971
 20
87.84411993335813
 30
0.0
 10
-201.3194559046648
 20
87.842024316226
 30
0.0
 10
-201.408515365456
 20
87.84094498598354
 30
0.0
 10
-201.4975900447773
 20
87.84089489545296
 30
0.0
  0
SPLINE
  5
19F
330
70
100
AcDbEntity
  8
0
 62
     7
370
    35
100
AcDbSpline
210
0.0
220
0.0
230
1.0
 70
     8
 71
     5
 72
    24
 73
    18
 74
     0
 42
0.000000001
 43
0.0
 40
0.0
 40
0.0
 40
0.0
 40
0.0
 40
0.0
 40
0.0
 40
0.3274854537650183
 40
0.3274854537650183
 40
0.3274854537650183
 40
0.6558163482722452
 40
0.6558163482722452
 40
0.6558163482722452
 40
1.310830675278484
 40
1.310830675278484
 40
1.310830675278484
 40
6.68128550026636
 40
6.68128550026636
 40
6.68128550026636
 40
7.703723439668286
 40
7.703723439668286
 40
7.703723439668286
 40
7.703723439668286
 40
7.703723439668286
 40
7.703723439668286
 10
-199.0871851736488
 20
88.3047067655236
 30
0.0
 10
-199.0514063771019
 20
88.3310302021754
 30
0.0
 10
-199.0159872439199
 20
88.35795980965318
 30
0.0
 10
-198.9808420045469
 20
88.38537185252139
 30
0.0
 10
-198.910814083598
 20
88.44088524933031
 30
0.0
 10
-198.8409909468053
 20
88.49700298784181
 30
0.0
 10
-198.8064139077811
 20
88.52472145497958
 30
0.0
 10
-198.7008677853239
 20
88.60813731227968
 30
0.0
 10
-198.594039867227
 20
88.69038858001501
 30
0.0
 10
-198.5224714512198
 20
88.74487457030239
 30
0.0
 10
-197.8620559834212
 20
89.24534944741245
 30
0.0
 10
-197.1790123600259
 20
89.73405873489534
 30
0.0
 10
-196.5586940705748
 20
90.1589772647867
 30
0.0
 10
-195.8067750177087
 20
90.65492188653744
 30
0.0
 10
-195.0430474149476
 20
91.13883036806942
 30
0.0
 10
-194.9206050949424
 20
91.2159246500475
 30
0.0
 10
-194.7978920748191
 20
91.29271540208421
 30
0.0
 10
-194.674911718832
 20
91.36921166940566
 30
0.0
  0
SPLINE
  5
1A0
330
70
100
AcDbEntity
  8
0
 62
     7
370
    35
100
AcDbSpline
210
0.0
220
0.0
230
1.0
 70
     8
 71
     5
 72
    24
 73
    18
 74
     0
 42
0.000000001
 43
0.0
 40
0.0
 40
0.0
 40
0.0
 40
0.0
 40
0.0
 40
0.0
 40
0.3274854538568714
 40
0.3274854538568714
 40
0.3274854538568714
 40
0.6558163467448882
 40
0.6558163467448882
 40
0.6558163467448882
 40
1.310830673766079
 40
1.310830673766079
 40
1.310830673766079
 40
6.681285498773176
 40
6.681285498773176
 40
6.681285498773176
 40
7.703723438105509
 40
7.703723438105509
 40
7.703723438105509
 40
7.703723438105509
 40
7.703723438105509
 40
7.703723438105509
 10
-185.9128148265311
 20
88.30470676534341
 30
0.0
 10
-185.9485936230743
 20
88.3310302020493
 30
0.0
 10
-185.9840127562655
 20
88.35795980954309
 30
0.0
 10
-186.0191579956572
 20
88.38537185239848
 30
0.0
 10
-186.0891859164741
 20
88.44088524900468
 30
0.0
 10
-186.1590090531424
 20
88.49700298729002
 30
0.0
 10
-186.1935860929238
 20
88.5247214549788
 30
0.0
 10
-186.2991322152333
 20
88.60813731208589
 30
0.0
 10
-186.4059601331341
 20
88.69038857974482
 30
0.0
 10
-186.477528549121
 20
88.74487457009214
 30
0.0
 10
-187.1379440167751
 20
89.24534944760126
 30
0.0
 10
-187.8209876401955
 20
89.73405873503263
 30
0.0
 10
-188.4413059297202
 20
90.15897726481319
 30
0.0
 10
-189.1932249826189
 20
90.65492188644868
 30
0.0
 10
-189.9569525853489
 20
91.13883036807998
 30
0.0
 10
-190.0793949053401
 20
91.2159246500755
 30
0.0
 10
-190.2021079254475
 20
91.29271540213645
 30
0.0
 10
-190.3250882814167
 20
91.36921166948966
 30
0.0
  0
ARC
  5
1A1
330
70
100
AcDbEntity
  8
0
 62
     7
370
    13
100
AcDbCircle
 10
-185.9064
 20
-1271.632259
 30
0.0
 40
1359.936966227238
100
AcDbArc
 50
89.765499
 51
90.00027
  0
ARC
  5
1A2
330
70
100
AcDbEntity
  8
0
 62
     7
370
    35
100
AcDbCircle
 10
-190.322747
 20
-1223.25697
 30
0.0
 40
1314.626182006383
100
AcDbArc
 50
89.377306
 51
90.000102
  0
SPLINE
  5
1A3
330
70
100
AcDbEntity
  8
0
 62
     7
370
    35
100
AcDbSpline
210
0.0
220
0.0
230
1.0
 70
     8
 71
     5
 72
    24
 73
    18
 74
     0
 42
0.000000001
 43
0.0
 40
0.0
 40
0.0
 40
0.0
 40
0.0
 40
0.0
 40
0.0
 40
1.035080070051989
 40
1.035080070051989
 40
1.035080070051989
 40
1.368338409485251
 40
1.368338409485251
 40
1.368338409485251
 40
1.735783317714979
 40
1.735783317714979
 40
1.735783317714979
 40
3.022275020359442
 40
3.022275020359442
 40
3.022275020359442
 40
3.677510247696926
 40
3.677510247696926
 40
3.677510247696926
 40
3.677510247696926
 40
3.677510247696926
 40
3.677510247696926
 10
-185.9128148265311
 20
88.3047067653434
 30
0.0
 10
-185.7997291343389
 20
88.22150653648235
 30
0.0
 10
-185.6741822717229
 20
88.1584649464509
 30
0.0
 10
-185.5451646168997
 20
88.10772236695848
 30
0.0
 10
-185.3697705744335
 20
88.05203171611538
 30
0.0
 10
-185.1907867086323
 20
88.00806076413657
 30
0.0
 10
-185.146993087565
 20
87.9979728398023
 30
0.0
 10
-185.0546274629836
 20
87.97797384496111
 30
0.0
 10
-184.9616475753226
 20
87.96029555845206
 30
0.0
 10
-184.912727712028
 20
87.95159839429766
 30
0.0
 10
-184.6920723254334
 20
87.91482964534076
 30
0.0
 10
-184.4693335381479
 20
87.88799270958923
 30
0.0
 10
-184.2963299825074
 20
87.87170284675864
 30
0.0
 10
-184.0332688193762
 20
87.8533456527247
 30
0.0
 10
-183.769590339555
 20
87.84411993354117
 30
0.0
 10
-183.6805440953862
 20
87.8420243164135
 30
0.0
 10
-183.5914846345936
 20
87.84094498617335
 30
0.0
 10
-183.5024099552709
 20
87.84089489564288
 30
0.0
  0
LINE
  5
1A4
330
70
100
AcDbEntity
  8
0
 62
     7
370
    35
100
AcDbLine
 10
-183.50241
 20
87.840895
 30
0.0
 11
-183.310216
 21
87.840883
 31
0.0
  0
LINE
  5
1A5
330
70
100
AcDbEntity
  8
0
 62
     7
370
    35
100
AcDbLine
 10
-183.118024
 20
87.840897
 30
0.0
 11
-183.50241
 21
87.840895
 31
0.0
  0
LINE
  5
1A6
330
70
100
AcDbEntity
  8
0
 62
     7
370
    35
100
AcDbLine
 10
-183.118024
 20
87.840897
 30
0.0
 11
-182.733639
 21
87.8409
 31
0.0
  0
SPLINE
  5
1A7
330
70
100
AcDbEntity
  8
0
 62
     7
370
    35
100
AcDbSpline
210
0.0
220
0.0
230
1.0
 70
     8
 71
     5
 72
    24
 73
    18
 74
     0
 42
0.000000001
 43
0.0
 40
0.0
 40
0.0
 40
0.0
 40
0.0
 40
0.0
 40
0.0
 40
1.035082788652575
 40
1.035082788652575
 40
1.035082788652575
 40
1.36834175688363
 40
1.36834175688363
 40
1.36834175688363
 40
1.735787252304553
 40
1.735787252304553
 40
1.735787252304553
 40
3.022280280941842
 40
3.022280280941842
 40
3.022280280941842
 40
3.677515160459618
 40
3.677515160459618
 40
3.677515160459618
 40
3.677515160459618
 40
3.677515160459618
 40
3.677515160459618
 10
-180.3232327324412
 20
88.30474064568202
 30
0.0
 10
-180.4363184607092
 20
88.22153909053795
 30
0.0
 10
-180.5618653863373
 20
88.15849598706475
 30
0.0
 10
-180.6908831599046
 20
88.10775183679225
 30
0.0
 10
-180.8662773838937
 20
88.0520590542269
 30
0.0
 10
-181.0452614861331
 20
88.00808592047136
 30
0.0
 10
-181.0890551430762
 20
87.99799746743992
 30
0.0
 10
-181.1814208350184
 20
87.97799735889153
 30
0.0
 10
-181.2744008008553
 20
87.96031794784462
 30
0.0
 10
-181.3233207010498
 20
87.95162019244084
 30
0.0
 10
-181.5439761682186
 20
87.91484878947298
 30
0.0
 10
-181.7667150826375
 20
87.88800915365582
 30
0.0
 10
-181.9397187422784
 20
87.87171718961349
 30
0.0
 10
-182.2027799500206
 20
87.85335680524534
 30
0.0
 10
-182.4664585208069
 20
87.84412787890109
 30
0.0
 10
-182.555504708658
 20
87.84203117928956
 30
0.0
 10
-182.644564118437
 20
87.84095076425706
 30
0.0
 10
-182.7336387520767
 20
87.84089958707126
 30
0.0
  0
SPLINE
  5
1A8
330
70
100
AcDbEntity
  8
0
 62
     7
370
    35
100
AcDbSpline
210
0.0
220
0.0
230
1.0
 70
     8
 71
     5
 72
    24
 73
    18
 74
     0
 42
0.000000001
 43
0.0
 40
0.0
 40
0.0
 40
0.0
 40
0.0
 40
0.0
 40
0.0
 40
0.3274864792076765
 40
0.3274864792076765
 40
0.3274864792076765
 40
0.6558184094066047
 40
0.6558184094066047
 40
0.6558184094066047
 40
1.31083486947362
 40
1.31083486947362
 40
1.31083486947362
 40
6.681308200454236
 40
6.681308200454236
 40
6.681308200454236
 40
7.703749890110517
 40
7.703749890110517
 40
7.703749890110517
 40
7.703749890110517
 40
7.703749890110517
 40
7.703749890110517
 10
-180.3232327324411
 20
88.30474064568205
 30
0.0
 10
-180.2874539064331
 20
88.33106451528691
 30
0.0
 10
-180.2520347448292
 20
88.35799455060004
 30
0.0
 10
-180.2168894778056
 20
88.38540701720873
 30
0.0
 10
-180.1468615012273
 20
88.44092125791552
 30
0.0
 10
-180.0770383094012
 20
88.49703983569735
 30
0.0
 10
-180.0424612467835
 20
88.52475871510745
 30
0.0
 10
-179.9369150318845
 20
88.6081758451735
 30
0.0
 10
-179.8300870181415
 20
88.69042839655118
 30
0.0
 10
-179.7585185348109
 20
88.7449152464616
 30
0.0
 10
-179.0981023288614
 20
89.24539811992057
 30
0.0
 10
-178.4150578812296
 20
89.73411547574005
 30
0.0
 10
-177.7947387688698
 20
90.15904113216801
 30
0.0
 10
-177.0428185544497
 20
90.65499411161896
 30
0.0
 10
-176.2790896028
 20
91.13891061337944
 30
0.0
 10
-176.1566470391972
 20
91.21600618321594
 30
0.0
 10
-176.0339337704
 20
91.2927982129839
 30
0.0
 10
-175.9109531604925
 20
91.36929574737952
 30
0.0
  0
LINE
  5
1A9
330
70
100
AcDbEntity
  8
0
 62
     7
370
    35
100
AcDbLine
 10
-167.5
 20
91.349157
 30
0.0
 11
-165.5
 21
89.351927
 31
0.0
  0
SPLINE
  5
1AA
330
70
100
AcDbEntity
  8
0
 62
     7
370
    35
100
AcDbSpline
210
0.0
220
0.0
230
1.0
 70
     8
 71
     5
 72
    24
 73
    18
 74
     0
 42
0.000000001
 43
0.0
 40
0.0
 40
0.0
 40
0.0
 40
0.0
 40
0.0
 40
0.0
 40
0.3274858185969893
 40
0.3274858185969893
 40
0.3274858185969893
 40
0.6558171851527705
 40
0.6558171851527705
 40
0.6558171851527705
 40
1.310832221469102
 40
1.310832221469102
 40
1.310832221469102
 40
6.681291408275508
 40
6.681291408275508
 40
6.681291408275508
 40
7.703729438277962
 40
7.703729438277962
 40
7.703729438277962
 40
7.703729438277962
 40
7.703729438277962
 40
7.703729438277962
 10
-167.1488390107845
 20
88.30482472012605
 30
0.0
 10
-167.1846178539577
 20
88.33114827667387
 30
0.0
 10
-167.2200370338068
 20
88.35807800104685
 30
0.0
 10
-167.2551823199919
 20
88.3854901579877
 30
0.0
 10
-167.3252103470307
 20
88.44100378715643
 30
0.0
 10
-167.3950335923598
 20
88.49712174829435
 30
0.0
 10
-167.429610634845
 20
88.52484028237919
 30
0.0
 10
-167.5351569180091
 20
88.6082564528455
 30
0.0
 10
-167.6419850058723
 20
88.69050801126221
 30
0.0
 10
-167.7135535302947
 20
88.74499417849862
 30
0.0
 10
-168.3739698659661
 20
89.24547046681027
 30
0.0
 10
-169.0570146371936
 20
89.73418028740441
 30
0.0
 10
-169.677334121163
 20
90.15909850202955
 30
0.0
 10
-170.4292547808807
 20
90.65504180729663
 30
0.0
 10
-171.1929842393468
 20
91.13894792248828
 30
0.0
 10
-171.3154267879728
 20
91.21604175270261
 30
0.0
 10
-171.4381400422665
 20
91.29283202668904
 30
0.0
 10
-171.5611206380425
 20
91.36932778995224
 30
0.0
  0
LINE
  5
1AB
330
70
100
AcDbEntity
  8
0
 62
     7
370
    13
100
AcDbLine
 10
-167.148839
 20
88.304825
 30
0.0
 11
-165.499997
 21
88.303826
 31
0.0
  0
LINE
  5
1AC
330
70
100
AcDbEntity
  8
0
 62
     7
370
    35
100
AcDbLine
 10
-167.5
 20
91.363069
 30
0.0
 11
-167.5
 21
91.349157
 31
0.0
  0
ARC
  5
1AD
330
70
100
AcDbEntity
  8
0
 62
     7
370
    35
100
AcDbCircle
 10
-171.552442
 20
-1220.534609
 30
0.0
 40
1311.903936672093
100
AcDbArc
 50
89.823014
 51
90.000379
  0
SPLINE
  5
1AE
330
70
100
AcDbEntity
  8
0
 62
     7
370
    35
100
AcDbSpline
210
0.0
220
0.0
230
1.0
 70
     8
 71
     5
 72
    21
 73
    15
 74
     0
 42
0.000000001
 43
0.0
 40
0.0
 40
0.0
 40
0.0
 40
0.0
 40
0.0
 40
0.0
 40
1.035081090537475
 40
1.035081090537475
 40
1.035081090537475
 40
1.368339675940187
 40
1.368339675940187
 40
1.368339675940187
 40
1.735784806293362
 40
1.735784806293362
 40
1.735784806293362
 40
2.553768945962097
 40
2.553768945962097
 40
2.553768945962097
 40
2.553768945962097
 40
2.553768945962097
 40
2.553768945962097
 10
-167.1488390107845
 20
88.30482472012605
 30
0.0
 10
-167.0357531856686
 20
88.22162412311985
 30
0.0
 10
-166.9102061750317
 20
88.1585821223515
 30
0.0
 10
-166.7811883662348
 20
88.10783909616941
 30
0.0
 10
-166.6057941106546
 20
88.05214779993076
 30
0.0
 10
-166.4268100180824
 20
88.00817612815366
 30
0.0
 10
-166.383016349451
 20
87.99808802581815
 30
0.0
 10
-166.2906506294592
 20
87.97808864836377
 30
0.0
 10
-166.1976706435123
 20
87.96040995820786
 30
0.0
 10
-166.1487507312332
 20
87.95171257707317
 30
0.0
 10
-165.9905998925615
 20
87.92535853584957
 30
0.0
 10
-165.8313787948074
 20
87.9041064472906
 30
0.0
 10
-165.7211027438325
 20
87.89146902526595
 30
0.0
 10
-165.6106468209411
 20
87.88070764097877
 30
0.0
 10
-165.4999965714858
 20
87.8716957601106
 30
0.0
  0
LINE
  5
1AF
330
70
100
AcDbEntity
  8
0
 62
     7
370
    35
100
AcDbLine
 10
-213.438879
 20
91.36935
 30
0.0
 11
-209.089047
 21
91.36935
 31
0.0
  0
LINE
  5
1B0
330
70
100
AcDbEntity
  8
0
 62
     7
370
    35
100
AcDbLine
 10
-194.674912
 20
91.36935
 30
0.0
 11
-190.325088
 21
91.36935
 31
0.0
  0
LINE
  5
1B1
330
70
100
AcDbEntity
  8
0
 62
     7
370
    35
100
AcDbLine
 10
-175.910953
 20
91.36935
 30
0.0
 11
-171.561121
 21
91.36935
 31
0.0
  0
LINE
  5
1B2
330
70
100
AcDbEntity
  8
0
 62
     7
370
    35
100
AcDbLine
 10
-231.5
 20
-50.0
 30
0.0
 11
-235.5
 21
-50.0
 31
0.0
  0
LINE
  5
1B3
330
70
100
AcDbEntity
  8
0
 62
     7
370
    35
100
AcDbLine
 10
-231.5
 20
50.0
 30
0.0
 11
-235.5
 21
50.0
 31
0.0
  0
LINE
  5
1B4
330
70
100
AcDbEntity
  8
0
 62
     7
370
    35
100
AcDbLine
 10
-231.5
 20
50.0
 30
0.0
 11
-231.5
 21
29.0
 31
0.0
  0
LINE
  5
1B5
330
70
100
AcDbEntity
  8
0
 62
     7
370
    35
100
AcDbLine
 10
-231.5
 20
-29.0
 30
0.0
 11
-231.5
 21
-50.0
 31
0.0
  0
LINE
  5
1B6
330
70
100
AcDbEntity
  8
0
 62
     7
370
    35
100
AcDbLine
 10
-235.5
 20
50.0
 30
0.0
 11
-235.5
 21
31.0
 31
0.0
  0
LINE
  5
1B7
330
70
100
AcDbEntity
  8
0
 62
     7
370
    35
100
AcDbLine
 10
-235.5
 20
-31.0
 30
0.0
 11
-235.5
 21
-50.0
 31
0.0
  0
LINE
  5
1B8
330
70
100
AcDbEntity
  8
0
 62
     7
370
    35
100
AcDbLine
 10
-226.5
 20
29.0
 30
0.0
 11
-231.5
 21
29.0
 31
0.0
  0
LINE
  5
1B9
330
70
100
AcDbEntity
  8
0
 62
     7
370
    35
100
AcDbLine
 10
-226.5
 20
-29.0
 30
0.0
 11
-231.5
 21
-29.0
 31
0.0
  0
LINE
  5
1BA
330
70
100
AcDbEntity
  8
0
 62
     7
370
    35
100
AcDbLine
 10
-237.5
 20
29.0
 30
0.0
 11
-235.5
 21
31.0
 31
0.0
  0
LINE
  5
1BB
330
70
100
AcDbEntity
  8
0
 62
     7
370
    35
100
AcDbLine
 10
-237.5
 20
-29.0
 30
0.0
 11
-235.5
 21
-31.0
 31
0.0
  0
LINE
  5
1BC
330
70
100
AcDbEntity
  8
0
 62
     7
370
    35
100
AcDbLine
 10
-226.5
 20
-29.0
 30
0.0
 11
-226.5
 21
-32.0
 31
0.0
  0
LINE
  5
1BD
330
70
100
AcDbEntity
  8
0
 62
     7
370
    35
100
AcDbLine
 10
-226.5
 20
32.0
 30
0.0
 11
-226.5
 21
29.0
 31
0.0
  0
LINE
  5
1BE
330
70
100
AcDbEntity
  8
0
 62
     7
370
    35
100
AcDbLine
 10
-237.5
 20
-29.0
 30
0.0
 11
-244.5
 21
-29.0
 31
0.0
  0
LINE
  5
1BF
330
70
100
AcDbEntity
  8
0
 62
     7
370
    35
100
AcDbLine
 10
-237.5
 20
29.0
 30
0.0
 11
-244.5
 21
29.0
 31
0.0
  0
LINE
  5
1C0
330
70
100
AcDbEntity
  8
0
 62
     7
370
    35
100
AcDbLine
 10
-221.5
 20
-32.0
 30
0.0
 11
-226.5
 21
-32.0
 31
0.0
  0
LINE
  5
1C1
330
70
100
AcDbEntity
  8
0
 62
     7
370
    35
100
AcDbLine
 10
-221.5
 20
32.0
 30
0.0
 11
-226.5
 21
32.0
 31
0.0
  0
LINE
  5
1C2
330
70
100
AcDbEntity
  8
0
 62
     7
370
    35
100
AcDbLine
 10
-245.5
 20
28.0
 30
0.0
 11
-244.5
 21
29.0
 31
0.0
  0
LINE
  5
1C3
330
70
100
AcDbEntity
  8
0
 62
     7
370
    35
100
AcDbLine
 10
-245.5
 20
-28.0
 30
0.0
 11
-244.5
 21
-29.0
 31
0.0
  0
LINE
  5
1C4
330
70
100
AcDbEntity
  8
0
 62
     7
370
    35
100
AcDbLine
 10
-220.5
 20
31.0
 30
0.0
 11
-221.5
 21
32.0
 31
0.0
  0
LINE
  5
1C5
330
70
100
AcDbEntity
  8
0
 62
     7
370
    35
100
AcDbLine
 10
-220.5
 20
-31.0
 30
0.0
 11
-221.5
 21
-32.0
 31
0.0
  0
LINE
  5
1C6
330
70
100
AcDbEntity
  8
0
 62
     7
370
    35
100
AcDbLine
 10
-245.5
 20
-23.5
 30
0.0
 11
-245.5
 21
-28.0
 31
0.0
  0
LINE
  5
1C7
330
70
100
AcDbEntity
  8
0
 62
     7
370
    35
100
AcDbLine
 10
-245.5
 20
23.5
 30
0.0
 11
-245.5
 21
22.5
 31
0.0
  0
LINE
  5
1C8
330
70
100
AcDbEntity
  8
0
 62
     7
370
    35
100
AcDbLine
 10
-245.5
 20
-22.5
 30
0.0
 11
-245.5
 21
-23.5
 31
0.0
  0
LINE
  5
1C9
330
70
100
AcDbEntity
  8
0
 62
     7
370
    35
100
AcDbLine
 10
-245.5
 20
28.0
 30
0.0
 11
-245.5
 21
23.5
 31
0.0
  0
LINE
  5
1CA
330
70
100
AcDbEntity
  8
0
 62
     7
370
    35
100
AcDbLine
 10
-220.5
 20
-23.5
 30
0.0
 11
-220.5
 21
-31.0
 31
0.0
  0
LINE
  5
1CB
330
70
100
AcDbEntity
  8
0
 62
     7
370
    35
100
AcDbLine
 10
-220.5
 20
23.5
 30
0.0
 11
-220.5
 21
22.502268
 31
0.0
  0
LINE
  5
1CC
330
70
100
AcDbEntity
  8
0
 62
     7
370
    35
100
AcDbLine
 10
-220.5
 20
-22.5
 30
0.0
 11
-220.5
 21
-23.5
 31
0.0
  0
LINE
  5
1CD
330
70
100
AcDbEntity
  8
0
 62
     7
370
    35
100
AcDbLine
 10
-220.5
 20
31.0
 30
0.0
 11
-220.5
 21
23.5
 31
0.0
  0
LINE
  5
1CE
330
70
100
AcDbEntity
  8
0
 62
     7
370
    35
100
AcDbLine
 10
-245.5
 20
23.5
 30
0.0
 11
-244.5
 21
22.5
 31
0.0
  0
LINE
  5
1CF
330
70
100
AcDbEntity
  8
0
 62
     7
370
    35
100
AcDbLine
 10
-245.5
 20
-23.5
 30
0.0
 11
-244.5
 21
-22.5
 31
0.0
  0
LINE
  5
1D0
330
70
100
AcDbEntity
  8
0
 62
     7
370
    35
100
AcDbLine
 10
-220.5
 20
23.5
 30
0.0
 11
-221.5
 21
22.5
 31
0.0
  0
LINE
  5
1D1
330
70
100
AcDbEntity
  8
0
 62
     7
370
    35
100
AcDbLine
 10
-220.5
 20
-23.5
 30
0.0
 11
-221.5
 21
-22.5
 31
0.0
  0
LINE
  5
1D2
330
70
100
AcDbEntity
  8
0
 62
     7
370
    35
100
AcDbLine
 10
-221.5
 20
-22.5
 30
0.0
 11
-244.5
 21
-22.5
 31
0.0
  0
LINE
  5
1D3
330
70
100
AcDbEntity
  8
0
 62
     7
370
    35
100
AcDbLine
 10
-221.5
 20
22.5
 30
0.0
 11
-244.5
 21
22.5
 31
0.0
  0
LINE
  5
1D4
330
70
100
AcDbEntity
  8
0
 62
     7
370
    35
100
AcDbLine
 10
39.5
 20
-50.0
 30
0.0
 11
43.5
 21
-50.0
 31
0.0
  0
LINE
  5
1D5
330
70
100
AcDbEntity
  8
0
 62
     7
370
    35
100
AcDbLine
 10
39.5
 20
50.0
 30
0.0
 11
43.5
 21
50.0
 31
0.0
  0
LINE
  5
1D6
330
70
100
AcDbEntity
  8
0
 62
     7
370
    35
100
AcDbLine
 10
39.5
 20
50.0
 30
0.0
 11
39.5
 21
24.5
 31
0.0
  0
LINE
  5
1D7
330
70
100
AcDbEntity
  8
0
 62
     7
370
    35
100
AcDbLine
 10
39.5
 20
-24.5
 30
0.0
 11
39.5
 21
-50.0
 31
0.0
  0
LINE
  5
1D8
330
70
100
AcDbEntity
  8
0
 62
     7
370
    35
100
AcDbLine
 10
43.5
 20
50.0
 30
0.0
 11
43.5
 21
31.0
 31
0.0
  0
LINE
  5
1D9
330
70
100
AcDbEntity
  8
0
 62
     7
370
    35
100
AcDbLine
 10
43.5
 20
-31.0
 30
0.0
 11
43.5
 21
-50.0
 31
0.0
  0
LINE
  5
1DA
330
70
100
AcDbEntity
  8
0
 62
     7
370
    35
100
AcDbLine
 10
41.5
 20
-22.5
 30
0.0
 11
39.5
 21
-24.5
 31
0.0
  0
LINE
  5
1DB
330
70
100
AcDbEntity
  8
0
 62
     7
370
    35
100
AcDbLine
 10
41.5
 20
22.5
 30
0.0
 11
39.5
 21
24.5
 31
0.0
  0
LINE
  5
1DC
330
70
100
AcDbEntity
  8
0
 62
     7
370
    35
100
AcDbLine
 10
43.5
 20
31.0
 30
0.0
 11
45.5
 21
29.0
 31
0.0
  0
LINE
  5
1DD
330
70
100
AcDbEntity
  8
0
 62
     7
370
    35
100
AcDbLine
 10
43.5
 20
-31.0
 30
0.0
 11
45.5
 21
-29.0
 31
0.0
  0
LINE
  5
1DE
330
70
100
AcDbEntity
  8
0
 62
     7
370
    35
100
AcDbLine
 10
41.5
 20
-22.5
 30
0.0
 11
52.5
 21
-22.5
 31
0.0
  0
LINE
  5
1DF
330
70
100
AcDbEntity
  8
0
 62
     7
370
    35
100
AcDbLine
 10
41.5
 20
22.5
 30
0.0
 11
52.5
 21
22.5
 31
0.0
  0
LINE
  5
1E0
330
70
100
AcDbEntity
  8
0
 62
     7
370
    35
100
AcDbLine
 10
45.5
 20
29.0
 30
0.0
 11
52.5
 21
29.0
 31
0.0
  0
LINE
  5
1E1
330
70
100
AcDbEntity
  8
0
 62
     7
370
    35
100
AcDbLine
 10
45.5
 20
-29.0
 30
0.0
 11
52.5
 21
-29.0
 31
0.0
  0
LINE
  5
1E2
330
70
100
AcDbEntity
  8
0
 62
     7
370
    35
100
AcDbLine
 10
53.5
 20
-23.5
 30
0.0
 11
52.5
 21
-22.5
 31
0.0
  0
LINE
  5
1E3
330
70
100
AcDbEntity
  8
0
 62
     7
370
    35
100
AcDbLine
 10
53.5
 20
-23.5
 30
0.0
 11
53.5
 21
-22.5
 31
0.0
  0
LINE
  5
1E4
330
70
100
AcDbEntity
  8
0
 62
     7
370
    35
100
AcDbLine
 10
53.5
 20
22.5
 30
0.0
 11
53.5
 21
23.5
 31
0.0
  0
LINE
  5
1E5
330
70
100
AcDbEntity
  8
0
 62
     7
370
    35
100
AcDbLine
 10
53.5
 20
23.5
 30
0.0
 11
52.5
 21
22.5
 31
0.0
  0
LINE
  5
1E6
330
70
100
AcDbEntity
  8
0
 62
     7
370
    35
100
AcDbLine
 10
53.5
 20
-28.0
 30
0.0
 11
52.5
 21
-29.0
 31
0.0
  0
LINE
  5
1E7
330
70
100
AcDbEntity
  8
0
 62
     7
370
    35
100
AcDbLine
 10
53.5
 20
28.0
 30
0.0
 11
52.5
 21
29.0
 31
0.0
  0
LINE
  5
1E8
330
70
100
AcDbEntity
  8
0
 62
     7
370
    35
100
AcDbLine
 10
53.5
 20
23.5
 30
0.0
 11
53.5
 21
28.0
 31
0.0
  0
LINE
  5
1E9
330
70
100
AcDbEntity
  8
0
 62
     7
370
    35
100
AcDbLine
 10
53.5
 20
-28.0
 30
0.0
 11
53.5
 21
-23.5
 31
0.0
  0
ARC
  5
1EA
330
70
100
AcDbEntity
  8
0
 62
     7
370
    35
100
AcDbCircle
 10
-258.0
 20
-36.25
 30
0.0
 40
6.924999999999998
100
AcDbArc
 50
272.055775
 51
9.927064
  0
ARC
  5
1EB
330
70
100
AcDbEntity
  8
0
 62
     7
370
    35
100
AcDbCircle
 10
-258.0
 20
-36.25
 30
0.0
 40
6.924999999999998
100
AcDbArc
 50
170.072936
 51
189.927064
  0
LINE
  5
1EC
330
70
100
AcDbEntity
  8
0
 62
     7
370
    35
100
AcDbLine
 10
-245.5
 20
-45.416667
 30
0.0
 11
-257.751584
 21
-43.170543
 31
0.0
  0
LINE
  5
1ED
330
70
100
AcDbEntity
  8
0
 62
     7
370
    35
100
AcDbLine
 10
-245.5
 20
45.416667
 30
0.0
 11
-245.5
 21
33.556161
 31
0.0
  0
LINE
  5
1EE
330
70
100
AcDbEntity
  8
0
 62
     7
370
    35
100
AcDbLine
 10
-245.5
 20
-33.556161
 30
0.0
 11
-245.5
 21
-45.416667
 31
0.0
  0
LINE
  5
1EF
330
70
100
AcDbEntity
  8
0
 62
     7
370
    35
100
AcDbLine
 10
-257.751584
 20
43.170543
 30
0.0
 11
-245.5
 21
45.416667
 31
0.0
  0
LINE
  5
1F0
330
70
100
AcDbEntity
  8
0
 62
     7
370
    35
100
AcDbLine
 10
-270.5
 20
37.443831
 30
0.0
 11
-264.821319
 21
37.443831
 31
0.0
  0
LINE
  5
1F1
330
70
100
AcDbEntity
  8
0
 62
     7
370
    35
100
AcDbLine
 10
-270.5
 20
37.443831
 30
0.0
 11
-270.5
 21
-37.443831
 31
0.0
  0
LINE
  5
1F2
330
70
100
AcDbEntity
  8
0
 62
     7
370
    35
100
AcDbLine
 10
-264.821319
 20
-37.443831
 30
0.0
 11
-270.5
 21
-37.443831
 31
0.0
  0
LINE
  5
1F3
330
70
100
AcDbEntity
  8
0
 62
     7
370
    35
100
AcDbLine
 10
-270.5
 20
35.056169
 30
0.0
 11
-264.821319
 21
35.056169
 31
0.0
  0
LINE
  5
1F4
330
70
100
AcDbEntity
  8
0
 62
     7
370
    35
100
AcDbLine
 10
-264.821319
 20
-35.056169
 30
0.0
 11
-270.5
 21
-35.056169
 31
0.0
  0
LINE
  5
1F5
330
70
100
AcDbEntity
  8
0
 62
     7
370
    35
100
AcDbLine
 10
-251.178681
 20
35.056169
 30
0.0
 11
-247.0
 21
35.056169
 31
0.0
  0
LINE
  5
1F6
330
70
100
AcDbEntity
  8
0
 62
     7
370
    35
100
AcDbLine
 10
-247.0
 20
-35.056169
 30
0.0
 11
-251.178681
 21
-35.056169
 31
0.0
  0
ARC
  5
1F7
330
70
100
AcDbEntity
  8
0
 62
     7
370
    35
100
AcDbCircle
 10
-258.0
 20
36.25
 30
0.0
 40
6.924999999999998
100
AcDbArc
 50
350.072936
 51
87.944225
  0
LINE
  5
1F8
330
70
100
AcDbEntity
  8
0
 62
     7
370
    35
100
AcDbLine
 10
-245.5
 20
49.4
 30
0.0
 11
-245.5
 21
45.416667
 31
0.0
  0
LINE
  5
1F9
330
70
100
AcDbEntity
  8
0
 62
     7
370
    35
100
AcDbLine
 10
-245.5
 20
-45.416667
 30
0.0
 11
-245.5
 21
-49.4
 31
0.0
  0
LINE
  5
1FA
330
70
100
AcDbEntity
  8
0
 62
     7
370
    35
100
AcDbLine
 10
-270.5
 20
-48.5
 30
0.0
 11
-270.5
 21
-37.443831
 31
0.0
  0
LINE
  5
1FB
330
70
100
AcDbEntity
  8
0
 62
     7
370
    35
100
AcDbLine
 10
-270.5
 20
37.443831
 30
0.0
 11
-270.5
 21
48.5
 31
0.0
  0
ARC
  5
1FC
330
70
100
AcDbEntity
  8
0
 62
     7
370
    35
100
AcDbCircle
 10
-258.0
 20
36.25
 30
0.0
 40
6.924999999999998
100
AcDbArc
 50
170.072936
 51
189.927064
  0
LINE
  5
1FD
330
70
100
AcDbEntity
  8
0
 62
     7
370
    35
100
AcDbLine
 10
-270.5
 20
-35.056169
 30
0.0
 11
-270.5
 21
-24.0
 31
0.0
  0
LINE
  5
1FE
330
70
100
AcDbEntity
  8
0
 62
     7
370
    35
100
AcDbLine
 10
-270.5
 20
-24.0
 30
0.0
 11
-270.5
 21
24.0
 31
0.0
  0
LINE
  5
1FF
330
70
100
AcDbEntity
  8
0
 62
     7
370
    35
100
AcDbLine
 10
-270.5
 20
24.0
 30
0.0
 11
-270.5
 21
35.056169
 31
0.0
  0
ARC
  5
200
330
70
100
AcDbEntity
  8
0
 62
     7
370
    35
100
AcDbCircle
 10
-247.0
 20
33.556169
 30
0.0
 40
1.5
100
AcDbArc
 50
0.0
 51
90.0
  0
ARC
  5
201
330
70
100
AcDbEntity
  8
0
 62
     7
370
    35
100
AcDbCircle
 10
-247.0
 20
-33.556169
 30
0.0
 40
1.5
100
AcDbArc
 50
270.0
 51
0.0
  0
ARC
  5
202
330
70
100
AcDbEntity
  8
0
 62
     7
370
    35
100
AcDbCircle
 10
-246.1
 20
49.4
 30
0.0
 40
0.6
100
AcDbArc
 50
0.0
 51
90.0
  0
ARC
  5
203
330
70
100
AcDbEntity
  8
0
 62
     7
370
    35
100
AcDbCircle
 10
-246.1
 20
-49.4
 30
0.0
 40
0.6
100
AcDbArc
 50
270.0
 51
0.0
  0
ARC
  5
204
330
70
100
AcDbEntity
  8
0
 62
     7
370
    35
100
AcDbCircle
 10
-269.0
 20
-48.5
 30
0.0
 40
1.5
100
AcDbArc
 50
180.0
 51
270.0
  0
ARC
  5
205
330
70
100
AcDbEntity
  8
0
 62
     7
370
    35
100
AcDbCircle
 10
-269.0
 20
48.5
 30
0.0
 40
1.5
100
AcDbArc
 50
90.0
 51
180.0
  0
ARC
  5
206
330
70
100
AcDbEntity
  8
0
 62
     7
370
    35
100
AcDbCircle
 10
-269.0
 20
24.0
 30
0.0
 40
1.5
100
AcDbArc
 50
180.0
 51
270.0
  0
ARC
  5
207
330
70
100
AcDbEntity
  8
0
 62
     7
370
    35
100
AcDbCircle
 10
-269.0
 20
-24.0
 30
0.0
 40
1.5
100
AcDbArc
 50
90.0
 51
180.0
  0
LINE
  5
208
330
70
100
AcDbEntity
  8
0
 62
     7
370
    13
100
AcDbLine
 10
-269.0
 20
21.999983
 30
0.0
 11
-269.0
 21
22.5
 31
0.0
  0
LINE
  5
209
330
70
100
AcDbEntity
  8
0
 62
     7
370
    13
100
AcDbLine
 10
-269.0
 20
-22.5
 30
0.0
 11
-269.0
 21
-21.999983
 31
0.0
  0
LINE
  5
20A
330
70
100
AcDbEntity
  8
0
 62
     7
370
    35
100
AcDbLine
 10
-245.5
 20
33.556169
 30
0.0
 11
-245.5
 21
24.0
 31
0.0
  0
LINE
  5
20B
330
70
100
AcDbEntity
  8
0
 62
     7
370
    35
100
AcDbLine
 10
-245.5
 20
24.0
 30
0.0
 11
-245.5
 21
22.499972
 31
0.0
  0
LINE
  5
20C
330
70
100
AcDbEntity
  8
0
 62
     7
370
    35
100
AcDbLine
 10
-245.5
 20
-22.499972
 30
0.0
 11
-245.5
 21
-24.0
 31
0.0
  0
LINE
  5
20D
330
70
100
AcDbEntity
  8
0
 62
     7
370
    35
100
AcDbLine
 10
-245.5
 20
-24.0
 30
0.0
 11
-245.5
 21
-33.556169
 31
0.0
  0
LINE
  5
20E
330
70
100
AcDbEntity
  8
0
 62
     7
370
    35
100
AcDbLine
 10
-269.0
 20
50.0
 30
0.0
 11
-246.1
 21
50.0
 31
0.0
  0
LINE
  5
20F
330
70
100
AcDbEntity
  8
0
 62
     7
370
    35
100
AcDbLine
 10
-246.1
 20
-50.0
 30
0.0
 11
-269.0
 21
-50.0
 31
0.0
  0
LINE
  5
210
330
70
100
AcDbEntity
  8
0
 62
     7
370
    35
100
AcDbLine
 10
-247.0
 20
-22.5
 30
0.0
 11
-269.0
 21
-22.5
 31
0.0
  0
LINE
  5
211
330
70
100
AcDbEntity
  8
0
 62
     7
370
    35
100
AcDbLine
 10
-269.0
 20
22.5
 30
0.0
 11
-247.0
 21
22.5
 31
0.0
  0
ARC
  5
212
330
70
100
AcDbEntity
  8
0
 62
     7
370
    35
100
AcDbCircle
 10
-247.0
 20
24.0
 30
0.0
 40
1.5
100
AcDbArc
 50
270.0
 51
0.0
  0
ARC
  5
213
330
70
100
AcDbEntity
  8
0
 62
     7
370
    35
100
AcDbCircle
 10
-247.0
 20
-24.0
 30
0.0
 40
1.5
100
AcDbArc
 50
0.0
 51
90.0
  0
ARC
  5
214
330
70
100
AcDbEntity
  8
0
 62
     7
370
    35
100
AcDbCircle
 10
66.0
 20
36.25
 30
0.0
 40
6.924999999999998
100
AcDbArc
 50
92.055775
 51
189.927064
  0
ARC
  5
215
330
70
100
AcDbEntity
  8
0
 62
     7
370
    35
100
AcDbCircle
 10
66.0
 20
36.25
 30
0.0
 40
6.924999999999998
100
AcDbArc
 50
350.072936
 51
9.927064
  0
LINE
  5
216
330
70
100
AcDbEntity
  8
0
 62
     7
370
    35
100
AcDbLine
 10
53.5
 20
45.416667
 30
0.0
 11
65.751584
 21
43.170543
 31
0.0
  0
LINE
  5
217
330
70
100
AcDbEntity
  8
0
 62
     7
370
    35
100
AcDbLine
 10
53.5
 20
-45.416667
 30
0.0
 11
53.5
 21
-27.999999
 31
0.0
  0
LINE
  5
218
330
70
100
AcDbEntity
  8
0
 62
     7
370
    35
100
AcDbLine
 10
53.5
 20
27.999999
 30
0.0
 11
53.5
 21
45.416667
 31
0.0
  0
LINE
  5
219
330
70
100
AcDbEntity
  8
0
 62
     7
370
    35
100
AcDbLine
 10
65.751584
 20
-43.170543
 30
0.0
 11
53.5
 21
-45.416667
 31
0.0
  0
LINE
  5
21A
330
70
100
AcDbEntity
  8
0
 62
     7
370
    35
100
AcDbLine
 10
78.5
 20
-37.443831
 30
0.0
 11
72.821319
 21
-37.443831
 31
0.0
  0
LINE
  5
21B
330
70
100
AcDbEntity
  8
0
 62
     7
370
    35
100
AcDbLine
 10
78.5
 20
-37.443831
 30
0.0
 11
78.5
 21
-35.056129
 31
0.0
  0
LINE
  5
21C
330
70
100
AcDbEntity
  8
0
 62
     7
370
    35
100
AcDbLine
 10
78.5
 20
35.056129
 30
0.0
 11
78.5
 21
37.443831
 31
0.0
  0
LINE
  5
21D
330
70
100
AcDbEntity
  8
0
 62
     7
370
    35
100
AcDbLine
 10
72.821319
 20
37.443831
 30
0.0
 11
78.5
 21
37.443831
 31
0.0
  0
LINE
  5
21E
330
70
100
AcDbEntity
  8
0
 62
     7
370
    35
100
AcDbLine
 10
78.5
 20
-35.056169
 30
0.0
 11
72.821319
 21
-35.056169
 31
0.0
  0
LINE
  5
21F
330
70
100
AcDbEntity
  8
0
 62
     7
370
    35
100
AcDbLine
 10
72.821319
 20
35.056169
 30
0.0
 11
78.5
 21
35.056169
 31
0.0
  0
LINE
  5
220
330
70
100
AcDbEntity
  8
0
 62
     7
370
    35
100
AcDbLine
 10
59.178681
 20
-35.056169
 30
0.0
 11
55.0
 21
-35.056169
 31
0.0
  0
LINE
  5
221
330
70
100
AcDbEntity
  8
0
 62
     7
370
    35
100
AcDbLine
 10
55.0
 20
35.056169
 30
0.0
 11
59.178681
 21
35.056169
 31
0.0
  0
ARC
  5
222
330
70
100
AcDbEntity
  8
0
 62
     7
370
    35
100
AcDbCircle
 10
66.0
 20
-36.25
 30
0.0
 40
6.924999999999998
100
AcDbArc
 50
170.072936
 51
267.944225
  0
LINE
  5
223
330
70
100
AcDbEntity
  8
0
 62
     7
370
    35
100
AcDbLine
 10
53.5
 20
-49.4
 30
0.0
 11
53.5
 21
-45.416667
 31
0.0
  0
LINE
  5
224
330
70
100
AcDbEntity
  8
0
 62
     7
370
    35
100
AcDbLine
 10
53.5
 20
45.416667
 30
0.0
 11
53.5
 21
49.4
 31
0.0
  0
LINE
  5
225
330
70
100
AcDbEntity
  8
0
 62
     7
370
    35
100
AcDbLine
 10
78.5
 20
48.5
 30
0.0
 11
78.5
 21
37.443831
 31
0.0
  0
LINE
  5
226
330
70
100
AcDbEntity
  8
0
 62
     7
370
    35
100
AcDbLine
 10
78.5
 20
-37.443831
 30
0.0
 11
78.5
 21
-48.5
 31
0.0
  0
ARC
  5
227
330
70
100
AcDbEntity
  8
0
 62
     7
370
    35
100
AcDbCircle
 10
66.0
 20
-36.25
 30
0.0
 40
6.924999999999998
100
AcDbArc
 50
350.072936
 51
9.927064
  0
LINE
  5
228
330
70
100
AcDbEntity
  8
0
 62
     7
370
    35
100
AcDbLine
 10
78.5
 20
35.056169
 30
0.0
 11
78.5
 21
24.0
 31
0.0
  0
LINE
  5
229
330
70
100
AcDbEntity
  8
0
 62
     7
370
    35
100
AcDbLine
 10
78.5
 20
-20.49999
 30
0.0
 11
78.5
 21
-24.0
 31
0.0
  0
LINE
  5
22A
330
70
100
AcDbEntity
  8
0
 62
     7
370
    35
100
AcDbLine
 10
78.5
 20
24.0
 30
0.0
 11
78.5
 21
20.49999
 31
0.0
  0
LINE
  5
22B
330
70
100
AcDbEntity
  8
0
 62
     7
370
    35
100
AcDbLine
 10
78.5
 20
-24.0
 30
0.0
 11
78.5
 21
-35.056169
 31
0.0
  0
ARC
  5
22C
330
70
100
AcDbEntity
  8
0
 62
     7
370
    35
100
AcDbCircle
 10
55.0
 20
-33.556169
 30
0.0
 40
1.5
100
AcDbArc
 50
180.0
 51
270.0
  0
ARC
  5
22D
330
70
100
AcDbEntity
  8
0
 62
     7
370
    35
100
AcDbCircle
 10
55.0
 20
33.556169
 30
0.0
 40
1.5
100
AcDbArc
 50
90.0
 51
180.0
  0
ARC
  5
22E
330
70
100
AcDbEntity
  8
0
 62
     7
370
    35
100
AcDbCircle
 10
54.1
 20
-49.4
 30
0.0
 40
0.6
100
AcDbArc
 50
180.0
 51
270.0
  0
ARC
  5
22F
330
70
100
AcDbEntity
  8
0
 62
     7
370
    35
100
AcDbCircle
 10
54.1
 20
49.4
 30
0.0
 40
0.6
100
AcDbArc
 50
90.0
 51
180.0
  0
ARC
  5
230
330
70
100
AcDbEntity
  8
0
 62
     7
370
    35
100
AcDbCircle
 10
77.0
 20
48.5
 30
0.0
 40
1.5
100
AcDbArc
 50
0.0
 51
90.0
  0
ARC
  5
231
330
70
100
AcDbEntity
  8
0
 62
     7
370
    35
100
AcDbCircle
 10
77.0
 20
-48.5
 30
0.0
 40
1.5
100
AcDbArc
 50
270.0
 51
0.0
  0
ARC
  5
232
330
70
100
AcDbEntity
  8
0
 62
     7
370
    35
100
AcDbCircle
 10
77.0
 20
-24.0
 30
0.0
 40
1.5
100
AcDbArc
 50
360.0
 51
90.0
  0
ARC
  5
233
330
70
100
AcDbEntity
  8
0
 62
     7
370
    35
100
AcDbCircle
 10
77.0
 20
24.0
 30
0.0
 40
1.5
100
AcDbArc
 50
270.0
 51
0.0
  0
LINE
  5
234
330
70
100
AcDbEntity
  8
0
 62
     7
370
    13
100
AcDbLine
 10
77.0
 20
-21.999983
 30
0.0
 11
77.0
 21
-22.5
 31
0.0
  0
LINE
  5
235
330
70
100
AcDbEntity
  8
0
 62
     7
370
    13
100
AcDbLine
 10
77.0
 20
22.5
 30
0.0
 11
77.0
 21
21.999983
 31
0.0
  0
LINE
  5
236
330
70
100
AcDbEntity
  8
0
 62
     7
370
    35
100
AcDbLine
 10
53.5
 20
-33.556169
 30
0.0
 11
53.5
 21
-24.0
 31
0.0
  0
LINE
  5
237
330
70
100
AcDbEntity
  8
0
 62
     7
370
    35
100
AcDbLine
 10
53.5
 20
24.0
 30
0.0
 11
53.5
 21
33.556169
 31
0.0
  0
LINE
  5
238
330
70
100
AcDbEntity
  8
0
 62
     7
370
    35
100
AcDbLine
 10
77.0
 20
-50.0
 30
0.0
 11
54.1
 21
-50.0
 31
0.0
  0
LINE
  5
239
330
70
100
AcDbEntity
  8
0
 62
     7
370
    35
100
AcDbLine
 10
54.1
 20
50.0
 30
0.0
 11
77.0
 21
50.0
 31
0.0
  0
LINE
  5
23A
330
70
100
AcDbEntity
  8
0
 62
     7
370
    35
100
AcDbLine
 10
55.0
 20
22.5
 30
0.0
 11
77.0
 21
22.5
 31
0.0
  0
LINE
  5
23B
330
70
100
AcDbEntity
  8
0
 62
     7
370
    35
100
AcDbLine
 10
77.0
 20
-22.5
 30
0.0
 11
55.0
 21
-22.5
 31
0.0
  0
ARC
  5
23C
330
70
100
AcDbEntity
  8
0
 62
     7
370
    35
100
AcDbCircle
 10
55.0
 20
-24.0
 30
0.0
 40
1.5
100
AcDbArc
 50
90.0
 51
180.0
  0
ARC
  5
23D
330
70
100
AcDbEntity
  8
0
 62
     7
370
    35
100
AcDbCircle
 10
55.0
 20
24.0
 30
0.0
 40
1.5
100
AcDbArc
 50
180.0
 51
270.0
  0
ENDBLK
  5
23F
330
70
100
AcDbEntity
  8
0
100
AcDbBlockEnd
  0
ENDSEC
  0
SECTION
  2
ENTITIES
  0
LINE
  5
240
330
1F
100
AcDbEntity
  8
0
  6
DASHDOT
 62
     7
370
    13
100
AcDbLine
 10
395.899445
 20
420.5
 30
0.0
 11
685.10005
 21
420.5
 31
0.0
  0
LINE
  5
241
330
1F
100
AcDbEntity
  8
0
  6
DASHDOT
 62
     7
370
    13
100
AcDbLine
 10
773.900047
 20
420.5
 30
0.0
 11
715.099449
 21
420.5
 31
0.0
  0
LINE
  5
242
330
1F
100
AcDbEntity
  8
0
  6
DASHDOT
 62
     7
 48
0.480015
370
    13
100
AcDbLine
 10
507.600052
 20
482.5
 30
0.0
 11
488.399445
 21
482.5
 31
0.0
  0
LINE
  5
243
330
1F
100
AcDbEntity
  8
0
  6
DASHDOT
 62
     7
 48
0.480015
370
    13
100
AcDbLine
 10
507.600052
 20
358.5
 30
0.0
 11
488.399445
 21
358.5
 31
0.0
  0
INSERT
  5
244
330
1F
100
AcDbEntity
  8
0
370
     0
100
AcDbBlockReference
  2
BLOCK1
 10
690.5
 20
420.5
 30
0.0
  0
ENDSEC
  0
SECTION
  2
OBJECTS
  0
DICTIONARY
  5
C
330
0
100
AcDbDictionary
281
     1
  3
ACAD_GROUP
350
D
  3
ACAD_LAYOUT
350
1A
  3
ACAD_MLINESTYLE
350
17
  3
ACAD_PLOTSETTINGS
350
19
  3
ACAD_PLOTSTYLENAME
350
E
  3
ACAD_SCALELIST
350
47
  0
DICTIONARY
  5
D
102
{ACAD_REACTORS
330
C
102
}
330
C
100
AcDbDictionary
281
     1
  0
DICTIONARY
  5
1A
102
{ACAD_REACTORS
330
C
102
}
330
C
100
AcDbDictionary
281
     1
  3
Layout1
350
1E
  3
Layout2
350
26
  3
Model
350
22
  0
DICTIONARY
  5
17
102
{ACAD_REACTORS
330
C
102
}
330
C
100
AcDbDictionary
281
     1
  3
Standard
350
18
  0
DICTIONARY
  5
19
102
{ACAD_REACTORS
330
C
102
}
330
C
100
AcDbDictionary
281
     1
  0
ACDBDICTIONARYWDFLT
  5
E
102
{ACAD_REACTORS
330
C
102
}
330
C
100
AcDbDictionary
281
     1
  3
Normal
350
F
100
AcDbDictionaryWithDefault
340
F
  0
DICTIONARY
  5
47
102
{ACAD_REACTORS
330
C
102
}
330
C
100
AcDbDictionary
281
     1
  3
A0
350
48
  3
A1
350
49
  3
A2
350
4A
  3
A3
350
4B
  3
A4
350
4C
  3
A5
350
4D
  3
A6
350
4E
  3
A7
350
4F
  3
A8
350
50
  3
A9
350
51
  3
B0
350
52
  3
B1
350
53
  3
B2
350
54
  3
B3
350
55
  3
B4
350
56
  3
B5
350
57
  3
B6
350
58
  3
B7
350
59
  3
B8
350
5A
  3
B9
350
5B
  3
C0
350
5C
  3
C1
350
5D
  3
C2
350
5E
  3
C3
350
5F
  3
C4
350
60
  3
C5
350
61
  3
C6
350
62
  3
C7
350
63
  3
C8
350
64
  3
C9
350
65
  3
D0
350
66
  3
D1
350
67
  3
D2
350
68
  0
LAYOUT
  5
1E
102
{ACAD_REACTORS
330
1A
102
}
330
1A
100
AcDbPlotSettings
  1

  2
none_device
  4

  6

 40
0.0
 41
0.0
 42
0.0
 43
0.0
 44
0.0
 45
0.0
 46
0.0
 47
0.0
 48
0.0
 49
0.0
140
0.0
141
0.0
142
1.0
143
1.0
 70
  4784
 72
     0
 73
     0
 74
     5
  7

 75
    16
147
1.0
148
0.0
149
0.0
100
AcDbLayout
  1
Layout1
 70
     1
 71
     1
 10
0.0
 20
0.0
 11
420.0
 21
297.0
 12
0.0
 22
0.0
 32
0.0
 14
0.0
 24
0.0
 34
0.0
 15
83.400047
 25
62.0
 35
2.0
146
0.0
 13
0.0
 23
0.0
 33
0.0
 16
1.0
 26
0.0
 36
0.0
 17
0.0
 27
1.0
 37
0.0
 76
     0
330
1B
  0
LAYOUT
  5
26
102
{ACAD_REACTORS
330
1A
102
}
330
1A
100
AcDbPlotSettings
  1

  2
none_device
  4

  6

 40
0.0
 41
0.0
 42
0.0
 43
0.0
 44
0.0
 45
0.0
 46
0.0
 47
0.0
 48
0.0
 49
0.0
140
0.0
141
0.0
142
1.0
143
1.0
 70
  4784
 72
     0
 73
     0
 74
     5
  7

 75
    16
147
1.0
148
0.0
149
0.0
100
AcDbLayout
  1
Layout2
 70
     1
 71
     2
 10
0.0
 20
0.0
 11
0.0
 21
0.0
 12
0.0
 22
0.0
 32
0.0
 14
0.0
 24
0.0
 34
0.0
 15
0.0
 25
0.0
 35
0.0
146
0.0
 13
0.0
 23
0.0
 33
0.0
 16
1.0
 26
0.0
 36
0.0
 17
0.0
 27
1.0
 37
0.0
 76
     0
330
23
  0
LAYOUT
  5
22
102
{ACAD_REACTORS
330
1A
102
}
330
1A
100
AcDbPlotSettings
  1

  2
none_device
  4
Letter_(8.50_x_11.00_Inches)
  6

 40
6.35
 41
6.35
 42
6.350005
 43
6.350005
 44
215.9
 45
279.4
 46
0.0
 47
0.0
 48
0.0
 49
0.0
140
0.0
141
0.0
142
1.0
143
1.0
 70
  5808
 72
     0
 73
     0
 74
     0
  7

 75
     0
147
1.0
148
0.0
149
0.0
100
AcDbLayout
  1
Model
 70
     1
 71
     0
 10
0.0
 20
0.0
 11
420.0
 21
297.0
 12
0.0
 22
0.0
 32
0.0
 14
0.0
 24
0.0
 34
0.0
 15
83.400047
 25
62.0
 35
2.0
146
0.0
 13
0.0
 23
0.0
 33
0.0
 16
1.0
 26
0.0
 36
0.0
 17
0.0
 27
1.0
 37
0.0
 76
     0
330
1F
331
29
  0
MLINESTYLE
  5
18
102
{ACAD_REACTORS
330
17
102
}
330
17
100
AcDbMlineStyle
  2
Standard
 70
     0
  3

 62
   256
 51
90.0
 52
90.0
 71
     2
 49
0.5
 62
   256
  6
BYLAYER
 49
-0.5
 62
   256
  6
BYLAYER
  0
ACDBPLACEHOLDER
  5
F
102
{ACAD_REACTORS
330
E
102
}
330
E
  0
SCALE
  5
48
102
{ACAD_REACTORS
330
47
102
}
330
47
100
AcDbScale
 70
     0
300
1:1
140
1.0
141
1.0
290
     1
  0
SCALE
  5
49
102
{ACAD_REACTORS
330
47
102
}
330
47
100
AcDbScale
 70
     0
300
1:2
140
1.0
141
2.0
290
     0
  0
SCALE
  5
4A
102
{ACAD_REACTORS
330
47
102
}
330
47
100
AcDbScale
 70
     0
300
1:4
140
1.0
141
4.0
290
     0
  0
SCALE
  5
4B
102
{ACAD_REACTORS
330
47
102
}
330
47
100
AcDbScale
 70
     0
300
1:5
140
1.0
141
5.0
290
     0
  0
SCALE
  5
4C
102
{ACAD_REACTORS
330
47
102
}
330
47
100
AcDbScale
 70
     0
300
1:8
140
1.0
141
8.0
290
     0
  0
SCALE
  5
4D
102
{ACAD_REACTORS
330
47
102
}
330
47
100
AcDbScale
 70
     0
300
1:10
140
1.0
141
10.0
290
     0
  0
SCALE
  5
4E
102
{ACAD_REACTORS
330
47
102
}
330
47
100
AcDbScale
 70
     0
300
1:16
140
1.0
141
16.0
290
     0
  0
SCALE
  5
4F
102
{ACAD_REACTORS
330
47
102
}
330
47
100
AcDbScale
 70
     0
300
1:20
140
1.0
141
20.0
290
     0
  0
SCALE
  5
50
102
{ACAD_REACTORS
330
47
102
}
330
47
100
AcDbScale
 70
     0
300
1:30
140
1.0
141
30.0
290
     0
  0
SCALE
  5
51
102
{ACAD_REACTORS
330
47
102
}
330
47
100
AcDbScale
 70
     0
300
1:40
140
1.0
141
40.0
290
     0
  0
SCALE
  5
52
102
{ACAD_REACTORS
330
47
102
}
330
47
100
AcDbScale
 70
     0
300
1:50
140
1.0
141
50.0
290
     0
  0
SCALE
  5
53
102
{ACAD_REACTORS
330
47
102
}
330
47
100
AcDbScale
 70
     0
300
1:100
140
1.0
141
100.0
290
     0
  0
SCALE
  5
54
102
{ACAD_REACTORS
330
47
102
}
330
47
100
AcDbScale
 70
     0
300
2:1
140
2.0
141
1.0
290
     0
  0
SCALE
  5
55
102
{ACAD_REACTORS
330
47
102
}
330
47
100
AcDbScale
 70
     0
300
4:1
140
4.0
141
1.0
290
     0
  0
SCALE
  5
56
102
{ACAD_REACTORS
330
47
102
}
330
47
100
AcDbScale
 70
     0
300
8:1
140
8.0
141
1.0
290
     0
  0
SCALE
  5
57
102
{ACAD_REACTORS
330
47
102
}
330
47
100
AcDbScale
 70
     0
300
10:1
140
10.0
141
1.0
290
     0
  0
SCALE
  5
58
102
{ACAD_REACTORS
330
47
102
}
330
47
100
AcDbScale
 70
     0
300
100:1
140
100.0
141
1.0
290
     0
  0
SCALE
  5
59
102
{ACAD_REACTORS
330
47
102
}
330
47
100
AcDbScale
 70
     0
300
1/128" = 1'-0"
140
0.007812
141
12.0
290
     0
  0
SCALE
  5
5A
102
{ACAD_REACTORS
330
47
102
}
330
47
100
AcDbScale
 70
     0
300
1/64" = 1'-0"
140
0.015625
141
12.0
290
     0
  0
SCALE
  5
5B
102
{ACAD_REACTORS
330
47
102
}
330
47
100
AcDbScale
 70
     0
300
1/32" = 1'-0"
140
0.03125
141
12.0
290
     0
  0
SCALE
  5
5C
102
{ACAD_REACTORS
330
47
102
}
330
47
100
AcDbScale
 70
     0
300
1/16" = 1'-0"
140
0.0625
141
12.0
290
     0
  0
SCALE
  5
5D
102
{ACAD_REACTORS
330
47
102
}
330
47
100
AcDbScale
 70
     0
300
3/32" = 1'-0"
140
0.09375
141
12.0
290
     0
  0
SCALE
  5
5E
102
{ACAD_REACTORS
330
47
102
}
330
47
100
AcDbScale
 70
     0
300
1/8" = 1'-0"
140
0.125
141
12.0
290
     0
  0
SCALE
  5
5F
102
{ACAD_REACTORS
330
47
102
}
330
47
100
AcDbScale
 70
     0
300
3/16" = 1'-0"
140
0.1875
141
12.0
290
     0
  0
SCALE
  5
60
102
{ACAD_REACTORS
330
47
102
}
330
47
100
AcDbScale
 70
     0
300
1/4" = 1'-0"
140
0.25
141
12.0
290
     0
  0
SCALE
  5
61
102
{ACAD_REACTORS
330
47
102
}
330
47
100
AcDbScale
 70
     0
300
3/8" = 1'-0"
140
0.375
141
12.0
290
     0
  0
SCALE
  5
62
102
{ACAD_REACTORS
330
47
102
}
330
47
100
AcDbScale
 70
     0
300
1/2" = 1'-0"
140
0.5
141
12.0
290
     0
  0
SCALE
  5
63
102
{ACAD_REACTORS
330
47
102
}
330
47
100
AcDbScale
 70
     0
300
3/4" = 1'-0"
140
0.75
141
12.0
290
     0
  0
SCALE
  5
64
102
{ACAD_REACTORS
330
47
102
}
330
47
100
AcDbScale
 70
     0
300
1" = 1'-0"
140
1.0
141
12.0
290
     0
  0
SCALE
  5
65
102
{ACAD_REACTORS
330
47
102
}
330
47
100
AcDbScale
 70
     0
300
1-1/2" = 1'-0"
140
1.5
141
12.0
290
     0
  0
SCALE
  5
66
102
{ACAD_REACTORS
330
47
102
}
330
47
100
AcDbScale
 70
     0
300
3" = 1'-0"
140
3.0
141
12.0
290
     0
  0
SCALE
  5
67
102
{ACAD_REACTORS
330
47
102
}
330
47
100
AcDbScale
 70
     0
300
6" = 1'-0"
140
6.0
141
12.0
290
     0
  0
SCALE
  5
68
102
{ACAD_REACTORS
330
47
102
}
330
47
100
AcDbScale
 70
     0
300
1'-0" = 1'-0"
140
12.0
141
12.0
290
     0
  0
ENDSEC
  0
EOF
