  0
SECTION
  2
HEADER
  9
$ACADVER
  1
AC1015
  9
$ACADMAINTVER
 70
     6
  9
$DWGCODEPAGE
  3
ANSI_1252
  9
$INSBASE
 10
0.0
 20
0.0
 30
0.0
  9
$EXTMIN
 10
0.0
 20
0.0
 30
0.0
  9
$EXTMAX
 10
113.400002
 20
10.4
 30
2.0
  9
$LIMMIN
 10
0.0
 20
0.0
  9
$LIMMAX
 10
420.0
 20
297.0
  9
$ORTHOMODE
 70
     0
  9
$REGENMODE
 70
     1
  9
$FILLMODE
 70
     1
  9
$QTEXTMODE
 70
     0
  9
$MIRRTEXT
 70
     1
  9
$LTSCALE
 40
1.0
  9
$ATTMODE
 70
     1
  9
$TEXTSIZE
 40
2.5
  9
$TRACEWID
 40
1.0
  9
$TEXTSTYLE
  7
Standard
  9
$CLAYER
  8
0
  9
$CELTYPE
  6
ByLayer
  9
$CECOLOR
 62
   256
  9
$CELTSCALE
 40
1.0
  9
$DISPSILH
 70
     0
  9
$DIMSCALE
 40
1.0
  9
$DIMASZ
 40
2.5
  9
$DIMEXO
 40
0.625
  9
$DIMDLI
 40
3.75
  9
$DIMRND
 40
0.0
  9
$DIMDLE
 40
0.0
  9
$DIMEXE
 40
1.25
  9
$DIMTP
 40
0.0
  9
$DIMTM
 40
0.0
  9
$DIMTXT
 40
2.5
  9
$DIMCEN
 40
2.5
  9
$DIMTSZ
 40
0.0
  9
$DIMTOL
 70
     0
  9
$DIMLIM
 70
     0
  9
$DIMTIH
 70
     0
  9
$DIMTOH
 70
     0
  9
$DIMSE1
 70
     0
  9
$DIMSE2
 70
     0
  9
$DIMTAD
 70
     1
  9
$DIMZIN
 70
     8
  9
$DIMBLK
  1

  9
$DIMASO
 70
     1
  9
$DIMSHO
 70
     1
  9
$DIMPOST
  1

  9
$DIMAPOST
  1

  9
$DIMALT
 70
     0
  9
$DIMALTD
 70
     3
  9
$DIMALTF
 40
0.03937
  9
$DIMLFAC
 40
1.0
  9
$DIMTOFL
 70
     1
  9
$DIMTVP
 40
0.0
  9
$DIMTIX
 70
     0
  9
$DIMSOXD
 70
     0
  9
$DIMSAH
 70
     0
  9
$DIMBLK1
  1

  9
$DIMBLK2
  1

  9
$DIMSTYLE
  2
STANDARD
  9
$DIMCLRD
 70
     0
  9
$DIMCLRE
 70
     0
  9
$DIMCLRT
 70
     0
  9
$DIMTFAC
 40
1.0
  9
$DIMGAP
 40
0.625
  9
$DIMJUST
 70
     0
  9
$DIMSD1
 70
     0
  9
$DIMSD2
 70
     0
  9
$DIMTOLJ
 70
     0
  9
$DIMTZIN
 70
     8
  9
$DIMALTZ
 70
     0
  9
$DIMALTTZ
 70
     0
  9
$DIMUPT
 70
     0
  9
$DIMDEC
 70
     2
  9
$DIMTDEC
 70
     2
  9
$DIMALTU
 70
     2
  9
$DIMALTTD
 70
     3
  9
$DIMTXSTY
  7
Standard
  9
$DIMAUNIT
 70
     0
  9
$DIMADEC
 70
     0
  9
$DIMALTRND
 40
0.0
  9
$DIMAZIN
 70
     0
  9
$DIMDSEP
 70
    44
  9
$DIMATFIT
 70
     0
  9
$DIMFRAC
 70
     0
  9
$DIMLDRBLK
  1

  9
$DIMLUNIT
 70
     2
  9
$DIMLWD
 70
    -2
  9
$DIMLWE
 70
    -2
  9
$DIMTMOVE
 70
     0
  9
$LUNITS
 70
     2
  9
$LUPREC
 70
     4
  9
$SKETCHINC
 40
1.0
  9
$FILLETRAD
 40
2.5
  9
$AUNITS
 70
     0
  9
$AUPREC
 70
     0
  9
$MENU
  1
.
  9
$ELEVATION
 40
0.0
  9
$PELEVATION
 40
0.0
  9
$THICKNESS
 40
0.0
  9
$LIMCHECK
 70
     0
  9
$CHAMFERA
 40
2.5
  9
$CHAMFERB
 40
2.5
  9
$CHAMFERC
 40
0.0
  9
$CHAMFERD
 40
0.0
  9
$SKPOLY
 70
     0
  9
$TDCREATE
 40
2447893.333333333
  9
$TDUCREATE
 40
0.0
  9
$TDUPDATE
 40
2459908.406766991
  9
$TDUUPDATE
 40
2459908.073433657
  9
$TDINDWG
 40
0.0
  9
$TDUSRTIMER
 40
0.0
  9
$USRTIMER
 70
     1
  9
$ANGBASE
 50
0.0
  9
$ANGDIR
 70
     0
  9
$PDMODE
 70
     0
  9
$PDSIZE
 40
0.0
  9
$PLINEWID
 40
0.0
  9
$SPLFRAME
 70
     0
  9
$SPLINETYPE
 70
     6
  9
$SPLINESEGS
 70
     8
  9
$HANDSEED
  5
22E
  9
$SURFTAB1
 70
     6
  9
$SURFTAB2
 70
     6
  9
$SURFTYPE
 70
     6
  9
$SURFU
 70
     6
  9
$SURFV
 70
     6
  9
$UCSBASE
  2

  9
$UCSNAME
  2

  9
$UCSORG
 10
0.0
 20
0.0
 30
0.0
  9
$UCSXDIR
 10
1.0
 20
0.0
 30
0.0
  9
$UCSYDIR
 10
0.0
 20
1.0
 30
0.0
  9
$UCSORTHOREF
  2

  9
$UCSORTHOVIEW
 70
     1
  9
$UCSORGTOP
 10
0.0
 20
0.0
 30
0.0
  9
$UCSORGBOTTOM
 10
0.0
 20
0.0
 30
0.0
  9
$UCSORGLEFT
 10
0.0
 20
0.0
 30
0.0
  9
$UCSORGRIGHT
 10
0.0
 20
0.0
 30
0.0
  9
$UCSORGFRONT
 10
0.0
 20
0.0
 30
0.0
  9
$UCSORGBACK
 10
0.0
 20
0.0
 30
0.0
  9
$PUCSBASE
  2

  9
$PUCSNAME
  2

  9
$PUCSORG
 10
0.0
 20
0.0
 30
0.0
  9
$PUCSXDIR
 10
1.0
 20
0.0
 30
0.0
  9
$PUCSYDIR
 10
0.0
 20
1.0
 30
0.0
  9
$PUCSORTHOREF
  2

  9
$PUCSORTHOVIEW
 70
     0
  9
$PUCSORGTOP
 10
0.0
 20
0.0
 30
0.0
  9
$PUCSORGBOTTOM
 10
0.0
 20
0.0
 30
0.0
  9
$PUCSORGLEFT
 10
0.0
 20
0.0
 30
0.0
  9
$PUCSORGRIGHT
 10
0.0
 20
0.0
 30
0.0
  9
$PUCSORGFRONT
 10
0.0
 20
0.0
 30
0.0
  9
$PUCSORGBACK
 10
0.0
 20
0.0
 30
0.0
  9
$USERI1
 70
     0
  9
$USERI2
 70
     0
  9
$USERI3
 70
     0
  9
$USERI4
 70
     0
  9
$USERI5
 70
     0
  9
$USERR1
 40
0.0
  9
$USERR2
 40
0.0
  9
$USERR3
 40
0.0
  9
$USERR4
 40
0.0
  9
$USERR5
 40
0.0
  9
$WORLDVIEW
 70
     1
  9
$SHADEDGE
 70
     3
  9
$SHADEDIF
 70
    70
  9
$TILEMODE
 70
     1
  9
$MAXACTVP
 70
    64
  9
$PINSBASE
 10
0.0
 20
0.0
 30
0.0
  9
$PLIMCHECK
 70
     0
  9
$PEXTMIN
 10
0.0
 20
0.0
 30
0.0
  9
$PEXTMAX
 10
113.400002
 20
10.4
 30
2.0
  9
$PLIMMIN
 10
0.0
 20
0.0
  9
$PLIMMAX
 10
420.0
 20
297.0
  9
$UNITMODE
 70
     0
  9
$VISRETAIN
 70
     0
  9
$PLINEGEN
 70
     0
  9
$PSLTSCALE
 70
     1
  9
$TREEDEPTH
 70
  3020
  9
$CMLSTYLE
  2
Standard
  9
$CMLJUST
 70
     0
  9
$CMLSCALE
 40
20.0
  9
$PROXYGRAPHICS
 70
     1
  9
$MEASUREMENT
 70
     1
  9
$CELWEIGHT
370
    -1
  9
$ENDCAPS
280
     0
  9
$JOINSTYLE
280
     0
  9
$LWDISPLAY
290
     0
  9
$INSUNITS
 70
     0
  9
$HYPERLINKBASE
  1

  9
$STYLESHEET
  1

  9
$XEDIT
290
     1
  9
$CEPSNTYPE
380
     0
  9
$PSTYLEMODE
290
     0
  9
$FINGERPRINTGUID
  2
{008FC49D-8FF9-4B82-90E8-1CDDC15790C6}
  9
$VERSIONGUID
  2
{FAEB1C32-E019-11D5-929B-00C0DF256EC4}
  9
$EXTNAMES
290
     1
  9
$PSVPSCALE
 40
0.0
  9
$OLESTARTUP
290
     0
  0
ENDSEC
  0
SECTION
  2
CLASSES
  0
CLASS
  1
ACDBDICTIONARYWDFLT
  2
AcDbDictionaryWithDefault
  3
ObjectDBX Classes
 90
        0
280
     0
281
     0
  0
CLASS
  1
VISUALSTYLE
  2
AcDbVisualStyle
  3
ObjectDBX Classes
 90
     4095
280
     0
281
     0
  0
CLASS
  1
MATERIAL
  2
AcDbMaterial
  3
ObjectDBX Classes
 90
     1153
280
     0
281
     0
  0
CLASS
  1
SCALE
  2
AcDbScale
  3
ObjectDBX Classes
 90
     1153
280
     0
281
     0
  0
CLASS
  1
TABLESTYLE
  2
AcDbTableStyle
  3
ObjectDBX Classes
 90
     4095
280
     0
281
     0
  0
CLASS
  1
MLEADERSTYLE
  2
AcDbMLeaderStyle
  3
ACDB_MLEADERSTYLE_CLASS
 90
     4095
280
     0
281
     0
  0
CLASS
  1
SUN
  2
AcDbSun
  3
SCENEOE
 90
     1153
280
     0
281
     0
  0
CLASS
  1
ACDBPLACEHOLDER
  2
AcDbPlaceHolder
  3
ObjectDBX Classes
 90
        0
280
     0
281
     0
  0
CLASS
  1
LAYOUT
  2
AcDbLayout
  3
ObjectDBX Classes
 90
        0
280
     0
281
     0
  0
ENDSEC
  0
SECTION
  2
TABLES
  0
TABLE
  2
VPORT
  5
8
330
0
100
AcDbSymbolTable
 70
     1
  0
VPORT
  5
29
330
8
100
AcDbSymbolTableRecord
100
AcDbViewportTableRecord
  2
*Active
 70
     0
 10
0.0
 20
0.0
 11
1.0
 21
1.0
 12
10.429907
 22
4.5
 13
0.0
 23
0.0
 14
0.5
 24
0.5
 15
0.5
 25
0.5
 16
0.0
 26
0.0
 36
1.0
 17
0.0
 27
0.0
 37
0.0
 40
9.0
 41
1.972973
 42
50.0
 43
0.0
 44
0.0
 50
0.0
 51
0.0
 71
     0
 72
   100
 73
     1
 74
     3
 75
     0
 76
     0
 77
     0
 78
     0
281
     0
 65
     1
110
0.0
120
0.0
130
0.0
111
1.0
121
0.0
131
0.0
112
0.0
122
1.0
132
0.0
 79
     0
146
0.0
  0
ENDTAB
  0
TABLE
  2
LTYPE
  5
5
330
0
100
AcDbSymbolTable
 70
     2
  0
LTYPE
  5
14
330
5
100
AcDbSymbolTableRecord
100
AcDbLinetypeTableRecord
  2
ByBlock
 70
     0
  3

 72
    65
 73
     0
 40
0.0
  0
LTYPE
  5
15
330
5
100
AcDbSymbolTableRecord
100
AcDbLinetypeTableRecord
  2
ByLayer
 70
     0
  3

 72
    65
 73
     0
 40
0.0
  0
LTYPE
  5
16
330
5
100
AcDbSymbolTableRecord
100
AcDbLinetypeTableRecord
  2
Continuous
 70
     0
  3
Solid line
 72
    65
 73
     0
 40
0.0
  0
LTYPE
  5
6F
330
5
100
AcDbSymbolTableRecord
100
AcDbLinetypeTableRecord
  2
DASHDOT
 70
     0
  3
 __ . __ . __ . __ . __ . __ . __ . 
 72
    65
 73
     4
 40
18.5
 49
12.0
 74
     0
 49
-3.0
 74
     0
 49
0.5
 74
     0
 49
-3.0
 74
     0
  0
ENDTAB
  0
TABLE
  2
LAYER
  5
2
330
0
100
AcDbSymbolTable
 70
     1
  0
LAYER
  5
10
330
2
100
AcDbSymbolTableRecord
100
AcDbLayerTableRecord
  2
0
 70
     0
 62
     7
  6
Continuous
370
    13
390
F
  0
ENDTAB
  0
TABLE
  2
STYLE
  5
3
330
0
100
AcDbSymbolTable
 70
     2
  0
STYLE
  5
11
330
3
100
AcDbSymbolTableRecord
100
AcDbTextStyleTableRecord
  2
Standard
 70
     0
 40
0.0
 41
1.0
 50
0.0
 71
     0
 42
2.5
  3
isocp.shx
  4

  0
STYLE
  5
6E
330
3
100
AcDbSymbolTableRecord
100
AcDbTextStyleTableRecord
  2
GDT
 70
     0
 40
0.0
 41
1.0
 50
0.0
 71
     0
 42
0.2
  3
gdt.shx
  4

  0
ENDTAB
  0
TABLE
  2
VIEW
  5
6
330
0
100
AcDbSymbolTable
 70
     0
  0
ENDTAB
  0
TABLE
  2
UCS
  5
7
330
0
100
AcDbSymbolTable
 70
     0
  0
ENDTAB
  0
TABLE
  2
APPID
  5
9
330
0
100
AcDbSymbolTable
 70
     1
  0
APPID
  5
12
330
9
100
AcDbSymbolTableRecord
100
AcDbRegAppTableRecord
  2
ACAD
 70
     0
  0
ENDTAB
  0
TABLE
  2
DIMSTYLE
  5
A
330
0
100
AcDbSymbolTable
 70
     1
100
AcDbDimStyleTable
  0
DIMSTYLE
105
27
330
A
100
AcDbSymbolTableRecord
100
AcDbDimStyleTableRecord
  2
STANDARD
 70
     0
 41
2.5
 42
0.625
 43
3.75
 44
1.25
 73
     0
 74
     0
 77
     1
 78
     8
140
2.5
141
2.5
143
0.03937
147
0.625
171
     3
172
     1
178
     0
271
     2
272
     2
274
     3
278
    44
283
     0
284
     8
289
     0
340
0
  0
ENDTAB
  0
TABLE
  2
BLOCK_RECORD
  5
1
330
0
100
AcDbSymbolTable
 70
     4
  0
BLOCK_RECORD
  5
1F
330
1
100
AcDbSymbolTableRecord
100
AcDbBlockTableRecord
  2
*Model_Space
340
22
  0
BLOCK_RECORD
  5
1B
330
1
100
AcDbSymbolTableRecord
100
AcDbBlockTableRecord
  2
*Paper_Space
340
1E
  0
BLOCK_RECORD
  5
23
330
1
100
AcDbSymbolTableRecord
100
AcDbBlockTableRecord
  2
*Paper_Space0
340
26
  0
BLOCK_RECORD
  5
70
330
1
100
AcDbSymbolTableRecord
100
AcDbBlockTableRecord
  2
BLOCK1
340
0
102
{BLKREFS
331
22B
102
}
  0
BLOCK_RECORD
  5
73
330
1
100
AcDbSymbolTableRecord
100
AcDbBlockTableRecord
  2
BLOCK2
340
0
102
{BLKREFS
331
22C
102
}
  0
BLOCK_RECORD
  5
76
330
1
100
AcDbSymbolTableRecord
100
AcDbBlockTableRecord
  2
BLOCK3
340
0
102
{BLKREFS
331
22D
102
}
  0
ENDTAB
  0
ENDSEC
  0
SECTION
  2
BLOCKS
  0
BLOCK
  5
20
330
1F
100
AcDbEntity
  8
0
100
AcDbBlockBegin
  2
*Model_Space
 70
     0
 10
0.0
 20
0.0
 30
0.0
  3
*Model_Space
  1

  0
ENDBLK
  5
21
330
1F
100
AcDbEntity
  8
0
100
AcDbBlockEnd
  0
BLOCK
  5
1C
330
1B
100
AcDbEntity
 67
     1
  8
0
100
AcDbBlockBegin
  2
*Paper_Space
 70
     0
 10
0.0
 20
0.0
 30
0.0
  3
*Paper_Space
  1

  0
ENDBLK
  5
1D
330
1B
100
AcDbEntity
 67
     1
  8
0
100
AcDbBlockEnd
  0
BLOCK
  5
24
330
23
100
AcDbEntity
  8
0
100
AcDbBlockBegin
  2
*Paper_Space0
 70
     0
 10
0.0
 20
0.0
 30
0.0
  3
*Paper_Space0
  1

  0
ENDBLK
  5
25
330
23
100
AcDbEntity
  8
0
100
AcDbBlockEnd
  0
BLOCK
  5
71
330
70
100
AcDbEntity
  8
0
100
AcDbBlockBegin
  2
BLOCK1
 70
     0
 10
0.0
 20
0.0
 30
0.0
  3
BLOCK1
  1

  0
LINE
  5
79
330
70
100
AcDbEntity
  8
0
  6
DASHDOT
 62
     7
370
    13
100
AcDbLine
 10
-199.100006
 20
0.0
 30
0.0
 11
-219.899994
 21
0.0
 31
0.0
  0
LINE
  5
7A
330
70
100
AcDbEntity
  8
0
  6
DASHDOT
 62
     7
370
    13
100
AcDbLine
 10
-209.5
 20
10.4
 30
0.0
 11
-209.5
 21
-10.4
 31
0.0
  0
ENDBLK
  5
72
330
70
100
AcDbEntity
  8
0
100
AcDbBlockEnd
  0
BLOCK
  5
74
330
73
100
AcDbEntity
  8
0
100
AcDbBlockBegin
  2
BLOCK2
 70
     0
 10
0.0
 20
0.0
 30
0.0
  3
BLOCK2
  1

  0
LINE
  5
7B
330
73
100
AcDbEntity
  8
0
  6
DASHDOT
 62
     7
370
    13
100
AcDbLine
 10
-165.100006
 20
0.0
 30
0.0
 11
-185.899994
 21
0.0
 31
0.0
  0
LINE
  5
7C
330
73
100
AcDbEntity
  8
0
  6
DASHDOT
 62
     7
370
    13
100
AcDbLine
 10
-175.5
 20
10.4
 30
0.0
 11
-175.5
 21
-10.4
 31
0.0
  0
ENDBLK
  5
75
330
73
100
AcDbEntity
  8
0
100
AcDbBlockEnd
  0
BLOCK
  5
77
330
76
100
AcDbEntity
  8
0
100
AcDbBlockBegin
  2
BLOCK3
 70
     0
 10
0.0
 20
0.0
 30
0.0
  3
BLOCK3
  1

  0
ARC
  5
7D
330
76
100
AcDbEntity
  8
0
 62
     7
370
    35
100
AcDbCircle
 10
40.5
 20
23.5
 30
0.0
 40
1.0
100
AcDbArc
 50
180.0
 51
270.0
  0
ARC
  5
7E
330
76
100
AcDbEntity
  8
0
 62
     7
370
    35
100
AcDbCircle
 10
40.5
 20
-23.5
 30
0.0
 40
1.0
100
AcDbArc
 50
90.0
 51
180.0
  0
LINE
  5
7F
330
76
100
AcDbEntity
  8
0
 62
     7
370
    13
100
AcDbLine
 10
40.5
 20
-22.5
 30
0.0
 11
40.5
 21
22.5
 31
0.0
  0
LINE
  5
80
330
76
100
AcDbEntity
  8
0
 62
     7
370
    35
100
AcDbLine
 10
39.5
 20
-26.5
 30
0.0
 11
39.5
 21
26.5
 31
0.0
  0
LINE
  5
81
330
76
100
AcDbEntity
  8
0
 62
     7
370
    35
100
AcDbLine
 10
38.5
 20
-27.5
 30
0.0
 11
39.5
 21
-26.5
 31
0.0
  0
LINE
  5
82
330
76
100
AcDbEntity
  8
0
 62
     7
370
    35
100
AcDbLine
 10
38.5
 20
27.5
 30
0.0
 11
39.5
 21
26.5
 31
0.0
  0
LINE
  5
83
330
76
100
AcDbEntity
  8
0
 62
     7
370
    35
100
AcDbLine
 10
38.5
 20
-27.5
 30
0.0
 11
38.5
 21
27.5
 31
0.0
  0
LINE
  5
84
330
76
100
AcDbEntity
  8
0
 62
     7
370
    35
100
AcDbLine
 10
38.5
 20
-27.5
 30
0.0
 11
33.5
 21
-27.5
 31
0.0
  0
LINE
  5
85
330
76
100
AcDbEntity
  8
0
 62
     7
370
    35
100
AcDbLine
 10
38.5
 20
27.5
 30
0.0
 11
33.5
 21
27.5
 31
0.0
  0
LINE
  5
86
330
76
100
AcDbEntity
  8
0
 62
     7
370
    35
100
AcDbLine
 10
33.5
 20
-27.5
 30
0.0
 11
33.5
 21
27.5
 31
0.0
  0
LINE
  5
87
330
76
100
AcDbEntity
  8
0
 62
     7
370
    35
100
AcDbLine
 10
32.5
 20
-26.5
 30
0.0
 11
33.5
 21
-27.5
 31
0.0
  0
LINE
  5
88
330
76
100
AcDbEntity
  8
0
 62
     7
370
    35
100
AcDbLine
 10
32.5
 20
26.5
 30
0.0
 11
33.5
 21
27.5
 31
0.0
  0
LINE
  5
89
330
76
100
AcDbEntity
  8
0
 62
     7
370
    35
100
AcDbLine
 10
32.5
 20
-26.5
 30
0.0
 11
32.5
 21
26.5
 31
0.0
  0
LINE
  5
8A
330
76
100
AcDbEntity
  8
0
 62
     7
370
    35
100
AcDbLine
 10
31.5
 20
24.0
 30
0.0
 11
32.5
 21
25.0
 31
0.0
  0
LINE
  5
8B
330
76
100
AcDbEntity
  8
0
 62
     7
370
    35
100
AcDbLine
 10
31.5
 20
-24.0
 30
0.0
 11
32.5
 21
-25.0
 31
0.0
  0
LINE
  5
8C
330
76
100
AcDbEntity
  8
0
 62
     7
370
    35
100
AcDbLine
 10
31.5
 20
-24.0
 30
0.0
 11
31.5
 21
24.0
 31
0.0
  0
LINE
  5
8D
330
76
100
AcDbEntity
  8
0
 62
     7
370
    35
100
AcDbLine
 10
31.5
 20
-24.0
 30
0.0
 11
30.5
 21
-24.0
 31
0.0
  0
LINE
  5
8E
330
76
100
AcDbEntity
  8
0
 62
     7
370
    35
100
AcDbLine
 10
31.5
 20
24.0
 30
0.0
 11
30.5
 21
24.0
 31
0.0
  0
LINE
  5
8F
330
76
100
AcDbEntity
  8
0
 62
     7
370
    35
100
AcDbLine
 10
30.5
 20
-24.0
 30
0.0
 11
30.5
 21
24.0
 31
0.0
  0
LINE
  5
90
330
76
100
AcDbEntity
  8
0
 62
     7
370
    35
100
AcDbLine
 10
29.5
 20
25.0
 30
0.0
 11
30.5
 21
24.0
 31
0.0
  0
LINE
  5
91
330
76
100
AcDbEntity
  8
0
 62
     7
370
    35
100
AcDbLine
 10
29.5
 20
-25.0
 30
0.0
 11
30.5
 21
-24.0
 31
0.0
  0
LINE
  5
92
330
76
100
AcDbEntity
  8
0
 62
     7
370
    35
100
AcDbLine
 10
29.5
 20
26.52166
 30
0.0
 11
29.5
 21
26.589224
 31
0.0
  0
LINE
  5
93
330
76
100
AcDbEntity
  8
0
 62
     7
370
    35
100
AcDbLine
 10
29.5
 20
26.521727
 30
0.0
 11
29.5
 21
26.199371
 31
0.0
  0
LINE
  5
94
330
76
100
AcDbEntity
  8
0
 62
     7
370
    35
100
AcDbLine
 10
29.5
 20
25.755098
 30
0.0
 11
29.5
 21
26.199313
 31
0.0
  0
LINE
  5
95
330
76
100
AcDbEntity
  8
0
 62
     7
370
    35
100
AcDbLine
 10
29.5
 20
25.755238
 30
0.0
 11
29.5
 21
24.967393
 31
0.0
  0
LINE
  5
96
330
76
100
AcDbEntity
  8
0
 62
     7
370
    35
100
AcDbLine
 10
29.5
 20
24.160044
 30
0.0
 11
29.5
 21
24.967335
 31
0.0
  0
LINE
  5
97
330
76
100
AcDbEntity
  8
0
 62
     7
370
    35
100
AcDbLine
 10
29.5
 20
24.160955
 30
0.0
 11
29.5
 21
22.932943
 31
0.0
  0
LINE
  5
98
330
76
100
AcDbEntity
  8
0
 62
     7
370
    35
100
AcDbLine
 10
29.5
 20
21.790074
 30
0.0
 11
29.5
 21
22.932886
 31
0.0
  0
LINE
  5
99
330
76
100
AcDbEntity
  8
0
 62
     7
370
    35
100
AcDbLine
 10
29.5
 20
21.790119
 30
0.0
 11
29.5
 21
20.161408
 31
0.0
  0
LINE
  5
9A
330
76
100
AcDbEntity
  8
0
 62
     7
370
    35
100
AcDbLine
 10
29.5
 20
18.718899
 30
0.0
 11
29.5
 21
20.161355
 31
0.0
  0
LINE
  5
9B
330
76
100
AcDbEntity
  8
0
 62
     7
370
    35
100
AcDbLine
 10
29.5
 20
18.71893
 30
0.0
 11
29.5
 21
16.74187
 31
0.0
  0
LINE
  5
9C
330
76
100
AcDbEntity
  8
0
 62
     7
370
    35
100
AcDbLine
 10
29.5
 20
15.101421
 30
0.0
 11
29.5
 21
16.741822
 31
0.0
  0
LINE
  5
9D
330
76
100
AcDbEntity
  8
0
 62
     7
370
    35
100
AcDbLine
 10
29.5
 20
15.046095
 30
0.0
 11
29.5
 21
15.101421
 31
0.0
  0
LINE
  5
9E
330
76
100
AcDbEntity
  8
0
 62
     7
370
    35
100
AcDbLine
 10
29.5
 20
15.0461
 30
0.0
 11
29.5
 21
12.784234
 31
0.0
  0
LINE
  5
9F
330
76
100
AcDbEntity
  8
0
 62
     7
370
    35
100
AcDbLine
 10
29.5
 20
11.274287
 30
0.0
 11
29.5
 21
12.784192
 31
0.0
  0
LINE
  5
A0
330
76
100
AcDbEntity
  8
0
 62
     7
370
    35
100
AcDbLine
 10
29.5
 20
11.191656
 30
0.0
 11
29.5
 21
11.274287
 31
0.0
  0
LINE
  5
A1
330
76
100
AcDbEntity
  8
0
 62
     7
370
    35
100
AcDbLine
 10
29.5
 20
11.108874
 30
0.0
 11
29.5
 21
11.191656
 31
0.0
  0
LINE
  5
A2
330
76
100
AcDbEntity
  8
0
 62
     7
370
    35
100
AcDbLine
 10
29.5
 20
10.889295
 30
0.0
 11
29.5
 21
11.108874
 31
0.0
  0
LINE
  5
A3
330
76
100
AcDbEntity
  8
0
 62
     7
370
    35
100
AcDbLine
 10
29.5
 20
10.889676
 30
0.0
 11
29.5
 21
8.415702
 31
0.0
  0
LINE
  5
A4
330
76
100
AcDbEntity
  8
0
 62
     7
370
    35
100
AcDbLine
 10
29.5
 20
7.084788
 30
0.0
 11
29.5
 21
8.415668
 31
0.0
  0
LINE
  5
A5
330
76
100
AcDbEntity
  8
0
 62
     7
370
    35
100
AcDbLine
 10
29.5
 20
6.996109
 30
0.0
 11
29.5
 21
7.084788
 31
0.0
  0
LINE
  5
A6
330
76
100
AcDbEntity
  8
0
 62
     7
370
    35
100
AcDbLine
 10
29.5
 20
6.907336
 30
0.0
 11
29.5
 21
6.996109
 31
0.0
  0
LINE
  5
A7
330
76
100
AcDbEntity
  8
0
 62
     7
370
    35
100
AcDbLine
 10
29.5
 20
6.383249
 30
0.0
 11
29.5
 21
6.396072
 31
0.0
  0
LINE
  5
A8
330
76
100
AcDbEntity
  8
0
 62
     7
370
    35
100
AcDbLine
 10
29.5
 20
6.396371
 30
0.0
 11
29.5
 21
6.907336
 31
0.0
  0
LINE
  5
A9
330
76
100
AcDbEntity
  8
0
 62
     7
370
    35
100
AcDbLine
 10
29.5
 20
6.383248
 30
0.0
 11
29.5
 21
3.776683
 31
0.0
  0
LINE
  5
AA
330
76
100
AcDbEntity
  8
0
 62
     7
370
    35
100
AcDbLine
 10
29.5
 20
2.667578
 30
0.0
 11
29.5
 21
3.776658
 31
0.0
  0
LINE
  5
AB
330
76
100
AcDbEntity
  8
0
 62
     7
370
    35
100
AcDbLine
 10
29.5
 20
2.575701
 30
0.0
 11
29.5
 21
2.667578
 31
0.0
  0
LINE
  5
AC
330
76
100
AcDbEntity
  8
0
 62
     7
370
    35
100
AcDbLine
 10
29.5
 20
2.48379
 30
0.0
 11
29.5
 21
2.575701
 31
0.0
  0
LINE
  5
AD
330
76
100
AcDbEntity
  8
0
 62
     7
370
    35
100
AcDbLine
 10
29.5
 20
1.671661
 30
0.0
 11
29.5
 21
2.48379
 31
0.0
  0
LINE
  5
AE
330
76
100
AcDbEntity
  8
0
 62
     7
370
    35
100
AcDbLine
 10
29.5
 20
1.671658
 30
0.0
 11
29.5
 21
-0.983722
 31
0.0
  0
LINE
  5
AF
330
76
100
AcDbEntity
  8
0
 62
     7
370
    35
100
AcDbLine
 10
29.5
 20
-1.83537
 30
0.0
 11
29.5
 21
-0.983719
 31
0.0
  0
LINE
  5
B0
330
76
100
AcDbEntity
  8
0
 62
     7
370
    35
100
AcDbLine
 10
29.5
 20
-1.927492
 30
0.0
 11
29.5
 21
-1.83537
 31
0.0
  0
LINE
  5
B1
330
76
100
AcDbEntity
  8
0
 62
     7
370
    35
100
AcDbLine
 10
29.5
 20
-2.019587
 30
0.0
 11
29.5
 21
-1.927492
 31
0.0
  0
LINE
  5
B2
330
76
100
AcDbEntity
  8
0
 62
     7
370
    35
100
AcDbLine
 10
29.5
 20
-3.093656
 30
0.0
 11
29.5
 21
-2.019587
 31
0.0
  0
LINE
  5
B3
330
76
100
AcDbEntity
  8
0
 62
     7
370
    35
100
AcDbLine
 10
29.5
 20
-3.093661
 30
0.0
 11
29.5
 21
-5.712509
 31
0.0
  0
LINE
  5
B4
330
76
100
AcDbEntity
  8
0
 62
     7
370
    35
100
AcDbLine
 10
29.5
 20
-6.279328
 30
0.0
 11
29.5
 21
-5.735958
 31
0.0
  0
LINE
  5
B5
330
76
100
AcDbEntity
  8
0
 62
     7
370
    35
100
AcDbLine
 10
29.5
 20
-5.738865
 30
0.0
 11
29.5
 21
-5.712514
 31
0.0
  0
LINE
  5
B6
330
76
100
AcDbEntity
  8
0
 62
     7
370
    35
100
AcDbLine
 10
29.5
 20
-6.368734
 30
0.0
 11
29.5
 21
-6.279328
 31
0.0
  0
LINE
  5
B7
330
76
100
AcDbEntity
  8
0
 62
     7
370
    35
100
AcDbLine
 10
29.5
 20
-6.458053
 30
0.0
 11
29.5
 21
-6.368734
 31
0.0
  0
LINE
  5
B8
330
76
100
AcDbEntity
  8
0
 62
     7
370
    35
100
AcDbLine
 10
29.5
 20
-7.75954
 30
0.0
 11
29.5
 21
-6.458053
 31
0.0
  0
LINE
  5
B9
330
76
100
AcDbEntity
  8
0
 62
     7
370
    35
100
AcDbLine
 10
29.5
 20
-7.759547
 30
0.0
 11
29.5
 21
-10.257692
 31
0.0
  0
LINE
  5
BA
330
76
100
AcDbEntity
  8
0
 62
     7
370
    35
100
AcDbLine
 10
29.5
 20
-10.521463
 30
0.0
 11
29.5
 21
-10.224916
 31
0.0
  0
LINE
  5
BB
330
76
100
AcDbEntity
  8
0
 62
     7
370
    35
100
AcDbLine
 10
29.5
 20
-10.605279
 30
0.0
 11
29.5
 21
-10.521463
 31
0.0
  0
LINE
  5
BC
330
76
100
AcDbEntity
  8
0
 62
     7
370
    35
100
AcDbLine
 10
29.5
 20
-10.688952
 30
0.0
 11
29.5
 21
-10.605279
 31
0.0
  0
LINE
  5
BD
330
76
100
AcDbEntity
  8
0
 62
     7
370
    35
100
AcDbLine
 10
29.5
 20
-12.176026
 30
0.0
 11
29.5
 21
-10.688952
 31
0.0
  0
LINE
  5
BE
330
76
100
AcDbEntity
  8
0
 62
     7
370
    35
100
AcDbLine
 10
29.5
 20
-12.176035
 30
0.0
 11
29.5
 21
-14.473184
 31
0.0
  0
LINE
  5
BF
330
76
100
AcDbEntity
  8
0
 62
     7
370
    35
100
AcDbLine
 10
29.5
 20
-14.500962
 30
0.0
 11
29.5
 21
-14.473169
 31
0.0
  0
LINE
  5
C0
330
76
100
AcDbEntity
  8
0
 62
     7
370
    35
100
AcDbLine
 10
29.5
 20
-14.576299
 30
0.0
 11
29.5
 21
-14.500962
 31
0.0
  0
LINE
  5
C1
330
76
100
AcDbEntity
  8
0
 62
     7
370
    35
100
AcDbLine
 10
29.5
 20
-16.201165
 30
0.0
 11
29.5
 21
-14.576299
 31
0.0
  0
LINE
  5
C2
330
76
100
AcDbEntity
  8
0
 62
     7
370
    35
100
AcDbLine
 10
29.5
 20
-16.201175
 30
0.0
 11
29.5
 21
-18.223496
 31
0.0
  0
LINE
  5
C3
330
76
100
AcDbEntity
  8
0
 62
     7
370
    35
100
AcDbLine
 10
29.5
 20
-19.705585
 30
0.0
 11
29.5
 21
-18.156386
 31
0.0
  0
LINE
  5
C4
330
76
100
AcDbEntity
  8
0
 62
     7
370
    35
100
AcDbLine
 10
29.5
 20
-19.705596
 30
0.0
 11
29.5
 21
-21.388089
 31
0.0
  0
LINE
  5
C5
330
76
100
AcDbEntity
  8
0
 62
     7
370
    35
100
AcDbLine
 10
29.5
 20
-22.576651
 30
0.0
 11
29.5
 21
-21.337481
 31
0.0
  0
LINE
  5
C6
330
76
100
AcDbEntity
  8
0
 62
     7
370
    35
100
AcDbLine
 10
29.5
 20
-22.576663
 30
0.0
 11
29.5
 21
-23.865252
 31
0.0
  0
LINE
  5
C7
330
76
100
AcDbEntity
  8
0
 62
     7
370
    35
100
AcDbLine
 10
29.5
 20
-24.722085
 30
0.0
 11
29.5
 21
-23.864499
 31
0.0
  0
LINE
  5
C8
330
76
100
AcDbEntity
  8
0
 62
     7
370
    35
100
AcDbLine
 10
29.5
 20
-24.722097
 30
0.0
 11
29.5
 21
-25.575367
 31
0.0
  0
LINE
  5
C9
330
76
100
AcDbEntity
  8
0
 62
     7
370
    35
100
AcDbLine
 10
29.5
 20
-26.072931
 30
0.0
 11
29.5
 21
-25.575112
 31
0.0
  0
LINE
  5
CA
330
76
100
AcDbEntity
  8
0
 62
     7
370
    35
100
AcDbLine
 10
29.5
 20
-26.072943
 30
0.0
 11
29.5
 21
-26.463467
 31
0.0
  0
LINE
  5
CB
330
76
100
AcDbEntity
  8
0
 62
     7
370
    35
100
AcDbLine
 10
29.5
 20
-26.585771
 30
0.0
 11
29.5
 21
-26.463371
 31
0.0
  0
LINE
  5
CC
330
76
100
AcDbEntity
  8
0
 62
     7
370
    35
100
AcDbLine
 10
29.5
 20
-26.585783
 30
0.0
 11
29.5
 21
-26.590104
 31
0.0
  0
ARC
  5
CD
330
76
100
AcDbEntity
  8
0
 62
     7
370
    35
100
AcDbCircle
 10
-30.854263
 20
-353.871576
 30
0.0
 40
382.4832539009576
100
AcDbArc
 50
88.890748
 51
89.494304
  0
ARC
  5
CE
330
76
100
AcDbEntity
  8
0
 62
     7
370
    35
100
AcDbCircle
 10
63.91455
 20
-65.13254
 30
0.0
 40
130.9117292311117
100
AcDbArc
 50
134.27696
 51
135.036063
  0
LINE
  5
CF
330
76
100
AcDbEntity
  8
0
 62
     7
370
    35
100
AcDbLine
 10
-28.712312
 20
27.377792
 30
0.0
 11
-29.5
 21
26.585782
 31
0.0
  0
LINE
  5
D0
330
76
100
AcDbEntity
  8
0
 62
     7
370
    35
100
AcDbLine
 10
-29.5
 20
26.585771
 30
0.0
 11
-29.5
 21
26.463159
 31
0.0
  0
ARC
  5
D1
330
76
100
AcDbEntity
  8
0
 62
     7
370
    35
100
AcDbCircle
 10
146.377551
 20
-151.29432
 30
0.0
 40
250.0614816353323
100
AcDbArc
 50
134.047394
 51
134.695369
  0
ARC
  5
D2
330
76
100
AcDbEntity
  8
0
 62
     7
370
    35
100
AcDbCircle
 10
-16.066401
 20
-354.340905
 30
0.0
 40
382.952089234984
100
AcDbArc
 50
89.999248
 51
91.707679
  0
ARC
  5
D3
330
76
100
AcDbEntity
  8
0
 62
     7
370
    35
100
AcDbCircle
 10
-12.075263
 20
-354.108061
 30
0.0
 40
382.719265628465
100
AcDbArc
 50
88.894477
 51
90.001398
  0
ARC
  5
D4
330
76
100
AcDbEntity
  8
0
 62
     7
370
    35
100
AcDbCircle
 10
-12.068165
 20
-355.361518
 30
0.0
 40
383.9727403499253
100
AcDbArc
 50
90.002452
 51
92.30012
  0
ARC
  5
D5
330
76
100
AcDbEntity
  8
0
 62
     7
370
    35
100
AcDbCircle
 10
-364.883628
 20
332.145113
 30
0.0
 40
454.051256465151
100
AcDbArc
 50
317.616322
 51
317.996035
  0
LINE
  5
D6
330
76
100
AcDbEntity
  8
0
 62
     7
370
    35
100
AcDbLine
 10
-29.5
 20
26.072856
 30
0.0
 11
-29.5
 21
25.575101
 31
0.0
  0
ARC
  5
D7
330
76
100
AcDbEntity
  8
0
 62
     7
370
    35
100
AcDbCircle
 10
31.320738
 20
-38.798098
 30
0.0
 40
88.56137024372754
100
AcDbArc
 50
131.600834
 51
133.374521
  0
ARC
  5
D8
330
76
100
AcDbEntity
  8
0
 62
     7
370
    35
100
AcDbCircle
 10
2.88886
 20
-360.44628
 30
0.0
 40
389.0597032007256
100
AcDbArc
 50
90.425439
 51
94.476659
  0
ARC
  5
D9
330
76
100
AcDbEntity
  8
0
 62
     7
370
    35
100
AcDbCircle
 10
2.688622
 20
-351.427017
 30
0.0
 40
380.0386137907017
100
AcDbArc
 50
89.997893
 51
90.405348
  0
ARC
  5
DA
330
76
100
AcDbEntity
  8
0
 62
     7
370
    35
100
AcDbCircle
 10
6.656614
 20
-354.472941
 30
0.0
 40
383.0843621747288
100
AcDbArc
 50
88.890613
 51
89.996582
  0
ARC
  5
DB
330
76
100
AcDbEntity
  8
0
 62
     7
370
    35
100
AcDbCircle
 10
6.65791
 20
-352.48804
 30
0.0
 40
381.0994548004334
100
AcDbArc
 50
89.996759
 51
91.001024
  0
ARC
  5
DC
330
76
100
AcDbEntity
  8
0
 62
     7
370
    35
100
AcDbCircle
 10
7.024412
 20
-363.656675
 30
0.0
 40
392.2735731701283
100
AcDbArc
 50
91.026048
 51
95.04603
  0
ARC
  5
DD
330
76
100
AcDbEntity
  8
0
 62
     7
370
    35
100
AcDbCircle
 10
-118.085587
 20
102.120098
 30
0.0
 40
117.6348254165022
100
AcDbArc
 50
318.855999
 51
320.375222
  0
LINE
  5
DE
330
76
100
AcDbEntity
  8
0
 62
     7
370
    35
100
AcDbLine
 10
-29.5
 20
24.722004
 30
0.0
 11
-29.5
 21
23.86424
 31
0.0
  0
ARC
  5
DF
330
76
100
AcDbEntity
  8
0
 62
     7
370
    35
100
AcDbCircle
 10
2.629849
 20
-13.059704
 30
0.0
 40
48.94680536156787
100
AcDbArc
 50
127.960799
 51
131.02783
  0
SPLINE
  5
E0
330
76
100
AcDbEntity
  8
0
 62
     7
370
    35
100
AcDbSpline
210
0.0
220
0.0
230
1.0
 70
     8
 71
     5
 72
    12
 73
     6
 74
     0
 42
0.000000001
 43
0.0
 40
0.0
 40
0.0
 40
0.0
 40
0.0
 40
0.0
 40
0.0
 40
39.55139790023902
 40
39.55139790023902
 40
39.55139790023902
 40
39.55139790023902
 40
39.55139790023902
 40
39.55139790023902
 10
0.0000000000000782
 20
28.01035934106005
 30
0.0
 10
-5.502359222731579
 20
27.70320705460075
 30
0.0
 10
-11.00208047322199
 20
27.29853442967958
 30
0.0
 10
-16.50065574322206
 20
26.79929640449134
 30
0.0
 10
-21.99217433198487
 20
26.2092705882105
 30
0.0
 10
-27.47845147054194
 20
25.53160031471354
 30
0.0
  0
ARC
  5
E1
330
76
100
AcDbEntity
  8
0
 62
     7
370
    35
100
AcDbCircle
 10
21.519741
 20
-356.789816
 30
0.0
 40
385.4013074362053
100
AcDbArc
 50
90.007917
 51
93.200901
  0
LINE
  5
E2
330
76
100
AcDbEntity
  8
0
 62
     7
370
    35
100
AcDbLine
 10
27.478482
 20
28.606199
 30
0.0
 11
29.5
 21
26.589279
 31
0.0
  0
ARC
  5
E3
330
76
100
AcDbEntity
  8
0
 62
     7
370
    35
100
AcDbCircle
 10
25.460329
 20
-352.087303
 30
0.0
 40
380.6988512246723
100
AcDbArc
 50
89.696263
 51
90.002557
  0
ARC
  5
E4
330
76
100
AcDbEntity
  8
0
 62
     7
370
    35
100
AcDbCircle
 10
25.53451
 20
-358.034072
 30
0.0
 40
386.645954571765
100
AcDbArc
 50
90.01351
 51
93.786627
  0
SPLINE
  5
E5
330
76
100
AcDbEntity
  8
0
 62
     7
370
    35
100
AcDbSpline
210
0.0
220
0.0
230
1.0
 70
     8
 71
     5
 72
    12
 73
     6
 74
     0
 42
0.000000001
 43
0.0
 40
0.0
 40
0.0
 40
0.0
 40
0.0
 40
0.0
 40
0.0
 40
48.8495172193804
 40
48.8495172193804
 40
48.8495172193804
 40
48.8495172193804
 40
48.8495172193804
 40
48.8495172193804
 10
-27.47848472955149
 20
25.02193645420652
 30
0.0
 10
-21.98940733167676
 20
25.75060629977866
 30
0.0
 10
-16.49671825139729
 20
26.39348715937143
 30
0.0
 10
-10.99920037719666
 20
26.94633044964728
 30
0.0
 10
-5.500603479006395
 20
27.4052234687158
 30
0.0
 10
-0.0000000000000053
 20
27.76813829828489
 30
0.0
  0
ARC
  5
E6
330
76
100
AcDbEntity
  8
0
 62
     7
370
    35
100
AcDbCircle
 10
-83.09184
 20
68.90725
 30
0.0
 40
70.84269308459312
100
AcDbArc
 50
319.156303
 51
321.722494
  0
LINE
  5
E7
330
76
100
AcDbEntity
  8
0
 62
     7
370
    35
100
AcDbLine
 10
-29.5
 20
22.576566
 30
0.0
 11
-29.5
 21
21.388041
 31
0.0
  0
ARC
  5
E8
330
76
100
AcDbEntity
  8
0
 62
     7
370
    35
100
AcDbCircle
 10
-28.888268
 20
-34.30557
 30
0.0
 40
84.31552148759677
100
AcDbArc
 50
46.172051
 51
48.046791
  0
ARC
  5
E9
330
76
100
AcDbEntity
  8
0
 62
     7
370
    35
100
AcDbCircle
 10
-10.672236
 20
-3.137213
 30
0.0
 40
30.91897891607521
100
AcDbArc
 50
122.925986
 51
127.513042
  0
SPLINE
  5
EA
330
76
100
AcDbEntity
  8
0
 62
     7
370
    35
100
AcDbSpline
210
0.0
220
0.0
230
1.0
 70
     8
 71
     5
 72
    12
 73
     6
 74
     0
 42
0.000000001
 43
0.0
 40
0.0
 40
0.0
 40
0.0
 40
0.0
 40
0.0
 40
0.0
 40
39.64694378573321
 40
39.64694378573321
 40
39.64694378573321
 40
39.64694378573321
 40
39.64694378573321
 40
39.64694378573321
 10
0.0000000000000693
 20
26.5183562919726
 30
0.0
 10
-5.505742159475512
 20
25.95251461144452
 30
0.0
 10
-11.00689715783665
 20
25.29456541875826
 30
0.0
 10
-16.50482458738805
 20
24.54897697646449
 30
0.0
 10
-21.99474873200216
 20
23.72112437397789
 30
0.0
 10
-27.47845147054893
 20
22.81547606221112
 30
0.0
  0
ARC
  5
EB
330
76
100
AcDbEntity
  8
0
 62
     7
370
    35
100
AcDbCircle
 10
40.968211
 20
-370.010526
 30
0.0
 40
398.6386917684816
100
AcDbArc
 50
91.939239
 51
95.898704
  0
LINE
  5
EC
330
76
100
AcDbEntity
  8
0
 62
     7
370
    35
100
AcDbLine
 10
27.478454
 20
28.245976
 30
0.0
 11
27.478454
 21
28.398979
 31
0.0
  0
ARC
  5
ED
330
76
100
AcDbEntity
  8
0
 62
     7
370
    35
100
AcDbCircle
 10
161.721912
 20
158.798025
 30
0.0
 40
187.2567388399749
100
AcDbArc
 50
224.201325
 51
225.081508
  0
SPLINE
  5
EE
330
76
100
AcDbEntity
  8
0
 62
     7
370
    35
100
AcDbSpline
210
0.0
220
0.0
230
1.0
 70
     8
 71
     5
 72
    12
 73
     6
 74
     0
 42
0.000000001
 43
0.0
 40
0.0
 40
0.0
 40
0.0
 40
0.0
 40
0.0
 40
0.0
 40
39.53249428688588
 40
39.53249428688588
 40
39.53249428688588
 40
39.53249428688588
 40
39.53249428688588
 40
39.53249428688588
 10
-0.0000000000000284
 20
26.09053617040468
 30
0.0
 10
5.487124562360387
 20
26.70700816220803
 30
0.0
 10
10.97914461405938
 20
27.23355972180833
 30
0.0
 10
16.47786158743126
 20
27.66755392383558
 30
0.0
 10
21.97713159470917
 20
28.00581866744466
 30
0.0
 10
27.47848196287269
 20
28.2459518727116
 30
0.0
  0
SPLINE
  5
EF
330
76
100
AcDbEntity
  8
0
 62
     7
370
    35
100
AcDbSpline
210
0.0
220
0.0
230
1.0
 70
     8
 71
     5
 72
    12
 73
     6
 74
     0
 42
0.000000001
 43
0.0
 40
0.0
 40
0.0
 40
0.0
 40
0.0
 40
0.0
 40
0.0
 40
39.67066167490788
 40
39.67066167490788
 40
39.67066167490788
 40
39.67066167490788
 40
39.67066167490788
 40
39.67066167490788
 10
-27.47848196285927
 20
22.14223146664218
 30
0.0
 10
-21.99512992886087
 20
23.09269755555464
 30
0.0
 10
-16.50545001941988
 20
23.96777348014335
 30
0.0
 10
-11.007674717541
 20
24.76273295497396
 30
0.0
 10
-5.506302245990268
 20
25.47190958839819
 30
0.0
 10
-0.0000000000000089
 20
26.09053617040468
 30
0.0
  0
ARC
  5
F0
330
76
100
AcDbEntity
  8
0
 62
     7
370
    35
100
AcDbCircle
 10
-67.289127
 20
53.083487
 30
0.0
 40
50.41998414666795
100
AcDbArc
 50
318.546879
 51
322.14527
  0
LINE
  5
F1
330
76
100
AcDbEntity
  8
0
 62
     7
370
    35
100
AcDbLine
 10
-29.5
 20
19.705499
 30
0.0
 11
-29.5
 21
18.223348
 31
0.0
  0
ARC
  5
F2
330
76
100
AcDbEntity
  8
0
 62
     7
370
    35
100
AcDbCircle
 10
5.347173
 20
-3.331817
 30
0.0
 40
37.80738521099831
100
AcDbArc
 50
50.295009
 51
54.1706
  0
ARC
  5
F3
330
76
100
AcDbEntity
  8
0
 62
     7
370
    35
100
AcDbCircle
 10
-18.189505
 20
0.565078
 30
0.0
 40
20.97030933918793
100
AcDbArc
 50
116.292564
 51
122.640281
  0
SPLINE
  5
F4
330
76
100
AcDbEntity
  8
0
 62
     7
370
    35
100
AcDbSpline
210
0.0
220
0.0
230
1.0
 70
     8
 71
     5
 72
    12
 73
     6
 74
     0
 42
0.000000001
 43
0.0
 40
0.0
 40
0.0
 40
0.0
 40
0.0
 40
0.0
 40
0.0
 40
39.76538163265261
 40
39.76538163265261
 40
39.76538163265261
 40
39.76538163265261
 40
39.76538163265261
 40
39.76538163265261
 10
0.0000000000000888
 20
24.17403145228496
 30
0.0
 10
-5.50776738210048
 20
23.36757930203899
 30
0.0
 10
-11.00960389621013
 20
22.47753884949009
 30
0.0
 10
-16.50674852744815
 20
21.50970333679725
 30
0.0
 10
-21.99579949389598
 20
20.47066799334284
 30
0.0
 10
-27.47845147054895
 20
19.36604363643387
 30
0.0
  0
SPLINE
  5
F5
330
76
100
AcDbEntity
  8
0
 62
     7
370
    35
100
AcDbSpline
210
0.0
220
0.0
230
1.0
 70
     8
 71
     5
 72
    12
 73
     6
 74
     0
 42
0.000000001
 43
0.0
 40
0.0
 40
0.0
 40
0.0
 40
0.0
 40
0.0
 40
0.0
 40
39.59887858158925
 40
39.59887858158925
 40
39.59887858158925
 40
39.59887858158925
 40
39.59887858158925
 40
39.59887858158925
 10
27.47845147049001
 20
27.32083226785511
 30
0.0
 10
21.9741311657204
 20
26.87324372942068
 30
0.0
 10
16.47355129049773
 20
26.33085002160814
 30
0.0
 10
10.97529252639671
 20
25.69729248986901
 30
0.0
 10
5.484705612389945
 20
24.97710687790162
 30
0.0
 10
-0.0000000000000036
 20
24.17403145228495
 30
0.0
  0
LINE
  5
F6
330
76
100
AcDbEntity
  8
0
 62
     7
370
    35
100
AcDbLine
 10
27.478454
 20
26.977877
 30
0.0
 11
27.478454
 21
27.320856
 31
0.0
  0
ARC
  5
F7
330
76
100
AcDbEntity
  8
0
 62
     7
370
    35
100
AcDbCircle
 10
89.482038
 20
87.278066
 30
0.0
 40
86.48993381964623
100
AcDbArc
 50
224.202083
 51
226.090853
  0
SPLINE
  5
F8
330
76
100
AcDbEntity
  8
0
 62
     7
370
    35
100
AcDbSpline
210
0.0
220
0.0
230
1.0
 70
     8
 71
     5
 72
    12
 73
     6
 74
     0
 42
0.000000001
 43
0.0
 40
0.0
 40
0.0
 40
0.0
 40
0.0
 40
0.0
 40
0.0
 40
48.8908747571511
 40
48.8908747571511
 40
48.8908747571511
 40
48.8908747571511
 40
48.8908747571511
 40
48.8908747571511
 10
-0.0000000000000107
 20
23.57436274270253
 30
0.0
 10
5.488143947610459
 20
24.42567330729881
 30
0.0
 10
10.98026320087746
 20
25.19631783099256
 30
0.0
 10
16.47755586254425
 20
25.88144690288288
 30
0.0
 10
21.97667030592765
 20
26.47625232652251
 30
0.0
 10
27.47848472956498
 20
26.97787952961895
 30
0.0
  0
SPLINE
  5
F9
330
76
100
AcDbEntity
  8
0
 62
     7
370
    35
100
AcDbSpline
210
0.0
220
0.0
230
1.0
 70
     8
 71
     5
 72
    12
 73
     6
 74
     0
 42
0.000000001
 43
0.0
 40
0.0
 40
0.0
 40
0.0
 40
0.0
 40
0.0
 40
0.0
 40
49.03028418988327
 40
49.03028418988327
 40
49.03028418988327
 40
49.03028418988327
 40
49.03028418988327
 40
49.03028418988327
 10
-27.47848472955176
 20
18.5509117632913
 30
0.0
 10
-21.99140013006028
 20
19.69441764639696
 30
0.0
 10
-16.50014781511414
 20
20.77487109737216
 30
0.0
 10
-11.00359911306788
 20
21.78584212700003
 30
0.0
 10
-5.503793064920798
 20
22.72062471646896
 30
0.0
 10
-0.0000000000000053
 20
23.57436274270253
 30
0.0
  0
ARC
  5
FA
330
76
100
AcDbEntity
  8
0
 62
     7
370
    35
100
AcDbCircle
 10
-57.133139
 20
41.98969
 30
0.0
 40
37.79824099976624
100
AcDbArc
 50
316.977578
 51
321.677437
  0
LINE
  5
FB
330
76
100
AcDbEntity
  8
0
 62
     7
370
    35
100
AcDbLine
 10
-29.5
 20
16.201081
 30
0.0
 11
-29.5
 21
14.576299
 31
0.0
  0
LINE
  5
FC
330
76
100
AcDbEntity
  8
0
 62
     7
370
    13
100
AcDbLine
 10
-29.5
 20
14.576299
 30
0.0
 11
-29.131145
 21
14.648405
 31
0.0
  0
LINE
  5
FD
330
76
100
AcDbEntity
  8
0
 62
     7
370
    35
100
AcDbLine
 10
-29.5
 20
14.576299
 30
0.0
 11
-29.5
 21
14.500962
 31
0.0
  0
LINE
  5
FE
330
76
100
AcDbEntity
  8
0
 62
     7
370
    35
100
AcDbLine
 10
-29.5
 20
14.500962
 30
0.0
 11
-29.5
 21
14.473121
 31
0.0
  0
ARC
  5
FF
330
76
100
AcDbEntity
  8
0
 62
     7
370
    35
100
AcDbCircle
 10
17.774472
 20
6.775943
 30
0.0
 40
20.96943144492696
100
AcDbArc
 50
56.001859
 51
62.433673
  0
ARC
  5
100
330
76
100
AcDbEntity
  8
0
 62
     7
370
    35
100
AcDbCircle
 10
-22.798251
 20
0.861649
 30
0.0
 40
15.17215852869468
100
AcDbArc
 50
107.967041
 51
116.213805
  0
SPLINE
  5
101
330
76
100
AcDbEntity
  8
0
 62
     7
370
    35
100
AcDbSpline
210
0.0
220
0.0
230
1.0
 70
     8
 71
     5
 72
    12
 73
     6
 74
     0
 42
0.000000001
 43
0.0
 40
0.0
 40
0.0
 40
0.0
 40
0.0
 40
0.0
 40
0.0
 40
39.89147620889278
 40
39.89147620889278
 40
39.89147620889278
 40
39.89147620889278
 40
39.89147620889278
 40
39.89147620889278
 10
0.0000000000000604
 20
21.05273335126161
 30
0.0
 10
-5.508192708165824
 20
20.03172006560439
 30
0.0
 10
-11.00988590001026
 20
18.93834835431636
 30
0.0
 10
-16.50622090276543
 20
17.77948855756699
 30
0.0
 10
-21.99521985208169
 20
16.56257512145636
 30
0.0
 10
-27.47845147054883
 20
15.29417063374782
 30
0.0
  0
SPLINE
  5
102
330
76
100
AcDbEntity
  8
0
 62
     7
370
    35
100
AcDbSpline
210
0.0
220
0.0
230
1.0
 70
     8
 71
     5
 72
    12
 73
     6
 74
     0
 42
0.000000001
 43
0.0
 40
0.0
 40
0.0
 40
0.0
 40
0.0
 40
0.0
 40
0.0
 40
39.70845005107004
 40
39.70845005107004
 40
39.70845005107004
 40
39.70845005107004
 40
39.70845005107004
 40
39.70845005107004
 10
27.47845147048976
 20
25.36459790291171
 30
0.0
 10
21.97143556872726
 20
24.66697637609542
 30
0.0
 10
16.46980826880334
 20
23.88164987153285
 30
0.0
 10
10.97228112927897
 20
23.01369487788177
 30
0.0
 10
5.482920558731154
 20
22.06906212392208
 30
0.0
 10
-0.0000000000000071
 20
21.0527333512616
 30
0.0
  0
LINE
  5
103
330
76
100
AcDbEntity
  8
0
 62
     7
370
    35
100
AcDbLine
 10
27.478454
 20
24.842686
 30
0.0
 11
27.478454
 21
25.364618
 31
0.0
  0
ARC
  5
104
330
76
100
AcDbEntity
  8
0
 62
     7
370
    35
100
AcDbCircle
 10
65.393602
 20
62.929313
 30
0.0
 40
53.74107339573844
100
AcDbArc
 50
225.129306
 51
228.09449
  0
SPLINE
  5
105
330
76
100
AcDbEntity
  8
0
 62
     7
370
    35
100
AcDbSpline
210
0.0
220
0.0
230
1.0
 70
     8
 71
     5
 72
    12
 73
     6
 74
     0
 42
0.000000001
 43
0.0
 40
0.0
 40
0.0
 40
0.0
 40
0.0
 40
0.0
 40
0.0
 40
48.9833164597478
 40
48.9833164597478
 40
48.9833164597478
 40
48.9833164597478
 40
48.9833164597478
 40
48.9833164597478
 10
-0.0000000000000036
 20
20.3004898993694
 30
0.0
 10
5.487169215891205
 20
21.35895031900431
 30
0.0
 10
10.97857706281198
 20
22.34824267247584
 30
0.0
 10
16.47537375078321
 20
23.26244176005454
 30
0.0
 10
21.97508326158148
 20
24.09535304630833
 30
0.0
 10
27.4784847295648
 20
24.84269018069632
 30
0.0
  0
SPLINE
  5
106
330
76
100
AcDbEntity
  8
0
 62
     7
370
    35
100
AcDbSpline
210
0.0
220
0.0
230
1.0
 70
     8
 71
     5
 72
    12
 73
     6
 74
     0
 42
0.000000001
 43
0.0
 40
0.0
 40
0.0
 40
0.0
 40
0.0
 40
0.0
 40
0.0
 40
49.13230773272758
 40
49.13230773272758
 40
49.13230773272758
 40
49.13230773272758
 40
49.13230773272758
 40
49.13230773272758
 10
-27.47848472955201
 20
14.36332263330492
 30
0.0
 10
-21.99081021752761
 20
15.66247838503225
 30
0.0
 10
-16.49948350606902
 20
16.9129900219955
 30
0.0
 10
-11.00346751247125
 20
18.10764235138882
 30
0.0
 10
-5.503859395029924
 20
19.23880998835019
 30
0.0
 10
-0.0000000000000089
 20
20.30048989936941
 30
0.0
  0
SPLINE
  5
107
330
76
100
AcDbEntity
  8
0
 62
     7
370
    35
100
AcDbSpline
210
0.0
220
0.0
230
1.0
 70
     8
 71
     5
 72
    15
 73
     9
 74
     0
 42
0.000000001
 43
0.0
 40
0.0
 40
0.0
 40
0.0
 40
0.0
 40
0.0
 40
0.0
 40
3.56091088550596
 40
3.56091088550596
 40
3.56091088550596
 40
5.040596624283959
 40
5.040596624283959
 40
5.040596624283959
 40
5.040596624283959
 40
5.040596624283959
 40
5.040596624283959
 10
-27.47848196285929
 20
14.36329997187927
 30
0.0
 10
-27.75968421134147
 20
14.02908446670093
 30
0.0
 10
-28.0427514623384
 20
13.70201894442593
 30
0.0
 10
-28.32714673046994
 20
13.38354085596747
 30
0.0
 10
-28.73319603659358
 20
12.94456632598897
 30
0.0
 10
-29.14089713519328
 20
12.52857412870205
 30
0.0
 10
-29.26065321664969
 20
12.4086096688024
 30
0.0
 10
-29.38045479532338
 20
12.29094078493363
 30
0.0
 10
-29.50000000186265
 20
12.17600332491501
 30
0.0
  0
LINE
  5
108
330
76
100
AcDbEntity
  8
0
 62
     7
370
    35
100
AcDbLine
 10
-29.5
 20
12.175947
 30
0.0
 11
-29.5
 21
10.688952
 31
0.0
  0
ARC
  5
109
330
76
100
AcDbEntity
  8
0
 62
     7
370
    13
100
AcDbCircle
 10
177.12724
 20
-938.191237
 30
0.0
 40
971.1169372092255
100
AcDbArc
 50
101.541811
 51
102.284891
  0
LINE
  5
10A
330
76
100
AcDbEntity
  8
0
 62
     7
370
    35
100
AcDbLine
 10
-29.5
 20
10.688952
 30
0.0
 11
-29.5
 21
10.605279
 31
0.0
  0
LINE
  5
10B
330
76
100
AcDbEntity
  8
0
 62
     7
370
    35
100
AcDbLine
 10
-29.5
 20
10.605279
 30
0.0
 11
-29.5
 21
10.521463
 31
0.0
  0
ARC
  5
10C
330
76
100
AcDbEntity
  8
0
 62
     7
370
    13
100
AcDbCircle
 10
189.260634
 20
-991.385146
 30
0.0
 40
1025.511081922916
100
AcDbArc
 50
101.866455
 51
102.316904
  0
ARC
  5
10D
330
76
100
AcDbEntity
  8
0
 62
     7
370
    35
100
AcDbCircle
 10
23.629864
 20
9.964805
 30
0.0
 40
13.20197429813172
100
AcDbArc
 50
63.600043
 51
73.050836
  0
LINE
  5
10E
330
76
100
AcDbEntity
  8
0
 62
     7
370
    35
100
AcDbLine
 10
-29.5
 20
10.521463
 30
0.0
 11
-29.5
 21
10.257624
 31
0.0
  0
ARC
  5
10F
330
76
100
AcDbEntity
  8
0
 62
     7
370
    35
100
AcDbCircle
 10
-25.671162
 20
-1.659713
 30
0.0
 40
12.52150436152862
100
AcDbArc
 50
98.298872
 51
103.595176
  0
ARC
  5
110
330
76
100
AcDbEntity
  8
0
 62
     7
370
    35
100
AcDbCircle
 10
-25.998041
 20
-0.316331
 30
0.0
 40
11.13882650071067
100
AcDbArc
 50
103.585176
 51
108.324212
  0
ARC
  5
111
330
76
100
AcDbEntity
  8
0
 62
     7
370
    35
100
AcDbCircle
 10
218.243962
 20
-956.800604
 30
0.0
 40
998.2465705783069
100
AcDbArc
 50
103.662495
 51
104.250042
  0
ARC
  5
112
330
76
100
AcDbEntity
  8
0
 62
     7
370
    35
100
AcDbCircle
 10
165.316448
 20
-737.692972
 30
0.0
 40
772.8366295471384
100
AcDbArc
 50
102.351517
 51
103.686501
  0
SPLINE
  5
113
330
76
100
AcDbEntity
  8
0
 62
     7
370
    35
100
AcDbSpline
210
0.0
220
0.0
230
1.0
 70
     8
 71
     5
 72
    12
 73
     6
 74
     0
 42
0.000000001
 43
0.0
 40
0.0
 40
0.0
 40
0.0
 40
0.0
 40
0.0
 40
0.0
 40
49.06349442627494
 40
49.06349442627494
 40
49.06349442627494
 40
49.06349442627494
 40
49.06349442627494
 40
49.06349442627494
 10
27.47845423721194
 20
22.5931401829417
 30
0.0
 10
21.97452042102178
 20
21.66874832183431
 30
0.0
 10
16.47472675451122
 20
20.66675919118605
 30
0.0
 10
10.97835967594833
 20
19.59246702222801
 30
0.0
 10
5.487146877485568
 20
18.45293103372007
 30
0.0
 10
-0.0000000000000018
 20
17.25478307810187
 30
0.0
  0
LINE
  5
114
330
76
100
AcDbEntity
  8
0
 62
     7
370
    35
100
AcDbLine
 10
27.478454
 20
21.909031
 30
0.0
 11
27.478454
 21
22.59314
 31
0.0
  0
ARC
  5
115
330
76
100
AcDbEntity
  8
0
 62
     7
370
    35
100
AcDbCircle
 10
52.504697
 20
48.790404
 30
0.0
 40
36.72705380081144
100
AcDbArc
 50
227.046868
 51
231.216496
  0
SPLINE
  5
116
330
76
100
AcDbEntity
  8
0
 62
     7
370
    35
100
AcDbSpline
210
0.0
220
0.0
230
1.0
 70
     8
 71
     5
 72
    12
 73
     6
 74
     0
 42
0.000000001
 43
0.0
 40
0.0
 40
0.0
 40
0.0
 40
0.0
 40
0.0
 40
0.0
 40
49.08532119184782
 40
49.08532119184782
 40
49.08532119184782
 40
49.08532119184782
 40
49.08532119184782
 40
49.08532119184782
 10
-0.0000000000000053
 20
16.37414260737178
 30
0.0
 10
5.487262863008137
 20
17.60590531340129
 30
0.0
 10
10.97848951551598
 20
18.78208770702502
 30
0.0
 10
16.47474887217094
 20
19.89588975595879
 30
0.0
 10
21.97451446100903
 20
20.94005385380099
 30
0.0
 10
27.47848472956475
 20
21.90903632873242
 30
0.0
  0
SPLINE
  5
117
330
76
100
AcDbEntity
  8
0
 62
     7
370
    35
100
AcDbSpline
210
0.0
220
0.0
230
1.0
 70
     8
 71
     5
 72
    12
 73
     6
 74
     0
 42
0.000000001
 43
0.0
 40
0.0
 40
0.0
 40
0.0
 40
0.0
 40
0.0
 40
0.0
 40
49.22489291048752
 40
49.22489291048752
 40
49.22489291048752
 40
49.22489291048752
 40
49.22489291048752
 40
49.22489291048752
 10
-27.47848472955123
 20
9.714084495699622
 30
0.0
 10
-21.98923269864072
 20
11.12741741187883
 30
0.0
 10
-16.4973015473398
 20
12.50792937127661
 30
0.0
 10
-11.00176023697832
 20
13.84783332013913
 30
0.0
 10
-5.502865627537577
 20
15.13887744411766
 30
0.0
 10
0.0000000000000036
 20
16.37414260737178
 30
0.0
  0
SPLINE
  5
118
330
76
100
AcDbEntity
  8
0
 62
     7
370
    35
100
AcDbSpline
210
0.0
220
0.0
230
1.0
 70
     8
 71
     5
 72
    15
 73
     9
 74
     0
 42
0.000000001
 43
0.0
 40
0.0
 40
0.0
 40
0.0
 40
0.0
 40
0.0
 40
0.0
 40
3.493386679376165
 40
3.493386679376165
 40
3.493386679376165
 40
4.944315551999541
 40
4.944315551999541
 40
4.944315551999541
 40
4.944315551999541
 40
4.944315551999541
 40
4.944315551999541
 10
-27.47848196285927
 20
9.71406557390321
 30
0.0
 10
-27.75950022043068
 20
9.408837859780974
 30
0.0
 10
-28.0425190879182
 20
9.112059518203246
 30
0.0
 10
-28.32700874360782
 20
8.825130548696874
 30
0.0
 10
-28.73319998384689
 20
8.433034338715768
 30
0.0
 10
-29.1410082974901
 20
8.066756885890275
 30
0.0
 10
-29.26075101980313
 20
7.961660477585674
 30
0.0
 10
-29.38051907901518
 20
7.859110183726353
 30
0.0
 10
-29.50000000186265
 20
7.759513159019933
 30
0.0
  0
LINE
  5
119
330
76
100
AcDbEntity
  8
0
 62
     7
370
    35
100
AcDbLine
 10
-29.5
 20
7.759468
 30
0.0
 11
-29.5
 21
6.458053
 31
0.0
  0
SPLINE
  5
11A
330
76
100
AcDbEntity
  8
0
 62
     7
370
    13
100
AcDbSpline
210
0.0
220
0.0
230
1.0
 70
     8
 71
     5
 72
    12
 73
     6
 74
     0
 42
0.000000001
 43
0.0
 40
0.0
 40
0.0
 40
0.0
 40
0.0
 40
0.0
 40
0.0
 40
45.09508614891741
 40
45.09508614891741
 40
45.09508614891741
 40
45.09508614891741
 40
45.09508614891741
 40
45.09508614891741
 10
-29.49999999627831
 20
6.458053340102662
 30
0.0
 10
-23.29411237900378
 20
7.899377057373808
 30
0.0
 10
-17.08507778660061
 20
9.312769049901107
 30
0.0
 10
-10.84980920601797
 20
10.693312361058
 30
0.0
 10
-4.631446863634302
 20
12.0205673549658
 30
0.0
 10
1.59266121403642
 20
13.28983610392085
 30
0.0
  0
LINE
  5
11B
330
76
100
AcDbEntity
  8
0
 62
     7
370
    35
100
AcDbLine
 10
-29.5
 20
6.458053
 30
0.0
 11
-29.5
 21
6.368734
 31
0.0
  0
LINE
  5
11C
330
76
100
AcDbEntity
  8
0
 62
     7
370
    35
100
AcDbLine
 10
-29.5
 20
6.368734
 30
0.0
 11
-29.5
 21
6.279328
 31
0.0
  0
SPLINE
  5
11D
330
76
100
AcDbEntity
  8
0
 62
     7
370
    13
100
AcDbSpline
210
0.0
220
0.0
230
1.0
 70
     8
 71
     5
 72
    12
 73
     6
 74
     0
 42
0.000000001
 43
0.0
 40
0.0
 40
0.0
 40
0.0
 40
0.0
 40
0.0
 40
0.0
 40
38.73615463704043
 40
38.73615463704043
 40
38.73615463704043
 40
38.73615463704043
 40
38.73615463704043
 40
38.73615463704043
 10
-29.49999999627829
 20
6.279328130802474
 30
0.0
 10
-24.17637379803139
 20
7.518131393905167
 30
0.0
 10
-18.85049768186424
 20
8.73694939674994
 30
0.0
 10
-13.52144663695651
 20
9.929557933918414
 30
0.0
 10
-8.189153080419388
 20
11.08948519923575
 30
0.0
 10
-2.852881195039606
 20
12.21032249730251
 30
0.0
  0
ARC
  5
11E
330
76
100
AcDbEntity
  8
0
 62
     7
370
    35
100
AcDbCircle
 10
26.754833
 20
9.59391
 30
0.0
 40
9.529079409280067
100
AcDbArc
 50
73.256681
 51
85.644715
  0
LINE
  5
11F
330
76
100
AcDbEntity
  8
0
 62
     7
370
    35
100
AcDbLine
 10
-29.5
 20
6.279328
 30
0.0
 11
-29.5
 21
5.739026
 31
0.0
  0
LINE
  5
120
330
76
100
AcDbEntity
  8
0
 62
     7
370
    35
100
AcDbLine
 10
-29.5
 20
5.738671
 30
0.0
 11
-29.5
 21
5.712438
 31
0.0
  0
ARC
  5
121
330
76
100
AcDbEntity
  8
0
 62
     7
370
    35
100
AcDbCircle
 10
-27.929356
 20
-4.651465
 30
0.0
 40
10.48290960974033
100
AcDbArc
 50
87.535077
 51
98.61757
  0
SPLINE
  5
122
330
76
100
AcDbEntity
  8
0
 62
     7
370
    35
100
AcDbSpline
210
0.0
220
0.0
230
1.0
 70
     8
 71
     5
 72
    12
 73
     6
 74
     0
 42
0.000000001
 43
0.0
 40
0.0
 40
0.0
 40
0.0
 40
0.0
 40
0.0
 40
0.0
 40
40.1035305829406
 40
40.1035305829406
 40
40.1035305829406
 40
40.1035305829406
 40
40.1035305829406
 40
40.1035305829406
 10
0.0000000000000604
 20
12.90224987948992
 30
0.0
 10
-5.504345029733923
 20
11.55746696520735
 30
0.0
 10
-11.00350989999124
 20
10.16892911893118
 30
0.0
 10
-16.49853721734495
 20
8.744813529434404
 30
0.0
 10
-21.98975612232774
 20
7.293338437486629
 30
0.0
 10
-27.47845147054839
 20
5.822395667446925
 30
0.0
  0
LINE
  5
123
330
76
100
AcDbEntity
  8
0
 62
     7
370
    35
100
AcDbLine
 10
1.222473
 20
13.200021
 30
0.0
 11
0.0
 21
12.90225
 31
0.0
  0
SPLINE
  5
124
330
76
100
AcDbEntity
  8
0
 62
     7
370
    35
100
AcDbSpline
210
0.0
220
0.0
230
1.0
 70
     8
 71
     5
 72
    12
 73
     6
 74
     0
 42
0.000000001
 43
0.0
 40
0.0
 40
0.0
 40
0.0
 40
0.0
 40
0.0
 40
0.0
 40
38.17549336177154
 40
38.17549336177154
 40
38.17549336177154
 40
38.17549336177154
 40
38.17549336177154
 40
38.17549336177154
 10
27.47845147049
 20
19.09548946886891
 30
0.0
 10
22.21621463778927
 20
18.02271657885063
 30
0.0
 10
16.95986604067971
 20
16.89038273693487
 30
0.0
 10
11.70843811710677
 20
15.70480380452715
 30
0.0
 10
6.463071528256929
 20
14.47267113050664
 30
0.0
 10
1.222473119043784
 20
13.20002138998352
 30
0.0
  0
LINE
  5
125
330
76
100
AcDbEntity
  8
0
 62
     7
370
    35
100
AcDbLine
 10
27.478454
 20
18.271202
 30
0.0
 11
27.478454
 21
19.0955
 31
0.0
  0
ARC
  5
126
330
76
100
AcDbEntity
  8
0
 62
     7
370
    35
100
AcDbCircle
 10
44.278345
 20
38.351424
 30
0.0
 40
26.18034382965284
100
AcDbArc
 50
230.082896
 51
235.632481
  0
SPLINE
  5
127
330
76
100
AcDbEntity
  8
0
 62
     7
370
    35
100
AcDbSpline
210
0.0
220
0.0
230
1.0
 70
     8
 71
     5
 72
    12
 73
     6
 74
     0
 42
0.000000001
 43
0.0
 40
0.0
 40
0.0
 40
0.0
 40
0.0
 40
0.0
 40
0.0
 40
39.98112978638949
 40
39.98112978638949
 40
39.98112978638949
 40
39.98112978638949
 40
39.98112978638949
 40
39.98112978638949
 10
-0.0000000000000178
 20
11.92151689927005
 30
0.0
 10
5.484668033553797
 20
13.28627437280841
 30
0.0
 10
10.97417113001997
 20
14.6109333983282
 30
0.0
 10
16.46995990007951
 20
15.88842359333034
 30
0.0
 10
21.97103652490288
 20
17.11098176320575
 30
0.0
 10
27.47848196287266
 20
18.27119809624444
 30
0.0
  0
SPLINE
  5
128
330
76
100
AcDbEntity
  8
0
 62
     7
370
    35
100
AcDbSpline
210
0.0
220
0.0
230
1.0
 70
     8
 71
     5
 72
    12
 73
     6
 74
     0
 42
0.000000001
 43
0.0
 40
0.0
 40
0.0
 40
0.0
 40
0.0
 40
0.0
 40
0.0
 40
40.11939018916476
 40
40.11939018916476
 40
40.11939018916476
 40
40.11939018916476
 40
40.11939018916476
 40
40.11939018916476
 10
-27.47848196285924
 20
4.752613115622073
 30
0.0
 10
-21.98894744521431
 20
6.234353149009042
 30
0.0
 10
-16.49733963321864
 20
7.700206772090093
 30
0.0
 10
-11.00240102707027
 20
9.142186701870772
 30
0.0
 10
-5.503634791508368
 20
10.5520399013213
 30
0.0
 10
-0.0000000000000124
 20
11.92151689927005
 30
0.0
  0
SPLINE
  5
129
330
76
100
AcDbEntity
  8
0
 62
     7
370
    35
100
AcDbSpline
210
0.0
220
0.0
230
1.0
 70
     8
 71
     5
 72
    15
 73
     9
 74
     0
 42
0.000000001
 43
0.0
 40
0.0
 40
0.0
 40
0.0
 40
0.0
 40
0.0
 40
0.0
 40
3.414519042381642
 40
3.414519042381642
 40
3.414519042381642
 40
4.835323548731963
 40
4.835323548731963
 40
4.835323548731963
 40
4.835323548731963
 40
4.835323548731963
 40
4.835323548731963
 10
-27.47848196285924
 20
4.75261311562209
 30
0.0
 10
-27.75958166969487
 20
4.485887500553495
 30
0.0
 10
-28.04267972909783
 20
4.228821340674225
 30
0.0
 10
-28.32723229036656
 20
3.982737198237728
 30
0.0
 10
-28.73355991683497
 20
3.650192724865962
 30
0.0
 10
-29.14108499626779
 20
3.345721458726832
 30
0.0
 10
-29.26086146449085
 20
3.258834420665144
 30
0.0
 10
-29.38060835882006
 20
3.174682507355186
 30
0.0
 10
-29.50000000186265
 20
3.093625855645239
 30
0.0
  0
LINE
  5
12A
330
76
100
AcDbEntity
  8
0
 62
     7
370
    35
100
AcDbLine
 10
-29.5
 20
3.093593
 30
0.0
 11
-29.5
 21
2.019587
 31
0.0
  0
SPLINE
  5
12B
330
76
100
AcDbEntity
  8
0
 62
     7
370
    13
100
AcDbSpline
210
0.0
220
0.0
230
1.0
 70
     8
 71
     5
 72
    12
 73
     6
 74
     0
 42
0.000000001
 43
0.0
 40
0.0
 40
0.0
 40
0.0
 40
0.0
 40
0.0
 40
0.0
 40
72.52071251360148
 40
72.52071251360148
 40
72.52071251360148
 40
72.52071251360148
 40
72.52071251360148
 40
72.52071251360148
 10
-29.49999999627829
 20
2.019587401119134
 30
0.0
 10
-19.52798394697243
 20
4.40838737587787
 30
0.0
 10
-9.553357033149886
 20
6.774645116627296
 30
0.0
 10
0.352436651975637
 20
9.05740974419935
 30
0.0
 10
10.34706483249466
 20
11.24809988798984
 30
0.0
 10
20.35647850296895
 20
13.28968593666932
 30
0.0
  0
LINE
  5
12C
330
76
100
AcDbEntity
  8
0
 62
     7
370
    13
100
AcDbLine
 10
29.300523
 20
15.063083
 30
0.0
 11
29.5
 21
15.101421
 31
0.0
  0
LINE
  5
12D
330
76
100
AcDbEntity
  8
0
 62
     7
370
    35
100
AcDbLine
 10
-29.5
 20
2.019587
 30
0.0
 11
-29.5
 21
1.927492
 31
0.0
  0
LINE
  5
12E
330
76
100
AcDbEntity
  8
0
 62
     7
370
    35
100
AcDbLine
 10
-29.5
 20
1.927492
 30
0.0
 11
-29.5
 21
1.83537
 31
0.0
  0
SPLINE
  5
12F
330
76
100
AcDbEntity
  8
0
 62
     7
370
    13
100
AcDbSpline
210
0.0
220
0.0
230
1.0
 70
     8
 71
     5
 72
    12
 73
     6
 74
     0
 42
0.000000001
 43
0.0
 40
0.0
 40
0.0
 40
0.0
 40
0.0
 40
0.0
 40
0.0
 40
66.10957063983798
 40
66.10957063983798
 40
66.10957063983798
 40
66.10957063983798
 40
66.10957063983798
 40
66.10957063983798
 10
-29.49999999627828
 20
1.835370396285628
 30
0.0
 10
-20.42143451207613
 20
4.011375172340627
 30
0.0
 10
-11.34090716213324
 20
6.170396914197839
 30
0.0
 10
-2.291416739767163
 20
8.271372926539444
 30
0.0
 10
6.804291892340338
 20
10.29733452174173
 30
0.0
 10
15.91151617668554
 20
12.21021286954215
 30
0.0
  0
ARC
  5
130
330
76
100
AcDbEntity
  8
0
 62
     7
370
    35
100
AcDbCircle
 10
28.741032
 20
6.940842
 30
0.0
 40
8.141261538778625
100
AcDbArc
 50
84.6505
 51
98.920904
  0
LINE
  5
131
330
76
100
AcDbEntity
  8
0
 62
     7
370
    35
100
AcDbLine
 10
-29.5
 20
1.83537
 30
0.0
 11
-29.5
 21
0.983649
 31
0.0
  0
ARC
  5
132
330
76
100
AcDbEntity
  8
0
 62
     7
370
    35
100
AcDbCircle
 10
-29.811492
 20
-9.483333
 30
0.0
 40
10.47251498528633
100
AcDbArc
 50
77.129057
 51
88.29541
  0
SPLINE
  5
133
330
76
100
AcDbEntity
  8
0
 62
     7
370
    35
100
AcDbSpline
210
0.0
220
0.0
230
1.0
 70
     8
 71
     5
 72
    12
 73
     6
 74
     0
 42
0.000000001
 43
0.0
 40
0.0
 40
0.0
 40
0.0
 40
0.0
 40
0.0
 40
0.0
 40
40.16277910794011
 40
40.16277910794011
 40
40.16277910794011
 40
40.16277910794011
 40
40.16277910794011
 40
40.16277910794011
 10
0.0000000000000764
 20
8.135027753764497
 30
0.0
 10
-5.500600480930803
 20
6.691522833777277
 30
0.0
 10
-10.99771250270858
 20
5.220586011322968
 30
0.0
 10
-16.49238683045995
 20
3.730630755800578
 30
0.0
 10
-21.98557751523728
 20
2.229989381585373
 30
0.0
 10
-27.47845147054843
 20
0.7269243446512403
 30
0.0
  0
ARC
  5
134
330
76
100
AcDbEntity
  8
0
 62
     7
370
    35
100
AcDbCircle
 10
285.358721
 20
-1075.540246
 30
0.0
 40
1120.615681484526
100
AcDbArc
 50
103.698077
 51
104.752513
  0
ARC
  5
135
330
76
100
AcDbEntity
  8
0
 62
     7
370
    35
100
AcDbCircle
 10
218.498131
 20
-803.695541
 30
0.0
 40
840.6693545714052
100
AcDbArc
 50
103.133652
 51
103.658237
  0
LINE
  5
136
330
76
100
AcDbEntity
  8
0
 62
     7
370
    35
100
AcDbLine
 10
27.478454
 20
14.046121
 30
0.0
 11
27.478454
 21
14.984116
 31
0.0
  0
ARC
  5
137
330
76
100
AcDbEntity
  8
0
 62
     7
370
    35
100
AcDbCircle
 10
38.653624
 20
29.670638
 30
0.0
 40
19.20867824556661
100
AcDbArc
 50
234.426464
 51
241.539088
  0
SPLINE
  5
138
330
76
100
AcDbEntity
  8
0
 62
     7
370
    35
100
AcDbSpline
210
0.0
220
0.0
230
1.0
 70
     8
 71
     5
 72
    12
 73
     6
 74
     0
 42
0.000000001
 43
0.0
 40
0.0
 40
0.0
 40
0.0
 40
0.0
 40
0.0
 40
0.0
 40
49.26642807238178
 40
49.26642807238178
 40
49.26642807238178
 40
49.26642807238178
 40
49.26642807238178
 40
49.26642807238178
 10
0.0
 20
7.085723828996142
 30
0.0
 10
5.490428729271795
 20
8.54182794425354
 30
0.0
 10
10.98287913063594
 20
9.973958014553498
 30
0.0
 10
16.47820967249448
 20
11.37419488671666
 30
0.0
 10
21.97653769197915
 20
12.73404394704225
 30
0.0
 10
27.47848472956473
 20
14.04612805652491
 30
0.0
  0
SPLINE
  5
139
330
76
100
AcDbEntity
  8
0
 62
     7
370
    35
100
AcDbSpline
210
0.0
220
0.0
230
1.0
 70
     8
 71
     5
 72
    12
 73
     6
 74
     0
 42
0.000000001
 43
0.0
 40
0.0
 40
0.0
 40
0.0
 40
0.0
 40
0.0
 40
0.0
 40
49.33757269334399
 40
49.33757269334399
 40
49.33757269334399
 40
49.33757269334399
 40
49.33757269334399
 40
49.33757269334399
 10
-27.47848472955173
 20
-0.3615824808585355
 30
0.0
 10
-21.98402889169807
 20
1.142307400497139
 30
0.0
 10
-16.48968029960534
 20
2.647393859974164
 30
0.0
 10
-10.99470573842981
 20
4.145404983476372
 30
0.0
 10
-5.498357342855883
 20
5.627516984163825
 30
0.0
 10
0.0
 20
7.085723828996167
 30
0.0
  0
SPLINE
  5
13A
330
76
100
AcDbEntity
  8
0
 62
     7
370
    35
100
AcDbSpline
210
0.0
220
0.0
230
1.0
 70
     8
 71
     5
 72
    15
 73
     9
 74
     0
 42
0.000000001
 43
0.0
 40
0.0
 40
0.0
 40
0.0
 40
0.0
 40
0.0
 40
0.0
 40
3.333935600309059
 40
3.333935600309059
 40
3.333935600309059
 40
4.727130481700836
 40
4.727130481700836
 40
4.727130481700836
 40
4.727130481700836
 40
4.727130481700836
 40
4.727130481700836
 10
-27.47848196285929
 20
-0.3615922386582537
 30
0.0
 10
-27.75995620556147
 20
-0.5814470515886306
 30
0.0
 10
-28.04326890392045
 20
-0.7905942120456348
 30
0.0
 10
-28.32783822660983
 20
-0.9878428582707838
 30
0.0
 10
-28.73427400232408
 20
-1.250053254899497
 30
0.0
 10
-29.14111098838252
 20
-1.482796889483855
 30
0.0
 10
-29.26096977988461
 20
-1.548696632718754
 30
0.0
 10
-29.38071264778156
 20
-1.611760052484996
 30
0.0
 10
-29.50000000186266
 20
-1.671693128173725
 30
0.0
  0
LINE
  5
13B
330
76
100
AcDbEntity
  8
0
 62
     7
370
    35
100
AcDbLine
 10
-29.5
 20
-1.671695
 30
0.0
 11
-29.5
 21
-2.48379
 31
0.0
  0
SPLINE
  5
13C
330
76
100
AcDbEntity
  8
0
 62
     7
370
    13
100
AcDbSpline
210
0.0
220
0.0
230
1.0
 70
     8
 71
     5
 72
    12
 73
     6
 74
     0
 42
0.000000001
 43
0.0
 40
0.0
 40
0.0
 40
0.0
 40
0.0
 40
0.0
 40
0.0
 40
85.9395529334201
 40
85.9395529334201
 40
85.9395529334201
 40
85.9395529334201
 40
85.9395529334201
 40
85.9395529334201
 10
-29.49999999627828
 20
-2.48378973865841
 30
0.0
 10
-17.68228118300629
 20
0.3424217860217125
 30
0.0
 10
-5.869091891593661
 20
3.207459148002287
 30
0.0
 10
5.821097566467587
 20
6.006646768788111
 30
0.0
 10
17.65123796840122
 20
8.72960795056451
 30
0.0
 10
29.4999999962685
 20
11.27428656839817
 30
0.0
  0
LINE
  5
13D
330
76
100
AcDbEntity
  8
0
 62
     7
370
    35
100
AcDbLine
 10
-29.5
 20
-2.48379
 30
0.0
 11
-29.5
 21
-2.575701
 31
0.0
  0
LINE
  5
13E
330
76
100
AcDbEntity
  8
0
 62
     7
370
    35
100
AcDbLine
 10
-29.5
 20
-2.575701
 30
0.0
 11
-29.5
 21
-2.667578
 31
0.0
  0
SPLINE
  5
13F
330
76
100
AcDbEntity
  8
0
 62
     7
370
    13
100
AcDbSpline
210
0.0
220
0.0
230
1.0
 70
     8
 71
     5
 72
    12
 73
     6
 74
     0
 42
0.000000001
 43
0.0
 40
0.0
 40
0.0
 40
0.0
 40
0.0
 40
0.0
 40
0.0
 40
86.05373902219186
 40
86.05373902219186
 40
86.05373902219186
 40
86.05373902219186
 40
86.05373902219186
 40
86.05373902219186
 10
-29.49999999627827
 20
-2.667577652915615
 30
0.0
 10
-17.68162486086545
 20
0.1566487147797559
 30
0.0
 10
-5.86809811976945
 20
3.022586960111816
 30
0.0
 10
5.82207128360939
 20
5.825490846255615
 30
0.0
 10
17.651854017537
 20
8.55499753410661
 30
0.0
 10
29.49999999626849
 20
11.10887446943892
 30
0.0
  0
ARC
  5
140
330
76
100
AcDbEntity
  8
0
 62
     7
370
    35
100
AcDbCircle
 10
30.701282
 20
1.883571
 30
0.0
 40
9.097413041298921
100
AcDbArc
 50
103.780319
 51
110.747481
  0
ARC
  5
141
330
76
100
AcDbEntity
  8
0
 62
     7
370
    35
100
AcDbCircle
 10
30.318157
 20
3.45547
 30
0.0
 40
7.479252775211856
100
AcDbArc
 50
96.280273
 51
103.798156
  0
LINE
  5
142
330
76
100
AcDbEntity
  8
0
 62
     7
370
    35
100
AcDbLine
 10
-29.5
 20
-2.667578
 30
0.0
 11
-29.5
 21
-3.776755
 31
0.0
  0
SPLINE
  5
143
330
76
100
AcDbEntity
  8
0
 62
     7
370
    35
100
AcDbSpline
210
0.0
220
0.0
230
1.0
 70
     8
 71
     5
 72
    15
 73
     9
 74
     0
 42
0.000000001
 43
0.0
 40
0.0
 40
0.0
 40
0.0
 40
0.0
 40
0.0
 40
0.0
 40
3.072681124604944
 40
3.072681124604944
 40
3.072681124604944
 40
4.368306821729835
 40
4.368306821729835
 40
4.368306821729835
 40
4.368306821729835
 40
4.368306821729835
 40
4.368306821729835
 10
-27.47848196285809
 20
-4.391919172507358
 30
0.0
 10
-27.76489471665787
 20
-4.278239041672806
 30
0.0
 10
-28.0514308502699
 20
-4.172996157431755
 30
0.0
 10
-28.33735778370262
 20
-4.076949249916241
 30
0.0
 10
-28.74375614375238
 20
-3.954109697021522
 30
0.0
 10
-29.14581723406083
 20
-3.853526692662573
 30
0.0
 10
-29.26457975594721
 20
-3.825741594195047
 30
0.0
 10
-29.38275800662911
 20
-3.800097435033466
 30
0.0
 10
-29.49999999515862
 20
-3.776755515579522
 30
0.0
  0
SPLINE
  5
144
330
76
100
AcDbEntity
  8
0
 62
     7
370
    35
100
AcDbSpline
210
0.0
220
0.0
230
1.0
 70
     8
 71
     5
 72
    12
 73
     6
 74
     0
 42
0.000000001
 43
0.0
 40
0.0
 40
0.0
 40
0.0
 40
0.0
 40
0.0
 40
0.0
 40
40.17950452187771
 40
40.17950452187771
 40
40.17950452187771
 40
40.17950452187771
 40
40.17950452187771
 40
40.17950452187771
 10
0.0000000000000728
 20
3.106339142509969
 30
0.0
 10
-5.496227721481425
 20
1.61078266483785
 30
0.0
 10
-10.99107978839078
 20
0.1047933657419137
 30
0.0
 10
-16.48565658244358
 20
-1.403229771383857
 30
0.0
 10
-21.98108594389155
 20
-2.904938296433848
 30
0.0
 10
-27.47845147054972
 20
-4.391910924697217
 30
0.0
  0
SPLINE
  5
145
330
76
100
AcDbEntity
  8
0
 62
     7
370
    35
100
AcDbSpline
210
0.0
220
0.0
230
1.0
 70
     8
 71
     5
 72
    12
 73
     6
 74
     0
 42
0.000000001
 43
0.0
 40
0.0
 40
0.0
 40
0.0
 40
0.0
 40
0.0
 40
0.0
 40
40.14021652835168
 40
40.14021652835168
 40
40.14021652835168
 40
40.14021652835168
 40
40.14021652835168
 40
40.14021652835168
 10
27.47845147048978
 20
10.39112832246615
 30
0.0
 10
21.97600347779069
 20
8.987741472951088
 30
0.0
 10
16.47789218232801
 20
7.549303750847583
 30
0.0
 10
10.98307986402561
 20
6.084114862012149
 30
0.0
 10
5.490853445175489
 20
4.600433247414863
 30
0.0
 10
0.0000000000000053
 20
3.106339142509949
 30
0.0
  0
LINE
  5
146
330
76
100
AcDbEntity
  8
0
 62
     7
370
    35
100
AcDbLine
 10
27.478454
 20
9.369586
 30
0.0
 11
27.478454
 21
10.391129
 31
0.0
  0
SPLINE
  5
147
330
76
100
AcDbEntity
  8
0
 62
     7
370
    35
100
AcDbSpline
210
0.0
220
0.0
230
1.0
 70
     8
 71
     5
 72
    15
 73
     9
 74
     0
 42
0.000000001
 43
0.0
 40
0.0
 40
0.0
 40
0.0
 40
0.0
 40
0.0
 40
0.0
 40
3.119272108420966
 40
3.119272108420966
 40
3.119272108420966
 40
4.428666470748343
 40
4.428666470748343
 40
4.428666470748343
 40
4.428666470748343
 40
4.428666470748343
 40
4.428666470748343
 10
27.47848196287266
 20
9.369594449898557
 30
0.0
 10
27.76442384025945
 20
9.209403854695074
 30
0.0
 10
28.05072662979461
 20
9.05705969986005
 30
0.0
 10
28.33668824920675
 20
8.91344442441022
 30
0.0
 10
28.74305602737415
 20
8.722430643720628
 30
0.0
 10
29.14584202998687
 20
8.553222506293748
 30
0.0
 10
29.26451682232005
 20
8.50520750115656
 30
0.0
 10
29.38268461832724
 20
8.459316548966092
 30
0.0
 10
29.4999999941582
 20
8.41577177131222
 30
0.0
  0
SPLINE
  5
148
330
76
100
AcDbEntity
  8
0
 62
     7
370
    35
100
AcDbSpline
210
0.0
220
0.0
230
1.0
 70
     8
 71
     5
 72
    12
 73
     6
 74
     0
 42
0.000000001
 43
0.0
 40
0.0
 40
0.0
 40
0.0
 40
0.0
 40
0.0
 40
0.0
 40
40.15167049203741
 40
40.15167049203741
 40
40.15167049203741
 40
40.15167049203741
 40
40.15167049203741
 40
40.15167049203741
 10
-0.0000000000000053
 20
2.022189764689188
 30
0.0
 10
5.491766614109117
 20
3.521658855096655
 30
0.0
 10
10.98443016994757
 20
5.014348886553821
 30
0.0
 10
16.47918020805119
 20
6.492101550981126
 30
0.0
 10
21.97685038940803
 20
7.946632582222023
 30
0.0
 10
27.47848196287266
 20
9.369594449898564
 30
0.0
  0
SPLINE
  5
149
330
76
100
AcDbEntity
  8
0
 62
     7
370
    35
100
AcDbSpline
210
0.0
220
0.0
230
1.0
 70
     8
 71
     5
 72
    12
 73
     6
 74
     0
 42
0.000000001
 43
0.0
 40
0.0
 40
0.0
 40
0.0
 40
0.0
 40
0.0
 40
0.0
 40
40.17733136825552
 40
40.17733136825552
 40
40.17733136825552
 40
40.17733136825552
 40
40.17733136825552
 40
40.17733136825552
 10
-27.47848196285927
 20
-5.464175720869007
 30
0.0
 10
-21.98016979671627
 20
-3.986805618145686
 30
0.0
 10
-16.48425107762407
 20
-2.491089310831942
 30
0.0
 10
-10.98965470819926
 20
-0.9854526981470632
 30
0.0
 10
-5.495276394438955
 20
0.5217623656920629
 30
0.0
 10
0.0000000000000089
 20
2.022189764689191
 30
0.0
  0
SPLINE
  5
14A
330
76
100
AcDbEntity
  8
0
 62
     7
370
    35
100
AcDbSpline
210
0.0
220
0.0
230
1.0
 70
     8
 71
     5
 72
    15
 73
     9
 74
     0
 42
0.000000001
 43
0.0
 40
0.0
 40
0.0
 40
0.0
 40
0.0
 40
0.0
 40
0.0
 40
3.262150551095723
 40
3.262150551095723
 40
3.262150551095723
 40
4.63403501347653
 40
4.63403501347653
 40
4.63403501347653
 40
4.63403501347653
 40
4.63403501347653
 40
4.63403501347653
 10
-27.47848196285927
 20
-5.464175720868983
 30
0.0
 10
-27.7606148895457
 20
-5.630125469139292
 30
0.0
 10
-28.04426448556079
 20
-5.784599098426033
 30
0.0
 10
-28.32878810962996
 20
-5.926606350731516
 30
0.0
 10
-28.73527727749604
 20
-6.109965744736094
 30
0.0
 10
-29.14107247992798
 20
-6.263625501482781
 30
0.0
 10
-29.26105618946842
 20
-6.306404504805434
 30
0.0
 10
-29.38081600254192
 20
-6.346360533096871
 30
0.0
 10
-29.50000000186265
 20
-6.383282519379565
 30
0.0
  0
LINE
  5
14B
330
76
100
AcDbEntity
  8
0
 62
     7
370
    35
100
AcDbLine
 10
-29.5
 20
-6.383287
 30
0.0
 11
-29.5
 21
-6.396485
 31
0.0
  0
LINE
  5
14C
330
76
100
AcDbEntity
  8
0
 62
     7
370
    35
100
AcDbLine
 10
-29.5
 20
-6.396423
 30
0.0
 11
-29.5
 21
-6.907336
 31
0.0
  0
SPLINE
  5
14D
330
76
100
AcDbEntity
  8
0
 62
     7
370
    13
100
AcDbSpline
210
0.0
220
0.0
230
1.0
 70
     8
 71
     5
 72
    12
 73
     6
 74
     0
 42
0.000000001
 43
0.0
 40
0.0
 40
0.0
 40
0.0
 40
0.0
 40
0.0
 40
0.0
 40
85.79150250584146
 40
85.79150250584146
 40
85.79150250584146
 40
85.79150250584146
 40
85.79150250584146
 40
85.79150250584146
 10
-29.49999999627831
 20
-6.907335832566474
 30
0.0
 10
-17.69202249148426
 20
-4.178939136481879
 30
0.0
 10
-5.8961971920709
 20
-1.342460514515393
 30
0.0
 10
5.895214253537568
 20
1.528443351500623
 30
0.0
 10
17.69138700093111
 20
4.362057367532093
 30
0.0
 10
29.4999999962685
 20
7.084787561459714
 30
0.0
  0
LINE
  5
14E
330
76
100
AcDbEntity
  8
0
 62
     7
370
    35
100
AcDbLine
 10
-29.5
 20
-6.907336
 30
0.0
 11
-29.5
 21
-6.996109
 31
0.0
  0
LINE
  5
14F
330
76
100
AcDbEntity
  8
0
 62
     7
370
    35
100
AcDbLine
 10
-29.5
 20
-6.996109
 30
0.0
 11
-29.5
 21
-7.084788
 31
0.0
  0
SPLINE
  5
150
330
76
100
AcDbEntity
  8
0
 62
     7
370
    13
100
AcDbSpline
210
0.0
220
0.0
230
1.0
 70
     8
 71
     5
 72
    12
 73
     6
 74
     0
 42
0.000000001
 43
0.0
 40
0.0
 40
0.0
 40
0.0
 40
0.0
 40
0.0
 40
0.0
 40
85.9025263749923
 40
85.9025263749923
 40
85.9025263749923
 40
85.9025263749923
 40
85.9025263749923
 40
85.9025263749923
 10
-29.49999999627827
 20
-7.084787561461956
 30
0.0
 10
-17.69140921396027
 20
-4.362062489216115
 30
0.0
 10
-5.895226541153699
 20
-1.528446612600368
 30
0.0
 10
5.896206942388043
 20
1.342463153664776
 30
0.0
 10
17.69204305943616
 20
4.178943889006057
 30
0.0
 10
29.49999999626851
 20
6.907335832564216
 30
0.0
  0
SPLINE
  5
151
330
76
100
AcDbEntity
  8
0
 62
     7
370
    35
100
AcDbSpline
210
0.0
220
0.0
230
1.0
 70
     8
 71
     5
 72
    15
 73
     9
 74
     0
 42
0.000000001
 43
0.0
 40
0.0
 40
0.0
 40
0.0
 40
0.0
 40
0.0
 40
0.0
 40
3.26215053452733
 40
3.26215053452733
 40
3.26215053452733
 40
4.634034991754261
 40
4.634034991754261
 40
4.634034991754261
 40
4.634034991754261
 40
4.634034991754261
 40
4.634034991754261
 10
27.47848196286787
 20
5.464175720876025
 30
0.0
 10
27.76061488812013
 20
5.630125468305478
 30
0.0
 10
28.04426448268712
 20
5.784599096861734
 30
0.0
 10
28.32878810739229
 20
5.926606349229642
 30
0.0
 10
28.73527726983243
 20
6.109965741561491
 30
0.0
 10
29.14107247268961
 20
6.263625498781549
 30
0.0
 10
29.26105618361131
 20
6.306404502650777
 30
0.0
 10
29.38081599624913
 20
6.346360530913511
 30
0.0
 10
29.4999999951488
 20
6.383282517197586
 30
0.0
  0
LINE
  5
152
330
76
100
AcDbEntity
  8
0
 62
     7
370
    35
100
AcDbLine
 10
-29.5
 20
-7.084788
 30
0.0
 11
-29.5
 21
-8.415771
 31
0.0
  0
SPLINE
  5
153
330
76
100
AcDbEntity
  8
0
 62
     7
370
    35
100
AcDbSpline
210
0.0
220
0.0
230
1.0
 70
     8
 71
     5
 72
    15
 73
     9
 74
     0
 42
0.000000001
 43
0.0
 40
0.0
 40
0.0
 40
0.0
 40
0.0
 40
0.0
 40
0.0
 40
3.119272110007264
 40
3.119272110007264
 40
3.119272110007264
 40
4.428666472977394
 40
4.428666472977394
 40
4.428666472977394
 40
4.428666472977394
 40
4.428666472977394
 40
4.428666472977394
 10
-27.4784819628581
 20
-9.369594449890405
 30
0.0
 10
-27.76442384039179
 20
-9.20940385461215
 30
0.0
 10
-28.05072663007393
 20
-9.057059699704661
 30
0.0
 10
-28.3366882496453
 20
-8.913444424189974
 30
0.0
 10
-28.74305602801562
 20
-8.72243064342243
 30
0.0
 10
-29.14584203082494
 20
-8.553222505947165
 30
0.0
 10
-29.26451682321454
 20
-8.505207500798145
 30
0.0
 10
-29.38268461927582
 20
-8.459316548599816
 30
0.0
 10
-29.49999999515858
 20
-8.415771770941028
 30
0.0
  0
SPLINE
  5
154
330
76
100
AcDbEntity
  8
0
 62
     7
370
    35
100
AcDbSpline
210
0.0
220
0.0
230
1.0
 70
     8
 71
     5
 72
    12
 73
     6
 74
     0
 42
0.000000001
 43
0.0
 40
0.0
 40
0.0
 40
0.0
 40
0.0
 40
0.0
 40
0.0
 40
40.15162598536498
 40
40.15162598536498
 40
40.15162598536498
 40
40.15162598536498
 40
40.15162598536498
 40
40.15162598536498
 10
0.0000000000000746
 20
-2.022189764689173
 30
0.0
 10
-5.491760526684923
 20
-3.521657192989776
 30
0.0
 10
-10.98441799320029
 20
-5.014345577413498
 30
0.0
 10
-16.47916193566991
 20
-6.492096636829532
 30
0.0
 10
-21.97682601301279
 20
-7.946626132889757
 30
0.0
 10
-27.4784514705491
 20
-9.36958656324904
 30
0.0
  0
SPLINE
  5
155
330
76
100
AcDbEntity
  8
0
 62
     7
370
    35
100
AcDbSpline
210
0.0
220
0.0
230
1.0
 70
     8
 71
     5
 72
    12
 73
     6
 74
     0
 42
0.000000001
 43
0.0
 40
0.0
 40
0.0
 40
0.0
 40
0.0
 40
0.0
 40
0.0
 40
40.17728680555947
 40
40.17728680555947
 40
40.17728680555947
 40
40.17728680555947
 40
40.17728680555947
 40
40.17728680555947
 10
27.47845147048997
 20
5.464167527720152
 30
0.0
 10
21.98014541341632
 20
3.986798982237194
 30
0.0
 10
16.48423279458941
 20
2.491084300863339
 30
0.0
 10
10.9896425200179
 20
0.9854493546022388
 30
0.0
 10
5.495270299352168
 20
-0.5217640298911375
 30
0.0
 10
-0.0000000000000107
 20
-2.022189764689196
 30
0.0
  0
LINE
  5
156
330
76
100
AcDbEntity
  8
0
 62
     7
370
    35
100
AcDbLine
 10
27.478454
 20
4.391905
 30
0.0
 11
27.478454
 21
5.464163
 31
0.0
  0
SPLINE
  5
157
330
76
100
AcDbEntity
  8
0
 62
     7
370
    35
100
AcDbSpline
210
0.0
220
0.0
230
1.0
 70
     8
 71
     5
 72
    15
 73
     9
 74
     0
 42
0.000000001
 43
0.0
 40
0.0
 40
0.0
 40
0.0
 40
0.0
 40
0.0
 40
0.0
 40
3.072681123015541
 40
3.072681123015541
 40
3.072681123015541
 40
4.368306819486681
 40
4.368306819486681
 40
4.368306819486681
 40
4.368306819486681
 40
4.368306819486681
 40
4.368306819486681
 10
27.47848196287265
 20
4.391919172518587
 30
0.0
 10
27.76489471652299
 20
4.278239041735517
 30
0.0
 10
28.0514308499857
 20
4.172996157539711
 30
0.0
 10
28.33735778327185
 20
4.076949250063946
 30
0.0
 10
28.74375614311298
 20
3.954109697211037
 30
0.0
 10
29.14581723322414
 20
3.853526692866009
 30
0.0
 10
29.26457975505481
 20
3.825741594399336
 30
0.0
 10
29.38275800568141
 20
3.800097435237062
 30
0.0
 10
29.49999999415815
 20
3.776755515778691
 30
0.0
  0
SPLINE
  5
158
330
76
100
AcDbEntity
  8
0
 62
     7
370
    35
100
AcDbSpline
210
0.0
220
0.0
230
1.0
 70
     8
 71
     5
 72
    12
 73
     6
 74
     0
 42
0.000000001
 43
0.0
 40
0.0
 40
0.0
 40
0.0
 40
0.0
 40
0.0
 40
0.0
 40
49.34528852667145
 40
49.34528852667145
 40
49.34528852667145
 40
49.34528852667145
 40
49.34528852667145
 40
49.34528852667145
 10
-0.0000000000000053
 20
-3.106339142513598
 30
0.0
 10
5.496050586379763
 20
-1.610771814421696
 30
0.0
 10
10.99120472434222
 20
-0.1047859758444968
 30
0.0
 10
16.48614083457836
 20
1.403454551392098
 30
0.0
 10
21.98167512928058
 20
2.905091544170001
 30
0.0
 10
27.47848472956447
 20
4.391913439248233
 30
0.0
  0
SPLINE
  5
159
330
76
100
AcDbEntity
  8
0
 62
     7
370
    35
100
AcDbSpline
210
0.0
220
0.0
230
1.0
 70
     8
 71
     5
 72
    12
 73
     6
 74
     0
 42
0.000000001
 43
0.0
 40
0.0
 40
0.0
 40
0.0
 40
0.0
 40
0.0
 40
0.0
 40
49.31330433241509
 40
49.31330433241509
 40
49.31330433241509
 40
49.31330433241509
 40
49.31330433241509
 40
49.31330433241509
 10
-27.47848472955149
 20
-10.39113675008635
 30
0.0
 10
-21.97830828347522
 20
-8.988362213963075
 30
0.0
 10
-16.4809861437503
 20
-7.550371069052718
 30
0.0
 10
-10.98589082348449
 20
-6.084988708478236
 30
0.0
 10
-5.492488204745031
 20
-4.600937086954554
 30
0.0
 10
0.0000000000000071
 20
-3.106339142513575
 30
0.0
  0
ARC
  5
15A
330
76
100
AcDbEntity
  8
0
 62
     7
370
    35
100
AcDbCircle
 10
-30.701282
 20
-1.883571
 30
0.0
 40
9.0974130421427
100
AcDbArc
 50
283.780319
 51
290.747481
  0
ARC
  5
15B
330
76
100
AcDbEntity
  8
0
 62
     7
370
    35
100
AcDbCircle
 10
-30.318157
 20
-3.45547
 30
0.0
 40
7.479252775358705
100
AcDbArc
 50
276.280273
 51
283.798156
  0
LINE
  5
15C
330
76
100
AcDbEntity
  8
0
 62
     7
370
    35
100
AcDbLine
 10
-29.5
 20
-10.889658
 30
0.0
 11
-29.5
 21
-11.108874
 31
0.0
  0
SPLINE
  5
15D
330
76
100
AcDbEntity
  8
0
 62
     7
370
    13
100
AcDbSpline
210
0.0
220
0.0
230
1.0
 70
     8
 71
     5
 72
    12
 73
     6
 74
     0
 42
0.000000001
 43
0.0
 40
0.0
 40
0.0
 40
0.0
 40
0.0
 40
0.0
 40
0.0
 40
86.05373907240194
 40
86.05373907240194
 40
86.05373907240194
 40
86.05373907240194
 40
86.05373907240194
 40
86.05373907240194
 10
-29.50000000316788
 20
-11.10887447092608
 30
0.0
 10
-17.65185401751877
 20
-8.554997534190358
 30
0.0
 10
-5.822071276694984
 20
-5.825490844525458
 30
0.0
 10
5.868098098665716
 20
-3.022586965038485
 30
0.0
 10
17.68162484706171
 20
-0.1566487180956706
 30
0.0
 10
29.49999998936912
 20
2.667577651264549
 30
0.0
  0
LINE
  5
15E
330
76
100
AcDbEntity
  8
0
 62
     7
370
    35
100
AcDbLine
 10
-29.5
 20
-11.108874
 30
0.0
 11
-29.5
 21
-11.191656
 31
0.0
  0
LINE
  5
15F
330
76
100
AcDbEntity
  8
0
 62
     7
370
    35
100
AcDbLine
 10
-29.5
 20
-11.191656
 30
0.0
 11
-29.5
 21
-11.274287
 31
0.0
  0
SPLINE
  5
160
330
76
100
AcDbEntity
  8
0
 62
     7
370
    13
100
AcDbSpline
210
0.0
220
0.0
230
1.0
 70
     8
 71
     5
 72
    12
 73
     6
 74
     0
 42
0.000000001
 43
0.0
 40
0.0
 40
0.0
 40
0.0
 40
0.0
 40
0.0
 40
0.0
 40
86.05087218454202
 40
86.05087218454202
 40
86.05087218454202
 40
86.05087218454202
 40
86.05087218454202
 40
86.05087218454202
 10
-29.49999999627832
 20
-11.27428656840027
 30
0.0
 10
-17.65129724040274
 20
-8.729620679998028
 30
0.0
 10
-5.821167681706748
 20
-6.006663650553843
 30
0.0
 10
5.869038017074816
 20
-3.207472175178728
 30
0.0
 10
17.68226004004987
 20
-0.3424268423351196
 30
0.0
 10
29.49999999626848
 20
2.483789738656077
 30
0.0
  0
SPLINE
  5
161
330
76
100
AcDbEntity
  8
0
 62
     7
370
    35
100
AcDbSpline
210
0.0
220
0.0
230
1.0
 70
     8
 71
     5
 72
    15
 73
     9
 74
     0
 42
0.000000001
 43
0.0
 40
0.0
 40
0.0
 40
0.0
 40
0.0
 40
0.0
 40
0.0
 40
3.333935583466534
 40
3.333935583466534
 40
3.333935583466534
 40
4.727130459905915
 40
4.727130459905915
 40
4.727130459905915
 40
4.727130459905915
 40
4.727130459905915
 40
4.727130459905915
 10
27.47848196286789
 20
0.3615922386670172
 30
0.0
 10
27.75995620414684
 20
0.5814470504885159
 30
0.0
 10
28.04326890106494
 20
0.7905942099429777
 30
0.0
 10
28.32783822432215
 20
0.9878428563011096
 30
0.0
 10
28.7342739947294
 20
1.250053250282634
 30
0.0
 10
29.14111098115092
 20
1.482796885385467
 30
0.0
 10
29.26096977399012
 20
1.548696629409104
 30
0.0
 10
29.38071264147074
 20
1.611760049075626
 30
0.0
 10
29.49999999514892
 20
1.671693124695727
 30
0.0
  0
LINE
  5
162
330
76
100
AcDbEntity
  8
0
 62
     7
370
    35
100
AcDbLine
 10
-29.5
 20
-11.274287
 30
0.0
 11
-29.5
 21
-12.784297
 31
0.0
  0
ARC
  5
163
330
76
100
AcDbEntity
  8
0
 62
     7
370
    35
100
AcDbCircle
 10
-38.653624
 20
-29.670638
 30
0.0
 40
19.20867824430735
100
AcDbArc
 50
54.426464
 51
61.539088
  0
SPLINE
  5
164
330
76
100
AcDbEntity
  8
0
 62
     7
370
    35
100
AcDbSpline
210
0.0
220
0.0
230
1.0
 70
     8
 71
     5
 72
    12
 73
     6
 74
     0
 42
0.000000001
 43
0.0
 40
0.0
 40
0.0
 40
0.0
 40
0.0
 40
0.0
 40
0.0
 40
40.08261329371698
 40
40.08261329371698
 40
40.08261329371698
 40
40.08261329371698
 40
40.08261329371698
 40
40.08261329371698
 10
0.0000000000000799
 20
-7.085723828987936
 30
0.0
 10
-5.487740632721293
 20
-8.541057576620474
 30
0.0
 10
-10.97853541267581
 20
-9.972625575974845
 30
0.0
 10
-16.47369517632256
 20
-11.37271652686195
 30
0.0
 10
-21.97332016993132
 20
-12.73321903343627
 30
0.0
 10
-27.47845147054871
 20
-14.04611598033657
 30
0.0
  0
SPLINE
  5
165
330
76
100
AcDbEntity
  8
0
 62
     7
370
    35
100
AcDbSpline
210
0.0
220
0.0
230
1.0
 70
     8
 71
     5
 72
    12
 73
     6
 74
     0
 42
0.000000001
 43
0.0
 40
0.0
 40
0.0
 40
0.0
 40
0.0
 40
0.0
 40
0.0
 40
40.17002890026405
 40
40.17002890026405
 40
40.17002890026405
 40
40.17002890026405
 40
40.17002890026405
 40
40.17002890026405
 10
27.47845147048952
 20
0.3615838927010562
 30
0.0
 10
21.98463347572982
 20
-1.142110486991674
 30
0.0
 10
16.49098169286436
 20
-2.647022936683141
 30
0.0
 10
10.99635006170777
 20
-4.144839038686196
 30
0.0
 10
5.499708768942099
 20
-5.627216164491628
 30
0.0
 10
0.0000000000000053
 20
-7.085723828987955
 30
0.0
  0
LINE
  5
166
330
76
100
AcDbEntity
  8
0
 62
     7
370
    35
100
AcDbLine
 10
27.478454
 20
-0.726935
 30
0.0
 11
27.478454
 21
0.361574
 31
0.0
  0
ARC
  5
167
330
76
100
AcDbEntity
  8
0
 62
     7
370
    35
100
AcDbCircle
 10
29.811492
 20
9.483333
 30
0.0
 40
10.472514985464
100
AcDbArc
 50
257.129057
 51
268.29541
  0
SPLINE
  5
168
330
76
100
AcDbEntity
  8
0
 62
     7
370
    35
100
AcDbSpline
210
0.0
220
0.0
230
1.0
 70
     8
 71
     5
 72
    12
 73
     6
 74
     0
 42
0.000000001
 43
0.0
 40
0.0
 40
0.0
 40
0.0
 40
0.0
 40
0.0
 40
0.0
 40
49.33167002626178
 40
49.33167002626178
 40
49.33167002626178
 40
49.33167002626178
 40
49.33167002626178
 40
49.33167002626178
 10
-0.0000000000000053
 20
-8.135027753773942
 30
0.0
 10
5.498947661349964
 20
-6.691899598450171
 30
0.0
 10
10.99561005776835
 20
-5.221296923623023
 30
0.0
 10
16.49061402317588
 20
-3.731157714107237
 30
0.0
 10
21.98465523811419
 20
-2.230279906149125
 30
0.0
 10
27.47848472956453
 20
-0.7269268108933318
 30
0.0
  0
ARC
  5
169
330
76
100
AcDbEntity
  8
0
 62
     7
370
    35
100
AcDbCircle
 10
-284.83671
 20
1073.440381
 30
0.0
 40
1118.452093235248
100
AcDbArc
 50
283.697568
 51
284.754046
  0
ARC
  5
16A
330
76
100
AcDbEntity
  8
0
 62
     7
370
    35
100
AcDbCircle
 10
-218.611921
 20
804.245289
 30
0.0
 40
841.2305815044806
100
AcDbArc
 50
283.13269
 51
283.656924
  0
ARC
  5
16B
330
76
100
AcDbEntity
  8
0
 62
     7
370
    35
100
AcDbCircle
 10
-28.741032
 20
-6.940842
 30
0.0
 40
8.14126154240034
100
AcDbArc
 50
264.6505
 51
278.920904
  0
SPLINE
  5
16C
330
76
100
AcDbEntity
  8
0
 62
     7
370
    13
100
AcDbSpline
210
0.0
220
0.0
230
1.0
 70
     8
 71
     5
 72
    12
 73
     6
 74
     0
 42
0.000000001
 43
0.0
 40
0.0
 40
0.0
 40
0.0
 40
0.0
 40
0.0
 40
0.0
 40
66.02396365453383
 40
66.02396365453383
 40
66.02396365453383
 40
66.02396365453383
 40
66.02396365453383
 40
66.02396365453383
 10
-15.91151675287858
 20
-12.2102129905742
 30
0.0
 10
-6.804247286046535
 20
-10.29732515850291
 30
0.0
 10
2.291476446828456
 20
-8.2713592502816
 30
0.0
 10
11.34096066063017
 20
-6.170384203925365
 30
0.0
 10
20.42146382081705
 20
-4.011368147448971
 30
0.0
 10
29.49999999626849
 20
-1.83537039628798
 30
0.0
  0
LINE
  5
16D
330
76
100
AcDbEntity
  8
0
 62
     7
370
    35
100
AcDbLine
 10
-29.5
 20
-15.046107
 30
0.0
 11
-29.5
 21
-15.101421
 31
0.0
  0
LINE
  5
16E
330
76
100
AcDbEntity
  8
0
 62
     7
370
    13
100
AcDbLine
 10
-29.5
 20
-15.101421
 30
0.0
 11
-29.300523
 21
-15.063083
 31
0.0
  0
SPLINE
  5
16F
330
76
100
AcDbEntity
  8
0
 62
     7
370
    13
100
AcDbSpline
210
0.0
220
0.0
230
1.0
 70
     8
 71
     5
 72
    12
 73
     6
 74
     0
 42
0.000000001
 43
0.0
 40
0.0
 40
0.0
 40
0.0
 40
0.0
 40
0.0
 40
0.0
 40
72.60906653186352
 40
72.60906653186352
 40
72.60906653186352
 40
72.60906653186352
 40
72.60906653186352
 40
72.60906653186352
 10
-20.3525642634375
 20
-13.28888755323969
 30
0.0
 10
-10.34400291018512
 20
-11.24742776443281
 30
0.0
 10
-0.3501855313932163
 20
-9.056890861282856
 30
0.0
 10
9.554859770312433
 20
-6.774288610018563
 30
0.0
 10
19.52873171746606
 20
-4.408208247150355
 30
0.0
 10
29.49999999626851
 20
-2.019587401121458
 30
0.0
  0
SPLINE
  5
170
330
76
100
AcDbEntity
  8
0
 62
     7
370
    35
100
AcDbSpline
210
0.0
220
0.0
230
1.0
 70
     8
 71
     5
 72
    15
 73
     9
 74
     0
 42
0.000000001
 43
0.0
 40
0.0
 40
0.0
 40
0.0
 40
0.0
 40
0.0
 40
0.0
 40
3.414519025141074
 40
3.414519025141074
 40
3.414519025141074
 40
4.835323526735779
 40
4.835323526735779
 40
4.835323526735779
 40
4.835323526735779
 40
4.835323526735779
 40
4.835323526735779
 10
27.47848196286786
 20
-4.752613115611909
 30
0.0
 10
27.75958166828289
 20
-4.485887501888525
 30
0.0
 10
28.0426797262454
 20
-4.228821343259836
 30
0.0
 10
28.32723228802026
 20
-3.982737200637403
 30
0.0
 10
28.73355990930357
 20
-3.650192730754573
 30
0.0
 10
29.14108498903622
 20
-3.345721464094225
 30
0.0
 10
29.26086145855559
 20
-3.258834425038264
 30
0.0
 10
29.3806083524894
 20
-3.174682511889075
 30
0.0
 10
29.49999999514885
 20
-3.093625860307748
 30
0.0
  0
LINE
  5
171
330
76
100
AcDbEntity
  8
0
 62
     7
370
    35
100
AcDbLine
 10
-29.5
 20
-15.101421
 30
0.0
 11
-29.5
 21
-16.741925
 31
0.0
  0
ARC
  5
172
330
76
100
AcDbEntity
  8
0
 62
     7
370
    35
100
AcDbCircle
 10
-44.278345
 20
-38.351424
 30
0.0
 40
26.18034382789652
100
AcDbArc
 50
50.082896
 51
55.632481
  0
SPLINE
  5
173
330
76
100
AcDbEntity
  8
0
 62
     7
370
    35
100
AcDbSpline
210
0.0
220
0.0
230
1.0
 70
     8
 71
     5
 72
    12
 73
     6
 74
     0
 42
0.000000001
 43
0.0
 40
0.0
 40
0.0
 40
0.0
 40
0.0
 40
0.0
 40
0.0
 40
49.1838075441168
 40
49.1838075441168
 40
49.1838075441168
 40
49.1838075441168
 40
49.1838075441168
 40
49.1838075441168
 10
0.0000000000000036
 20
-11.92151689928383
 30
0.0
 10
-5.488394360443873
 20
-13.28725552372931
 30
0.0
 10
-10.97998013257341
 20
-14.61263422499649
 30
0.0
 10
-16.47572405814164
 20
-15.89018690346558
 30
0.0
 10
-21.97500068643314
 20
-17.11190348382689
 30
0.0
 10
-27.47845423727095
 20
-18.27120159916201
 30
0.0
  0
SPLINE
  5
174
330
76
100
AcDbEntity
  8
0
 62
     7
370
    35
100
AcDbSpline
210
0.0
220
0.0
230
1.0
 70
     8
 71
     5
 72
    12
 73
     6
 74
     0
 42
0.000000001
 43
0.0
 40
0.0
 40
0.0
 40
0.0
 40
0.0
 40
0.0
 40
0.0
 40
49.29626033714109
 40
49.29626033714109
 40
49.29626033714109
 40
49.29626033714109
 40
49.29626033714109
 40
49.29626033714109
 10
27.47845423721194
 20
-4.752635920404474
 30
0.0
 10
21.98684893502125
 20
-6.234981999683425
 30
0.0
 10
16.49387162741704
 20
-7.701277081030245
 30
0.0
 10
10.99869701014381
 20
-9.14337988440544
 30
0.0
 10
5.500942906517801
 20
-10.55265567960778
 30
0.0
 10
0.0000000000000018
 20
-11.92151689928391
 30
0.0
  0
LINE
  5
175
330
76
100
AcDbEntity
  8
0
 62
     7
370
    35
100
AcDbLine
 10
27.478454
 20
-5.822411
 30
0.0
 11
27.478454
 21
-4.752636
 31
0.0
  0
ARC
  5
176
330
76
100
AcDbEntity
  8
0
 62
     7
370
    35
100
AcDbCircle
 10
27.929356
 20
4.651465
 30
0.0
 40
10.48290960956041
100
AcDbArc
 50
267.535077
 51
278.61757
  0
SPLINE
  5
177
330
76
100
AcDbEntity
  8
0
 62
     7
370
    35
100
AcDbSpline
210
0.0
220
0.0
230
1.0
 70
     8
 71
     5
 72
    12
 73
     6
 74
     0
 42
0.000000001
 43
0.0
 40
0.0
 40
0.0
 40
0.0
 40
0.0
 40
0.0
 40
0.0
 40
49.2834448810056
 40
49.2834448810056
 40
49.2834448810056
 40
49.2834448810056
 40
49.2834448810056
 40
49.2834448810056
 10
0.0000000000000053
 20
-12.90224987950481
 30
0.0
 10
5.501421367999136
 20
-11.55812818335041
 30
0.0
 10
10.99945060175844
 20
-10.17022265807851
 30
0.0
 10
16.49469594050603
 20
-8.746000197117208
 30
0.0
 10
21.98742498711633
 20
-7.294032103972965
 30
0.0
 10
27.47848472956444
 20
-5.82240303521499
 30
0.0
  0
LINE
  5
178
330
76
100
AcDbEntity
  8
0
 62
     7
370
    35
100
AcDbLine
 10
-1.222475
 20
-13.200038
 30
0.0
 11
0.0
 21
-12.90225
 31
0.0
  0
SPLINE
  5
179
330
76
100
AcDbEntity
  8
0
 62
     7
370
    35
100
AcDbSpline
210
0.0
220
0.0
230
1.0
 70
     8
 71
     5
 72
    12
 73
     6
 74
     0
 42
0.000000001
 43
0.0
 40
0.0
 40
0.0
 40
0.0
 40
0.0
 40
0.0
 40
0.0
 40
46.97388693366675
 40
46.97388693366675
 40
46.97388693366675
 40
46.97388693366675
 40
46.97388693366675
 40
46.97388693366675
 10
-27.47848472955172
 20
-19.09550666117387
 30
0.0
 10
-22.21999088379388
 20
-18.0235758530705
 30
0.0
 10
-16.96535721174597
 20
-16.8920346384879
 30
0.0
 10
-11.71400476928918
 20
-15.70644957873266
 30
0.0
 10
-6.466666547462005
 20
-14.47364541845519
 30
0.0
 10
-1.222474736070977
 20
-13.2000377736429
 30
0.0
  0
ARC
  5
17A
330
76
100
AcDbEntity
  8
0
 62
     7
370
    35
100
AcDbCircle
 10
-26.754833
 20
-9.59391
 30
0.0
 40
9.52907941592101
100
AcDbArc
 50
253.256681
 51
265.644715
  0
SPLINE
  5
17B
330
76
100
AcDbEntity
  8
0
 62
     7
370
    13
100
AcDbSpline
210
0.0
220
0.0
230
1.0
 70
     8
 71
     5
 72
    12
 73
     6
 74
     0
 42
0.000000001
 43
0.0
 40
0.0
 40
0.0
 40
0.0
 40
0.0
 40
0.0
 40
0.0
 40
38.68592993894792
 40
38.68592993894792
 40
38.68592993894792
 40
38.68592993894792
 40
38.68592993894792
 40
38.68592993894792
 10
2.852882331849399
 20
-12.21032225852429
 30
0.0
 10
8.189171830779147
 20
-11.08948125407925
 30
0.0
 10
13.52147260984925
 20
-9.929552202185754
 30
0.0
 10
18.85052242515044
 20
-8.736943756775302
 30
0.0
 10
24.17638908892381
 20
-7.518127835731541
 30
0.0
 10
29.49999999626849
 20
-6.279328130804751
 30
0.0
  0
SPLINE
  5
17C
330
76
100
AcDbEntity
  8
0
 62
     7
370
    13
100
AcDbSpline
210
0.0
220
0.0
230
1.0
 70
     8
 71
     5
 72
    12
 73
     6
 74
     0
 42
0.000000001
 43
0.0
 40
0.0
 40
0.0
 40
0.0
 40
0.0
 40
0.0
 40
0.0
 40
45.1528306253871
 40
45.1528306253871
 40
45.1528306253871
 40
45.1528306253871
 40
45.1528306253871
 40
45.1528306253871
 10
-1.592080984773871
 20
-13.28971777883163
 30
0.0
 10
4.631885960694786
 20
-12.0204733988706
 30
0.0
 10
10.850122402841
 20
-10.69324283549597
 30
0.0
 10
17.08527216158664
 20
-9.312724765747081
 30
0.0
 10
23.29420543785852
 20
-7.899355444326535
 30
0.0
 10
29.4999999962685
 20
-6.458053340104914
 30
0.0
  0
SPLINE
  5
17D
330
76
100
AcDbEntity
  8
0
 62
     7
370
    35
100
AcDbSpline
210
0.0
220
0.0
230
1.0
 70
     8
 71
     5
 72
    15
 73
     9
 74
     0
 42
0.000000001
 43
0.0
 40
0.0
 40
0.0
 40
0.0
 40
0.0
 40
0.0
 40
0.0
 40
3.493386661765011
 40
3.493386661765011
 40
3.493386661765011
 40
4.944315529827796
 40
4.944315529827796
 40
4.944315529827796
 40
4.944315529827796
 40
4.944315529827796
 40
4.944315529827796
 10
27.47848196286786
 20
-9.714065573891949
 30
0.0
 10
27.75950021902132
 20
-9.40883786130717
 30
0.0
 10
28.04251908506901
 20
-9.112059521180356
 30
0.0
 10
28.32700874118179
 20
-8.825130551491148
 30
0.0
 10
28.73319997638838
 20
-8.433034345656486
 30
0.0
 10
29.14100829026214
 20
-8.06675689235043
 30
0.0
 10
29.26075101382499
 20
-7.961660482897539
 30
0.0
 10
29.3805190726636
 20
-7.859110189246353
 30
0.0
 10
29.49999999514884
 20
-7.759513164716941
 30
0.0
  0
LINE
  5
17E
330
76
100
AcDbEntity
  8
0
 62
     7
370
    35
100
AcDbLine
 10
-29.5
 20
-18.71892
 30
0.0
 11
-29.5
 21
-20.161455
 31
0.0
  0
ARC
  5
17F
330
76
100
AcDbEntity
  8
0
 62
     7
370
    35
100
AcDbCircle
 10
-52.504697
 20
-48.790404
 30
0.0
 40
36.72705379868375
100
AcDbArc
 50
47.046868
 51
51.216496
  0
SPLINE
  5
180
330
76
100
AcDbEntity
  8
0
 62
     7
370
    35
100
AcDbSpline
210
0.0
220
0.0
230
1.0
 70
     8
 71
     5
 72
    12
 73
     6
 74
     0
 42
0.000000001
 43
0.0
 40
0.0
 40
0.0
 40
0.0
 40
0.0
 40
0.0
 40
0.0
 40
39.85979999426346
 40
39.85979999426346
 40
39.85979999426346
 40
39.85979999426346
 40
39.85979999426346
 40
39.85979999426346
 10
0.0000000000000799
 20
-16.37414260735279
 30
0.0
 10
-5.482916710739499
 20
-17.60488110788921
 30
0.0
 10
-10.97185295922841
 20
-18.78027955015932
 30
0.0
 10
-16.46839849389853
 20
-19.89409761269913
 30
0.0
 10
-21.97021239978145
 20
-20.93918241910087
 30
0.0
 10
-27.47845147054867
 20
-21.90901623098546
 30
0.0
  0
SPLINE
  5
181
330
76
100
AcDbEntity
  8
0
 62
     7
370
    35
100
AcDbSpline
210
0.0
220
0.0
230
1.0
 70
     8
 71
     5
 72
    12
 73
     6
 74
     0
 42
0.000000001
 43
0.0
 40
0.0
 40
0.0
 40
0.0
 40
0.0
 40
0.0
 40
0.0
 40
40.03155444231004
 40
40.03155444231004
 40
40.03155444231004
 40
40.03155444231004
 40
40.03155444231004
 40
40.03155444231004
 10
27.47845147048996
 20
-9.714073424449186
 30
0.0
 10
21.99249158070575
 20
-11.12648671746519
 30
0.0
 10
16.50247691955107
 20
-12.50636259703053
 30
0.0
 10
11.00701328172558
 20
-13.84624124154703
 30
0.0
 10
5.506542402124731
 20
-15.13810089877522
 30
0.0
 10
0.0
 20
-16.37414260735281
 30
0.0
  0
LINE
  5
182
330
76
100
AcDbEntity
  8
0
 62
     7
370
    35
100
AcDbLine
 10
27.478454
 20
-10.73075
 30
0.0
 11
27.478454
 21
-9.714092
 31
0.0
  0
ARC
  5
183
330
76
100
AcDbEntity
  8
0
 62
     7
370
    35
100
AcDbCircle
 10
25.671162
 20
1.659713
 30
0.0
 40
12.52150435848038
100
AcDbArc
 50
278.298872
 51
283.595176
  0
ARC
  5
184
330
76
100
AcDbEntity
  8
0
 62
     7
370
    35
100
AcDbCircle
 10
25.998041
 20
0.316331
 30
0.0
 40
11.13882650191969
100
AcDbArc
 50
283.585176
 51
288.324212
  0
ARC
  5
185
330
76
100
AcDbEntity
  8
0
 62
     7
370
    35
100
AcDbCircle
 10
-218.308193
 20
957.132887
 30
0.0
 40
998.5844238636518
100
AcDbArc
 50
283.661575
 51
284.248923
  0
ARC
  5
186
330
76
100
AcDbEntity
  8
0
 62
     7
370
    35
100
AcDbCircle
 10
-165.466738
 20
738.298048
 30
0.0
 40
773.459869088759
100
AcDbArc
 50
282.352805
 51
283.686716
  0
SPLINE
  5
187
330
76
100
AcDbEntity
  8
0
 62
     7
370
    35
100
AcDbSpline
210
0.0
220
0.0
230
1.0
 70
     8
 71
     5
 72
    12
 73
     6
 74
     0
 42
0.000000001
 43
0.0
 40
0.0
 40
0.0
 40
0.0
 40
0.0
 40
0.0
 40
0.0
 40
39.83302940298812
 40
39.83302940298812
 40
39.83302940298812
 40
39.83302940298812
 40
39.83302940298812
 40
39.83302940298812
 10
-27.47848196285926
 20
-22.59312961311164
 30
0.0
 10
-21.97027709721478
 20
-21.66791706120635
 30
0.0
 10
-16.46840159382498
 20
-20.66500178653741
 30
0.0
 10
-10.97167847035082
 20
-19.59067672327062
 30
0.0
 10
-5.482750309313799
 20
-18.45192375053047
 30
0.0
 10
0.0000000000000089
 20
-17.2547830780819
 30
0.0
  0
ARC
  5
188
330
76
100
AcDbEntity
  8
0
 62
     7
370
    35
100
AcDbCircle
 10
-23.629864
 20
-9.964805
 30
0.0
 40
13.2019743093919
100
AcDbArc
 50
243.600043
 51
253.050836
  0
ARC
  5
189
330
76
100
AcDbEntity
  8
0
 62
     7
370
    13
100
AcDbCircle
 10
-189.260633
 20
991.385142
 30
0.0
 40
1025.511077739907
100
AcDbArc
 50
281.866455
 51
282.316904
  0
ARC
  5
18A
330
76
100
AcDbEntity
  8
0
 62
     7
370
    13
100
AcDbCircle
 10
-177.117753
 20
938.146633
 30
0.0
 40
971.0713364963298
100
AcDbArc
 50
281.541468
 51
282.284904
  0
SPLINE
  5
18B
330
76
100
AcDbEntity
  8
0
 62
     7
370
    35
100
AcDbSpline
210
0.0
220
0.0
230
1.0
 70
     8
 71
     5
 72
    15
 73
     9
 74
     0
 42
0.000000001
 43
0.0
 40
0.0
 40
0.0
 40
0.0
 40
0.0
 40
0.0
 40
0.0
 40
3.560910867557479
 40
3.560910867557479
 40
3.560910867557479
 40
5.040596601920321
 40
5.040596601920321
 40
5.040596601920321
 40
5.040596601920321
 40
5.040596601920321
 40
5.040596601920321
 10
27.47848196286791
 20
-14.3632999718673
 30
0.0
 10
27.75968420993149
 20
-14.02908446837254
 30
0.0
 10
28.04275145949103
 20
-13.70201894770764
 30
0.0
 10
28.3271467279689
 20
-13.38354085907774
 30
0.0
 10
28.73319602921078
 20
-12.94456633373748
 30
0.0
 10
29.14089712797463
 20
-12.52857413604011
 30
0.0
 10
29.26065321063551
 20
-12.40860967488651
 30
0.0
 10
29.38045478895454
 20
-12.29094079126478
 30
0.0
 10
29.499999995149
 20
-12.17600333146335
 30
0.0
  0
LINE
  5
18C
330
76
100
AcDbEntity
  8
0
 62
     7
370
    35
100
AcDbLine
 10
-29.5
 20
-21.790091
 30
0.0
 11
-29.5
 21
-22.932978
 31
0.0
  0
ARC
  5
18D
330
76
100
AcDbEntity
  8
0
 62
     7
370
    35
100
AcDbCircle
 10
-65.393602
 20
-62.929313
 30
0.0
 40
53.74107339296086
100
AcDbArc
 50
45.129306
 51
48.09449
  0
SPLINE
  5
18E
330
76
100
AcDbEntity
  8
0
 62
     7
370
    35
100
AcDbSpline
210
0.0
220
0.0
230
1.0
 70
     8
 71
     5
 72
    12
 73
     6
 74
     0
 42
0.000000001
 43
0.0
 40
0.0
 40
0.0
 40
0.0
 40
0.0
 40
0.0
 40
0.0
 40
39.7341188677081
 40
39.7341188677081
 40
39.7341188677081
 40
39.7341188677081
 40
39.7341188677081
 40
39.7341188677081
 10
0.000000000000087
 20
-20.30048989934588
 30
0.0
 10
-5.482745890821668
 20
-21.3580553134611
 30
0.0
 10
-10.97194468129758
 20
-22.3465845978188
 30
0.0
 10
-16.46930298598451
 20
-23.26085600491248
 30
0.0
 10
-21.97105097427216
 20
-24.094668310888
 30
0.0
 10
-27.47845147054943
 20
-24.84266698087496
 30
0.0
  0
SPLINE
  5
18F
330
76
100
AcDbEntity
  8
0
 62
     7
370
    35
100
AcDbSpline
210
0.0
220
0.0
230
1.0
 70
     8
 71
     5
 72
    12
 73
     6
 74
     0
 42
0.000000001
 43
0.0
 40
0.0
 40
0.0
 40
0.0
 40
0.0
 40
0.0
 40
0.0
 40
39.91765233664317
 40
39.91765233664317
 40
39.91765233664317
 40
39.91765233664317
 40
39.91765233664317
 40
39.91765233664317
 10
27.47845147048926
 20
-14.36330719012906
 30
0.0
 10
21.99489355725057
 20
-15.66139395299751
 30
0.0
 10
16.50579911836255
 20
-16.91117609434056
 30
0.0
 10
11.00962917280229
 20
-18.10591388184325
 30
0.0
 10
5.508070911265342
 20
-19.23803954869227
 30
0.0
 10
0.0000000000000178
 20
-20.3004898993459
 30
0.0
  0
LINE
  5
190
330
76
100
AcDbEntity
  8
0
 62
     7
370
    35
100
AcDbLine
 10
27.478454
 20
-15.294194
 30
0.0
 11
27.478454
 21
-14.36333
 31
0.0
  0
ARC
  5
191
330
76
100
AcDbEntity
  8
0
 62
     7
370
    35
100
AcDbCircle
 10
22.798251
 20
-0.861649
 30
0.0
 40
15.17215852766904
100
AcDbArc
 50
287.967041
 51
296.213805
  0
SPLINE
  5
192
330
76
100
AcDbEntity
  8
0
 62
     7
370
    35
100
AcDbSpline
210
0.0
220
0.0
230
1.0
 70
     8
 71
     5
 72
    12
 73
     6
 74
     0
 42
0.000000001
 43
0.0
 40
0.0
 40
0.0
 40
0.0
 40
0.0
 40
0.0
 40
0.0
 40
49.11104320540204
 40
49.11104320540204
 40
49.11104320540204
 40
49.11104320540204
 40
49.11104320540204
 40
49.11104320540204
 10
0.0000000000000018
 20
-21.05273335128598
 30
0.0
 10
5.503936114949092
 20
-20.03246879567299
 30
0.0
 10
11.00363133756456
 20
-18.94007130242651
 30
0.0
 10
16.49975752333991
 20
-17.78131921182139
 30
0.0
 10
21.99102258757256
 20
-16.56366894214123
 30
0.0
 10
27.47848472956472
 20
-15.29418694422271
 30
0.0
  0
SPLINE
  5
193
330
76
100
AcDbEntity
  8
0
 62
     7
370
    35
100
AcDbSpline
210
0.0
220
0.0
230
1.0
 70
     8
 71
     5
 72
    12
 73
     6
 74
     0
 42
0.000000001
 43
0.0
 40
0.0
 40
0.0
 40
0.0
 40
0.0
 40
0.0
 40
0.0
 40
48.96249675872797
 40
48.96249675872797
 40
48.96249675872797
 40
48.96249675872797
 40
48.96249675872797
 40
48.96249675872797
 10
-27.47848472955145
 20
-25.36462166736361
 30
0.0
 10
-21.97533928046853
 20
-24.66761232654413
 30
0.0
 10
-16.47571220061749
 20
-23.88317187357307
 30
0.0
 10
-10.97880456318114
 20
-23.01529594517102
 30
0.0
 10
-5.487288328641885
 20
-22.06991190699929
 30
0.0
 10
0.0000000000000036
 20
-21.05273335128598
 30
0.0
  0
ARC
  5
194
330
76
100
AcDbEntity
  8
0
 62
     7
370
    35
100
AcDbCircle
 10
-17.774472
 20
-6.775943
 30
0.0
 40
20.96943146405822
100
AcDbArc
 50
236.001859
 51
242.433673
  0
LINE
  5
195
330
76
100
AcDbEntity
  8
0
 62
     7
370
    13
100
AcDbLine
 10
29.131226
 20
-14.648389
 30
0.0
 11
29.5
 21
-14.576299
 31
0.0
  0
ARC
  5
196
330
76
100
AcDbEntity
  8
0
 62
     7
370
    35
100
AcDbCircle
 10
57.133139
 20
-41.98969
 30
0.0
 40
37.79824100733375
100
AcDbArc
 50
136.977578
 51
141.677437
  0
LINE
  5
197
330
76
100
AcDbEntity
  8
0
 62
     7
370
    35
100
AcDbLine
 10
-29.5
 20
-24.160849
 30
0.0
 11
-29.5
 21
-24.967417
 31
0.0
  0
ARC
  5
198
330
76
100
AcDbEntity
  8
0
 62
     7
370
    35
100
AcDbCircle
 10
-89.482038
 20
-87.278066
 30
0.0
 40
86.48993381593739
100
AcDbArc
 50
44.202083
 51
46.090853
  0
SPLINE
  5
199
330
76
100
AcDbEntity
  8
0
 62
     7
370
    35
100
AcDbSpline
210
0.0
220
0.0
230
1.0
 70
     8
 71
     5
 72
    12
 73
     6
 74
     0
 42
0.000000001
 43
0.0
 40
0.0
 40
0.0
 40
0.0
 40
0.0
 40
0.0
 40
0.0
 40
39.62010325719198
 40
39.62010325719198
 40
39.62010325719198
 40
39.62010325719198
 40
39.62010325719198
 40
39.62010325719198
 10
0.0000000000000924
 20
-23.57436274267523
 30
0.0
 10
-5.484199984006036
 20
-24.42502793866434
 30
0.0
 10
-10.97446706790804
 20
-25.19497586500058
 30
0.0
 10
-16.47258272887381
 20
-25.88018974907959
 30
0.0
 10
-21.97344734053694
 20
-26.47580263688316
 30
0.0
 10
-27.47845147054812
 20
-26.97785397338447
 30
0.0
  0
SPLINE
  5
19A
330
76
100
AcDbEntity
  8
0
 62
     7
370
    35
100
AcDbSpline
210
0.0
220
0.0
230
1.0
 70
     8
 71
     5
 72
    12
 73
     6
 74
     0
 42
0.000000001
 43
0.0
 40
0.0
 40
0.0
 40
0.0
 40
0.0
 40
0.0
 40
0.0
 40
39.79201029582068
 40
39.79201029582068
 40
39.79201029582068
 40
39.79201029582068
 40
39.79201029582068
 40
39.79201029582068
 10
27.47845147048977
 20
-18.55089244454942
 30
0.0
 10
21.99581241543859
 20
-19.69335804213284
 30
0.0
 10
16.50684235370677
 20
-20.77308049605129
 30
0.0
 10
11.0098707190437
 20
-21.78423127960428
 30
0.0
 10
5.507995292473101
 20
-22.72000660893776
 30
0.0
 10
0.0000000000000036
 20
-23.57436274267525
 30
0.0
  0
LINE
  5
19B
330
76
100
AcDbEntity
  8
0
 62
     7
370
    35
100
AcDbLine
 10
27.478454
 20
-19.36607
 30
0.0
 11
27.478454
 21
-18.550918
 31
0.0
  0
ARC
  5
19C
330
76
100
AcDbEntity
  8
0
 62
     7
370
    35
100
AcDbCircle
 10
18.189505
 20
-0.565078
 30
0.0
 40
20.97030933770351
100
AcDbArc
 50
296.292564
 51
302.640281
  0
SPLINE
  5
19D
330
76
100
AcDbEntity
  8
0
 62
     7
370
    35
100
AcDbSpline
210
0.0
220
0.0
230
1.0
 70
     8
 71
     5
 72
    12
 73
     6
 74
     0
 42
0.000000001
 43
0.0
 40
0.0
 40
0.0
 40
0.0
 40
0.0
 40
0.0
 40
0.0
 40
39.7654258572198
 40
39.7654258572198
 40
39.7654258572198
 40
39.7654258572198
 40
39.7654258572198
 40
39.7654258572198
 10
-0.0000000000000018
 20
-24.17403145228501
 30
0.0
 10
5.507773507493022
 20
-23.36757840513631
 30
0.0
 10
11.00961613380324
 20
-22.47753686977222
 30
0.0
 10
16.50676686762979
 20
-21.50970010767627
 30
0.0
 10
21.99582391722132
 20
-20.47066337012421
 30
0.0
 10
27.47848196287265
 20
-19.36603749293595
 30
0.0
  0
SPLINE
  5
19E
330
76
100
AcDbEntity
  8
0
 62
     7
370
    35
100
AcDbSpline
210
0.0
220
0.0
230
1.0
 70
     8
 71
     5
 72
    12
 73
     6
 74
     0
 42
0.000000001
 43
0.0
 40
0.0
 40
0.0
 40
0.0
 40
0.0
 40
0.0
 40
0.0
 40
39.59892244328407
 40
39.59892244328407
 40
39.59892244328407
 40
39.59892244328407
 40
39.59892244328407
 40
39.59892244328407
 10
-27.47848196285922
 20
-27.32083474737354
 30
0.0
 10
-21.97415554465461
 20
-26.87324613333902
 30
0.0
 10
-16.47356956132358
 20
-26.330852126853
 30
0.0
 10
-10.97530468969005
 20
-25.69729408531931
 30
0.0
 10
-5.484711687522186
 20
-24.9771077674452
 30
0.0
 10
0.0000000000000018
 20
-24.17403145228502
 30
0.0
  0
ARC
  5
19F
330
76
100
AcDbEntity
  8
0
 62
     7
370
    35
100
AcDbCircle
 10
-5.347173
 20
3.331817
 30
0.0
 40
37.80738524743308
100
AcDbArc
 50
230.295009
 51
234.1706
  0
ARC
  5
1A0
330
76
100
AcDbEntity
  8
0
 62
     7
370
    35
100
AcDbCircle
 10
67.289127
 20
-53.083487
 30
0.0
 40
50.41998415616109
100
AcDbArc
 50
138.546879
 51
142.14527
  0
LINE
  5
1A1
330
76
100
AcDbEntity
  8
0
 62
     7
370
    35
100
AcDbLine
 10
-29.5
 20
-25.755165
 30
0.0
 11
-29.5
 21
-26.199382
 31
0.0
  0
ARC
  5
1A2
330
76
100
AcDbEntity
  8
0
 62
     7
370
    35
100
AcDbCircle
 10
-161.721912
 20
-158.798025
 30
0.0
 40
187.2567388277895
100
AcDbArc
 50
44.201325
 51
45.081508
  0
SPLINE
  5
1A3
330
76
100
AcDbEntity
  8
0
 62
     7
370
    35
100
AcDbSpline
210
0.0
220
0.0
230
1.0
 70
     8
 71
     5
 72
    12
 73
     6
 74
     0
 42
0.000000001
 43
0.0
 40
0.0
 40
0.0
 40
0.0
 40
0.0
 40
0.0
 40
0.0
 40
48.81981514623962
 40
48.81981514623962
 40
48.81981514623962
 40
48.81981514623962
 40
48.81981514623962
 40
48.81981514623962
 10
0.0
 20
-26.09053617043492
 30
0.0
 10
-5.490067388706848
 20
-26.70736313969242
 30
0.0
 10
-10.98333532645165
 20
-27.2345443256315
 30
0.0
 10
-16.48100877469466
 20
-27.6684906691426
 30
0.0
 10
-21.97905359089137
 20
-28.00607109318613
 30
0.0
 10
-27.47845423727093
 20
-28.2459763027946
 30
0.0
  0
SPLINE
  5
1A4
330
76
100
AcDbEntity
  8
0
 62
     7
370
    35
100
AcDbSpline
210
0.0
220
0.0
230
1.0
 70
     8
 71
     5
 72
    12
 73
     6
 74
     0
 42
0.000000001
 43
0.0
 40
0.0
 40
0.0
 40
0.0
 40
0.0
 40
0.0
 40
0.0
 40
48.93176143406729
 40
48.93176143406729
 40
48.93176143406729
 40
48.93176143406729
 40
48.93176143406729
 40
48.93176143406729
 10
27.47845423721195
 20
-22.14226461161804
 30
0.0
 10
21.99089162388079
 20
-23.09358959183494
 30
0.0
 10
16.49917308699088
 20
-23.96933233757419
 30
0.0
 10
11.00210660609456
 20
-24.76405572390281
 30
0.0
 10
5.502656388936709
 20
-25.47229478596029
 30
0.0
 10
0.0000000000000036
 20
-26.09053617043492
 30
0.0
  0
LINE
  5
1A5
330
76
100
AcDbEntity
  8
0
 62
     7
370
    35
100
AcDbLine
 10
27.478454
 20
-22.815504
 30
0.0
 11
27.478454
 21
-22.142265
 31
0.0
  0
ARC
  5
1A6
330
76
100
AcDbEntity
  8
0
 62
     7
370
    35
100
AcDbCircle
 10
10.672236
 20
3.137213
 30
0.0
 40
30.91897891394215
100
AcDbArc
 50
302.925986
 51
307.513042
  0
SPLINE
  5
1A7
330
76
100
AcDbEntity
  8
0
 62
     7
370
    35
100
AcDbSpline
210
0.0
220
0.0
230
1.0
 70
     8
 71
     5
 72
    12
 73
     6
 74
     0
 42
0.000000001
 43
0.0
 40
0.0
 40
0.0
 40
0.0
 40
0.0
 40
0.0
 40
0.0
 40
48.91262473414044
 40
48.91262473414044
 40
48.91262473414044
 40
48.91262473414044
 40
48.91262473414044
 40
48.91262473414044
 10
-0.0000000000000018
 20
-26.51835629200338
 30
0.0
 10
5.50229654089045
 20
-25.95284639985271
 30
0.0
 10
11.00161067863763
 20
-25.29581240959443
 30
0.0
 10
16.4987864907243
 20
-24.55046268013867
 30
0.0
 10
21.9906775827312
 20
-23.72195795490221
 30
0.0
 10
27.47848472956449
 20
-22.81549923531225
 30
0.0
  0
ARC
  5
1A8
330
76
100
AcDbEntity
  8
0
 62
     7
370
    35
100
AcDbCircle
 10
-40.918428
 20
369.266996
 30
0.0
 40
397.8939165608933
100
AcDbArc
 50
271.935692
 51
275.902577
  0
ARC
  5
1A9
330
76
100
AcDbEntity
  8
0
 62
     7
370
    35
100
AcDbCircle
 10
28.888268
 20
34.30557
 30
0.0
 40
84.31552158307208
100
AcDbArc
 50
226.172051
 51
228.046791
  0
ARC
  5
1AA
330
76
100
AcDbEntity
  8
0
 62
     7
370
    35
100
AcDbCircle
 10
83.09184
 20
-68.90725
 30
0.0
 40
70.84269309986472
100
AcDbArc
 50
139.156303
 51
141.722494
  0
LINE
  5
1AB
330
76
100
AcDbEntity
  8
0
 62
     7
370
    35
100
AcDbLine
 10
-29.5
 20
-26.521653
 30
0.0
 11
-29.5
 21
-26.589277
 31
0.0
  0
LINE
  5
1AC
330
76
100
AcDbEntity
  8
0
 62
     7
370
    35
100
AcDbLine
 10
-27.478482
 20
-28.606199
 30
0.0
 11
-29.5
 21
-26.589279
 31
0.0
  0
ARC
  5
1AD
330
76
100
AcDbEntity
  8
0
 62
     7
370
    35
100
AcDbCircle
 10
-25.460329
 20
352.087308
 30
0.0
 40
380.6988566665831
100
AcDbArc
 50
269.696268
 51
270.002557
  0
ARC
  5
1AE
330
76
100
AcDbEntity
  8
0
 62
     7
370
    35
100
AcDbCircle
 10
-25.53451
 20
358.034072
 30
0.0
 40
386.645954509742
100
AcDbArc
 50
270.01351
 51
273.786627
  0
SPLINE
  5
1AF
330
76
100
AcDbEntity
  8
0
 62
     7
370
    35
100
AcDbSpline
210
0.0
220
0.0
230
1.0
 70
     8
 71
     5
 72
    12
 73
     6
 74
     0
 42
0.000000001
 43
0.0
 40
0.0
 40
0.0
 40
0.0
 40
0.0
 40
0.0
 40
0.0
 40
48.84946295584488
 40
48.84946295584488
 40
48.84946295584488
 40
48.84946295584488
 40
48.84946295584488
 40
48.84946295584488
 10
27.47845423721194
 20
-25.02194050203139
 30
0.0
 10
21.98938292071706
 20
-25.75060915691843
 30
0.0
 10
16.496699931166
 20
-26.39348900181583
 30
0.0
 10
10.99918816104675
 20
-26.94633146909645
 30
0.0
 10
5.500597368768705
 20
-27.40522387185392
 30
0.0
 10
0.0
 20
-27.76813829828489
 30
0.0
  0
LINE
  5
1B0
330
76
100
AcDbEntity
  8
0
 62
     7
370
    35
100
AcDbLine
 10
27.478454
 20
-25.53163
 30
0.0
 11
27.478454
 21
-25.021941
 31
0.0
  0
ARC
  5
1B1
330
76
100
AcDbEntity
  8
0
 62
     7
370
    35
100
AcDbCircle
 10
-2.629849
 20
13.059704
 30
0.0
 40
48.94680535831023
100
AcDbArc
 50
307.960799
 51
311.02783
  0
SPLINE
  5
1B2
330
76
100
AcDbEntity
  8
0
 62
     7
370
    35
100
AcDbSpline
210
0.0
220
0.0
230
1.0
 70
     8
 71
     5
 72
    12
 73
     6
 74
     0
 42
0.000000001
 43
0.0
 40
0.0
 40
0.0
 40
0.0
 40
0.0
 40
0.0
 40
0.0
 40
39.5514418533119
 40
39.5514418533119
 40
39.5514418533119
 40
39.5514418533119
 40
39.5514418533119
 40
39.5514418533119
 10
-0.0000000000000036
 20
-28.01035934106012
 30
0.0
 10
5.502365337447602
 20
-27.70320671324598
 30
0.0
 10
11.00209269670401
 20
-27.29853352995174
 30
0.0
 10
16.5006740743811
 20
-26.79929473994763
 30
0.0
 10
21.99219875077023
 20
-26.20926796449492
 30
0.0
 10
27.47848196287262
 20
-25.53159654825285
 30
0.0
  0
ARC
  5
1B3
330
76
100
AcDbEntity
  8
0
 62
     7
370
    35
100
AcDbCircle
 10
-21.519741
 20
356.789816
 30
0.0
 40
385.4013073709567
100
AcDbArc
 50
270.007917
 51
273.200901
  0
ARC
  5
1B4
330
76
100
AcDbEntity
  8
0
 62
     7
370
    35
100
AcDbCircle
 10
118.085587
 20
-102.120098
 30
0.0
 40
117.6348254635135
100
AcDbArc
 50
138.855999
 51
140.375222
  0
ARC
  5
1B5
330
76
100
AcDbEntity
  8
0
 62
     7
370
    35
100
AcDbCircle
 10
-6.656615
 20
354.472919
 30
0.0
 40
383.0843398953449
100
AcDbArc
 50
268.890634
 51
269.996582
  0
ARC
  5
1B6
330
76
100
AcDbEntity
  8
0
 62
     7
370
    35
100
AcDbCircle
 10
-6.65791
 20
352.48804
 30
0.0
 40
381.0994547803945
100
AcDbArc
 50
269.996759
 51
271.001024
  0
ARC
  5
1B7
330
76
100
AcDbEntity
  8
0
 62
     7
370
    35
100
AcDbCircle
 10
-6.985269
 20
362.941567
 30
0.0
 40
391.5578109477919
100
AcDbArc
 50
271.022195
 51
275.049524
  0
LINE
  5
1B8
330
76
100
AcDbEntity
  8
0
 62
     7
370
    35
100
AcDbLine
 10
27.478454
 20
-27.427147
 30
0.0
 11
27.478454
 21
-27.097391
 31
0.0
  0
ARC
  5
1B9
330
76
100
AcDbEntity
  8
0
 62
     7
370
    35
100
AcDbCircle
 10
-31.320738
 20
38.798098
 30
0.0
 40
88.56137023847737
100
AcDbArc
 50
311.600834
 51
313.374521
  0
ARC
  5
1BA
330
76
100
AcDbEntity
  8
0
 62
     7
370
    35
100
AcDbCircle
 10
-2.857215
 20
359.735224
 30
0.0
 40
388.3483642502628
100
AcDbArc
 50
270.42155
 51
274.480197
  0
ARC
  5
1BB
330
76
100
AcDbEntity
  8
0
 62
     7
370
    35
100
AcDbCircle
 10
-2.688622
 20
351.427017
 30
0.0
 40
380.0386137649502
100
AcDbArc
 50
269.997893
 51
270.405348
  0
ARC
  5
1BC
330
76
100
AcDbEntity
  8
0
 62
     7
370
    35
100
AcDbCircle
 10
364.883629
 20
-332.145114
 30
0.0
 40
454.0512576586038
100
AcDbArc
 50
137.616322
 51
137.996035
  0
ARC
  5
1BD
330
76
100
AcDbEntity
  8
0
 62
     7
370
    35
100
AcDbCircle
 10
12.075264
 20
354.10816
 30
0.0
 40
382.7193643863104
100
AcDbArc
 50
268.894994
 51
270.001398
  0
ARC
  5
1BE
330
76
100
AcDbEntity
  8
0
 62
     7
370
    35
100
AcDbCircle
 10
12.068165
 20
355.361515
 30
0.0
 40
383.9727379100959
100
AcDbArc
 50
270.002452
 51
272.300115
  0
ARC
  5
1BF
330
76
100
AcDbEntity
  8
0
 62
     7
370
    35
100
AcDbCircle
 10
-146.377551
 20
151.29432
 30
0.0
 40
250.0614816097772
100
AcDbArc
 50
314.047394
 51
314.695369
  0
ARC
  5
1C0
330
76
100
AcDbEntity
  8
0
 62
     7
370
    35
100
AcDbCircle
 10
-63.91455
 20
65.13254
 30
0.0
 40
130.9117292298135
100
AcDbArc
 50
314.27696
 51
315.036063
  0
LINE
  5
1C1
330
76
100
AcDbEntity
  8
0
 62
     7
370
    35
100
AcDbLine
 10
28.712312
 20
-27.377792
 30
0.0
 11
29.5
 21
-26.585782
 31
0.0
  0
ARC
  5
1C2
330
76
100
AcDbEntity
  8
0
 62
     7
370
    35
100
AcDbCircle
 10
30.867416
 20
353.683804
 30
0.0
 40
382.2955821914233
100
AcDbArc
 50
268.590906
 51
269.492079
  0
LINE
  5
1C3
330
76
100
AcDbEntity
  8
0
 62
     7
370
    35
100
AcDbLine
 10
29.5
 20
-26.590104
 30
0.0
 11
28.712312
 21
-27.377792
 31
0.0
  0
LINE
  5
1C4
330
76
100
AcDbEntity
  8
0
 62
     7
370
    35
100
AcDbLine
 10
-29.5
 20
-26.199371
 30
0.0
 11
-29.5
 21
-26.521727
 31
0.0
  0
LINE
  5
1C5
330
76
100
AcDbEntity
  8
0
 62
     7
370
    35
100
AcDbLine
 10
-29.5
 20
-24.967393
 30
0.0
 11
-29.5
 21
-25.755238
 31
0.0
  0
LINE
  5
1C6
330
76
100
AcDbEntity
  8
0
 62
     7
370
    35
100
AcDbLine
 10
-29.5
 20
-22.932943
 30
0.0
 11
-29.5
 21
-24.160955
 31
0.0
  0
LINE
  5
1C7
330
76
100
AcDbEntity
  8
0
 62
     7
370
    35
100
AcDbLine
 10
-29.5
 20
-20.161408
 30
0.0
 11
-29.5
 21
-21.790119
 31
0.0
  0
LINE
  5
1C8
330
76
100
AcDbEntity
  8
0
 62
     7
370
    35
100
AcDbLine
 10
-29.5
 20
-16.74187
 30
0.0
 11
-29.5
 21
-18.71893
 31
0.0
  0
LINE
  5
1C9
330
76
100
AcDbEntity
  8
0
 62
     7
370
    35
100
AcDbLine
 10
-29.5
 20
-12.784234
 30
0.0
 11
-29.5
 21
-15.0461
 31
0.0
  0
LINE
  5
1CA
330
76
100
AcDbEntity
  8
0
 62
     7
370
    35
100
AcDbLine
 10
-29.5
 20
-8.415702
 30
0.0
 11
-29.5
 21
-10.889676
 31
0.0
  0
LINE
  5
1CB
330
76
100
AcDbEntity
  8
0
 62
     7
370
    35
100
AcDbLine
 10
-29.5
 20
-3.776683
 30
0.0
 11
-29.5
 21
-6.383248
 31
0.0
  0
LINE
  5
1CC
330
76
100
AcDbEntity
  8
0
 62
     7
370
    35
100
AcDbLine
 10
-29.5
 20
0.983722
 30
0.0
 11
-29.5
 21
-1.671658
 31
0.0
  0
LINE
  5
1CD
330
76
100
AcDbEntity
  8
0
 62
     7
370
    35
100
AcDbLine
 10
-29.5
 20
5.712509
 30
0.0
 11
-29.5
 21
3.093661
 31
0.0
  0
LINE
  5
1CE
330
76
100
AcDbEntity
  8
0
 62
     7
370
    35
100
AcDbLine
 10
-29.5
 20
10.257692
 30
0.0
 11
-29.5
 21
7.759547
 31
0.0
  0
LINE
  5
1CF
330
76
100
AcDbEntity
  8
0
 62
     7
370
    35
100
AcDbLine
 10
-29.5
 20
14.473184
 30
0.0
 11
-29.5
 21
12.176035
 31
0.0
  0
LINE
  5
1D0
330
76
100
AcDbEntity
  8
0
 62
     7
370
    35
100
AcDbLine
 10
-29.5
 20
18.223496
 30
0.0
 11
-29.5
 21
16.201175
 31
0.0
  0
LINE
  5
1D1
330
76
100
AcDbEntity
  8
0
 62
     7
370
    35
100
AcDbLine
 10
-29.5
 20
21.388089
 30
0.0
 11
-29.5
 21
19.705596
 31
0.0
  0
LINE
  5
1D2
330
76
100
AcDbEntity
  8
0
 62
     7
370
    35
100
AcDbLine
 10
-29.5
 20
23.865252
 30
0.0
 11
-29.5
 21
22.576663
 31
0.0
  0
LINE
  5
1D3
330
76
100
AcDbEntity
  8
0
 62
     7
370
    35
100
AcDbLine
 10
-29.5
 20
25.575367
 30
0.0
 11
-29.5
 21
24.722097
 31
0.0
  0
LINE
  5
1D4
330
76
100
AcDbEntity
  8
0
 62
     7
370
    35
100
AcDbLine
 10
-29.5
 20
26.463467
 30
0.0
 11
-29.5
 21
26.072943
 31
0.0
  0
LINE
  5
1D5
330
76
100
AcDbEntity
  8
0
 62
     7
370
    35
100
AcDbLine
 10
-29.5
 20
26.590104
 30
0.0
 11
-29.5
 21
26.585783
 31
0.0
  0
LINE
  5
1D6
330
76
100
AcDbEntity
  8
0
 62
     7
370
    35
100
AcDbLine
 10
-29.5
 20
26.590104
 30
0.0
 11
-28.712312
 21
27.377792
 31
0.0
  0
LINE
  5
1D7
330
76
100
AcDbEntity
  8
0
 62
     7
370
    35
100
AcDbLine
 10
-27.478454
 20
28.441134
 30
0.0
 11
-27.478454
 21
28.301908
 31
0.0
  0
LINE
  5
1D8
330
76
100
AcDbEntity
  8
0
 62
     7
370
    35
100
AcDbLine
 10
-27.478454
 20
27.427147
 30
0.0
 11
-27.478454
 21
27.097391
 31
0.0
  0
LINE
  5
1D9
330
76
100
AcDbEntity
  8
0
 62
     7
370
    35
100
AcDbLine
 10
-27.478454
 20
25.53163
 30
0.0
 11
-27.478454
 21
25.021941
 31
0.0
  0
LINE
  5
1DA
330
76
100
AcDbEntity
  8
0
 62
     7
370
    35
100
AcDbLine
 10
-27.478454
 20
22.142265
 30
0.0
 11
-27.478454
 21
22.815504
 31
0.0
  0
LINE
  5
1DB
330
76
100
AcDbEntity
  8
0
 62
     7
370
    35
100
AcDbLine
 10
-27.478454
 20
18.550918
 30
0.0
 11
-27.478454
 21
19.36607
 31
0.0
  0
LINE
  5
1DC
330
76
100
AcDbEntity
  8
0
 62
     7
370
    35
100
AcDbLine
 10
-27.478454
 20
14.36333
 30
0.0
 11
-27.478454
 21
15.294194
 31
0.0
  0
LINE
  5
1DD
330
76
100
AcDbEntity
  8
0
 62
     7
370
    35
100
AcDbLine
 10
-27.478454
 20
9.714092
 30
0.0
 11
-27.478454
 21
10.73075
 31
0.0
  0
LINE
  5
1DE
330
76
100
AcDbEntity
  8
0
 62
     7
370
    35
100
AcDbLine
 10
-27.478454
 20
4.752636
 30
0.0
 11
-27.478454
 21
5.822411
 31
0.0
  0
LINE
  5
1DF
330
76
100
AcDbEntity
  8
0
 62
     7
370
    35
100
AcDbLine
 10
-27.478454
 20
-0.361574
 30
0.0
 11
-27.478454
 21
0.726935
 31
0.0
  0
LINE
  5
1E0
330
76
100
AcDbEntity
  8
0
 62
     7
370
    35
100
AcDbLine
 10
-27.478454
 20
-5.464163
 30
0.0
 11
-27.478454
 21
-4.391905
 31
0.0
  0
LINE
  5
1E1
330
76
100
AcDbEntity
  8
0
 62
     7
370
    35
100
AcDbLine
 10
-27.478454
 20
-10.391129
 30
0.0
 11
-27.478454
 21
-9.369586
 31
0.0
  0
LINE
  5
1E2
330
76
100
AcDbEntity
  8
0
 62
     7
370
    35
100
AcDbLine
 10
-27.478454
 20
-14.984116
 30
0.0
 11
-27.478454
 21
-14.046121
 31
0.0
  0
LINE
  5
1E3
330
76
100
AcDbEntity
  8
0
 62
     7
370
    35
100
AcDbLine
 10
-27.478454
 20
-19.0955
 30
0.0
 11
-27.478454
 21
-18.271202
 31
0.0
  0
LINE
  5
1E4
330
76
100
AcDbEntity
  8
0
 62
     7
370
    35
100
AcDbLine
 10
-27.478454
 20
-22.59314
 30
0.0
 11
-27.478454
 21
-21.909031
 31
0.0
  0
LINE
  5
1E5
330
76
100
AcDbEntity
  8
0
 62
     7
370
    35
100
AcDbLine
 10
-27.478454
 20
-25.364618
 30
0.0
 11
-27.478454
 21
-24.842686
 31
0.0
  0
LINE
  5
1E6
330
76
100
AcDbEntity
  8
0
 62
     7
370
    35
100
AcDbLine
 10
-27.478454
 20
-27.320856
 30
0.0
 11
-27.478454
 21
-26.977877
 31
0.0
  0
LINE
  5
1E7
330
76
100
AcDbEntity
  8
0
 62
     7
370
    35
100
AcDbLine
 10
-27.478454
 20
-28.398979
 30
0.0
 11
-27.478454
 21
-28.245976
 31
0.0
  0
LINE
  5
1E8
330
76
100
AcDbEntity
  8
0
 62
     7
370
    35
100
AcDbLine
 10
-29.5
 20
-25.0
 30
0.0
 11
-30.5
 21
-24.0
 31
0.0
  0
LINE
  5
1E9
330
76
100
AcDbEntity
  8
0
 62
     7
370
    35
100
AcDbLine
 10
-29.5
 20
25.0
 30
0.0
 11
-30.5
 21
24.0
 31
0.0
  0
LINE
  5
1EA
330
76
100
AcDbEntity
  8
0
 62
     7
370
    35
100
AcDbLine
 10
-30.5
 20
24.0
 30
0.0
 11
-30.5
 21
-24.0
 31
0.0
  0
LINE
  5
1EB
330
76
100
AcDbEntity
  8
0
 62
     7
370
    35
100
AcDbLine
 10
-30.5
 20
-24.0
 30
0.0
 11
-36.0
 21
-24.0
 31
0.0
  0
LINE
  5
1EC
330
76
100
AcDbEntity
  8
0
 62
     7
370
    35
100
AcDbLine
 10
-30.5
 20
24.0
 30
0.0
 11
-36.0
 21
24.0
 31
0.0
  0
LINE
  5
1ED
330
76
100
AcDbEntity
  8
0
 62
     7
370
    35
100
AcDbLine
 10
-36.0
 20
24.0
 30
0.0
 11
-36.0
 21
-24.0
 31
0.0
  0
LINE
  5
1EE
330
76
100
AcDbEntity
  8
0
 62
     7
370
    35
100
AcDbLine
 10
-36.0
 20
24.0
 30
0.0
 11
-39.5
 21
27.5
 31
0.0
  0
LINE
  5
1EF
330
76
100
AcDbEntity
  8
0
 62
     7
370
    35
100
AcDbLine
 10
-36.0
 20
-24.0
 30
0.0
 11
-39.5
 21
-27.5
 31
0.0
  0
LINE
  5
1F0
330
76
100
AcDbEntity
  8
0
 62
     7
370
    35
100
AcDbLine
 10
-39.5
 20
27.5
 30
0.0
 11
-39.5
 21
-27.5
 31
0.0
  0
LINE
  5
1F1
330
76
100
AcDbEntity
  8
0
 62
     7
370
    35
100
AcDbLine
 10
-39.5
 20
-27.5
 30
0.0
 11
-153.5
 21
-27.5
 31
0.0
  0
LINE
  5
1F2
330
76
100
AcDbEntity
  8
0
 62
     7
370
    35
100
AcDbLine
 10
-39.5
 20
27.5
 30
0.0
 11
-153.5
 21
27.5
 31
0.0
  0
LINE
  5
1F3
330
76
100
AcDbEntity
  8
0
 62
     7
370
    13
100
AcDbLine
 10
-153.5
 20
27.5
 30
0.0
 11
-153.5
 21
-27.5
 31
0.0
  0
ARC
  5
1F4
330
76
100
AcDbEntity
  8
0
 62
     7
370
    35
100
AcDbCircle
 10
-153.5
 20
-29.5
 30
0.0
 40
2.0
100
AcDbArc
 50
90.0
 51
180.0
  0
ARC
  5
1F5
330
76
100
AcDbEntity
  8
0
 62
     7
370
    35
100
AcDbCircle
 10
-153.5
 20
29.5
 30
0.0
 40
2.0
100
AcDbArc
 50
180.0
 51
270.0
  0
LINE
  5
1F6
330
76
100
AcDbEntity
  8
0
 62
     7
370
    35
100
AcDbLine
 10
-155.5
 20
31.5
 30
0.0
 11
-155.5
 21
-31.5
 31
0.0
  0
LINE
  5
1F7
330
76
100
AcDbEntity
  8
0
 62
     7
370
    35
100
AcDbLine
 10
-155.5
 20
-31.5
 30
0.0
 11
-157.5
 21
-33.5
 31
0.0
  0
LINE
  5
1F8
330
76
100
AcDbEntity
  8
0
 62
     7
370
    35
100
AcDbLine
 10
-155.5
 20
31.5
 30
0.0
 11
-157.5
 21
33.5
 31
0.0
  0
LINE
  5
1F9
330
76
100
AcDbEntity
  8
0
 62
     7
370
    35
100
AcDbLine
 10
-157.5
 20
33.5
 30
0.0
 11
-157.5
 21
-33.5
 31
0.0
  0
LINE
  5
1FA
330
76
100
AcDbEntity
  8
0
 62
     7
370
    35
100
AcDbLine
 10
-163.5
 20
33.5
 30
0.0
 11
-163.5
 21
-33.5
 31
0.0
  0
LINE
  5
1FB
330
76
100
AcDbEntity
  8
0
 62
     7
370
    35
100
AcDbLine
 10
-163.5
 20
33.5
 30
0.0
 11
-157.5
 21
33.5
 31
0.0
  0
LINE
  5
1FC
330
76
100
AcDbEntity
  8
0
 62
     7
370
    35
100
AcDbLine
 10
-163.5
 20
-33.5
 30
0.0
 11
-157.5
 21
-33.5
 31
0.0
  0
LINE
  5
1FD
330
76
100
AcDbEntity
  8
0
 62
     7
370
    35
100
AcDbLine
 10
-163.5
 20
-33.5
 30
0.0
 11
-165.5
 21
-31.5
 31
0.0
  0
LINE
  5
1FE
330
76
100
AcDbEntity
  8
0
 62
     7
370
    35
100
AcDbLine
 10
-163.5
 20
33.5
 30
0.0
 11
-165.5
 21
31.5
 31
0.0
  0
LINE
  5
1FF
330
76
100
AcDbEntity
  8
0
 62
     7
370
    35
100
AcDbLine
 10
-165.5
 20
31.5
 30
0.0
 11
-165.5
 21
-31.5
 31
0.0
  0
ARC
  5
200
330
76
100
AcDbEntity
  8
0
 62
     7
370
    35
100
AcDbCircle
 10
-166.5
 20
-28.5
 30
0.0
 40
1.0
100
AcDbArc
 50
0.0
 51
90.0
  0
ARC
  5
201
330
76
100
AcDbEntity
  8
0
 62
     7
370
    35
100
AcDbCircle
 10
-166.5
 20
28.5
 30
0.0
 40
1.0
100
AcDbArc
 50
270.0
 51
360.0
  0
LINE
  5
202
330
76
100
AcDbEntity
  8
0
 62
     7
370
    13
100
AcDbLine
 10
-166.5
 20
27.5
 30
0.0
 11
-166.5
 21
-27.5
 31
0.0
  0
LINE
  5
203
330
76
100
AcDbEntity
  8
0
 62
     7
370
    35
100
AcDbLine
 10
-166.5
 20
27.5
 30
0.0
 11
-218.5
 21
27.5
 31
0.0
  0
LINE
  5
204
330
76
100
AcDbEntity
  8
0
 62
     7
370
    35
100
AcDbLine
 10
-166.5
 20
-27.5
 30
0.0
 11
-218.5
 21
-27.5
 31
0.0
  0
LINE
  5
205
330
76
100
AcDbEntity
  8
0
 62
     7
370
    35
100
AcDbLine
 10
-218.5
 20
27.5
 30
0.0
 11
-218.5
 21
-27.5
 31
0.0
  0
LINE
  5
206
330
76
100
AcDbEntity
  8
0
 62
     7
370
    35
100
AcDbLine
 10
-209.5
 20
-8.0
 30
0.0
 11
-175.5
 21
-8.0
 31
0.0
  0
ARC
  5
207
330
76
100
AcDbEntity
  8
0
 62
     7
370
    35
100
AcDbCircle
 10
-209.5
 20
0.0
 30
0.0
 40
8.0
100
AcDbArc
 50
90.0
 51
270.0
  0
LINE
  5
208
330
76
100
AcDbEntity
  8
0
 62
     7
370
    35
100
AcDbLine
 10
-175.5
 20
8.0
 30
0.0
 11
-209.5
 21
8.0
 31
0.0
  0
ARC
  5
209
330
76
100
AcDbEntity
  8
0
 62
     7
370
    35
100
AcDbCircle
 10
-175.5
 20
0.0
 30
0.0
 40
8.0
100
AcDbArc
 50
270.0
 51
90.0
  0
LINE
  5
20A
330
76
100
AcDbEntity
  8
0
 62
     7
370
    35
100
AcDbLine
 10
-218.5
 20
27.5
 30
0.0
 11
-219.5
 21
26.5
 31
0.0
  0
LINE
  5
20B
330
76
100
AcDbEntity
  8
0
 62
     7
370
    35
100
AcDbLine
 10
-218.5
 20
-27.5
 30
0.0
 11
-219.5
 21
-26.5
 31
0.0
  0
LINE
  5
20C
330
76
100
AcDbEntity
  8
0
 62
     7
370
    35
100
AcDbLine
 10
-219.5
 20
26.5
 30
0.0
 11
-219.5
 21
-26.5
 31
0.0
  0
ARC
  5
20D
330
76
100
AcDbEntity
  8
0
 62
     7
370
    35
100
AcDbCircle
 10
-220.5
 20
23.5
 30
0.0
 40
1.0
100
AcDbArc
 50
270.0
 51
0.0
  0
ARC
  5
20E
330
76
100
AcDbEntity
  8
0
 62
     7
370
    35
100
AcDbCircle
 10
-220.5
 20
-23.5
 30
0.0
 40
1.0
100
AcDbArc
 50
0.0
 51
90.0
  0
LINE
  5
20F
330
76
100
AcDbEntity
  8
0
 62
     7
370
    13
100
AcDbLine
 10
-220.5
 20
22.5
 30
0.0
 11
-220.5
 21
-22.5
 31
0.0
  0
LINE
  5
210
330
76
100
AcDbEntity
  8
0
 62
     7
370
    35
100
AcDbLine
 10
-220.5
 20
-22.5
 30
0.0
 11
-268.5
 21
-22.5
 31
0.0
  0
LINE
  5
211
330
76
100
AcDbEntity
  8
0
 62
     7
370
    35
100
AcDbLine
 10
-220.5
 20
22.5
 30
0.0
 11
-268.5
 21
22.5
 31
0.0
  0
LINE
  5
212
330
76
100
AcDbEntity
  8
0
 62
     7
370
    35
100
AcDbLine
 10
-268.5
 20
-22.5
 30
0.0
 11
-268.5
 21
22.5
 31
0.0
  0
LINE
  5
213
330
76
100
AcDbEntity
  8
0
 62
     7
370
    35
100
AcDbLine
 10
-270.5
 20
20.5
 30
0.0
 11
-268.5
 21
22.5
 31
0.0
  0
LINE
  5
214
330
76
100
AcDbEntity
  8
0
 62
     7
370
    35
100
AcDbLine
 10
-270.5
 20
-20.5
 30
0.0
 11
-270.5
 21
20.5
 31
0.0
  0
LINE
  5
215
330
76
100
AcDbEntity
  8
0
 62
     7
370
    35
100
AcDbLine
 10
-270.5
 20
-20.5
 30
0.0
 11
-268.5
 21
-22.5
 31
0.0
  0
LINE
  5
216
330
76
100
AcDbEntity
  8
0
 62
     7
370
    35
100
AcDbLine
 10
78.5
 20
20.5
 30
0.0
 11
78.5
 21
-20.5
 31
0.0
  0
LINE
  5
217
330
76
100
AcDbEntity
  8
0
 62
     7
370
    35
100
AcDbLine
 10
40.5
 20
-22.5
 30
0.0
 11
76.5
 21
-22.5
 31
0.0
  0
LINE
  5
218
330
76
100
AcDbEntity
  8
0
 62
     7
370
    35
100
AcDbLine
 10
40.5
 20
22.5
 30
0.0
 11
76.5
 21
22.5
 31
0.0
  0
LINE
  5
219
330
76
100
AcDbEntity
  8
0
 62
     7
370
    35
100
AcDbLine
 10
76.5
 20
22.5
 30
0.0
 11
76.5
 21
-22.5
 31
0.0
  0
LINE
  5
21A
330
76
100
AcDbEntity
  8
0
 62
     7
370
    35
100
AcDbLine
 10
78.5
 20
20.5
 30
0.0
 11
76.5
 21
22.5
 31
0.0
  0
LINE
  5
21B
330
76
100
AcDbEntity
  8
0
 62
     7
370
    35
100
AcDbLine
 10
78.5
 20
-20.5
 30
0.0
 11
76.5
 21
-22.5
 31
0.0
  0
LINE
  5
21C
330
76
100
AcDbEntity
  8
0
 62
     7
370
    35
100
AcDbLine
 10
-17.543972
 20
13.199227
 30
0.0
 11
-28.614459
 21
10.5109
 31
0.0
  0
LINE
  5
21D
330
76
100
AcDbEntity
  8
0
 62
     7
370
    35
100
AcDbLine
 10
-29.5
 20
5.738981
 30
0.0
 11
1.222473
 21
13.200021
 31
0.0
  0
SPLINE
  5
21E
330
76
100
AcDbEntity
  8
0
 62
     7
370
    35
100
AcDbSpline
210
0.0
220
0.0
230
1.0
 70
     8
 71
     3
 72
    30
 73
    26
 74
     0
 42
0.000000001
 43
0.0
 40
0.0
 40
0.0
 40
0.0
 40
0.0
 40
1.514043842787108
 40
3.028084975281783
 40
4.542246152880788
 40
6.046789071335057
 40
7.161384677100646
 40
8.275979533421369
 40
9.39057369646778
 40
10.50749932929163
 40
12.13041862315457
 40
13.64214714014018
 40
15.15387482488897
 40
16.66562842365936
 40
18.17689253905028
 40
19.68289828877194
 40
21.18890494652018
 40
22.69491273733728
 40
24.20119607708215
 40
25.72283598151945
 40
27.24330918899673
 40
28.77505154858662
 40
30.17058597904735
 40
30.79195901401339
 40
32.12111394441207
 40
32.12111394441207
 40
32.12111394441207
 40
32.12111394441207
 10
19.99092862403449
 20
13.20098336305787
 30
0.0
 10
19.5005047394522
 20
13.08187161404263
 30
0.0
 10
18.51965784819624
 20
12.84364832923431
 30
0.0
 10
17.04834602609299
 20
12.48631657970201
 30
0.0
 10
15.58011015135831
 20
12.12973870099288
 30
0.0
 10
14.24126034391755
 20
11.80458964744646
 30
0.0
 10
13.03183636334072
 20
11.5108763189867
 30
0.0
 10
11.94872324757814
 20
11.24784074355977
 30
0.0
 10
10.86485482726181
 20
10.9846242098439
 30
0.0
 10
9.616330096563024
 20
10.68142375030471
 30
0.0
 10
8.23916535932604
 20
10.34698685614336
 30
0.0
 10
6.73411587334965
 20
9.981497891576119
 30
0.0
 10
5.265074354803052
 20
9.624756297314244
 30
0.0
 10
3.796182735709741
 20
9.268053412053888
 30
0.0
 10
2.32914435604584
 20
8.911801461622494
 30
0.0
 10
0.8639677139419102
 20
8.556000773127085
 30
0.0
 10
-0.5995053610304817
 20
8.20060966762411
 30
0.0
 10
-2.063067176938424
 20
7.845191884319262
 30
0.0
 10
-3.53169234976919
 20
7.488542113100608
 30
0.0
 10
-5.005002579984255
 20
7.130752134924764
 30
0.0
 10
-6.486559416086045
 20
6.770959327671332
 30
0.0
 10
-7.927265404328074
 20
6.421074117684963
 30
0.0
 10
-9.076740831104859
 20
6.141934482427009
 30
0.0
 10
-10.16057910983733
 20
5.878667025014595
 30
0.0
 10
-10.79213293297598
 20
5.724171698248252
 30
0.0
 10
-11.22249481075605
 20
5.618893420294087
 30
0.0
  0
SPLINE
  5
21F
330
76
100
AcDbEntity
  8
0
 62
     7
370
    35
100
AcDbSpline
210
0.0
220
0.0
230
1.0
 70
     8
 71
     3
 72
    35
 73
    31
 74
     0
 42
0.000000001
 43
0.0
 40
0.0
 40
0.0
 40
0.0
 40
0.0
 40
0.7712009851628774
 40
1.542250271173561
 40
2.29640774384166
 40
3.050565511994694
 40
3.804723451578606
 40
4.558881445596167
 40
5.313039383320727
 40
6.067197162785469
 40
6.821357969824263
 40
7.575417391783898
 40
8.327449562656884
 40
9.079481257167902
 40
9.831512419457418
 40
10.5835430091905
 40
11.33557300003291
 40
12.08760238066546
 40
12.83963115436999
 40
13.59175742369378
 40
14.35225867337379
 40
15.11222220300783
 40
15.8721853181509
 40
16.63214811886985
 40
17.39211072843525
 40
18.15207328382713
 40
18.91203595456232
 40
19.67829453157261
 40
20.69125141941063
 40
21.5759189309022
 40
21.5759189309022
 40
21.5759189309022
 40
21.5759189309022
 10
28.53430777870043
 20
10.71900870796448
 30
0.0
 10
28.28450216485007
 20
10.65834079852898
 30
0.0
 10
27.78494007518283
 20
10.537016913344
 30
0.0
 10
27.04109397463742
 20
10.35636213687705
 30
0.0
 10
26.30276894285036
 20
10.17704616091584
 30
0.0
 10
25.56991572896726
 20
9.999057274192994
 30
0.0
 10
24.83706262546158
 20
9.82106719666947
 30
0.0
 10
24.10420963466971
 20
9.643076415566018
 30
0.0
 10
23.37135675002778
 20
9.465085423549882
 30
0.0
 10
22.63850290383104
 20
9.287094417623665
 30
0.0
 10
21.90568082037606
 20
9.109111772032081
 30
0.0
 10
21.17354702136877
 20
8.931297319960716
 30
0.0
 10
20.44210256058147
 20
8.753651671453342
 30
0.0
 10
19.71131470754516
 20
8.576167149876758
 30
0.0
 10
18.98052692925152
 20
8.398684553743045
 30
0.0
 10
18.2497392223136
 20
8.221204070079667
 30
0.0
 10
17.51895158198975
 20
8.043725828587567
 30
0.0
 10
16.78816400489637
 20
7.86624989177571
 30
0.0
 10
16.05734471493432
 20
7.688768549291301
 30
0.0
 10
15.32378072843915
 20
7.510622846275384
 30
0.0
 10
14.58764602500763
 20
7.331855039029386
 30
0.0
 10
13.8489724131514
 20
7.15247244433902
 30
0.0
 10
13.11047281867514
 20
6.973133836378469
 30
0.0
 10
12.37197341482569
 20
6.793795746627093
 30
0.0
 10
11.63347347987311
 20
6.614460621273712
 30
0.0
 10
10.89497569775693
 20
6.435116864002532
 30
0.0
 10
10.15443076507983
 20
6.255309656444004
 30
0.0
 10
9.331968802027275
 20
6.055467943454663
 30
0.0
 10
8.46896464099555
 20
5.84642246938552
 30
0.0
 10
7.85466309464512
 20
5.695615407960734
 30
0.0
 10
7.568277326994126
 20
5.625309551968813
 30
0.0
  0
SPLINE
  5
220
330
76
100
AcDbEntity
  8
0
 62
     7
370
    35
100
AcDbSpline
210
0.0
220
0.0
230
1.0
 70
     8
 71
     3
 72
    28
 73
    24
 74
     0
 42
0.000000001
 43
0.0
 40
0.0
 40
0.0
 40
0.0
 40
0.0
 40
0.0019204667748147
 40
0.0033612349766772
 40
0.0058531862261415
 40
0.0101194674744951
 40
0.0173163102733058
 40
0.0291926172990654
 40
0.0481307703621506
 40
0.0766434153214712
 40
0.1151140998424121
 40
0.1545457714503513
 40
0.2099402855273981
 40
0.535746928164528
 40
0.8116725659498165
 40
1.081812770440537
 40
1.347710462608435
 40
1.613608000600568
 40
1.879505393576192
 40
2.197632901711714
 40
2.542205024163
 40
2.884051370713002
 40
3.225897538474872
 40
3.225897538474872
 40
3.225897538474872
 40
3.225897538474872
 10
-26.36564679180607
 20
-5.633662542947861
 30
0.0
 10
-26.36625565396194
 20
-5.633860677669653
 30
0.0
 10
-26.36732129529512
 20
-5.634207456570343
 30
0.0
 10
-26.36920559807277
 20
-5.63471487784359
 30
0.0
 10
-26.37184228831492
 20
-5.635433389464668
 30
0.0
 10
-26.37633966745338
 20
-5.636622116421552
 30
0.0
 10
-26.38386596241967
 20
-5.638591722057689
 30
0.0
 10
-26.39613333834588
 20
-5.641762337440593
 30
0.0
 10
-26.41528976885699
 20
-5.646672437577773
 30
0.0
 10
-26.44304690974161
 20
-5.653730816085384
 30
0.0
 10
-26.47743856163859
 20
-5.662417194371426
 30
0.0
 10
-26.5205532855359
 20
-5.673158334313182
 30
0.0
 10
-26.65685570906953
 20
-5.706035799053483
 30
0.0
 10
-26.8696629789813
 20
-5.757924593912094
 30
0.0
 10
-27.15209290259
 20
-5.826450639360688
 30
0.0
 10
-27.41509853177897
 20
-5.890340286364736
 30
0.0
 10
-27.67486076872013
 20
-5.953421101489679
 30
0.0
 10
-27.93324759566171
 20
-6.016172586262759
 30
0.0
 10
-28.20855309575947
 20
-6.083030719762098
 30
0.0
 10
-28.50934281932
 20
-6.156077364584505
 30
0.0
 10
-28.83473405113495
 20
-6.23509743015647
 30
0.0
 10
-29.16780839110632
 20
-6.315982478627417
 30
0.0
 10
-29.38926947767197
 20
-6.369762212904067
 30
0.0
 10
-29.49999999199834
 20
-6.396652073010593
 30
0.0
  0
SPLINE
  5
221
330
76
100
AcDbEntity
  8
0
 62
     7
370
    35
100
AcDbSpline
210
0.0
220
0.0
230
1.0
 70
     8
 71
     3
 72
    19
 73
    15
 74
     0
 42
0.000000001
 43
0.0
 40
0.0
 40
0.0
 40
0.0
 40
0.0
 40
0.3159259454552397
 40
0.6377807656331068
 40
0.958862888721979
 40
1.278322261309947
 40
1.527210839540743
 40
1.776099535203851
 40
2.024988354265433
 40
2.273909905674802
 40
2.531745844229486
 40
2.789624053667471
 40
3.083706123094557
 40
3.209485021857178
 40
3.209485021857178
 40
3.209485021857178
 40
3.209485021857178
 10
29.49999999196609
 20
6.396504647610081
 30
0.0
 10
29.39765128082768
 20
6.371712440183897
 30
0.0
 10
29.19103311511371
 20
6.321662758410462
 30
0.0
 10
28.88045102804096
 20
6.246188678091056
 30
0.0
 10
28.56870965612919
 20
6.170497412750593
 30
0.0
 10
28.28060763402683
 20
6.100528471253506
 30
0.0
 10
28.01588935931097
 20
6.036242757741047
 30
0.0
 10
27.77403125277804
 20
5.977504091371747
 30
0.0
 10
27.5321598356605
 20
5.918773288664294
 30
0.0
 10
27.28740061670511
 20
5.859297345361973
 30
0.0
 10
27.03969044169952
 20
5.799269982816695
 30
0.0
 10
26.77750614652236
 20
5.735076313499402
 30
0.0
 10
26.55755724036899
 20
5.683421399274788
 30
0.0
 10
26.42217170788975
 20
5.64794348638542
 30
0.0
 10
26.38161389358028
 20
5.637315270971968
 30
0.0
  0
SPLINE
  5
222
330
76
100
AcDbEntity
  8
0
 62
     7
370
    35
100
AcDbSpline
210
0.0
220
0.0
230
1.0
 70
     8
 71
     3
 72
    44
 73
    40
 74
     0
 42
0.000000001
 43
0.0
 40
0.0
 40
0.0
 40
0.0
 40
0.0
 40
0.0115389191014185
 40
0.020251235376137
 40
0.0353810502821645
 40
0.0614283264531136
 40
0.1057195842337042
 40
0.1796835170288169
 40
0.2998541512913637
 40
0.4866566710843039
 40
0.7551435322452521
 40
1.081683023592174
 40
1.396847902540528
 40
2.49646804838114
 40
3.233341761937593
 40
3.97021530016497
 40
4.707088826165245
 40
5.443962485865182
 40
6.180836404366399
 40
6.917710680443981
 40
7.65458539358328
 40
8.402667577408565
 40
9.179827177399169
 40
9.952345682339095
 40
10.72486483173708
 40
11.49738461950537
 40
12.26990502247222
 40
13.0424260015647
 40
13.81494750299586
 40
14.58885472113329
 40
15.36368342005677
 40
16.13838852540686
 40
16.91309381663055
 40
17.68779919027057
 40
18.46250452504202
 40
19.23720969033496
 40
20.01191454362014
 40
20.80303052288167
 40
21.59525953484749
 40
21.59525953484749
 40
21.59525953484749
 40
21.59525953484749
 10
-7.54943181060882
 20
-5.62095828031913
 30
0.0
 10
-7.55315590640502
 20
-5.621920275838073
 30
0.0
 10
-7.559691834065943
 20
-5.623608614018944
 30
0.0
 10
-7.571140928359421
 20
-5.626439047692544
 30
0.0
 10
-7.587282209075321
 20
-5.630440050357802
 30
0.0
 10
-7.614945397896925
 20
-5.637251706281948
 30
0.0
 10
-7.661656699773574
 20
-5.648729589876591
 30
0.0
 10
-7.738847549715701
 20
-5.667647683596198
 30
0.0
 10
-7.862188428821524
 20
-5.697825496317111
 30
0.0
 10
-8.04852777723577
 20
-5.743350922268609
 30
0.0
 10
-8.301710449104501
 20
-5.805123967437848
 30
0.0
 10
-8.596478628849436
 20
-5.876967715592926
 30
0.0
 10
-9.160535576141829
 20
-6.013906161326048
 30
0.0
 10
-9.857492298766951
 20
-6.183184703652834
 30
0.0
 10
-10.69105667786365
 20
-6.385601674230116
 30
0.0
 10
-11.40711882345648
 20
-6.559491563254584
 30
0.0
 10
-12.12318143175064
 20
-6.733379476695996
 30
0.0
 10
-12.83924394989721
 20
-6.907268296939971
 30
0.0
 10
-13.55530653585351
 20
-7.081157897880937
 30
0.0
 10
-14.27136915436452
 20
-7.25504885266461
 30
0.0
 10
-14.99106197020019
 20
-7.429822998680915
 30
0.0
 10
-15.72380350894403
 20
-7.607767928488313
 30
0.0
 10
-16.46809021375529
 20
-7.788518847948525
 30
0.0
 10
-17.2202919520304
 20
-7.971194332057517
 30
0.0
 10
-17.97099021392477
 20
-8.153507119985145
 30
0.0
 10
-18.72168854425735
 20
-8.335822306948266
 30
0.0
 10
-19.4723869471938
 20
-8.51813977925178
 30
0.0
 10
-20.22308542724695
 20
-8.700459354405103
 30
0.0
 10
-20.97423269958707
 20
-8.882889761907167
 30
0.0
 10
-21.72612712796701
 20
-9.065503172650732
 30
0.0
 10
-22.47872859067967
 20
-9.248289486729288
 30
0.0
 10
-23.23158838549584
 20
-9.431139314968128
 30
0.0
 10
-23.98440815959837
 20
-9.613979744134104
 30
0.0
 10
-24.73722804665949
 20
-9.796820032232846
 30
0.0
 10
-25.49004805333104
 20
-9.979659649992323
 30
0.0
 10
-26.24286817241595
 20
-10.16249806997415
 30
0.0
 10
-27.00100441403419
 20
-10.34662571255865
 30
0.0
 10
-27.76481742758843
 20
-10.53212988806492
 30
0.0
 10
-28.27769081804585
 20
-10.65668658176011
 30
0.0
 10
-28.53430777874416
 20
-10.71900870797178
 30
0.0
  0
SPLINE
  5
223
330
76
100
AcDbEntity
  8
0
 62
     7
370
    35
100
AcDbSpline
210
0.0
220
0.0
230
1.0
 70
     8
 71
     3
 72
    39
 73
    35
 74
     0
 42
0.000000001
 43
0.0
 40
0.0
 40
0.0
 40
0.0
 40
0.0
 40
0.015998474322342
 40
0.0280315424880984
 40
0.0488622069800773
 40
0.0845637843553625
 40
0.1448791258128818
 40
0.2446301198110046
 40
0.404243866462617
 40
0.6459956949360791
 40
0.9762073491864145
 40
1.327234320499273
 40
1.517027895076536
 40
2.203058644321191
 40
3.892911515686055
 40
5.464787143090375
 40
7.037670522426859
 40
8.603337688397081
 40
10.16025851895407
 40
11.71717833670251
 40
13.27409704172828
 40
14.83329954611072
 40
16.39681220996614
 40
17.95964564333983
 40
19.52247988491433
 40
21.2157739799719
 40
22.45851673930126
 40
23.61079109409537
 40
24.76306620129992
 40
25.91534209701666
 40
27.41216662861061
 40
28.98239959383112
 40
30.54762480439215
 40
32.11285286773307
 40
32.11285286773307
 40
32.11285286773307
 40
32.11285286773307
 10
11.21450487884571
 20
-5.621001857977316
 30
0.0
 10
11.20933710084593
 20
-5.622318437965691
 30
0.0
 10
11.20028243815428
 20
-5.624625268425869
 30
0.0
 10
11.18446711168994
 20
-5.628518516413203
 30
0.0
 10
11.16227720891267
 20
-5.633992310219161
 30
0.0
 10
11.1244504679633
 20
-5.643275605685337
 30
0.0
 10
11.06106936289654
 20
-5.658805433011624
 30
0.0
 10
10.95755931663498
 20
-5.684117725443147
 30
0.0
 10
10.79529004222291
 20
-5.723749291435986
 30
0.0
 10
10.55838066950476
 20
-5.78155241489335
 30
0.0
 10
10.25946851164631
 20
-5.8544107589698
 30
0.0
 10
9.977382583519168
 20
-5.923165525452638
 30
0.0
 10
9.579993467248672
 20
-6.019717867071636
 30
0.0
 10
8.748917094184746
 20
-6.221517525227241
 30
0.0
 10
7.470172385337164
 20
-6.532092428457669
 30
0.0
 10
5.904150947876891
 20
-6.912394016847637
 30
0.0
 10
4.378356944162535
 20
-7.282932463537464
 30
0.0
 10
2.857405972020072
 20
-7.652289968997657
 30
0.0
 10
1.341625580974958
 20
-8.020390444381249
 30
0.0
 10
-0.1713219623934417
 20
-8.387798863165473
 30
0.0
 10
-1.685009896071228
 20
-8.755381355274706
 30
0.0
 10
-3.200833886224574
 20
-9.123480355492827
 30
0.0
 10
-4.71857370603603
 20
-9.49204487604691
 30
0.0
 10
-6.2374894608493
 20
-9.860896941824958
 30
0.0
 10
-7.798443200105415
 20
-10.23996060636029
 30
0.0
 10
-9.255712524847283
 20
-10.59384950522014
 30
0.0
 10
-10.57999301655345
 20
-10.91544607041703
 30
0.0
 10
-11.72902669327578
 20
-11.19448740374249
 30
0.0
 10
-12.84875588747454
 20
-11.46641475079939
 30
0.0
 10
-14.08009049943908
 20
-11.765448679539
 30
0.0
 10
-15.4468082766975
 20
-12.09736515721255
 30
0.0
 10
-16.94728623869159
 20
-12.46177275123674
 30
0.0
 10
-18.46991964724916
 20
-12.83156828744962
 30
0.0
 10
-19.48392534608329
 20
-13.07784493513468
 30
0.0
 10
-19.99092865753169
 20
-13.20098337119308
 30
0.0
  0
LINE
  5
224
330
76
100
AcDbEntity
  8
0
 62
     7
370
    35
100
AcDbLine
 10
-1.222473
 20
-13.200021
 30
0.0
 11
29.5
 21
-5.738812
 31
0.0
  0
LINE
  5
225
330
76
100
AcDbEntity
  8
0
 62
     7
370
    35
100
AcDbLine
 10
28.614459
 20
-10.5109
 30
0.0
 11
17.543972
 21
-13.199227
 31
0.0
  0
LINE
  5
226
330
76
100
AcDbEntity
  8
0
 62
     7
370
    35
100
AcDbLine
 10
-16.061377
 20
28.611184
 30
0.0
 11
-12.0846
 21
28.611206
 31
0.0
  0
LINE
  5
227
330
76
100
AcDbEntity
  8
0
 62
     7
370
    35
100
AcDbLine
 10
2.7026
 20
28.611597
 30
0.0
 11
6.679469
 21
28.611416
 31
0.0
  0
LINE
  5
228
330
76
100
AcDbEntity
  8
0
 62
     7
370
    35
100
AcDbLine
 10
21.456951
 20
28.61165
 30
0.0
 11
25.433806
 21
28.61165
 31
0.0
  0
LINE
  5
229
330
76
100
AcDbEntity
  8
0
 62
     7
370
    35
100
AcDbLine
 10
-25.433806
 20
-28.61165
 30
0.0
 11
-21.456951
 21
-28.61165
 31
0.0
  0
ENDBLK
  5
78
330
76
100
AcDbEntity
  8
0
100
AcDbBlockEnd
  0
ENDSEC
  0
SECTION
  2
ENTITIES
  0
LINE
  5
22A
330
1F
100
AcDbEntity
  8
0
  6
DASHDOT
 62
     7
370
    13
100
AcDbLine
 10
803.900005
 20
420.5
 30
0.0
 11
385.10001
 21
420.5
 31
0.0
  0
INSERT
  5
22B
330
1F
100
AcDbEntity
  8
0
370
     0
100
AcDbBlockReference
  2
BLOCK1
 10
690.500004
 20
420.5
 30
0.0
  0
INSERT
  5
22C
330
1F
100
AcDbEntity
  8
0
370
     0
100
AcDbBlockReference
  2
BLOCK2
 10
690.500004
 20
420.5
 30
0.0
  0
INSERT
  5
22D
330
1F
100
AcDbEntity
  8
0
370
     0
100
AcDbBlockReference
  2
BLOCK3
 10
690.500004
 20
420.5
 30
0.0
  0
ENDSEC
  0
SECTION
  2
OBJECTS
  0
DICTIONARY
  5
C
330
0
100
AcDbDictionary
281
     1
  3
ACAD_GROUP
350
D
  3
ACAD_LAYOUT
350
1A
  3
ACAD_MLINESTYLE
350
17
  3
ACAD_PLOTSETTINGS
350
19
  3
ACAD_PLOTSTYLENAME
350
E
  3
ACAD_SCALELIST
350
47
  0
DICTIONARY
  5
D
102
{ACAD_REACTORS
330
C
102
}
330
C
100
AcDbDictionary
281
     1
  0
DICTIONARY
  5
1A
102
{ACAD_REACTORS
330
C
102
}
330
C
100
AcDbDictionary
281
     1
  3
Layout1
350
1E
  3
Layout2
350
26
  3
Model
350
22
  0
DICTIONARY
  5
17
102
{ACAD_REACTORS
330
C
102
}
330
C
100
AcDbDictionary
281
     1
  3
Standard
350
18
  0
DICTIONARY
  5
19
102
{ACAD_REACTORS
330
C
102
}
330
C
100
AcDbDictionary
281
     1
  0
ACDBDICTIONARYWDFLT
  5
E
102
{ACAD_REACTORS
330
C
102
}
330
C
100
AcDbDictionary
281
     1
  3
Normal
350
F
100
AcDbDictionaryWithDefault
340
F
  0
DICTIONARY
  5
47
102
{ACAD_REACTORS
330
C
102
}
330
C
100
AcDbDictionary
281
     1
  3
A0
350
48
  3
A1
350
49
  3
A2
350
4A
  3
A3
350
4B
  3
A4
350
4C
  3
A5
350
4D
  3
A6
350
4E
  3
A7
350
4F
  3
A8
350
50
  3
A9
350
51
  3
B0
350
52
  3
B1
350
53
  3
B2
350
54
  3
B3
350
55
  3
B4
350
56
  3
B5
350
57
  3
B6
350
58
  3
B7
350
59
  3
B8
350
5A
  3
B9
350
5B
  3
C0
350
5C
  3
C1
350
5D
  3
C2
350
5E
  3
C3
350
5F
  3
C4
350
60
  3
C5
350
61
  3
C6
350
62
  3
C7
350
63
  3
C8
350
64
  3
C9
350
65
  3
D0
350
66
  3
D1
350
67
  3
D2
350
68
  0
LAYOUT
  5
1E
102
{ACAD_REACTORS
330
1A
102
}
330
1A
100
AcDbPlotSettings
  1

  2
none_device
  4

  6

 40
0.0
 41
0.0
 42
0.0
 43
0.0
 44
0.0
 45
0.0
 46
0.0
 47
0.0
 48
0.0
 49
0.0
140
0.0
141
0.0
142
1.0
143
1.0
 70
  4784
 72
     0
 73
     0
 74
     5
  7

 75
    16
147
1.0
148
0.0
149
0.0
100
AcDbLayout
  1
Layout1
 70
     1
 71
     1
 10
0.0
 20
0.0
 11
420.0
 21
297.0
 12
0.0
 22
0.0
 32
0.0
 14
0.0
 24
0.0
 34
0.0
 15
113.400002
 25
10.4
 35
2.0
146
0.0
 13
0.0
 23
0.0
 33
0.0
 16
1.0
 26
0.0
 36
0.0
 17
0.0
 27
1.0
 37
0.0
 76
     0
330
1B
  0
LAYOUT
  5
26
102
{ACAD_REACTORS
330
1A
102
}
330
1A
100
AcDbPlotSettings
  1

  2
none_device
  4

  6

 40
0.0
 41
0.0
 42
0.0
 43
0.0
 44
0.0
 45
0.0
 46
0.0
 47
0.0
 48
0.0
 49
0.0
140
0.0
141
0.0
142
1.0
143
1.0
 70
  4784
 72
     0
 73
     0
 74
     5
  7

 75
    16
147
1.0
148
0.0
149
0.0
100
AcDbLayout
  1
Layout2
 70
     1
 71
     2
 10
0.0
 20
0.0
 11
0.0
 21
0.0
 12
0.0
 22
0.0
 32
0.0
 14
0.0
 24
0.0
 34
0.0
 15
0.0
 25
0.0
 35
0.0
146
0.0
 13
0.0
 23
0.0
 33
0.0
 16
1.0
 26
0.0
 36
0.0
 17
0.0
 27
1.0
 37
0.0
 76
     0
330
23
  0
LAYOUT
  5
22
102
{ACAD_REACTORS
330
1A
102
}
330
1A
100
AcDbPlotSettings
  1

  2
none_device
  4
Letter_(8.50_x_11.00_Inches)
  6

 40
6.35
 41
6.35
 42
6.350005
 43
6.350005
 44
215.9
 45
279.4
 46
0.0
 47
0.0
 48
0.0
 49
0.0
140
0.0
141
0.0
142
1.0
143
1.0
 70
  5808
 72
     0
 73
     0
 74
     0
  7

 75
     0
147
1.0
148
0.0
149
0.0
100
AcDbLayout
  1
Model
 70
     1
 71
     0
 10
0.0
 20
0.0
 11
420.0
 21
297.0
 12
0.0
 22
0.0
 32
0.0
 14
0.0
 24
0.0
 34
0.0
 15
113.400002
 25
10.4
 35
2.0
146
0.0
 13
0.0
 23
0.0
 33
0.0
 16
1.0
 26
0.0
 36
0.0
 17
0.0
 27
1.0
 37
0.0
 76
     0
330
1F
331
29
  0
MLINESTYLE
  5
18
102
{ACAD_REACTORS
330
17
102
}
330
17
100
AcDbMlineStyle
  2
Standard
 70
     0
  3

 62
   256
 51
90.0
 52
90.0
 71
     2
 49
0.5
 62
   256
  6
BYLAYER
 49
-0.5
 62
   256
  6
BYLAYER
  0
ACDBPLACEHOLDER
  5
F
102
{ACAD_REACTORS
330
E
102
}
330
E
  0
SCALE
  5
48
102
{ACAD_REACTORS
330
47
102
}
330
47
100
AcDbScale
 70
     0
300
1:1
140
1.0
141
1.0
290
     1
  0
SCALE
  5
49
102
{ACAD_REACTORS
330
47
102
}
330
47
100
AcDbScale
 70
     0
300
1:2
140
1.0
141
2.0
290
     0
  0
SCALE
  5
4A
102
{ACAD_REACTORS
330
47
102
}
330
47
100
AcDbScale
 70
     0
300
1:4
140
1.0
141
4.0
290
     0
  0
SCALE
  5
4B
102
{ACAD_REACTORS
330
47
102
}
330
47
100
AcDbScale
 70
     0
300
1:5
140
1.0
141
5.0
290
     0
  0
SCALE
  5
4C
102
{ACAD_REACTORS
330
47
102
}
330
47
100
AcDbScale
 70
     0
300
1:8
140
1.0
141
8.0
290
     0
  0
SCALE
  5
4D
102
{ACAD_REACTORS
330
47
102
}
330
47
100
AcDbScale
 70
     0
300
1:10
140
1.0
141
10.0
290
     0
  0
SCALE
  5
4E
102
{ACAD_REACTORS
330
47
102
}
330
47
100
AcDbScale
 70
     0
300
1:16
140
1.0
141
16.0
290
     0
  0
SCALE
  5
4F
102
{ACAD_REACTORS
330
47
102
}
330
47
100
AcDbScale
 70
     0
300
1:20
140
1.0
141
20.0
290
     0
  0
SCALE
  5
50
102
{ACAD_REACTORS
330
47
102
}
330
47
100
AcDbScale
 70
     0
300
1:30
140
1.0
141
30.0
290
     0
  0
SCALE
  5
51
102
{ACAD_REACTORS
330
47
102
}
330
47
100
AcDbScale
 70
     0
300
1:40
140
1.0
141
40.0
290
     0
  0
SCALE
  5
52
102
{ACAD_REACTORS
330
47
102
}
330
47
100
AcDbScale
 70
     0
300
1:50
140
1.0
141
50.0
290
     0
  0
SCALE
  5
53
102
{ACAD_REACTORS
330
47
102
}
330
47
100
AcDbScale
 70
     0
300
1:100
140
1.0
141
100.0
290
     0
  0
SCALE
  5
54
102
{ACAD_REACTORS
330
47
102
}
330
47
100
AcDbScale
 70
     0
300
2:1
140
2.0
141
1.0
290
     0
  0
SCALE
  5
55
102
{ACAD_REACTORS
330
47
102
}
330
47
100
AcDbScale
 70
     0
300
4:1
140
4.0
141
1.0
290
     0
  0
SCALE
  5
56
102
{ACAD_REACTORS
330
47
102
}
330
47
100
AcDbScale
 70
     0
300
8:1
140
8.0
141
1.0
290
     0
  0
SCALE
  5
57
102
{ACAD_REACTORS
330
47
102
}
330
47
100
AcDbScale
 70
     0
300
10:1
140
10.0
141
1.0
290
     0
  0
SCALE
  5
58
102
{ACAD_REACTORS
330
47
102
}
330
47
100
AcDbScale
 70
     0
300
100:1
140
100.0
141
1.0
290
     0
  0
SCALE
  5
59
102
{ACAD_REACTORS
330
47
102
}
330
47
100
AcDbScale
 70
     0
300
1/128" = 1'-0"
140
0.007812
141
12.0
290
     0
  0
SCALE
  5
5A
102
{ACAD_REACTORS
330
47
102
}
330
47
100
AcDbScale
 70
     0
300
1/64" = 1'-0"
140
0.015625
141
12.0
290
     0
  0
SCALE
  5
5B
102
{ACAD_REACTORS
330
47
102
}
330
47
100
AcDbScale
 70
     0
300
1/32" = 1'-0"
140
0.03125
141
12.0
290
     0
  0
SCALE
  5
5C
102
{ACAD_REACTORS
330
47
102
}
330
47
100
AcDbScale
 70
     0
300
1/16" = 1'-0"
140
0.0625
141
12.0
290
     0
  0
SCALE
  5
5D
102
{ACAD_REACTORS
330
47
102
}
330
47
100
AcDbScale
 70
     0
300
3/32" = 1'-0"
140
0.09375
141
12.0
290
     0
  0
SCALE
  5
5E
102
{ACAD_REACTORS
330
47
102
}
330
47
100
AcDbScale
 70
     0
300
1/8" = 1'-0"
140
0.125
141
12.0
290
     0
  0
SCALE
  5
5F
102
{ACAD_REACTORS
330
47
102
}
330
47
100
AcDbScale
 70
     0
300
3/16" = 1'-0"
140
0.1875
141
12.0
290
     0
  0
SCALE
  5
60
102
{ACAD_REACTORS
330
47
102
}
330
47
100
AcDbScale
 70
     0
300
1/4" = 1'-0"
140
0.25
141
12.0
290
     0
  0
SCALE
  5
61
102
{ACAD_REACTORS
330
47
102
}
330
47
100
AcDbScale
 70
     0
300
3/8" = 1'-0"
140
0.375
141
12.0
290
     0
  0
SCALE
  5
62
102
{ACAD_REACTORS
330
47
102
}
330
47
100
AcDbScale
 70
     0
300
1/2" = 1'-0"
140
0.5
141
12.0
290
     0
  0
SCALE
  5
63
102
{ACAD_REACTORS
330
47
102
}
330
47
100
AcDbScale
 70
     0
300
3/4" = 1'-0"
140
0.75
141
12.0
290
     0
  0
SCALE
  5
64
102
{ACAD_REACTORS
330
47
102
}
330
47
100
AcDbScale
 70
     0
300
1" = 1'-0"
140
1.0
141
12.0
290
     0
  0
SCALE
  5
65
102
{ACAD_REACTORS
330
47
102
}
330
47
100
AcDbScale
 70
     0
300
1-1/2" = 1'-0"
140
1.5
141
12.0
290
     0
  0
SCALE
  5
66
102
{ACAD_REACTORS
330
47
102
}
330
47
100
AcDbScale
 70
     0
300
3" = 1'-0"
140
3.0
141
12.0
290
     0
  0
SCALE
  5
67
102
{ACAD_REACTORS
330
47
102
}
330
47
100
AcDbScale
 70
     0
300
6" = 1'-0"
140
6.0
141
12.0
290
     0
  0
SCALE
  5
68
102
{ACAD_REACTORS
330
47
102
}
330
47
100
AcDbScale
 70
     0
300
1'-0" = 1'-0"
140
12.0
141
12.0
290
     0
  0
ENDSEC
  0
EOF
