  0
SECTION
  2
HEADER
  9
$ACADVER
  1
AC1015
  9
$ACADMAINTVER
 70
     6
  9
$DWGCODEPAGE
  3
ANSI_1252
  9
$INSBASE
 10
0.0
 20
0.0
 30
0.0
  9
$EXTMIN
 10
0.0
 20
0.0
 30
0.0
  9
$EXTMAX
 10
138.324265
 20
98.971367
 30
2.0
  9
$LIMMIN
 10
0.0
 20
0.0
  9
$LIMMAX
 10
420.0
 20
297.0
  9
$ORTHOMODE
 70
     0
  9
$REGENMODE
 70
     1
  9
$FILLMODE
 70
     1
  9
$QTEXTMODE
 70
     0
  9
$MIRRTEXT
 70
     1
  9
$LTSCALE
 40
1.0
  9
$ATTMODE
 70
     1
  9
$TEXTSIZE
 40
2.5
  9
$TRACEWID
 40
1.0
  9
$TEXTSTYLE
  7
Standard
  9
$CLAYER
  8
0
  9
$CELTYPE
  6
ByLayer
  9
$CECOLOR
 62
   256
  9
$CELTSCALE
 40
1.0
  9
$DISPSILH
 70
     0
  9
$DIMSCALE
 40
1.0
  9
$DIMASZ
 40
2.5
  9
$DIMEXO
 40
0.625
  9
$DIMDLI
 40
3.75
  9
$DIMRND
 40
0.0
  9
$DIMDLE
 40
0.0
  9
$DIMEXE
 40
1.25
  9
$DIMTP
 40
0.0
  9
$DIMTM
 40
0.0
  9
$DIMTXT
 40
2.5
  9
$DIMCEN
 40
2.5
  9
$DIMTSZ
 40
0.0
  9
$DIMTOL
 70
     0
  9
$DIMLIM
 70
     0
  9
$DIMTIH
 70
     0
  9
$DIMTOH
 70
     0
  9
$DIMSE1
 70
     0
  9
$DIMSE2
 70
     0
  9
$DIMTAD
 70
     1
  9
$DIMZIN
 70
     8
  9
$DIMBLK
  1

  9
$DIMASO
 70
     1
  9
$DIMSHO
 70
     1
  9
$DIMPOST
  1

  9
$DIMAPOST
  1

  9
$DIMALT
 70
     0
  9
$DIMALTD
 70
     3
  9
$DIMALTF
 40
0.03937
  9
$DIMLFAC
 40
1.0
  9
$DIMTOFL
 70
     1
  9
$DIMTVP
 40
0.0
  9
$DIMTIX
 70
     0
  9
$DIMSOXD
 70
     0
  9
$DIMSAH
 70
     0
  9
$DIMBLK1
  1

  9
$DIMBLK2
  1

  9
$DIMSTYLE
  2
STANDARD
  9
$DIMCLRD
 70
     0
  9
$DIMCLRE
 70
     0
  9
$DIMCLRT
 70
     0
  9
$DIMTFAC
 40
1.0
  9
$DIMGAP
 40
0.625
  9
$DIMJUST
 70
     0
  9
$DIMSD1
 70
     0
  9
$DIMSD2
 70
     0
  9
$DIMTOLJ
 70
     0
  9
$DIMTZIN
 70
     8
  9
$DIMALTZ
 70
     0
  9
$DIMALTTZ
 70
     0
  9
$DIMUPT
 70
     0
  9
$DIMDEC
 70
     2
  9
$DIMTDEC
 70
     2
  9
$DIMALTU
 70
     2
  9
$DIMALTTD
 70
     3
  9
$DIMTXSTY
  7
Standard
  9
$DIMAUNIT
 70
     0
  9
$DIMADEC
 70
     0
  9
$DIMALTRND
 40
0.0
  9
$DIMAZIN
 70
     0
  9
$DIMDSEP
 70
    44
  9
$DIMATFIT
 70
     0
  9
$DIMFRAC
 70
     0
  9
$DIMLDRBLK
  1

  9
$DIMLUNIT
 70
     2
  9
$DIMLWD
 70
    -2
  9
$DIMLWE
 70
    -2
  9
$DIMTMOVE
 70
     0
  9
$LUNITS
 70
     2
  9
$LUPREC
 70
     4
  9
$SKETCHINC
 40
1.0
  9
$FILLETRAD
 40
2.5
  9
$AUNITS
 70
     0
  9
$AUPREC
 70
     0
  9
$MENU
  1
.
  9
$ELEVATION
 40
0.0
  9
$PELEVATION
 40
0.0
  9
$THICKNESS
 40
0.0
  9
$LIMCHECK
 70
     0
  9
$CHAMFERA
 40
2.5
  9
$CHAMFERB
 40
2.5
  9
$CHAMFERC
 40
0.0
  9
$CHAMFERD
 40
0.0
  9
$SKPOLY
 70
     0
  9
$TDCREATE
 40
2447893.333333333
  9
$TDUCREATE
 40
0.0
  9
$TDUPDATE
 40
2459908.595715776
  9
$TDUUPDATE
 40
2459908.262382442
  9
$TDINDWG
 40
0.0
  9
$TDUSRTIMER
 40
0.0
  9
$USRTIMER
 70
     1
  9
$ANGBASE
 50
0.0
  9
$ANGDIR
 70
     0
  9
$PDMODE
 70
     0
  9
$PDSIZE
 40
0.0
  9
$PLINEWID
 40
0.0
  9
$SPLFRAME
 70
     0
  9
$SPLINETYPE
 70
     6
  9
$SPLINESEGS
 70
     8
  9
$HANDSEED
  5
1D9
  9
$SURFTAB1
 70
     6
  9
$SURFTAB2
 70
     6
  9
$SURFTYPE
 70
     6
  9
$SURFU
 70
     6
  9
$SURFV
 70
     6
  9
$UCSBASE
  2

  9
$UCSNAME
  2

  9
$UCSORG
 10
0.0
 20
0.0
 30
0.0
  9
$UCSXDIR
 10
1.0
 20
0.0
 30
0.0
  9
$UCSYDIR
 10
0.0
 20
1.0
 30
0.0
  9
$UCSORTHOREF
  2

  9
$UCSORTHOVIEW
 70
     1
  9
$UCSORGTOP
 10
0.0
 20
0.0
 30
0.0
  9
$UCSORGBOTTOM
 10
0.0
 20
0.0
 30
0.0
  9
$UCSORGLEFT
 10
0.0
 20
0.0
 30
0.0
  9
$UCSORGRIGHT
 10
0.0
 20
0.0
 30
0.0
  9
$UCSORGFRONT
 10
0.0
 20
0.0
 30
0.0
  9
$UCSORGBACK
 10
0.0
 20
0.0
 30
0.0
  9
$PUCSBASE
  2

  9
$PUCSNAME
  2

  9
$PUCSORG
 10
0.0
 20
0.0
 30
0.0
  9
$PUCSXDIR
 10
1.0
 20
0.0
 30
0.0
  9
$PUCSYDIR
 10
0.0
 20
1.0
 30
0.0
  9
$PUCSORTHOREF
  2

  9
$PUCSORTHOVIEW
 70
     0
  9
$PUCSORGTOP
 10
0.0
 20
0.0
 30
0.0
  9
$PUCSORGBOTTOM
 10
0.0
 20
0.0
 30
0.0
  9
$PUCSORGLEFT
 10
0.0
 20
0.0
 30
0.0
  9
$PUCSORGRIGHT
 10
0.0
 20
0.0
 30
0.0
  9
$PUCSORGFRONT
 10
0.0
 20
0.0
 30
0.0
  9
$PUCSORGBACK
 10
0.0
 20
0.0
 30
0.0
  9
$USERI1
 70
     0
  9
$USERI2
 70
     0
  9
$USERI3
 70
     0
  9
$USERI4
 70
     0
  9
$USERI5
 70
     0
  9
$USERR1
 40
0.0
  9
$USERR2
 40
0.0
  9
$USERR3
 40
0.0
  9
$USERR4
 40
0.0
  9
$USERR5
 40
0.0
  9
$WORLDVIEW
 70
     1
  9
$SHADEDGE
 70
     3
  9
$SHADEDIF
 70
    70
  9
$TILEMODE
 70
     1
  9
$MAXACTVP
 70
    64
  9
$PINSBASE
 10
0.0
 20
0.0
 30
0.0
  9
$PLIMCHECK
 70
     0
  9
$PEXTMIN
 10
0.0
 20
0.0
 30
0.0
  9
$PEXTMAX
 10
138.324265
 20
98.971367
 30
2.0
  9
$PLIMMIN
 10
0.0
 20
0.0
  9
$PLIMMAX
 10
420.0
 20
297.0
  9
$UNITMODE
 70
     0
  9
$VISRETAIN
 70
     0
  9
$PLINEGEN
 70
     0
  9
$PSLTSCALE
 70
     1
  9
$TREEDEPTH
 70
  3020
  9
$CMLSTYLE
  2
Standard
  9
$CMLJUST
 70
     0
  9
$CMLSCALE
 40
20.0
  9
$PROXYGRAPHICS
 70
     1
  9
$MEASUREMENT
 70
     1
  9
$CELWEIGHT
370
    -1
  9
$ENDCAPS
280
     0
  9
$JOINSTYLE
280
     0
  9
$LWDISPLAY
290
     0
  9
$INSUNITS
 70
     0
  9
$HYPERLINKBASE
  1

  9
$STYLESHEET
  1

  9
$XEDIT
290
     1
  9
$CEPSNTYPE
380
     0
  9
$PSTYLEMODE
290
     0
  9
$FINGERPRINTGUID
  2
{575689F0-28E8-4618-A7A5-5E39B16A2B15}
  9
$VERSIONGUID
  2
{FAEB1C32-E019-11D5-929B-00C0DF256EC4}
  9
$EXTNAMES
290
     1
  9
$PSVPSCALE
 40
0.0
  9
$OLESTARTUP
290
     0
  0
ENDSEC
  0
SECTION
  2
CLASSES
  0
CLASS
  1
ACDBDICTIONARYWDFLT
  2
AcDbDictionaryWithDefault
  3
ObjectDBX Classes
 90
        0
280
     0
281
     0
  0
CLASS
  1
VISUALSTYLE
  2
AcDbVisualStyle
  3
ObjectDBX Classes
 90
     4095
280
     0
281
     0
  0
CLASS
  1
MATERIAL
  2
AcDbMaterial
  3
ObjectDBX Classes
 90
     1153
280
     0
281
     0
  0
CLASS
  1
SCALE
  2
AcDbScale
  3
ObjectDBX Classes
 90
     1153
280
     0
281
     0
  0
CLASS
  1
TABLESTYLE
  2
AcDbTableStyle
  3
ObjectDBX Classes
 90
     4095
280
     0
281
     0
  0
CLASS
  1
MLEADERSTYLE
  2
AcDbMLeaderStyle
  3
ACDB_MLEADERSTYLE_CLASS
 90
     4095
280
     0
281
     0
  0
CLASS
  1
SUN
  2
AcDbSun
  3
SCENEOE
 90
     1153
280
     0
281
     0
  0
CLASS
  1
ACDBPLACEHOLDER
  2
AcDbPlaceHolder
  3
ObjectDBX Classes
 90
        0
280
     0
281
     0
  0
CLASS
  1
LAYOUT
  2
AcDbLayout
  3
ObjectDBX Classes
 90
        0
280
     0
281
     0
  0
ENDSEC
  0
SECTION
  2
TABLES
  0
TABLE
  2
VPORT
  5
8
330
0
100
AcDbSymbolTable
 70
     1
  0
VPORT
  5
29
330
8
100
AcDbSymbolTableRecord
100
AcDbViewportTableRecord
  2
*Active
 70
     0
 10
0.0
 20
0.0
 11
1.0
 21
1.0
 12
10.429907
 22
4.5
 13
0.0
 23
0.0
 14
0.5
 24
0.5
 15
0.5
 25
0.5
 16
0.0
 26
0.0
 36
1.0
 17
0.0
 27
0.0
 37
0.0
 40
9.0
 41
1.972973
 42
50.0
 43
0.0
 44
0.0
 50
0.0
 51
0.0
 71
     0
 72
   100
 73
     1
 74
     3
 75
     0
 76
     0
 77
     0
 78
     0
281
     0
 65
     1
110
0.0
120
0.0
130
0.0
111
1.0
121
0.0
131
0.0
112
0.0
122
1.0
132
0.0
 79
     0
146
0.0
  0
ENDTAB
  0
TABLE
  2
LTYPE
  5
5
330
0
100
AcDbSymbolTable
 70
     2
  0
LTYPE
  5
14
330
5
100
AcDbSymbolTableRecord
100
AcDbLinetypeTableRecord
  2
ByBlock
 70
     0
  3

 72
    65
 73
     0
 40
0.0
  0
LTYPE
  5
15
330
5
100
AcDbSymbolTableRecord
100
AcDbLinetypeTableRecord
  2
ByLayer
 70
     0
  3

 72
    65
 73
     0
 40
0.0
  0
LTYPE
  5
16
330
5
100
AcDbSymbolTableRecord
100
AcDbLinetypeTableRecord
  2
Continuous
 70
     0
  3
Solid line
 72
    65
 73
     0
 40
0.0
  0
LTYPE
  5
6F
330
5
100
AcDbSymbolTableRecord
100
AcDbLinetypeTableRecord
  2
DASHDOT
 70
     0
  3
 __ . __ . __ . __ . __ . __ . __ . 
 72
    65
 73
     4
 40
18.5
 49
12.0
 74
     0
 49
-3.0
 74
     0
 49
0.5
 74
     0
 49
-3.0
 74
     0
  0
ENDTAB
  0
TABLE
  2
LAYER
  5
2
330
0
100
AcDbSymbolTable
 70
     1
  0
LAYER
  5
10
330
2
100
AcDbSymbolTableRecord
100
AcDbLayerTableRecord
  2
0
 70
     0
 62
     7
  6
Continuous
370
    13
390
F
  0
ENDTAB
  0
TABLE
  2
STYLE
  5
3
330
0
100
AcDbSymbolTable
 70
     2
  0
STYLE
  5
11
330
3
100
AcDbSymbolTableRecord
100
AcDbTextStyleTableRecord
  2
Standard
 70
     0
 40
0.0
 41
1.0
 50
0.0
 71
     0
 42
2.5
  3
isocp.shx
  4

  0
STYLE
  5
6E
330
3
100
AcDbSymbolTableRecord
100
AcDbTextStyleTableRecord
  2
GDT
 70
     0
 40
0.0
 41
1.0
 50
0.0
 71
     0
 42
0.2
  3
gdt.shx
  4

  0
ENDTAB
  0
TABLE
  2
VIEW
  5
6
330
0
100
AcDbSymbolTable
 70
     0
  0
ENDTAB
  0
TABLE
  2
UCS
  5
7
330
0
100
AcDbSymbolTable
 70
     0
  0
ENDTAB
  0
TABLE
  2
APPID
  5
9
330
0
100
AcDbSymbolTable
 70
     1
  0
APPID
  5
12
330
9
100
AcDbSymbolTableRecord
100
AcDbRegAppTableRecord
  2
ACAD
 70
     0
  0
ENDTAB
  0
TABLE
  2
DIMSTYLE
  5
A
330
0
100
AcDbSymbolTable
 70
     1
100
AcDbDimStyleTable
  0
DIMSTYLE
105
27
330
A
100
AcDbSymbolTableRecord
100
AcDbDimStyleTableRecord
  2
STANDARD
 70
     0
 41
2.5
 42
0.625
 43
3.75
 44
1.25
 73
     0
 74
     0
 77
     1
 78
     8
140
2.5
141
2.5
143
0.03937
147
0.625
171
     3
172
     1
178
     0
271
     2
272
     2
274
     3
278
    44
283
     0
284
     8
289
     0
340
0
  0
ENDTAB
  0
TABLE
  2
BLOCK_RECORD
  5
1
330
0
100
AcDbSymbolTable
 70
     3
  0
BLOCK_RECORD
  5
1F
330
1
100
AcDbSymbolTableRecord
100
AcDbBlockTableRecord
  2
*Model_Space
340
22
  0
BLOCK_RECORD
  5
1B
330
1
100
AcDbSymbolTableRecord
100
AcDbBlockTableRecord
  2
*Paper_Space
340
1E
  0
BLOCK_RECORD
  5
23
330
1
100
AcDbSymbolTableRecord
100
AcDbBlockTableRecord
  2
*Paper_Space0
340
26
  0
BLOCK_RECORD
  5
70
330
1
100
AcDbSymbolTableRecord
100
AcDbBlockTableRecord
  2
BLOCK1
340
0
102
{BLKREFS
331
1D7
102
}
  0
BLOCK_RECORD
  5
73
330
1
100
AcDbSymbolTableRecord
100
AcDbBlockTableRecord
  2
BLOCK2
340
0
102
{BLKREFS
331
1D8
102
}
  0
ENDTAB
  0
ENDSEC
  0
SECTION
  2
BLOCKS
  0
BLOCK
  5
20
330
1F
100
AcDbEntity
  8
0
100
AcDbBlockBegin
  2
*Model_Space
 70
     0
 10
0.0
 20
0.0
 30
0.0
  3
*Model_Space
  1

  0
ENDBLK
  5
21
330
1F
100
AcDbEntity
  8
0
100
AcDbBlockEnd
  0
BLOCK
  5
1C
330
1B
100
AcDbEntity
 67
     1
  8
0
100
AcDbBlockBegin
  2
*Paper_Space
 70
     0
 10
0.0
 20
0.0
 30
0.0
  3
*Paper_Space
  1

  0
ENDBLK
  5
1D
330
1B
100
AcDbEntity
 67
     1
  8
0
100
AcDbBlockEnd
  0
BLOCK
  5
24
330
23
100
AcDbEntity
  8
0
100
AcDbBlockBegin
  2
*Paper_Space0
 70
     0
 10
0.0
 20
0.0
 30
0.0
  3
*Paper_Space0
  1

  0
ENDBLK
  5
25
330
23
100
AcDbEntity
  8
0
100
AcDbBlockEnd
  0
BLOCK
  5
71
330
70
100
AcDbEntity
  8
0
100
AcDbBlockBegin
  2
BLOCK1
 70
     0
 10
0.0
 20
0.0
 30
0.0
  3
BLOCK1
  1

  0
LINE
  5
76
330
70
100
AcDbEntity
  8
0
 62
     7
370
    35
100
AcDbLine
 10
15.074211
 20
1.321363
 30
0.0
 11
-30.925789
 21
1.321363
 31
0.0
  0
LINE
  5
77
330
70
100
AcDbEntity
  8
0
 62
     7
370
    35
100
AcDbLine
 10
15.074211
 20
41.321363
 30
0.0
 11
-30.925789
 21
41.321363
 31
0.0
  0
ARC
  5
78
330
70
100
AcDbEntity
  8
0
 62
     7
370
    35
100
AcDbCircle
 10
-31.925789
 20
1.321363
 30
0.0
 40
1.0
100
AcDbArc
 50
0.0
 51
90.0
  0
ARC
  5
79
330
70
100
AcDbEntity
  8
0
 62
     7
370
    35
100
AcDbCircle
 10
-31.925789
 20
41.321363
 30
0.0
 40
1.0
100
AcDbArc
 50
270.0
 51
0.0
  0
ARC
  5
7A
330
70
100
AcDbEntity
  8
0
 62
     7
370
    35
100
AcDbCircle
 10
15.074211
 20
0.321363
 30
0.0
 40
1.0
100
AcDbArc
 50
360.0
 51
90.0
  0
ARC
  5
7B
330
70
100
AcDbEntity
  8
0
 62
     7
370
    35
100
AcDbCircle
 10
15.074211
 20
42.321363
 30
0.0
 40
1.0
100
AcDbArc
 50
270.0
 51
0.0
  0
LINE
  5
7C
330
70
100
AcDbEntity
  8
0
 62
     7
370
    35
100
AcDbLine
 10
-31.925789
 20
2.321363
 30
0.0
 11
-49.925789
 21
2.321363
 31
0.0
  0
LINE
  5
7D
330
70
100
AcDbEntity
  8
0
 62
     7
370
    35
100
AcDbLine
 10
-31.925789
 20
40.321363
 30
0.0
 11
-49.925789
 21
40.321363
 31
0.0
  0
LINE
  5
7E
330
70
100
AcDbEntity
  8
0
 62
     7
370
    35
100
AcDbLine
 10
16.074211
 20
42.321363
 30
0.0
 11
16.074211
 21
44.321363
 31
0.0
  0
LINE
  5
7F
330
70
100
AcDbEntity
  8
0
 62
     7
370
    35
100
AcDbLine
 10
16.074211
 20
-1.678637
 30
0.0
 11
16.074211
 21
0.321363
 31
0.0
  0
LINE
  5
80
330
70
100
AcDbEntity
  8
0
 62
     7
370
    35
100
AcDbLine
 10
-49.925789
 20
40.321363
 30
0.0
 11
-50.925789
 21
39.321363
 31
0.0
  0
LINE
  5
81
330
70
100
AcDbEntity
  8
0
 62
     7
370
    35
100
AcDbLine
 10
-49.925789
 20
2.321363
 30
0.0
 11
-50.925789
 21
3.321363
 31
0.0
  0
LINE
  5
82
330
70
100
AcDbEntity
  8
0
 62
     7
370
    35
100
AcDbLine
 10
16.074211
 20
-1.678637
 30
0.0
 11
17.074211
 21
-2.678637
 31
0.0
  0
LINE
  5
83
330
70
100
AcDbEntity
  8
0
 62
     7
370
    35
100
AcDbLine
 10
16.074211
 20
44.321363
 30
0.0
 11
17.074211
 21
45.321363
 31
0.0
  0
LINE
  5
84
330
70
100
AcDbEntity
  8
0
 62
     7
370
    35
100
AcDbLine
 10
-50.925789
 20
3.321363
 30
0.0
 11
-50.925789
 21
5.321363
 31
0.0
  0
LINE
  5
85
330
70
100
AcDbEntity
  8
0
 62
     7
370
    35
100
AcDbLine
 10
-50.925789
 20
37.321363
 30
0.0
 11
-50.925789
 21
39.321363
 31
0.0
  0
LINE
  5
86
330
70
100
AcDbEntity
  8
0
 62
     7
370
    35
100
AcDbLine
 10
17.074211
 20
-2.678637
 30
0.0
 11
20.574211
 21
-2.678637
 31
0.0
  0
LINE
  5
87
330
70
100
AcDbEntity
  8
0
 62
     7
370
    35
100
AcDbLine
 10
17.074211
 20
45.321363
 30
0.0
 11
20.574211
 21
45.321363
 31
0.0
  0
ARC
  5
88
330
70
100
AcDbEntity
  8
0
 62
     7
370
    35
100
AcDbCircle
 10
-51.925789
 20
5.321363
 30
0.0
 40
1.0
100
AcDbArc
 50
0.0
 51
90.0
  0
ARC
  5
89
330
70
100
AcDbEntity
  8
0
 62
     7
370
    35
100
AcDbCircle
 10
-51.925789
 20
37.321363
 30
0.0
 40
1.0
100
AcDbArc
 50
270.0
 51
0.0
  0
LINE
  5
8A
330
70
100
AcDbEntity
  8
0
 62
     7
370
    35
100
AcDbLine
 10
21.574211
 20
-3.678637
 30
0.0
 11
20.574211
 21
-2.678637
 31
0.0
  0
LINE
  5
8B
330
70
100
AcDbEntity
  8
0
 62
     7
370
    35
100
AcDbLine
 10
21.574211
 20
46.321363
 30
0.0
 11
20.574211
 21
45.321363
 31
0.0
  0
LINE
  5
8C
330
70
100
AcDbEntity
  8
0
 62
     7
370
    35
100
AcDbLine
 10
-51.925789
 20
6.321363
 30
0.0
 11
-94.925789
 21
6.321363
 31
0.0
  0
LINE
  5
8D
330
70
100
AcDbEntity
  8
0
 62
     7
370
    35
100
AcDbLine
 10
-51.925789
 20
36.321363
 30
0.0
 11
-94.925789
 21
36.321363
 31
0.0
  0
LINE
  5
8E
330
70
100
AcDbEntity
  8
0
 62
     7
370
    35
100
AcDbLine
 10
21.574211
 20
-4.456853
 30
0.0
 11
21.574211
 21
-5.174753
 31
0.0
  0
LINE
  5
8F
330
70
100
AcDbEntity
  8
0
 62
     7
370
    35
100
AcDbLine
 10
21.574211
 20
-3.678637
 30
0.0
 11
21.574211
 21
-4.455488
 31
0.0
  0
LINE
  5
90
330
70
100
AcDbEntity
  8
0
 62
     7
370
    35
100
AcDbLine
 10
21.574211
 20
47.885264
 30
0.0
 11
21.574211
 21
46.321363
 31
0.0
  0
LINE
  5
91
330
70
100
AcDbEntity
  8
0
 62
     7
370
    35
100
AcDbLine
 10
-96.925789
 20
34.321363
 30
0.0
 11
-94.925789
 21
36.321363
 31
0.0
  0
LINE
  5
92
330
70
100
AcDbEntity
  8
0
 62
     7
370
    35
100
AcDbLine
 10
-96.925789
 20
8.321363
 30
0.0
 11
-94.925789
 21
6.321363
 31
0.0
  0
LINE
  5
93
330
70
100
AcDbEntity
  8
0
 62
     7
370
    35
100
AcDbLine
 10
21.574211
 20
47.885264
 30
0.0
 11
22.377789
 21
48.688841
 31
0.0
  0
SPLINE
  5
94
330
70
100
AcDbEntity
  8
0
 62
     7
370
    35
100
AcDbSpline
210
0.0
220
0.0
230
1.0
 70
     8
 71
     5
 72
    45
 73
    39
 74
     0
 42
0.000000001
 43
0.0
 40
1.300508063530908
 40
1.300508063530908
 40
1.300508063530908
 40
1.300508063530908
 40
1.300508063530908
 40
1.300508063530908
 40
1.749358979766972
 40
1.749358979766972
 40
1.749358979766972
 40
3.128785052061802
 40
3.128785052061802
 40
3.128785052061802
 40
4.172244898517313
 40
4.172244898517313
 40
4.172244898517313
 40
4.361546401430433
 40
4.361546401430433
 40
4.361546401430433
 40
4.550847904343564
 40
4.550847904343564
 40
4.550847904343564
 40
4.740117722988855
 40
4.740117722988855
 40
4.740117722988855
 40
4.929387541634144
 40
4.929387541634144
 40
4.929387541634144
 40
6.401744361678845
 40
6.401744361678845
 40
6.401744361678845
 40
7.419333020314157
 40
7.419333020314157
 40
7.419333020314157
 40
8.029377578794351
 40
8.029377578794351
 40
8.029377578794351
 40
8.639422137274545
 40
8.639422137274545
 40
8.639422137274545
 40
9.576825222349314
 40
9.576825222349314
 40
9.576825222349314
 40
9.576825222349314
 40
9.576825222349314
 40
9.576825222349314
 10
22.37778957776301
 20
48.68884241651366
 30
0.0
 10
22.43244349679051
 20
48.65332378346965
 30
0.0
 10
22.48693620117264
 20
48.61755480384119
 30
0.0
 10
22.5412569969227
 20
48.58152567268368
 30
0.0
 10
22.76175441188435
 20
48.43367613558561
 30
0.0
 10
22.97873203106629
 20
48.2812832661415
 30
0.0
 10
23.13934246871728
 20
48.16387138744209
 30
0.0
 10
23.41704041914076
 20
47.95110044319281
 30
0.0
 10
23.6800621566333
 20
47.72731891454816
 30
0.0
 10
23.78945916462018
 20
47.62920200268318
 30
0.0
 10
23.91390799083517
 20
47.51010079903944
 30
0.0
 10
24.02839230082695
 20
47.38911109983298
 30
0.0
 10
24.0457333838582
 20
47.37048067212622
 30
0.0
 10
24.07985171030965
 20
47.33318614312387
 30
0.0
 10
24.11280718673233
 20
47.29581640151354
 30
0.0
 10
24.12899895886902
 20
47.27710957210379
 30
0.0
 10
24.16055321507086
 20
47.23969317051475
 30
0.0
 10
24.19121617661491
 20
47.20265498973573
 30
0.0
 10
24.20645659873213
 20
47.18431728544616
 30
0.0
 10
24.23710069591972
 20
47.14820456600096
 30
0.0
 10
24.26871635481417
 20
47.11353354944445
 30
0.0
 10
24.28493466472333
 20
47.09660308645628
 30
0.0
 10
24.43226382290799
 20
46.95305384263546
 30
0.0
 10
24.61777276045803
 20
46.84865206495157
 30
0.0
 10
24.79093096022043
 20
46.7755015974971
 30
0.0
 10
25.09475499036025
 20
46.67464214844995
 30
0.0
 10
25.41114050471373
 20
46.60336581935605
 30
0.0
 10
25.54172098383818
 20
46.57817112335476
 30
0.0
 10
25.75254069163882
 20
46.54317627231904
 30
0.0
 10
25.96560211259881
 20
46.5155966275204
 30
0.0
 10
26.04575464910141
 20
46.50620625649514
 30
0.0
 10
26.20648481854489
 20
46.48916982777519
 30
0.0
 10
26.36796428668803
 20
46.47542548892993
 30
0.0
 10
26.44886096575654
 20
46.46932903134373
 30
0.0
 10
26.65430659004151
 20
46.45578033410389
 30
0.0
 10
26.86029073900515
 20
46.44702350011137
 30
0.0
 10
26.98520953887823
 20
46.4434449487612
 30
0.0
 10
27.11011889080285
 20
46.44163667008669
 30
0.0
 10
27.2349711916471
 20
46.44172115769422
 30
0.0
  0
LINE
  5
95
330
70
100
AcDbEntity
  8
0
 62
     7
370
    35
100
AcDbLine
 10
27.619359
 20
46.441704
 30
0.0
 11
27.234971
 21
46.441721
 31
0.0
  0
LINE
  5
96
330
70
100
AcDbEntity
  8
0
 62
     7
370
    35
100
AcDbLine
 10
27.619359
 20
46.441704
 30
0.0
 11
28.003745
 21
46.441688
 31
0.0
  0
SPLINE
  5
97
330
70
100
AcDbEntity
  8
0
 62
     7
370
    35
100
AcDbSpline
210
0.0
220
0.0
230
1.0
 70
     8
 71
     5
 72
    48
 73
    42
 74
     0
 42
0.000000001
 43
0.0
 40
0.0
 40
0.0
 40
0.0
 40
0.0
 40
0.0
 40
0.0
 40
2.140871850765968
 40
2.140871850765968
 40
2.140871850765968
 40
3.888571961682757
 40
3.888571961682757
 40
3.888571961682757
 40
5.264769857799322
 40
5.264769857799322
 40
5.264769857799322
 40
6.30541168794627
 40
6.30541168794627
 40
6.30541168794627
 40
6.494124681102385
 40
6.494124681102385
 40
6.494124681102385
 40
6.682837674258516
 40
6.682837674258516
 40
6.682837674258516
 40
6.871523939158965
 40
6.871523939158965
 40
6.871523939158965
 40
7.060210204059419
 40
7.060210204059419
 40
7.060210204059419
 40
8.536220483889828
 40
8.536220483889828
 40
8.536220483889828
 40
9.555760022722104
 40
9.555760022722104
 40
9.555760022722104
 40
10.16681610843398
 40
10.16681610843398
 40
10.16681610843398
 40
10.77787219414584
 40
10.77787219414584
 40
10.77787219414584
 40
11.70206652263018
 40
11.70206652263018
 40
11.70206652263018
 40
11.70206652263018
 40
11.70206652263018
 40
11.70206652263018
 10
35.01280928773511
 20
49.93254767495389
 30
0.0
 10
34.73815119838149
 20
49.78797725930605
 30
0.0
 10
34.46470109568788
 20
49.6406847350123
 30
0.0
 10
34.19305267000876
 20
49.49053200765029
 30
0.0
 10
33.70210986942935
 20
49.21109159077004
 30
0.0
 10
33.2187705299666
 20
48.91802159686731
 30
0.0
 10
33.00390423080503
 20
48.78352032814535
 30
0.0
 10
32.62301864515459
 20
48.53620864386323
 30
0.0
 10
32.25248273178042
 20
48.27558784573329
 30
0.0
 10
32.09235225665898
 20
48.15834716572611
 30
0.0
 10
31.81555637276349
 20
47.94591756793461
 30
0.0
 10
31.55348497150311
 20
47.72251434141633
 30
0.0
 10
31.44452657435102
 20
47.62458779705701
 30
0.0
 10
31.32062714468601
 20
47.50573945458101
 30
0.0
 10
31.20672421186578
 20
47.38504688109673
 30
0.0
 10
31.18947905761253
 20
47.36646960963485
 30
0.0
 10
31.15555393317573
 20
47.32928409497454
 30
0.0
 10
31.12279430070265
 20
47.29202904365233
 30
0.0
 10
31.10670934144343
 20
47.27337703081604
 30
0.0
 10
31.07534379902243
 20
47.23608760756469
 30
0.0
 10
31.04480791064161
 20
47.19921210100121
 30
0.0
 10
31.02961360598437
 20
47.1809639131515
 30
0.0
 10
30.99902813257917
 20
47.14504474680614
 30
0.0
 10
30.967416341892
 20
47.11059057331023
 30
0.0
 10
30.95118278006493
 20
47.09377516325271
 30
0.0
 10
30.80301928339852
 20
46.95052407270298
 30
0.0
 10
30.6168661923762
 20
46.8464273145004
 30
0.0
 10
30.44316289126594
 20
46.77345931636876
 30
0.0
 10
30.13842016451916
 20
46.67288431760608
 30
0.0
 10
29.82117387589462
 20
46.60186169423176
 30
0.0
 10
29.69029139930218
 20
46.57677474502615
 30
0.0
 10
29.47901728762324
 20
46.54194958545389
 30
0.0
 10
29.26551184713257
 20
46.5145309360807
 30
0.0
 10
29.18520653116147
 20
46.50520123098071
 30
0.0
 10
29.02417495255982
 20
46.48828391854899
 30
0.0
 10
28.86240259006994
 20
46.47465892656384
 30
0.0
 10
28.78136129415361
 20
46.46862296983458
 30
0.0
 10
28.57751273216432
 20
46.4553587184984
 30
0.0
 10
28.37314517539185
 20
46.44680785987448
 30
0.0
 10
28.2499868162711
 20
46.44333960047635
 30
0.0
 10
28.12683833837204
 20
46.44159374476858
 30
0.0
 10
28.00374536535136
 20
46.4416877254133
 30
0.0
  0
ARC
  5
98
330
70
100
AcDbEntity
  8
0
 62
     7
370
    35
100
AcDbCircle
 10
35.019058
 20
-332.739003
 30
0.0
 40
382.6720277503814
100
AcDbArc
 50
90.000932
 51
91.713842
  0
LINE
  5
99
330
70
100
AcDbEntity
  8
0
 62
     7
370
    35
100
AcDbLine
 10
23.574211
 20
49.761826
 30
0.0
 11
23.574211
 21
49.717076
 31
0.0
  0
ARC
  5
9A
330
70
100
AcDbEntity
  8
0
 62
     7
370
    35
100
AcDbCircle
 10
197.414626
 20
-129.890705
 30
0.0
 40
249.9588888198994
100
AcDbArc
 50
134.065163
 51
134.421055
  0
SPLINE
  5
9B
330
70
100
AcDbEntity
  8
0
 62
     7
370
    35
100
AcDbSpline
210
0.0
220
0.0
230
1.0
 70
     8
 71
     5
 72
    48
 73
    42
 74
     0
 42
0.000000001
 43
0.0
 40
0.0
 40
0.0
 40
0.0
 40
0.0
 40
0.0
 40
0.0
 40
2.140877097675161
 40
2.140877097675161
 40
2.140877097675161
 40
3.888586666593827
 40
3.888586666593827
 40
3.888586666593827
 40
5.264794548492308
 40
5.264794548492308
 40
5.264794548492308
 40
6.305444395412945
 40
6.305444395412945
 40
6.305444395412945
 40
6.494158574689912
 40
6.494158574689912
 40
6.494158574689912
 40
6.682872753966858
 40
6.682872753966858
 40
6.682872753966858
 40
6.871560204262707
 40
6.871560204262707
 40
6.871560204262707
 40
7.060247654558558
 40
7.060247654558558
 40
7.060247654558558
 40
8.53626395701111
 40
8.53626395701111
 40
8.53626395701111
 40
9.555813553286827
 40
9.555813553286827
 40
9.555813553286827
 40
10.16687697390186
 40
10.16687697390186
 40
10.16687697390186
 40
10.77794039451686
 40
10.77794039451686
 40
10.77794039451686
 40
11.70216510169967
 40
11.70216510169967
 40
11.70216510169967
 40
11.70216510169967
 40
11.70216510169967
 40
11.70216510169967
 10
38.98952834544128
 20
49.9325689538498
 30
0.0
 10
39.26418772294437
 20
49.78800126118529
 30
0.0
 10
39.5376391292774
 20
49.64071145699113
 30
0.0
 10
39.80928887489873
 20
49.49056143274682
 30
0.0
 10
40.30023477327095
 20
49.21112551781133
 30
0.0
 10
40.7835773082563
 20
48.91805988366063
 30
0.0
 10
40.9984454066706
 20
48.78356031339967
 30
0.0
 10
41.37933457935765
 20
48.53625136840014
 30
0.0
 10
41.74987418235349
 20
48.27563306329708
 30
0.0
 10
41.91000644864881
 20
48.15839330756047
 30
0.0
 10
42.18680561513141
 20
47.94596514642786
 30
0.0
 10
42.44888038388551
 20
47.72256301622347
 30
0.0
 10
42.55784024489055
 20
47.62463686018167
 30
0.0
 10
42.68174143283726
 20
47.50578885755107
 30
0.0
 10
42.79564610124307
 20
47.38509642341745
 30
0.0
 10
42.8128915009309
 20
47.36651919076151
 30
0.0
 10
42.84681711515913
 20
47.3293337433032
 30
0.0
 10
42.87957723453668
 20
47.2920787374976
 30
0.0
 10
42.89566243865819
 20
47.27342674275787
 30
0.0
 10
42.92702845902517
 20
47.23613733835066
 30
0.0
 10
42.95756480607714
 20
47.19926183002667
 30
0.0
 10
42.97275933571991
 20
47.18101363888145
 30
0.0
 10
43.00334525418501
 20
47.14509446788973
 30
0.0
 10
43.03495748666139
 20
47.11064030513741
 30
0.0
 10
43.05119126966598
 20
47.09382490630873
 30
0.0
 10
43.19935645265875
 20
46.95057428810372
 30
0.0
 10
43.38551127863403
 20
46.8464785375354
 30
0.0
 10
43.55921563941295
 20
46.7735114021004
 30
0.0
 10
43.86396103256558
 20
46.67293739748976
 30
0.0
 10
44.18120983351267
 20
46.60191559763087
 30
0.0
 10
44.31209375644865
 20
46.5768288663681
 30
0.0
 10
44.52337034451332
 20
46.54200397718089
 30
0.0
 10
44.73687823583096
 20
46.5145855123065
 30
0.0
 10
44.81718457316396
 20
46.50525585134908
 30
0.0
 10
44.9782181926894
 20
46.48833860065612
 30
0.0
 10
45.13999259292
 20
46.47471360786577
 30
0.0
 10
45.22103490661632
 20
46.46867763310394
 30
0.0
 10
45.42488858708127
 20
46.45541312140105
 30
0.0
 10
45.62926127698053
 20
46.44686198992482
 30
0.0
 10
45.7524237519918
 20
46.4433935404867
 30
0.0
 10
45.87557634864365
 20
46.44164751074843
 30
0.0
 10
45.99867344079012
 20
46.44174133801649
 30
0.0
  0
LINE
  5
9C
330
70
100
AcDbEntity
  8
0
 62
     7
370
    35
100
AcDbLine
 10
45.998673
 20
46.441741
 30
0.0
 11
45.922438
 21
46.441731
 31
0.0
  0
LINE
  5
9D
330
70
100
AcDbEntity
  8
0
 62
     7
370
    35
100
AcDbLine
 10
45.998673
 20
46.441741
 30
0.0
 11
46.383067
 21
46.441757
 31
0.0
  0
LINE
  5
9E
330
70
100
AcDbEntity
  8
0
 62
     7
370
    35
100
AcDbLine
 10
46.383067
 20
46.441757
 30
0.0
 11
46.767461
 21
46.441773
 31
0.0
  0
SPLINE
  5
9F
330
70
100
AcDbEntity
  8
0
 62
     7
370
    35
100
AcDbSpline
210
0.0
220
0.0
230
1.0
 70
     8
 71
     5
 72
    48
 73
    42
 74
     0
 42
0.000000001
 43
0.0
 40
0.0
 40
0.0
 40
0.0
 40
0.0
 40
0.0
 40
0.0
 40
2.140977676453233
 40
2.140977676453233
 40
2.140977676453233
 40
3.888776090795182
 40
3.888776090795182
 40
3.888776090795182
 40
5.26505254192953
 40
5.26505254192953
 40
5.26505254192953
 40
6.305748732980387
 40
6.305748732980387
 40
6.305748732980387
 40
6.494469113671869
 40
6.494469113671869
 40
6.494469113671869
 40
6.683189494363351
 40
6.683189494363351
 40
6.683189494363351
 40
6.871883147171461
 40
6.871883147171461
 40
6.871883147171461
 40
7.060576799979579
 40
7.060576799979579
 40
7.060576799979579
 40
8.53664653630622
 40
8.53664653630622
 40
8.53664653630622
 40
9.556230108083088
 40
9.556230108083088
 40
9.556230108083088
 40
10.16730971069866
 40
10.16730971069866
 40
10.16730971069866
 40
10.77838931331424
 40
10.77838931331424
 40
10.77838931331424
 40
11.70260197512295
 40
11.70260197512295
 40
11.70260197512295
 40
11.70260197512295
 40
11.70260197512295
 40
11.70260197512295
 10
53.77688741162865
 20
49.93296073328817
 30
0.0
 10
53.50221249344555
 20
49.78839455857685
 30
0.0
 10
53.22874582860566
 20
49.64110478182684
 30
0.0
 10
52.95708122447964
 20
49.49095326970935
 30
0.0
 10
52.4661079261652
 20
49.21151116032733
 30
0.0
 10
51.98273920125344
 20
48.91843385910338
 30
0.0
 10
51.76785925846129
 20
48.78392770388268
 30
0.0
 10
51.38694937631289
 20
48.53660492113019
 30
0.0
 10
51.0163900238733
 20
48.27596917302817
 30
0.0
 10
50.85624943066194
 20
48.15872116184349
 30
0.0
 10
50.57943643805979
 20
47.94627778275106
 30
0.0
 10
50.31734839709214
 20
47.72285877983187
 30
0.0
 10
50.20838338963948
 20
47.6249255250633
 30
0.0
 10
50.08447626122651
 20
47.50606890241792
 30
0.0
 10
49.97056592485612
 20
47.38536766175402
 30
0.0
 10
49.95331982969356
 20
47.36678925658015
 30
0.0
 10
49.9193928308585
 20
47.32960146063792
 30
0.0
 10
49.88663134194103
 20
47.29234410012503
 30
0.0
 10
49.87054546286114
 20
47.27369092316411
 30
0.0
 10
49.83917808935684
 20
47.23639916933463
 30
0.0
 10
49.80864035698796
 20
47.19952133679584
 30
0.0
 10
49.79344512192949
 20
47.18127198986843
 30
0.0
 10
49.76285775462468
 20
47.14535051827374
 30
0.0
 10
49.7312439915172
 20
47.11089406429713
 30
0.0
 10
49.71500941288721
 20
47.09407752150296
 30
0.0
 10
49.56683671321694
 20
46.95081629801039
 30
0.0
 10
49.38067418823385
 20
46.84670891106602
 30
0.0
 10
49.20696441643263
 20
46.77373031334825
 30
0.0
 10
48.90220846699128
 20
46.67313511597042
 30
0.0
 10
48.58494901117193
 20
46.60209004611215
 30
0.0
 10
48.45406094356411
 20
46.57699356822984
 30
0.0
 10
48.24277818313342
 20
46.54215275710033
 30
0.0
 10
48.02926402963178
 20
46.51471779177331
 30
0.0
 10
47.94895567996814
 20
46.50538191028844
 30
0.0
 10
47.78791800472381
 20
46.48845208085336
 30
0.0
 10
47.62613950029005
 20
46.47481427681063
 30
0.0
 10
47.54509512344703
 20
46.46877184852771
 30
0.0
 10
47.34124106700944
 20
46.45549134918159
 30
0.0
 10
47.13686793323527
 20
46.44692384415769
 30
0.0
 10
47.01370710052086
 20
46.44344546357768
 30
0.0
 10
46.89055610097726
 20
46.44168938473117
 30
0.0
 10
46.76746055790517
 20
46.44177307361547
 30
0.0
  0
ARC
  5
A0
330
70
100
AcDbEntity
  8
0
 62
     7
370
    35
100
AcDbCircle
 10
53.762833
 20
-330.105653
 30
0.0
 40
380.0386138126086
100
AcDbArc
 50
89.997893
 51
90.405348
  0
ARC
  5
A1
330
70
100
AcDbEntity
  8
0
 62
     7
370
    35
100
AcDbCircle
 10
53.808128
 20
-333.345003
 30
0.0
 40
383.2782359769894
100
AcDbArc
 50
90.408693
 51
92.141234
  0
SPLINE
  5
A2
330
70
100
AcDbEntity
  8
0
 62
     7
370
    35
100
AcDbSpline
210
0.0
220
0.0
230
1.0
 70
     8
 71
     5
 72
    48
 73
    42
 74
     0
 42
0.000000001
 43
0.0
 40
0.0
 40
0.0
 40
0.0
 40
0.0
 40
0.0
 40
0.0
 40
2.140968123338637
 40
2.140968123338637
 40
2.140968123338637
 40
3.888729344791366
 40
3.888729344791366
 40
3.888729344791366
 40
5.264962074934363
 40
5.264962074934363
 40
5.264962074934363
 40
6.305621665780398
 40
6.305621665780398
 40
6.305621665780398
 40
6.494336470550617
 40
6.494336470550617
 40
6.494336470550617
 40
6.683051275320828
 40
6.683051275320828
 40
6.683051275320828
 40
6.871739358388029
 40
6.871739358388029
 40
6.871739358388029
 40
7.060427441455221
 40
7.060427441455221
 40
7.060427441455221
 40
8.536468880487234
 40
8.536468880487234
 40
8.536468880487234
 40
9.556013535826452
 40
9.556013535826452
 40
9.556013535826452
 40
10.16706708739313
 40
10.16706708739313
 40
10.16706708739313
 40
10.77812063895979
 40
10.77812063895979
 40
10.77812063895979
 40
11.70223116182753
 40
11.70223116182753
 40
11.70223116182753
 40
11.70223116182753
 40
11.70223116182753
 40
11.70223116182753
 10
57.75379804676966
 20
49.93277992419311
 30
0.0
 10
58.02846591434045
 20
49.7881914576388
 30
0.0
 10
58.30192553564756
 20
49.64088013141173
 30
0.0
 10
58.57358316638421
 20
49.49070799957836
 30
0.0
 10
59.06454010197027
 20
49.21123249087464
 30
0.0
 10
59.54789268673266
 20
48.91812597476959
 30
0.0
 10
59.76276352702795
 20
48.78360887654819
 30
0.0
 10
60.14365537327892
 20
48.53626958882889
 30
0.0
 10
60.51419693225969
 20
48.27562106977596
 30
0.0
 10
60.67432886819851
 20
48.15836891618149
 30
0.0
 10
60.95112620561091
 20
47.94591997345962
 30
0.0
 10
61.21319867889621
 20
47.72249809027067
 30
0.0
 10
61.32215692611418
 20
47.62456421985295
 30
0.0
 10
61.44605602323804
 20
47.50570758730306
 30
0.0
 10
61.55995852376304
 20
47.38500732405142
 30
0.0
 10
61.57720350165543
 20
47.36642900426072
 30
0.0
 10
61.61112827533263
 20
47.32924142775484
 30
0.0
 10
61.64388756030507
 20
47.29198438660767
 30
0.0
 10
61.65997233044692
 20
47.27333138941586
 30
0.0
 10
61.69133755107603
 20
47.23604007479565
 30
0.0
 10
61.72187324139381
 20
47.19916278551228
 30
0.0
 10
61.7370674813867
 20
47.18091372491633
 30
0.0
 10
61.76765289250114
 20
47.14499282877593
 30
0.0
 10
61.79926473294639
 20
47.11053691031921
 30
0.0
 10
61.81549835505393
 20
47.09372061850939
 30
0.0
 10
61.96366384429206
 20
46.95045995749342
 30
0.0
 10
62.14981874478567
 20
46.84635133879968
 30
0.0
 10
62.32352377079832
 20
46.77337212846563
 30
0.0
 10
62.62826855478836
 20
46.67277824566292
 30
0.0
 10
62.94551741238784
 20
46.60173625301828
 30
0.0
 10
63.07639978655946
 20
46.57664161247722
 30
0.0
 10
63.28767308332203
 20
46.54180426021566
 30
0.0
 10
63.50117784495284
 20
46.51437347428982
 30
0.0
 10
63.58148246641009
 20
46.50503928577408
 30
0.0
 10
63.74251267904356
 20
46.48811304300471
 30
0.0
 10
63.90428371531611
 20
46.47447924175059
 30
0.0
 10
63.98532435881163
 20
46.46843892127878
 30
0.0
 10
64.18916068669635
 20
46.45516452803066
 30
0.0
 10
64.39351601198537
 20
46.44660341639779
 30
0.0
 10
64.5166627771699
 20
46.44312904130846
 30
0.0
 10
64.63979968373374
 20
46.44137696739019
 30
0.0
 10
64.76288111992679
 20
46.44146462165976
 30
0.0
  0
LINE
  5
A3
330
70
100
AcDbEntity
  8
0
 62
     7
370
    35
100
AcDbLine
 10
64.762881
 20
46.441465
 30
0.0
 11
64.686644
 21
46.441459
 31
0.0
  0
LINE
  5
A4
330
70
100
AcDbEntity
  8
0
 62
     7
370
    35
100
AcDbLine
 10
65.147256
 20
46.441462
 30
0.0
 11
64.762881
 21
46.441465
 31
0.0
  0
LINE
  5
A5
330
70
100
AcDbEntity
  8
0
 62
     7
370
    35
100
AcDbLine
 10
65.53163
 20
46.441461
 30
0.0
 11
65.147256
 21
46.441462
 31
0.0
  0
SPLINE
  5
A6
330
70
100
AcDbEntity
  8
0
 62
     7
370
    35
100
AcDbSpline
210
0.0
220
0.0
230
1.0
 70
     8
 71
     5
 72
    48
 73
    42
 74
     0
 42
0.000000001
 43
0.0
 40
0.0
 40
0.0
 40
0.0
 40
0.0
 40
0.0
 40
0.0
 40
2.140938093256866
 40
2.140938093256866
 40
2.140938093256866
 40
3.888678274796553
 40
3.888678274796553
 40
3.888678274796553
 40
5.264897616926936
 40
5.264897616926936
 40
5.264897616926936
 40
6.305549677805631
 40
6.305549677805631
 40
6.305549677805631
 40
6.494263684815066
 40
6.494263684815066
 40
6.494263684815066
 40
6.682977691824506
 40
6.682977691824506
 40
6.682977691824506
 40
6.87166497480362
 40
6.87166497480362
 40
6.87166497480362
 40
7.060352257782727
 40
7.060352257782727
 40
7.060352257782727
 40
8.536383786303794
 40
8.536383786303794
 40
8.536383786303794
 40
9.555921856122275
 40
9.555921856122275
 40
9.555921856122275
 40
10.16697222767574
 40
10.16697222767574
 40
10.16697222767574
 40
10.77802259922921
 40
10.77802259922921
 40
10.77802259922921
 40
11.70213966428951
 40
11.70213966428951
 40
11.70213966428951
 40
11.70213966428951
 40
11.70213966428951
 40
11.70213966428951
 10
72.54065302465003
 20
49.93271991203557
 30
0.0
 10
72.26598928056116
 20
49.78813245310904
 30
0.0
 10
71.99253374662355
 20
49.64082239417537
 30
0.0
 10
71.7208801454368
 20
49.49065176878207
 30
0.0
 10
71.22993005829645
 20
49.21117920394266
 30
0.0
 10
70.7465841873608
 20
48.91807639363513
 30
0.0
 10
70.53171607769958
 20
48.78356094625382
 30
0.0
 10
70.15082871663147
 20
48.53622463676568
 30
0.0
 10
69.78029153913619
 20
48.27557953077528
 30
0.0
 10
69.6201612780685
 20
48.15832878868373
 30
0.0
 10
69.34336659743208
 20
47.94588226875754
 30
0.0
 10
69.08129668869742
 20
47.72246302917957
 30
0.0
 10
68.97233934880806
 20
47.62453017282903
 30
0.0
 10
68.84844127374025
 20
47.50567475329712
 30
0.0
 10
68.73453971928896
 20
47.38497572793879
 30
0.0
 10
68.71729484149274
 20
47.36639755143408
 30
0.0
 10
68.68337026595464
 20
47.3292102615607
 30
0.0
 10
68.65061117454948
 20
47.291953507193
 30
0.0
 10
68.63452649554043
 20
47.27330065569411
 30
0.0
 10
68.60316146798077
 20
47.23600962345927
 30
0.0
 10
68.57262600015501
 20
47.19913259816924
 30
0.0
 10
68.55743188049166
 20
47.18088366494148
 30
0.0
 10
68.52684673007592
 20
47.14496301428626
 30
0.0
 10
68.49523518674279
 20
47.11050732566749
 30
0.0
 10
68.4790017258856
 20
47.09369114416695
 30
0.0
 10
68.33083797706574
 20
46.95043177277559
 30
0.0
 10
68.14468473457016
 20
46.8463245033253
 30
0.0
 10
67.97098086648086
 20
46.77334666340482
 30
0.0
 10
67.66623831465543
 20
46.6727553522138
 30
0.0
 10
67.34899163644337
 20
46.60171615009249
 30
0.0
 10
67.21811012745303
 20
46.57662267279247
 30
0.0
 10
67.00683811752391
 20
46.54178720258982
 30
0.0
 10
66.79333464278423
 20
46.51435834965724
 30
0.0
 10
66.71303044057338
 20
46.50502488500072
 30
0.0
 10
66.55200106713856
 20
46.48810010198243
 30
0.0
 10
66.39023087013865
 20
46.47446777771658
 30
0.0
 10
66.30919064639124
 20
46.4684281985548
 30
0.0
 10
66.10535386821205
 20
46.45515557254255
 30
0.0
 10
65.90099808951416
 20
46.44659629648834
 30
0.0
 10
65.77785044934419
 20
46.44312303674169
 30
0.0
 10
65.65471267194269
 20
46.44137210987979
 30
0.0
 10
65.5316303700831
 20
46.441460941628
 30
0.0
  0
ARC
  5
A7
330
70
100
AcDbEntity
  8
0
 62
     7
370
    35
100
AcDbCircle
 10
72.572693
 20
-334.313398
 30
0.0
 40
384.2461461592559
100
AcDbArc
 50
90.004771
 51
92.13588
  0
SPLINE
  5
A8
330
70
100
AcDbEntity
  8
0
 62
     7
370
    35
100
AcDbSpline
210
0.0
220
0.0
230
1.0
 70
     8
 71
     5
 72
    30
 73
    24
 74
     0
 42
0.000000001
 43
0.0
 40
0.0
 40
0.0
 40
0.0
 40
0.0
 40
0.0
 40
0.0
 40
0.2784679815010981
 40
0.2784679815010981
 40
0.2784679815010981
 40
0.5569359630022072
 40
0.5569359630022072
 40
0.5569359630022072
 40
1.184281549809795
 40
1.184281549809795
 40
1.184281549809795
 40
1.968373102075041
 40
1.968373102075041
 40
1.968373102075041
 40
2.933428203484792
 40
2.933428203484792
 40
2.933428203484792
 40
5.507658753682566
 40
5.507658753682566
 40
5.507658753682566
 40
6.974245500164709
 40
6.974245500164709
 40
6.974245500164709
 40
6.974245500164709
 40
6.974245500164709
 40
6.974245500164709
 10
80.57432147602665
 20
47.09978528867556
 30
0.0
 10
80.5502021793559
 20
47.12439854365966
 30
0.0
 10
80.52711020423045
 20
47.15006661977594
 30
0.0
 10
80.50468095159123
 20
47.17660724707334
 30
0.0
 10
80.45994240934814
 20
47.23073390545994
 30
0.0
 10
80.41360529322345
 20
47.28589930372146
 30
0.0
 10
80.38943046304928
 20
47.31343345268445
 30
0.0
 10
80.30906717883892
 20
47.40278402240433
 30
0.0
 10
80.2225679450353
 20
47.49144204653962
 30
0.0
 10
80.16043667461773
 20
47.55216436763482
 30
0.0
 10
80.01644680401085
 20
47.68722344539125
 30
0.0
 10
79.86464660279601
 20
47.81848616982372
 30
0.0
 10
79.77855424816809
 20
47.89012821917802
 30
0.0
 10
79.58296150206694
 20
48.04749357287554
 30
0.0
 10
79.38101121405381
 20
48.19937968781637
 30
0.0
 10
79.26792268049724
 20
48.28174700069725
 30
0.0
 10
78.8491862631717
 20
48.57814163005513
 30
0.0
 10
78.41608342241592
 20
48.8567907558037
 30
0.0
 10
78.0998624758378
 20
49.05031402914241
 30
0.0
 10
77.59332383814052
 20
49.3474756820694
 30
0.0
 10
77.0802402674395
 20
49.63185294372668
 30
0.0
 10
76.8932401243635
 20
49.73357561829057
 30
0.0
 10
76.70565239921238
 20
49.83388250146615
 30
0.0
 10
76.51749772683914
 20
49.93291145709787
 30
0.0
  0
LINE
  5
A9
330
70
100
AcDbEntity
  8
0
 62
     7
370
    35
100
AcDbLine
 10
80.57429
 20
47.099235
 30
0.0
 11
80.57429
 21
47.09842
 31
0.0
  0
LINE
  5
AA
330
70
100
AcDbEntity
  8
0
 62
     7
370
    35
100
AcDbLine
 10
80.574151
 20
47.099443
 30
0.0
 11
80.574208
 21
47.817527
 31
0.0
  0
ARC
  5
AB
330
70
100
AcDbEntity
  8
0
 62
     7
370
    35
100
AcDbCircle
 10
21.681815
 20
-13.510799
 30
0.0
 40
85.02609801864769
100
AcDbArc
 50
46.160782
 51
48.000923
  0
LINE
  5
AC
330
70
100
AcDbEntity
  8
0
 62
     7
370
    35
100
AcDbLine
 10
78.574211
 20
49.721034
 30
0.0
 11
78.574211
 21
49.676655
 31
0.0
  0
LINE
  5
AD
330
70
100
AcDbEntity
  8
0
 62
     7
370
    35
100
AcDbLine
 10
77.015732
 20
49.665996
 30
0.0
 11
78.574208
 21
49.721034
 31
0.0
  0
LINE
  5
AE
330
70
100
AcDbEntity
  8
0
 62
     7
370
    35
100
AcDbLine
 10
80.574145
 20
46.321832
 30
0.0
 11
80.574208
 21
47.053239
 31
0.0
  0
ARC
  5
AF
330
70
100
AcDbEntity
  8
0
 62
     7
370
    35
100
AcDbCircle
 10
80.466607
 20
56.153526
 30
0.0
 40
85.02609802166033
100
AcDbArc
 50
226.160782
 51
228.000923
  0
LINE
  5
B0
330
70
100
AcDbEntity
  8
0
 62
     7
370
    35
100
AcDbLine
 10
25.132824
 20
-7.023342
 30
0.0
 11
23.574208
 21
-7.078333
 31
0.0
  0
LINE
  5
B1
330
70
100
AcDbEntity
  8
0
 62
     7
370
    35
100
AcDbLine
 10
23.574211
 20
-7.078307
 30
0.0
 11
23.574211
 21
-7.033928
 31
0.0
  0
SPLINE
  5
B2
330
70
100
AcDbEntity
  8
0
 62
     7
370
    35
100
AcDbSpline
210
0.0
220
0.0
230
1.0
 70
     8
 71
     5
 72
    30
 73
    24
 74
     0
 42
0.000000001
 43
0.0
 40
0.0
 40
0.0
 40
0.0
 40
0.0
 40
0.0
 40
0.0
 40
0.2784679815162713
 40
0.2784679815162713
 40
0.2784679815162713
 40
0.5569359630325382
 40
0.5569359630325382
 40
0.5569359630325382
 40
1.184281549815879
 40
1.184281549815879
 40
1.184281549815879
 40
1.968373102062665
 40
1.968373102062665
 40
1.968373102062665
 40
2.933428203456469
 40
2.933428203456469
 40
2.933428203456469
 40
5.507658753578413
 40
5.507658753578413
 40
5.507658753578413
 40
6.974245500332852
 40
6.974245500332852
 40
6.974245500332852
 40
6.974245500332852
 40
6.974245500332852
 40
6.974245500332852
 10
21.57410076512486
 20
-4.457058390421494
 30
0.0
 10
21.59822006179949
 20
-4.48167164540447
 30
0.0
 10
21.62131203692824
 20
-4.507339721520022
 30
0.0
 10
21.64374128956996
 20
-4.533880348817182
 30
0.0
 10
21.68847983181638
 20
-4.588007007204115
 30
0.0
 10
21.73481694794222
 20
-4.643172405467497
 30
0.0
 10
21.75899177811693
 20
-4.670706554431643
 30
0.0
 10
21.83935506232505
 20
-4.760057124149041
 30
0.0
 10
21.92585429612713
 20
-4.848715148282001
 30
0.0
 10
21.98798556654464
 20
-4.909437469376506
 30
0.0
 10
22.13197543714668
 20
-5.044496547126817
 30
0.0
 10
22.28377563835686
 20
-5.175759271553387
 30
0.0
 10
22.36986799298371
 20
-5.247401320905856
 30
0.0
 10
22.56546073908111
 20
-5.404766674598376
 30
0.0
 10
22.76741102709041
 20
-5.556652789534688
 30
0.0
 10
22.88049956064531
 20
-5.639020102413607
 30
0.0
 10
23.29923597795961
 20
-5.9354147317617
 30
0.0
 10
23.73233881870479
 20
-6.214063857503495
 30
0.0
 10
24.04855976528698
 20
-6.407587130845574
 30
0.0
 10
24.5550984030073
 20
-6.704748783789323
 30
0.0
 10
25.068181973732
 20
-6.989126045460755
 30
0.0
 10
25.25518211684247
 20
-7.090848720040626
 30
0.0
 10
25.44276984202791
 20
-7.19115560323745
 30
0.0
 10
25.63092451443582
 20
-7.290184558886832
 30
0.0
  0
LINE
  5
B3
330
70
100
AcDbEntity
  8
0
 62
     7
370
    35
100
AcDbLine
 10
21.574132
 20
-4.456545
 30
0.0
 11
21.574132
 21
-4.455738
 31
0.0
  0
LINE
  5
B4
330
70
100
AcDbEntity
  8
0
 62
     7
370
    35
100
AcDbLine
 10
-96.925789
 20
8.321363
 30
0.0
 11
-96.925789
 21
34.321363
 31
0.0
  0
LINE
  5
B5
330
70
100
AcDbEntity
  8
0
 62
     7
370
    35
100
AcDbLine
 10
35.012836
 20
49.933013
 30
0.0
 11
38.989617
 21
49.933013
 31
0.0
  0
LINE
  5
B6
330
70
100
AcDbEntity
  8
0
 62
     7
370
    35
100
AcDbLine
 10
53.776805
 20
49.933013
 30
0.0
 11
57.753671
 21
49.933013
 31
0.0
  0
LINE
  5
B7
330
70
100
AcDbEntity
  8
0
 62
     7
370
    35
100
AcDbLine
 10
72.540701
 20
49.933013
 30
0.0
 11
76.517556
 21
49.933013
 31
0.0
  0
LINE
  5
B8
330
70
100
AcDbEntity
  8
0
 62
     7
370
    35
100
AcDbLine
 10
80.574211
 20
46.321363
 30
0.0
 11
80.574211
 21
47.098215
 31
0.0
  0
LINE
  5
B9
330
70
100
AcDbEntity
  8
0
 62
     7
370
    35
100
AcDbLine
 10
80.574211
 20
-5.242537
 30
0.0
 11
80.574211
 21
-3.678637
 31
0.0
  0
ARC
  5
BA
330
70
100
AcDbEntity
  8
0
 62
     7
370
    35
100
AcDbCircle
 10
29.57573
 20
376.956125
 30
0.0
 40
384.2461461520634
100
AcDbArc
 50
270.004771
 51
272.13588
  0
LINE
  5
BB
330
70
100
AcDbEntity
  8
0
 62
     7
370
    35
100
AcDbLine
 10
29.607721
 20
-7.290286
 30
0.0
 11
25.630866
 21
-7.290286
 31
0.0
  0
LINE
  5
BC
330
70
100
AcDbEntity
  8
0
 62
     7
370
    35
100
AcDbLine
 10
80.574211
 20
-5.242537
 30
0.0
 11
79.770633
 21
-6.046115
 31
0.0
  0
SPLINE
  5
BD
330
70
100
AcDbEntity
  8
0
 62
     7
370
    35
100
AcDbSpline
210
0.0
220
0.0
230
1.0
 70
     8
 71
     5
 72
    45
 73
    39
 74
     0
 42
0.000000001
 43
0.0
 40
1.300508063343704
 40
1.300508063343704
 40
1.300508063343704
 40
1.300508063343704
 40
1.300508063343704
 40
1.300508063343704
 40
1.749358979700944
 40
1.749358979700944
 40
1.749358979700944
 40
3.128785051935448
 40
3.128785051935448
 40
3.128785051935448
 40
4.172244898359076
 40
4.172244898359076
 40
4.172244898359076
 40
4.361546401261102
 40
4.361546401261102
 40
4.361546401261102
 40
4.550847904163125
 40
4.550847904163125
 40
4.550847904163125
 40
4.740117722797399
 40
4.740117722797399
 40
4.740117722797399
 40
4.929387541431666
 40
4.929387541431666
 40
4.929387541431666
 40
6.401744361666289
 40
6.401744361666289
 40
6.401744361666289
 40
7.419333020332698
 40
7.419333020332698
 40
7.419333020332698
 40
8.029377578810161
 40
8.029377578810161
 40
8.029377578810161
 40
8.63942213728763
 40
8.63942213728763
 40
8.63942213728763
 40
9.57682522235999
 40
9.57682522235999
 40
9.57682522235999
 40
9.57682522235999
 40
9.57682522235999
 40
9.57682522235999
 10
79.77063266345314
 20
-6.046115518315128
 30
0.0
 10
79.71597874441149
 20
-6.010596885261196
 30
0.0
 10
79.66148604001523
 20
-5.97482790562259
 30
0.0
 10
79.60716524425106
 20
-5.938798774454702
 30
0.0
 10
79.38666782928438
 20
-5.790949237348389
 30
0.0
 10
79.16969021009837
 20
-5.638556367894996
 30
0.0
 10
79.00907977245754
 20
-5.521144489197288
 30
0.0
 10
78.73138182205074
 20
-5.308373544948433
 30
0.0
 10
78.468360084577
 20
-5.084592016303406
 30
0.0
 10
78.35896307661064
 20
-4.986475104449159
 30
0.0
 10
78.2345142504058
 20
-4.867373900805034
 30
0.0
 10
78.12002994042466
 20
-4.746384201599598
 30
0.0
 10
78.10268885739546
 20
-4.727753773893466
 30
0.0
 10
78.06857053094812
 20
-4.690459244892479
 30
0.0
 10
78.03561505452949
 20
-4.653089503283717
 30
0.0
 10
78.01942328239492
 20
-4.634382673874764
 30
0.0
 10
77.98786902619698
 20
-4.596966272287598
 30
0.0
 10
77.95720606465594
 20
-4.559928091511031
 30
0.0
 10
77.94196564253996
 20
-4.54159038722283
 30
0.0
 10
77.9113215453544
 20
-4.505477667780605
 30
0.0
 10
77.87970588646117
 20
-4.470806651227418
 30
0.0
 10
77.86348757655236
 20
-4.453876188241003
 30
0.0
 10
77.7161584183464
 20
-4.310326944411828
 30
0.0
 10
77.53064948076621
 20
-4.205925166729256
 30
0.0
 10
77.35749128107848
 20
-4.132774699313875
 30
0.0
 10
77.05366725090924
 20
-4.031915250262175
 30
0.0
 10
76.73728173652619
 20
-3.960638921165034
 30
0.0
 10
76.60670125740167
 20
-3.935444225164454
 30
0.0
 10
76.39588154959725
 20
-3.900449374128536
 30
0.0
 10
76.18282012863416
 20
-3.872869729328806
 30
0.0
 10
76.10266759213222
 20
-3.863479358303279
 30
0.0
 10
75.94193742269026
 20
-3.846442929582294
 30
0.0
 10
75.78045795454865
 20
-3.832698590736154
 30
0.0
 10
75.69956127548075
 20
-3.826602133149671
 30
0.0
 10
75.49411565119688
 20
-3.813053435909795
 30
0.0
 10
75.28813150223262
 20
-3.804296601919352
 30
0.0
 10
75.16321270235902
 20
-3.800718050566808
 30
0.0
 10
75.0383033504314
 20
-3.798909771900006
 30
0.0
 10
74.9134510495833
 20
-3.798994259511185
 30
0.0
  0
LINE
  5
BE
330
70
100
AcDbEntity
  8
0
 62
     7
370
    35
100
AcDbLine
 10
74.913451
 20
-3.798994
 30
0.0
 11
74.529064
 21
-3.798978
 31
0.0
  0
LINE
  5
BF
330
70
100
AcDbEntity
  8
0
 62
     7
370
    35
100
AcDbLine
 10
74.529064
 20
-3.798978
 30
0.0
 11
74.144677
 21
-3.798961
 31
0.0
  0
SPLINE
  5
C0
330
70
100
AcDbEntity
  8
0
 62
     7
370
    35
100
AcDbSpline
210
0.0
220
0.0
230
1.0
 70
     8
 71
     5
 72
    48
 73
    42
 74
     0
 42
0.000000001
 43
0.0
 40
0.0
 40
0.0
 40
0.0
 40
0.0
 40
0.0
 40
0.0
 40
2.140871851539908
 40
2.140871851539908
 40
2.140871851539908
 40
3.888571962510397
 40
3.888571962510397
 40
3.888571962510397
 40
5.264769858619822
 40
5.264769858619822
 40
5.264769858619822
 40
6.305411688741329
 40
6.305411688741329
 40
6.305411688741329
 40
6.494124681890478
 40
6.494124681890478
 40
6.494124681890478
 40
6.682837675039619
 40
6.682837675039619
 40
6.682837675039619
 40
6.871523939933134
 40
6.871523939933134
 40
6.871523939933134
 40
7.060210204826648
 40
7.060210204826648
 40
7.060210204826648
 40
8.536220484613835
 40
8.536220484613835
 40
8.536220484613835
 40
9.555760023458506
 40
9.555760023458506
 40
9.555760023458506
 40
10.16681610919275
 40
10.16681610919275
 40
10.16681610919275
 40
10.77787219492699
 40
10.77787219492699
 40
10.77787219492699
 40
11.70206652315758
 40
11.70206652315758
 40
11.70206652315758
 40
11.70206652315758
 40
11.70206652315758
 40
11.70206652315758
 10
67.13561295354674
 20
-7.289820776792651
 30
0.0
 10
67.41027104300258
 20
-7.145250361097585
 30
0.0
 10
67.68372114580342
 20
-6.997957836767875
 30
0.0
 10
67.95536957119026
 20
-6.847805109558551
 30
0.0
 10
68.44631237188031
 20
-6.568364692630626
 30
0.0
 10
68.92965171145046
 20
-6.27529469867401
 30
0.0
 10
69.14451801062943
 20
-6.140793429946163
 30
0.0
 10
69.52540359628746
 20
-5.893481745665684
 30
0.0
 10
69.89593950966837
 20
-5.632860947535105
 30
0.0
 10
70.0560699847916
 20
-5.515620267526947
 30
0.0
 10
70.33286586868219
 20
-5.303190669738163
 30
0.0
 10
70.59493726993418
 20
-5.079787443219309
 30
0.0
 10
70.7038956670763
 20
-4.981860898864369
 30
0.0
 10
70.82779509673372
 20
-4.863012556387875
 30
0.0
 10
70.94169802954534
 20
-4.742319982901555
 30
0.0
 10
70.95894318379705
 20
-4.723742711439526
 30
0.0
 10
70.99286830823078
 20
-4.686557196778841
 30
0.0
 10
71.02562794070076
 20
-4.649302145456084
 30
0.0
 10
71.04171289995837
 20
-4.630650132619464
 30
0.0
 10
71.07307844237637
 20
-4.593360709367415
 30
0.0
 10
71.10361433075465
 20
-4.556485202803243
 30
0.0
 10
71.11880863541074
 20
-4.538237014953201
 30
0.0
 10
71.14939410881387
 20
-4.502317848607166
 30
0.0
 10
71.18100589949927
 20
-4.467863675110661
 30
0.0
 10
71.19723946132555
 20
-4.45104826505286
 30
0.0
 10
71.3454029579858
 20
-4.307797174500051
 30
0.0
 10
71.53155604899956
 20
-4.203700416295188
 30
0.0
 10
71.70525935012422
 20
-4.130732418157643
 30
0.0
 10
72.01000207686866
 20
-4.030157419399686
 30
0.0
 10
72.3272483654916
 20
-3.959134796034284
 30
0.0
 10
72.45813084208773
 20
-3.934047846832019
 30
0.0
 10
72.66940495377305
 20
-3.899222687266017
 30
0.0
 10
72.88291039427018
 20
-3.871804037900135
 30
0.0
 10
72.963215710245
 20
-3.862474332802889
 30
0.0
 10
73.12424728885412
 20
-3.845557020377143
 30
0.0
 10
73.28601965135097
 20
-3.831932028396944
 30
0.0
 10
73.36706094727039
 20
-3.825896071669562
 30
0.0
 10
73.57090950922863
 20
-3.812631820338585
 30
0.0
 10
73.77527706596676
 20
-3.804080961712301
 30
0.0
 10
73.89843542504619
 20
-3.800612702297831
 30
0.0
 10
74.02158390291059
 20
-3.79886684659419
 30
0.0
 10
74.14467687589058
 20
-3.798960827227603
 30
0.0
  0
ARC
  5
C1
330
70
100
AcDbEntity
  8
0
 62
     7
370
    35
100
AcDbCircle
 10
67.140612
 20
375.662312
 30
0.0
 40
382.952132725398
100
AcDbArc
 50
269.999248
 51
271.710904
  0
LINE
  5
C2
330
70
100
AcDbEntity
  8
0
 62
     7
370
    35
100
AcDbLine
 10
78.574211
 20
-7.119099
 30
0.0
 11
78.574211
 21
-7.074349
 31
0.0
  0
ARC
  5
C3
330
70
100
AcDbEntity
  8
0
 62
     7
370
    35
100
AcDbCircle
 10
-95.266204
 20
172.533432
 30
0.0
 40
249.9588888132453
100
AcDbArc
 50
314.065163
 51
314.421055
  0
SPLINE
  5
C4
330
70
100
AcDbEntity
  8
0
 62
     7
370
    35
100
AcDbSpline
210
0.0
220
0.0
230
1.0
 70
     8
 71
     5
 72
    48
 73
    42
 74
     0
 42
0.000000001
 43
0.0
 40
0.0
 40
0.0
 40
0.0
 40
0.0
 40
0.0
 40
0.0
 40
2.140877097581487
 40
2.140877097581487
 40
2.140877097581487
 40
3.888586666515734
 40
3.888586666515734
 40
3.888586666515734
 40
5.264794548394279
 40
5.264794548394279
 40
5.264794548394279
 40
6.305444395247506
 40
6.305444395247506
 40
6.305444395247506
 40
6.494158574519256
 40
6.494158574519256
 40
6.494158574519256
 40
6.682872753791006
 40
6.682872753791006
 40
6.682872753791006
 40
6.871560204081717
 40
6.871560204081717
 40
6.871560204081717
 40
7.06024765437243
 40
7.06024765437243
 40
7.06024765437243
 40
8.536263956714595
 40
8.536263956714595
 40
8.536263956714595
 40
9.555813553020252
 40
9.555813553020252
 40
9.555813553020252
 40
10.16687697363639
 40
10.16687697363639
 40
10.16687697363639
 40
10.77794039425255
 40
10.77794039425255
 40
10.77794039425255
 40
11.70216510143062
 40
11.70216510143062
 40
11.70216510143062
 40
11.70216510143062
 40
11.70216510143062
 40
11.70216510143062
 10
63.15889389587936
 20
-7.289842055672941
 30
0.0
 10
62.88423451838423
 20
-7.145274363025632
 30
0.0
 10
62.61078311206135
 20
-6.997984558841924
 30
0.0
 10
62.33913336630857
 20
-6.847834534540994
 30
0.0
 10
61.84818746794439
 20
-6.568398619620757
 30
0.0
 10
61.36484493296512
 20
-6.27533298547998
 30
0.0
 10
61.1499768345383
 20
-6.140833415211534
 30
0.0
 10
60.76908766185245
 20
-5.893524470211298
 30
0.0
 10
60.39854805885994
 20
-5.6329061651035
 30
0.0
 10
60.23841579256768
 20
-5.515666409364918
 30
0.0
 10
59.96161662609909
 20
-5.303238248233795
 30
0.0
 10
59.69954185736052
 20
-5.079836118030393
 30
0.0
 10
59.59058199634755
 20
-4.981909961975841
 30
0.0
 10
59.46668080841261
 20
-4.863061959348884
 30
0.0
 10
59.3527761400168
 20
-4.742369525220343
 30
0.0
 10
59.33553074032994
 20
-4.723792292564655
 30
0.0
 10
59.30160512610357
 20
-4.68660684510688
 30
0.0
 10
59.26884500672769
 20
-4.649351839302032
 30
0.0
 10
59.252759802607
 20
-4.630699844562704
 30
0.0
 10
59.22139378224136
 20
-4.593410440156473
 30
0.0
 10
59.19085743519014
 20
-4.556534931833804
 30
0.0
 10
59.17566290554757
 20
-4.538286740689318
 30
0.0
 10
59.14507698708259
 20
-4.502367569699199
 30
0.0
 10
59.11346475460591
 20
-4.467913406948658
 30
0.0
 10
59.09723097160107
 20
-4.451098008120919
 30
0.0
 10
58.94906578861256
 20
-4.307847389930176
 30
0.0
 10
58.76291096264688
 20
-4.203751639371377
 30
0.0
 10
58.58920660179143
 20
-4.130784503906222
 30
0.0
 10
58.28446120864484
 20
-4.030210499303472
 30
0.0
 10
57.96721240770666
 20
-3.95918869944823
 30
0.0
 10
57.83632848477014
 20
-3.934101968185702
 30
0.0
 10
57.62505189670123
 20
-3.899277078998172
 30
0.0
 10
57.41154400537956
 20
-3.871858614123539
 30
0.0
 10
57.33123766804648
 20
-3.862528953166194
 30
0.0
 10
57.17020404852093
 20
-3.845611702473381
 30
0.0
 10
57.00842964829021
 20
-3.831986709683164
 30
0.0
 10
56.92738733459379
 20
-3.825950734921364
 30
0.0
 10
56.72353365412942
 20
-3.81268622321852
 30
0.0
 10
56.51916096423034
 20
-3.804135091741634
 30
0.0
 10
56.39599848921858
 20
-3.800666642305058
 30
0.0
 10
56.2728458925678
 20
-3.798920612563193
 30
0.0
 10
56.14974880042133
 20
-3.799014439829149
 30
0.0
  0
LINE
  5
C5
330
70
100
AcDbEntity
  8
0
 62
     7
370
    35
100
AcDbLine
 10
56.225981
 20
-3.799005
 30
0.0
 11
56.149749
 21
-3.799014
 31
0.0
  0
LINE
  5
C6
330
70
100
AcDbEntity
  8
0
 62
     7
370
    35
100
AcDbLine
 10
56.149749
 20
-3.799014
 30
0.0
 11
55.765356
 21
-3.799031
 31
0.0
  0
LINE
  5
C7
330
70
100
AcDbEntity
  8
0
 62
     7
370
    35
100
AcDbLine
 10
55.765356
 20
-3.799031
 30
0.0
 11
55.380962
 21
-3.799046
 31
0.0
  0
SPLINE
  5
C8
330
70
100
AcDbEntity
  8
0
 62
     7
370
    35
100
AcDbSpline
210
0.0
220
0.0
230
1.0
 70
     8
 71
     5
 72
    48
 73
    42
 74
     0
 42
0.000000001
 43
0.0
 40
0.0
 40
0.0
 40
0.0
 40
0.0
 40
0.0
 40
0.0
 40
2.140977676831413
 40
2.140977676831413
 40
2.140977676831413
 40
3.888776091167054
 40
3.888776091167054
 40
3.888776091167054
 40
5.265052542304744
 40
5.265052542304744
 40
5.265052542304744
 40
6.305748733313262
 40
6.305748733313262
 40
6.305748733313262
 40
6.494469114005226
 40
6.494469114005226
 40
6.494469114005226
 40
6.68318949469719
 40
6.68318949469719
 40
6.68318949469719
 40
6.871883147505773
 40
6.871883147505773
 40
6.871883147505773
 40
7.060576800314369
 40
7.060576800314369
 40
7.060576800314369
 40
8.536646536618273
 40
8.536646536618273
 40
8.536646536618273
 40
9.556230108399534
 40
9.556230108399534
 40
9.556230108399534
 40
10.16730971101749
 40
10.16730971101749
 40
10.16730971101749
 40
10.77838931363543
 40
10.77838931363543
 40
10.77838931363543
 40
11.70260197545167
 40
11.70260197545167
 40
11.70260197545167
 40
11.70260197545167
 40
11.70260197545167
 40
11.70260197545167
 10
48.37153482959724
 20
-7.290233835088807
 30
0.0
 10
48.64620974782773
 20
-7.145667660349263
 30
0.0
 10
48.91967641272299
 20
-6.998377883584832
 30
0.0
 10
49.19134101661761
 20
-6.848226371575301
 30
0.0
 10
49.68231431497994
 20
-6.568784262168223
 30
0.0
 10
50.16568303993814
 20
-6.275706960917041
 30
0.0
 10
50.38056298273315
 20
-6.141200805695972
 30
0.0
 10
50.76147286488232
 20
-5.893878022945552
 30
0.0
 10
51.1320322173227
 20
-5.63324227484589
 30
0.0
 10
51.2921728105385
 20
-5.515994263659393
 30
0.0
 10
51.56898580313732
 20
-5.303550884571449
 30
0.0
 10
51.83107384410179
 20
-5.080131881657094
 30
0.0
 10
51.94003885157502
 20
-4.982198626870229
 30
0.0
 10
52.06394597998384
 20
-4.863342004229045
 30
0.0
 10
52.17785631635072
 20
-4.742640763569165
 30
0.0
 10
52.19510241151339
 20
-4.724062358395227
 30
0.0
 10
52.22902941034867
 20
-4.686874562452877
 30
0.0
 10
52.26179089926639
 20
-4.649617201939835
 30
0.0
 10
52.27787677834642
 20
-4.630964024978827
 30
0.0
 10
52.309244151851
 20
-4.593672271149177
 30
0.0
 10
52.33978188422008
 20
-4.556794438610176
 30
0.0
 10
52.35497711927864
 20
-4.538545091682642
 30
0.0
 10
52.38556448658361
 20
-4.502623620087693
 30
0.0
 10
52.41717824969118
 20
-4.468167166110791
 30
0.0
 10
52.43341282832119
 20
-4.451350623316491
 30
0.0
 10
52.58158552798929
 20
-4.308089399824863
 30
0.0
 10
52.76774805297012
 20
-4.203982012881079
 30
0.0
 10
52.9414578247793
 20
-4.131003415159667
 30
0.0
 10
53.24621377421885
 20
-4.030408217782736
 30
0.0
 10
53.56347323003656
 20
-3.959363147925525
 30
0.0
 10
53.69436129764456
 20
-3.934266670043582
 30
0.0
 10
53.90564405807638
 20
-3.899425858914684
 30
0.0
 10
54.11915821157933
 20
-3.871990893588728
 30
0.0
 10
54.19946656124336
 20
-3.862655012104288
 30
0.0
 10
54.36050423648864
 20
-3.845725182670305
 30
0.0
 10
54.5222827409232
 20
-3.832087378628694
 30
0.0
 10
54.60332711776665
 20
-3.826044950346243
 30
0.0
 10
54.80718117420567
 20
-3.812764451000923
 30
0.0
 10
55.01155430798089
 20
-3.804196945976357
 30
0.0
 10
55.13471514069911
 20
-3.800718565407215
 30
0.0
 10
55.2578661402399
 20
-3.798962486546312
 30
0.0
 10
55.38096168331198
 20
-3.799046175426827
 30
0.0
  0
ARC
  5
C9
330
70
100
AcDbEntity
  8
0
 62
     7
370
    35
100
AcDbCircle
 10
48.371543
 20
374.599891
 30
0.0
 40
381.890177219163
100
AcDbArc
 50
270.000011
 51
270.40549
  0
ARC
  5
CA
330
70
100
AcDbEntity
  8
0
 62
     7
370
    35
100
AcDbCircle
 10
48.350116
 20
376.223846
 30
0.0
 40
383.5142605313442
100
AcDbArc
 50
270.406974
 51
272.138557
  0
SPLINE
  5
CB
330
70
100
AcDbEntity
  8
0
 62
     7
370
    35
100
AcDbSpline
210
0.0
220
0.0
230
1.0
 70
     8
 71
     5
 72
    48
 73
    42
 74
     0
 42
0.000000001
 43
0.0
 40
0.0
 40
0.0
 40
0.0
 40
0.0
 40
0.0
 40
0.0
 40
2.140968122779264
 40
2.140968122779264
 40
2.140968122779264
 40
3.888729344176196
 40
3.888729344176196
 40
3.888729344176196
 40
5.26496207431415
 40
5.26496207431415
 40
5.26496207431415
 40
6.30562166523334
 40
6.30562166523334
 40
6.30562166523334
 40
6.494336470007527
 40
6.494336470007527
 40
6.494336470007527
 40
6.683051274781705
 40
6.683051274781705
 40
6.683051274781705
 40
6.871739357852833
 40
6.871739357852833
 40
6.871739357852833
 40
7.060427440923959
 40
7.060427440923959
 40
7.060427440923959
 40
8.536468879962717
 40
8.536468879962717
 40
8.536468879962717
 40
9.556013535285878
 40
9.556013535285878
 40
9.556013535285878
 40
10.16706708683328
 40
10.16706708683328
 40
10.16706708683328
 40
10.77812063838068
 40
10.77812063838068
 40
10.77812063838068
 40
11.70223116142499
 40
11.70223116142499
 40
11.70223116142499
 40
11.70223116142499
 40
11.70223116142499
 40
11.70223116142499
 10
44.39462419445014
 20
-7.290053025982281
 30
0.0
 10
44.11995632695339
 20
-7.14546455946065
 30
0.0
 10
43.84649670571971
 20
-6.998153233258516
 30
0.0
 10
43.57483907476104
 20
-6.847981101305191
 30
0.0
 10
43.08388213925944
 20
-6.568505592633814
 30
0.0
 10
42.6005295545766
 20
-6.275399076567109
 30
0.0
 10
42.38565871429064
 20
-6.140881978346031
 30
0.0
 10
42.00476686804954
 20
-5.89354269062612
 30
0.0
 10
41.63422530907768
 20
-5.632894171574724
 30
0.0
 10
41.47409337314122
 20
-5.515642017981108
 30
0.0
 10
41.19729603572105
 20
-5.303193075252979
 30
0.0
 10
40.93522356242558
 20
-5.079771192059567
 30
0.0
 10
40.82626531522591
 20
-4.981837321661249
 30
0.0
 10
40.702366218091
 20
-4.862980689106202
 30
0.0
 10
40.58846371755592
 20
-4.742280425849971
 30
0.0
 10
40.57121873966271
 20
-4.723702106059343
 30
0.0
 10
40.53729396598391
 20
-4.686514529553659
 30
0.0
 10
40.50453468100996
 20
-4.649257488406715
 30
0.0
 10
40.48844991086733
 20
-4.630604491215052
 30
0.0
 10
40.45708469023691
 20
-4.593313176595143
 30
0.0
 10
40.42654899991825
 20
-4.556435887312033
 30
0.0
 10
40.41135475992501
 20
-4.538186826716214
 30
0.0
 10
40.38076934881005
 20
-4.502265930576037
 30
0.0
 10
40.34915750836446
 20
-4.467810012119521
 30
0.0
 10
40.3329238862568
 20
-4.450993720309764
 30
0.0
 10
40.18475839701927
 20
-4.307733059296581
 30
0.0
 10
39.99860349652494
 20
-4.203624440604208
 30
0.0
 10
39.82489847052439
 20
-4.130645230274726
 30
0.0
 10
39.52015368653762
 20
-4.030051347469374
 30
0.0
 10
39.20290482894185
 20
-3.959009354818946
 30
0.0
 10
39.07202245477606
 20
-3.933914714275751
 30
0.0
 10
38.86074915801976
 20
-3.899077362009274
 30
0.0
 10
38.64724439639532
 20
-3.871646576077237
 30
0.0
 10
38.56693977494127
 20
-3.862312387559084
 30
0.0
 10
38.40590956231436
 20
-3.845386144784297
 30
0.0
 10
38.24413852604784
 20
-3.831752343525437
 30
0.0
 10
38.16309788255509
 20
-3.825712023051733
 30
0.0
 10
37.95926155464965
 20
-3.812437629798908
 30
0.0
 10
37.75490622933695
 20
-3.803876518168354
 30
0.0
 10
37.63175946412486
 20
-3.800402143089438
 30
0.0
 10
37.50862255753498
 20
-3.798650069173637
 30
0.0
 10
37.38554112131253
 20
-3.798737723455918
 30
0.0
  0
LINE
  5
CC
330
70
100
AcDbEntity
  8
0
 62
     7
370
    35
100
AcDbLine
 10
37.461775
 20
-3.798732
 30
0.0
 11
37.385541
 21
-3.798738
 31
0.0
  0
LINE
  5
CD
330
70
100
AcDbEntity
  8
0
 62
     7
370
    35
100
AcDbLine
 10
37.001166
 20
-3.798735
 30
0.0
 11
37.385541
 21
-3.798738
 31
0.0
  0
LINE
  5
CE
330
70
100
AcDbEntity
  8
0
 62
     7
370
    35
100
AcDbLine
 10
36.616792
 20
-3.798734
 30
0.0
 11
37.001166
 21
-3.798735
 31
0.0
  0
SPLINE
  5
CF
330
70
100
AcDbEntity
  8
0
 62
     7
370
    35
100
AcDbSpline
210
0.0
220
0.0
230
1.0
 70
     8
 71
     5
 72
    48
 73
    42
 74
     0
 42
0.000000001
 43
0.0
 40
0.0
 40
0.0
 40
0.0
 40
0.0
 40
0.0
 40
0.0
 40
2.140938094084776
 40
2.140938094084776
 40
2.140938094084776
 40
3.888678275618581
 40
3.888678275618581
 40
3.888678275618581
 40
5.264897617766278
 40
5.264897617766278
 40
5.264897617766278
 40
6.305549678688593
 40
6.305549678688593
 40
6.305549678688593
 40
6.494263685705964
 40
6.494263685705964
 40
6.494263685705964
 40
6.682977692723328
 40
6.682977692723328
 40
6.682977692723328
 40
6.871664975710277
 40
6.871664975710277
 40
6.871664975710277
 40
7.060352258697224
 40
7.060352258697224
 40
7.060352258697224
 40
8.53638378721744
 40
8.53638378721744
 40
8.53638378721744
 40
9.555921857002565
 40
9.555921857002565
 40
9.555921857002565
 40
10.1669722285649
 40
10.1669722285649
 40
10.1669722285649
 40
10.77802260012724
 40
10.77802260012724
 40
10.77802260012724
 40
11.7021396650474
 40
11.7021396650474
 40
11.7021396650474
 40
11.7021396650474
 40
11.7021396650474
 40
11.7021396650474
 10
29.6077692167042
 20
-7.289993013831961
 30
0.0
 10
29.88243296089597
 20
-7.14540555483986
 30
0.0
 10
30.15588849493301
 20
-6.998095495856202
 30
0.0
 10
30.42754209565314
 20
-6.847924870698157
 30
0.0
 10
30.91849218289413
 20
-6.568452305791951
 30
0.0
 10
31.40183805393143
 20
-6.275349495419412
 30
0.0
 10
31.61670616358358
 20
-6.140834048043263
 30
0.0
 10
31.99759352465421
 20
-5.893497738556899
 30
0.0
 10
32.36813070215571
 20
-5.632852632573878
 30
0.0
 10
32.52826096323393
 20
-5.515601890481267
 30
0.0
 10
32.80505564388357
 20
-5.303155370559637
 30
0.0
 10
33.06712555263429
 20
-5.079736130988122
 30
0.0
 10
33.17608289253421
 20
-4.98180327463741
 30
0.0
 10
33.29998096761307
 20
-4.862947855106338
 30
0.0
 10
33.4138825220745
 20
-4.742248829746511
 30
0.0
 10
33.43112739987223
 20
-4.723670653241509
 30
0.0
 10
33.46505197541327
 20
-4.686483363367388
 30
0.0
 10
33.49781106682111
 20
-4.649226608998649
 30
0.0
 10
33.51389574583146
 20
-4.630573757499159
 30
0.0
 10
33.54526077339337
 20
-4.593282725262869
 30
0.0
 10
33.57579624122068
 20
-4.556405699970892
 30
0.0
 10
33.59099036088459
 20
-4.538156766742057
 30
0.0
 10
33.62157551130108
 20
-4.502236116084486
 30
0.0
 10
33.65318705463434
 20
-4.467780427463042
 30
0.0
 10
33.66942051549147
 20
-4.45096424596112
 30
0.0
 10
33.81758426430492
 20
-4.307704874562541
 30
0.0
 10
34.00373750679078
 20
-4.203597605102282
 30
0.0
 10
34.17744137486046
 20
-4.130619765185065
 30
0.0
 10
34.48218392667633
 20
-4.030028453991286
 30
0.0
 10
34.79943060488298
 20
-3.958989251871441
 30
0.0
 10
34.93031211386924
 20
-3.933895774572962
 30
0.0
 10
35.1415841237953
 20
-3.899060304372634
 30
0.0
 10
35.35508759853273
 20
-3.871631451442927
 30
0.0
 10
35.43539180074519
 20
-3.862297986787292
 30
0.0
 10
35.59642117418338
 20
-3.845373203770989
 30
0.0
 10
35.75819137118658
 20
-3.831740879506851
 30
0.0
 10
35.83923159493542
 20
-3.82570130034577
 30
0.0
 10
36.04306837309741
 20
-3.812428674336135
 30
0.0
 10
36.24742415177631
 20
-3.803869398282551
 30
0.0
 10
36.37057179193234
 20
-3.800396138535367
 30
0.0
 10
36.49370956930593
 20
-3.798645211673208
 30
0.0
 10
36.61679187114279
 20
-3.798734043420881
 30
0.0
  0
LINE
  5
D0
330
70
100
AcDbEntity
  8
0
 62
     7
370
    35
100
AcDbLine
 10
80.574211
 20
46.321363
 30
0.0
 11
81.574211
 21
45.321363
 31
0.0
  0
LINE
  5
D1
330
70
100
AcDbEntity
  8
0
 62
     7
370
    35
100
AcDbLine
 10
80.574211
 20
-3.678637
 30
0.0
 11
81.574211
 21
-2.678637
 31
0.0
  0
LINE
  5
D2
330
70
100
AcDbEntity
  8
0
 62
     7
370
    35
100
AcDbLine
 10
67.135587
 20
-7.290286
 30
0.0
 11
63.158805
 21
-7.290286
 31
0.0
  0
LINE
  5
D3
330
70
100
AcDbEntity
  8
0
 62
     7
370
    35
100
AcDbLine
 10
48.371617
 20
-7.290286
 30
0.0
 11
44.394751
 21
-7.290286
 31
0.0
  0
LINE
  5
D4
330
70
100
AcDbEntity
  8
0
 62
     7
370
    35
100
AcDbLine
 10
81.574211
 20
45.321363
 30
0.0
 11
85.074211
 21
45.321363
 31
0.0
  0
LINE
  5
D5
330
70
100
AcDbEntity
  8
0
 62
     7
370
    35
100
AcDbLine
 10
81.574211
 20
-2.678637
 30
0.0
 11
85.074211
 21
-2.678637
 31
0.0
  0
LINE
  5
D6
330
70
100
AcDbEntity
  8
0
 62
     7
370
    35
100
AcDbLine
 10
85.074211
 20
-2.678637
 30
0.0
 11
86.074211
 21
-1.678637
 31
0.0
  0
LINE
  5
D7
330
70
100
AcDbEntity
  8
0
 62
     7
370
    35
100
AcDbLine
 10
85.074211
 20
45.321363
 30
0.0
 11
86.074211
 21
44.321363
 31
0.0
  0
LINE
  5
D8
330
70
100
AcDbEntity
  8
0
 62
     7
370
    35
100
AcDbLine
 10
86.074211
 20
42.321363
 30
0.0
 11
86.074211
 21
44.321363
 31
0.0
  0
LINE
  5
D9
330
70
100
AcDbEntity
  8
0
 62
     7
370
    35
100
AcDbLine
 10
86.074211
 20
-1.678637
 30
0.0
 11
86.074211
 21
0.321363
 31
0.0
  0
ARC
  5
DA
330
70
100
AcDbEntity
  8
0
 62
     7
370
    35
100
AcDbCircle
 10
87.074211
 20
42.321363
 30
0.0
 40
1.0
100
AcDbArc
 50
180.0
 51
270.0
  0
ARC
  5
DB
330
70
100
AcDbEntity
  8
0
 62
     7
370
    35
100
AcDbCircle
 10
87.074211
 20
0.321363
 30
0.0
 40
1.0
100
AcDbArc
 50
90.0
 51
180.0
  0
LINE
  5
DC
330
70
100
AcDbEntity
  8
0
 62
     7
370
    35
100
AcDbLine
 10
87.074211
 20
41.321363
 30
0.0
 11
131.074211
 21
41.321363
 31
0.0
  0
LINE
  5
DD
330
70
100
AcDbEntity
  8
0
 62
     7
370
    35
100
AcDbLine
 10
87.074211
 20
1.321363
 30
0.0
 11
131.074211
 21
1.321363
 31
0.0
  0
LINE
  5
DE
330
70
100
AcDbEntity
  8
0
 62
     7
370
    35
100
AcDbLine
 10
133.074211
 20
39.321363
 30
0.0
 11
131.074211
 21
41.321363
 31
0.0
  0
LINE
  5
DF
330
70
100
AcDbEntity
  8
0
 62
     7
370
    35
100
AcDbLine
 10
133.074211
 20
3.321363
 30
0.0
 11
131.074211
 21
1.321363
 31
0.0
  0
LINE
  5
E0
330
70
100
AcDbEntity
  8
0
 62
     7
370
    35
100
AcDbLine
 10
133.074211
 20
39.321363
 30
0.0
 11
133.074211
 21
3.321363
 31
0.0
  0
LINE
  5
E1
330
70
100
AcDbEntity
  8
0
 62
     7
370
    35
100
AcDbLine
 10
-82.925789
 20
121.621363
 30
0.0
 11
-82.925789
 21
76.321363
 31
0.0
  0
LINE
  5
E2
330
70
100
AcDbEntity
  8
0
 62
     7
370
    35
100
AcDbLine
 10
-66.925789
 20
76.321363
 30
0.0
 11
-82.925789
 21
76.321363
 31
0.0
  0
LINE
  5
E3
330
70
100
AcDbEntity
  8
0
 62
     7
370
    35
100
AcDbLine
 10
-66.925789
 20
76.321363
 30
0.0
 11
-66.925789
 21
121.621363
 31
0.0
  0
LINE
  5
E4
330
70
100
AcDbEntity
  8
0
 62
     7
370
    35
100
AcDbLine
 10
-82.925789
 20
121.621363
 30
0.0
 11
-66.925789
 21
121.621363
 31
0.0
  0
LINE
  5
E5
330
70
100
AcDbEntity
  8
0
 62
     7
370
    35
100
AcDbLine
 10
-66.925789
 20
76.321363
 30
0.0
 11
-66.925789
 21
61.569292
 31
0.0
  0
LINE
  5
E6
330
70
100
AcDbEntity
  8
0
 62
     7
370
    35
100
AcDbLine
 10
-66.925789
 20
-18.926565
 30
0.0
 11
-66.925789
 21
-33.678637
 31
0.0
  0
LINE
  5
E7
330
70
100
AcDbEntity
  8
0
 62
     7
370
    35
100
AcDbLine
 10
-66.925789
 20
-78.978637
 30
0.0
 11
-66.925789
 21
-33.678637
 31
0.0
  0
LINE
  5
E8
330
70
100
AcDbEntity
  8
0
 62
     7
370
    35
100
AcDbLine
 10
-66.925789
 20
-78.978637
 30
0.0
 11
-66.925789
 21
-93.730708
 31
0.0
  0
LINE
  5
E9
330
70
100
AcDbEntity
  8
0
 62
     7
370
    35
100
AcDbLine
 10
-66.925789
 20
136.373435
 30
0.0
 11
-66.925789
 21
121.621363
 31
0.0
  0
LINE
  5
EA
330
70
100
AcDbEntity
  8
0
 62
     7
370
    35
100
AcDbLine
 10
-82.925789
 20
-33.678637
 30
0.0
 11
-82.925789
 21
-18.926565
 31
0.0
  0
LINE
  5
EB
330
70
100
AcDbEntity
  8
0
 62
     7
370
    35
100
AcDbLine
 10
-82.925789
 20
61.569292
 30
0.0
 11
-82.925789
 21
76.321363
 31
0.0
  0
LINE
  5
EC
330
70
100
AcDbEntity
  8
0
 62
     7
370
    35
100
AcDbLine
 10
-82.925789
 20
121.621363
 30
0.0
 11
-82.925789
 21
136.373435
 31
0.0
  0
LINE
  5
ED
330
70
100
AcDbEntity
  8
0
 62
     7
370
    35
100
AcDbLine
 10
-82.925789
 20
-93.730708
 30
0.0
 11
-82.925789
 21
-78.978637
 31
0.0
  0
LINE
  5
EE
330
70
100
AcDbEntity
  8
0
 62
     7
370
    35
100
AcDbLine
 10
-82.925789
 20
-33.678637
 30
0.0
 11
-82.925789
 21
-78.978637
 31
0.0
  0
LINE
  5
EF
330
70
100
AcDbEntity
  8
0
 62
     7
370
    13
100
AcDbLine
 10
-57.325363
 20
146.365449
 30
0.0
 11
-57.325363
 21
51.577898
 31
0.0
  0
LINE
  5
F0
330
70
100
AcDbEntity
  8
0
 62
     7
370
    13
100
AcDbLine
 10
-57.325363
 20
-8.935346
 30
0.0
 11
-57.325363
 21
-103.722722
 31
0.0
  0
ARC
  5
F1
330
70
100
AcDbEntity
  8
0
 62
     7
370
    35
100
AcDbCircle
 10
-56.925789
 20
136.373435
 30
0.0
 40
10.0
100
AcDbArc
 50
92.29
 51
180.0
  0
ARC
  5
F2
330
70
100
AcDbEntity
  8
0
 62
     7
370
    35
100
AcDbCircle
 10
-56.925789
 20
-93.730708
 30
0.0
 40
10.0
100
AcDbArc
 50
180.0
 51
267.71
  0
LINE
  5
F3
330
70
100
AcDbEntity
  8
0
 62
     7
370
    35
100
AcDbLine
 10
-66.925789
 20
-78.978637
 30
0.0
 11
-82.925789
 21
-78.978637
 31
0.0
  0
LINE
  5
F4
330
70
100
AcDbEntity
  8
0
 62
     7
370
    35
100
AcDbLine
 10
-82.925789
 20
-33.678637
 30
0.0
 11
-66.925789
 21
-33.678637
 31
0.0
  0
ARC
  5
F5
330
70
100
AcDbEntity
  8
0
 62
     7
370
    35
100
AcDbCircle
 10
-56.925789
 20
61.569292
 30
0.0
 40
10.0
100
AcDbArc
 50
180.0
 51
267.71
  0
ARC
  5
F6
330
70
100
AcDbEntity
  8
0
 62
     7
370
    35
100
AcDbCircle
 10
-56.925789
 20
-18.926565
 30
0.0
 40
10.0
100
AcDbArc
 50
92.29
 51
180.0
  0
LINE
  5
F7
330
70
100
AcDbEntity
  8
0
 62
     7
370
    13
100
AcDbLine
 10
-92.526215
 20
-103.722722
 30
0.0
 11
-92.526215
 21
-8.935353
 31
0.0
  0
LINE
  5
F8
330
70
100
AcDbEntity
  8
0
 62
     7
370
    13
100
AcDbLine
 10
-92.526215
 20
51.577905
 30
0.0
 11
-92.526215
 21
146.365449
 31
0.0
  0
ARC
  5
F9
330
70
100
AcDbEntity
  8
0
 62
     7
370
    35
100
AcDbCircle
 10
-92.925789
 20
-93.730708
 30
0.0
 40
10.0
100
AcDbArc
 50
272.29
 51
0.0
  0
ARC
  5
FA
330
70
100
AcDbEntity
  8
0
 62
     7
370
    35
100
AcDbCircle
 10
-92.925789
 20
136.373435
 30
0.0
 40
10.0
100
AcDbArc
 50
0.0
 51
87.71
  0
ARC
  5
FB
330
70
100
AcDbEntity
  8
0
 62
     7
370
    35
100
AcDbCircle
 10
-92.925789
 20
-18.926565
 30
0.0
 40
10.0
100
AcDbArc
 50
0.0
 51
87.71
  0
ARC
  5
FC
330
70
100
AcDbEntity
  8
0
 62
     7
370
    35
100
AcDbCircle
 10
-92.925789
 20
61.569292
 30
0.0
 40
10.0
100
AcDbArc
 50
272.29
 51
0.0
  0
LINE
  5
FD
330
70
100
AcDbEntity
  8
0
 62
     7
370
    13
100
AcDbLine
 10
-52.845874
 20
-8.708422
 30
0.0
 11
-52.845874
 21
-103.901854
 31
0.0
  0
LINE
  5
FE
330
70
100
AcDbEntity
  8
0
 62
     7
370
    13
100
AcDbLine
 10
-52.845874
 20
146.544581
 30
0.0
 11
-52.845874
 21
51.351148
 31
0.0
  0
LINE
  5
FF
330
70
100
AcDbEntity
  8
0
 62
     7
370
    35
100
AcDbLine
 10
-57.325363
 20
146.365449
 30
0.0
 11
-52.845874
 21
146.544581
 31
0.0
  0
LINE
  5
100
330
70
100
AcDbEntity
  8
0
 62
     7
370
    35
100
AcDbLine
 10
-52.845874
 20
-103.901854
 30
0.0
 11
-57.325363
 21
-103.722722
 31
0.0
  0
LINE
  5
101
330
70
100
AcDbEntity
  8
0
 62
     7
370
    35
100
AcDbLine
 10
-57.325363
 20
51.577278
 30
0.0
 11
-53.325895
 21
51.417342
 31
0.0
  0
LINE
  5
102
330
70
100
AcDbEntity
  8
0
 62
     7
370
    35
100
AcDbLine
 10
-53.325895
 20
-8.774615
 30
0.0
 11
-57.325363
 21
-8.934551
 31
0.0
  0
LINE
  5
103
330
70
100
AcDbEntity
  8
0
 62
     7
370
    13
100
AcDbLine
 10
-97.005704
 20
-103.901854
 30
0.0
 11
-97.005704
 21
-8.708422
 31
0.0
  0
LINE
  5
104
330
70
100
AcDbEntity
  8
0
 62
     7
370
    13
100
AcDbLine
 10
-97.005704
 20
51.351148
 30
0.0
 11
-97.005704
 21
146.544581
 31
0.0
  0
LINE
  5
105
330
70
100
AcDbEntity
  8
0
 62
     7
370
    35
100
AcDbLine
 10
-92.526215
 20
-103.722722
 30
0.0
 11
-97.005704
 21
-103.901854
 31
0.0
  0
LINE
  5
106
330
70
100
AcDbEntity
  8
0
 62
     7
370
    35
100
AcDbLine
 10
-97.005704
 20
146.544581
 30
0.0
 11
-92.526215
 21
146.365449
 31
0.0
  0
LINE
  5
107
330
70
100
AcDbEntity
  8
0
 62
     7
370
    35
100
AcDbLine
 10
-92.526215
 20
-8.934551
 30
0.0
 11
-96.525682
 21
-8.774615
 31
0.0
  0
LINE
  5
108
330
70
100
AcDbEntity
  8
0
 62
     7
370
    35
100
AcDbLine
 10
-96.525682
 20
51.417342
 30
0.0
 11
-92.526215
 21
51.577278
 31
0.0
  0
ARC
  5
109
330
70
100
AcDbEntity
  8
0
 62
     7
370
    35
100
AcDbCircle
 10
-52.925789
 20
-105.900256
 30
0.0
 40
2.0
100
AcDbArc
 50
0.0
 51
87.71
  0
LINE
  5
10A
330
70
100
AcDbEntity
  8
0
 62
     7
370
    35
100
AcDbLine
 10
-50.925789
 20
3.321363
 30
0.0
 11
-50.925789
 21
-105.900256
 31
0.0
  0
LINE
  5
10B
330
70
100
AcDbEntity
  8
0
 62
     7
370
    35
100
AcDbLine
 10
-50.925789
 20
148.542983
 30
0.0
 11
-50.925789
 21
39.321363
 31
0.0
  0
ARC
  5
10C
330
70
100
AcDbEntity
  8
0
 62
     7
370
    35
100
AcDbCircle
 10
-52.925789
 20
148.542983
 30
0.0
 40
2.0
100
AcDbArc
 50
272.29
 51
0.0
  0
ARC
  5
10D
330
70
100
AcDbEntity
  8
0
 62
     7
370
    35
100
AcDbCircle
 10
-53.425789
 20
48.919339
 30
0.0
 40
2.5
100
AcDbArc
 50
0.0
 51
87.71
  0
ARC
  5
10E
330
70
100
AcDbEntity
  8
0
 62
     7
370
    35
100
AcDbCircle
 10
-53.425789
 20
-6.276612
 30
0.0
 40
2.5
100
AcDbArc
 50
272.29
 51
0.0
  0
ARC
  5
10F
330
70
100
AcDbEntity
  8
0
 62
     7
370
    35
100
AcDbCircle
 10
-96.925789
 20
-105.900256
 30
0.0
 40
2.0
100
AcDbArc
 50
92.29
 51
180.0
  0
ARC
  5
110
330
70
100
AcDbEntity
  8
0
 62
     7
370
    35
100
AcDbCircle
 10
-96.925789
 20
148.542983
 30
0.0
 40
2.0
100
AcDbArc
 50
180.0
 51
267.71
  0
LINE
  5
111
330
70
100
AcDbEntity
  8
0
 62
     7
370
    35
100
AcDbLine
 10
-98.925789
 20
-105.900256
 30
0.0
 11
-98.925789
 21
-6.286507
 31
0.0
  0
LINE
  5
112
330
70
100
AcDbEntity
  8
0
 62
     7
370
    35
100
AcDbLine
 10
-98.925789
 20
48.929252
 30
0.0
 11
-98.925789
 21
148.542983
 31
0.0
  0
ARC
  5
113
330
70
100
AcDbEntity
  8
0
 62
     7
370
    35
100
AcDbCircle
 10
-96.425789
 20
-6.276612
 30
0.0
 40
2.5
100
AcDbArc
 50
180.0
 51
267.71
  0
ARC
  5
114
330
70
100
AcDbEntity
  8
0
 62
     7
370
    35
100
AcDbCircle
 10
-96.425789
 20
48.919339
 30
0.0
 40
2.5
100
AcDbArc
 50
92.29
 51
180.0
  0
LINE
  5
115
330
70
100
AcDbEntity
  8
0
 62
     7
370
    35
100
AcDbLine
 10
-50.925789
 20
164.071363
 30
0.0
 11
-50.925789
 21
148.542983
 31
0.0
  0
LINE
  5
116
330
70
100
AcDbEntity
  8
0
 62
     7
370
    35
100
AcDbLine
 10
-50.925789
 20
-105.900256
 30
0.0
 11
-50.925789
 21
-121.428637
 31
0.0
  0
LINE
  5
117
330
70
100
AcDbEntity
  8
0
 62
     7
370
    35
100
AcDbLine
 10
-50.925789
 20
48.919339
 30
0.0
 11
-50.925789
 21
37.821363
 31
0.0
  0
LINE
  5
118
330
70
100
AcDbEntity
  8
0
 62
     7
370
    35
100
AcDbLine
 10
-50.925789
 20
4.821363
 30
0.0
 11
-50.925789
 21
-6.276612
 31
0.0
  0
LINE
  5
119
330
70
100
AcDbEntity
  8
0
 62
     7
370
    35
100
AcDbLine
 10
-98.925789
 20
-121.428637
 30
0.0
 11
-98.925789
 21
-105.900256
 31
0.0
  0
LINE
  5
11A
330
70
100
AcDbEntity
  8
0
 62
     7
370
    35
100
AcDbLine
 10
-98.925789
 20
148.542983
 30
0.0
 11
-98.925789
 21
164.071363
 31
0.0
  0
LINE
  5
11B
330
70
100
AcDbEntity
  8
0
 62
     7
370
    35
100
AcDbLine
 10
-98.925789
 20
-6.276612
 30
0.0
 11
-98.925789
 21
4.821363
 31
0.0
  0
LINE
  5
11C
330
70
100
AcDbEntity
  8
0
 62
     7
370
    35
100
AcDbLine
 10
-98.925789
 20
4.821363
 30
0.0
 11
-98.925789
 21
37.821363
 31
0.0
  0
LINE
  5
11D
330
70
100
AcDbEntity
  8
0
 62
     7
370
    35
100
AcDbLine
 10
-98.925789
 20
37.821363
 30
0.0
 11
-98.925789
 21
48.919339
 31
0.0
  0
LINE
  5
11E
330
70
100
AcDbEntity
  8
0
 62
     7
370
    35
100
AcDbLine
 10
-50.925789
 20
-121.428637
 30
0.0
 11
-53.478888
 21
-121.428637
 31
0.0
  0
LINE
  5
11F
330
70
100
AcDbEntity
  8
0
 62
     7
370
    35
100
AcDbLine
 10
-53.478888
 20
164.071363
 30
0.0
 11
-50.925789
 21
164.071363
 31
0.0
  0
LINE
  5
120
330
70
100
AcDbEntity
  8
0
 62
     7
370
    35
100
AcDbLine
 10
-50.925789
 20
4.821363
 30
0.0
 11
-52.425789
 21
6.321363
 31
0.0
  0
LINE
  5
121
330
70
100
AcDbEntity
  8
0
 62
     7
370
    35
100
AcDbLine
 10
-52.425789
 20
36.321363
 30
0.0
 11
-50.925789
 21
37.821363
 31
0.0
  0
LINE
  5
122
330
70
100
AcDbEntity
  8
0
 62
     7
370
    35
100
AcDbLine
 10
-96.37269
 20
-121.428637
 30
0.0
 11
-98.925789
 21
-121.428637
 31
0.0
  0
LINE
  5
123
330
70
100
AcDbEntity
  8
0
 62
     7
370
    35
100
AcDbLine
 10
-98.925789
 20
164.071363
 30
0.0
 11
-96.37269
 21
164.071363
 31
0.0
  0
LINE
  5
124
330
70
100
AcDbEntity
  8
0
 62
     7
370
    35
100
AcDbLine
 10
-97.425789
 20
36.321363
 30
0.0
 11
-97.425789
 21
6.321363
 31
0.0
  0
LINE
  5
125
330
70
100
AcDbEntity
  8
0
 62
     7
370
    35
100
AcDbLine
 10
-98.925789
 20
37.821363
 30
0.0
 11
-97.425789
 21
36.321363
 31
0.0
  0
LINE
  5
126
330
70
100
AcDbEntity
  8
0
 62
     7
370
    35
100
AcDbLine
 10
-97.425789
 20
6.321363
 30
0.0
 11
-98.925789
 21
4.821363
 31
0.0
  0
LINE
  5
127
330
70
100
AcDbEntity
  8
0
 62
     7
370
    35
100
AcDbLine
 10
-53.478888
 20
-121.428637
 30
0.0
 11
-57.421439
 21
-109.978637
 31
0.0
  0
LINE
  5
128
330
70
100
AcDbEntity
  8
0
 62
     7
370
    35
100
AcDbLine
 10
-57.421439
 20
152.621363
 30
0.0
 11
-53.478888
 21
164.071363
 31
0.0
  0
LINE
  5
129
330
70
100
AcDbEntity
  8
0
 62
     7
370
    35
100
AcDbLine
 10
-52.425789
 20
6.321363
 30
0.0
 11
-97.425789
 21
6.321363
 31
0.0
  0
LINE
  5
12A
330
70
100
AcDbEntity
  8
0
 62
     7
370
    35
100
AcDbLine
 10
-97.425789
 20
36.321363
 30
0.0
 11
-52.425789
 21
36.321363
 31
0.0
  0
LINE
  5
12B
330
70
100
AcDbEntity
  8
0
 62
     7
370
    35
100
AcDbLine
 10
-96.37269
 20
164.071363
 30
0.0
 11
-92.430139
 21
152.621363
 31
0.0
  0
LINE
  5
12C
330
70
100
AcDbEntity
  8
0
 62
     7
370
    35
100
AcDbLine
 10
-92.430139
 20
-109.978637
 30
0.0
 11
-96.37269
 21
-121.428637
 31
0.0
  0
LINE
  5
12D
330
70
100
AcDbEntity
  8
0
 62
     7
370
    35
100
AcDbLine
 10
-57.421439
 20
-109.978637
 30
0.0
 11
-62.430139
 21
-109.978637
 31
0.0
  0
LINE
  5
12E
330
70
100
AcDbEntity
  8
0
 62
     7
370
    35
100
AcDbLine
 10
-62.430139
 20
152.621363
 30
0.0
 11
-57.421439
 21
152.621363
 31
0.0
  0
LINE
  5
12F
330
70
100
AcDbEntity
  8
0
 62
     7
370
    35
100
AcDbLine
 10
-87.421439
 20
-109.978637
 30
0.0
 11
-92.430139
 21
-109.978637
 31
0.0
  0
LINE
  5
130
330
70
100
AcDbEntity
  8
0
 62
     7
370
    35
100
AcDbLine
 10
-92.430139
 20
152.621363
 30
0.0
 11
-87.421439
 21
152.621363
 31
0.0
  0
LINE
  5
131
330
70
100
AcDbEntity
  8
0
 62
     7
370
    35
100
AcDbLine
 10
-66.37269
 20
164.071363
 30
0.0
 11
-62.430139
 21
152.621363
 31
0.0
  0
LINE
  5
132
330
70
100
AcDbEntity
  8
0
 62
     7
370
    35
100
AcDbLine
 10
-62.430139
 20
-109.978637
 30
0.0
 11
-66.37269
 21
-121.428637
 31
0.0
  0
LINE
  5
133
330
70
100
AcDbEntity
  8
0
 62
     7
370
    35
100
AcDbLine
 10
-83.478888
 20
-121.428637
 30
0.0
 11
-87.421439
 21
-109.978637
 31
0.0
  0
LINE
  5
134
330
70
100
AcDbEntity
  8
0
 62
     7
370
    35
100
AcDbLine
 10
-87.421439
 20
152.621363
 30
0.0
 11
-83.478888
 21
164.071363
 31
0.0
  0
LINE
  5
135
330
70
100
AcDbEntity
  8
0
 62
     7
370
    35
100
AcDbLine
 10
-66.37269
 20
-121.428637
 30
0.0
 11
-68.478888
 21
-121.428637
 31
0.0
  0
LINE
  5
136
330
70
100
AcDbEntity
  8
0
 62
     7
370
    35
100
AcDbLine
 10
-68.478888
 20
164.071363
 30
0.0
 11
-66.37269
 21
164.071363
 31
0.0
  0
LINE
  5
137
330
70
100
AcDbEntity
  8
0
 62
     7
370
    35
100
AcDbLine
 10
-81.37269
 20
-121.428637
 30
0.0
 11
-83.478888
 21
-121.428637
 31
0.0
  0
LINE
  5
138
330
70
100
AcDbEntity
  8
0
 62
     7
370
    35
100
AcDbLine
 10
-83.478888
 20
164.071363
 30
0.0
 11
-81.37269
 21
164.071363
 31
0.0
  0
LINE
  5
139
330
70
100
AcDbEntity
  8
0
 62
     7
370
    35
100
AcDbLine
 10
-68.478888
 20
-121.428637
 30
0.0
 11
-72.421439
 21
-109.978637
 31
0.0
  0
LINE
  5
13A
330
70
100
AcDbEntity
  8
0
 62
     7
370
    35
100
AcDbLine
 10
-72.421439
 20
152.621363
 30
0.0
 11
-68.478888
 21
164.071363
 31
0.0
  0
LINE
  5
13B
330
70
100
AcDbEntity
  8
0
 62
     7
370
    35
100
AcDbLine
 10
-81.37269
 20
164.071363
 30
0.0
 11
-77.430139
 21
152.621363
 31
0.0
  0
LINE
  5
13C
330
70
100
AcDbEntity
  8
0
 62
     7
370
    35
100
AcDbLine
 10
-77.430139
 20
-109.978637
 30
0.0
 11
-81.37269
 21
-121.428637
 31
0.0
  0
LINE
  5
13D
330
70
100
AcDbEntity
  8
0
 62
     7
370
    35
100
AcDbLine
 10
-72.421439
 20
-109.978637
 30
0.0
 11
-77.430139
 21
-109.978637
 31
0.0
  0
LINE
  5
13E
330
70
100
AcDbEntity
  8
0
 62
     7
370
    35
100
AcDbLine
 10
-77.430139
 20
152.621363
 30
0.0
 11
-72.421439
 21
152.621363
 31
0.0
  0
ARC
  5
13F
330
70
100
AcDbEntity
  8
0
 62
     7
370
    35
100
AcDbCircle
 10
121.574211
 20
-11.178637
 30
0.0
 40
6.299999999999997
100
AcDbArc
 50
170.080171
 51
267.736155
  0
ARC
  5
140
330
70
100
AcDbEntity
  8
0
 62
     7
370
    35
100
AcDbCircle
 10
121.574211
 20
-11.178637
 30
0.0
 40
6.299999999999997
100
AcDbArc
 50
350.080171
 51
9.919829
  0
LINE
  5
141
330
70
100
AcDbEntity
  8
0
 62
     7
370
    35
100
AcDbLine
 10
115.368398
 20
-10.093335
 30
0.0
 11
111.574211
 21
-10.093335
 31
0.0
  0
LINE
  5
142
330
70
100
AcDbEntity
  8
0
 62
     7
370
    35
100
AcDbLine
 10
111.574211
 20
52.736062
 30
0.0
 11
115.368398
 21
52.736062
 31
0.0
  0
LINE
  5
143
330
70
100
AcDbEntity
  8
0
 62
     7
370
    35
100
AcDbLine
 10
133.074211
 20
-10.093335
 30
0.0
 11
127.780025
 21
-10.093335
 31
0.0
  0
LINE
  5
144
330
70
100
AcDbEntity
  8
0
 62
     7
370
    35
100
AcDbLine
 10
127.780025
 20
52.736062
 30
0.0
 11
133.074211
 21
52.736062
 31
0.0
  0
LINE
  5
145
330
70
100
AcDbEntity
  8
0
 62
     7
370
    35
100
AcDbLine
 10
133.074211
 20
-12.263938
 30
0.0
 11
127.780025
 21
-12.263938
 31
0.0
  0
LINE
  5
146
330
70
100
AcDbEntity
  8
0
 62
     7
370
    35
100
AcDbLine
 10
133.074211
 20
-12.263938
 30
0.0
 11
133.074211
 21
54.906665
 31
0.0
  0
LINE
  5
147
330
70
100
AcDbEntity
  8
0
 62
     7
370
    35
100
AcDbLine
 10
127.780025
 20
54.906665
 30
0.0
 11
133.074211
 21
54.906665
 31
0.0
  0
LINE
  5
148
330
70
100
AcDbEntity
  8
0
 62
     7
370
    35
100
AcDbLine
 10
110.074211
 20
62.154697
 30
0.0
 11
121.325353
 21
60.116446
 31
0.0
  0
LINE
  5
149
330
70
100
AcDbEntity
  8
0
 62
     7
370
    35
100
AcDbLine
 10
110.074211
 20
-19.51197
 30
0.0
 11
110.074211
 21
-8.59333
 31
0.0
  0
LINE
  5
14A
330
70
100
AcDbEntity
  8
0
 62
     7
370
    35
100
AcDbLine
 10
110.074211
 20
51.236057
 30
0.0
 11
110.074211
 21
62.154697
 31
0.0
  0
LINE
  5
14B
330
70
100
AcDbEntity
  8
0
 62
     7
370
    35
100
AcDbLine
 10
121.325353
 20
-17.47372
 30
0.0
 11
110.074211
 21
-19.51197
 31
0.0
  0
ARC
  5
14C
330
70
100
AcDbEntity
  8
0
 62
     7
370
    35
100
AcDbCircle
 10
111.574211
 20
-8.593335
 30
0.0
 40
1.5
100
AcDbArc
 50
180.0
 51
270.0
  0
ARC
  5
14D
330
70
100
AcDbEntity
  8
0
 62
     7
370
    35
100
AcDbCircle
 10
111.574211
 20
51.236062
 30
0.0
 40
1.5
100
AcDbArc
 50
90.0
 51
180.0
  0
ARC
  5
14E
330
70
100
AcDbEntity
  8
0
 62
     7
370
    35
100
AcDbCircle
 10
121.574211
 20
53.821363
 30
0.0
 40
6.299999999999997
100
AcDbArc
 50
92.263845
 51
189.919829
  0
ARC
  5
14F
330
70
100
AcDbEntity
  8
0
 62
     7
370
    35
100
AcDbCircle
 10
121.574211
 20
53.821363
 30
0.0
 40
6.299999999999997
100
AcDbArc
 50
350.080171
 51
9.919829
  0
LINE
  5
150
330
70
100
AcDbEntity
  8
0
 62
     7
370
    35
100
AcDbLine
 10
133.074211
 20
52.736062
 30
0.0
 11
133.074211
 21
42.821363
 31
0.0
  0
LINE
  5
151
330
70
100
AcDbEntity
  8
0
 62
     7
370
    35
100
AcDbLine
 10
133.074211
 20
42.821363
 30
0.0
 11
133.074211
 21
-0.178637
 31
0.0
  0
LINE
  5
152
330
70
100
AcDbEntity
  8
0
 62
     7
370
    35
100
AcDbLine
 10
133.074211
 20
-0.178637
 30
0.0
 11
133.074211
 21
-10.093335
 31
0.0
  0
LINE
  5
153
330
70
100
AcDbEntity
  8
0
 62
     7
370
    35
100
AcDbLine
 10
133.074211
 20
64.821363
 30
0.0
 11
133.074211
 21
54.906665
 31
0.0
  0
LINE
  5
154
330
70
100
AcDbEntity
  8
0
 62
     7
370
    35
100
AcDbLine
 10
133.074211
 20
-12.263938
 30
0.0
 11
133.074211
 21
-22.178637
 31
0.0
  0
LINE
  5
155
330
70
100
AcDbEntity
  8
0
 62
     7
370
    35
100
AcDbLine
 10
110.074211
 20
-23.078637
 30
0.0
 11
110.074211
 21
-19.51197
 31
0.0
  0
LINE
  5
156
330
70
100
AcDbEntity
  8
0
 62
     7
370
    35
100
AcDbLine
 10
110.074211
 20
62.154697
 30
0.0
 11
110.074211
 21
65.721363
 31
0.0
  0
LINE
  5
157
330
70
100
AcDbEntity
  8
0
 62
     7
370
    35
100
AcDbLine
 10
110.074211
 20
-8.593335
 30
0.0
 11
110.074211
 21
-0.178637
 31
0.0
  0
LINE
  5
158
330
70
100
AcDbEntity
  8
0
 62
     7
370
    35
100
AcDbLine
 10
110.074211
 20
-0.178637
 30
0.0
 11
110.074211
 21
1.321373
 31
0.0
  0
LINE
  5
159
330
70
100
AcDbEntity
  8
0
 62
     7
370
    35
100
AcDbLine
 10
110.074211
 20
41.321354
 30
0.0
 11
110.074211
 21
42.821363
 31
0.0
  0
LINE
  5
15A
330
70
100
AcDbEntity
  8
0
 62
     7
370
    35
100
AcDbLine
 10
110.074211
 20
42.821363
 30
0.0
 11
110.074211
 21
51.236062
 31
0.0
  0
ARC
  5
15B
330
70
100
AcDbEntity
  8
0
 62
     7
370
    35
100
AcDbCircle
 10
131.574211
 20
-0.178637
 30
0.0
 40
1.5
100
AcDbArc
 50
360.0
 51
90.0
  0
ARC
  5
15C
330
70
100
AcDbEntity
  8
0
 62
     7
370
    35
100
AcDbCircle
 10
131.574211
 20
42.821363
 30
0.0
 40
1.5
100
AcDbArc
 50
270.0
 51
0.0
  0
LINE
  5
15D
330
70
100
AcDbEntity
  8
0
 62
     7
370
    13
100
AcDbLine
 10
131.574211
 20
1.821508
 30
0.0
 11
131.574211
 21
1.321363
 31
0.0
  0
LINE
  5
15E
330
70
100
AcDbEntity
  8
0
 62
     7
370
    13
100
AcDbLine
 10
131.574211
 20
41.321363
 30
0.0
 11
131.574211
 21
40.821219
 31
0.0
  0
ARC
  5
15F
330
70
100
AcDbEntity
  8
0
 62
     7
370
    35
100
AcDbCircle
 10
131.574211
 20
64.821363
 30
0.0
 40
1.5
100
AcDbArc
 50
0.0
 51
90.0
  0
ARC
  5
160
330
70
100
AcDbEntity
  8
0
 62
     7
370
    35
100
AcDbCircle
 10
131.574211
 20
-22.178637
 30
0.0
 40
1.5
100
AcDbArc
 50
270.0
 51
0.0
  0
ARC
  5
161
330
70
100
AcDbEntity
  8
0
 62
     7
370
    35
100
AcDbCircle
 10
110.674211
 20
-23.078637
 30
0.0
 40
0.6
100
AcDbArc
 50
180.0
 51
270.0
  0
ARC
  5
162
330
70
100
AcDbEntity
  8
0
 62
     7
370
    35
100
AcDbCircle
 10
110.674211
 20
65.721363
 30
0.0
 40
0.6
100
AcDbArc
 50
90.0
 51
180.0
  0
ARC
  5
163
330
70
100
AcDbEntity
  8
0
 62
     7
370
    35
100
AcDbCircle
 10
111.574211
 20
-0.178637
 30
0.0
 40
1.5
100
AcDbArc
 50
90.0
 51
180.0
  0
ARC
  5
164
330
70
100
AcDbEntity
  8
0
 62
     7
370
    35
100
AcDbCircle
 10
111.574211
 20
42.821363
 30
0.0
 40
1.5
100
AcDbArc
 50
180.0
 51
270.0
  0
LINE
  5
165
330
70
100
AcDbEntity
  8
0
 62
     7
370
    35
100
AcDbLine
 10
111.574211
 20
41.321363
 30
0.0
 11
131.574211
 21
41.321363
 31
0.0
  0
LINE
  5
166
330
70
100
AcDbEntity
  8
0
 62
     7
370
    35
100
AcDbLine
 10
131.574211
 20
1.321363
 30
0.0
 11
111.574211
 21
1.321363
 31
0.0
  0
LINE
  5
167
330
70
100
AcDbEntity
  8
0
 62
     7
370
    35
100
AcDbLine
 10
131.574211
 20
-23.678637
 30
0.0
 11
110.674211
 21
-23.678637
 31
0.0
  0
LINE
  5
168
330
70
100
AcDbEntity
  8
0
 62
     7
370
    35
100
AcDbLine
 10
110.674211
 20
66.321363
 30
0.0
 11
131.574211
 21
66.321363
 31
0.0
  0
LINE
  5
169
330
70
100
AcDbEntity
  8
0
 62
     7
370
    35
100
AcDbLine
 10
-25.631602
 20
-12.263938
 30
0.0
 11
-30.925789
 21
-12.263938
 31
0.0
  0
LINE
  5
16A
330
70
100
AcDbEntity
  8
0
 62
     7
370
    35
100
AcDbLine
 10
-25.631602
 20
54.906665
 30
0.0
 11
-30.925789
 21
54.906665
 31
0.0
  0
LINE
  5
16B
330
70
100
AcDbEntity
  8
0
 62
     7
370
    35
100
AcDbLine
 10
-30.925789
 20
54.906665
 30
0.0
 11
-30.925789
 21
52.736029
 31
0.0
  0
LINE
  5
16C
330
70
100
AcDbEntity
  8
0
 62
     7
370
    35
100
AcDbLine
 10
-30.925789
 20
-10.093302
 30
0.0
 11
-30.925789
 21
-12.263938
 31
0.0
  0
LINE
  5
16D
330
70
100
AcDbEntity
  8
0
 62
     7
370
    35
100
AcDbLine
 10
-30.925789
 20
-12.263938
 30
0.0
 11
-30.925789
 21
-22.178637
 31
0.0
  0
LINE
  5
16E
330
70
100
AcDbEntity
  8
0
 62
     7
370
    35
100
AcDbLine
 10
-30.925789
 20
64.821363
 30
0.0
 11
-30.925789
 21
54.906665
 31
0.0
  0
ARC
  5
16F
330
70
100
AcDbEntity
  8
0
 62
     7
370
    35
100
AcDbCircle
 10
-19.425789
 20
53.821363
 30
0.0
 40
6.299999999999995
100
AcDbArc
 50
350.080171
 51
87.736155
  0
ARC
  5
170
330
70
100
AcDbEntity
  8
0
 62
     7
370
    35
100
AcDbCircle
 10
-19.425789
 20
53.821363
 30
0.0
 40
6.299999999999995
100
AcDbArc
 50
170.080171
 51
189.919829
  0
ARC
  5
171
330
70
100
AcDbEntity
  8
0
 62
     7
370
    35
100
AcDbCircle
 10
-19.425789
 20
-11.178637
 30
0.0
 40
6.299999999999995
100
AcDbArc
 50
272.263845
 51
9.919829
  0
ARC
  5
172
330
70
100
AcDbEntity
  8
0
 62
     7
370
    35
100
AcDbCircle
 10
-19.425789
 20
-11.178637
 30
0.0
 40
6.299999999999995
100
AcDbArc
 50
170.080171
 51
189.919829
  0
ARC
  5
173
330
70
100
AcDbEntity
  8
0
 62
     7
370
    35
100
AcDbCircle
 10
-29.425789
 20
64.821363
 30
0.0
 40
1.5
100
AcDbArc
 50
90.0
 51
180.0
  0
ARC
  5
174
330
70
100
AcDbEntity
  8
0
 62
     7
370
    35
100
AcDbCircle
 10
-29.425789
 20
-22.178637
 30
0.0
 40
1.5
100
AcDbArc
 50
180.0
 51
270.0
  0
LINE
  5
175
330
70
100
AcDbEntity
  8
0
 62
     7
370
    35
100
AcDbLine
 10
-9.425789
 20
-10.093335
 30
0.0
 11
-13.219975
 21
-10.093335
 31
0.0
  0
LINE
  5
176
330
70
100
AcDbEntity
  8
0
 62
     7
370
    35
100
AcDbLine
 10
-9.425789
 20
52.736062
 30
0.0
 11
-13.219975
 21
52.736062
 31
0.0
  0
LINE
  5
177
330
70
100
AcDbEntity
  8
0
 62
     7
370
    35
100
AcDbLine
 10
-25.631602
 20
-10.093335
 30
0.0
 11
-30.925789
 21
-10.093335
 31
0.0
  0
LINE
  5
178
330
70
100
AcDbEntity
  8
0
 62
     7
370
    35
100
AcDbLine
 10
-25.631602
 20
52.736062
 30
0.0
 11
-30.925789
 21
52.736062
 31
0.0
  0
LINE
  5
179
330
70
100
AcDbEntity
  8
0
 62
     7
370
    35
100
AcDbLine
 10
-19.176931
 20
60.116446
 30
0.0
 11
-7.925789
 21
62.154697
 31
0.0
  0
LINE
  5
17A
330
70
100
AcDbEntity
  8
0
 62
     7
370
    35
100
AcDbLine
 10
-19.176931
 20
-17.47372
 30
0.0
 11
-7.925789
 21
-19.51197
 31
0.0
  0
LINE
  5
17B
330
70
100
AcDbEntity
  8
0
 62
     7
370
    35
100
AcDbLine
 10
-7.925789
 20
62.154697
 30
0.0
 11
-7.925789
 21
45.321361
 31
0.0
  0
LINE
  5
17C
330
70
100
AcDbEntity
  8
0
 62
     7
370
    35
100
AcDbLine
 10
-7.925789
 20
-2.678634
 30
0.0
 11
-7.925789
 21
-19.51197
 31
0.0
  0
LINE
  5
17D
330
70
100
AcDbEntity
  8
0
 62
     7
370
    35
100
AcDbLine
 10
-8.525789
 20
-23.678637
 30
0.0
 11
-29.425789
 21
-23.678637
 31
0.0
  0
LINE
  5
17E
330
70
100
AcDbEntity
  8
0
 62
     7
370
    35
100
AcDbLine
 10
-8.525789
 20
66.321363
 30
0.0
 11
-29.425789
 21
66.321363
 31
0.0
  0
ARC
  5
17F
330
70
100
AcDbEntity
  8
0
 62
     7
370
    35
100
AcDbCircle
 10
-9.425789
 20
-8.593335
 30
0.0
 40
1.5
100
AcDbArc
 50
270.0
 51
360.0
  0
ARC
  5
180
330
70
100
AcDbEntity
  8
0
 62
     7
370
    35
100
AcDbCircle
 10
-9.425789
 20
51.236062
 30
0.0
 40
1.5
100
AcDbArc
 50
0.0
 51
90.0
  0
LINE
  5
181
330
70
100
AcDbEntity
  8
0
 62
     7
370
    35
100
AcDbLine
 10
-30.925789
 20
-0.178637
 30
0.0
 11
-30.925789
 21
-10.093335
 31
0.0
  0
LINE
  5
182
330
70
100
AcDbEntity
  8
0
 62
     7
370
    35
100
AcDbLine
 10
-30.925789
 20
41.321354
 30
0.0
 11
-30.925789
 21
42.821363
 31
0.0
  0
LINE
  5
183
330
70
100
AcDbEntity
  8
0
 62
     7
370
    35
100
AcDbLine
 10
-30.925789
 20
-0.178637
 30
0.0
 11
-30.925789
 21
1.321373
 31
0.0
  0
LINE
  5
184
330
70
100
AcDbEntity
  8
0
 62
     7
370
    35
100
AcDbLine
 10
-30.925789
 20
52.736062
 30
0.0
 11
-30.925789
 21
42.821363
 31
0.0
  0
LINE
  5
185
330
70
100
AcDbEntity
  8
0
 62
     7
370
    35
100
AcDbLine
 10
-7.925789
 20
62.154697
 30
0.0
 11
-7.925789
 21
65.721363
 31
0.0
  0
LINE
  5
186
330
70
100
AcDbEntity
  8
0
 62
     7
370
    35
100
AcDbLine
 10
-7.925789
 20
-23.078637
 30
0.0
 11
-7.925789
 21
-19.51197
 31
0.0
  0
ARC
  5
187
330
70
100
AcDbEntity
  8
0
 62
     7
370
    35
100
AcDbCircle
 10
-8.525789
 20
-23.078637
 30
0.0
 40
0.5999999999999999
100
AcDbArc
 50
270.0
 51
0.0
  0
ARC
  5
188
330
70
100
AcDbEntity
  8
0
 62
     7
370
    35
100
AcDbCircle
 10
-8.525789
 20
65.721363
 30
0.0
 40
0.5999999999999999
100
AcDbArc
 50
0.0
 51
90.0
  0
LINE
  5
189
330
70
100
AcDbEntity
  8
0
 62
     7
370
    35
100
AcDbLine
 10
-7.925789
 20
42.821363
 30
0.0
 11
-7.925789
 21
51.236062
 31
0.0
  0
LINE
  5
18A
330
70
100
AcDbEntity
  8
0
 62
     7
370
    35
100
AcDbLine
 10
-7.925789
 20
-8.593335
 30
0.0
 11
-7.925789
 21
-0.178637
 31
0.0
  0
ARC
  5
18B
330
70
100
AcDbEntity
  8
0
 62
     7
370
    35
100
AcDbCircle
 10
-29.425789
 20
42.821363
 30
0.0
 40
1.5
100
AcDbArc
 50
180.0
 51
270.0
  0
ARC
  5
18C
330
70
100
AcDbEntity
  8
0
 62
     7
370
    35
100
AcDbCircle
 10
-29.425789
 20
-0.178637
 30
0.0
 40
1.5
100
AcDbArc
 50
90.0
 51
180.0
  0
ARC
  5
18D
330
70
100
AcDbEntity
  8
0
 62
     7
370
    35
100
AcDbCircle
 10
-9.425789
 20
42.821363
 30
0.0
 40
1.5
100
AcDbArc
 50
270.0
 51
360.0
  0
ARC
  5
18E
330
70
100
AcDbEntity
  8
0
 62
     7
370
    35
100
AcDbCircle
 10
-9.425789
 20
-0.178637
 30
0.0
 40
1.5
100
AcDbArc
 50
0.0
 51
90.0
  0
LINE
  5
18F
330
70
100
AcDbEntity
  8
0
 62
     7
370
    35
100
AcDbLine
 10
-9.425789
 20
1.321363
 30
0.0
 11
-29.425789
 21
1.321363
 31
0.0
  0
LINE
  5
190
330
70
100
AcDbEntity
  8
0
 62
     7
370
    35
100
AcDbLine
 10
-9.425789
 20
41.321363
 30
0.0
 11
-29.425789
 21
41.321363
 31
0.0
  0
LINE
  5
191
330
70
100
AcDbEntity
  8
0
 62
     7
370
    35
100
AcDbLine
 10
6.074211
 20
66.321363
 30
0.0
 11
2.074211
 21
66.321363
 31
0.0
  0
LINE
  5
192
330
70
100
AcDbEntity
  8
0
 62
     7
370
    35
100
AcDbLine
 10
6.074211
 20
-23.678637
 30
0.0
 11
2.074211
 21
-23.678637
 31
0.0
  0
LINE
  5
193
330
70
100
AcDbEntity
  8
0
 62
     7
370
    35
100
AcDbLine
 10
6.074211
 20
-23.678637
 30
0.0
 11
6.074211
 21
-5.678637
 31
0.0
  0
LINE
  5
194
330
70
100
AcDbEntity
  8
0
 62
     7
370
    35
100
AcDbLine
 10
6.074211
 20
48.321363
 30
0.0
 11
6.074211
 21
66.321363
 31
0.0
  0
LINE
  5
195
330
70
100
AcDbEntity
  8
0
 62
     7
370
    35
100
AcDbLine
 10
2.074211
 20
-23.678637
 30
0.0
 11
2.074211
 21
-5.678637
 31
0.0
  0
LINE
  5
196
330
70
100
AcDbEntity
  8
0
 62
     7
370
    35
100
AcDbLine
 10
2.074211
 20
48.321363
 30
0.0
 11
2.074211
 21
66.321363
 31
0.0
  0
LINE
  5
197
330
70
100
AcDbEntity
  8
0
 62
     7
370
    35
100
AcDbLine
 10
8.074211
 20
-3.678637
 30
0.0
 11
6.074211
 21
-5.678637
 31
0.0
  0
LINE
  5
198
330
70
100
AcDbEntity
  8
0
 62
     7
370
    35
100
AcDbLine
 10
8.074211
 20
46.321363
 30
0.0
 11
6.074211
 21
48.321363
 31
0.0
  0
LINE
  5
199
330
70
100
AcDbEntity
  8
0
 62
     7
370
    35
100
AcDbLine
 10
2.074211
 20
-5.678637
 30
0.0
 11
0.074211
 21
-3.678637
 31
0.0
  0
LINE
  5
19A
330
70
100
AcDbEntity
  8
0
 62
     7
370
    35
100
AcDbLine
 10
2.074211
 20
48.321363
 30
0.0
 11
0.074211
 21
46.321363
 31
0.0
  0
LINE
  5
19B
330
70
100
AcDbEntity
  8
0
 62
     7
370
    35
100
AcDbLine
 10
15.074211
 20
46.321363
 30
0.0
 11
8.074211
 21
46.321363
 31
0.0
  0
LINE
  5
19C
330
70
100
AcDbEntity
  8
0
 62
     7
370
    35
100
AcDbLine
 10
15.074211
 20
-3.678637
 30
0.0
 11
8.074211
 21
-3.678637
 31
0.0
  0
LINE
  5
19D
330
70
100
AcDbEntity
  8
0
 62
     7
370
    35
100
AcDbLine
 10
0.074211
 20
-3.678637
 30
0.0
 11
-6.925789
 21
-3.678637
 31
0.0
  0
LINE
  5
19E
330
70
100
AcDbEntity
  8
0
 62
     7
370
    35
100
AcDbLine
 10
0.074211
 20
46.321363
 30
0.0
 11
-6.925789
 21
46.321363
 31
0.0
  0
LINE
  5
19F
330
70
100
AcDbEntity
  8
0
 62
     7
370
    35
100
AcDbLine
 10
15.074211
 20
-3.678637
 30
0.0
 11
16.074211
 21
-2.678637
 31
0.0
  0
LINE
  5
1A0
330
70
100
AcDbEntity
  8
0
 62
     7
370
    35
100
AcDbLine
 10
15.074211
 20
46.321363
 30
0.0
 11
16.074211
 21
45.321363
 31
0.0
  0
LINE
  5
1A1
330
70
100
AcDbEntity
  8
0
 62
     7
370
    35
100
AcDbLine
 10
-7.925789
 20
-2.678637
 30
0.0
 11
-6.925789
 21
-3.678637
 31
0.0
  0
LINE
  5
1A2
330
70
100
AcDbEntity
  8
0
 62
     7
370
    35
100
AcDbLine
 10
-7.925789
 20
45.321363
 30
0.0
 11
-6.925789
 21
46.321363
 31
0.0
  0
LINE
  5
1A3
330
70
100
AcDbEntity
  8
0
 62
     7
370
    35
100
AcDbLine
 10
16.074211
 20
42.821363
 30
0.0
 11
16.074211
 21
45.321363
 31
0.0
  0
LINE
  5
1A4
330
70
100
AcDbEntity
  8
0
 62
     7
370
    35
100
AcDbLine
 10
16.074211
 20
-2.678637
 30
0.0
 11
16.074211
 21
-0.178637
 31
0.0
  0
LINE
  5
1A5
330
70
100
AcDbEntity
  8
0
 62
     7
370
    35
100
AcDbLine
 10
-7.925789
 20
42.321363
 30
0.0
 11
-7.925789
 21
45.321363
 31
0.0
  0
LINE
  5
1A6
330
70
100
AcDbEntity
  8
0
 62
     7
370
    35
100
AcDbLine
 10
-7.925789
 20
0.321363
 30
0.0
 11
-7.925789
 21
1.321371
 31
0.0
  0
LINE
  5
1A7
330
70
100
AcDbEntity
  8
0
 62
     7
370
    35
100
AcDbLine
 10
-7.925789
 20
41.321356
 30
0.0
 11
-7.925789
 21
42.321363
 31
0.0
  0
LINE
  5
1A8
330
70
100
AcDbEntity
  8
0
 62
     7
370
    35
100
AcDbLine
 10
-7.925789
 20
-2.678637
 30
0.0
 11
-7.925789
 21
0.321363
 31
0.0
  0
LINE
  5
1A9
330
70
100
AcDbEntity
  8
0
 62
     7
370
    35
100
AcDbLine
 10
16.074211
 20
-0.178637
 30
0.0
 11
14.574211
 21
1.321363
 31
0.0
  0
LINE
  5
1AA
330
70
100
AcDbEntity
  8
0
 62
     7
370
    35
100
AcDbLine
 10
16.074211
 20
42.821363
 30
0.0
 11
14.574211
 21
41.321363
 31
0.0
  0
LINE
  5
1AB
330
70
100
AcDbEntity
  8
0
 62
     7
370
    35
100
AcDbLine
 10
-7.925789
 20
0.321363
 30
0.0
 11
-6.925789
 21
1.321363
 31
0.0
  0
LINE
  5
1AC
330
70
100
AcDbEntity
  8
0
 62
     7
370
    35
100
AcDbLine
 10
-7.925789
 20
42.321363
 30
0.0
 11
-6.925789
 21
41.321363
 31
0.0
  0
LINE
  5
1AD
330
70
100
AcDbEntity
  8
0
 62
     7
370
    35
100
AcDbLine
 10
14.574211
 20
41.321363
 30
0.0
 11
-6.925789
 21
41.321363
 31
0.0
  0
LINE
  5
1AE
330
70
100
AcDbEntity
  8
0
 62
     7
370
    35
100
AcDbLine
 10
14.574211
 20
1.321363
 30
0.0
 11
-6.925789
 21
1.321363
 31
0.0
  0
LINE
  5
1AF
330
70
100
AcDbEntity
  8
0
 62
     7
370
    35
100
AcDbLine
 10
96.074211
 20
-23.678637
 30
0.0
 11
100.074211
 21
-23.678637
 31
0.0
  0
LINE
  5
1B0
330
70
100
AcDbEntity
  8
0
 62
     7
370
    35
100
AcDbLine
 10
96.074211
 20
66.321363
 30
0.0
 11
100.074211
 21
66.321363
 31
0.0
  0
LINE
  5
1B1
330
70
100
AcDbEntity
  8
0
 62
     7
370
    35
100
AcDbLine
 10
96.074211
 20
48.321363
 30
0.0
 11
96.074211
 21
66.321363
 31
0.0
  0
LINE
  5
1B2
330
70
100
AcDbEntity
  8
0
 62
     7
370
    35
100
AcDbLine
 10
96.074211
 20
-23.678637
 30
0.0
 11
96.074211
 21
-5.678637
 31
0.0
  0
LINE
  5
1B3
330
70
100
AcDbEntity
  8
0
 62
     7
370
    35
100
AcDbLine
 10
100.074211
 20
48.321363
 30
0.0
 11
100.074211
 21
66.321363
 31
0.0
  0
LINE
  5
1B4
330
70
100
AcDbEntity
  8
0
 62
     7
370
    35
100
AcDbLine
 10
100.074211
 20
-23.678637
 30
0.0
 11
100.074211
 21
-5.678637
 31
0.0
  0
LINE
  5
1B5
330
70
100
AcDbEntity
  8
0
 62
     7
370
    35
100
AcDbLine
 10
94.074211
 20
46.321363
 30
0.0
 11
96.074211
 21
48.321363
 31
0.0
  0
LINE
  5
1B6
330
70
100
AcDbEntity
  8
0
 62
     7
370
    35
100
AcDbLine
 10
94.074211
 20
-3.678637
 30
0.0
 11
96.074211
 21
-5.678637
 31
0.0
  0
LINE
  5
1B7
330
70
100
AcDbEntity
  8
0
 62
     7
370
    35
100
AcDbLine
 10
100.074211
 20
48.321363
 30
0.0
 11
102.074211
 21
46.321363
 31
0.0
  0
LINE
  5
1B8
330
70
100
AcDbEntity
  8
0
 62
     7
370
    35
100
AcDbLine
 10
100.074211
 20
-5.678637
 30
0.0
 11
102.074211
 21
-3.678637
 31
0.0
  0
LINE
  5
1B9
330
70
100
AcDbEntity
  8
0
 62
     7
370
    35
100
AcDbLine
 10
87.074211
 20
-3.678637
 30
0.0
 11
94.074211
 21
-3.678637
 31
0.0
  0
LINE
  5
1BA
330
70
100
AcDbEntity
  8
0
 62
     7
370
    35
100
AcDbLine
 10
87.074211
 20
46.321363
 30
0.0
 11
94.074211
 21
46.321363
 31
0.0
  0
LINE
  5
1BB
330
70
100
AcDbEntity
  8
0
 62
     7
370
    35
100
AcDbLine
 10
102.074211
 20
46.321363
 30
0.0
 11
109.074211
 21
46.321363
 31
0.0
  0
LINE
  5
1BC
330
70
100
AcDbEntity
  8
0
 62
     7
370
    35
100
AcDbLine
 10
102.074211
 20
-3.678637
 30
0.0
 11
109.074211
 21
-3.678637
 31
0.0
  0
LINE
  5
1BD
330
70
100
AcDbEntity
  8
0
 62
     7
370
    35
100
AcDbLine
 10
87.074211
 20
46.321363
 30
0.0
 11
86.074211
 21
45.321363
 31
0.0
  0
LINE
  5
1BE
330
70
100
AcDbEntity
  8
0
 62
     7
370
    35
100
AcDbLine
 10
87.074211
 20
-3.678637
 30
0.0
 11
86.074211
 21
-2.678637
 31
0.0
  0
LINE
  5
1BF
330
70
100
AcDbEntity
  8
0
 62
     7
370
    35
100
AcDbLine
 10
110.074211
 20
45.321363
 30
0.0
 11
109.074211
 21
46.321363
 31
0.0
  0
LINE
  5
1C0
330
70
100
AcDbEntity
  8
0
 62
     7
370
    35
100
AcDbLine
 10
110.074211
 20
-2.678637
 30
0.0
 11
109.074211
 21
-3.678637
 31
0.0
  0
LINE
  5
1C1
330
70
100
AcDbEntity
  8
0
 62
     7
370
    35
100
AcDbLine
 10
86.074211
 20
-2.678637
 30
0.0
 11
86.074211
 21
-0.178637
 31
0.0
  0
LINE
  5
1C2
330
70
100
AcDbEntity
  8
0
 62
     7
370
    35
100
AcDbLine
 10
86.074211
 20
-0.178637
 30
0.0
 11
86.074211
 21
0.321363
 31
0.0
  0
LINE
  5
1C3
330
70
100
AcDbEntity
  8
0
 62
     7
370
    35
100
AcDbLine
 10
86.074211
 20
42.321364
 30
0.0
 11
86.074211
 21
42.821363
 31
0.0
  0
LINE
  5
1C4
330
70
100
AcDbEntity
  8
0
 62
     7
370
    35
100
AcDbLine
 10
86.074211
 20
42.821363
 30
0.0
 11
86.074211
 21
45.321363
 31
0.0
  0
LINE
  5
1C5
330
70
100
AcDbEntity
  8
0
 62
     7
370
    35
100
AcDbLine
 10
110.074211
 20
-2.678637
 30
0.0
 11
110.074211
 21
0.321363
 31
0.0
  0
LINE
  5
1C6
330
70
100
AcDbEntity
  8
0
 62
     7
370
    35
100
AcDbLine
 10
110.074211
 20
0.321363
 30
0.0
 11
110.074211
 21
1.321371
 31
0.0
  0
LINE
  5
1C7
330
70
100
AcDbEntity
  8
0
 62
     7
370
    35
100
AcDbLine
 10
110.074211
 20
41.321356
 30
0.0
 11
110.074211
 21
42.321363
 31
0.0
  0
LINE
  5
1C8
330
70
100
AcDbEntity
  8
0
 62
     7
370
    35
100
AcDbLine
 10
110.074211
 20
42.321363
 30
0.0
 11
110.074211
 21
45.321363
 31
0.0
  0
LINE
  5
1C9
330
70
100
AcDbEntity
  8
0
 62
     7
370
    35
100
AcDbLine
 10
86.074211
 20
42.821363
 30
0.0
 11
87.574211
 21
41.321363
 31
0.0
  0
LINE
  5
1CA
330
70
100
AcDbEntity
  8
0
 62
     7
370
    35
100
AcDbLine
 10
86.074211
 20
-0.178637
 30
0.0
 11
87.574211
 21
1.321363
 31
0.0
  0
LINE
  5
1CB
330
70
100
AcDbEntity
  8
0
 62
     7
370
    35
100
AcDbLine
 10
110.074211
 20
42.321363
 30
0.0
 11
109.074211
 21
41.321363
 31
0.0
  0
LINE
  5
1CC
330
70
100
AcDbEntity
  8
0
 62
     7
370
    35
100
AcDbLine
 10
110.074211
 20
0.321363
 30
0.0
 11
109.074211
 21
1.321363
 31
0.0
  0
LINE
  5
1CD
330
70
100
AcDbEntity
  8
0
 62
     7
370
    35
100
AcDbLine
 10
87.574211
 20
1.321363
 30
0.0
 11
109.074211
 21
1.321363
 31
0.0
  0
LINE
  5
1CE
330
70
100
AcDbEntity
  8
0
 62
     7
370
    35
100
AcDbLine
 10
87.574211
 20
41.321363
 30
0.0
 11
109.074211
 21
41.321363
 31
0.0
  0
ENDBLK
  5
72
330
70
100
AcDbEntity
  8
0
100
AcDbBlockEnd
  0
BLOCK
  5
74
330
73
100
AcDbEntity
  8
0
100
AcDbBlockBegin
  2
BLOCK2
 70
     0
 10
0.0
 20
0.0
 30
0.0
  3
BLOCK2
  1

  0
LINE
  5
1CF
330
73
100
AcDbEntity
  8
0
 62
     7
370
    13
100
AcDbLine
 10
2.074211
 20
-21.896465
 30
0.0
 11
6.074211
 21
-19.587063
 31
0.0
  0
LINE
  5
1D0
330
73
100
AcDbEntity
  8
0
 62
     7
370
    13
100
AcDbLine
 10
2.074211
 20
-10.349459
 30
0.0
 11
6.074211
 21
-8.040058
 31
0.0
  0
LINE
  5
1D1
330
73
100
AcDbEntity
  8
0
 62
     7
370
    13
100
AcDbLine
 10
13.628414
 20
-3.678637
 30
0.0
 11
16.074211
 21
-2.266555
 31
0.0
  0
LINE
  5
1D2
330
73
100
AcDbEntity
  8
0
 62
     7
370
    13
100
AcDbLine
 10
-6.371585
 20
-3.678637
 30
0.0
 11
2.288669
 21
1.321363
 31
0.0
  0
ENDBLK
  5
75
330
73
100
AcDbEntity
  8
0
100
AcDbBlockEnd
  0
ENDSEC
  0
SECTION
  2
ENTITIES
  0
LINE
  5
1D3
330
1F
100
AcDbEntity
  8
0
  6
DASHDOT
 62
     7
370
    13
100
AcDbLine
 10
652.74945
 20
420.5
 30
0.0
 11
715.750053
 21
420.5
 31
0.0
  0
LINE
  5
1D4
330
1F
100
AcDbEntity
  8
0
  6
DASHDOT
 62
     7
370
    13
100
AcDbLine
 10
611.050048
 20
420.5
 30
0.0
 11
466.449447
 21
420.5
 31
0.0
  0
LINE
  5
1D5
330
1F
100
AcDbEntity
  8
0
  6
DASHDOT
 62
     7
 48
0.48
370
    13
100
AcDbLine
 10
492.900001
 20
498.150003
 30
0.0
 11
512.099998
 21
498.150003
 31
0.0
  0
LINE
  5
1D6
330
1F
100
AcDbEntity
  8
0
  6
DASHDOT
 62
     7
 48
0.48
370
    13
100
AcDbLine
 10
492.900001
 20
342.85
 30
0.0
 11
512.099998
 21
342.85
 31
0.0
  0
INSERT
  5
1D7
330
1F
100
AcDbEntity
  8
0
370
     0
100
AcDbBlockReference
  2
BLOCK1
 10
577.425788
 20
399.178637
 30
0.0
  0
INSERT
  5
1D8
330
1F
100
AcDbEntity
  8
0
370
     0
100
AcDbBlockReference
  2
BLOCK2
 10
577.425788
 20
399.178637
 30
0.0
  0
ENDSEC
  0
SECTION
  2
OBJECTS
  0
DICTIONARY
  5
C
330
0
100
AcDbDictionary
281
     1
  3
ACAD_GROUP
350
D
  3
ACAD_LAYOUT
350
1A
  3
ACAD_MLINESTYLE
350
17
  3
ACAD_PLOTSETTINGS
350
19
  3
ACAD_PLOTSTYLENAME
350
E
  3
ACAD_SCALELIST
350
47
  0
DICTIONARY
  5
D
102
{ACAD_REACTORS
330
C
102
}
330
C
100
AcDbDictionary
281
     1
  0
DICTIONARY
  5
1A
102
{ACAD_REACTORS
330
C
102
}
330
C
100
AcDbDictionary
281
     1
  3
Layout1
350
1E
  3
Layout2
350
26
  3
Model
350
22
  0
DICTIONARY
  5
17
102
{ACAD_REACTORS
330
C
102
}
330
C
100
AcDbDictionary
281
     1
  3
Standard
350
18
  0
DICTIONARY
  5
19
102
{ACAD_REACTORS
330
C
102
}
330
C
100
AcDbDictionary
281
     1
  0
ACDBDICTIONARYWDFLT
  5
E
102
{ACAD_REACTORS
330
C
102
}
330
C
100
AcDbDictionary
281
     1
  3
Normal
350
F
100
AcDbDictionaryWithDefault
340
F
  0
DICTIONARY
  5
47
102
{ACAD_REACTORS
330
C
102
}
330
C
100
AcDbDictionary
281
     1
  3
A0
350
48
  3
A1
350
49
  3
A2
350
4A
  3
A3
350
4B
  3
A4
350
4C
  3
A5
350
4D
  3
A6
350
4E
  3
A7
350
4F
  3
A8
350
50
  3
A9
350
51
  3
B0
350
52
  3
B1
350
53
  3
B2
350
54
  3
B3
350
55
  3
B4
350
56
  3
B5
350
57
  3
B6
350
58
  3
B7
350
59
  3
B8
350
5A
  3
B9
350
5B
  3
C0
350
5C
  3
C1
350
5D
  3
C2
350
5E
  3
C3
350
5F
  3
C4
350
60
  3
C5
350
61
  3
C6
350
62
  3
C7
350
63
  3
C8
350
64
  3
C9
350
65
  3
D0
350
66
  3
D1
350
67
  3
D2
350
68
  0
LAYOUT
  5
1E
102
{ACAD_REACTORS
330
1A
102
}
330
1A
100
AcDbPlotSettings
  1

  2
none_device
  4

  6

 40
0.0
 41
0.0
 42
0.0
 43
0.0
 44
0.0
 45
0.0
 46
0.0
 47
0.0
 48
0.0
 49
0.0
140
0.0
141
0.0
142
1.0
143
1.0
 70
  4784
 72
     0
 73
     0
 74
     5
  7

 75
    16
147
1.0
148
0.0
149
0.0
100
AcDbLayout
  1
Layout1
 70
     1
 71
     1
 10
0.0
 20
0.0
 11
420.0
 21
297.0
 12
0.0
 22
0.0
 32
0.0
 14
0.0
 24
0.0
 34
0.0
 15
138.324265
 25
98.971367
 35
2.0
146
0.0
 13
0.0
 23
0.0
 33
0.0
 16
1.0
 26
0.0
 36
0.0
 17
0.0
 27
1.0
 37
0.0
 76
     0
330
1B
  0
LAYOUT
  5
26
102
{ACAD_REACTORS
330
1A
102
}
330
1A
100
AcDbPlotSettings
  1

  2
none_device
  4

  6

 40
0.0
 41
0.0
 42
0.0
 43
0.0
 44
0.0
 45
0.0
 46
0.0
 47
0.0
 48
0.0
 49
0.0
140
0.0
141
0.0
142
1.0
143
1.0
 70
  4784
 72
     0
 73
     0
 74
     5
  7

 75
    16
147
1.0
148
0.0
149
0.0
100
AcDbLayout
  1
Layout2
 70
     1
 71
     2
 10
0.0
 20
0.0
 11
0.0
 21
0.0
 12
0.0
 22
0.0
 32
0.0
 14
0.0
 24
0.0
 34
0.0
 15
0.0
 25
0.0
 35
0.0
146
0.0
 13
0.0
 23
0.0
 33
0.0
 16
1.0
 26
0.0
 36
0.0
 17
0.0
 27
1.0
 37
0.0
 76
     0
330
23
  0
LAYOUT
  5
22
102
{ACAD_REACTORS
330
1A
102
}
330
1A
100
AcDbPlotSettings
  1

  2
none_device
  4
Letter_(8.50_x_11.00_Inches)
  6

 40
6.35
 41
6.35
 42
6.350005
 43
6.350005
 44
215.9
 45
279.4
 46
0.0
 47
0.0
 48
0.0
 49
0.0
140
0.0
141
0.0
142
1.0
143
1.0
 70
  5808
 72
     0
 73
     0
 74
     0
  7

 75
     0
147
1.0
148
0.0
149
0.0
100
AcDbLayout
  1
Model
 70
     1
 71
     0
 10
0.0
 20
0.0
 11
420.0
 21
297.0
 12
0.0
 22
0.0
 32
0.0
 14
0.0
 24
0.0
 34
0.0
 15
138.324265
 25
98.971367
 35
2.0
146
0.0
 13
0.0
 23
0.0
 33
0.0
 16
1.0
 26
0.0
 36
0.0
 17
0.0
 27
1.0
 37
0.0
 76
     0
330
1F
331
29
  0
MLINESTYLE
  5
18
102
{ACAD_REACTORS
330
17
102
}
330
17
100
AcDbMlineStyle
  2
Standard
 70
     0
  3

 62
   256
 51
90.0
 52
90.0
 71
     2
 49
0.5
 62
   256
  6
BYLAYER
 49
-0.5
 62
   256
  6
BYLAYER
  0
ACDBPLACEHOLDER
  5
F
102
{ACAD_REACTORS
330
E
102
}
330
E
  0
SCALE
  5
48
102
{ACAD_REACTORS
330
47
102
}
330
47
100
AcDbScale
 70
     0
300
1:1
140
1.0
141
1.0
290
     1
  0
SCALE
  5
49
102
{ACAD_REACTORS
330
47
102
}
330
47
100
AcDbScale
 70
     0
300
1:2
140
1.0
141
2.0
290
     0
  0
SCALE
  5
4A
102
{ACAD_REACTORS
330
47
102
}
330
47
100
AcDbScale
 70
     0
300
1:4
140
1.0
141
4.0
290
     0
  0
SCALE
  5
4B
102
{ACAD_REACTORS
330
47
102
}
330
47
100
AcDbScale
 70
     0
300
1:5
140
1.0
141
5.0
290
     0
  0
SCALE
  5
4C
102
{ACAD_REACTORS
330
47
102
}
330
47
100
AcDbScale
 70
     0
300
1:8
140
1.0
141
8.0
290
     0
  0
SCALE
  5
4D
102
{ACAD_REACTORS
330
47
102
}
330
47
100
AcDbScale
 70
     0
300
1:10
140
1.0
141
10.0
290
     0
  0
SCALE
  5
4E
102
{ACAD_REACTORS
330
47
102
}
330
47
100
AcDbScale
 70
     0
300
1:16
140
1.0
141
16.0
290
     0
  0
SCALE
  5
4F
102
{ACAD_REACTORS
330
47
102
}
330
47
100
AcDbScale
 70
     0
300
1:20
140
1.0
141
20.0
290
     0
  0
SCALE
  5
50
102
{ACAD_REACTORS
330
47
102
}
330
47
100
AcDbScale
 70
     0
300
1:30
140
1.0
141
30.0
290
     0
  0
SCALE
  5
51
102
{ACAD_REACTORS
330
47
102
}
330
47
100
AcDbScale
 70
     0
300
1:40
140
1.0
141
40.0
290
     0
  0
SCALE
  5
52
102
{ACAD_REACTORS
330
47
102
}
330
47
100
AcDbScale
 70
     0
300
1:50
140
1.0
141
50.0
290
     0
  0
SCALE
  5
53
102
{ACAD_REACTORS
330
47
102
}
330
47
100
AcDbScale
 70
     0
300
1:100
140
1.0
141
100.0
290
     0
  0
SCALE
  5
54
102
{ACAD_REACTORS
330
47
102
}
330
47
100
AcDbScale
 70
     0
300
2:1
140
2.0
141
1.0
290
     0
  0
SCALE
  5
55
102
{ACAD_REACTORS
330
47
102
}
330
47
100
AcDbScale
 70
     0
300
4:1
140
4.0
141
1.0
290
     0
  0
SCALE
  5
56
102
{ACAD_REACTORS
330
47
102
}
330
47
100
AcDbScale
 70
     0
300
8:1
140
8.0
141
1.0
290
     0
  0
SCALE
  5
57
102
{ACAD_REACTORS
330
47
102
}
330
47
100
AcDbScale
 70
     0
300
10:1
140
10.0
141
1.0
290
     0
  0
SCALE
  5
58
102
{ACAD_REACTORS
330
47
102
}
330
47
100
AcDbScale
 70
     0
300
100:1
140
100.0
141
1.0
290
     0
  0
SCALE
  5
59
102
{ACAD_REACTORS
330
47
102
}
330
47
100
AcDbScale
 70
     0
300
1/128" = 1'-0"
140
0.007812
141
12.0
290
     0
  0
SCALE
  5
5A
102
{ACAD_REACTORS
330
47
102
}
330
47
100
AcDbScale
 70
     0
300
1/64" = 1'-0"
140
0.015625
141
12.0
290
     0
  0
SCALE
  5
5B
102
{ACAD_REACTORS
330
47
102
}
330
47
100
AcDbScale
 70
     0
300
1/32" = 1'-0"
140
0.03125
141
12.0
290
     0
  0
SCALE
  5
5C
102
{ACAD_REACTORS
330
47
102
}
330
47
100
AcDbScale
 70
     0
300
1/16" = 1'-0"
140
0.0625
141
12.0
290
     0
  0
SCALE
  5
5D
102
{ACAD_REACTORS
330
47
102
}
330
47
100
AcDbScale
 70
     0
300
3/32" = 1'-0"
140
0.09375
141
12.0
290
     0
  0
SCALE
  5
5E
102
{ACAD_REACTORS
330
47
102
}
330
47
100
AcDbScale
 70
     0
300
1/8" = 1'-0"
140
0.125
141
12.0
290
     0
  0
SCALE
  5
5F
102
{ACAD_REACTORS
330
47
102
}
330
47
100
AcDbScale
 70
     0
300
3/16" = 1'-0"
140
0.1875
141
12.0
290
     0
  0
SCALE
  5
60
102
{ACAD_REACTORS
330
47
102
}
330
47
100
AcDbScale
 70
     0
300
1/4" = 1'-0"
140
0.25
141
12.0
290
     0
  0
SCALE
  5
61
102
{ACAD_REACTORS
330
47
102
}
330
47
100
AcDbScale
 70
     0
300
3/8" = 1'-0"
140
0.375
141
12.0
290
     0
  0
SCALE
  5
62
102
{ACAD_REACTORS
330
47
102
}
330
47
100
AcDbScale
 70
     0
300
1/2" = 1'-0"
140
0.5
141
12.0
290
     0
  0
SCALE
  5
63
102
{ACAD_REACTORS
330
47
102
}
330
47
100
AcDbScale
 70
     0
300
3/4" = 1'-0"
140
0.75
141
12.0
290
     0
  0
SCALE
  5
64
102
{ACAD_REACTORS
330
47
102
}
330
47
100
AcDbScale
 70
     0
300
1" = 1'-0"
140
1.0
141
12.0
290
     0
  0
SCALE
  5
65
102
{ACAD_REACTORS
330
47
102
}
330
47
100
AcDbScale
 70
     0
300
1-1/2" = 1'-0"
140
1.5
141
12.0
290
     0
  0
SCALE
  5
66
102
{ACAD_REACTORS
330
47
102
}
330
47
100
AcDbScale
 70
     0
300
3" = 1'-0"
140
3.0
141
12.0
290
     0
  0
SCALE
  5
67
102
{ACAD_REACTORS
330
47
102
}
330
47
100
AcDbScale
 70
     0
300
6" = 1'-0"
140
6.0
141
12.0
290
     0
  0
SCALE
  5
68
102
{ACAD_REACTORS
330
47
102
}
330
47
100
AcDbScale
 70
     0
300
1'-0" = 1'-0"
140
12.0
141
12.0
290
     0
  0
ENDSEC
  0
EOF
