  0
SECTION
  2
HEADER
  9
$ACADVER
  1
AC1015
  9
$ACADMAINTVER
 70
     6
  9
$DWGCODEPAGE
  3
ANSI_1252
  9
$INSBASE
 10
0.0
 20
0.0
 30
0.0
  9
$EXTMIN
 10
0.0
 20
0.0
 30
0.0
  9
$EXTMAX
 10
87.250053
 20
5.2
 30
2.0
  9
$LIMMIN
 10
0.0
 20
0.0
  9
$LIMMAX
 10
420.0
 20
297.0
  9
$ORTHOMODE
 70
     0
  9
$REGENMODE
 70
     1
  9
$FILLMODE
 70
     1
  9
$QTEXTMODE
 70
     0
  9
$MIRRTEXT
 70
     1
  9
$LTSCALE
 40
1.0
  9
$ATTMODE
 70
     1
  9
$TEXTSIZE
 40
2.5
  9
$TRACEWID
 40
1.0
  9
$TEXTSTYLE
  7
Standard
  9
$CLAYER
  8
0
  9
$CELTYPE
  6
ByLayer
  9
$CECOLOR
 62
   256
  9
$CELTSCALE
 40
1.0
  9
$DISPSILH
 70
     0
  9
$DIMSCALE
 40
1.0
  9
$DIMASZ
 40
2.5
  9
$DIMEXO
 40
0.625
  9
$DIMDLI
 40
3.75
  9
$DIMRND
 40
0.0
  9
$DIMDLE
 40
0.0
  9
$DIMEXE
 40
1.25
  9
$DIMTP
 40
0.0
  9
$DIMTM
 40
0.0
  9
$DIMTXT
 40
2.5
  9
$DIMCEN
 40
2.5
  9
$DIMTSZ
 40
0.0
  9
$DIMTOL
 70
     0
  9
$DIMLIM
 70
     0
  9
$DIMTIH
 70
     0
  9
$DIMTOH
 70
     0
  9
$DIMSE1
 70
     0
  9
$DIMSE2
 70
     0
  9
$DIMTAD
 70
     1
  9
$DIMZIN
 70
     8
  9
$DIMBLK
  1

  9
$DIMASO
 70
     1
  9
$DIMSHO
 70
     1
  9
$DIMPOST
  1

  9
$DIMAPOST
  1

  9
$DIMALT
 70
     0
  9
$DIMALTD
 70
     3
  9
$DIMALTF
 40
0.03937
  9
$DIMLFAC
 40
1.0
  9
$DIMTOFL
 70
     1
  9
$DIMTVP
 40
0.0
  9
$DIMTIX
 70
     0
  9
$DIMSOXD
 70
     0
  9
$DIMSAH
 70
     0
  9
$DIMBLK1
  1

  9
$DIMBLK2
  1

  9
$DIMSTYLE
  2
STANDARD
  9
$DIMCLRD
 70
     0
  9
$DIMCLRE
 70
     0
  9
$DIMCLRT
 70
     0
  9
$DIMTFAC
 40
1.0
  9
$DIMGAP
 40
0.625
  9
$DIMJUST
 70
     0
  9
$DIMSD1
 70
     0
  9
$DIMSD2
 70
     0
  9
$DIMTOLJ
 70
     0
  9
$DIMTZIN
 70
     8
  9
$DIMALTZ
 70
     0
  9
$DIMALTTZ
 70
     0
  9
$DIMUPT
 70
     0
  9
$DIMDEC
 70
     2
  9
$DIMTDEC
 70
     2
  9
$DIMALTU
 70
     2
  9
$DIMALTTD
 70
     3
  9
$DIMTXSTY
  7
Standard
  9
$DIMAUNIT
 70
     0
  9
$DIMADEC
 70
     0
  9
$DIMALTRND
 40
0.0
  9
$DIMAZIN
 70
     0
  9
$DIMDSEP
 70
    44
  9
$DIMATFIT
 70
     0
  9
$DIMFRAC
 70
     0
  9
$DIMLDRBLK
  1

  9
$DIMLUNIT
 70
     2
  9
$DIMLWD
 70
    -2
  9
$DIMLWE
 70
    -2
  9
$DIMTMOVE
 70
     0
  9
$LUNITS
 70
     2
  9
$LUPREC
 70
     4
  9
$SKETCHINC
 40
1.0
  9
$FILLETRAD
 40
2.5
  9
$AUNITS
 70
     0
  9
$AUPREC
 70
     0
  9
$MENU
  1
.
  9
$ELEVATION
 40
0.0
  9
$PELEVATION
 40
0.0
  9
$THICKNESS
 40
0.0
  9
$LIMCHECK
 70
     0
  9
$CHAMFERA
 40
2.5
  9
$CHAMFERB
 40
2.5
  9
$CHAMFERC
 40
0.0
  9
$CHAMFERD
 40
0.0
  9
$SKPOLY
 70
     0
  9
$TDCREATE
 40
2447893.333333333
  9
$TDUCREATE
 40
0.0
  9
$TDUPDATE
 40
2459908.597140232
  9
$TDUUPDATE
 40
2459908.263806898
  9
$TDINDWG
 40
0.0
  9
$TDUSRTIMER
 40
0.0
  9
$USRTIMER
 70
     1
  9
$ANGBASE
 50
0.0
  9
$ANGDIR
 70
     0
  9
$PDMODE
 70
     0
  9
$PDSIZE
 40
0.0
  9
$PLINEWID
 40
0.0
  9
$SPLFRAME
 70
     0
  9
$SPLINETYPE
 70
     6
  9
$SPLINESEGS
 70
     8
  9
$HANDSEED
  5
24C
  9
$SURFTAB1
 70
     6
  9
$SURFTAB2
 70
     6
  9
$SURFTYPE
 70
     6
  9
$SURFU
 70
     6
  9
$SURFV
 70
     6
  9
$UCSBASE
  2

  9
$UCSNAME
  2

  9
$UCSORG
 10
0.0
 20
0.0
 30
0.0
  9
$UCSXDIR
 10
1.0
 20
0.0
 30
0.0
  9
$UCSYDIR
 10
0.0
 20
1.0
 30
0.0
  9
$UCSORTHOREF
  2

  9
$UCSORTHOVIEW
 70
     1
  9
$UCSORGTOP
 10
0.0
 20
0.0
 30
0.0
  9
$UCSORGBOTTOM
 10
0.0
 20
0.0
 30
0.0
  9
$UCSORGLEFT
 10
0.0
 20
0.0
 30
0.0
  9
$UCSORGRIGHT
 10
0.0
 20
0.0
 30
0.0
  9
$UCSORGFRONT
 10
0.0
 20
0.0
 30
0.0
  9
$UCSORGBACK
 10
0.0
 20
0.0
 30
0.0
  9
$PUCSBASE
  2

  9
$PUCSNAME
  2

  9
$PUCSORG
 10
0.0
 20
0.0
 30
0.0
  9
$PUCSXDIR
 10
1.0
 20
0.0
 30
0.0
  9
$PUCSYDIR
 10
0.0
 20
1.0
 30
0.0
  9
$PUCSORTHOREF
  2

  9
$PUCSORTHOVIEW
 70
     0
  9
$PUCSORGTOP
 10
0.0
 20
0.0
 30
0.0
  9
$PUCSORGBOTTOM
 10
0.0
 20
0.0
 30
0.0
  9
$PUCSORGLEFT
 10
0.0
 20
0.0
 30
0.0
  9
$PUCSORGRIGHT
 10
0.0
 20
0.0
 30
0.0
  9
$PUCSORGFRONT
 10
0.0
 20
0.0
 30
0.0
  9
$PUCSORGBACK
 10
0.0
 20
0.0
 30
0.0
  9
$USERI1
 70
     0
  9
$USERI2
 70
     0
  9
$USERI3
 70
     0
  9
$USERI4
 70
     0
  9
$USERI5
 70
     0
  9
$USERR1
 40
0.0
  9
$USERR2
 40
0.0
  9
$USERR3
 40
0.0
  9
$USERR4
 40
0.0
  9
$USERR5
 40
0.0
  9
$WORLDVIEW
 70
     1
  9
$SHADEDGE
 70
     3
  9
$SHADEDIF
 70
    70
  9
$TILEMODE
 70
     1
  9
$MAXACTVP
 70
    64
  9
$PINSBASE
 10
0.0
 20
0.0
 30
0.0
  9
$PLIMCHECK
 70
     0
  9
$PEXTMIN
 10
0.0
 20
0.0
 30
0.0
  9
$PEXTMAX
 10
87.250053
 20
5.2
 30
2.0
  9
$PLIMMIN
 10
0.0
 20
0.0
  9
$PLIMMAX
 10
420.0
 20
297.0
  9
$UNITMODE
 70
     0
  9
$VISRETAIN
 70
     0
  9
$PLINEGEN
 70
     0
  9
$PSLTSCALE
 70
     1
  9
$TREEDEPTH
 70
  3020
  9
$CMLSTYLE
  2
Standard
  9
$CMLJUST
 70
     0
  9
$CMLSCALE
 40
20.0
  9
$PROXYGRAPHICS
 70
     1
  9
$MEASUREMENT
 70
     1
  9
$CELWEIGHT
370
    -1
  9
$ENDCAPS
280
     0
  9
$JOINSTYLE
280
     0
  9
$LWDISPLAY
290
     0
  9
$INSUNITS
 70
     0
  9
$HYPERLINKBASE
  1

  9
$STYLESHEET
  1

  9
$XEDIT
290
     1
  9
$CEPSNTYPE
380
     0
  9
$PSTYLEMODE
290
     0
  9
$FINGERPRINTGUID
  2
{FBFF93E7-5264-499A-918C-68F05E6DE1B0}
  9
$VERSIONGUID
  2
{FAEB1C32-E019-11D5-929B-00C0DF256EC4}
  9
$EXTNAMES
290
     1
  9
$PSVPSCALE
 40
0.0
  9
$OLESTARTUP
290
     0
  0
ENDSEC
  0
SECTION
  2
CLASSES
  0
CLASS
  1
ACDBDICTIONARYWDFLT
  2
AcDbDictionaryWithDefault
  3
ObjectDBX Classes
 90
        0
280
     0
281
     0
  0
CLASS
  1
VISUALSTYLE
  2
AcDbVisualStyle
  3
ObjectDBX Classes
 90
     4095
280
     0
281
     0
  0
CLASS
  1
MATERIAL
  2
AcDbMaterial
  3
ObjectDBX Classes
 90
     1153
280
     0
281
     0
  0
CLASS
  1
SCALE
  2
AcDbScale
  3
ObjectDBX Classes
 90
     1153
280
     0
281
     0
  0
CLASS
  1
TABLESTYLE
  2
AcDbTableStyle
  3
ObjectDBX Classes
 90
     4095
280
     0
281
     0
  0
CLASS
  1
MLEADERSTYLE
  2
AcDbMLeaderStyle
  3
ACDB_MLEADERSTYLE_CLASS
 90
     4095
280
     0
281
     0
  0
CLASS
  1
SUN
  2
AcDbSun
  3
SCENEOE
 90
     1153
280
     0
281
     0
  0
CLASS
  1
ACDBPLACEHOLDER
  2
AcDbPlaceHolder
  3
ObjectDBX Classes
 90
        0
280
     0
281
     0
  0
CLASS
  1
LAYOUT
  2
AcDbLayout
  3
ObjectDBX Classes
 90
        0
280
     0
281
     0
  0
ENDSEC
  0
SECTION
  2
TABLES
  0
TABLE
  2
VPORT
  5
8
330
0
100
AcDbSymbolTable
 70
     1
  0
VPORT
  5
29
330
8
100
AcDbSymbolTableRecord
100
AcDbViewportTableRecord
  2
*Active
 70
     0
 10
0.0
 20
0.0
 11
1.0
 21
1.0
 12
10.429907
 22
4.5
 13
0.0
 23
0.0
 14
0.5
 24
0.5
 15
0.5
 25
0.5
 16
0.0
 26
0.0
 36
1.0
 17
0.0
 27
0.0
 37
0.0
 40
9.0
 41
1.972973
 42
50.0
 43
0.0
 44
0.0
 50
0.0
 51
0.0
 71
     0
 72
   100
 73
     1
 74
     3
 75
     0
 76
     0
 77
     0
 78
     0
281
     0
 65
     1
110
0.0
120
0.0
130
0.0
111
1.0
121
0.0
131
0.0
112
0.0
122
1.0
132
0.0
 79
     0
146
0.0
  0
ENDTAB
  0
TABLE
  2
LTYPE
  5
5
330
0
100
AcDbSymbolTable
 70
     2
  0
LTYPE
  5
14
330
5
100
AcDbSymbolTableRecord
100
AcDbLinetypeTableRecord
  2
ByBlock
 70
     0
  3

 72
    65
 73
     0
 40
0.0
  0
LTYPE
  5
15
330
5
100
AcDbSymbolTableRecord
100
AcDbLinetypeTableRecord
  2
ByLayer
 70
     0
  3

 72
    65
 73
     0
 40
0.0
  0
LTYPE
  5
16
330
5
100
AcDbSymbolTableRecord
100
AcDbLinetypeTableRecord
  2
Continuous
 70
     0
  3
Solid line
 72
    65
 73
     0
 40
0.0
  0
LTYPE
  5
6F
330
5
100
AcDbSymbolTableRecord
100
AcDbLinetypeTableRecord
  2
DASHDOT
 70
     0
  3
 __ . __ . __ . __ . __ . __ . __ . 
 72
    65
 73
     4
 40
18.5
 49
12.0
 74
     0
 49
-3.0
 74
     0
 49
0.5
 74
     0
 49
-3.0
 74
     0
  0
ENDTAB
  0
TABLE
  2
LAYER
  5
2
330
0
100
AcDbSymbolTable
 70
     1
  0
LAYER
  5
10
330
2
100
AcDbSymbolTableRecord
100
AcDbLayerTableRecord
  2
0
 70
     0
 62
     7
  6
Continuous
370
    13
390
F
  0
ENDTAB
  0
TABLE
  2
STYLE
  5
3
330
0
100
AcDbSymbolTable
 70
     2
  0
STYLE
  5
11
330
3
100
AcDbSymbolTableRecord
100
AcDbTextStyleTableRecord
  2
Standard
 70
     0
 40
0.0
 41
1.0
 50
0.0
 71
     0
 42
2.5
  3
isocp.shx
  4

  0
STYLE
  5
6E
330
3
100
AcDbSymbolTableRecord
100
AcDbTextStyleTableRecord
  2
GDT
 70
     0
 40
0.0
 41
1.0
 50
0.0
 71
     0
 42
0.2
  3
gdt.shx
  4

  0
ENDTAB
  0
TABLE
  2
VIEW
  5
6
330
0
100
AcDbSymbolTable
 70
     0
  0
ENDTAB
  0
TABLE
  2
UCS
  5
7
330
0
100
AcDbSymbolTable
 70
     0
  0
ENDTAB
  0
TABLE
  2
APPID
  5
9
330
0
100
AcDbSymbolTable
 70
     1
  0
APPID
  5
12
330
9
100
AcDbSymbolTableRecord
100
AcDbRegAppTableRecord
  2
ACAD
 70
     0
  0
ENDTAB
  0
TABLE
  2
DIMSTYLE
  5
A
330
0
100
AcDbSymbolTable
 70
     1
100
AcDbDimStyleTable
  0
DIMSTYLE
105
27
330
A
100
AcDbSymbolTableRecord
100
AcDbDimStyleTableRecord
  2
STANDARD
 70
     0
 41
2.5
 42
0.625
 43
3.75
 44
1.25
 73
     0
 74
     0
 77
     1
 78
     8
140
2.5
141
2.5
143
0.03937
147
0.625
171
     3
172
     1
178
     0
271
     2
272
     2
274
     3
278
    44
283
     0
284
     8
289
     0
340
0
  0
ENDTAB
  0
TABLE
  2
BLOCK_RECORD
  5
1
330
0
100
AcDbSymbolTable
 70
     4
  0
BLOCK_RECORD
  5
1F
330
1
100
AcDbSymbolTableRecord
100
AcDbBlockTableRecord
  2
*Model_Space
340
22
  0
BLOCK_RECORD
  5
1B
330
1
100
AcDbSymbolTableRecord
100
AcDbBlockTableRecord
  2
*Paper_Space
340
1E
  0
BLOCK_RECORD
  5
23
330
1
100
AcDbSymbolTableRecord
100
AcDbBlockTableRecord
  2
*Paper_Space0
340
26
  0
BLOCK_RECORD
  5
70
330
1
100
AcDbSymbolTableRecord
100
AcDbBlockTableRecord
  2
BLOCK3
340
0
102
{BLKREFS
331
249
102
}
  0
BLOCK_RECORD
  5
73
330
1
100
AcDbSymbolTableRecord
100
AcDbBlockTableRecord
  2
BLOCK4
340
0
102
{BLKREFS
331
24A
102
}
  0
BLOCK_RECORD
  5
76
330
1
100
AcDbSymbolTableRecord
100
AcDbBlockTableRecord
  2
BLOCK5
340
0
102
{BLKREFS
331
24B
102
}
  0
ENDTAB
  0
ENDSEC
  0
SECTION
  2
BLOCKS
  0
BLOCK
  5
20
330
1F
100
AcDbEntity
  8
0
100
AcDbBlockBegin
  2
*Model_Space
 70
     0
 10
0.0
 20
0.0
 30
0.0
  3
*Model_Space
  1

  0
ENDBLK
  5
21
330
1F
100
AcDbEntity
  8
0
100
AcDbBlockEnd
  0
BLOCK
  5
1C
330
1B
100
AcDbEntity
 67
     1
  8
0
100
AcDbBlockBegin
  2
*Paper_Space
 70
     0
 10
0.0
 20
0.0
 30
0.0
  3
*Paper_Space
  1

  0
ENDBLK
  5
1D
330
1B
100
AcDbEntity
 67
     1
  8
0
100
AcDbBlockEnd
  0
BLOCK
  5
24
330
23
100
AcDbEntity
  8
0
100
AcDbBlockBegin
  2
*Paper_Space0
 70
     0
 10
0.0
 20
0.0
 30
0.0
  3
*Paper_Space0
  1

  0
ENDBLK
  5
25
330
23
100
AcDbEntity
  8
0
100
AcDbBlockEnd
  0
BLOCK
  5
71
330
70
100
AcDbEntity
  8
0
100
AcDbBlockBegin
  2
BLOCK3
 70
     0
 10
0.0
 20
0.0
 30
0.0
  3
BLOCK3
  1

  0
LINE
  5
79
330
70
100
AcDbEntity
  8
0
  6
DASHDOT
 62
     7
 48
0.26
370
    13
100
AcDbLine
 10
-103.800003
 20
0.0
 30
0.0
 11
-114.199997
 21
0.0
 31
0.0
  0
LINE
  5
7A
330
70
100
AcDbEntity
  8
0
  6
DASHDOT
 62
     7
 48
0.26
370
    13
100
AcDbLine
 10
-109.0
 20
5.2
 30
0.0
 11
-109.0
 21
-5.2
 31
0.0
  0
ENDBLK
  5
72
330
70
100
AcDbEntity
  8
0
100
AcDbBlockEnd
  0
BLOCK
  5
74
330
73
100
AcDbEntity
  8
0
100
AcDbBlockBegin
  2
BLOCK4
 70
     0
 10
0.0
 20
0.0
 30
0.0
  3
BLOCK4
  1

  0
LINE
  5
7B
330
73
100
AcDbEntity
  8
0
  6
DASHDOT
 62
     7
 48
0.26
370
    13
100
AcDbLine
 10
-135.800003
 20
0.0
 30
0.0
 11
-146.199997
 21
0.0
 31
0.0
  0
LINE
  5
7C
330
73
100
AcDbEntity
  8
0
  6
DASHDOT
 62
     7
 48
0.26
370
    13
100
AcDbLine
 10
-141.0
 20
5.2
 30
0.0
 11
-141.0
 21
-5.2
 31
0.0
  0
ENDBLK
  5
75
330
73
100
AcDbEntity
  8
0
100
AcDbBlockEnd
  0
BLOCK
  5
77
330
76
100
AcDbEntity
  8
0
100
AcDbBlockBegin
  2
BLOCK5
 70
     0
 10
0.0
 20
0.0
 30
0.0
  3
BLOCK5
  1

  0
LINE
  5
7D
330
76
100
AcDbEntity
  8
0
 62
     7
370
    35
100
AcDbLine
 10
-36.0
 20
-20.0
 30
0.0
 11
-82.0
 21
-20.0
 31
0.0
  0
LINE
  5
7E
330
76
100
AcDbEntity
  8
0
 62
     7
370
    35
100
AcDbLine
 10
-36.0
 20
20.0
 30
0.0
 11
-82.0
 21
20.0
 31
0.0
  0
ARC
  5
7F
330
76
100
AcDbEntity
  8
0
 62
     7
370
    35
100
AcDbCircle
 10
-36.0
 20
-21.0
 30
0.0
 40
1.0
100
AcDbArc
 50
0.0
 51
90.0
  0
ARC
  5
80
330
76
100
AcDbEntity
  8
0
 62
     7
370
    35
100
AcDbCircle
 10
-36.0
 20
21.0
 30
0.0
 40
1.0
100
AcDbArc
 50
270.0
 51
0.0
  0
LINE
  5
81
330
76
100
AcDbEntity
  8
0
 62
     7
370
    35
100
AcDbLine
 10
-82.0
 20
20.0
 30
0.0
 11
-82.0
 21
-20.0
 31
0.0
  0
LINE
  5
82
330
76
100
AcDbEntity
  8
0
 62
     7
370
    13
100
AcDbLine
 10
-36.0
 20
-20.0
 30
0.0
 11
-36.0
 21
20.0
 31
0.0
  0
LINE
  5
83
330
76
100
AcDbEntity
  8
0
 62
     7
370
    35
100
AcDbLine
 10
29.5
 20
-13.162564
 30
0.0
 11
29.5
 21
-13.083791
 31
0.0
  0
LINE
  5
84
330
76
100
AcDbEntity
  8
0
 62
     7
370
    13
100
AcDbLine
 10
29.5
 20
-13.083791
 30
0.0
 11
29.107874
 21
-13.003252
 31
0.0
  0
SPLINE
  5
85
330
76
100
AcDbEntity
  8
0
 62
     7
370
    13
100
AcDbSpline
210
0.0
220
0.0
230
1.0
 70
     8
 71
     5
 72
    12
 73
     6
 74
     0
 42
0.000000001
 43
0.0
 40
0.0
 40
0.0
 40
0.0
 40
0.0
 40
0.0
 40
0.0
 40
79.78202645437369
 40
79.78202645437369
 40
79.78202645437369
 40
79.78202645437369
 40
79.78202645437369
 40
79.78202645437369
 10
25.29404406817683
 20
-12.21050250595565
 30
0.0
 10
14.28900397096549
 20
-9.898927449413764
 30
0.0
 10
3.300921207287776
 20
-7.42132782454802
 30
0.0
 10
-7.561543329469242
 20
-4.859662776168574
 30
0.0
 10
-18.53043762612305
 20
-2.218144244200543
 30
0.0
 10
-29.49999999626851
 20
0.4177855098780885
 30
0.0
  0
LINE
  5
86
330
76
100
AcDbEntity
  8
0
 62
     7
370
    35
100
AcDbLine
 10
-29.5
 20
0.417785
 30
0.0
 11
-29.5
 21
0.325415
 31
0.0
  0
LINE
  5
87
330
76
100
AcDbEntity
  8
0
 62
     7
370
    35
100
AcDbLine
 10
29.5
 20
-13.241159
 30
0.0
 11
29.5
 21
-13.162564
 31
0.0
  0
LINE
  5
88
330
76
100
AcDbEntity
  8
0
 62
     7
370
    35
100
AcDbLine
 10
-29.5
 20
0.325415
 30
0.0
 11
-29.5
 21
0.233039
 31
0.0
  0
SPLINE
  5
89
330
76
100
AcDbEntity
  8
0
 62
     7
370
    13
100
AcDbSpline
210
0.0
220
0.0
230
1.0
 70
     8
 71
     5
 72
    12
 73
     6
 74
     0
 42
0.000000001
 43
0.0
 40
0.0
 40
0.0
 40
0.0
 40
0.0
 40
0.0
 40
0.0
 40
86.00706206046753
 40
86.00706206046753
 40
86.00706206046753
 40
86.00706206046753
 40
86.00706206046753
 40
86.00706206046753
 10
29.49999999627828
 20
-13.24115866031809
 30
0.0
 10
17.64492326785372
 20
-10.81999713145046
 30
0.0
 10
5.810654795218577
 20
-8.188765286877388
 30
0.0
 10
-5.880106559198091
 20
-5.446937438641301
 30
0.0
 10
-17.68983513227457
 20
-2.605153497869336
 30
0.0
 10
-29.49999999626849
 20
0.2330393164727225
 30
0.0
  0
SPLINE
  5
8A
330
76
100
AcDbEntity
  8
0
 62
     7
370
    13
100
AcDbSpline
210
0.0
220
0.0
230
1.0
 70
     8
 71
     5
 72
    12
 73
     6
 74
     0
 42
0.000000001
 43
0.0
 40
0.0
 40
0.0
 40
0.0
 40
0.0
 40
0.0
 40
0.0
 40
52.2753537646753
 40
52.2753537646753
 40
52.2753537646753
 40
52.2753537646753
 40
52.2753537646753
 40
52.2753537646753
 10
6.532266021525585
 20
-12.21085564794118
 30
0.0
 10
-0.67855829856593
 20
-10.69654541476346
 30
0.0
 10
-7.882131080925923
 20
-9.111181396931526
 30
0.0
 10
-15.11706464438704
 20
-7.460345600881038
 30
0.0
 10
-22.30989050169604
 20
-5.778863619456855
 30
0.0
 10
-29.49999999626848
 20
-4.07374897934062
 30
0.0
  0
LINE
  5
8B
330
76
100
AcDbEntity
  8
0
 62
     7
370
    35
100
AcDbLine
 10
-29.5
 20
-4.073749
 30
0.0
 11
-29.5
 21
-4.164879
 31
0.0
  0
LINE
  5
8C
330
76
100
AcDbEntity
  8
0
 62
     7
370
    35
100
AcDbLine
 10
-29.5
 20
-4.164879
 30
0.0
 11
-29.5
 21
-4.255954
 31
0.0
  0
SPLINE
  5
8D
330
76
100
AcDbEntity
  8
0
 62
     7
370
    13
100
AcDbSpline
210
0.0
220
0.0
230
1.0
 70
     8
 71
     5
 72
    12
 73
     6
 74
     0
 42
0.000000001
 43
0.0
 40
0.0
 40
0.0
 40
0.0
 40
0.0
 40
0.0
 40
0.0
 40
58.75632365968196
 40
58.75632365968196
 40
58.75632365968196
 40
58.75632365968196
 40
58.75632365968196
 40
58.75632365968196
 10
10.96907062341411
 20
-13.28849821710303
 30
0.0
 10
2.859421021644707
 20
-11.63461571384356
 30
0.0
 10
-5.240543552138614
 20
-9.883024663310039
 30
0.0
 10
-13.33284441878691
 20
-8.053169778480786
 30
0.0
 10
-21.41821291344393
 20
-6.170158732986868
 30
0.0
 10
-29.49999998937155
 20
-4.255953590230379
 30
0.0
  0
ARC
  5
8E
330
76
100
AcDbEntity
  8
0
 62
     7
370
    13
100
AcDbCircle
 10
221.153853
 20
1096.055619
 30
0.0
 40
1132.574210216485
100
AcDbArc
 50
257.213818
 51
258.107996
  0
LINE
  5
8F
330
76
100
AcDbEntity
  8
0
 62
     7
370
    35
100
AcDbLine
 10
-29.5
 20
-8.43435
 30
0.0
 11
-29.5
 21
-8.521311
 31
0.0
  0
LINE
  5
90
330
76
100
AcDbEntity
  8
0
 62
     7
370
    35
100
AcDbLine
 10
-29.5
 20
-8.521311
 30
0.0
 11
-29.5
 21
-8.608157
 31
0.0
  0
ARC
  5
91
330
76
100
AcDbEntity
  8
0
 62
     7
370
    13
100
AcDbCircle
 10
205.738414
 20
1029.191806
 30
0.0
 40
1064.125837260367
100
AcDbArc
 50
257.22856
 51
258.42426
  0
LINE
  5
92
330
76
100
AcDbEntity
  8
0
 62
     7
370
    13
100
AcDbLine
 10
-28.862009
 20
-12.656542
 30
0.0
 11
-29.5
 21
-12.523864
 31
0.0
  0
LINE
  5
93
330
76
100
AcDbEntity
  8
0
 62
     7
370
    35
100
AcDbLine
 10
-29.5
 20
-12.523864
 30
0.0
 11
-29.5
 21
-12.60386
 31
0.0
  0
LINE
  5
94
330
76
100
AcDbEntity
  8
0
 62
     7
370
    35
100
AcDbLine
 10
-29.5
 20
-12.60386
 30
0.0
 11
-29.5
 21
-12.683686
 31
0.0
  0
ARC
  5
95
330
76
100
AcDbEntity
  8
0
 62
     7
370
    13
100
AcDbCircle
 10
151.461109
 20
859.58828
 30
0.0
 40
890.8452745056961
100
AcDbArc
 50
258.279704
 51
258.473127
  0
LINE
  5
96
330
76
100
AcDbEntity
  8
0
 62
     7
370
    35
100
AcDbLine
 10
29.5
 20
12.60386
 30
0.0
 11
29.5
 21
12.683686
 31
0.0
  0
ARC
  5
97
330
76
100
AcDbEntity
  8
0
 62
     7
370
    13
100
AcDbCircle
 10
-151.461109
 20
-859.58828
 30
0.0
 40
890.8452744300628
100
AcDbArc
 50
78.279704
 51
78.473127
  0
LINE
  5
98
330
76
100
AcDbEntity
  8
0
 62
     7
370
    35
100
AcDbLine
 10
29.5
 20
12.523864
 30
0.0
 11
29.5
 21
12.60386
 31
0.0
  0
LINE
  5
99
330
76
100
AcDbEntity
  8
0
 62
     7
370
    13
100
AcDbLine
 10
29.5
 20
12.523864
 30
0.0
 11
28.862009
 21
12.656542
 31
0.0
  0
LINE
  5
9A
330
76
100
AcDbEntity
  8
0
 62
     7
370
    35
100
AcDbLine
 10
29.5
 20
8.521311
 30
0.0
 11
29.5
 21
8.608157
 31
0.0
  0
ARC
  5
9B
330
76
100
AcDbEntity
  8
0
 62
     7
370
    13
100
AcDbCircle
 10
-205.732273
 20
-1029.163691
 30
0.0
 40
1064.097060568505
100
AcDbArc
 50
77.228548
 51
78.424427
  0
LINE
  5
9C
330
76
100
AcDbEntity
  8
0
 62
     7
370
    35
100
AcDbLine
 10
29.5
 20
8.43435
 30
0.0
 11
29.5
 21
8.521311
 31
0.0
  0
ARC
  5
9D
330
76
100
AcDbEntity
  8
0
 62
     7
370
    13
100
AcDbCircle
 10
-221.153849
 20
-1096.055602
 30
0.0
 40
1132.574192217294
100
AcDbArc
 50
77.213818
 51
78.107996
  0
LINE
  5
9E
330
76
100
AcDbEntity
  8
0
 62
     7
370
    35
100
AcDbLine
 10
29.5
 20
4.164879
 30
0.0
 11
29.5
 21
4.255954
 31
0.0
  0
SPLINE
  5
9F
330
76
100
AcDbEntity
  8
0
 62
     7
370
    13
100
AcDbSpline
210
0.0
220
0.0
230
1.0
 70
     8
 71
     5
 72
    12
 73
     6
 74
     0
 42
0.000000001
 43
0.0
 40
0.0
 40
0.0
 40
0.0
 40
0.0
 40
0.0
 40
0.0
 40
58.84079987162789
 40
58.84079987162789
 40
58.84079987162789
 40
58.84079987162789
 40
58.84079987162789
 40
58.84079987162789
 10
29.50000000316783
 20
4.255953586962662
 30
0.0
 10
21.41705435883065
 20
6.170433141561062
 30
0.0
 10
13.33053556628961
 20
8.053707452506986
 30
0.0
 10
5.237099680593412
 20
9.883802752259902
 30
0.0
 10
-2.863982484763522
 20
11.63560159810076
 30
0.0
 10
-10.97472762527908
 20
13.28965188705303
 30
0.0
  0
LINE
  5
A0
330
76
100
AcDbEntity
  8
0
 62
     7
370
    35
100
AcDbLine
 10
29.5
 20
4.073749
 30
0.0
 11
29.5
 21
4.164879
 31
0.0
  0
SPLINE
  5
A1
330
76
100
AcDbEntity
  8
0
 62
     7
370
    13
100
AcDbSpline
210
0.0
220
0.0
230
1.0
 70
     8
 71
     5
 72
    12
 73
     6
 74
     0
 42
0.000000001
 43
0.0
 40
0.0
 40
0.0
 40
0.0
 40
0.0
 40
0.0
 40
0.0
 40
52.27535161470933
 40
52.27535161470933
 40
52.27535161470933
 40
52.27535161470933
 40
52.27535161470933
 40
52.27535161470933
 10
29.5000000031654
 20
4.073748977705043
 30
0.0
 10
22.30989080431132
 20
5.778863547726175
 30
0.0
 10
15.11706524324749
 20
7.460345460961245
 30
0.0
 10
7.882131970132047
 20
9.111181194085258
 30
0.0
 10
0.6785594849344108
 20
10.69654515366905
 30
0.0
 10
-6.532264537398266
 20
12.21085533626355
 30
0.0
  0
LINE
  5
A2
330
76
100
AcDbEntity
  8
0
 62
     7
370
    35
100
AcDbLine
 10
29.5
 20
-0.325415
 30
0.0
 11
29.5
 21
-0.233039
 31
0.0
  0
SPLINE
  5
A3
330
76
100
AcDbEntity
  8
0
 62
     7
370
    13
100
AcDbSpline
210
0.0
220
0.0
230
1.0
 70
     8
 71
     5
 72
    12
 73
     6
 74
     0
 42
0.000000001
 43
0.0
 40
0.0
 40
0.0
 40
0.0
 40
0.0
 40
0.0
 40
0.0
 40
86.0070620775786
 40
86.0070620775786
 40
86.0070620775786
 40
86.0070620775786
 40
86.0070620775786
 40
86.0070620775786
 10
29.50000000316779
 20
-0.2330393181307517
 30
0.0
 10
17.68983513682797
 20
2.605153496789359
 30
0.0
 10
5.880106561816366
 20
5.446937437832837
 30
0.0
 10
-5.810654783201588
 20
8.188765284137764
 30
0.0
 10
-17.64492325859181
 20
10.81999712946823
 30
0.0
 10
-29.49999998936909
 20
13.24115865890703
 30
0.0
  0
LINE
  5
A4
330
76
100
AcDbEntity
  8
0
 62
     7
370
    35
100
AcDbLine
 10
-29.5
 20
13.241159
 30
0.0
 11
-29.5
 21
13.162564
 31
0.0
  0
LINE
  5
A5
330
76
100
AcDbEntity
  8
0
 62
     7
370
    35
100
AcDbLine
 10
29.5
 20
-0.417785
 30
0.0
 11
29.5
 21
-0.325415
 31
0.0
  0
LINE
  5
A6
330
76
100
AcDbEntity
  8
0
 62
     7
370
    35
100
AcDbLine
 10
-29.5
 20
13.162564
 30
0.0
 11
-29.5
 21
13.083791
 31
0.0
  0
SPLINE
  5
A7
330
76
100
AcDbEntity
  8
0
 62
     7
370
    13
100
AcDbSpline
210
0.0
220
0.0
230
1.0
 70
     8
 71
     5
 72
    12
 73
     6
 74
     0
 42
0.000000001
 43
0.0
 40
0.0
 40
0.0
 40
0.0
 40
0.0
 40
0.0
 40
0.0
 40
79.78202529915357
 40
79.78202529915357
 40
79.78202529915357
 40
79.78202529915357
 40
79.78202529915357
 40
79.78202529915357
 10
29.50000000316538
 20
-0.4177855115353681
 30
0.0
 10
18.53043779186067
 20
2.218144204392023
 30
0.0
 10
7.561543654734946
 20
4.859662697870296
 30
0.0
 10
-3.300920721270122
 20
7.421327710213142
 30
0.0
 10
-14.28900332615744
 20
9.898927304045799
 30
0.0
 10
-25.29404326302729
 20
12.21050233683593
 30
0.0
  0
LINE
  5
A8
330
76
100
AcDbEntity
  8
0
 62
     7
370
    13
100
AcDbLine
 10
-29.107875
 20
13.003252
 30
0.0
 11
-29.5
 21
13.083791
 31
0.0
  0
LINE
  5
A9
330
76
100
AcDbEntity
  8
0
 62
     7
370
    35
100
AcDbLine
 10
29.5
 20
-4.80525
 30
0.0
 11
29.5
 21
-4.714542
 31
0.0
  0
SPLINE
  5
AA
330
76
100
AcDbEntity
  8
0
 62
     7
370
    13
100
AcDbSpline
210
0.0
220
0.0
230
1.0
 70
     8
 71
     5
 72
    12
 73
     6
 74
     0
 42
0.000000001
 43
0.0
 40
0.0
 40
0.0
 40
0.0
 40
0.0
 40
0.0
 40
0.0
 40
86.0780281146137
 40
86.0780281146137
 40
86.0780281146137
 40
86.0780281146137
 40
86.0780281146137
 40
86.0780281146137
 10
29.50000000316786
 20
-4.714542147794068
 30
0.0
 10
17.67443213092064
 20
-1.923029426421492
 30
0.0
 10
5.857335497270754
 20
0.9423804342201709
 30
0.0
 10
-5.832526621801401
 20
3.776540103926628
 30
0.0
 10
-17.65838341514197
 20
6.569240937297987
 30
0.0
 10
-29.49999998936913
 20
9.21664054852074
 30
0.0
  0
LINE
  5
AB
330
76
100
AcDbEntity
  8
0
 62
     7
370
    35
100
AcDbLine
 10
-29.5
 20
9.216641
 30
0.0
 11
-29.5
 21
9.13064
 31
0.0
  0
LINE
  5
AC
330
76
100
AcDbEntity
  8
0
 62
     7
370
    35
100
AcDbLine
 10
29.5
 20
-4.895892
 30
0.0
 11
29.5
 21
-4.80525
 31
0.0
  0
LINE
  5
AD
330
76
100
AcDbEntity
  8
0
 62
     7
370
    35
100
AcDbLine
 10
-29.5
 20
9.13064
 30
0.0
 11
-29.5
 21
9.044516
 31
0.0
  0
SPLINE
  5
AE
330
76
100
AcDbEntity
  8
0
 62
     7
370
    13
100
AcDbSpline
210
0.0
220
0.0
230
1.0
 70
     8
 71
     5
 72
    12
 73
     6
 74
     0
 42
0.000000001
 43
0.0
 40
0.0
 40
0.0
 40
0.0
 40
0.0
 40
0.0
 40
0.0
 40
86.07948474262675
 40
86.07948474262675
 40
86.07948474262675
 40
86.07948474262675
 40
86.07948474262675
 40
86.07948474262675
 10
29.49999999627829
 20
-4.89589202905656
 30
0.0
 10
17.67378691612032
 20
-2.10822587116096
 30
0.0
 10
5.856359505893804
 20
0.7561961190575006
 30
0.0
 10
-5.833484154693933
 20
3.592219024946383
 30
0.0
 10
-17.65898888246623
 20
6.38964368866311
 30
0.0
 10
-29.49999999626848
 20
9.044515712142191
 30
0.0
  0
LINE
  5
AF
330
76
100
AcDbEntity
  8
0
 62
     7
370
    35
100
AcDbLine
 10
29.5
 20
-9.13064
 30
0.0
 11
29.5
 21
-9.044516
 31
0.0
  0
SPLINE
  5
B0
330
76
100
AcDbEntity
  8
0
 62
     7
370
    13
100
AcDbSpline
210
0.0
220
0.0
230
1.0
 70
     8
 71
     5
 72
    12
 73
     6
 74
     0
 42
0.000000001
 43
0.0
 40
0.0
 40
0.0
 40
0.0
 40
0.0
 40
0.0
 40
0.0
 40
86.0794846958533
 40
86.0794846958533
 40
86.0794846958533
 40
86.0794846958533
 40
86.0794846958533
 40
86.0794846958533
 10
29.50000000316783
 20
-9.044515713689078
 30
0.0
 10
17.65898889579507
 20
-6.389643691714774
 30
0.0
 10
5.833484175669377
 20
-3.592219029863407
 30
0.0
 10
-5.856359511825564
 20
-0.7561961176109295
 30
0.0
 10
-17.67378691563638
 20
2.10822587102822
 30
0.0
 10
-29.49999998936912
 20
4.895892027427925
 30
0.0
  0
LINE
  5
B1
330
76
100
AcDbEntity
  8
0
 62
     7
370
    35
100
AcDbLine
 10
-29.5
 20
4.895892
 30
0.0
 11
-29.5
 21
4.80525
 31
0.0
  0
LINE
  5
B2
330
76
100
AcDbEntity
  8
0
 62
     7
370
    35
100
AcDbLine
 10
29.5
 20
-9.216641
 30
0.0
 11
29.5
 21
-9.13064
 31
0.0
  0
LINE
  5
B3
330
76
100
AcDbEntity
  8
0
 62
     7
370
    35
100
AcDbLine
 10
-29.5
 20
4.80525
 30
0.0
 11
-29.5
 21
4.714542
 31
0.0
  0
SPLINE
  5
B4
330
76
100
AcDbEntity
  8
0
 62
     7
370
    13
100
AcDbSpline
210
0.0
220
0.0
230
1.0
 70
     8
 71
     5
 72
    12
 73
     6
 74
     0
 42
0.000000001
 43
0.0
 40
0.0
 40
0.0
 40
0.0
 40
0.0
 40
0.0
 40
0.0
 40
86.07802815491058
 40
86.07802815491058
 40
86.07802815491058
 40
86.07802815491058
 40
86.07802815491058
 40
86.07802815491058
 10
29.49999999627833
 20
-9.216640550065431
 30
0.0
 10
17.65838341650465
 20
-6.56924093765813
 30
0.0
 10
5.832526617632321
 20
-3.776540103069008
 30
0.0
 10
-5.857335479308559
 20
-0.9423804383752745
 30
0.0
 10
-17.6744321184859
 20
1.923029423461391
 30
0.0
 10
-29.49999999626851
 20
4.714542146165433
 30
0.0
  0
ARC
  5
B5
330
76
100
AcDbEntity
  8
0
 62
     7
370
    35
100
AcDbCircle
 10
-83.0
 20
20.0
 30
0.0
 40
1.0
100
AcDbArc
 50
270.0
 51
0.0
  0
ARC
  5
B6
330
76
100
AcDbEntity
  8
0
 62
     7
370
    35
100
AcDbCircle
 10
-83.0
 20
-20.0
 30
0.0
 40
1.0
100
AcDbArc
 50
0.0
 51
90.0
  0
LINE
  5
B7
330
76
100
AcDbEntity
  8
0
 62
     7
370
    13
100
AcDbLine
 10
-83.0
 20
19.0
 30
0.0
 11
-83.0
 21
-19.0
 31
0.0
  0
ARC
  5
B8
330
76
100
AcDbEntity
  8
0
 62
     7
370
    35
100
AcDbCircle
 10
-109.0
 20
0.0
 30
0.0
 40
4.0
100
AcDbArc
 50
270.0
 51
90.0
  0
LINE
  5
B9
330
76
100
AcDbEntity
  8
0
 62
     7
370
    35
100
AcDbLine
 10
-141.0
 20
4.0
 30
0.0
 11
-109.0
 21
4.0
 31
0.0
  0
ARC
  5
BA
330
76
100
AcDbEntity
  8
0
 62
     7
370
    35
100
AcDbCircle
 10
-141.0
 20
0.0
 30
0.0
 40
4.0
100
AcDbArc
 50
90.0
 51
270.0
  0
LINE
  5
BB
330
76
100
AcDbEntity
  8
0
 62
     7
370
    35
100
AcDbLine
 10
-109.0
 20
-4.0
 30
0.0
 11
-141.0
 21
-4.0
 31
0.0
  0
LINE
  5
BC
330
76
100
AcDbEntity
  8
0
 62
     7
370
    35
100
AcDbLine
 10
36.0
 20
-20.0
 30
0.0
 11
80.0
 21
-20.0
 31
0.0
  0
LINE
  5
BD
330
76
100
AcDbEntity
  8
0
 62
     7
370
    35
100
AcDbLine
 10
80.0
 20
20.0
 30
0.0
 11
80.0
 21
-20.0
 31
0.0
  0
LINE
  5
BE
330
76
100
AcDbEntity
  8
0
 62
     7
370
    35
100
AcDbLine
 10
36.0
 20
20.0
 30
0.0
 11
80.0
 21
20.0
 31
0.0
  0
LINE
  5
BF
330
76
100
AcDbEntity
  8
0
 62
     7
370
    13
100
AcDbLine
 10
36.0
 20
-20.0
 30
0.0
 11
36.0
 21
20.0
 31
0.0
  0
ARC
  5
C0
330
76
100
AcDbEntity
  8
0
 62
     7
370
    35
100
AcDbCircle
 10
36.0
 20
-21.0
 30
0.0
 40
1.0
100
AcDbArc
 50
90.0
 51
180.0
  0
ARC
  5
C1
330
76
100
AcDbEntity
  8
0
 62
     7
370
    35
100
AcDbCircle
 10
36.0
 20
21.0
 30
0.0
 40
1.0
100
AcDbArc
 50
180.0
 51
270.0
  0
LINE
  5
C2
330
76
100
AcDbEntity
  8
0
 62
     7
370
    35
100
AcDbLine
 10
82.0
 20
18.0
 30
0.0
 11
82.0
 21
-18.0
 31
0.0
  0
LINE
  5
C3
330
76
100
AcDbEntity
  8
0
 62
     7
370
    35
100
AcDbLine
 10
82.0
 20
18.0
 30
0.0
 11
80.0
 21
20.0
 31
0.0
  0
LINE
  5
C4
330
76
100
AcDbEntity
  8
0
 62
     7
370
    35
100
AcDbLine
 10
82.0
 20
-18.0
 30
0.0
 11
80.0
 21
-20.0
 31
0.0
  0
LINE
  5
C5
330
76
100
AcDbEntity
  8
0
 62
     7
370
    35
100
AcDbLine
 10
-103.0
 20
-15.0
 30
0.0
 11
-146.0
 21
-15.0
 31
0.0
  0
LINE
  5
C6
330
76
100
AcDbEntity
  8
0
 62
     7
370
    35
100
AcDbLine
 10
-103.0
 20
15.0
 30
0.0
 11
-146.0
 21
15.0
 31
0.0
  0
ARC
  5
C7
330
76
100
AcDbEntity
  8
0
 62
     7
370
    35
100
AcDbCircle
 10
-103.0
 20
-16.0
 30
0.0
 40
1.0
100
AcDbArc
 50
0.0
 51
90.0
  0
ARC
  5
C8
330
76
100
AcDbEntity
  8
0
 62
     7
370
    35
100
AcDbCircle
 10
-103.0
 20
16.0
 30
0.0
 40
1.0
100
AcDbArc
 50
270.0
 51
0.0
  0
LINE
  5
C9
330
76
100
AcDbEntity
  8
0
 62
     7
370
    35
100
AcDbLine
 10
-148.0
 20
13.0
 30
0.0
 11
-148.0
 21
-13.0
 31
0.0
  0
LINE
  5
CA
330
76
100
AcDbEntity
  8
0
 62
     7
370
    35
100
AcDbLine
 10
-146.0
 20
15.0
 30
0.0
 11
-146.0
 21
-15.0
 31
0.0
  0
LINE
  5
CB
330
76
100
AcDbEntity
  8
0
 62
     7
370
    13
100
AcDbLine
 10
-103.0
 20
15.0
 30
0.0
 11
-103.0
 21
-15.0
 31
0.0
  0
LINE
  5
CC
330
76
100
AcDbEntity
  8
0
 62
     7
370
    35
100
AcDbLine
 10
-148.0
 20
13.0
 30
0.0
 11
-146.0
 21
15.0
 31
0.0
  0
LINE
  5
CD
330
76
100
AcDbEntity
  8
0
 62
     7
370
    35
100
AcDbLine
 10
-148.0
 20
-13.0
 30
0.0
 11
-146.0
 21
-15.0
 31
0.0
  0
LINE
  5
CE
330
76
100
AcDbEntity
  8
0
 62
     7
370
    35
100
AcDbLine
 10
-35.0
 20
-23.0
 30
0.0
 11
-35.0
 21
23.0
 31
0.0
  0
LINE
  5
CF
330
76
100
AcDbEntity
  8
0
 62
     7
370
    35
100
AcDbLine
 10
-35.0
 20
23.0
 30
0.0
 11
-34.0
 21
24.0
 31
0.0
  0
LINE
  5
D0
330
76
100
AcDbEntity
  8
0
 62
     7
370
    35
100
AcDbLine
 10
-35.0
 20
-23.0
 30
0.0
 11
-34.0
 21
-24.0
 31
0.0
  0
LINE
  5
D1
330
76
100
AcDbEntity
  8
0
 62
     7
370
    35
100
AcDbLine
 10
-34.0
 20
-24.0
 30
0.0
 11
-34.0
 21
24.0
 31
0.0
  0
LINE
  5
D2
330
76
100
AcDbEntity
  8
0
 62
     7
370
    35
100
AcDbLine
 10
35.0
 20
-23.0
 30
0.0
 11
35.0
 21
23.0
 31
0.0
  0
LINE
  5
D3
330
76
100
AcDbEntity
  8
0
 62
     7
370
    35
100
AcDbLine
 10
34.0
 20
24.0
 30
0.0
 11
35.0
 21
23.0
 31
0.0
  0
LINE
  5
D4
330
76
100
AcDbEntity
  8
0
 62
     7
370
    35
100
AcDbLine
 10
34.0
 20
-24.0
 30
0.0
 11
34.0
 21
24.0
 31
0.0
  0
LINE
  5
D5
330
76
100
AcDbEntity
  8
0
 62
     7
370
    35
100
AcDbLine
 10
34.0
 20
-24.0
 30
0.0
 11
35.0
 21
-23.0
 31
0.0
  0
LINE
  5
D6
330
76
100
AcDbEntity
  8
0
 62
     7
370
    35
100
AcDbLine
 10
-102.0
 20
18.0
 30
0.0
 11
-102.0
 21
-18.0
 31
0.0
  0
LINE
  5
D7
330
76
100
AcDbEntity
  8
0
 62
     7
370
    35
100
AcDbLine
 10
-83.0
 20
19.0
 30
0.0
 11
-101.0
 21
19.0
 31
0.0
  0
LINE
  5
D8
330
76
100
AcDbEntity
  8
0
 62
     7
370
    35
100
AcDbLine
 10
-101.0
 20
19.0
 30
0.0
 11
-101.0
 21
-19.0
 31
0.0
  0
LINE
  5
D9
330
76
100
AcDbEntity
  8
0
 62
     7
370
    35
100
AcDbLine
 10
-83.0
 20
-19.0
 30
0.0
 11
-101.0
 21
-19.0
 31
0.0
  0
LINE
  5
DA
330
76
100
AcDbEntity
  8
0
 62
     7
370
    35
100
AcDbLine
 10
-101.0
 20
-19.0
 30
0.0
 11
-102.0
 21
-18.0
 31
0.0
  0
LINE
  5
DB
330
76
100
AcDbEntity
  8
0
 62
     7
370
    35
100
AcDbLine
 10
-101.0
 20
19.0
 30
0.0
 11
-102.0
 21
18.0
 31
0.0
  0
ARC
  5
DC
330
76
100
AcDbEntity
  8
0
 62
     7
370
    35
100
AcDbCircle
 10
12.77012
 20
369.216976
 30
0.0
 40
397.8435520282919
100
AcDbArc
 50
264.190529
 51
268.16058
  0
ARC
  5
DD
330
76
100
AcDbEntity
  8
0
 62
     7
370
    35
100
AcDbCircle
 10
12.074245
 20
353.999098
 30
0.0
 40
382.6103006828978
100
AcDbArc
 50
268.191585
 51
270.001551
  0
LINE
  5
DE
330
76
100
AcDbEntity
  8
0
 62
     7
370
    35
100
AcDbLine
 10
12.084594
 20
-28.61165
 30
0.0
 11
16.061375
 21
-28.61165
 31
0.0
  0
ARC
  5
DF
330
76
100
AcDbEntity
  8
0
 62
     7
370
    35
100
AcDbCircle
 10
16.072186
 20
355.158187
 30
0.0
 40
383.7693871412403
100
AcDbArc
 50
267.599762
 51
269.998386
  0
SPLINE
  5
E0
330
76
100
AcDbEntity
  8
0
 62
     7
370
    35
100
AcDbSpline
210
0.0
220
0.0
230
1.0
 70
     8
 71
     5
 72
    12
 73
     6
 74
     0
 42
0.000000001
 43
0.0
 40
0.0
 40
0.0
 40
0.0
 40
0.0
 40
0.0
 40
0.0
 40
39.56101472275672
 40
39.56101472275672
 40
39.56101472275672
 40
39.56101472275672
 40
39.56101472275672
 40
39.56101472275672
 10
-0.0000000000000888
 20
-28.27451885619696
 30
0.0
 10
-5.505509912926065
 20
-28.04385993440402
 30
0.0
 10
-11.00901766861979
 20
-27.71458327870892
 30
0.0
 10
-16.51205688984956
 20
-27.28918978204932
 30
0.0
 10
-22.00844495804989
 20
-26.77094372532744
 30
0.0
 10
-27.50000000186265
 20
-26.16258209764622
 30
0.0
  0
LINE
  5
E1
330
76
100
AcDbEntity
  8
0
 62
     7
370
    35
100
AcDbLine
 10
-27.5
 20
-26.162611
 30
0.0
 11
-27.5
 21
-26.584238
 31
0.0
  0
ARC
  5
E2
330
76
100
AcDbEntity
  8
0
 62
     7
370
    35
100
AcDbCircle
 10
16.06632
 20
354.351605
 30
0.0
 40
382.9627891821215
100
AcDbArc
 50
269.99926
 51
271.105481
  0
LINE
  5
E3
330
76
100
AcDbEntity
  8
0
 62
     7
370
    35
100
AcDbLine
 10
-29.5
 20
-22.699803
 30
0.0
 11
-29.5
 21
-23.717865
 31
0.0
  0
ARC
  5
E4
330
76
100
AcDbEntity
  8
0
 62
     7
370
    35
100
AcDbCircle
 10
-95.12641
 20
-80.608452
 30
0.0
 40
86.85298700845232
100
AcDbArc
 50
38.865029
 51
40.921529
  0
LINE
  5
E5
330
76
100
AcDbEntity
  8
0
 62
     7
370
    35
100
AcDbLine
 10
-27.5
 20
-26.162582
 30
0.0
 11
-27.5
 21
-26.108936
 31
0.0
  0
ARC
  5
E6
330
76
100
AcDbEntity
  8
0
 62
     7
370
    35
100
AcDbCircle
 10
13.687194
 20
22.538108
 30
0.0
 40
64.0774289595544
100
AcDbArc
 50
227.624571
 51
230.001214
  0
LINE
  5
E7
330
76
100
AcDbEntity
  8
0
 62
     7
370
    35
100
AcDbLine
 10
-27.5
 20
1.845786
 30
0.0
 11
-27.5
 21
1.818058
 31
0.0
  0
ARC
  5
E8
330
76
100
AcDbEntity
  8
0
 62
     7
370
    35
100
AcDbCircle
 10
-30.76146
 20
12.188973
 30
0.0
 40
10.87069489509251
100
AcDbArc
 50
276.664347
 51
287.457395
  0
LINE
  5
E9
330
76
100
AcDbEntity
  8
0
 62
     7
370
    35
100
AcDbLine
 10
-29.5
 20
1.392743
 30
0.0
 11
-29.5
 21
0.417785
 31
0.0
  0
LINE
  5
EA
330
76
100
AcDbEntity
  8
0
 62
     7
370
    35
100
AcDbLine
 10
29.5
 20
-13.083791
 30
0.0
 11
29.500001
 21
-13.01443
 31
0.0
  0
LINE
  5
EB
330
76
100
AcDbEntity
  8
0
 62
     7
370
    35
100
AcDbLine
 10
27.5
 20
-12.745037
 30
0.0
 11
27.643493
 21
-12.78113
 31
0.0
  0
ARC
  5
EC
330
76
100
AcDbEntity
  8
0
 62
     7
370
    35
100
AcDbCircle
 10
29.558337
 20
-5.091309
 30
0.0
 40
7.924072974638566
100
AcDbArc
 50
256.017143
 51
269.578152
  0
SPLINE
  5
ED
330
76
100
AcDbEntity
  8
0
 62
     7
370
    35
100
AcDbSpline
210
0.0
220
0.0
230
1.0
 70
     8
 71
     5
 72
    12
 73
     6
 74
     0
 42
0.000000001
 43
0.0
 40
0.0
 40
0.0
 40
0.0
 40
0.0
 40
0.0
 40
0.0
 40
49.32424683074495
 40
49.32424683074495
 40
49.32424683074495
 40
49.32424683074495
 40
49.32424683074495
 40
49.32424683074495
 10
0.0000000000000018
 20
-5.643402125949647
 30
0.0
 10
5.495438749486237
 20
-7.118143061129751
 30
0.0
 10
10.99251083850549
 20
-8.57375019756733
 30
0.0
 10
16.49204655330857
 20
-10.00219523977271
 30
0.0
 10
21.99433545285888
 20
-11.39486573805371
 30
0.0
 10
27.50000000186265
 20
-12.74418605571694
 30
0.0
  0
SPLINE
  5
EE
330
76
100
AcDbEntity
  8
0
 62
     7
370
    35
100
AcDbSpline
210
0.0
220
0.0
230
1.0
 70
     8
 71
     5
 72
    12
 73
     6
 74
     0
 42
0.000000001
 43
0.0
 40
0.0
 40
0.0
 40
0.0
 40
0.0
 40
0.0
 40
0.0
 40
49.38165654460636
 40
49.38165654460636
 40
49.38165654460636
 40
49.38165654460636
 40
49.38165654460636
 40
49.38165654460636
 10
-27.50000000186266
 20
1.845777407574078
 30
0.0
 10
-22.00037911415377
 20
0.3434893483270165
 30
0.0
 10
-16.50130044862459
 20
-1.165014532378036
 30
0.0
 10
-11.0020517735008
 20
-2.671448840013185
 30
0.0
 10
-5.501835026903937
 20
-4.166944703229476
 30
0.0
 10
0.0000000000000036
 20
-5.643402125949638
 30
0.0
  0
SPLINE
  5
EF
330
76
100
AcDbEntity
  8
0
 62
     7
370
    35
100
AcDbSpline
210
0.0
220
0.0
230
1.0
 70
     8
 71
     5
 72
    12
 73
     6
 74
     0
 42
0.000000001
 43
0.0
 40
0.0
 40
0.0
 40
0.0
 40
0.0
 40
0.0
 40
0.0
 40
49.33691056249308
 40
49.33691056249308
 40
49.33691056249308
 40
49.33691056249308
 40
49.33691056249308
 40
49.33691056249308
 10
27.50000274715693
 20
-11.76055376568043
 30
0.0
 10
21.99481592611869
 20
-10.38679486413699
 30
0.0
 10
16.49279821685432
 20
-8.973068125250101
 30
0.0
 10
10.99332554891677
 20
-7.527070053648325
 30
0.0
 10
5.495995675851056
 20
-6.057474184824176
 30
0.0
 10
-0.0000000000000089
 20
-4.572363789190222
 30
0.0
  0
SPLINE
  5
F0
330
76
100
AcDbEntity
  8
0
 62
     7
370
    35
100
AcDbSpline
210
0.0
220
0.0
230
1.0
 70
     8
 71
     5
 72
    12
 73
     6
 74
     0
 42
0.000000001
 43
0.0
 40
0.0
 40
0.0
 40
0.0
 40
0.0
 40
0.0
 40
0.0
 40
49.38374004955804
 40
49.38374004955804
 40
49.38374004955804
 40
49.38374004955804
 40
49.38374004955804
 40
49.38374004955804
 10
0.0
 20
-4.572363789190231
 30
0.0
 10
-5.501212351469587
 20
-3.08584376013429
 30
0.0
 10
-11.00110699316792
 20
-1.583920556846426
 30
0.0
 10
-16.50034584772831
 20
-0.0747366553054167
 30
0.0
 10
-21.99974540948664
 20
1.43282985238869
 30
0.0
 10
-27.50000274715569
 20
2.930509831569454
 30
0.0
  0
LINE
  5
F1
330
76
100
AcDbEntity
  8
0
 62
     7
370
    35
100
AcDbLine
 10
-27.5
 20
2.930509
 30
0.0
 11
-27.5
 21
1.845777
 31
0.0
  0
LINE
  5
F2
330
76
100
AcDbEntity
  8
0
 62
     7
370
    35
100
AcDbLine
 10
27.5
 20
-11.760553
 30
0.0
 11
27.5
 21
-12.744186
 31
0.0
  0
LINE
  5
F3
330
76
100
AcDbEntity
  8
0
 62
     7
370
    35
100
AcDbLine
 10
27.5
 20
-11.760552
 30
0.0
 11
27.5
 21
-11.718414
 31
0.0
  0
ARC
  5
F4
330
76
100
AcDbEntity
  8
0
 62
     7
370
    35
100
AcDbCircle
 10
36.394855
 20
-25.581836
 30
0.0
 40
16.47059087249455
100
AcDbArc
 50
114.748842
 51
122.684477
  0
LINE
  5
F5
330
76
100
AcDbEntity
  8
0
 62
     7
370
    35
100
AcDbLine
 10
29.499983
 20
-10.624895
 30
0.0
 11
29.5
 21
-9.216641
 31
0.0
  0
LINE
  5
F6
330
76
100
AcDbEntity
  8
0
 62
     7
370
    35
100
AcDbLine
 10
-29.5
 20
4.714542
 30
0.0
 11
-29.5
 21
4.047889
 31
0.0
  0
SPLINE
  5
F7
330
76
100
AcDbEntity
  8
0
 62
     7
370
    35
100
AcDbSpline
210
0.0
220
0.0
230
1.0
 70
     8
 71
     5
 72
    15
 73
     9
 74
     0
 42
0.000000001
 43
0.0
 40
0.0
 40
0.0
 40
0.0
 40
0.0
 40
0.0
 40
0.0
 40
3.248637737414923
 40
3.248637737414923
 40
3.248637737414923
 40
4.611601744025616
 40
4.611601744025616
 40
4.611601744025616
 40
4.611601744025616
 40
4.611601744025616
 40
4.611601744025616
 10
-27.50000000186265
 20
2.950198180729143
 30
0.0
 10
-27.77866925868959
 20
3.140181147521866
 30
0.0
 10
-28.05894331787768
 20
3.319180217843179
 30
0.0
 10
-28.34263189212388
 20
3.487507014559948
 30
0.0
 10
-28.74438633778476
 20
3.706608101702475
 30
0.0
 10
-29.14552630574858
 20
3.896295346023424
 30
0.0
 10
-29.2639898345169
 20
3.949688477434038
 30
0.0
 10
-29.38227311543447
 20
4.000282813535232
 30
0.0
 10
-29.50000000186266
 20
4.047814043344504
 30
0.0
  0
LINE
  5
F8
330
76
100
AcDbEntity
  8
0
 62
     7
370
    35
100
AcDbLine
 10
-27.5
 20
2.930517
 30
0.0
 11
-27.5
 21
2.950198
 31
0.0
  0
LINE
  5
F9
330
76
100
AcDbEntity
  8
0
 62
     7
370
    35
100
AcDbLine
 10
-27.5
 20
6.914284
 30
0.0
 11
-27.5
 21
6.878781
 31
0.0
  0
SPLINE
  5
FA
330
76
100
AcDbEntity
  8
0
 62
     7
370
    35
100
AcDbSpline
210
0.0
220
0.0
230
1.0
 70
     8
 71
     5
 72
    15
 73
     9
 74
     0
 42
0.000000001
 43
0.0
 40
0.0
 40
0.0
 40
0.0
 40
0.0
 40
0.0
 40
0.0
 40
3.057142067079974
 40
3.057142067079974
 40
3.057142067079974
 40
4.344935711582623
 40
4.344935711582623
 40
4.344935711582623
 40
4.344935711582623
 40
4.344935711582623
 40
4.344935711582623
 10
-27.50000000186265
 20
6.878781238678172
 30
0.0
 10
-27.78284415751087
 20
6.744036989956919
 30
0.0
 10
-28.06589199018786
 20
6.617353199846463
 30
0.0
 10
-28.35102979378648
 20
6.498493467026567
 30
0.0
 10
-28.75262940520141
 20
6.344317407555858
 30
0.0
 10
-29.14999944977136
 20
6.212026679080097
 30
0.0
 10
-29.26733528129888
 20
6.174826973022848
 30
0.0
 10
-29.38412671063187
 20
6.139739287484238
 30
0.0
 10
-29.50000000186265
 20
6.106963563832897
 30
0.0
  0
LINE
  5
FB
330
76
100
AcDbEntity
  8
0
 62
     7
370
    35
100
AcDbLine
 10
-29.5
 20
6.107004
 30
0.0
 11
-29.5
 21
4.895892
 31
0.0
  0
LINE
  5
FC
330
76
100
AcDbEntity
  8
0
 62
     7
370
    35
100
AcDbLine
 10
29.5
 20
-9.044516
 30
0.0
 11
29.500016
 21
-8.664355
 31
0.0
  0
ARC
  5
FD
330
76
100
AcDbEntity
  8
0
 62
     7
370
    35
100
AcDbCircle
 10
31.466519
 20
0.158219
 30
0.0
 40
9.048877354086818
100
AcDbArc
 50
244.004
 51
255.86928
  0
ARC
  5
FE
330
76
100
AcDbEntity
  8
0
 62
     7
370
    35
100
AcDbCircle
 10
30.908142
 20
-1.826798
 30
0.0
 40
6.987111244044229
100
AcDbArc
 50
256.335626
 51
258.373305
  0
LINE
  5
FF
330
76
100
AcDbEntity
  8
0
 62
     7
370
    35
100
AcDbLine
 10
27.5
 20
-7.965357
 30
0.0
 11
27.5
 21
-7.975792
 31
0.0
  0
SPLINE
  5
100
330
76
100
AcDbEntity
  8
0
 62
     7
370
    35
100
AcDbSpline
210
0.0
220
0.0
230
1.0
 70
     8
 71
     5
 72
    12
 73
     6
 74
     0
 42
0.000000001
 43
0.0
 40
0.0
 40
0.0
 40
0.0
 40
0.0
 40
0.0
 40
0.0
 40
49.37137576823386
 40
49.37137576823386
 40
49.37137576823386
 40
49.37137576823386
 40
49.37137576823386
 40
49.37137576823386
 10
-0.0000000000000036
 20
-0.544265742777819
 30
0.0
 10
5.49822630046064
 20
-2.04904930501283
 30
0.0
 10
10.99662199839272
 20
-3.551922869247629
 30
0.0
 10
16.49592174515073
 20
-5.044686701193202
 30
0.0
 10
21.99683326101499
 20
-6.518512573200913
 30
0.0
 10
27.50000000186265
 20
-7.965354087064925
 30
0.0
  0
SPLINE
  5
101
330
76
100
AcDbEntity
  8
0
 62
     7
370
    35
100
AcDbSpline
210
0.0
220
0.0
230
1.0
 70
     8
 71
     5
 72
    12
 73
     6
 74
     0
 42
0.000000001
 43
0.0
 40
0.0
 40
0.0
 40
0.0
 40
0.0
 40
0.0
 40
0.0
 40
49.37702002199016
 40
49.37702002199016
 40
49.37702002199016
 40
49.37702002199016
 40
49.37702002199016
 40
49.37702002199016
 10
-27.50000000186267
 20
6.914280577607895
 30
0.0
 10
-21.99742731626297
 20
5.452691760214861
 30
0.0
 10
-16.49683125515822
 20
3.967698047377659
 30
0.0
 10
-10.99755961541599
 20
2.46741345675823
 30
0.0
 10
-5.498854870841027
 20
0.9606898499129053
 30
0.0
 10
0.0000000000000089
 20
-0.5442657427778248
 30
0.0
  0
LINE
  5
102
330
76
100
AcDbEntity
  8
0
 62
     7
370
    35
100
AcDbLine
 10
27.5
 20
-6.914281
 30
0.0
 11
27.5
 21
-7.965354
 31
0.0
  0
SPLINE
  5
103
330
76
100
AcDbEntity
  8
0
 62
     7
370
    35
100
AcDbSpline
210
0.0
220
0.0
230
1.0
 70
     8
 71
     5
 72
    12
 73
     6
 74
     0
 42
0.000000001
 43
0.0
 40
0.0
 40
0.0
 40
0.0
 40
0.0
 40
0.0
 40
0.0
 40
49.37702494889719
 40
49.37702494889719
 40
49.37702494889719
 40
49.37702494889719
 40
49.37702494889719
 40
49.37702494889719
 10
27.50000274715692
 20
-6.914281306794833
 30
0.0
 10
21.99742951170617
 20
-5.452692352885725
 30
0.0
 10
16.49683290141551
 20
-3.967698496425562
 30
0.0
 10
10.9975607126177
 20
-2.46741375744004
 30
0.0
 10
5.498855419524535
 20
-0.9606900000774079
 30
0.0
 10
0.0000000000000036
 20
0.5442657427778022
 30
0.0
  0
SPLINE
  5
104
330
76
100
AcDbEntity
  8
0
 62
     7
370
    35
100
AcDbSpline
210
0.0
220
0.0
230
1.0
 70
     8
 71
     5
 72
    12
 73
     6
 74
     0
 42
0.000000001
 43
0.0
 40
0.0
 40
0.0
 40
0.0
 40
0.0
 40
0.0
 40
0.0
 40
49.37138069407926
 40
49.37138069407926
 40
49.37138069407926
 40
49.37138069407926
 40
49.37138069407926
 40
49.37138069407926
 10
0.0000000000000089
 20
0.5442657427777964
 30
0.0
 10
-5.498226849026139
 20
2.04904945514499
 30
0.0
 10
-10.99662309555752
 20
3.551923169097021
 30
0.0
 10
-16.49592339109012
 20
5.044687147981824
 30
0.0
 10
-21.99683545633945
 20
6.51851316143405
 30
0.0
 10
-27.50000274715751
 20
7.965354808854807
 30
0.0
  0
LINE
  5
105
330
76
100
AcDbEntity
  8
0
 62
     7
370
    35
100
AcDbLine
 10
-27.5
 20
7.965354
 30
0.0
 11
-27.5
 21
6.914281
 31
0.0
  0
LINE
  5
106
330
76
100
AcDbEntity
  8
0
 62
     7
370
    35
100
AcDbLine
 10
27.5
 20
-6.914284
 30
0.0
 11
27.5
 21
-6.878781
 31
0.0
  0
SPLINE
  5
107
330
76
100
AcDbEntity
  8
0
 62
     7
370
    35
100
AcDbSpline
210
0.0
220
0.0
230
1.0
 70
     8
 71
     5
 72
    15
 73
     9
 74
     0
 42
0.000000001
 43
0.0
 40
0.0
 40
0.0
 40
0.0
 40
0.0
 40
0.0
 40
0.0
 40
3.057142067792951
 40
3.057142067792951
 40
3.057142067792951
 40
4.344935712292899
 40
4.344935712292899
 40
4.344935712292899
 40
4.344935712292899
 40
4.344935712292899
 40
4.344935712292899
 10
27.50000000186265
 20
-6.878781238663377
 30
0.0
 10
27.78284415757758
 20
-6.744036989911733
 30
0.0
 10
28.06589199032061
 20
-6.61735319977737
 30
0.0
 10
28.35102979365208
 20
-6.498493467071565
 30
0.0
 10
28.75262940513066
 20
-6.344317407569575
 30
0.0
 10
29.1499994497702
 20
-6.212026679076762
 30
0.0
 10
29.26733528129905
 20
-6.174826973019788
 30
0.0
 10
29.38412671063198
 20
-6.139739287482806
 30
0.0
 10
29.50000000186265
 20
-6.106963563832878
 30
0.0
  0
LINE
  5
108
330
76
100
AcDbEntity
  8
0
 62
     7
370
    35
100
AcDbLine
 10
29.499983
 20
-6.106924
 30
0.0
 11
29.5
 21
-4.895892
 31
0.0
  0
LINE
  5
109
330
76
100
AcDbEntity
  8
0
 62
     7
370
    35
100
AcDbLine
 10
-29.5
 20
9.044516
 30
0.0
 11
-29.5
 21
8.670544
 31
0.0
  0
ARC
  5
10A
330
76
100
AcDbEntity
  8
0
 62
     7
370
    35
100
AcDbCircle
 10
-31.466519
 20
-0.158219
 30
0.0
 40
9.048877354520092
100
AcDbArc
 50
64.004
 51
75.86928
  0
ARC
  5
10B
330
76
100
AcDbEntity
  8
0
 62
     7
370
    35
100
AcDbCircle
 10
-30.908142
 20
1.826798
 30
0.0
 40
6.987111243594241
100
AcDbArc
 50
76.335626
 51
78.373305
  0
LINE
  5
10C
330
76
100
AcDbEntity
  8
0
 62
     7
370
    35
100
AcDbLine
 10
-27.5
 20
7.965357
 30
0.0
 11
-27.5
 21
7.975792
 31
0.0
  0
LINE
  5
10D
330
76
100
AcDbEntity
  8
0
 62
     7
370
    35
100
AcDbLine
 10
-27.5
 20
11.760552
 30
0.0
 11
-27.5
 21
11.718414
 31
0.0
  0
ARC
  5
10E
330
76
100
AcDbEntity
  8
0
 62
     7
370
    35
100
AcDbCircle
 10
-36.394855
 20
25.581836
 30
0.0
 40
16.47059087346032
100
AcDbArc
 50
294.748842
 51
302.684477
  0
LINE
  5
10F
330
76
100
AcDbEntity
  8
0
 62
     7
370
    35
100
AcDbLine
 10
-29.5
 20
10.62498
 30
0.0
 11
-29.5
 21
9.216641
 31
0.0
  0
LINE
  5
110
330
76
100
AcDbEntity
  8
0
 62
     7
370
    35
100
AcDbLine
 10
29.5
 20
-4.714542
 30
0.0
 11
29.499997
 21
-4.047815
 31
0.0
  0
SPLINE
  5
111
330
76
100
AcDbEntity
  8
0
 62
     7
370
    35
100
AcDbSpline
210
0.0
220
0.0
230
1.0
 70
     8
 71
     5
 72
    15
 73
     9
 74
     0
 42
0.000000001
 43
0.0
 40
0.0
 40
0.0
 40
0.0
 40
0.0
 40
0.0
 40
0.0
 40
3.248637737698846
 40
3.248637737698846
 40
3.248637737698846
 40
4.611601744309669
 40
4.611601744309669
 40
4.611601744309669
 40
4.611601744309669
 40
4.611601744309669
 40
4.611601744309669
 10
27.50000000186265
 20
-2.950198180715697
 30
0.0
 10
27.77866925871205
 20
-3.140181147529323
 30
0.0
 10
28.05894331792287
 20
-3.319180217868156
 30
0.0
 10
28.34263189207625
 20
-3.487507014528541
 30
0.0
 10
28.74438633776227
 20
-3.706608101688854
 30
0.0
 10
29.14552630574938
 20
-3.89629534602131
 30
0.0
 10
29.263989834517
 20
-3.949688477432698
 30
0.0
 10
29.38227311543467
 20
-4.000282813534472
 30
0.0
 10
29.50000000186265
 20
-4.047814043344531
 30
0.0
  0
LINE
  5
112
330
76
100
AcDbEntity
  8
0
 62
     7
370
    35
100
AcDbLine
 10
27.5
 20
-2.930517
 30
0.0
 11
27.5
 21
-2.950198
 31
0.0
  0
SPLINE
  5
113
330
76
100
AcDbEntity
  8
0
 62
     7
370
    35
100
AcDbSpline
210
0.0
220
0.0
230
1.0
 70
     8
 71
     5
 72
    12
 73
     6
 74
     0
 42
0.000000001
 43
0.0
 40
0.0
 40
0.0
 40
0.0
 40
0.0
 40
0.0
 40
0.0
 40
49.38373511983441
 40
49.38373511983441
 40
49.38373511983441
 40
49.38373511983441
 40
49.38373511983441
 40
49.38373511983441
 10
-0.0000000000000036
 20
4.572363789190215
 30
0.0
 10
5.501211802311561
 20
3.085843908523917
 30
0.0
 10
11.00110589511496
 20
1.583920856734779
 30
0.0
 10
16.50034420085879
 20
0.074737107480716
 30
0.0
 10
21.99974321362637
 20
-1.432829250335974
 30
0.0
 10
27.50000000186266
 20
-2.930509084016125
 30
0.0
  0
SPLINE
  5
114
330
76
100
AcDbEntity
  8
0
 62
     7
370
    35
100
AcDbSpline
210
0.0
220
0.0
230
1.0
 70
     8
 71
     5
 72
    12
 73
     6
 74
     0
 42
0.000000001
 43
0.0
 40
0.0
 40
0.0
 40
0.0
 40
0.0
 40
0.0
 40
0.0
 40
49.33690564200771
 40
49.33690564200771
 40
49.33690564200771
 40
49.33690564200771
 40
49.33690564200771
 40
49.33690564200771
 10
-27.50000000186266
 20
11.7605530806365
 30
0.0
 10
-21.99481373114065
 20
10.38679430017034
 30
0.0
 10
-16.49279657156038
 20
8.973067692629954
 30
0.0
 10
-10.99332445225816
 20
7.52706976048616
 30
0.0
 10
-5.495995127722374
 20
6.057474036712681
 30
0.0
 10
0.0000000000000071
 20
4.572363789190216
 30
0.0
  0
LINE
  5
115
330
76
100
AcDbEntity
  8
0
 62
     7
370
    35
100
AcDbLine
 10
27.5
 20
-1.845777
 30
0.0
 11
27.5
 21
-2.930509
 31
0.0
  0
SPLINE
  5
116
330
76
100
AcDbEntity
  8
0
 62
     7
370
    35
100
AcDbSpline
210
0.0
220
0.0
230
1.0
 70
     8
 71
     5
 72
    12
 73
     6
 74
     0
 42
0.000000001
 43
0.0
 40
0.0
 40
0.0
 40
0.0
 40
0.0
 40
0.0
 40
0.0
 40
49.3816614747231
 40
49.3816614747231
 40
49.3816614747231
 40
49.3816614747231
 40
49.3816614747231
 40
49.3816614747231
 10
27.50000274719359
 20
-1.845778157485554
 30
0.0
 10
22.00038131021221
 20
-0.3434899507200533
 30
0.0
 10
16.50130209578954
 20
1.165014081215016
 30
0.0
 10
11.00205287202225
 20
2.671448541439368
 30
0.0
 10
5.501835576190864
 20
4.166944555826372
 30
0.0
 10
0.0000000000000036
 20
5.643402125949611
 30
0.0
  0
SPLINE
  5
117
330
76
100
AcDbEntity
  8
0
 62
     7
370
    35
100
AcDbSpline
210
0.0
220
0.0
230
1.0
 70
     8
 71
     5
 72
    12
 73
     6
 74
     0
 42
0.000000001
 43
0.0
 40
0.0
 40
0.0
 40
0.0
 40
0.0
 40
0.0
 40
0.0
 40
49.32425174961222
 40
49.32425174961222
 40
49.32425174961222
 40
49.32425174961222
 40
49.32425174961222
 40
49.32425174961222
 10
-0.0000000000000053
 20
5.643402125949628
 30
0.0
 10
-5.495439297520027
 20
7.118143208196503
 30
0.0
 10
-10.99251193476379
 20
8.573750487850848
 30
0.0
 10
-16.49204819859466
 20
10.00219566718923
 30
0.0
 10
-21.99433764776311
 20
11.39486629366994
 30
0.0
 10
-27.50000274719334
 20
12.74418672855702
 30
0.0
  0
LINE
  5
118
330
76
100
AcDbEntity
  8
0
 62
     7
370
    35
100
AcDbLine
 10
-27.5
 20
12.744186
 30
0.0
 11
-27.5
 21
11.760553
 31
0.0
  0
LINE
  5
119
330
76
100
AcDbEntity
  8
0
 62
     7
370
    35
100
AcDbLine
 10
27.5
 20
-1.845786
 30
0.0
 11
27.5
 21
-1.818058
 31
0.0
  0
ARC
  5
11A
330
76
100
AcDbEntity
  8
0
 62
     7
370
    35
100
AcDbCircle
 10
30.76146
 20
-12.188973
 30
0.0
 40
10.87069489445038
100
AcDbArc
 50
96.664347
 51
107.457395
  0
LINE
  5
11B
330
76
100
AcDbEntity
  8
0
 62
     7
370
    35
100
AcDbLine
 10
29.499983
 20
-1.392673
 30
0.0
 11
29.5
 21
-0.417786
 31
0.0
  0
LINE
  5
11C
330
76
100
AcDbEntity
  8
0
 62
     7
370
    35
100
AcDbLine
 10
-29.5
 20
13.083791
 30
0.0
 11
-29.5
 21
13.014442
 31
0.0
  0
LINE
  5
11D
330
76
100
AcDbEntity
  8
0
 62
     7
370
    35
100
AcDbLine
 10
-27.5
 20
12.745037
 30
0.0
 11
-27.643493
 21
12.78113
 31
0.0
  0
ARC
  5
11E
330
76
100
AcDbEntity
  8
0
 62
     7
370
    35
100
AcDbCircle
 10
-29.558337
 20
5.091309
 30
0.0
 40
7.924072974889953
100
AcDbArc
 50
76.017143
 51
89.578152
  0
LINE
  5
11F
330
76
100
AcDbEntity
  8
0
 62
     7
370
    35
100
AcDbLine
 10
-27.5
 20
16.228825
 30
0.0
 11
-27.5
 21
16.181408
 31
0.0
  0
ARC
  5
120
330
76
100
AcDbEntity
  8
0
 62
     7
370
    35
100
AcDbCircle
 10
-41.035023
 20
33.631138
 30
0.0
 40
22.08285295065349
100
AcDbArc
 50
301.491511
 51
307.799231
  0
LINE
  5
121
330
76
100
AcDbEntity
  8
0
 62
     7
370
    35
100
AcDbLine
 10
-29.5
 20
14.801461
 30
0.0
 11
-29.5
 21
13.241159
 31
0.0
  0
LINE
  5
122
330
76
100
AcDbEntity
  8
0
 62
     7
370
    35
100
AcDbLine
 10
29.5
 20
-0.233039
 30
0.0
 11
29.499997
 21
0.70501
 31
0.0
  0
SPLINE
  5
123
330
76
100
AcDbEntity
  8
0
 62
     7
370
    35
100
AcDbSpline
210
0.0
220
0.0
230
1.0
 70
     8
 71
     5
 72
    15
 73
     9
 74
     0
 42
0.000000001
 43
0.0
 40
0.0
 40
0.0
 40
0.0
 40
0.0
 40
0.0
 40
0.0
 40
3.323434831732357
 40
3.323434831732357
 40
3.323434831732357
 40
4.710811538666494
 40
4.710811538666494
 40
4.710811538666494
 40
4.710811538666494
 40
4.710811538666494
 40
4.710811538666494
 10
27.50000000186265
 20
2.170217170241343
 30
0.0
 10
27.77801766214573
 20
1.930301220409542
 30
0.0
 10
28.05788288672892
 20
1.700463923126025
 30
0.0
 10
28.34209730930812
 20
1.479624729409091
 30
0.0
 10
28.7436405801426
 20
1.18657850370191
 30
0.0
 10
29.14553550964018
 20
0.9221895411886456
 30
0.0
 10
29.26389333202108
 20
0.8469263102521501
 30
0.0
 10
29.38216886012354
 20
0.7744191817859158
 30
0.0
 10
29.50000000186265
 20
0.7050125197121052
 30
0.0
  0
LINE
  5
124
330
76
100
AcDbEntity
  8
0
 62
     7
370
    35
100
AcDbLine
 10
27.5
 20
2.198512
 30
0.0
 11
27.5
 21
2.170217
 31
0.0
  0
SPLINE
  5
125
330
76
100
AcDbEntity
  8
0
 62
     7
370
    35
100
AcDbSpline
210
0.0
220
0.0
230
1.0
 70
     8
 71
     5
 72
    12
 73
     6
 74
     0
 42
0.000000001
 43
0.0
 40
0.0
 40
0.0
 40
0.0
 40
0.0
 40
0.0
 40
0.0
 40
40.18134639150727
 40
40.18134639150727
 40
40.18134639150727
 40
40.18134639150727
 40
40.18134639150727
 40
40.18134639150727
 10
0.0000000000000746
 20
9.54203378683644
 30
0.0
 10
5.506083006896223
 20
8.121171670879932
 30
0.0
 10
11.00813006357347
 20
6.668034494399516
 30
0.0
 10
16.50718771188665
 20
5.191014240041969
 30
0.0
 10
22.00407660080998
 20
3.698441715563967
 30
0.0
 10
27.49999725652912
 20
2.198512805373695
 30
0.0
  0
SPLINE
  5
126
330
76
100
AcDbEntity
  8
0
 62
     7
370
    35
100
AcDbSpline
210
0.0
220
0.0
230
1.0
 70
     8
 71
     5
 72
    12
 73
     6
 74
     0
 42
0.000000001
 43
0.0
 40
0.0
 40
0.0
 40
0.0
 40
0.0
 40
0.0
 40
0.0
 40
40.06652553465386
 40
40.06652553465386
 40
40.06652553465386
 40
40.06652553465386
 40
40.06652553465386
 40
40.06652553465386
 10
-27.49999725652837
 20
16.22882459593005
 30
0.0
 10
-21.98921134843859
 20
14.98641652073903
 30
0.0
 10
-16.48446878369837
 20
13.68873474338445
 30
0.0
 10
-10.98471094699774
 20
12.34354667715684
 30
0.0
 10
-5.49034901312943
 20
10.95883569597735
 30
0.0
 10
-0.0000000028627234
 20
9.542033787575185
 30
0.0
  0
LINE
  5
127
330
76
100
AcDbEntity
  8
0
 62
     7
370
    35
100
AcDbLine
 10
27.5
 20
3.282051
 30
0.0
 11
27.5
 21
2.198525
 31
0.0
  0
SPLINE
  5
128
330
76
100
AcDbEntity
  8
0
 62
     7
370
    35
100
AcDbSpline
210
0.0
220
0.0
230
1.0
 70
     8
 71
     5
 72
    12
 73
     6
 74
     0
 42
0.000000001
 43
0.0
 40
0.0
 40
0.0
 40
0.0
 40
0.0
 40
0.0
 40
0.0
 40
40.16962994795252
 40
40.16962994795252
 40
40.16962994795252
 40
40.16962994795252
 40
40.16962994795252
 40
40.16962994795252
 10
27.50000000186268
 20
3.282036742047111
 30
0.0
 10
22.0049827076181
 20
4.776231791074716
 30
0.0
 10
16.508522598576
 20
6.259441798564677
 30
0.0
 10
11.00939466699578
 20
7.723545159517837
 30
0.0
 10
5.506901761315827
 20
9.16023216738736
 30
0.0
 10
0.0000000028627127
 20
10.56115492067636
 30
0.0
  0
ARC
  5
129
330
76
100
AcDbEntity
  8
0
 62
     7
370
    35
100
AcDbCircle
 10
-194.713167
 20
-742.998277
 30
0.0
 40
778.2870710674829
100
AcDbArc
 50
76.316619
 51
77.593401
  0
ARC
  5
12A
330
76
100
AcDbEntity
  8
0
 62
     7
370
    35
100
AcDbCircle
 10
-247.918576
 20
-963.072904
 30
0.0
 40
1004.70226956954
100
AcDbArc
 50
75.714237
 51
76.337418
  0
LINE
  5
12B
330
76
100
AcDbEntity
  8
0
 62
     7
370
    35
100
AcDbLine
 10
-27.5
 20
17.113409
 30
0.0
 11
-27.5
 21
16.228832
 31
0.0
  0
LINE
  5
12C
330
76
100
AcDbEntity
  8
0
 62
     7
370
    35
100
AcDbLine
 10
27.5
 20
3.282037
 30
0.0
 11
27.5
 21
3.301098
 31
0.0
  0
ARC
  5
12D
330
76
100
AcDbEntity
  8
0
 62
     7
370
    35
100
AcDbCircle
 10
28.839997
 20
-6.848922
 30
0.0
 40
10.23732854572771
100
AcDbArc
 50
86.303282
 51
97.52065
  0
LINE
  5
12E
330
76
100
AcDbEntity
  8
0
 62
     7
370
    35
100
AcDbLine
 10
29.499983
 20
3.366341
 30
0.0
 11
29.5
 21
4.073749
 31
0.0
  0
ARC
  5
12F
330
76
100
AcDbEntity
  8
0
 62
     7
370
    35
100
AcDbCircle
 10
-27.803319
 20
8.516287
 30
0.0
 40
8.593477085967239
100
AcDbArc
 50
87.977298
 51
101.387544
  0
LINE
  5
130
330
76
100
AcDbEntity
  8
0
 62
     7
370
    35
100
AcDbLine
 10
-27.5
 20
20.175491
 30
0.0
 11
-27.5
 21
20.124318
 31
0.0
  0
ARC
  5
131
330
76
100
AcDbEntity
  8
0
 62
     7
370
    35
100
AcDbCircle
 10
-47.730001
 20
42.997224
 30
0.0
 40
30.53492107141598
100
AcDbArc
 50
306.657816
 51
311.491235
  0
LINE
  5
132
330
76
100
AcDbEntity
  8
0
 62
     7
370
    35
100
AcDbLine
 10
-29.5
 20
18.502211
 30
0.0
 11
-29.5
 21
16.940337
 31
0.0
  0
LINE
  5
133
330
76
100
AcDbEntity
  8
0
 62
     7
370
    35
100
AcDbLine
 10
29.5
 20
4.255954
 30
0.0
 11
29.499997
 21
5.435175
 31
0.0
  0
SPLINE
  5
134
330
76
100
AcDbEntity
  8
0
 62
     7
370
    35
100
AcDbSpline
210
0.0
220
0.0
230
1.0
 70
     8
 71
     5
 72
    15
 73
     9
 74
     0
 42
0.000000001
 43
0.0
 40
0.0
 40
0.0
 40
0.0
 40
0.0
 40
0.0
 40
0.0
 40
3.401682910352714
 40
3.401682910352714
 40
3.401682910352714
 40
4.817930400960698
 40
4.817930400960698
 40
4.817930400960698
 40
4.817930400960698
 40
4.817930400960698
 40
4.817930400960698
 10
27.50000000186265
 20
7.220879955686132
 30
0.0
 10
27.7776448489877
 20
6.938676826320743
 30
0.0
 10
28.05721916761287
 20
6.665432490396078
 30
0.0
 10
28.34195342551976
 20
6.399034700710803
 30
0.0
 10
28.74323097692971
 20
6.04161307840838
 30
0.0
 10
29.14548660875832
 20
5.711076337517371
 30
0.0
 10
29.26378462552661
 20
5.616362846771178
 30
0.0
 10
29.38207154549442
 20
5.524262126329768
 30
0.0
 10
29.50000000186265
 20
5.435179400298956
 30
0.0
  0
LINE
  5
135
330
76
100
AcDbEntity
  8
0
 62
     7
370
    35
100
AcDbLine
 10
27.5
 20
7.256879
 30
0.0
 11
27.5
 21
7.22088
 31
0.0
  0
SPLINE
  5
136
330
76
100
AcDbEntity
  8
0
 62
     7
370
    35
100
AcDbSpline
210
0.0
220
0.0
230
1.0
 70
     8
 71
     5
 72
    12
 73
     6
 74
     0
 42
0.000000001
 43
0.0
 40
0.0
 40
0.0
 40
0.0
 40
0.0
 40
0.0
 40
0.0
 40
40.11096955436912
 40
40.11096955436912
 40
40.11096955436912
 40
40.11096955436912
 40
40.11096955436912
 40
40.11096955436912
 10
0.0000000000000746
 20
14.20501496735435
 30
0.0
 10
5.509561036701983
 20
12.89590942901981
 30
0.0
 10
11.01355643696402
 20
11.53846601197306
 30
0.0
 10
16.51303623076313
 20
10.14076293573578
 30
0.0
 10
22.00807426905973
 20
8.71097887521767
 30
0.0
 10
27.49999725652846
 20
7.256879882132354
 30
0.0
  0
SPLINE
  5
137
330
76
100
AcDbEntity
  8
0
 62
     7
370
    35
100
AcDbSpline
210
0.0
220
0.0
230
1.0
 70
     8
 71
     5
 72
    12
 73
     6
 74
     0
 42
0.000000001
 43
0.0
 40
0.0
 40
0.0
 40
0.0
 40
0.0
 40
0.0
 40
0.0
 40
39.95322106380673
 40
39.95322106380673
 40
39.95322106380673
 40
39.95322106380673
 40
39.95322106380673
 40
39.95322106380673
 10
-27.49999725652852
 20
20.1754903485233
 30
0.0
 10
-21.98762773292719
 20
19.10549472996571
 30
0.0
 10
-16.48177038481485
 20
17.96631625814269
 30
0.0
 10
-10.98130800375282
 20
16.76497066406022
 30
0.0
 10
-5.487893028375565
 20
15.5089720538197
 30
0.0
 10
-0.0000000028627358
 20
14.20501496803458
 30
0.0
  0
LINE
  5
138
330
76
100
AcDbEntity
  8
0
 62
     7
370
    35
100
AcDbLine
 10
27.5
 20
8.304391
 30
0.0
 11
27.5
 21
7.256896
 31
0.0
  0
ARC
  5
139
330
76
100
AcDbEntity
  8
0
 62
     7
370
    35
100
AcDbCircle
 10
-188.895609
 20
-797.62106
 30
0.0
 40
834.4227445466488
100
AcDbArc
 50
76.340518
 51
76.91603
  0
ARC
  5
13A
330
76
100
AcDbEntity
  8
0
 62
     7
370
    35
100
AcDbCircle
 10
-255.152291
 20
-1067.345151
 30
0.0
 40
1112.165641501265
100
AcDbArc
 50
75.277032
 51
76.305121
  0
SPLINE
  5
13B
330
76
100
AcDbEntity
  8
0
 62
     7
370
    35
100
AcDbSpline
210
0.0
220
0.0
230
1.0
 70
     8
 71
     5
 72
    12
 73
     6
 74
     0
 42
0.000000001
 43
0.0
 40
0.0
 40
0.0
 40
0.0
 40
0.0
 40
0.0
 40
0.0
 40
39.92710634798952
 40
39.92710634798952
 40
39.92710634798952
 40
39.92710634798952
 40
39.92710634798952
 40
39.92710634798952
 10
-0.0000000000000799
 20
15.1394635079289
 30
0.0
 10
-5.487554940153863
 20
16.4140298500232
 30
0.0
 10
-10.98086889273946
 20
17.63742859294978
 30
0.0
 10
-16.48149678620156
 20
18.80314576342709
 30
0.0
 10
-21.98749578457218
 20
19.90380320527754
 30
0.0
 10
-27.50000000186263
 20
20.93258117474788
 30
0.0
  0
LINE
  5
13C
330
76
100
AcDbEntity
  8
0
 62
     7
370
    35
100
AcDbLine
 10
-27.5
 20
20.932594
 30
0.0
 11
-27.5
 21
20.175502
 31
0.0
  0
LINE
  5
13D
330
76
100
AcDbEntity
  8
0
 62
     7
370
    35
100
AcDbLine
 10
27.5
 20
8.304373
 30
0.0
 11
27.5
 21
8.314155
 31
0.0
  0
ARC
  5
13E
330
76
100
AcDbEntity
  8
0
 62
     7
370
    35
100
AcDbCircle
 10
26.895892
 20
-2.680792
 30
0.0
 40
11.01111193455299
100
AcDbArc
 50
76.640228
 51
86.855095
  0
LINE
  5
13F
330
76
100
AcDbEntity
  8
0
 62
     7
370
    35
100
AcDbLine
 10
29.440072
 20
8.031918
 30
0.0
 11
29.5
 21
8.017154
 31
0.0
  0
LINE
  5
140
330
76
100
AcDbEntity
  8
0
 62
     7
370
    35
100
AcDbLine
 10
29.500018
 20
8.016786
 30
0.0
 11
29.5
 21
8.43435
 31
0.0
  0
ARC
  5
141
330
76
100
AcDbEntity
  8
0
 62
     7
370
    35
100
AcDbCircle
 10
-25.384036
 20
10.110668
 30
0.0
 40
11.00920559674852
100
AcDbArc
 50
101.081293
 51
111.954043
  0
LINE
  5
142
330
76
100
AcDbEntity
  8
0
 62
     7
370
    35
100
AcDbLine
 10
-27.5
 20
23.4737
 30
0.0
 11
-27.5
 21
23.420416
 31
0.0
  0
ARC
  5
143
330
76
100
AcDbEntity
  8
0
 62
     7
370
    35
100
AcDbCircle
 10
-57.783923
 20
54.809624
 30
0.0
 40
43.61598943428949
100
AcDbArc
 50
310.427362
 51
313.973274
  0
LINE
  5
144
330
76
100
AcDbEntity
  8
0
 62
     7
370
    35
100
AcDbLine
 10
-29.5
 20
21.608284
 30
0.0
 11
-29.5
 21
20.321469
 31
0.0
  0
LINE
  5
145
330
76
100
AcDbEntity
  8
0
 62
     7
370
    35
100
AcDbLine
 10
29.5
 20
8.608157
 30
0.0
 11
29.499997
 21
9.990649
 31
0.0
  0
SPLINE
  5
146
330
76
100
AcDbEntity
  8
0
 62
     7
370
    35
100
AcDbSpline
210
0.0
220
0.0
230
1.0
 70
     8
 71
     5
 72
    15
 73
     9
 74
     0
 42
0.000000001
 43
0.0
 40
0.0
 40
0.0
 40
0.0
 40
0.0
 40
0.0
 40
0.0
 40
3.473101750353931
 40
3.473101750353931
 40
3.473101750353931
 40
4.918834915461542
 40
4.918834915461542
 40
4.918834915461542
 40
4.918834915461542
 40
4.918834915461542
 40
4.918834915461542
 10
27.50000000186265
 20
12.03945771799535
 30
0.0
 10
27.77752560851205
 20
11.72385153195505
 30
0.0
 10
28.05691478464725
 20
11.4159647923263
 30
0.0
 10
28.342236349059
 20
11.11237640017941
 30
0.0
 10
28.74320469994181
 20
10.70222149426339
 30
0.0
 10
29.14539479307707
 20
10.31645789150086
 30
0.0
 10
29.26368109088475
 20
10.20531241843408
 30
0.0
 10
29.38199425110482
 20
10.09656278910374
 30
0.0
 10
29.50000000186265
 20
9.990655142879644
 30
0.0
  0
LINE
  5
147
330
76
100
AcDbEntity
  8
0
 62
     7
370
    35
100
AcDbLine
 10
27.5
 20
12.082004
 30
0.0
 11
27.5
 21
12.039458
 31
0.0
  0
SPLINE
  5
148
330
76
100
AcDbEntity
  8
0
 62
     7
370
    35
100
AcDbSpline
210
0.0
220
0.0
230
1.0
 70
     8
 71
     5
 72
    12
 73
     6
 74
     0
 42
0.000000001
 43
0.0
 40
0.0
 40
0.0
 40
0.0
 40
0.0
 40
0.0
 40
0.0
 40
40.00843644469438
 40
40.00843644469438
 40
40.00843644469438
 40
40.00843644469438
 40
40.00843644469438
 40
40.00843644469438
 10
-0.0000000000000124
 20
18.41143527889642
 30
0.0
 10
5.511824629732629
 20
17.25658529075957
 30
0.0
 10
11.0172449818956
 20
16.03865840264126
 30
0.0
 10
16.51735336684756
 20
14.76513942839915
 30
0.0
 10
22.01111403296165
 20
13.44387482846983
 30
0.0
 10
27.49999725652876
 20
12.08200486849842
 30
0.0
  0
SPLINE
  5
149
330
76
100
AcDbEntity
  8
0
 62
     7
370
    35
100
AcDbSpline
210
0.0
220
0.0
230
1.0
 70
     8
 71
     5
 72
    12
 73
     6
 74
     0
 42
0.000000001
 43
0.0
 40
0.0
 40
0.0
 40
0.0
 40
0.0
 40
0.0
 40
0.0
 40
39.82762626015968
 40
39.82762626015968
 40
39.82762626015968
 40
39.82762626015968
 40
39.82762626015968
 40
39.82762626015968
 10
-27.49999725652844
 20
23.47369924086628
 30
0.0
 10
-21.98764497967462
 20
22.61086634461961
 30
0.0
 10
-16.48144116358695
 20
21.66703547627855
 30
0.0
 10
-10.98017659265643
 20
20.64818891288264
 30
0.0
 10
-5.486915035598321
 20
19.56106615238978
 30
0.0
 10
-0.000000002862711
 20
18.41143527949623
 30
0.0
  0
LINE
  5
14A
330
76
100
AcDbEntity
  8
0
 62
     7
370
    35
100
AcDbLine
 10
27.5
 20
13.059821
 30
0.0
 11
27.5
 21
12.082025
 31
0.0
  0
SPLINE
  5
14B
330
76
100
AcDbEntity
  8
0
 62
     7
370
    35
100
AcDbSpline
210
0.0
220
0.0
230
1.0
 70
     8
 71
     5
 72
    12
 73
     6
 74
     0
 42
0.000000001
 43
0.0
 40
0.0
 40
0.0
 40
0.0
 40
0.0
 40
0.0
 40
0.0
 40
48.15712567956172
 40
48.15712567956172
 40
48.15712567956172
 40
48.15712567956172
 40
48.15712567956172
 40
48.15712567956172
 10
26.91838114063272
 20
13.20127291889451
 30
0.0
 10
21.54208405238788
 20
14.50692622881559
 30
0.0
 10
16.16248638332711
 20
15.76971331804844
 30
0.0
 10
10.7786393422897
 20
16.98267382845267
 30
0.0
 10
5.391347198331163
 20
18.13846658268681
 30
0.0
 10
0.0
 20
19.23117728048353
 30
0.0
  0
LINE
  5
14C
330
76
100
AcDbEntity
  8
0
 62
     7
370
    35
100
AcDbLine
 10
27.500003
 20
13.05982
 30
0.0
 11
26.918381
 21
13.201273
 31
0.0
  0
SPLINE
  5
14D
330
76
100
AcDbEntity
  8
0
 62
     7
370
    35
100
AcDbSpline
210
0.0
220
0.0
230
1.0
 70
     8
 71
     5
 72
    12
 73
     6
 74
     0
 42
0.000000001
 43
0.0
 40
0.0
 40
0.0
 40
0.0
 40
0.0
 40
0.0
 40
0.0
 40
49.05060584198435
 40
49.05060584198435
 40
49.05060584198435
 40
49.05060584198435
 40
49.05060584198435
 40
49.05060584198435
 10
0.0000000000000053
 20
19.23117728048353
 30
0.0
 10
-5.491375215005316
 20
20.34416151657749
 30
0.0
 10
-10.98697110561608
 20
21.3915949040645
 30
0.0
 10
-16.48792026047325
 20
22.3672645746902
 30
0.0
 10
-21.9920124183421
 20
23.26462140443838
 30
0.0
 10
-27.50000274719308
 20
24.07898758821143
 30
0.0
  0
LINE
  5
14E
330
76
100
AcDbEntity
  8
0
 62
     7
370
    35
100
AcDbLine
 10
-27.5
 20
24.078987
 30
0.0
 11
-27.5
 21
23.473716
 31
0.0
  0
LINE
  5
14F
330
76
100
AcDbEntity
  8
0
 62
     7
370
    35
100
AcDbLine
 10
27.5
 20
13.059988
 30
0.0
 11
27.518792
 21
13.055439
 31
0.0
  0
ARC
  5
150
330
76
100
AcDbEntity
  8
0
 62
     7
370
    35
100
AcDbCircle
 10
24.427109
 20
0.183846
 30
0.0
 40
13.23740160183157
100
AcDbArc
 50
67.465907
 51
76.493741
  0
LINE
  5
151
330
76
100
AcDbEntity
  8
0
 62
     7
370
    35
100
AcDbLine
 10
29.499997
 20
12.410091
 30
0.0
 11
29.5
 21
12.523864
 31
0.0
  0
ARC
  5
152
330
76
100
AcDbEntity
  8
0
 62
     7
370
    35
100
AcDbCircle
 10
-21.156585
 20
8.906856
 30
0.0
 40
16.42030619078076
100
AcDbArc
 50
112.725771
 51
120.537962
  0
LINE
  5
153
330
76
100
AcDbEntity
  8
0
 62
     7
370
    35
100
AcDbLine
 10
-27.5
 20
26.017444
 30
0.0
 11
-27.5
 21
25.963762
 31
0.0
  0
ARC
  5
154
330
76
100
AcDbEntity
  8
0
 62
     7
370
    35
100
AcDbCircle
 10
-74.65407
 20
72.453898
 30
0.0
 40
66.21777394929244
100
AcDbArc
 50
312.992772
 51
315.406218
  0
LINE
  5
155
330
76
100
AcDbEntity
  8
0
 62
     7
370
    35
100
AcDbLine
 10
-29.5
 20
24.019849
 30
0.0
 11
-29.5
 21
23.049441
 31
0.0
  0
LINE
  5
156
330
76
100
AcDbEntity
  8
0
 62
     7
370
    35
100
AcDbLine
 10
29.5
 20
12.683686
 30
0.0
 11
29.499997
 21
14.225015
 31
0.0
  0
SPLINE
  5
157
330
76
100
AcDbEntity
  8
0
 62
     7
370
    35
100
AcDbSpline
210
0.0
220
0.0
230
1.0
 70
     8
 71
     5
 72
    15
 73
     9
 74
     0
 42
0.000000001
 43
0.0
 40
0.0
 40
0.0
 40
0.0
 40
0.0
 40
0.0
 40
0.0
 40
3.528704371042994
 40
3.528704371042994
 40
3.528704371042994
 40
5.000849661649569
 40
5.000849661649569
 40
5.000849661649569
 40
5.000849661649569
 40
5.000849661649569
 40
5.000849661649569
 10
27.50000000186265
 20
16.47107740314945
 30
0.0
 10
27.7776003320308
 20
16.13199953297326
 30
0.0
 10
28.05687375872833
 20
15.79933325275229
 30
0.0
 10
28.34295225730697
 20
15.46800196647175
 30
0.0
 10
28.74356482188854
 20
15.01844577227556
 30
0.0
 10
29.14527553499246
 20
14.59031002561214
 30
0.0
 10
29.26359437471809
 20
14.4662626426307
 30
0.0
 10
29.38194402992093
 20
14.34434398777601
 30
0.0
 10
29.50000000186265
 20
14.22502300882977
 30
0.0
  0
LINE
  5
158
330
76
100
AcDbEntity
  8
0
 62
     7
370
    35
100
AcDbLine
 10
27.5
 20
16.518804
 30
0.0
 11
27.5
 21
16.471077
 31
0.0
  0
SPLINE
  5
159
330
76
100
AcDbEntity
  8
0
 62
     7
370
    35
100
AcDbSpline
210
0.0
220
0.0
230
1.0
 70
     8
 71
     5
 72
    12
 73
     6
 74
     0
 42
0.000000001
 43
0.0
 40
0.0
 40
0.0
 40
0.0
 40
0.0
 40
0.0
 40
0.0
 40
39.88663397165701
 40
39.88663397165701
 40
39.88663397165701
 40
39.88663397165701
 40
39.88663397165701
 40
39.88663397165701
 10
-0.0000000000000071
 20
22.02609691159529
 30
0.0
 10
5.512568380801797
 20
21.06302820967846
 30
0.0
 10
11.01870579816506
 20
20.02399633930745
 30
0.0
 10
16.51958132080158
 20
18.91560479265374
 30
0.0
 10
22.01280794342782
 20
17.74509986194692
 30
0.0
 10
27.49999725652816
 20
16.51880427728439
 30
0.0
  0
SPLINE
  5
15A
330
76
100
AcDbEntity
  8
0
 62
     7
370
    35
100
AcDbSpline
210
0.0
220
0.0
230
1.0
 70
     8
 71
     5
 72
    12
 73
     6
 74
     0
 42
0.000000001
 43
0.0
 40
0.0
 40
0.0
 40
0.0
 40
0.0
 40
0.0
 40
0.0
 40
39.70571935730909
 40
39.70571935730909
 40
39.70571935730909
 40
39.70571935730909
 40
39.70571935730909
 40
39.70571935730909
 10
-27.49999725652835
 20
26.01744412538363
 30
0.0
 10
-21.98929004843297
 20
25.38969016147174
 30
0.0
 10
-16.48356772082884
 20
24.67171826879056
 30
0.0
 10
-10.98150258420704
 20
23.86822221577646
 30
0.0
 10
-5.487564915503167
 20
22.98479740374474
 30
0.0
 10
-0.0000000028627039
 20
22.02609691209542
 30
0.0
  0
LINE
  5
15B
330
76
100
AcDbEntity
  8
0
 62
     7
370
    35
100
AcDbLine
 10
27.5
 20
17.395498
 30
0.0
 11
27.5
 21
16.518828
 31
0.0
  0
SPLINE
  5
15C
330
76
100
AcDbEntity
  8
0
 62
     7
370
    35
100
AcDbSpline
210
0.0
220
0.0
230
1.0
 70
     8
 71
     5
 72
    12
 73
     6
 74
     0
 42
0.000000001
 43
0.0
 40
0.0
 40
0.0
 40
0.0
 40
0.0
 40
0.0
 40
0.0
 40
39.8597843402931
 40
39.8597843402931
 40
39.8597843402931
 40
39.8597843402931
 40
39.8597843402931
 40
39.8597843402931
 10
27.50000000186267
 20
17.3954727163193
 30
0.0
 10
22.01297067433891
 20
18.58785583841109
 30
0.0
 10
16.51975148769513
 20
19.7214146009666
 30
0.0
 10
11.01870328079544
 20
20.79002414572732
 30
0.0
 10
5.512515869211796
 20
21.78660784665739
 30
0.0
 10
0.000000002862711
 20
22.70478519136563
 30
0.0
  0
SPLINE
  5
15D
330
76
100
AcDbEntity
  8
0
 62
     7
370
    35
100
AcDbSpline
210
0.0
220
0.0
230
1.0
 70
     8
 71
     5
 72
    12
 73
     6
 74
     0
 42
0.000000001
 43
0.0
 40
0.0
 40
0.0
 40
0.0
 40
0.0
 40
0.0
 40
0.0
 40
39.68187294654844
 40
39.68187294654844
 40
39.68187294654844
 40
39.68187294654844
 40
39.68187294654844
 40
39.68187294654844
 10
-0.0000000000000657
 20
22.70478519184248
 30
0.0
 10
-5.487911132606884
 20
23.6188643153712
 30
0.0
 10
-10.98209435080422
 20
24.45523540180569
 30
0.0
 10
-16.48431922517296
 20
25.20950554942652
 30
0.0
 10
-21.98983601136653
 20
25.87637168347863
 30
0.0
 10
-27.50000000186266
 20
26.45144123743244
 30
0.0
  0
LINE
  5
15E
330
76
100
AcDbEntity
  8
0
 62
     7
370
    35
100
AcDbLine
 10
-27.5
 20
26.451462
 30
0.0
 11
-27.5
 21
26.017465
 31
0.0
  0
ARC
  5
15F
330
76
100
AcDbEntity
  8
0
 62
     7
370
    35
100
AcDbCircle
 10
20.747658
 20
1.089962
 30
0.0
 40
17.63943388711243
100
AcDbArc
 50
60.251925
 51
67.493169
  0
ARC
  5
160
330
76
100
AcDbEntity
  8
0
 62
     7
370
    35
100
AcDbCircle
 10
-12.748309
 20
2.903091
 30
0.0
 40
27.75818769336162
100
AcDbArc
 50
122.102824
 51
127.119656
  0
LINE
  5
161
330
76
100
AcDbEntity
  8
0
 62
     7
370
    35
100
AcDbLine
 10
-27.5
 20
27.724967
 30
0.0
 11
-27.5
 21
27.672612
 31
0.0
  0
ARC
  5
162
330
76
100
AcDbEntity
  8
0
 62
     7
370
    35
100
AcDbCircle
 10
-112.059884
 20
109.653411
 30
0.0
 40
117.7759605291787
100
AcDbArc
 50
314.50666
 51
315.887224
  0
LINE
  5
163
330
76
100
AcDbEntity
  8
0
 62
     7
370
    35
100
AcDbLine
 10
-29.5
 20
25.659397
 30
0.0
 11
-29.5
 21
25.036433
 31
0.0
  0
LINE
  5
164
330
76
100
AcDbEntity
  8
0
 62
     7
370
    35
100
AcDbLine
 10
29.5
 20
16.404387
 30
0.0
 11
29.499997
 21
18.002178
 31
0.0
  0
ARC
  5
165
330
76
100
AcDbEntity
  8
0
 62
     7
370
    35
100
AcDbCircle
 10
61.349041
 20
46.86635
 30
0.0
 40
42.9833618158527
100
AcDbArc
 50
218.049659
 51
222.185401
  0
LINE
  5
166
330
76
100
AcDbEntity
  8
0
 62
     7
370
    35
100
AcDbLine
 10
27.5
 20
20.424675
 30
0.0
 11
27.5
 21
20.373303
 31
0.0
  0
SPLINE
  5
167
330
76
100
AcDbEntity
  8
0
 62
     7
370
    35
100
AcDbSpline
210
0.0
220
0.0
230
1.0
 70
     8
 71
     5
 72
    12
 73
     6
 74
     0
 42
0.000000001
 43
0.0
 40
0.0
 40
0.0
 40
0.0
 40
0.0
 40
0.0
 40
0.0
 40
39.76099441990043
 40
39.76099441990043
 40
39.76099441990043
 40
39.76099441990043
 40
39.76099441990043
 40
39.76099441990043
 10
0.0000000000001013
 20
24.93282166642251
 30
0.0
 10
5.511669090102657
 20
24.192764652242
 30
0.0
 10
11.01771158482318
 20
23.36623197908331
 30
0.0
 10
16.51940196561177
 20
22.45867132442734
 30
0.0
 10
22.01292096968943
 20
21.47638140471464
 30
0.0
 10
27.49999725652916
 20
20.42467572488066
 30
0.0
  0
SPLINE
  5
168
330
76
100
AcDbEntity
  8
0
 62
     7
370
    35
100
AcDbSpline
210
0.0
220
0.0
230
1.0
 70
     8
 71
     5
 72
    12
 73
     6
 74
     0
 42
0.000000001
 43
0.0
 40
0.0
 40
0.0
 40
0.0
 40
0.0
 40
0.0
 40
0.0
 40
39.60314851597499
 40
39.60314851597499
 40
39.60314851597499
 40
39.60314851597499
 40
39.60314851597499
 40
39.60314851597499
 10
-27.4999972565283
 20
27.72496694848699
 30
0.0
 10
-21.99237338226143
 20
27.35241951115503
 30
0.0
 10
-16.48791468546622
 20
26.88345222537103
 30
0.0
 10
-10.98515899034182
 20
26.32126937548362
 30
0.0
 10
-5.489788493592281
 20
25.66994075220854
 30
0.0
 10
-0.0000000028626861
 20
24.93282166680691
 30
0.0
  0
LINE
  5
169
330
76
100
AcDbEntity
  8
0
 62
     7
370
    35
100
AcDbLine
 10
27.5
 20
21.172069
 30
0.0
 11
27.5
 21
20.424702
 31
0.0
  0
SPLINE
  5
16A
330
76
100
AcDbEntity
  8
0
 62
     7
370
    35
100
AcDbSpline
210
0.0
220
0.0
230
1.0
 70
     8
 71
     5
 72
    12
 73
     6
 74
     0
 42
0.000000001
 43
0.0
 40
0.0
 40
0.0
 40
0.0
 40
0.0
 40
0.0
 40
0.0
 40
48.99744641334424
 40
48.99744641334424
 40
48.99744641334424
 40
48.99744641334424
 40
48.99744641334424
 40
48.99744641334424
 10
27.50000274719382
 20
21.17206848928226
 30
0.0
 10
22.00839354554336
 20
22.18318381411222
 30
0.0
 10
16.51256256771401
 20
23.12200757761444
 30
0.0
 10
11.01132968469604
 20
23.98278177663823
 30
0.0
 10
5.507407369897571
 20
24.75963566320593
 30
0.0
 10
0.0000000000000018
 20
25.4486426255
 30
0.0
  0
SPLINE
  5
16B
330
76
100
AcDbEntity
  8
0
 62
     7
370
    35
100
AcDbSpline
210
0.0
220
0.0
230
1.0
 70
     8
 71
     5
 72
    12
 73
     6
 74
     0
 42
0.000000001
 43
0.0
 40
0.0
 40
0.0
 40
0.0
 40
0.0
 40
0.0
 40
0.0
 40
48.87572930420929
 40
48.87572930420929
 40
48.87572930420929
 40
48.87572930420929
 40
48.87572930420929
 40
48.87572930420929
 10
0.0000000000000036
 20
25.44864262549998
 30
0.0
 10
-5.493726132344413
 20
26.13593798970554
 30
0.0
 10
-10.99092957578197
 20
26.7357561390075
 30
0.0
 10
-16.49282067939922
 20
27.24411804125907
 30
0.0
 10
-21.99552639370525
 20
27.65737593643357
 30
0.0
 10
-27.50000274719383
 20
27.97376565859112
 30
0.0
  0
LINE
  5
16C
330
76
100
AcDbEntity
  8
0
 62
     7
370
    35
100
AcDbLine
 10
-27.5
 20
27.973766
 30
0.0
 11
-27.5
 21
27.724991
 31
0.0
  0
ARC
  5
16D
330
76
100
AcDbEntity
  8
0
 62
     7
370
    35
100
AcDbCircle
 10
14.912482
 20
-0.696039
 30
0.0
 40
25.21572573102905
100
AcDbArc
 50
54.65397
 51
60.053569
  0
ARC
  5
16E
330
76
100
AcDbEntity
  8
0
 62
     7
370
    35
100
AcDbCircle
 10
6.965982
 20
-14.325391
 30
0.0
 40
54.53106926808728
100
AcDbArc
 50
129.201208
 51
131.968084
  0
LINE
  5
16F
330
76
100
AcDbEntity
  8
0
 62
     7
370
    35
100
AcDbLine
 10
-27.5
 20
28.541387
 30
0.0
 11
-27.5
 21
28.492041
 31
0.0
  0
ARC
  5
170
330
76
100
AcDbEntity
  8
0
 62
     7
370
    35
100
AcDbCircle
 10
-328.554336
 20
324.852709
 30
0.0
 40
422.4491440208527
100
AcDbArc
 50
315.064817
 51
315.450142
  0
LINE
  5
171
330
76
100
AcDbEntity
  8
0
 62
     7
370
    35
100
AcDbLine
 10
-29.5
 20
26.474231
 30
0.0
 11
-29.5
 21
26.219029
 31
0.0
  0
LINE
  5
172
330
76
100
AcDbEntity
  8
0
 62
     7
370
    35
100
AcDbLine
 10
29.5
 20
19.871354
 30
0.0
 11
29.499997
 21
21.200736
 31
0.0
  0
ARC
  5
173
330
76
100
AcDbEntity
  8
0
 62
     7
370
    35
100
AcDbCircle
 10
73.499111
 20
59.570196
 30
0.0
 40
58.37986339235565
100
AcDbArc
 50
218.008536
 51
221.090075
  0
LINE
  5
174
330
76
100
AcDbEntity
  8
0
 62
     7
370
    35
100
AcDbLine
 10
27.5
 20
23.674081
 30
0.0
 11
27.5
 21
23.620714
 31
0.0
  0
SPLINE
  5
175
330
76
100
AcDbEntity
  8
0
 62
     7
370
    35
100
AcDbSpline
210
0.0
220
0.0
230
1.0
 70
     8
 71
     5
 72
    12
 73
     6
 74
     0
 42
0.000000001
 43
0.0
 40
0.0
 40
0.0
 40
0.0
 40
0.0
 40
0.0
 40
0.0
 40
39.64757863133546
 40
39.64757863133546
 40
39.64757863133546
 40
39.64757863133546
 40
39.64757863133546
 40
39.64757863133546
 10
0.0
 20
27.03818501809691
 30
0.0
 10
5.509215316652833
 20
26.54498829021396
 30
0.0
 10
11.01434642414955
 20
25.95764432090363
 30
0.0
 10
16.51679348526719
 20
25.28021104359228
 30
0.0
 10
22.01140985689494
 20
24.5176518888751
 30
0.0
 10
27.4999972565294
 20
23.67408128920026
 30
0.0
  0
ARC
  5
176
330
76
100
AcDbEntity
  8
0
 62
     7
370
    35
100
AcDbCircle
 10
-35.202001
 20
-364.276197
 30
0.0
 40
392.8938041653493
100
AcDbArc
 50
84.859602
 51
88.876741
  0
LINE
  5
177
330
76
100
AcDbEntity
  8
0
 62
     7
370
    35
100
AcDbLine
 10
27.5
 20
24.268152
 30
0.0
 11
27.5
 21
23.674109
 31
0.0
  0
SPLINE
  5
178
330
76
100
AcDbEntity
  8
0
 62
     7
370
    35
100
AcDbSpline
210
0.0
220
0.0
230
1.0
 70
     8
 71
     5
 72
    12
 73
     6
 74
     0
 42
0.000000001
 43
0.0
 40
0.0
 40
0.0
 40
0.0
 40
0.0
 40
0.0
 40
0.0
 40
48.90920605764576
 40
48.90920605764576
 40
48.90920605764576
 40
48.90920605764576
 40
48.90920605764576
 40
48.90920605764576
 10
27.50000274719377
 20
24.26815209361968
 30
0.0
 10
22.00716569619593
 20
25.06457654043863
 30
0.0
 10
16.51050124016347
 20
25.77777007351284
 30
0.0
 10
11.00879232291167
 20
26.40311097227699
 30
0.0
 10
5.505591459744421
 20
26.93619833916246
 30
0.0
 10
0.0
 20
27.37455974599975
 30
0.0
  0
ARC
  5
179
330
76
100
AcDbEntity
  8
0
 62
     7
370
    35
100
AcDbCircle
 10
-31.023696
 20
-360.218695
 30
0.0
 40
388.8321981824886
100
AcDbArc
 50
85.423694
 51
89.480764
  0
LINE
  5
17A
330
76
100
AcDbEntity
  8
0
 62
     7
370
    35
100
AcDbLine
 10
-27.5
 20
28.596969
 30
0.0
 11
-27.5
 21
28.541413
 31
0.0
  0
ARC
  5
17B
330
76
100
AcDbEntity
  8
0
 62
     7
370
    35
100
AcDbCircle
 10
5.080723
 20
-6.935473
 30
0.0
 40
38.40012297572586
100
AcDbArc
 50
50.51181
 51
54.27951
  0
ARC
  5
17C
330
76
100
AcDbEntity
  8
0
 62
     7
370
    35
100
AcDbCircle
 10
64.86899
 20
-66.088512
 30
0.0
 40
132.2440735475668
100
AcDbArc
 50
134.304686
 51
135.03374
  0
LINE
  5
17D
330
76
100
AcDbEntity
  8
0
 62
     7
370
    35
100
AcDbLine
 10
29.500075
 20
22.699687
 30
0.0
 11
29.499997
 21
23.717885
 31
0.0
  0
ARC
  5
17E
330
76
100
AcDbEntity
  8
0
 62
     7
370
    35
100
AcDbCircle
 10
95.12641
 20
80.608452
 30
0.0
 40
86.8529870047673
100
AcDbArc
 50
218.865029
 51
220.921529
  0
LINE
  5
17F
330
76
100
AcDbEntity
  8
0
 62
     7
370
    35
100
AcDbLine
 10
27.5
 20
26.162582
 30
0.0
 11
27.5
 21
26.108936
 31
0.0
  0
SPLINE
  5
180
330
76
100
AcDbEntity
  8
0
 62
     7
370
    35
100
AcDbSpline
210
0.0
220
0.0
230
1.0
 70
     8
 71
     5
 72
    12
 73
     6
 74
     0
 42
0.000000001
 43
0.0
 40
0.0
 40
0.0
 40
0.0
 40
0.0
 40
0.0
 40
0.0
 40
48.85611882459187
 40
48.85611882459187
 40
48.85611882459187
 40
48.85611882459187
 40
48.85611882459187
 40
48.85611882459187
 10
-0.0000000000000036
 20
28.27451885614882
 30
0.0
 10
5.503613139933991
 20
28.04393029720054
 30
0.0
 10
11.00592744483965
 20
27.71541894727396
 30
0.0
 10
16.50792595159936
 20
27.29023992345501
 30
0.0
 10
22.00554458195914
 20
26.77143826282196
 30
0.0
 10
27.50000000186266
 20
26.1626112826108
 30
0.0
  0
ARC
  5
181
330
76
100
AcDbEntity
  8
0
 62
     7
370
    35
100
AcDbCircle
 10
-16.078622
 20
-354.857827
 30
0.0
 40
383.4695230681078
100
AcDbArc
 50
87.596922
 51
89.997423
  0
ARC
  5
182
330
76
100
AcDbEntity
  8
0
 62
     7
370
    35
100
AcDbCircle
 10
-16.059677
 20
-353.574724
 30
0.0
 40
382.1863758678132
100
AcDbArc
 50
90.000255
 51
91.108732
  0
LINE
  5
183
330
76
100
AcDbEntity
  8
0
 62
     7
370
    35
100
AcDbLine
 10
-12.084594
 20
28.61165
 30
0.0
 11
-16.061375
 21
28.61165
 31
0.0
  0
ARC
  5
184
330
76
100
AcDbEntity
  8
0
 62
     7
370
    35
100
AcDbCircle
 10
-12.091942
 20
-354.153782
 30
0.0
 40
382.7654471418371
100
AcDbArc
 50
88.189668
 51
89.9989
  0
ARC
  5
185
330
76
100
AcDbEntity
  8
0
 62
     7
370
    35
100
AcDbCircle
 10
-12.720643
 20
-368.49492
 30
0.0
 40
397.1202133330133
100
AcDbArc
 50
84.187086
 51
88.164371
  0
ARC
  5
186
330
76
100
AcDbEntity
  8
0
 62
     7
370
    35
100
AcDbCircle
 10
-13.687194
 20
-22.538108
 30
0.0
 40
64.07742895727596
100
AcDbArc
 50
47.624571
 51
50.001214
  0
LINE
  5
187
330
76
100
AcDbEntity
  8
0
 62
     7
370
    35
100
AcDbLine
 10
29.499981
 20
24.797892
 30
0.0
 11
29.499997
 21
25.472721
 31
0.0
  0
ARC
  5
188
330
76
100
AcDbEntity
  8
0
 62
     7
370
    35
100
AcDbCircle
 10
162.855431
 20
144.142749
 30
0.0
 40
178.5115081805404
100
AcDbArc
 50
220.690441
 51
221.665171
  0
LINE
  5
189
330
76
100
AcDbEntity
  8
0
 62
     7
370
    35
100
AcDbLine
 10
27.5
 20
27.810196
 30
0.0
 11
27.5
 21
27.757995
 31
0.0
  0
ARC
  5
18A
330
76
100
AcDbEntity
  8
0
 62
     7
370
    35
100
AcDbCircle
 10
2.612608
 20
-357.910579
 30
0.0
 40
386.5225018297823
100
AcDbArc
 50
86.308292
 51
89.98666
  0
ARC
  5
18B
330
76
100
AcDbEntity
  8
0
 62
     7
370
    35
100
AcDbCircle
 10
2.688622
 20
-351.427017
 30
0.0
 40
380.0386138130178
100
AcDbArc
 50
89.997893
 51
90.405348
  0
ARC
  5
18C
330
76
100
AcDbEntity
  8
0
 62
     7
370
    35
100
AcDbCircle
 10
2.699441
 20
-352.371454
 30
0.0
 40
380.9831057544518
100
AcDbArc
 50
90.40597
 51
91.110999
  0
LINE
  5
18D
330
76
100
AcDbEntity
  8
0
 62
     7
370
    35
100
AcDbLine
 10
6.67946
 20
28.61165
 30
0.0
 11
2.702594
 21
28.61165
 31
0.0
  0
ARC
  5
18E
330
76
100
AcDbEntity
  8
0
 62
     7
370
    35
100
AcDbCircle
 10
6.623284
 20
-356.807114
 30
0.0
 40
385.4186601938368
100
AcDbArc
 50
86.89498
 51
89.991648
  0
ARC
  5
18F
330
76
100
AcDbEntity
  8
0
 62
     7
370
    35
100
AcDbCircle
 10
-63.687002
 20
-69.808348
 30
0.0
 40
133.7247411890402
100
AcDbArc
 50
45.824611
 51
47.00766
  0
LINE
  5
190
330
76
100
AcDbEntity
  8
0
 62
     7
370
    35
100
AcDbLine
 10
29.499998
 20
26.099849
 30
0.0
 11
29.499997
 21
26.408843
 31
0.0
  0
ARC
  5
191
330
76
100
AcDbEntity
  8
0
 62
     7
370
    35
100
AcDbCircle
 10
-344.642502
 20
-326.756944
 30
0.0
 40
514.4980866626686
100
AcDbArc
 50
43.347958
 51
43.671397
  0
LINE
  5
192
330
76
100
AcDbEntity
  8
0
 62
     7
370
    35
100
AcDbLine
 10
27.5
 20
28.563968
 30
0.0
 11
27.5
 21
28.514889
 31
0.0
  0
ARC
  5
193
330
76
100
AcDbEntity
  8
0
 62
     7
370
    35
100
AcDbCircle
 10
21.486272
 20
-353.012679
 30
0.0
 40
381.6240345050997
100
AcDbArc
 50
89.097082
 51
90.002971
  0
ARC
  5
194
330
76
100
AcDbEntity
  8
0
 62
     7
370
    35
100
AcDbCircle
 10
21.487881
 20
-354.634835
 30
0.0
 40
383.2461951937033
100
AcDbArc
 50
90.003198
 51
91.108503
  0
LINE
  5
195
330
76
100
AcDbEntity
  8
0
 62
     7
370
    35
100
AcDbLine
 10
25.443345
 20
28.61165
 30
0.0
 11
21.46649
 21
28.61165
 31
0.0
  0
ARC
  5
196
330
76
100
AcDbEntity
  8
0
 62
     7
370
    35
100
AcDbCircle
 10
25.44331
 20
-353.263869
 30
0.0
 40
381.8755184705611
100
AcDbArc
 50
89.691417
 51
89.999995
  0
LINE
  5
197
330
76
100
AcDbEntity
  8
0
 62
     7
370
    35
100
AcDbLine
 10
27.5
 20
28.558846
 30
0.0
 11
29.5
 21
26.563139
 31
0.0
  0
LINE
  5
198
330
76
100
AcDbEntity
  8
0
 62
     7
370
    35
100
AcDbLine
 10
-27.5
 20
-28.558846
 30
0.0
 11
-29.5
 21
-26.563139
 31
0.0
  0
ARC
  5
199
330
76
100
AcDbEntity
  8
0
 62
     7
370
    35
100
AcDbCircle
 10
-25.44331
 20
353.263869
 30
0.0
 40
381.8755185014467
100
AcDbArc
 50
269.691417
 51
269.999995
  0
LINE
  5
19A
330
76
100
AcDbEntity
  8
0
 62
     7
370
    35
100
AcDbLine
 10
-25.443345
 20
-28.61165
 30
0.0
 11
-21.46649
 21
-28.61165
 31
0.0
  0
ARC
  5
19B
330
76
100
AcDbEntity
  8
0
 62
     7
370
    35
100
AcDbCircle
 10
-21.486272
 20
353.012679
 30
0.0
 40
381.6240342126795
100
AcDbArc
 50
269.097081
 51
270.002971
  0
LINE
  5
19C
330
76
100
AcDbEntity
  8
0
 62
     7
370
    35
100
AcDbLine
 10
-27.5
 20
-28.563996
 30
0.0
 11
-27.5
 21
-28.606112
 31
0.0
  0
ARC
  5
19D
330
76
100
AcDbEntity
  8
0
 62
     7
370
    35
100
AcDbCircle
 10
-21.487869
 20
354.633208
 30
0.0
 40
383.2445680011031
100
AcDbArc
 50
270.003197
 51
271.106727
  0
LINE
  5
19E
330
76
100
AcDbEntity
  8
0
 62
     7
370
    35
100
AcDbLine
 10
-29.5
 20
-26.100324
 30
0.0
 11
-29.5
 21
-26.408781
 31
0.0
  0
ARC
  5
19F
330
76
100
AcDbEntity
  8
0
 62
     7
370
    35
100
AcDbCircle
 10
344.642502
 20
326.756944
 30
0.0
 40
514.4980866335212
100
AcDbArc
 50
223.347958
 51
223.671397
  0
LINE
  5
1A0
330
76
100
AcDbEntity
  8
0
 62
     7
370
    35
100
AcDbLine
 10
-27.5
 20
-28.563968
 30
0.0
 11
-27.5
 21
-28.514889
 31
0.0
  0
ARC
  5
1A1
330
76
100
AcDbEntity
  8
0
 62
     7
370
    35
100
AcDbCircle
 10
63.687002
 20
69.808348
 30
0.0
 40
133.7247411940403
100
AcDbArc
 50
225.824611
 51
227.00766
  0
ARC
  5
1A2
330
76
100
AcDbEntity
  8
0
 62
     7
370
    35
100
AcDbCircle
 10
-6.641685
 20
355.949429
 30
0.0
 40
384.5612247924308
100
AcDbArc
 50
266.890795
 51
269.994372
  0
LINE
  5
1A3
330
76
100
AcDbEntity
  8
0
 62
     7
370
    35
100
AcDbLine
 10
-6.67946
 20
-28.61165
 30
0.0
 11
-2.702594
 21
-28.61165
 31
0.0
  0
ARC
  5
1A4
330
76
100
AcDbEntity
  8
0
 62
     7
370
    35
100
AcDbCircle
 10
-2.638711
 20
357.082917
 30
0.0
 40
385.6948697497465
100
AcDbArc
 50
266.304244
 51
269.99051
  0
LINE
  5
1A5
330
76
100
AcDbEntity
  8
0
 62
     7
370
    35
100
AcDbLine
 10
-27.5
 20
-27.810225
 30
0.0
 11
-27.5
 21
-28.045883
 31
0.0
  0
ARC
  5
1A6
330
76
100
AcDbEntity
  8
0
 62
     7
370
    35
100
AcDbCircle
 10
-2.702668
 20
353.278527
 30
0.0
 40
381.8901772191658
100
AcDbArc
 50
270.000011
 51
270.40549
  0
ARC
  5
1A7
330
76
100
AcDbEntity
  8
0
 62
     7
370
    35
100
AcDbCircle
 10
-2.70733
 20
353.806368
 30
0.0
 40
382.4180385587188
100
AcDbArc
 50
270.405629
 51
271.109063
  0
LINE
  5
1A8
330
76
100
AcDbEntity
  8
0
 62
     7
370
    35
100
AcDbLine
 10
-29.5
 20
-24.798541
 30
0.0
 11
-29.5
 21
-25.472646
 31
0.0
  0
ARC
  5
1A9
330
76
100
AcDbEntity
  8
0
 62
     7
370
    35
100
AcDbCircle
 10
-162.855431
 20
-144.142749
 30
0.0
 40
178.5115081885043
100
AcDbArc
 50
40.690441
 51
41.665171
  0
LINE
  5
1AA
330
76
100
AcDbEntity
  8
0
 62
     7
370
    35
100
AcDbLine
 10
-27.5
 20
-27.810196
 30
0.0
 11
-27.5
 21
-27.757995
 31
0.0
  0
ARC
  5
1AB
330
76
100
AcDbEntity
  8
0
 62
     7
370
    35
100
AcDbCircle
 10
-5.080723
 20
6.935473
 30
0.0
 40
38.40012297713499
100
AcDbArc
 50
230.51181
 51
234.27951
  0
ARC
  5
1AC
330
76
100
AcDbEntity
  8
0
 62
     7
370
    35
100
AcDbCircle
 10
-64.862068
 20
66.081485
 30
0.0
 40
132.2342094319042
100
AcDbArc
 50
314.304666
 51
315.033547
  0
ARC
  5
1AD
330
76
100
AcDbEntity
  8
0
 62
     7
370
    35
100
AcDbCircle
 10
31.054742
 20
360.942219
 30
0.0
 40
389.5559619393559
100
AcDbArc
 50
265.427633
 51
269.477161
  0
SPLINE
  5
1AE
330
76
100
AcDbEntity
  8
0
 62
     7
370
    35
100
AcDbSpline
210
0.0
220
0.0
230
1.0
 70
     8
 71
     5
 72
    12
 73
     6
 74
     0
 42
0.000000001
 43
0.0
 40
0.0
 40
0.0
 40
0.0
 40
0.0
 40
0.0
 40
0.0
 40
39.62654715190337
 40
39.62654715190337
 40
39.62654715190337
 40
39.62654715190337
 40
39.62654715190337
 40
39.62654715190337
 10
-27.49999725652883
 20
-24.26812415537119
 30
0.0
 10
-22.01089297289901
 20
-25.06387029051535
 30
0.0
 10
-16.51595109520415
 20
-25.77645233145925
 30
0.0
 10
-11.01336145470947
 20
-26.40203355313636
 30
0.0
 10
-5.508520526837417
 20
-26.93598244070454
 30
0.0
 10
-0.0000000028627092
 20
-27.37455974581847
 30
0.0
  0
LINE
  5
1AF
330
76
100
AcDbEntity
  8
0
 62
     7
370
    35
100
AcDbLine
 10
27.5
 20
-28.541413
 30
0.0
 11
27.5
 21
-28.596969
 31
0.0
  0
ARC
  5
1B0
330
76
100
AcDbEntity
  8
0
 62
     7
370
    35
100
AcDbCircle
 10
35.202001
 20
364.276196
 30
0.0
 40
392.8938029093736
100
AcDbArc
 50
264.859602
 51
268.876742
  0
SPLINE
  5
1B1
330
76
100
AcDbEntity
  8
0
 62
     7
370
    35
100
AcDbSpline
210
0.0
220
0.0
230
1.0
 70
     8
 71
     5
 72
    12
 73
     6
 74
     0
 42
0.000000001
 43
0.0
 40
0.0
 40
0.0
 40
0.0
 40
0.0
 40
0.0
 40
0.0
 40
39.64758259667082
 40
39.64758259667082
 40
39.64758259667082
 40
39.64758259667082
 40
39.64758259667082
 40
39.64758259667082
 10
-0.0000000000000941
 20
-27.03818501809686
 30
0.0
 10
-5.509215867653579
 20
-26.54498824087269
 30
0.0
 10
-11.01434752542124
 20
-25.9576442038307
 30
0.0
 10
-16.51679513615376
 20
-25.28021084029709
 30
0.0
 10
-22.01141205569508
 20
-24.51765158368123
 30
0.0
 10
-27.50000000186264
 20
-23.67408086724467
 30
0.0
  0
LINE
  5
1B2
330
76
100
AcDbEntity
  8
0
 62
     7
370
    35
100
AcDbLine
 10
-27.5
 20
-23.674109
 30
0.0
 11
-27.5
 21
-24.268152
 31
0.0
  0
LINE
  5
1B3
330
76
100
AcDbEntity
  8
0
 62
     7
370
    35
100
AcDbLine
 10
27.5
 20
-28.541387
 30
0.0
 11
27.5
 21
-28.492041
 31
0.0
  0
ARC
  5
1B4
330
76
100
AcDbEntity
  8
0
 62
     7
370
    35
100
AcDbCircle
 10
328.554336
 20
-324.852709
 30
0.0
 40
422.4491439878716
100
AcDbArc
 50
135.064817
 51
135.450142
  0
LINE
  5
1B5
330
76
100
AcDbEntity
  8
0
 62
     7
370
    35
100
AcDbLine
 10
29.499983
 20
-26.47423
 30
0.0
 11
29.5
 21
-26.219302
 31
0.0
  0
LINE
  5
1B6
330
76
100
AcDbEntity
  8
0
 62
     7
370
    35
100
AcDbLine
 10
-29.5
 20
-19.87156
 30
0.0
 11
-29.5
 21
-21.200643
 31
0.0
  0
ARC
  5
1B7
330
76
100
AcDbEntity
  8
0
 62
     7
370
    35
100
AcDbCircle
 10
-73.499111
 20
-59.570196
 30
0.0
 40
58.37986339474391
100
AcDbArc
 50
38.008536
 51
41.090075
  0
LINE
  5
1B8
330
76
100
AcDbEntity
  8
0
 62
     7
370
    35
100
AcDbLine
 10
-27.5
 20
-23.674081
 30
0.0
 11
-27.5
 21
-23.620714
 31
0.0
  0
ARC
  5
1B9
330
76
100
AcDbEntity
  8
0
 62
     7
370
    35
100
AcDbCircle
 10
-14.912482
 20
0.696039
 30
0.0
 40
25.21572573198871
100
AcDbArc
 50
234.65397
 51
240.053569
  0
ARC
  5
1BA
330
76
100
AcDbEntity
  8
0
 62
     7
370
    35
100
AcDbCircle
 10
-6.965982
 20
14.325391
 30
0.0
 40
54.53106926616512
100
AcDbArc
 50
309.201208
 51
311.968084
  0
SPLINE
  5
1BB
330
76
100
AcDbEntity
  8
0
 62
     7
370
    35
100
AcDbSpline
210
0.0
220
0.0
230
1.0
 70
     8
 71
     5
 72
    12
 73
     6
 74
     0
 42
0.000000001
 43
0.0
 40
0.0
 40
0.0
 40
0.0
 40
0.0
 40
0.0
 40
0.0
 40
48.87572442981024
 40
48.87572442981024
 40
48.87572442981024
 40
48.87572442981024
 40
48.87572442981024
 40
48.87572442981024
 10
-0.0000000000000142
 20
-25.44864262550001
 30
0.0
 10
5.493725584452283
 20
-26.13593792116222
 30
0.0
 10
10.99092847943674
 20
-26.73575601935253
 30
0.0
 10
16.49281903331605
 20
-27.24411788914905
 30
0.0
 10
21.99552419804206
 20
-27.6573757715271
 30
0.0
 10
27.50000000186266
 20
-27.97376550078978
 30
0.0
  0
SPLINE
  5
1BC
330
76
100
AcDbEntity
  8
0
 62
     7
370
    35
100
AcDbSpline
210
0.0
220
0.0
230
1.0
 70
     8
 71
     5
 72
    12
 73
     6
 74
     0
 42
0.000000001
 43
0.0
 40
0.0
 40
0.0
 40
0.0
 40
0.0
 40
0.0
 40
0.0
 40
48.99744151507648
 40
48.99744151507648
 40
48.99744151507648
 40
48.99744151507648
 40
48.99744151507648
 40
48.99744151507648
 10
-27.50000000186265
 20
-21.17206899474608
 30
0.0
 10
-22.00839134750029
 20
-22.18318418957113
 30
0.0
 10
-16.51256091780314
 20
-23.12200783573993
 30
0.0
 10
-11.01132858437654
 20
-23.98278193197695
 30
0.0
 10
-5.507406819322792
 20
-24.75963573208492
 30
0.0
 10
-0.0000000000000107
 20
-25.44864262550001
 30
0.0
  0
LINE
  5
1BD
330
76
100
AcDbEntity
  8
0
 62
     7
370
    35
100
AcDbLine
 10
27.5
 20
-27.724991
 30
0.0
 11
27.5
 21
-27.973766
 31
0.0
  0
SPLINE
  5
1BE
330
76
100
AcDbEntity
  8
0
 62
     7
370
    35
100
AcDbSpline
210
0.0
220
0.0
230
1.0
 70
     8
 71
     5
 72
    12
 73
     6
 74
     0
 42
0.000000001
 43
0.0
 40
0.0
 40
0.0
 40
0.0
 40
0.0
 40
0.0
 40
0.0
 40
39.60315246300534
 40
39.60315246300534
 40
39.60315246300534
 40
39.60315246300534
 40
39.60315246300534
 40
39.60315246300534
 10
27.50000000186266
 20
-27.72496713419403
 30
0.0
 10
21.99237557742153
 20
-27.35241969819853
 30
0.0
 10
16.48791633073474
 20
-26.8834523934815
 30
0.0
 10
10.9851600858134
 20
-26.32126950534045
 30
0.0
 10
5.489789040728215
 20
-25.66994082568718
 30
0.0
 10
0.0000000028626985
 20
-24.93282166680682
 30
0.0
  0
SPLINE
  5
1BF
330
76
100
AcDbEntity
  8
0
 62
     7
370
    35
100
AcDbSpline
210
0.0
220
0.0
230
1.0
 70
     8
 71
     5
 72
    12
 73
     6
 74
     0
 42
0.000000001
 43
0.0
 40
0.0
 40
0.0
 40
0.0
 40
0.0
 40
0.0
 40
0.0
 40
39.76099839788672
 40
39.76099839788672
 40
39.76099839788672
 40
39.76099839788672
 40
39.76099839788672
 40
39.76099839788672
 10
-0.0000000000001048
 20
-24.93282166642243
 30
0.0
 10
-5.511669641529698
 20
-24.19276457818698
 30
0.0
 10
-11.01771268655141
 20
-23.36623181367
 30
0.0
 10
-16.51940361686215
 20
-22.45867105201449
 30
0.0
 10
-22.01292316862593
 20
-21.47638101148177
 30
0.0
 10
-27.50000000186264
 20
-20.42467519867129
 30
0.0
  0
LINE
  5
1C0
330
76
100
AcDbEntity
  8
0
 62
     7
370
    35
100
AcDbLine
 10
-27.5
 20
-20.424702
 30
0.0
 11
-27.5
 21
-21.172069
 31
0.0
  0
LINE
  5
1C1
330
76
100
AcDbEntity
  8
0
 62
     7
370
    35
100
AcDbLine
 10
27.5
 20
-27.724967
 30
0.0
 11
27.5
 21
-27.672612
 31
0.0
  0
ARC
  5
1C2
330
76
100
AcDbEntity
  8
0
 62
     7
370
    35
100
AcDbCircle
 10
112.059884
 20
-109.653411
 30
0.0
 40
117.7759605217365
100
AcDbArc
 50
134.50666
 51
135.887224
  0
LINE
  5
1C3
330
76
100
AcDbEntity
  8
0
 62
     7
370
    35
100
AcDbLine
 10
29.499983
 20
-25.659323
 30
0.0
 11
29.499996
 21
-25.036267
 31
0.0
  0
LINE
  5
1C4
330
76
100
AcDbEntity
  8
0
 62
     7
370
    35
100
AcDbLine
 10
-29.5
 20
-16.404524
 30
0.0
 11
-29.5
 21
-18.00208
 31
0.0
  0
ARC
  5
1C5
330
76
100
AcDbEntity
  8
0
 62
     7
370
    35
100
AcDbCircle
 10
-61.349041
 20
-46.86635
 30
0.0
 40
42.98336181730298
100
AcDbArc
 50
38.049659
 51
42.185401
  0
LINE
  5
1C6
330
76
100
AcDbEntity
  8
0
 62
     7
370
    35
100
AcDbLine
 10
-27.5
 20
-20.424675
 30
0.0
 11
-27.5
 21
-20.373303
 31
0.0
  0
ARC
  5
1C7
330
76
100
AcDbEntity
  8
0
 62
     7
370
    35
100
AcDbCircle
 10
-20.747658
 20
-1.089962
 30
0.0
 40
17.63943388778772
100
AcDbArc
 50
240.251925
 51
247.493169
  0
ARC
  5
1C8
330
76
100
AcDbEntity
  8
0
 62
     7
370
    35
100
AcDbCircle
 10
12.748309
 20
-2.903091
 30
0.0
 40
27.75818769240058
100
AcDbArc
 50
302.102824
 51
307.119656
  0
SPLINE
  5
1C9
330
76
100
AcDbEntity
  8
0
 62
     7
370
    35
100
AcDbSpline
210
0.0
220
0.0
230
1.0
 70
     8
 71
     5
 72
    12
 73
     6
 74
     0
 42
0.000000001
 43
0.0
 40
0.0
 40
0.0
 40
0.0
 40
0.0
 40
0.0
 40
0.0
 40
39.68186899335765
 40
39.68186899335765
 40
39.68186899335765
 40
39.68186899335765
 40
39.68186899335765
 40
39.68186899335765
 10
-0.0000000000000249
 20
-22.70478519184248
 30
0.0
 10
5.487910585889562
 20
-23.61886422431619
 30
0.0
 10
10.98209325594518
 20
-24.45523523489448
 30
0.0
 10
16.48431758058386
 20
-25.20950532397956
 30
0.0
 10
21.98983381682411
 20
-25.87637141765026
 30
0.0
 10
27.49999725652839
 20
-26.45144095091116
 30
0.0
  0
SPLINE
  5
1CA
330
76
100
AcDbEntity
  8
0
 62
     7
370
    35
100
AcDbSpline
210
0.0
220
0.0
230
1.0
 70
     8
 71
     5
 72
    12
 73
     6
 74
     0
 42
0.000000001
 43
0.0
 40
0.0
 40
0.0
 40
0.0
 40
0.0
 40
0.0
 40
0.0
 40
39.85978035222129
 40
39.85978035222129
 40
39.85978035222129
 40
39.85978035222129
 40
39.85978035222129
 40
39.85978035222129
 10
-27.49999725652888
 20
-17.3954733128921
 30
0.0
 10
-22.0129684755119
 20
-18.5878562921057
 30
0.0
 10
-16.51974983661352
 20
-19.72141492165786
 30
0.0
 10
-11.01870217889123
 20
-20.79002434516684
 30
0.0
 10
-5.512515317670616
 20
-21.78660793851588
 30
0.0
 10
-0.0000000028627234
 20
-22.70478519136566
 30
0.0
  0
LINE
  5
1CB
330
76
100
AcDbEntity
  8
0
 62
     7
370
    35
100
AcDbLine
 10
27.5
 20
-26.017465
 30
0.0
 11
27.5
 21
-26.451462
 31
0.0
  0
SPLINE
  5
1CC
330
76
100
AcDbEntity
  8
0
 62
     7
370
    35
100
AcDbSpline
210
0.0
220
0.0
230
1.0
 70
     8
 71
     5
 72
    12
 73
     6
 74
     0
 42
0.000000001
 43
0.0
 40
0.0
 40
0.0
 40
0.0
 40
0.0
 40
0.0
 40
0.0
 40
48.97337733382371
 40
48.97337733382371
 40
48.97337733382371
 40
48.97337733382371
 40
48.97337733382371
 40
48.97337733382371
 10
27.50000274719356
 20
-26.01746494703852
 30
0.0
 10
21.99296372584546
 20
-25.39025366948523
 30
0.0
 10
16.48917795299416
 20
-24.67314560449026
 30
0.0
 10
10.98781664622812
 20
-23.86973602523864
 30
0.0
 10
5.491817962503902
 20
-22.98557831229235
 30
0.0
 10
-0.0000000000000089
 20
-22.02609691155772
 30
0.0
  0
SPLINE
  5
1CD
330
76
100
AcDbEntity
  8
0
 62
     7
370
    35
100
AcDbSpline
210
0.0
220
0.0
230
1.0
 70
     8
 71
     5
 72
    12
 73
     6
 74
     0
 42
0.000000001
 43
0.0
 40
0.0
 40
0.0
 40
0.0
 40
0.0
 40
0.0
 40
0.0
 40
49.12016576498316
 40
49.12016576498316
 40
49.12016576498316
 40
49.12016576498316
 40
49.12016576498316
 40
49.12016576498316
 10
0.0000000000000018
 20
-22.02609691155772
 30
0.0
 10
-5.5082786476114
 20
-21.06373964689026
 30
0.0
 10
-11.01236356266502
 20
-20.02569898325755
 30
0.0
 10
-16.51294730114347
 20
-18.91744443843317
 30
0.0
 10
-22.0084643250761
 20
-17.74619887003421
 30
0.0
 10
-27.50000274719409
 20
-16.51882752521823
 30
0.0
  0
LINE
  5
1CE
330
76
100
AcDbEntity
  8
0
 62
     7
370
    35
100
AcDbLine
 10
-27.5
 20
-16.518828
 30
0.0
 11
-27.5
 21
-17.395498
 31
0.0
  0
LINE
  5
1CF
330
76
100
AcDbEntity
  8
0
 62
     7
370
    35
100
AcDbLine
 10
27.5
 20
-26.017444
 30
0.0
 11
27.5
 21
-25.963762
 31
0.0
  0
ARC
  5
1D0
330
76
100
AcDbEntity
  8
0
 62
     7
370
    35
100
AcDbCircle
 10
74.65407
 20
-72.453898
 30
0.0
 40
66.2177739447888
100
AcDbArc
 50
132.992772
 51
135.406218
  0
LINE
  5
1D1
330
76
100
AcDbEntity
  8
0
 62
     7
370
    35
100
AcDbLine
 10
29.499983
 20
-24.019768
 30
0.0
 11
29.50003
 21
-23.049187
 31
0.0
  0
LINE
  5
1D2
330
76
100
AcDbEntity
  8
0
 62
     7
370
    35
100
AcDbLine
 10
-29.5
 20
-12.683686
 30
0.0
 11
-29.5
 21
-14.224916
 31
0.0
  0
SPLINE
  5
1D3
330
76
100
AcDbEntity
  8
0
 62
     7
370
    35
100
AcDbSpline
210
0.0
220
0.0
230
1.0
 70
     8
 71
     5
 72
    15
 73
     9
 74
     0
 42
0.000000001
 43
0.0
 40
0.0
 40
0.0
 40
0.0
 40
0.0
 40
0.0
 40
0.0
 40
3.528704372545052
 40
3.528704372545052
 40
3.528704372545052
 40
5.000849663158268
 40
5.000849663158268
 40
5.000849663158268
 40
5.000849663158268
 40
5.000849663158268
 40
5.000849663158268
 10
-27.50000000186266
 20
-16.47107740313831
 30
0.0
 10
-27.77760033215083
 20
-16.13199953282002
 30
0.0
 10
-28.05687375896876
 20
-15.79933325246173
 30
0.0
 10
-28.34295225706634
 20
-15.4680019667382
 30
0.0
 10
-28.74356482177043
 20
-15.01844577239856
 30
0.0
 10
-29.14527553499198
 20
-14.59031002561086
 30
0.0
 10
-29.26359437471658
 20
-14.46626264263074
 30
0.0
 10
-29.38194402992015
 20
-14.34434398777604
 30
0.0
 10
-29.50000000186266
 20
-14.22502300882975
 30
0.0
  0
LINE
  5
1D4
330
76
100
AcDbEntity
  8
0
 62
     7
370
    35
100
AcDbLine
 10
-27.5
 20
-16.518804
 30
0.0
 11
-27.5
 21
-16.471077
 31
0.0
  0
LINE
  5
1D5
330
76
100
AcDbEntity
  8
0
 62
     7
370
    35
100
AcDbLine
 10
-27.5
 20
-13.059988
 30
0.0
 11
-27.518792
 21
-13.055439
 31
0.0
  0
ARC
  5
1D6
330
76
100
AcDbEntity
  8
0
 62
     7
370
    35
100
AcDbCircle
 10
-24.427109
 20
-0.183846
 30
0.0
 40
13.23740160238886
100
AcDbArc
 50
247.465907
 51
256.493741
  0
LINE
  5
1D7
330
76
100
AcDbEntity
  8
0
 62
     7
370
    35
100
AcDbLine
 10
-29.5
 20
-12.410243
 30
0.0
 11
-29.5
 21
-12.523864
 31
0.0
  0
ARC
  5
1D8
330
76
100
AcDbEntity
  8
0
 62
     7
370
    35
100
AcDbCircle
 10
21.156585
 20
-8.906856
 30
0.0
 40
16.42030619011086
100
AcDbArc
 50
292.725771
 51
300.537962
  0
SPLINE
  5
1D9
330
76
100
AcDbEntity
  8
0
 62
     7
370
    35
100
AcDbSpline
210
0.0
220
0.0
230
1.0
 70
     8
 71
     5
 72
    12
 73
     6
 74
     0
 42
0.000000001
 43
0.0
 40
0.0
 40
0.0
 40
0.0
 40
0.0
 40
0.0
 40
0.0
 40
49.05060095297145
 40
49.05060095297145
 40
49.05060095297145
 40
49.05060095297145
 40
49.05060095297145
 40
49.05060095297145
 10
-0.0000000000000053
 20
-19.23117728048352
 30
0.0
 10
5.491374667664044
 20
-20.3441614056447
 30
0.0
 10
10.98697001022572
 20
-21.39159469528291
 30
0.0
 10
16.48791861559639
 20
-22.36726428294136
 30
0.0
 10
21.99201022356023
 20
-23.26462104657622
 30
0.0
 10
27.50000000186266
 20
-24.07898718229899
 30
0.0
  0
SPLINE
  5
1DA
330
76
100
AcDbEntity
  8
0
 62
     7
370
    35
100
AcDbSpline
210
0.0
220
0.0
230
1.0
 70
     8
 71
     5
 72
    12
 73
     6
 74
     0
 42
0.000000001
 43
0.0
 40
0.0
 40
0.0
 40
0.0
 40
0.0
 40
0.0
 40
0.0
 40
48.15712569117712
 40
48.15712569117712
 40
48.15712569117712
 40
48.15712569117712
 40
48.15712569117712
 40
48.15712569117712
 10
-26.9183811471143
 20
-13.20127291730795
 30
0.0
 10
-21.54208405756922
 20
-14.50692622756237
 30
0.0
 10
-16.16248638720662
 20
-15.7697133170757
 30
0.0
 10
-10.77863934475953
 20
-16.98267382782776
 30
0.0
 10
-5.391347199631426
 20
-18.13846658242175
 30
0.0
 10
-0.0000000000000018
 20
-19.23117728048353
 30
0.0
  0
LINE
  5
1DB
330
76
100
AcDbEntity
  8
0
 62
     7
370
    35
100
AcDbLine
 10
-27.5
 20
-13.059821
 30
0.0
 11
-26.918381
 21
-13.201273
 31
0.0
  0
LINE
  5
1DC
330
76
100
AcDbEntity
  8
0
 62
     7
370
    35
100
AcDbLine
 10
27.5
 20
-23.473716
 30
0.0
 11
27.5
 21
-24.078987
 31
0.0
  0
SPLINE
  5
1DD
330
76
100
AcDbEntity
  8
0
 62
     7
370
    35
100
AcDbSpline
210
0.0
220
0.0
230
1.0
 70
     8
 71
     5
 72
    12
 73
     6
 74
     0
 42
0.000000001
 43
0.0
 40
0.0
 40
0.0
 40
0.0
 40
0.0
 40
0.0
 40
0.0
 40
39.82763022654382
 40
39.82763022654382
 40
39.82763022654382
 40
39.82763022654382
 40
39.82763022654382
 40
39.82763022654382
 10
27.50000000186267
 20
-23.47369967058764
 30
0.0
 10
21.98764717359373
 20
-22.61086672069023
 30
0.0
 10
16.48144280713946
 20
-21.66703578072733
 30
0.0
 10
10.98017768687523
 20
-20.64818912943759
 30
0.0
 10
5.486915582031646
 20
-19.56106626689237
 30
0.0
 10
0.0000000028626896
 20
-18.41143527949623
 30
0.0
  0
SPLINE
  5
1DE
330
76
100
AcDbEntity
  8
0
 62
     7
370
    35
100
AcDbSpline
210
0.0
220
0.0
230
1.0
 70
     8
 71
     5
 72
    12
 73
     6
 74
     0
 42
0.000000001
 43
0.0
 40
0.0
 40
0.0
 40
0.0
 40
0.0
 40
0.0
 40
0.0
 40
40.00844044654802
 40
40.00844044654802
 40
40.00844044654802
 40
40.00844044654802
 40
40.00844044654802
 40
40.00844044654802
 10
-0.0000000000000675
 20
-18.41143527889643
 30
0.0
 10
-5.511825181052568
 20
-17.25658517523311
 30
0.0
 10
-11.0172460830765
 20
-16.03865815828114
 30
0.0
 10
-16.51735501721465
 20
-14.76513904619664
 30
0.0
 10
-22.01111623121115
 20
-13.44387429973377
 30
0.0
 10
-27.50000000186265
 20
-12.08200418732709
 30
0.0
  0
LINE
  5
1DF
330
76
100
AcDbEntity
  8
0
 62
     7
370
    35
100
AcDbLine
 10
-27.5
 20
-12.082025
 30
0.0
 11
-27.5
 21
-13.059821
 31
0.0
  0
LINE
  5
1E0
330
76
100
AcDbEntity
  8
0
 62
     7
370
    35
100
AcDbLine
 10
27.5
 20
-23.4737
 30
0.0
 11
27.5
 21
-23.420416
 31
0.0
  0
ARC
  5
1E1
330
76
100
AcDbEntity
  8
0
 62
     7
370
    35
100
AcDbCircle
 10
57.783923
 20
-54.809624
 30
0.0
 40
43.61598943136904
100
AcDbArc
 50
130.427362
 51
133.973274
  0
LINE
  5
1E2
330
76
100
AcDbEntity
  8
0
 62
     7
370
    35
100
AcDbLine
 10
29.499983
 20
-21.608197
 30
0.0
 11
29.500014
 21
-20.190715
 31
0.0
  0
LINE
  5
1E3
330
76
100
AcDbEntity
  8
0
 62
     7
370
    35
100
AcDbLine
 10
-29.5
 20
-8.608157
 30
0.0
 11
-29.499997
 21
-9.990601
 31
0.0
  0
SPLINE
  5
1E4
330
76
100
AcDbEntity
  8
0
 62
     7
370
    35
100
AcDbSpline
210
0.0
220
0.0
230
1.0
 70
     8
 71
     5
 72
    15
 73
     9
 74
     0
 42
0.000000001
 43
0.0
 40
0.0
 40
0.0
 40
0.0
 40
0.0
 40
0.0
 40
0.0
 40
3.473101750428352
 40
3.473101750428352
 40
3.473101750428352
 40
4.918834915542141
 40
4.918834915542141
 40
4.918834915542141
 40
4.918834915542141
 40
4.918834915542141
 40
4.918834915542141
 10
-27.50000000186265
 20
-12.03945771798305
 30
0.0
 10
-27.77752560851994
 20
-11.7238515319388
 30
0.0
 10
-28.05691478466312
 20
-11.41596479230609
 30
0.0
 10
-28.34223634904465
 20
-11.11237640018856
 30
0.0
 10
-28.74320469993533
 20
-10.70222149426708
 30
0.0
 10
-29.14539479307581
 20
-10.31645789149988
 30
0.0
 10
-29.26368109088345
 20
-10.20531241843411
 30
0.0
 10
-29.38199425110406
 20
-10.09656278910359
 30
0.0
 10
-29.50000000186265
 20
-9.990655142879625
 30
0.0
  0
LINE
  5
1E5
330
76
100
AcDbEntity
  8
0
 62
     7
370
    35
100
AcDbLine
 10
-27.5
 20
-12.082004
 30
0.0
 11
-27.5
 21
-12.039458
 31
0.0
  0
LINE
  5
1E6
330
76
100
AcDbEntity
  8
0
 62
     7
370
    35
100
AcDbLine
 10
-27.5
 20
-8.304373
 30
0.0
 11
-27.5
 21
-8.314155
 31
0.0
  0
ARC
  5
1E7
330
76
100
AcDbEntity
  8
0
 62
     7
370
    35
100
AcDbCircle
 10
-26.895892
 20
2.680792
 30
0.0
 40
11.0111119350305
100
AcDbArc
 50
256.640228
 51
266.855095
  0
LINE
  5
1E8
330
76
100
AcDbEntity
  8
0
 62
     7
370
    35
100
AcDbLine
 10
-29.440072
 20
-8.031918
 30
0.0
 11
-29.5
 21
-8.017154
 31
0.0
  0
LINE
  5
1E9
330
76
100
AcDbEntity
  8
0
 62
     7
370
    35
100
AcDbLine
 10
-29.5
 20
-8.017106
 30
0.0
 11
-29.5
 21
-8.43435
 31
0.0
  0
ARC
  5
1EA
330
76
100
AcDbEntity
  8
0
 62
     7
370
    35
100
AcDbCircle
 10
25.384036
 20
-10.110668
 30
0.0
 40
11.00920559630297
100
AcDbArc
 50
281.081293
 51
291.954043
  0
SPLINE
  5
1EB
330
76
100
AcDbEntity
  8
0
 62
     7
370
    35
100
AcDbSpline
210
0.0
220
0.0
230
1.0
 70
     8
 71
     5
 72
    12
 73
     6
 74
     0
 42
0.000000001
 43
0.0
 40
0.0
 40
0.0
 40
0.0
 40
0.0
 40
0.0
 40
0.0
 40
49.15303195353778
 40
49.15303195353778
 40
49.15303195353778
 40
49.15303195353778
 40
49.15303195353778
 40
49.15303195353778
 10
-0.0000000000000089
 20
-15.13946350790314
 30
0.0
 10
5.491777792228101
 20
-16.41506103507367
 30
0.0
 10
10.9873504415152
 20
-17.63923539008874
 30
0.0
 10
16.48776157909006
 20
-18.80495656556824
 30
0.0
 10
21.9917510308472
 20
-19.9047022665006
 30
0.0
 10
27.50000000186265
 20
-20.93259368269078
 30
0.0
  0
ARC
  5
1EC
330
76
100
AcDbEntity
  8
0
 62
     7
370
    35
100
AcDbCircle
 10
189.370396
 20
799.667692
 30
0.0
 40
836.5237219413332
100
AcDbArc
 50
256.342023
 51
256.916088
  0
ARC
  5
1ED
330
76
100
AcDbEntity
  8
0
 62
     7
370
    35
100
AcDbCircle
 10
254.570879
 20
1065.024121
 30
0.0
 40
1109.773061645108
100
AcDbArc
 50
255.275609
 51
256.305916
  0
LINE
  5
1EE
330
76
100
AcDbEntity
  8
0
 62
     7
370
    35
100
AcDbLine
 10
27.5
 20
-20.175502
 30
0.0
 11
27.5
 21
-20.932594
 31
0.0
  0
SPLINE
  5
1EF
330
76
100
AcDbEntity
  8
0
 62
     7
370
    35
100
AcDbSpline
210
0.0
220
0.0
230
1.0
 70
     8
 71
     5
 72
    12
 73
     6
 74
     0
 42
0.000000001
 43
0.0
 40
0.0
 40
0.0
 40
0.0
 40
0.0
 40
0.0
 40
0.0
 40
49.1742554081927
 40
49.1742554081927
 40
49.1742554081927
 40
49.1742554081927
 40
49.1742554081927
 40
49.1742554081927
 10
27.50000274719384
 20
-20.17550290921202
 30
0.0
 10
21.99183797331456
 20
-19.10641139583046
 30
0.0
 10
16.48793925271022
 20
-17.96812968022041
 30
0.0
 10
10.98763760713699
 20
-16.76676274648224
 30
0.0
 10
5.491998563290835
 20
-15.50999907920589
 30
0.0
 10
0.0000000000000071
 20
-14.20501496733024
 30
0.0
  0
SPLINE
  5
1F0
330
76
100
AcDbEntity
  8
0
 62
     7
370
    35
100
AcDbSpline
210
0.0
220
0.0
230
1.0
 70
     8
 71
     5
 72
    12
 73
     6
 74
     0
 42
0.000000001
 43
0.0
 40
0.0
 40
0.0
 40
0.0
 40
0.0
 40
0.0
 40
0.0
 40
49.30250530597816
 40
49.30250530597816
 40
49.30250530597816
 40
49.30250530597816
 40
49.30250530597816
 40
49.30250530597816
 10
-0.0000000000000018
 20
-14.20501496733024
 30
0.0
 10
-5.506322079702962
 20
-12.89662736560868
 30
0.0
 10
-11.00900102518977
 20
-11.53989216707199
 30
0.0
 10
-16.50864738600923
 20
-10.14211127249342
 30
0.0
 10
-22.00535490259655
 20
-8.711775788469948
 30
0.0
 10
-27.5000027471934
 20
-7.256895742677695
 30
0.0
  0
LINE
  5
1F1
330
76
100
AcDbEntity
  8
0
 62
     7
370
    35
100
AcDbLine
 10
-27.5
 20
-7.256896
 30
0.0
 11
-27.5
 21
-8.304391
 31
0.0
  0
LINE
  5
1F2
330
76
100
AcDbEntity
  8
0
 62
     7
370
    35
100
AcDbLine
 10
27.5
 20
-20.175491
 30
0.0
 11
27.5
 21
-20.124318
 31
0.0
  0
ARC
  5
1F3
330
76
100
AcDbEntity
  8
0
 62
     7
370
    35
100
AcDbCircle
 10
47.730001
 20
-42.997224
 30
0.0
 40
30.53492106943088
100
AcDbArc
 50
126.657816
 51
131.491235
  0
LINE
  5
1F4
330
76
100
AcDbEntity
  8
0
 62
     7
370
    35
100
AcDbLine
 10
29.499983
 20
-18.502121
 30
0.0
 11
29.5
 21
-16.840095
 31
0.0
  0
LINE
  5
1F5
330
76
100
AcDbEntity
  8
0
 62
     7
370
    35
100
AcDbLine
 10
-29.5
 20
-4.255954
 30
0.0
 11
-29.5
 21
-5.435082
 31
0.0
  0
SPLINE
  5
1F6
330
76
100
AcDbEntity
  8
0
 62
     7
370
    35
100
AcDbSpline
210
0.0
220
0.0
230
1.0
 70
     8
 71
     5
 72
    15
 73
     9
 74
     0
 42
0.000000001
 43
0.0
 40
0.0
 40
0.0
 40
0.0
 40
0.0
 40
0.0
 40
0.0
 40
3.401682909811571
 40
3.401682909811571
 40
3.401682909811571
 40
4.817930400424284
 40
4.817930400424284
 40
4.817930400424284
 40
4.817930400424284
 40
4.817930400424284
 40
4.817930400424284
 10
-27.50000000186265
 20
-7.220879955672954
 30
0.0
 10
-27.77764484894552
 20
-6.938676826355815
 30
0.0
 10
-28.05721916752694
 20
-6.665432490474944
 30
0.0
 10
-28.34195342560594
 20
-6.399034700627269
 30
0.0
 10
-28.7432309769733
 20
-6.041613078370325
 30
0.0
 10
-29.14548660875653
 20
-5.711076337516232
 30
0.0
 10
-29.26378462552541
 20
-5.616362846770572
 30
0.0
 10
-29.38207154549377
 20
-5.524262126329349
 30
0.0
 10
-29.50000000186265
 20
-5.435179400298911
 30
0.0
  0
LINE
  5
1F7
330
76
100
AcDbEntity
  8
0
 62
     7
370
    35
100
AcDbLine
 10
-27.5
 20
-7.256879
 30
0.0
 11
-27.5
 21
-7.22088
 31
0.0
  0
LINE
  5
1F8
330
76
100
AcDbEntity
  8
0
 62
     7
370
    35
100
AcDbLine
 10
-27.5
 20
-3.282037
 30
0.0
 11
-27.5
 21
-3.301098
 31
0.0
  0
ARC
  5
1F9
330
76
100
AcDbEntity
  8
0
 62
     7
370
    35
100
AcDbCircle
 10
-28.839997
 20
6.848922
 30
0.0
 40
10.2373285462137
100
AcDbArc
 50
266.303282
 51
277.52065
  0
LINE
  5
1FA
330
76
100
AcDbEntity
  8
0
 62
     7
370
    35
100
AcDbLine
 10
-29.5
 20
-3.366281
 30
0.0
 11
-29.5
 21
-4.073749
 31
0.0
  0
ARC
  5
1FB
330
76
100
AcDbEntity
  8
0
 62
     7
370
    35
100
AcDbCircle
 10
27.803319
 20
-8.516287
 30
0.0
 40
8.59347708558387
100
AcDbArc
 50
267.977298
 51
281.387544
  0
ARC
  5
1FC
330
76
100
AcDbEntity
  8
0
 62
     7
370
    35
100
AcDbCircle
 10
194.379343
 20
741.601674
 30
0.0
 40
776.8513552190486
100
AcDbArc
 50
256.316178
 51
257.595317
  0
ARC
  5
1FD
330
76
100
AcDbEntity
  8
0
 62
     7
370
    35
100
AcDbCircle
 10
248.051454
 20
963.525324
 30
0.0
 40
1005.173484250431
100
AcDbArc
 50
255.713261
 51
256.336153
  0
SPLINE
  5
1FE
330
76
100
AcDbEntity
  8
0
 62
     7
370
    35
100
AcDbSpline
210
0.0
220
0.0
230
1.0
 70
     8
 71
     5
 72
    12
 73
     6
 74
     0
 42
0.000000001
 43
0.0
 40
0.0
 40
0.0
 40
0.0
 40
0.0
 40
0.0
 40
0.0
 40
49.35023356790785
 40
49.35023356790785
 40
49.35023356790785
 40
49.35023356790785
 40
49.35023356790785
 40
49.35023356790785
 10
-27.50000000186266
 20
-3.28205056690495
 30
0.0
 10
-22.00330416170905
 20
-4.77674175311847
 30
0.0
 10
-16.50565269665518
 20
-6.260323973134899
 30
0.0
 10
-11.00624704104959
 20
-7.724576404032574
 30
0.0
 10
-5.504567681426328
 20
-9.160770651503116
 30
0.0
 10
0.0000000000000053
 20
-10.56115492138671
 30
0.0
  0
LINE
  5
1FF
330
76
100
AcDbEntity
  8
0
 62
     7
370
    35
100
AcDbLine
 10
27.5
 20
-16.228832
 30
0.0
 11
27.5
 21
-17.113409
 31
0.0
  0
SPLINE
  5
200
330
76
100
AcDbEntity
  8
0
 62
     7
370
    35
100
AcDbSpline
210
0.0
220
0.0
230
1.0
 70
     8
 71
     5
 72
    12
 73
     6
 74
     0
 42
0.000000001
 43
0.0
 40
0.0
 40
0.0
 40
0.0
 40
0.0
 40
0.0
 40
0.0
 40
40.06652952638957
 40
40.06652952638957
 40
40.06652952638957
 40
40.06652952638957
 40
40.06652952638957
 40
40.06652952638957
 10
27.50000000186265
 20
-16.22882521486327
 30
0.0
 10
21.98921354234144
 20
-14.98641703791709
 30
0.0
 10
16.48447042746308
 20
-13.68873514540997
 30
0.0
 10
10.98471204186483
 20
-12.34354695315281
 30
0.0
 10
5.490349560118601
 20
-10.95883583713907
 30
0.0
 10
0.0000000028626825
 20
-9.542033787575216
 30
0.0
  0
SPLINE
  5
201
330
76
100
AcDbEntity
  8
0
 62
     7
370
    35
100
AcDbSpline
210
0.0
220
0.0
230
1.0
 70
     8
 71
     5
 72
    12
 73
     6
 74
     0
 42
0.000000001
 43
0.0
 40
0.0
 40
0.0
 40
0.0
 40
0.0
 40
0.0
 40
0.0
 40
40.18135040577528
 40
40.18135040577528
 40
40.18135040577528
 40
40.18135040577528
 40
40.18135040577528
 40
40.18135040577528
 10
-0.0000000000000799
 20
-9.542033786836463
 30
0.0
 10
-5.506083556973062
 20
-8.121171528921465
 30
0.0
 10
-11.0081311628311
 20
-6.668034204033759
 30
0.0
 10
-16.50718935983411
 20
-5.191013797370856
 30
0.0
 10
-22.00407879745757
 20
-3.698441119054621
 30
0.0
 10
-27.50000000186265
 20
-2.198512056110566
 30
0.0
  0
LINE
  5
202
330
76
100
AcDbEntity
  8
0
 62
     7
370
    35
100
AcDbLine
 10
-27.5
 20
-2.198525
 30
0.0
 11
-27.5
 21
-3.282051
 31
0.0
  0
LINE
  5
203
330
76
100
AcDbEntity
  8
0
 62
     7
370
    35
100
AcDbLine
 10
27.5
 20
-16.228825
 30
0.0
 11
27.5
 21
-16.181408
 31
0.0
  0
ARC
  5
204
330
76
100
AcDbEntity
  8
0
 62
     7
370
    35
100
AcDbCircle
 10
41.035023
 20
-33.631138
 30
0.0
 40
22.08285294912443
100
AcDbArc
 50
121.491511
 51
127.799231
  0
LINE
  5
205
330
76
100
AcDbEntity
  8
0
 62
     7
370
    35
100
AcDbLine
 10
29.499983
 20
-14.801372
 30
0.0
 11
29.5
 21
-13.241159
 31
0.0
  0
LINE
  5
206
330
76
100
AcDbEntity
  8
0
 62
     7
370
    35
100
AcDbLine
 10
-29.5
 20
0.233039
 30
0.0
 11
-29.5
 21
-0.704925
 31
0.0
  0
SPLINE
  5
207
330
76
100
AcDbEntity
  8
0
 62
     7
370
    35
100
AcDbSpline
210
0.0
220
0.0
230
1.0
 70
     8
 71
     5
 72
    15
 73
     9
 74
     0
 42
0.000000001
 43
0.0
 40
0.0
 40
0.0
 40
0.0
 40
0.0
 40
0.0
 40
0.0
 40
3.323434831794508
 40
3.323434831794508
 40
3.323434831794508
 40
4.710811538726581
 40
4.710811538726581
 40
4.710811538726581
 40
4.710811538726581
 40
4.710811538726581
 40
4.710811538726581
 10
-27.50000000186265
 20
-2.170217170227794
 30
0.0
 10
-27.77801766215291
 20
-1.930301220395371
 30
0.0
 10
-28.05788288674211
 20
-1.700463923110078
 30
0.0
 10
-28.34209730930086
 20
-1.47962472941046
 30
0.0
 10
-28.74364058014203
 20
-1.186578503698579
 30
0.0
 10
-29.14553550964139
 20
-0.9221895411850403
 30
0.0
 10
-29.26389333202096
 20
-0.8469263102504783
 30
0.0
 10
-29.38216886012347
 20
-0.7744191817850418
 30
0.0
 10
-29.50000000186265
 20
-0.705012519712073
 30
0.0
  0
LINE
  5
208
330
76
100
AcDbEntity
  8
0
 62
     7
370
    35
100
AcDbLine
 10
-27.5
 20
-2.198512
 30
0.0
 11
-27.5
 21
-2.170217
 31
0.0
  0
LINE
  5
209
330
76
100
AcDbEntity
  8
0
 62
     7
370
    35
100
AcDbLine
 10
27.5
 20
28.606112
 30
0.0
 11
27.5
 21
28.563996
 31
0.0
  0
LINE
  5
20A
330
76
100
AcDbEntity
  8
0
 62
     7
370
    35
100
AcDbLine
 10
27.5
 20
28.045883
 30
0.0
 11
27.5
 21
27.810225
 31
0.0
  0
LINE
  5
20B
330
76
100
AcDbEntity
  8
0
 62
     7
370
    35
100
AcDbLine
 10
27.5
 20
26.584238
 30
0.0
 11
27.5
 21
26.162611
 31
0.0
  0
LINE
  5
20C
330
76
100
AcDbEntity
  8
0
 62
     7
370
    35
100
AcDbLine
 10
29.5
 20
12.410265
 30
0.0
 11
29.5
 21
9.990594
 31
0.0
  0
LINE
  5
20D
330
76
100
AcDbEntity
  8
0
 62
     7
370
    35
100
AcDbLine
 10
-29.5
 20
4.04788
 30
0.0
 11
-29.5
 21
1.392746
 31
0.0
  0
LINE
  5
20E
330
76
100
AcDbEntity
  8
0
 62
     7
370
    35
100
AcDbLine
 10
29.5
 20
-1.392746
 30
0.0
 11
29.5
 21
-4.04788
 31
0.0
  0
LINE
  5
20F
330
76
100
AcDbEntity
  8
0
 62
     7
370
    35
100
AcDbLine
 10
-29.5
 20
8.670603
 30
0.0
 11
-29.5
 21
6.107007
 31
0.0
  0
LINE
  5
210
330
76
100
AcDbEntity
  8
0
 62
     7
370
    35
100
AcDbLine
 10
-29.5
 20
-0.704946
 30
0.0
 11
-29.5
 21
-3.36628
 31
0.0
  0
LINE
  5
211
330
76
100
AcDbEntity
  8
0
 62
     7
370
    35
100
AcDbLine
 10
-29.5
 20
13.014646
 30
0.0
 11
-29.5
 21
10.624985
 31
0.0
  0
LINE
  5
212
330
76
100
AcDbEntity
  8
0
 62
     7
370
    35
100
AcDbLine
 10
-29.5
 20
16.940388
 30
0.0
 11
-29.5
 21
14.801467
 31
0.0
  0
LINE
  5
213
330
76
100
AcDbEntity
  8
0
 62
     7
370
    35
100
AcDbLine
 10
29.5
 20
-26.474238
 30
0.0
 11
29.5
 21
-26.5639
 31
0.0
  0
LINE
  5
214
330
76
100
AcDbEntity
  8
0
 62
     7
370
    35
100
AcDbLine
 10
-29.5
 20
20.321652
 30
0.0
 11
-29.5
 21
18.502217
 31
0.0
  0
LINE
  5
215
330
76
100
AcDbEntity
  8
0
 62
     7
370
    35
100
AcDbLine
 10
29.5
 20
19.871566
 30
0.0
 11
29.5
 21
18.002138
 31
0.0
  0
LINE
  5
216
330
76
100
AcDbEntity
  8
0
 62
     7
370
    35
100
AcDbLine
 10
-29.5
 20
23.049761
 30
0.0
 11
-29.5
 21
21.608291
 31
0.0
  0
LINE
  5
217
330
76
100
AcDbEntity
  8
0
 62
     7
370
    35
100
AcDbLine
 10
-29.5
 20
-5.435115
 30
0.0
 11
-29.5
 21
-8.017111
 31
0.0
  0
LINE
  5
218
330
76
100
AcDbEntity
  8
0
 62
     7
370
    35
100
AcDbLine
 10
-29.5
 20
25.037032
 30
0.0
 11
-29.5
 21
24.019857
 31
0.0
  0
LINE
  5
219
330
76
100
AcDbEntity
  8
0
 62
     7
370
    35
100
AcDbLine
 10
-29.5
 20
26.219592
 30
0.0
 11
-29.5
 21
25.659405
 31
0.0
  0
LINE
  5
21A
330
76
100
AcDbEntity
  8
0
 62
     7
370
    35
100
AcDbLine
 10
-29.5
 20
26.5639
 30
0.0
 11
-29.5
 21
26.474238
 31
0.0
  0
LINE
  5
21B
330
76
100
AcDbEntity
  8
0
 62
     7
370
    35
100
AcDbLine
 10
29.5
 20
-6.107007
 30
0.0
 11
29.5
 21
-8.670603
 31
0.0
  0
LINE
  5
21C
330
76
100
AcDbEntity
  8
0
 62
     7
370
    35
100
AcDbLine
 10
29.5
 20
8.017111
 30
0.0
 11
29.5
 21
5.435115
 31
0.0
  0
LINE
  5
21D
330
76
100
AcDbEntity
  8
0
 62
     7
370
    35
100
AcDbLine
 10
29.5
 20
-21.608291
 30
0.0
 11
29.5
 21
-23.049761
 31
0.0
  0
LINE
  5
21E
330
76
100
AcDbEntity
  8
0
 62
     7
370
    35
100
AcDbLine
 10
29.5
 20
26.563138
 30
0.0
 11
29.5
 21
26.408847
 31
0.0
  0
LINE
  5
21F
330
76
100
AcDbEntity
  8
0
 62
     7
370
    35
100
AcDbLine
 10
29.5
 20
-10.624985
 30
0.0
 11
29.5
 21
-13.014646
 31
0.0
  0
LINE
  5
220
330
76
100
AcDbEntity
  8
0
 62
     7
370
    35
100
AcDbLine
 10
29.5
 20
3.36628
 30
0.0
 11
29.5
 21
0.704946
 31
0.0
  0
LINE
  5
221
330
76
100
AcDbEntity
  8
0
 62
     7
370
    35
100
AcDbLine
 10
29.5
 20
-24.019857
 30
0.0
 11
29.5
 21
-25.037032
 31
0.0
  0
LINE
  5
222
330
76
100
AcDbEntity
  8
0
 62
     7
370
    35
100
AcDbLine
 10
29.5
 20
-14.801467
 30
0.0
 11
29.5
 21
-16.940388
 31
0.0
  0
LINE
  5
223
330
76
100
AcDbEntity
  8
0
 62
     7
370
    35
100
AcDbLine
 10
29.5
 20
24.79864
 30
0.0
 11
29.5
 21
23.717865
 31
0.0
  0
LINE
  5
224
330
76
100
AcDbEntity
  8
0
 62
     7
370
    35
100
AcDbLine
 10
-29.5
 20
-26.408847
 30
0.0
 11
-29.5
 21
-26.563138
 31
0.0
  0
LINE
  5
225
330
76
100
AcDbEntity
  8
0
 62
     7
370
    35
100
AcDbLine
 10
-29.5
 20
-25.472713
 30
0.0
 11
-29.5
 21
-26.100332
 31
0.0
  0
LINE
  5
226
330
76
100
AcDbEntity
  8
0
 62
     7
370
    35
100
AcDbLine
 10
29.5
 20
26.100332
 30
0.0
 11
29.5
 21
25.472713
 31
0.0
  0
LINE
  5
227
330
76
100
AcDbEntity
  8
0
 62
     7
370
    35
100
AcDbLine
 10
-29.5
 20
-23.717865
 30
0.0
 11
-29.5
 21
-24.79864
 31
0.0
  0
LINE
  5
228
330
76
100
AcDbEntity
  8
0
 62
     7
370
    35
100
AcDbLine
 10
-29.5
 20
-21.200706
 30
0.0
 11
-29.5
 21
-22.6999
 31
0.0
  0
LINE
  5
229
330
76
100
AcDbEntity
  8
0
 62
     7
370
    35
100
AcDbLine
 10
-29.5
 20
-18.002138
 30
0.0
 11
-29.5
 21
-19.871566
 31
0.0
  0
LINE
  5
22A
330
76
100
AcDbEntity
  8
0
 62
     7
370
    35
100
AcDbLine
 10
29.5
 20
16.404543
 30
0.0
 11
29.5
 21
14.224967
 31
0.0
  0
LINE
  5
22B
330
76
100
AcDbEntity
  8
0
 62
     7
370
    35
100
AcDbLine
 10
-29.5
 20
-14.224967
 30
0.0
 11
-29.5
 21
-16.404543
 31
0.0
  0
LINE
  5
22C
330
76
100
AcDbEntity
  8
0
 62
     7
370
    35
100
AcDbLine
 10
29.5
 20
-25.659405
 30
0.0
 11
29.5
 21
-26.219592
 31
0.0
  0
LINE
  5
22D
330
76
100
AcDbEntity
  8
0
 62
     7
370
    35
100
AcDbLine
 10
-29.5
 20
-9.990594
 30
0.0
 11
-29.5
 21
-12.410265
 31
0.0
  0
LINE
  5
22E
330
76
100
AcDbEntity
  8
0
 62
     7
370
    35
100
AcDbLine
 10
29.5
 20
-18.502217
 30
0.0
 11
29.5
 21
-20.321652
 31
0.0
  0
LINE
  5
22F
330
76
100
AcDbEntity
  8
0
 62
     7
370
    35
100
AcDbLine
 10
29.5
 20
22.6999
 30
0.0
 11
29.5
 21
21.200706
 31
0.0
  0
LINE
  5
230
330
76
100
AcDbEntity
  8
0
 62
     7
370
    35
100
AcDbLine
 10
-34.0
 20
-24.0
 30
0.0
 11
-30.5
 21
-24.0
 31
0.0
  0
LINE
  5
231
330
76
100
AcDbEntity
  8
0
 62
     7
370
    35
100
AcDbLine
 10
-34.0
 20
24.0
 30
0.0
 11
-30.5
 21
24.0
 31
0.0
  0
LINE
  5
232
330
76
100
AcDbEntity
  8
0
 62
     7
370
    35
100
AcDbLine
 10
-30.5
 20
24.0
 30
0.0
 11
-30.5
 21
-24.0
 31
0.0
  0
LINE
  5
233
330
76
100
AcDbEntity
  8
0
 62
     7
370
    35
100
AcDbLine
 10
-29.5
 20
25.0
 30
0.0
 11
-30.5
 21
24.0
 31
0.0
  0
LINE
  5
234
330
76
100
AcDbEntity
  8
0
 62
     7
370
    35
100
AcDbLine
 10
-29.5
 20
-25.0
 30
0.0
 11
-30.5
 21
-24.0
 31
0.0
  0
LINE
  5
235
330
76
100
AcDbEntity
  8
0
 62
     7
370
    35
100
AcDbLine
 10
30.5
 20
24.0
 30
0.0
 11
34.0
 21
24.0
 31
0.0
  0
LINE
  5
236
330
76
100
AcDbEntity
  8
0
 62
     7
370
    35
100
AcDbLine
 10
30.5
 20
-24.0
 30
0.0
 11
34.0
 21
-24.0
 31
0.0
  0
LINE
  5
237
330
76
100
AcDbEntity
  8
0
 62
     7
370
    35
100
AcDbLine
 10
30.5
 20
-24.0
 30
0.0
 11
30.5
 21
24.0
 31
0.0
  0
LINE
  5
238
330
76
100
AcDbEntity
  8
0
 62
     7
370
    35
100
AcDbLine
 10
29.5
 20
-25.0
 30
0.0
 11
30.5
 21
-24.0
 31
0.0
  0
LINE
  5
239
330
76
100
AcDbEntity
  8
0
 62
     7
370
    35
100
AcDbLine
 10
29.5
 20
25.0
 30
0.0
 11
30.5
 21
24.0
 31
0.0
  0
SPLINE
  5
23A
330
76
100
AcDbEntity
  8
0
 62
     7
370
    35
100
AcDbSpline
210
0.0
220
0.0
230
1.0
 70
     8
 71
     3
 72
    31
 73
    27
 74
     0
 42
0.000000001
 43
0.0
 40
0.0
 40
0.0
 40
0.0
 40
0.0
 40
1.067355332657376
 40
2.134711323808188
 40
3.202067898203753
 40
4.269690174793086
 40
5.785389128873375
 40
7.29368971879596
 40
8.801989994737157
 40
10.31029052708401
 40
11.8190542597215
 40
13.32780156466319
 40
14.8375811759361
 40
16.32059349086652
 40
17.35583458090009
 40
18.3882137300399
 40
19.38054801010343
 40
20.37288125058427
 40
21.36521357557978
 40
22.36373643884627
 40
23.91535351255844
 40
25.43214270706586
 40
26.95293826413456
 40
28.41555565968608
 40
29.40169130383444
 40
30.29037431829675
 40
30.29037431829675
 40
30.29037431829675
 40
30.29037431829675
 10
27.64349306227826
 20
-12.78113016783562
 30
0.0
 10
27.29775777482445
 20
-12.69716495993652
 30
0.0
 10
26.60628698661914
 20
-12.52923449233687
 30
0.0
 10
25.56908168497123
 20
-12.27733387593898
 30
0.0
 10
24.53179067232477
 20
-12.02540914358956
 30
0.0
 10
23.34927453556949
 20
-11.73821027457916
 30
0.0
 10
22.02393002708868
 20
-11.41631889756957
 30
0.0
 10
20.55584320556883
 20
-11.05975638658025
 30
0.0
 10
19.09015293053292
 20
-10.70377560955332
 30
0.0
 10
17.62431215232544
 20
-10.34776038753292
 30
0.0
 10
16.15832553751963
 20
-9.991714264825305
 30
0.0
 10
14.69185828663221
 20
-9.635558113362515
 30
0.0
 10
13.23373040322734
 20
-9.281435860380007
 30
0.0
 10
11.92897752474983
 20
-8.964571130203074
 30
0.0
 10
10.77886169068384
 20
-8.685267701321983
 30
0.0
 10
9.787684454438926
 20
-8.444567141170713
 30
0.0
 10
8.81040480751681
 20
-8.20724620683164
 30
0.0
 10
7.846096151296598
 20
-7.973079262846611
 30
0.0
 10
6.879781972136267
 20
-7.738429317693392
 30
0.0
 10
5.732304080788434
 20
-7.459789745645116
 30
0.0
 10
4.414941634817588
 20
-7.139908098771783
 30
0.0
 10
2.928410994151169
 20
-6.778919872287229
 30
0.0
 10
1.470685659417266
 20
-6.425028192206851
 30
0.0
 10
0.1849340916147186
 20
-6.11253021398115
 30
0.0
 10
-0.8962797619742954
 20
-5.850637667330992
 30
0.0
 10
-1.503182460572906
 20
-5.701577091906935
 30
0.0
 10
-1.790860480630377
 20
-5.630920870892203
 30
0.0
  0
SPLINE
  5
23B
330
76
100
AcDbEntity
  8
0
 62
     7
370
    35
100
AcDbSpline
210
0.0
220
0.0
230
1.0
 70
     8
 71
     3
 72
    17
 73
    13
 74
     0
 42
0.000000001
 43
0.0
 40
0.0
 40
0.0
 40
0.0
 40
0.0
 40
1.173976051417807
 40
2.347952255833516
 40
3.521928374882584
 40
4.698000768545912
 40
6.245701170253385
 40
7.776031466698793
 40
9.310807030343609
 40
10.77895671552328
 40
11.77567504043225
 40
12.64448567986903
 40
12.64448567986903
 40
12.64448567986903
 40
12.64448567986903
 10
29.25754788312612
 20
-8.616148578697672
 30
0.0
 10
28.87727530246101
 20
-8.5237998141042
 30
0.0
 10
28.11673009157195
 20
-8.339102272881942
 30
0.0
 10
26.9759129438698
 20
-8.062053220794603
 30
0.0
 10
25.83441681183342
 20
-7.784839015696038
 30
0.0
 10
24.57186495835019
 20
-7.478224541899407
 30
0.0
 10
23.1938819038448
 20
-7.143584168034696
 30
0.0
 10
21.69971467720359
 20
-6.780700729962664
 30
0.0
 10
20.2312928206538
 20
-6.424167418562972
 30
0.0
 10
18.93579526553961
 20
-6.109292496373699
 30
0.0
 10
17.85581372289999
 20
-5.847632792222256
 30
0.0
 10
17.2519171881412
 20
-5.699315098865641
 30
0.0
 10
16.97067163015468
 20
-5.630240861763062
 30
0.0
  0
SPLINE
  5
23C
330
76
100
AcDbEntity
  8
0
 62
     7
370
    35
100
AcDbSpline
210
0.0
220
0.0
230
1.0
 70
     8
 71
     3
 72
    26
 73
    22
 74
     0
 42
0.000000001
 43
0.0
 40
0.0
 40
0.0
 40
0.0
 40
0.0
 40
0.0103411259316846
 40
0.0181398567128218
 40
0.0316701545550585
 40
0.0549322181410316
 40
0.0944103279287738
 40
0.1601454411130839
 40
0.266464238667646
 40
0.4304834150368968
 40
0.6628330544676339
 40
0.9354787489701435
 40
1.199868641206729
 40
2.378945921698587
 40
4.112294909993509
 40
5.768092946623727
 40
7.47497481526923
 40
8.830450583435935
 40
10.10067775420777
 40
11.37090508230536
 40
12.64113224455332
 40
12.64113224455332
 40
12.64113224455332
 40
12.64113224455332
 10
-16.97389805774838
 20
5.631168873673598
 30
0.0
 10
-16.97723479644064
 20
5.632034025850364
 30
0.0
 10
-16.98308792715054
 20
5.633551630086594
 30
0.0
 10
-16.99333470186143
 20
5.636091261890787
 30
0.0
 10
-17.00775958573472
 20
5.639676100934198
 30
0.0
 10
-17.03244234736933
 20
5.645768454835963
 30
0.0
 10
-17.07402484505401
 20
5.656009713663934
 30
0.0
 10
-17.14250024527365
 20
5.672828647917522
 30
0.0
 10
-17.25130214904614
 20
5.699504531639677
 30
0.0
 10
-17.41405963231433
 20
5.739344315294024
 30
0.0
 10
-17.6306886705934
 20
5.792287825703059
 30
0.0
 10
-17.8798431743793
 20
5.853071722386153
 30
0.0
 10
-18.43574495459069
 20
5.987980254861041
 30
0.0
 10
-19.46474989111798
 20
6.237980206668652
 30
0.0
 10
-20.94449033408408
 20
6.597298676689368
 30
0.0
 10
-22.59518394298315
 20
6.998187382803041
 30
0.0
 10
-24.12348162555948
 20
7.369334065858054
 30
0.0
 10
-25.52688487096853
 20
7.710154168850463
 30
0.0
 10
-26.78884796751857
 20
8.016624202526508
 30
0.0
 10
-28.02319755728567
 20
8.316387912087496
 30
0.0
 10
-28.84609779242453
 20
8.51622836084513
 30
0.0
 10
-29.25754788313307
 20
8.61614857870081
 30
0.0
  0
SPLINE
  5
23D
330
76
100
AcDbEntity
  8
0
 62
     7
370
    35
100
AcDbSpline
210
0.0
220
0.0
230
1.0
 70
     8
 71
     3
 72
    40
 73
    36
 74
     0
 42
0.000000001
 43
0.0
 40
0.0
 40
0.0
 40
0.0
 40
0.0
 40
0.009816323333096
 40
0.0172263819646538
 40
0.030092498366592
 40
0.0522373098483776
 40
0.0898797555637066
 40
0.1527083592847297
 40
0.2547060012513782
 40
0.4130483899319831
 40
0.6400591796182641
 40
0.9144804465115597
 40
1.170583661731896
 40
2.242690675644216
 40
3.878944836351632
 40
5.445550666417585
 40
7.049854128092274
 40
8.388142194836457
 40
9.41306366835893
 40
10.43798610896265
 40
11.46290960436592
 40
12.50458022480234
 40
13.57885654883555
 40
14.87889428401862
 40
16.484086743555
 40
18.04238507438489
 40
19.60075128844315
 40
21.15865589583358
 40
22.71649297918297
 40
24.27433059485085
 40
25.87962452273802
 40
27.00017158410943
 40
28.10258334027103
 40
29.20499447673524
 40
30.30740490903609
 40
30.30740490903609
 40
30.30740490903609
 40
30.30740490903609
 10
1.80745890331999
 20
5.627106326272091
 30
0.0
 10
1.804292335213073
 20
5.627930804273784
 30
0.0
 10
1.798735416407951
 20
5.62937765687803
 30
0.0
 10
1.788999312537059
 20
5.631791746513519
 30
0.0
 10
1.775276980992057
 20
5.63520426519321
 30
0.0
 10
1.751764911592084
 20
5.641008207808687
 30
0.0
 10
1.71207872518873
 20
5.650781732805891
 30
0.0
 10
1.646536219023888
 20
5.666875929003731
 30
0.0
 10
1.54190984643421
 20
5.692518467486146
 30
0.0
 10
1.384114399003316
 20
5.731127933273224
 30
0.0
 10
1.170472143932951
 20
5.783319014511338
 30
0.0
 10
0.9251562721618587
 20
5.843171589461724
 30
0.0
 10
0.4060232847295345
 20
5.969194790166422
 30
0.0
 10
-0.5542122823109226
 20
6.202427467403502
 30
0.0
 10
-1.938963331847969
 20
6.538668813089325
 30
0.0
 10
-3.49609937624967
 20
6.916787892357357
 30
0.0
 10
-4.956720723137906
 20
7.271459632367915
 30
0.0
 10
-6.241878574417673
 20
7.583528550746977
 30
0.0
 10
-7.339362445567382
 20
7.850028643349956
 30
0.0
 10
-8.335340411872902
 20
8.091883888892895
 30
0.0
 10
-9.336742782477412
 20
8.335060607494729
 30
0.0
 10
-10.35413071241848
 20
8.582124099155662
 30
0.0
 10
-11.46063214750242
 20
8.850833462831877
 30
0.0
 10
-12.74966703705918
 20
9.16387829712849
 30
0.0
 10
-14.19548345041878
 20
9.515006793460097
 30
0.0
 10
-15.72497465536869
 20
9.886466893950125
 30
0.0
 10
-17.23914675401674
 20
10.25421415931209
 30
0.0
 10
-18.75316818515229
 20
10.62193033311797
 30
0.0
 10
-20.2670177437419
 20
10.98960760085678
 30
0.0
 10
-21.79621744484651
 20
11.36101322570068
 30
0.0
 10
-23.18377224069761
 20
11.69801431157681
 30
0.0
 10
-24.4238077956682
 20
11.99918341957886
 30
0.0
 10
-25.5009519202703
 20
12.26078747673574
 30
0.0
 10
-26.57222207916833
 20
12.52096145388515
 30
0.0
 10
-27.28640281054351
 20
12.69440728164173
 30
0.0
 10
-27.64349306218561
 20
12.78113016782295
 30
0.0
  0
SPLINE
  5
23E
330
76
100
AcDbEntity
  8
0
 62
     7
370
    35
100
AcDbSpline
210
0.0
220
0.0
230
1.0
 70
     8
 71
     3
 72
    39
 73
    35
 74
     0
 42
0.000000001
 43
0.0
 40
0.0
 40
0.0
 40
0.0
 40
0.0
 40
0.0098470985285129
 40
0.0172800125416499
 40
0.0301852774596267
 40
0.0523961700199329
 40
0.090147757968281
 40
0.153150634413744
 40
0.2554112607345045
 40
0.414110163466836
 40
0.6414916122624398
 40
0.9159480808318963
 40
1.172145725110065
 40
2.246969871250057
 40
3.883924163965163
 40
5.45097710412105
 40
7.017986602738029
 40
8.587042356142778
 40
10.16677910823135
 40
11.73136405149728
 40
13.28568437879825
 40
14.84216552386991
 40
16.40250552720199
 40
17.96223728510554
 40
19.52196717845921
 40
21.08405722933206
 40
22.64799204574875
 40
24.21166836785435
 40
25.8005451006554
 40
27.17083136776101
 40
28.52740541545015
 40
29.88398015602729
 40
31.25902746399804
 40
32.08487989884765
 40
32.08487989884765
 40
32.08487989884765
 40
32.08487989884765
 10
20.57394720368323
 20
5.626398815897942
 30
0.0
 10
20.5707706606985
 20
5.627225695912058
 30
0.0
 10
20.56519635853667
 20
5.628676732171418
 30
0.0
 10
20.55543019095351
 20
5.631098076435637
 30
0.0
 10
20.54166635251449
 20
5.634520602437262
 30
0.0
 10
20.51808481633793
 20
5.640341297286487
 30
0.0
 10
20.4782853736472
 20
5.65014212246253
 30
0.0
 10
20.41256579886703
 20
5.666278977596359
 30
0.0
 10
20.30768217622278
 20
5.691983417023133
 30
0.0
 10
20.14956577748155
 20
5.730669870608717
 30
0.0
 10
19.93567625556254
 20
5.78291961607557
 30
0.0
 10
19.69019781652958
 20
5.842809437208331
 30
0.0
 10
19.17014232844192
 20
5.969055000166444
 30
0.0
 10
18.20877048951561
 20
6.202568988295345
 30
0.0
 10
16.82277086345635
 20
6.539127353791173
 30
0.0
 10
15.27734958682341
 20
6.914428446388627
 30
0.0
 10
13.75392080986022
 20
7.284383942994672
 30
0.0
 10
12.22638558062577
 20
7.655345702323704
 30
0.0
 10
10.69963752376963
 20
8.026124209981122
 30
0.0
 10
9.177664517564526
 20
8.395751705937752
 30
0.0
 10
7.663226075833255
 20
8.763556604659836
 30
0.0
 10
6.150163805485988
 20
9.131032345430025
 30
0.0
 10
4.63534913930792
 20
9.498935688666906
 30
0.0
 10
3.119481692526658
 20
9.867092732518493
 30
0.0
 10
1.603045890869184
 20
10.23538133839545
 30
0.0
 10
0.0852460193131355
 20
10.60398977663416
 30
0.0
 10
-1.433836023466944
 20
10.97289280096986
 30
0.0
 10
-2.96159787241706
 20
11.3438901709396
 30
0.0
 10
-4.42663528689965
 20
11.69964662639371
 30
0.0
 10
-5.824589158600547
 20
12.03910878552857
 30
0.0
 10
-7.147295946810313
 20
12.36029800343088
 30
0.0
 10
-8.47154429603252
 20
12.68186432759287
 30
0.0
 10
-9.623880197379867
 20
12.96169015327903
 30
0.0
 10
-10.33679355069048
 20
13.13481523138103
 30
0.0
 10
-10.60430288662865
 20
13.19977764856995
 30
0.0
  0
LINE
  5
23F
330
76
100
AcDbEntity
  8
0
 62
     7
370
    35
100
AcDbLine
 10
29.440072
 20
8.031918
 30
0.0
 11
8.154202
 21
13.201231
 31
0.0
  0
LINE
  5
240
330
76
100
AcDbEntity
  8
0
 62
     7
370
    35
100
AcDbLine
 10
27.518792
 20
13.055439
 30
0.0
 11
26.91838
 21
13.201241
 31
0.0
  0
LINE
  5
241
330
76
100
AcDbEntity
  8
0
 62
     7
370
    35
100
AcDbLine
 10
-27.518792
 20
-13.055439
 30
0.0
 11
-26.91838
 21
-13.201241
 31
0.0
  0
LINE
  5
242
330
76
100
AcDbEntity
  8
0
 62
     7
370
    35
100
AcDbLine
 10
-8.154202
 20
-13.201231
 30
0.0
 11
-29.440072
 21
-8.031918
 31
0.0
  0
SPLINE
  5
243
330
76
100
AcDbEntity
  8
0
 62
     7
370
    35
100
AcDbSpline
210
0.0
220
0.0
230
1.0
 70
     8
 71
     3
 72
    30
 73
    26
 74
     0
 42
0.000000001
 43
0.0
 40
0.0
 40
0.0
 40
0.0
 40
0.0
 40
0.7971717371188919
 40
2.111478551126666
 40
3.423346261761608
 40
4.735213239326548
 40
6.047307490273145
 40
7.564008240793942
 40
9.076150105444562
 40
10.58830010742971
 40
12.10027824491753
 40
13.60860364506491
 40
15.11693103409106
 40
16.62527564560327
 40
18.13326219689244
 40
19.63635455115271
 40
21.13965767056125
 40
22.66537441278754
 40
24.1889483484189
 40
25.70431476644135
 40
27.21968126209755
 40
28.73948033899713
 40
30.19802486795974
 40
31.18427520442885
 40
32.07038855438032
 40
32.07038855438032
 40
32.07038855438032
 40
32.07038855438032
 10
10.60430289006554
 20
-13.199777649389
 30
0.0
 10
10.34608378275616
 20
-13.13707126831474
 30
0.0
 10
9.662135668206407
 20
-12.97098010816447
 30
0.0
 10
8.553246615939532
 20
-12.70170427766567
 30
0.0
 10
7.277636426043284
 20
-12.39194834076589
 30
0.0
 10
6.002742263223154
 20
-12.08236918185215
 30
0.0
 10
4.661498648012207
 20
-11.75667817175844
 30
0.0
 10
3.255382806882326
 20
-11.41523075468523
 30
0.0
 10
1.784466772194838
 20
-11.05803984410586
 30
0.0
 10
0.3150831093389094
 20
-10.70120959923744
 30
0.0
 10
-1.153060732444394
 20
-10.3446647558744
 30
0.0
 10
-2.61996350901146
 20
-9.988408876066702
 30
0.0
 10
-4.085687611241656
 20
-9.632431788549068
 30
0.0
 10
-5.551301190726835
 20
-9.276478213025058
 30
0.0
 10
-7.015219151616571
 20
-8.920936879223877
 30
0.0
 10
-8.477504934141958
 20
-8.565795642789244
 30
0.0
 10
-9.945535155686507
 20
-8.209265053248064
 30
0.0
 10
-11.42020157928139
 20
-7.85113088385198
 30
0.0
 10
-12.89877691037462
 20
-7.492053476294151
 30
0.0
 10
-14.37400305963428
 20
-7.133804438735371
 30
0.0
 10
-15.84800118212225
 20
-6.775830748935516
 30
0.0
 10
-17.3036180313004
 20
-6.42242673482711
 30
0.0
 10
-18.5877639995963
 20
-6.110315617351189
 30
0.0
 10
-19.66685837763131
 20
-5.848916093379772
 30
0.0
 10
-20.27296985156883
 20
-5.700064924799193
 30
0.0
 10
-20.55981768594524
 20
-5.629619739073934
 30
0.0
  0
LINE
  5
244
330
76
100
AcDbEntity
  8
0
 62
     7
370
    35
100
AcDbLine
 10
29.5
 20
-26.5639
 30
0.0
 11
28.696405
 21
-27.367495
 31
0.0
  0
LINE
  5
245
330
76
100
AcDbEntity
  8
0
 62
     7
370
    35
100
AcDbLine
 10
-29.5
 20
26.5639
 30
0.0
 11
-28.696776
 21
27.367124
 31
0.0
  0
ENDBLK
  5
78
330
76
100
AcDbEntity
  8
0
100
AcDbBlockEnd
  0
ENDSEC
  0
SECTION
  2
ENTITIES
  0
LINE
  5
246
330
1F
100
AcDbEntity
  8
0
  6
DASHDOT
 62
     7
370
    13
100
AcDbLine
 10
660.500008
 20
420.5
 30
0.0
 11
594.5
 21
420.5
 31
0.0
  0
LINE
  5
247
330
1F
100
AcDbEntity
  8
0
  6
DASHDOT
 62
     7
370
    13
100
AcDbLine
 10
609.850004
 20
420.5
 30
0.0
 11
467.649998
 21
420.5
 31
0.0
  0
LINE
  5
248
330
1F
100
AcDbEntity
  8
0
  6
DASHDOT
 62
     7
370
    13
100
AcDbLine
 10
651.749454
 20
420.5
 30
0.0
 11
714.750057
 21
420.5
 31
0.0
  0
INSERT
  5
249
330
1F
100
AcDbEntity
  8
0
370
     0
100
AcDbBlockReference
  2
BLOCK3
 10
627.500004
 20
420.5
 30
0.0
  0
INSERT
  5
24A
330
1F
100
AcDbEntity
  8
0
370
     0
100
AcDbBlockReference
  2
BLOCK4
 10
627.500004
 20
420.5
 30
0.0
  0
INSERT
  5
24B
330
1F
100
AcDbEntity
  8
0
370
     0
100
AcDbBlockReference
  2
BLOCK5
 10
627.500004
 20
420.5
 30
0.0
  0
ENDSEC
  0
SECTION
  2
OBJECTS
  0
DICTIONARY
  5
C
330
0
100
AcDbDictionary
281
     1
  3
ACAD_GROUP
350
D
  3
ACAD_LAYOUT
350
1A
  3
ACAD_MLINESTYLE
350
17
  3
ACAD_PLOTSETTINGS
350
19
  3
ACAD_PLOTSTYLENAME
350
E
  3
ACAD_SCALELIST
350
47
  0
DICTIONARY
  5
D
102
{ACAD_REACTORS
330
C
102
}
330
C
100
AcDbDictionary
281
     1
  0
DICTIONARY
  5
1A
102
{ACAD_REACTORS
330
C
102
}
330
C
100
AcDbDictionary
281
     1
  3
Layout1
350
1E
  3
Layout2
350
26
  3
Model
350
22
  0
DICTIONARY
  5
17
102
{ACAD_REACTORS
330
C
102
}
330
C
100
AcDbDictionary
281
     1
  3
Standard
350
18
  0
DICTIONARY
  5
19
102
{ACAD_REACTORS
330
C
102
}
330
C
100
AcDbDictionary
281
     1
  0
ACDBDICTIONARYWDFLT
  5
E
102
{ACAD_REACTORS
330
C
102
}
330
C
100
AcDbDictionary
281
     1
  3
Normal
350
F
100
AcDbDictionaryWithDefault
340
F
  0
DICTIONARY
  5
47
102
{ACAD_REACTORS
330
C
102
}
330
C
100
AcDbDictionary
281
     1
  3
A0
350
48
  3
A1
350
49
  3
A2
350
4A
  3
A3
350
4B
  3
A4
350
4C
  3
A5
350
4D
  3
A6
350
4E
  3
A7
350
4F
  3
A8
350
50
  3
A9
350
51
  3
B0
350
52
  3
B1
350
53
  3
B2
350
54
  3
B3
350
55
  3
B4
350
56
  3
B5
350
57
  3
B6
350
58
  3
B7
350
59
  3
B8
350
5A
  3
B9
350
5B
  3
C0
350
5C
  3
C1
350
5D
  3
C2
350
5E
  3
C3
350
5F
  3
C4
350
60
  3
C5
350
61
  3
C6
350
62
  3
C7
350
63
  3
C8
350
64
  3
C9
350
65
  3
D0
350
66
  3
D1
350
67
  3
D2
350
68
  0
LAYOUT
  5
1E
102
{ACAD_REACTORS
330
1A
102
}
330
1A
100
AcDbPlotSettings
  1

  2
none_device
  4

  6

 40
0.0
 41
0.0
 42
0.0
 43
0.0
 44
0.0
 45
0.0
 46
0.0
 47
0.0
 48
0.0
 49
0.0
140
0.0
141
0.0
142
1.0
143
1.0
 70
  4784
 72
     0
 73
     0
 74
     5
  7

 75
    16
147
1.0
148
0.0
149
0.0
100
AcDbLayout
  1
Layout1
 70
     1
 71
     1
 10
0.0
 20
0.0
 11
420.0
 21
297.0
 12
0.0
 22
0.0
 32
0.0
 14
0.0
 24
0.0
 34
0.0
 15
87.250053
 25
5.2
 35
2.0
146
0.0
 13
0.0
 23
0.0
 33
0.0
 16
1.0
 26
0.0
 36
0.0
 17
0.0
 27
1.0
 37
0.0
 76
     0
330
1B
  0
LAYOUT
  5
26
102
{ACAD_REACTORS
330
1A
102
}
330
1A
100
AcDbPlotSettings
  1

  2
none_device
  4

  6

 40
0.0
 41
0.0
 42
0.0
 43
0.0
 44
0.0
 45
0.0
 46
0.0
 47
0.0
 48
0.0
 49
0.0
140
0.0
141
0.0
142
1.0
143
1.0
 70
  4784
 72
     0
 73
     0
 74
     5
  7

 75
    16
147
1.0
148
0.0
149
0.0
100
AcDbLayout
  1
Layout2
 70
     1
 71
     2
 10
0.0
 20
0.0
 11
0.0
 21
0.0
 12
0.0
 22
0.0
 32
0.0
 14
0.0
 24
0.0
 34
0.0
 15
0.0
 25
0.0
 35
0.0
146
0.0
 13
0.0
 23
0.0
 33
0.0
 16
1.0
 26
0.0
 36
0.0
 17
0.0
 27
1.0
 37
0.0
 76
     0
330
23
  0
LAYOUT
  5
22
102
{ACAD_REACTORS
330
1A
102
}
330
1A
100
AcDbPlotSettings
  1

  2
none_device
  4
Letter_(8.50_x_11.00_Inches)
  6

 40
6.35
 41
6.35
 42
6.350005
 43
6.350005
 44
215.9
 45
279.4
 46
0.0
 47
0.0
 48
0.0
 49
0.0
140
0.0
141
0.0
142
1.0
143
1.0
 70
  5808
 72
     0
 73
     0
 74
     0
  7

 75
     0
147
1.0
148
0.0
149
0.0
100
AcDbLayout
  1
Model
 70
     1
 71
     0
 10
0.0
 20
0.0
 11
420.0
 21
297.0
 12
0.0
 22
0.0
 32
0.0
 14
0.0
 24
0.0
 34
0.0
 15
87.250053
 25
5.2
 35
2.0
146
0.0
 13
0.0
 23
0.0
 33
0.0
 16
1.0
 26
0.0
 36
0.0
 17
0.0
 27
1.0
 37
0.0
 76
     0
330
1F
331
29
  0
MLINESTYLE
  5
18
102
{ACAD_REACTORS
330
17
102
}
330
17
100
AcDbMlineStyle
  2
Standard
 70
     0
  3

 62
   256
 51
90.0
 52
90.0
 71
     2
 49
0.5
 62
   256
  6
BYLAYER
 49
-0.5
 62
   256
  6
BYLAYER
  0
ACDBPLACEHOLDER
  5
F
102
{ACAD_REACTORS
330
E
102
}
330
E
  0
SCALE
  5
48
102
{ACAD_REACTORS
330
47
102
}
330
47
100
AcDbScale
 70
     0
300
1:1
140
1.0
141
1.0
290
     1
  0
SCALE
  5
49
102
{ACAD_REACTORS
330
47
102
}
330
47
100
AcDbScale
 70
     0
300
1:2
140
1.0
141
2.0
290
     0
  0
SCALE
  5
4A
102
{ACAD_REACTORS
330
47
102
}
330
47
100
AcDbScale
 70
     0
300
1:4
140
1.0
141
4.0
290
     0
  0
SCALE
  5
4B
102
{ACAD_REACTORS
330
47
102
}
330
47
100
AcDbScale
 70
     0
300
1:5
140
1.0
141
5.0
290
     0
  0
SCALE
  5
4C
102
{ACAD_REACTORS
330
47
102
}
330
47
100
AcDbScale
 70
     0
300
1:8
140
1.0
141
8.0
290
     0
  0
SCALE
  5
4D
102
{ACAD_REACTORS
330
47
102
}
330
47
100
AcDbScale
 70
     0
300
1:10
140
1.0
141
10.0
290
     0
  0
SCALE
  5
4E
102
{ACAD_REACTORS
330
47
102
}
330
47
100
AcDbScale
 70
     0
300
1:16
140
1.0
141
16.0
290
     0
  0
SCALE
  5
4F
102
{ACAD_REACTORS
330
47
102
}
330
47
100
AcDbScale
 70
     0
300
1:20
140
1.0
141
20.0
290
     0
  0
SCALE
  5
50
102
{ACAD_REACTORS
330
47
102
}
330
47
100
AcDbScale
 70
     0
300
1:30
140
1.0
141
30.0
290
     0
  0
SCALE
  5
51
102
{ACAD_REACTORS
330
47
102
}
330
47
100
AcDbScale
 70
     0
300
1:40
140
1.0
141
40.0
290
     0
  0
SCALE
  5
52
102
{ACAD_REACTORS
330
47
102
}
330
47
100
AcDbScale
 70
     0
300
1:50
140
1.0
141
50.0
290
     0
  0
SCALE
  5
53
102
{ACAD_REACTORS
330
47
102
}
330
47
100
AcDbScale
 70
     0
300
1:100
140
1.0
141
100.0
290
     0
  0
SCALE
  5
54
102
{ACAD_REACTORS
330
47
102
}
330
47
100
AcDbScale
 70
     0
300
2:1
140
2.0
141
1.0
290
     0
  0
SCALE
  5
55
102
{ACAD_REACTORS
330
47
102
}
330
47
100
AcDbScale
 70
     0
300
4:1
140
4.0
141
1.0
290
     0
  0
SCALE
  5
56
102
{ACAD_REACTORS
330
47
102
}
330
47
100
AcDbScale
 70
     0
300
8:1
140
8.0
141
1.0
290
     0
  0
SCALE
  5
57
102
{ACAD_REACTORS
330
47
102
}
330
47
100
AcDbScale
 70
     0
300
10:1
140
10.0
141
1.0
290
     0
  0
SCALE
  5
58
102
{ACAD_REACTORS
330
47
102
}
330
47
100
AcDbScale
 70
     0
300
100:1
140
100.0
141
1.0
290
     0
  0
SCALE
  5
59
102
{ACAD_REACTORS
330
47
102
}
330
47
100
AcDbScale
 70
     0
300
1/128" = 1'-0"
140
0.007812
141
12.0
290
     0
  0
SCALE
  5
5A
102
{ACAD_REACTORS
330
47
102
}
330
47
100
AcDbScale
 70
     0
300
1/64" = 1'-0"
140
0.015625
141
12.0
290
     0
  0
SCALE
  5
5B
102
{ACAD_REACTORS
330
47
102
}
330
47
100
AcDbScale
 70
     0
300
1/32" = 1'-0"
140
0.03125
141
12.0
290
     0
  0
SCALE
  5
5C
102
{ACAD_REACTORS
330
47
102
}
330
47
100
AcDbScale
 70
     0
300
1/16" = 1'-0"
140
0.0625
141
12.0
290
     0
  0
SCALE
  5
5D
102
{ACAD_REACTORS
330
47
102
}
330
47
100
AcDbScale
 70
     0
300
3/32" = 1'-0"
140
0.09375
141
12.0
290
     0
  0
SCALE
  5
5E
102
{ACAD_REACTORS
330
47
102
}
330
47
100
AcDbScale
 70
     0
300
1/8" = 1'-0"
140
0.125
141
12.0
290
     0
  0
SCALE
  5
5F
102
{ACAD_REACTORS
330
47
102
}
330
47
100
AcDbScale
 70
     0
300
3/16" = 1'-0"
140
0.1875
141
12.0
290
     0
  0
SCALE
  5
60
102
{ACAD_REACTORS
330
47
102
}
330
47
100
AcDbScale
 70
     0
300
1/4" = 1'-0"
140
0.25
141
12.0
290
     0
  0
SCALE
  5
61
102
{ACAD_REACTORS
330
47
102
}
330
47
100
AcDbScale
 70
     0
300
3/8" = 1'-0"
140
0.375
141
12.0
290
     0
  0
SCALE
  5
62
102
{ACAD_REACTORS
330
47
102
}
330
47
100
AcDbScale
 70
     0
300
1/2" = 1'-0"
140
0.5
141
12.0
290
     0
  0
SCALE
  5
63
102
{ACAD_REACTORS
330
47
102
}
330
47
100
AcDbScale
 70
     0
300
3/4" = 1'-0"
140
0.75
141
12.0
290
     0
  0
SCALE
  5
64
102
{ACAD_REACTORS
330
47
102
}
330
47
100
AcDbScale
 70
     0
300
1" = 1'-0"
140
1.0
141
12.0
290
     0
  0
SCALE
  5
65
102
{ACAD_REACTORS
330
47
102
}
330
47
100
AcDbScale
 70
     0
300
1-1/2" = 1'-0"
140
1.5
141
12.0
290
     0
  0
SCALE
  5
66
102
{ACAD_REACTORS
330
47
102
}
330
47
100
AcDbScale
 70
     0
300
3" = 1'-0"
140
3.0
141
12.0
290
     0
  0
SCALE
  5
67
102
{ACAD_REACTORS
330
47
102
}
330
47
100
AcDbScale
 70
     0
300
6" = 1'-0"
140
6.0
141
12.0
290
     0
  0
SCALE
  5
68
102
{ACAD_REACTORS
330
47
102
}
330
47
100
AcDbScale
 70
     0
300
1'-0" = 1'-0"
140
12.0
141
12.0
290
     0
  0
ENDSEC
  0
EOF
