<svg id="图层_1" data-name="图层 1" xmlns="http://www.w3.org/2000/svg" xmlns:xlink="http://www.w3.org/1999/xlink" viewBox="0 0 1186 710"><defs><style>.cls-1,.cls-11,.cls-12,.cls-13,.cls-15,.cls-16,.cls-18,.cls-19,.cls-20,.cls-22,.cls-23,.cls-3,.cls-4,.cls-5,.cls-6,.cls-7,.cls-9{fill:none;}.cls-2{clip-path:url(#clip-path);}.cls-3,.cls-4,.cls-5,.cls-7{stroke:#000;}.cls-11,.cls-12,.cls-13,.cls-15,.cls-16,.cls-18,.cls-19,.cls-20,.cls-22,.cls-23,.cls-3,.cls-4,.cls-5,.cls-6,.cls-7,.cls-9{stroke-linecap:round;}.cls-12,.cls-13,.cls-16,.cls-19,.cls-20,.cls-23,.cls-3,.cls-5,.cls-6,.cls-7{stroke-linejoin:round;}.cls-12,.cls-3,.cls-6{stroke-width:0.72px;}.cls-11,.cls-15,.cls-18,.cls-22,.cls-4,.cls-9{stroke-miterlimit:10;}.cls-11,.cls-13,.cls-15,.cls-18,.cls-22,.cls-4,.cls-9{stroke-width:0;}.cls-16,.cls-19,.cls-20,.cls-23,.cls-5{stroke-width:1.44px;}.cls-6{stroke:#1e1e1e;}.cls-7{stroke-width:1.02px;}.cls-8{fill:#008272;}.cls-20,.cls-9{stroke:#008272;}.cls-10{fill:#ff007f;}.cls-11,.cls-12,.cls-13{stroke:#ff007f;}.cls-14{fill:#c0392b;}.cls-15,.cls-16{stroke:#c0392b;}.cls-17{fill:#002fa7;}.cls-18,.cls-19{stroke:#002fa7;}.cls-21{fill:#5c2d91;}.cls-22,.cls-23{stroke:#5c2d91;}</style><clipPath id="clip-path"><polyline class="cls-1" points="-172 730.1 1511.72 730.1 1511.72 -20.68 -172 -20.68 -172 730.1"/></clipPath></defs><g class="cls-2"><line class="cls-3" x1="306.62" y1="309.8" x2="306.62" y2="670.88"/><line class="cls-3" x1="413.66" y1="309.8" x2="413.66" y2="670.88"/><line class="cls-3" x1="316.76" y1="662.72" x2="403.52" y2="662.72"/><polygon points="316.76 661.04 316.76 664.46 306.62 662.72 316.76 661.04"/><polygon class="cls-4" points="316.76 661.04 316.76 664.46 306.62 662.72 316.76 661.04"/><polygon points="403.52 661.04 403.52 664.46 413.66 662.72 403.52 661.04"/><polygon class="cls-4" points="403.52 661.04 403.52 664.46 413.66 662.72 403.52 661.04"/><polyline class="cls-3" points="338.66 647.36 338.66 658.1 343.4 658.1"/><line class="cls-3" x1="347" y1="656.3" x2="351.74" y2="656.3"/><line class="cls-3" x1="351.74" y1="652.7" x2="347" y2="652.7"/><path class="cls-3" d="M357.67,647.36a2.44,2.44,0,0,0-2.36,1.77"/><path class="cls-3" d="M359.72,651a2.37,2.37,0,0,0-2-3.63"/><polyline class="cls-3" points="359.72 651.02 355.28 658.1 360.02 658.1"/><path class="cls-3" d="M367.21,647.32a5.43,5.43,0,0,0-3.58,4.77"/><line class="cls-3" x1="363.62" y1="652.16" x2="363.62" y2="655.7"/><path class="cls-3" d="M363.62,655.67a2.37,2.37,0,1,0,4.74,0"/><line class="cls-3" x1="368.36" y1="655.7" x2="368.36" y2="654.5"/><path class="cls-3" d="M368.4,654.46a2.12,2.12,0,0,0-2.4-2.4"/><line class="cls-3" x1="365.96" y1="652.16" x2="363.62" y2="652.16"/><line class="cls-3" x1="371.9" y1="658.1" x2="371.9" y2="657.5"/><line class="cls-3" x1="375.5" y1="647.36" x2="377.84" y2="647.36"/><path class="cls-3" d="M377.87,652.1a2.37,2.37,0,1,0,0-4.74"/><line class="cls-3" x1="377.84" y1="652.16" x2="376.7" y2="652.16"/><path class="cls-3" d="M380.24,654.47a2.37,2.37,0,0,0-2.37-2.37"/><line class="cls-3" x1="380.24" y1="654.5" x2="380.24" y2="655.7"/><path class="cls-3" d="M377.87,658a2.37,2.37,0,0,0,2.37-2.37"/><line class="cls-3" x1="377.84" y1="658.1" x2="375.5" y2="658.1"/><line class="cls-3" x1="413.66" y1="309.8" x2="413.66" y2="670.88"/><line class="cls-3" x1="520.76" y1="309.8" x2="520.76" y2="670.88"/><line class="cls-3" x1="423.86" y1="662.72" x2="510.56" y2="662.72"/><polygon points="423.86 661.04 423.86 664.46 413.66 662.72 423.86 661.04"/><polygon class="cls-4" points="423.86 661.04 423.86 664.46 413.66 662.72 423.86 661.04"/><polygon points="510.56 661.04 510.56 664.46 520.76 662.72 510.56 661.04"/><polygon class="cls-4" points="510.56 661.04 510.56 664.46 520.76 662.72 510.56 661.04"/><polyline class="cls-3" points="445.82 647.36 445.82 658.1 450.56 658.1"/><line class="cls-3" x1="454.16" y1="656.3" x2="458.9" y2="656.3"/><line class="cls-3" x1="458.9" y1="652.7" x2="454.16" y2="652.7"/><path class="cls-3" d="M464.83,647.36a2.44,2.44,0,0,0-2.36,1.77"/><path class="cls-3" d="M466.88,651a2.37,2.37,0,0,0-2-3.63"/><polyline class="cls-3" points="466.82 651.02 462.44 658.1 467.18 658.1"/><path class="cls-3" d="M474.31,647.32a5.43,5.43,0,0,0-3.58,4.77"/><line class="cls-3" x1="470.78" y1="652.16" x2="470.78" y2="655.7"/><path class="cls-3" d="M470.78,655.67a2.37,2.37,0,0,0,4.74,0"/><line class="cls-3" x1="475.52" y1="655.7" x2="475.52" y2="654.5"/><path class="cls-3" d="M475.56,654.46a2.12,2.12,0,0,0-2.4-2.4"/><line class="cls-3" x1="473.12" y1="652.16" x2="470.78" y2="652.16"/><line class="cls-3" x1="479.06" y1="658.1" x2="479.06" y2="657.5"/><line class="cls-3" x1="482.6" y1="647.36" x2="485" y2="647.36"/><path class="cls-3" d="M485,652.1a2.37,2.37,0,0,0,0-4.74"/><line class="cls-3" x1="485" y1="652.16" x2="483.8" y2="652.16"/><path class="cls-3" d="M487.4,654.47A2.37,2.37,0,0,0,485,652.1"/><line class="cls-3" x1="487.4" y1="654.5" x2="487.4" y2="655.7"/><path class="cls-3" d="M485,658a2.37,2.37,0,0,0,2.37-2.37"/><line class="cls-3" x1="485" y1="658.1" x2="482.6" y2="658.1"/><line class="cls-3" x1="116.48" y1="309.8" x2="116.48" y2="670.88"/><line class="cls-3" x1="306.62" y1="309.8" x2="306.62" y2="670.88"/><line class="cls-3" x1="126.68" y1="662.72" x2="296.42" y2="662.72"/><polygon points="126.68 661.04 126.68 664.46 116.48 662.72 126.68 661.04"/><polygon class="cls-4" points="126.68 661.04 126.68 664.46 116.48 662.72 126.68 661.04"/><polygon points="296.42 661.04 296.42 664.46 306.62 662.72 296.42 661.04"/><polygon class="cls-4" points="296.42 661.04 296.42 664.46 306.62 662.72 296.42 661.04"/><polyline class="cls-3" points="190.88 650.96 192.92 650.96 192.92 656.3"/><line class="cls-3" x1="191.18" y1="658.1" x2="190.88" y2="658.1"/><path class="cls-3" d="M191.21,658a1.77,1.77,0,0,0,1.77-1.77"/><line class="cls-3" x1="194.12" y1="658.1" x2="192.92" y2="656.6"/><line class="cls-3" x1="189.08" y1="656.3" x2="189.08" y2="652.7"/><path class="cls-3" d="M189.14,656.27a1.77,1.77,0,0,0,1.77,1.77"/><path class="cls-3" d="M190.91,650.9a1.77,1.77,0,0,0-1.77,1.77"/><line class="cls-3" x1="197.42" y1="656.3" x2="202.16" y2="656.3"/><line class="cls-3" x1="202.16" y1="652.7" x2="197.42" y2="652.7"/><polyline class="cls-3" points="208.1 647.36 205.7 655.7 211.64 655.7"/><line class="cls-3" x1="209.84" y1="653.3" x2="209.84" y2="658.1"/><path class="cls-3" d="M218.77,647.32a5.43,5.43,0,0,0-3.58,4.77"/><line class="cls-3" x1="215.18" y1="652.16" x2="215.18" y2="655.7"/><path class="cls-3" d="M215.24,655.67a2.37,2.37,0,1,0,4.74,0"/><line class="cls-3" x1="219.98" y1="655.7" x2="219.98" y2="654.5"/><path class="cls-3" d="M220,654.46a2.12,2.12,0,0,0-2.4-2.4"/><line class="cls-3" x1="217.58" y1="652.16" x2="215.18" y2="652.16"/><line class="cls-3" x1="223.52" y1="658.1" x2="223.52" y2="657.5"/><polyline class="cls-3" points="229.46 658.1 231.8 647.36 227.06 647.36 227.06 648.56"/><line class="cls-3" x1="520.76" y1="309.8" x2="520.76" y2="670.88"/><line class="cls-3" x1="957.2" y1="309.8" x2="957.2" y2="670.88"/><line class="cls-3" x1="530.9" y1="662.72" x2="947" y2="662.72"/><polygon points="530.9 661.04 530.9 664.46 520.76 662.72 530.9 661.04"/><polygon class="cls-4" points="530.9 661.04 530.9 664.46 520.76 662.72 530.9 661.04"/><polygon points="947 661.04 947 664.46 957.2 662.72 947 661.04"/><polygon class="cls-4" points="947 661.04 947 664.46 957.2 662.72 947 661.04"/><polyline class="cls-3" points="713.54 647.36 713.54 658.1 718.28 658.1"/><polyline class="cls-3" points="721.88 647.36 721.88 658.1 724.52 658.1"/><path class="cls-3" d="M724.55,658a2.07,2.07,0,0,0,2.07-2.07"/><line class="cls-3" x1="726.62" y1="656" x2="726.62" y2="653"/><path class="cls-3" d="M726.62,653a2.07,2.07,0,0,0-2.07-2.07"/><line class="cls-3" x1="724.52" y1="650.96" x2="721.88" y2="650.96"/><line class="cls-3" x1="730.16" y1="656.3" x2="734.9" y2="656.3"/><line class="cls-3" x1="734.9" y1="652.7" x2="730.16" y2="652.7"/><polyline class="cls-3" points="740.84 658.1 740.84 647.36 738.5 649.76"/><path class="cls-3" d="M745.64,647.91a10,10,0,0,0,0,9.52"/><path class="cls-3" d="M748,648a1.46,1.46,0,0,0-2.36,0"/><path class="cls-3" d="M748,657.43a10,10,0,0,0,0-9.52"/><path class="cls-3" d="M745.63,657.44a1.46,1.46,0,0,0,2.36,0"/><polyline class="cls-3" points="755.12 658.1 757.46 647.36 752.72 647.36 752.72 648.56"/><polyline class="cls-5" points="26.48 130.46 127.28 29.72 184.82 87.26 84.08 188.06 26.48 130.46"/><line class="cls-5" x1="55.28" y1="216.8" x2="213.62" y2="58.46"/><line class="cls-6" x1="19.34" y1="22.52" x2="26.96" y2="30.14"/><line class="cls-6" x1="29.12" y1="32.3" x2="37.7" y2="40.94"/><line class="cls-6" x1="39.86" y1="43.1" x2="48.5" y2="51.74"/><line class="cls-6" x1="50.66" y1="53.9" x2="59.3" y2="62.54"/><line class="cls-6" x1="61.46" y1="64.7" x2="70.1" y2="73.28"/><line class="cls-6" x1="72.26" y1="75.44" x2="80.9" y2="84.08"/><line class="cls-6" x1="83.06" y1="86.24" x2="91.7" y2="94.88"/><line class="cls-6" x1="93.86" y1="97.04" x2="102.5" y2="105.68"/><line class="cls-6" x1="104.66" y1="107.84" x2="113.3" y2="116.48"/><line class="cls-6" x1="115.46" y1="118.64" x2="124.1" y2="127.28"/><line class="cls-6" x1="126.26" y1="129.44" x2="134.9" y2="138.08"/><line class="cls-6" x1="137.06" y1="140.24" x2="145.7" y2="148.88"/><line class="cls-6" x1="147.86" y1="151.04" x2="156.5" y2="159.68"/><line class="cls-6" x1="158.66" y1="161.84" x2="167.3" y2="170.48"/><line class="cls-6" x1="169.46" y1="172.64" x2="178.04" y2="181.28"/><line class="cls-6" x1="180.2" y1="183.44" x2="188.84" y2="192.08"/><line class="cls-6" x1="191" y1="194.24" x2="199.64" y2="202.88"/><line class="cls-6" x1="201.8" y1="205.04" x2="210.44" y2="213.68"/><line class="cls-6" x1="212.6" y1="215.78" x2="221.24" y2="224.42"/><line class="cls-6" x1="223.4" y1="226.58" x2="232.04" y2="235.22"/><line class="cls-6" x1="234.2" y1="237.38" x2="242.84" y2="246.02"/><line class="cls-6" x1="245" y1="248.18" x2="253.64" y2="256.82"/><line class="cls-6" x1="255.8" y1="258.98" x2="264.44" y2="267.62"/><line class="cls-6" x1="266.6" y1="269.78" x2="275.24" y2="278.42"/><line class="cls-6" x1="277.4" y1="280.58" x2="286.04" y2="289.22"/><line class="cls-6" x1="288.2" y1="291.38" x2="296.84" y2="300.02"/><line class="cls-6" x1="299" y1="302.18" x2="306.62" y2="309.8"/><polyline class="cls-5" points="116.48 195.8 124.64 187.64 307.82 187.64"/><polyline class="cls-5" points="116.48 195.8 116.48 423.8 124.64 431.96"/><path class="cls-5" d="M307.85,187.58a4,4,0,0,0,4-4.05"/><line class="cls-5" x1="124.64" y1="431.96" x2="307.82" y2="431.96"/><path class="cls-5" d="M311.9,436a4,4,0,0,0-4-4.05"/><line class="cls-5" x1="311.9" y1="183.56" x2="519.5" y2="183.56"/><line class="cls-5" x1="311.9" y1="435.98" x2="519.5" y2="435.98"/><path class="cls-5" d="M519.53,183.56a4,4,0,0,0,4.05-4.05"/><path class="cls-5" d="M523.58,440a4,4,0,0,0-4.05-4"/><line class="cls-5" x1="523.58" y1="167.3" x2="523.58" y2="179.54"/><polyline class="cls-5" points="523.58 440.06 523.58 452.3 531.74 460.46"/><line class="cls-5" x1="523.58" y1="167.3" x2="531.74" y2="159.14"/><line class="cls-5" x1="531.74" y1="460.46" x2="556.16" y2="460.46"/><line class="cls-5" x1="531.74" y1="159.14" x2="556.16" y2="159.14"/><line class="cls-5" x1="564.32" y1="452.3" x2="556.16" y2="460.46"/><polyline class="cls-5" points="564.32 183.56 564.32 167.3 556.16 159.14"/><line class="cls-5" x1="564.32" y1="435.98" x2="564.32" y2="452.3"/><path class="cls-5" d="M564.38,183.53a4,4,0,0,0,4,4.05"/><path class="cls-5" d="M568.43,431.9a4,4,0,0,0-4,4.05"/><line class="cls-5" x1="568.4" y1="187.64" x2="710.9" y2="187.64"/><line class="cls-5" x1="568.4" y1="431.96" x2="710.9" y2="431.96"/><path class="cls-5" d="M710.9,187.61a4,4,0,0,0,4.05,4"/><path class="cls-5" d="M715,427.88a4,4,0,0,0-4.05,4.05"/><line class="cls-5" x1="714.92" y1="191.72" x2="788.24" y2="191.72"/><line class="cls-5" x1="714.92" y1="427.88" x2="788.24" y2="427.88"/><path class="cls-5" d="M792.32,195.77a4,4,0,0,0-4.05-4.05"/><path class="cls-5" d="M788.27,427.82a4,4,0,0,0,4.05-4.05"/><line class="cls-5" x1="792.32" y1="195.8" x2="792.32" y2="203.96"/><line class="cls-5" x1="792.32" y1="415.64" x2="792.32" y2="423.8"/><path class="cls-5" d="M792.32,203.93a4,4,0,0,0,4,4"/><path class="cls-5" d="M796.37,411.56a4,4,0,0,0-4,4.05"/><line class="cls-5" x1="796.34" y1="208.04" x2="1118" y2="208.04"/><line class="cls-5" x1="796.34" y1="411.56" x2="1118" y2="411.56"/><line class="cls-5" x1="1126.16" y1="216.14" x2="1118" y2="208.04"/><polyline class="cls-5" points="1126.16 216.14 1126.16 403.46 1118 411.56"/><line class="cls-5" x1="627.44" y1="187.64" x2="704.78" y2="187.64"/><line class="cls-5" x1="704.78" y1="431.96" x2="627.44" y2="431.96"/><line class="cls-5" x1="515.48" y1="183.56" x2="311.9" y2="183.56"/><line class="cls-5" x1="515.48" y1="435.98" x2="311.9" y2="435.98"/><line class="cls-5" x1="299.66" y1="431.96" x2="210.14" y2="431.96"/><line class="cls-5" x1="299.66" y1="187.64" x2="210.14" y2="187.64"/><line class="cls-5" x1="564.32" y1="440.06" x2="564.32" y2="435.98"/><line class="cls-5" x1="564.32" y1="183.56" x2="564.32" y2="179.54"/><line class="cls-5" x1="572.48" y1="187.64" x2="617.24" y2="187.64"/><line class="cls-7" x1="572.48" y1="431.96" x2="617.24" y2="431.96"/><line class="cls-5" x1="124.64" y1="187.64" x2="124.64" y2="431.96"/><line class="cls-5" x1="311.9" y1="183.56" x2="311.9" y2="202.7"/><line class="cls-5" x1="311.9" y1="358.7" x2="311.9" y2="435.98"/><line class="cls-5" x1="523.58" y1="367.64" x2="523.58" y2="440.06"/><line class="cls-5" x1="531.74" y1="366.8" x2="531.74" y2="460.46"/><line class="cls-5" x1="556.16" y1="159.14" x2="556.16" y2="247.7"/><line class="cls-5" x1="556.16" y1="367.04" x2="556.16" y2="460.46"/><line class="cls-5" x1="564.32" y1="167.3" x2="564.32" y2="247.7"/><line class="cls-5" x1="564.32" y1="371.12" x2="564.32" y2="452.3"/><line class="cls-5" x1="710.9" y1="187.64" x2="710.9" y2="431.96"/><line class="cls-5" x1="792.32" y1="203.96" x2="792.32" y2="423.8"/><line class="cls-5" x1="1118" y1="208.04" x2="1118" y2="411.56"/><polyline class="cls-5" points="26.48 489.14 127.28 589.88 184.82 532.34 84.08 431.54 26.48 489.14"/><line class="cls-5" x1="55.28" y1="402.74" x2="213.62" y2="561.08"/><line class="cls-6" x1="19.34" y1="597.08" x2="26.96" y2="589.46"/><line class="cls-6" x1="29.12" y1="587.3" x2="37.7" y2="578.66"/><line class="cls-6" x1="39.86" y1="576.5" x2="48.5" y2="567.86"/><line class="cls-6" x1="50.66" y1="565.7" x2="59.3" y2="557.06"/><line class="cls-6" x1="61.46" y1="554.9" x2="70.1" y2="546.26"/><line class="cls-6" x1="72.26" y1="544.1" x2="80.9" y2="535.46"/><line class="cls-6" x1="83.06" y1="533.3" x2="91.7" y2="524.72"/><line class="cls-6" x1="93.86" y1="522.56" x2="102.5" y2="513.92"/><line class="cls-6" x1="104.66" y1="511.76" x2="113.3" y2="503.12"/><line class="cls-6" x1="115.46" y1="500.96" x2="124.1" y2="492.32"/><line class="cls-6" x1="126.26" y1="490.16" x2="134.9" y2="481.52"/><line class="cls-6" x1="137.06" y1="479.36" x2="145.7" y2="470.72"/><line class="cls-6" x1="147.86" y1="468.56" x2="156.5" y2="459.92"/><line class="cls-6" x1="158.66" y1="457.76" x2="167.3" y2="449.12"/><line class="cls-6" x1="169.46" y1="446.96" x2="178.04" y2="438.32"/><line class="cls-6" x1="180.2" y1="436.16" x2="188.84" y2="427.52"/><line class="cls-6" x1="191" y1="425.36" x2="199.64" y2="416.72"/><line class="cls-6" x1="201.8" y1="414.56" x2="210.44" y2="405.92"/><line class="cls-6" x1="212.6" y1="403.76" x2="221.24" y2="395.12"/><line class="cls-6" x1="223.4" y1="392.96" x2="232.04" y2="384.38"/><line class="cls-6" x1="234.2" y1="382.22" x2="242.84" y2="373.58"/><line class="cls-6" x1="245" y1="371.42" x2="253.64" y2="362.78"/><line class="cls-6" x1="255.8" y1="360.62" x2="264.44" y2="351.98"/><line class="cls-6" x1="266.6" y1="349.82" x2="275.24" y2="341.18"/><line class="cls-6" x1="277.4" y1="339.02" x2="286.04" y2="330.38"/><line class="cls-6" x1="288.2" y1="328.22" x2="296.84" y2="319.58"/><line class="cls-6" x1="299" y1="317.42" x2="306.62" y2="309.8"/><polyline class="cls-5" points="800.84 130.46 700.1 29.72 642.5 87.26 743.24 188.06 800.84 130.46"/><line class="cls-5" x1="772.04" y1="216.8" x2="613.7" y2="58.46"/><line class="cls-6" x1="808.04" y1="22.52" x2="800.42" y2="30.14"/><line class="cls-6" x1="798.26" y1="32.3" x2="789.62" y2="40.94"/><line class="cls-6" x1="787.46" y1="43.1" x2="778.82" y2="51.74"/><line class="cls-6" x1="776.66" y1="53.9" x2="768.02" y2="62.54"/><line class="cls-6" x1="765.86" y1="64.7" x2="757.22" y2="73.28"/><line class="cls-6" x1="755.06" y1="75.44" x2="746.42" y2="84.08"/><line class="cls-6" x1="744.26" y1="86.24" x2="735.62" y2="94.88"/><line class="cls-6" x1="733.46" y1="97.04" x2="724.82" y2="105.68"/><line class="cls-6" x1="722.66" y1="107.84" x2="714.08" y2="116.48"/><line class="cls-6" x1="711.92" y1="118.64" x2="703.28" y2="127.28"/><line class="cls-6" x1="701.12" y1="129.44" x2="692.48" y2="138.08"/><line class="cls-6" x1="690.32" y1="140.24" x2="681.68" y2="148.88"/><line class="cls-6" x1="679.52" y1="151.04" x2="670.88" y2="159.68"/><line class="cls-6" x1="668.72" y1="161.84" x2="660.08" y2="170.48"/><line class="cls-6" x1="657.92" y1="172.64" x2="649.28" y2="181.28"/><line class="cls-6" x1="647.12" y1="183.44" x2="638.48" y2="192.08"/><line class="cls-6" x1="636.32" y1="194.24" x2="627.68" y2="202.88"/><line class="cls-6" x1="625.52" y1="205.04" x2="616.88" y2="213.68"/><line class="cls-6" x1="614.72" y1="215.78" x2="606.08" y2="224.42"/><line class="cls-6" x1="603.92" y1="226.58" x2="595.28" y2="235.22"/><line class="cls-6" x1="593.12" y1="237.38" x2="584.48" y2="246.02"/><line class="cls-6" x1="582.32" y1="248.18" x2="573.74" y2="256.82"/><line class="cls-6" x1="571.58" y1="258.98" x2="562.94" y2="267.62"/><line class="cls-6" x1="560.78" y1="269.78" x2="552.14" y2="278.42"/><line class="cls-6" x1="549.98" y1="280.58" x2="541.34" y2="289.22"/><line class="cls-6" x1="539.18" y1="291.38" x2="530.54" y2="300.02"/><line class="cls-6" x1="528.38" y1="302.18" x2="520.76" y2="309.8"/><polyline class="cls-5" points="800.84 489.14 700.1 589.88 642.5 532.34 743.24 431.54 800.84 489.14"/><line class="cls-5" x1="772.04" y1="402.74" x2="613.7" y2="561.08"/><line class="cls-6" x1="808.04" y1="597.08" x2="800.42" y2="589.46"/><line class="cls-6" x1="798.26" y1="587.3" x2="789.62" y2="578.66"/><line class="cls-6" x1="787.46" y1="576.5" x2="778.82" y2="567.86"/><line class="cls-6" x1="776.66" y1="565.7" x2="768.02" y2="557.06"/><line class="cls-6" x1="765.86" y1="554.9" x2="757.22" y2="546.26"/><line class="cls-6" x1="755.06" y1="544.1" x2="746.42" y2="535.46"/><line class="cls-6" x1="744.26" y1="533.3" x2="735.62" y2="524.72"/><line class="cls-6" x1="733.46" y1="522.56" x2="724.82" y2="513.92"/><line class="cls-6" x1="722.66" y1="511.76" x2="714.08" y2="503.12"/><line class="cls-6" x1="711.92" y1="500.96" x2="703.28" y2="492.32"/><line class="cls-6" x1="701.12" y1="490.16" x2="692.48" y2="481.52"/><line class="cls-6" x1="690.32" y1="479.36" x2="681.68" y2="470.72"/><line class="cls-6" x1="679.52" y1="468.56" x2="670.88" y2="459.92"/><line class="cls-6" x1="668.72" y1="457.76" x2="660.08" y2="449.12"/><line class="cls-6" x1="657.92" y1="446.96" x2="649.28" y2="438.32"/><line class="cls-6" x1="647.12" y1="436.16" x2="638.48" y2="427.52"/><line class="cls-6" x1="636.32" y1="425.36" x2="627.68" y2="416.72"/><line class="cls-6" x1="625.52" y1="414.56" x2="616.88" y2="405.92"/><line class="cls-6" x1="614.72" y1="403.76" x2="606.08" y2="395.12"/><line class="cls-6" x1="603.92" y1="392.96" x2="595.28" y2="384.38"/><line class="cls-6" x1="593.12" y1="382.22" x2="584.48" y2="373.58"/><line class="cls-6" x1="582.32" y1="371.42" x2="573.74" y2="362.78"/><line class="cls-6" x1="571.58" y1="360.62" x2="562.94" y2="351.98"/><line class="cls-6" x1="560.78" y1="349.82" x2="552.14" y2="341.18"/><line class="cls-6" x1="549.98" y1="339.02" x2="541.34" y2="330.38"/><line class="cls-6" x1="539.18" y1="328.22" x2="530.54" y2="319.58"/><line class="cls-6" x1="528.38" y1="317.42" x2="520.76" y2="309.8"/><path class="cls-8" d="M413.3,305.72l1.5.18h-2.22Zm.72,0h-.72l1.5.18Z"/><path class="cls-9" d="M413.3,305.72l1.5.18h-2.22Zm.72,0h-.72l1.5.18Z"/><path class="cls-8" d="M412.58,305.9l2.88.24h-3.6Zm2.22,0h-2.22l2.88.24Z"/><path class="cls-9" d="M412.58,305.9l2.88.24h-3.6Zm2.22,0h-2.22l2.88.24Z"/><path class="cls-8" d="M411.86,306.14l4.26.42H411.2Zm3.6,0h-3.6l4.26.42Z"/><path class="cls-9" d="M411.86,306.14l4.26.42H411.2Zm3.6,0h-3.6l4.26.42Z"/><path class="cls-8" d="M411.2,306.56l5.46.48h-6Zm4.92,0H411.2l5.46.48Z"/><path class="cls-9" d="M411.2,306.56l5.46.48h-6Zm4.92,0H411.2l5.46.48Z"/><path class="cls-8" d="M410.66,307l6.48.6h-6.9Zm6,0h-6l6.48.6Z"/><path class="cls-9" d="M410.66,307l6.48.6h-6.9Zm6,0h-6l6.48.6Z"/><path class="cls-8" d="M410.24,307.64l7.2.66h-7.56Zm6.9,0h-6.9l7.2.66Z"/><path class="cls-9" d="M410.24,307.64l7.2.66h-7.56Zm6.9,0h-6.9l7.2.66Z"/><path class="cls-8" d="M409.88,308.3l7.8.72h-8Zm7.56,0h-7.56l7.8.72Z"/><path class="cls-9" d="M409.88,308.3l7.8.72h-8Zm7.56,0h-7.56l7.8.72Z"/><path class="cls-8" d="M409.7,309l8,.78h-8.16Zm8,0h-8l8,.78Z"/><path class="cls-9" d="M409.7,309l8,.78h-8.16Zm8,0h-8l8,.78Z"/><path class="cls-8" d="M409.58,309.8l8.1.72h-8Zm8.16,0h-8.16l8.1.72Z"/><path class="cls-9" d="M409.58,309.8l8.1.72h-8Zm8.16,0h-8.16l8.1.72Z"/><path class="cls-8" d="M409.7,310.52l7.74.72h-7.56Zm8,0h-8l7.74.72Z"/><path class="cls-9" d="M409.7,310.52l7.74.72h-7.56Zm8,0h-8l7.74.72Z"/><path class="cls-8" d="M409.88,311.24l7.26.72h-6.9Zm7.56,0h-7.56l7.26.72Z"/><path class="cls-9" d="M409.88,311.24l7.26.72h-6.9Zm7.56,0h-7.56l7.26.72Z"/><path class="cls-8" d="M410.24,312l6.42.6h-6Zm6.9,0h-6.9l6.42.6Z"/><path class="cls-9" d="M410.24,312l6.42.6h-6Zm6.9,0h-6.9l6.42.6Z"/><path class="cls-8" d="M410.66,312.56l5.46.48H411.2Zm6,0h-6l5.46.48Z"/><path class="cls-9" d="M410.66,312.56l5.46.48H411.2Zm6,0h-6l5.46.48Z"/><path class="cls-8" d="M411.2,313l4.26.42h-3.6Zm4.92,0H411.2l4.26.42Z"/><path class="cls-9" d="M411.2,313l4.26.42h-3.6Zm4.92,0H411.2l4.26.42Z"/><path class="cls-8" d="M411.86,313.46l2.94.24h-2.22Zm3.6,0h-3.6l2.94.24Z"/><path class="cls-9" d="M411.86,313.46l2.94.24h-2.22Zm3.6,0h-3.6l2.94.24Z"/><path class="cls-8" d="M412.58,313.7l1.44.18h-.72Zm2.22,0h-2.22l1.44.18Z"/><path class="cls-9" d="M412.58,313.7l1.44.18h-.72Zm2.22,0h-2.22l1.44.18Z"/><polygon class="cls-10" points="1149.44 305.72 1173.86 309.8 1149.44 313.88 1149.44 305.72"/><polygon class="cls-11" points="1149.44 305.72 1173.86 309.8 1149.44 313.88 1149.44 305.72"/><line class="cls-12" x1="1149.44" y1="309.8" x2="1128.14" y2="309.8"/><polygon class="cls-10" points="1125.38 309.8 1125.32 309.62 1125.2 309.5 1124.96 309.5 1124.84 309.62 1124.78 309.8 1124.84 309.98 1124.96 310.1 1125.2 310.1 1125.32 309.98 1125.38 309.8"/><polygon class="cls-13" points="1125.38 309.8 1125.32 309.62 1125.2 309.5 1124.96 309.5 1124.84 309.62 1124.78 309.8 1124.84 309.98 1124.96 310.1 1125.2 310.1 1125.32 309.98 1125.38 309.8"/><line class="cls-12" x1="1122.02" y1="309.8" x2="1097.6" y2="309.8"/><polygon class="cls-10" points="1094.84 309.8 1094.78 309.62 1094.66 309.5 1094.42 309.5 1094.3 309.62 1094.24 309.8 1094.3 309.98 1094.42 310.1 1094.66 310.1 1094.78 309.98 1094.84 309.8"/><polygon class="cls-13" points="1094.84 309.8 1094.78 309.62 1094.66 309.5 1094.42 309.5 1094.3 309.62 1094.24 309.8 1094.3 309.98 1094.42 310.1 1094.66 310.1 1094.78 309.98 1094.84 309.8"/><line class="cls-12" x1="1091.48" y1="309.8" x2="1067.06" y2="309.8"/><polygon class="cls-10" points="1064.3 309.8 1064.24 309.62 1064.12 309.5 1063.88 309.5 1063.76 309.62 1063.7 309.8 1063.76 309.98 1063.88 310.1 1064.12 310.1 1064.24 309.98 1064.3 309.8"/><polygon class="cls-13" points="1064.3 309.8 1064.24 309.62 1064.12 309.5 1063.88 309.5 1063.76 309.62 1063.7 309.8 1063.76 309.98 1063.88 310.1 1064.12 310.1 1064.24 309.98 1064.3 309.8"/><line class="cls-12" x1="1060.94" y1="309.8" x2="1036.52" y2="309.8"/><polygon class="cls-10" points="1033.76 309.8 1033.7 309.62 1033.58 309.5 1033.34 309.5 1033.22 309.62 1033.16 309.8 1033.22 309.98 1033.34 310.1 1033.58 310.1 1033.7 309.98 1033.76 309.8"/><polygon class="cls-13" points="1033.76 309.8 1033.7 309.62 1033.58 309.5 1033.34 309.5 1033.22 309.62 1033.16 309.8 1033.22 309.98 1033.34 310.1 1033.58 310.1 1033.7 309.98 1033.76 309.8"/><line class="cls-12" x1="1030.4" y1="309.8" x2="1005.98" y2="309.8"/><polygon class="cls-10" points="1003.22 309.8 1003.16 309.62 1003.04 309.5 1002.8 309.5 1002.68 309.62 1002.62 309.8 1002.68 309.98 1002.8 310.1 1003.04 310.1 1003.16 309.98 1003.22 309.8"/><polygon class="cls-13" points="1003.22 309.8 1003.16 309.62 1003.04 309.5 1002.8 309.5 1002.68 309.62 1002.62 309.8 1002.68 309.98 1002.8 310.1 1003.04 310.1 1003.16 309.98 1003.22 309.8"/><line class="cls-12" x1="999.92" y1="309.8" x2="975.44" y2="309.8"/><polygon class="cls-10" points="972.74 309.8 972.68 309.62 972.56 309.5 972.32 309.5 972.2 309.62 972.14 309.8 972.2 309.98 972.32 310.1 972.56 310.1 972.68 309.98 972.74 309.8"/><polygon class="cls-13" points="972.74 309.8 972.68 309.62 972.56 309.5 972.32 309.5 972.2 309.62 972.14 309.8 972.2 309.98 972.32 310.1 972.56 310.1 972.68 309.98 972.74 309.8"/><line class="cls-12" x1="969.38" y1="309.8" x2="944.96" y2="309.8"/><polygon class="cls-10" points="942.2 309.8 942.14 309.62 942.02 309.5 941.78 309.5 941.66 309.62 941.6 309.8 941.66 309.98 941.78 310.1 942.02 310.1 942.14 309.98 942.2 309.8"/><polygon class="cls-13" points="942.2 309.8 942.14 309.62 942.02 309.5 941.78 309.5 941.66 309.62 941.6 309.8 941.66 309.98 941.78 310.1 942.02 310.1 942.14 309.98 942.2 309.8"/><line class="cls-12" x1="938.84" y1="309.8" x2="914.42" y2="309.8"/><polygon class="cls-10" points="911.66 309.8 911.6 309.62 911.48 309.5 911.24 309.5 911.12 309.62 911.06 309.8 911.12 309.98 911.24 310.1 911.48 310.1 911.6 309.98 911.66 309.8"/><polygon class="cls-13" points="911.66 309.8 911.6 309.62 911.48 309.5 911.24 309.5 911.12 309.62 911.06 309.8 911.12 309.98 911.24 310.1 911.48 310.1 911.6 309.98 911.66 309.8"/><line class="cls-12" x1="908.3" y1="309.8" x2="883.88" y2="309.8"/><polygon class="cls-10" points="881.12 309.8 881.06 309.62 880.94 309.5 880.7 309.5 880.58 309.62 880.52 309.8 880.58 309.98 880.7 310.1 880.94 310.1 881.06 309.98 881.12 309.8"/><polygon class="cls-13" points="881.12 309.8 881.06 309.62 880.94 309.5 880.7 309.5 880.58 309.62 880.52 309.8 880.58 309.98 880.7 310.1 880.94 310.1 881.06 309.98 881.12 309.8"/><line class="cls-12" x1="877.76" y1="309.8" x2="853.34" y2="309.8"/><polygon class="cls-10" points="850.58 309.8 850.52 309.62 850.4 309.5 850.16 309.5 850.04 309.62 849.98 309.8 850.04 309.98 850.16 310.1 850.4 310.1 850.52 309.98 850.58 309.8"/><polygon class="cls-13" points="850.58 309.8 850.52 309.62 850.4 309.5 850.16 309.5 850.04 309.62 849.98 309.8 850.04 309.98 850.16 310.1 850.4 310.1 850.52 309.98 850.58 309.8"/><line class="cls-12" x1="847.22" y1="309.8" x2="822.8" y2="309.8"/><polygon class="cls-10" points="820.04 309.8 819.98 309.62 819.86 309.5 819.62 309.5 819.5 309.62 819.44 309.8 819.5 309.98 819.62 310.1 819.86 310.1 819.98 309.98 820.04 309.8"/><polygon class="cls-13" points="820.04 309.8 819.98 309.62 819.86 309.5 819.62 309.5 819.5 309.62 819.44 309.8 819.5 309.98 819.62 310.1 819.86 310.1 819.98 309.98 820.04 309.8"/><line class="cls-12" x1="816.68" y1="309.8" x2="792.26" y2="309.8"/><polygon class="cls-10" points="789.5 309.8 789.44 309.62 789.32 309.5 789.08 309.5 788.96 309.62 788.9 309.8 788.96 309.98 789.08 310.1 789.32 310.1 789.44 309.98 789.5 309.8"/><polygon class="cls-13" points="789.5 309.8 789.44 309.62 789.32 309.5 789.08 309.5 788.96 309.62 788.9 309.8 788.96 309.98 789.08 310.1 789.32 310.1 789.44 309.98 789.5 309.8"/><line class="cls-12" x1="786.14" y1="309.8" x2="761.72" y2="309.8"/><polygon class="cls-10" points="758.96 309.8 758.9 309.62 758.78 309.5 758.54 309.5 758.42 309.62 758.36 309.8 758.42 309.98 758.54 310.1 758.78 310.1 758.9 309.98 758.96 309.8"/><polygon class="cls-13" points="758.96 309.8 758.9 309.62 758.78 309.5 758.54 309.5 758.42 309.62 758.36 309.8 758.42 309.98 758.54 310.1 758.78 310.1 758.9 309.98 758.96 309.8"/><line class="cls-12" x1="755.6" y1="309.8" x2="731.18" y2="309.8"/><polygon class="cls-10" points="728.42 309.8 728.36 309.62 728.24 309.5 728 309.5 727.88 309.62 727.82 309.8 727.88 309.98 728 310.1 728.24 310.1 728.36 309.98 728.42 309.8"/><polygon class="cls-13" points="728.42 309.8 728.36 309.62 728.24 309.5 728 309.5 727.88 309.62 727.82 309.8 727.88 309.98 728 310.1 728.24 310.1 728.36 309.98 728.42 309.8"/><line class="cls-12" x1="725.06" y1="309.8" x2="700.64" y2="309.8"/><polygon class="cls-10" points="697.88 309.8 697.82 309.62 697.7 309.5 697.46 309.5 697.34 309.62 697.28 309.8 697.34 309.98 697.46 310.1 697.7 310.1 697.82 309.98 697.88 309.8"/><polygon class="cls-13" points="697.88 309.8 697.82 309.62 697.7 309.5 697.46 309.5 697.34 309.62 697.28 309.8 697.34 309.98 697.46 310.1 697.7 310.1 697.82 309.98 697.88 309.8"/><line class="cls-12" x1="694.58" y1="309.8" x2="670.1" y2="309.8"/><polygon class="cls-10" points="667.4 309.8 667.34 309.62 667.22 309.5 666.98 309.5 666.86 309.62 666.8 309.8 666.86 309.98 666.98 310.1 667.22 310.1 667.34 309.98 667.4 309.8"/><polygon class="cls-13" points="667.4 309.8 667.34 309.62 667.22 309.5 666.98 309.5 666.86 309.62 666.8 309.8 666.86 309.98 666.98 310.1 667.22 310.1 667.34 309.98 667.4 309.8"/><line class="cls-12" x1="664.04" y1="309.8" x2="639.62" y2="309.8"/><polygon class="cls-10" points="636.86 309.8 636.8 309.62 636.68 309.5 636.44 309.5 636.32 309.62 636.26 309.8 636.32 309.98 636.44 310.1 636.68 310.1 636.8 309.98 636.86 309.8"/><polygon class="cls-13" points="636.86 309.8 636.8 309.62 636.68 309.5 636.44 309.5 636.32 309.62 636.26 309.8 636.32 309.98 636.44 310.1 636.68 310.1 636.8 309.98 636.86 309.8"/><line class="cls-12" x1="633.5" y1="309.8" x2="609.08" y2="309.8"/><polygon class="cls-10" points="606.32 309.8 606.26 309.62 606.14 309.5 605.9 309.5 605.78 309.62 605.72 309.8 605.78 309.98 605.9 310.1 606.14 310.1 606.26 309.98 606.32 309.8"/><polygon class="cls-13" points="606.32 309.8 606.26 309.62 606.14 309.5 605.9 309.5 605.78 309.62 605.72 309.8 605.78 309.98 605.9 310.1 606.14 310.1 606.26 309.98 606.32 309.8"/><line class="cls-12" x1="602.96" y1="309.8" x2="578.54" y2="309.8"/><polygon class="cls-10" points="575.78 309.8 575.72 309.62 575.6 309.5 575.36 309.5 575.24 309.62 575.18 309.8 575.24 309.98 575.36 310.1 575.6 310.1 575.72 309.98 575.78 309.8"/><polygon class="cls-13" points="575.78 309.8 575.72 309.62 575.6 309.5 575.36 309.5 575.24 309.62 575.18 309.8 575.24 309.98 575.36 310.1 575.6 310.1 575.72 309.98 575.78 309.8"/><line class="cls-12" x1="572.42" y1="309.8" x2="548" y2="309.8"/><polygon class="cls-10" points="545.24 309.8 545.18 309.62 545.06 309.5 544.82 309.5 544.7 309.62 544.64 309.8 544.7 309.98 544.82 310.1 545.06 310.1 545.18 309.98 545.24 309.8"/><polygon class="cls-13" points="545.24 309.8 545.18 309.62 545.06 309.5 544.82 309.5 544.7 309.62 544.64 309.8 544.7 309.98 544.82 310.1 545.06 310.1 545.18 309.98 545.24 309.8"/><line class="cls-12" x1="541.88" y1="309.8" x2="517.46" y2="309.8"/><polygon class="cls-10" points="514.7 309.8 514.64 309.62 514.52 309.5 514.28 309.5 514.16 309.62 514.1 309.8 514.16 309.98 514.28 310.1 514.52 310.1 514.64 309.98 514.7 309.8"/><polygon class="cls-13" points="514.7 309.8 514.64 309.62 514.52 309.5 514.28 309.5 514.16 309.62 514.1 309.8 514.16 309.98 514.28 310.1 514.52 310.1 514.64 309.98 514.7 309.8"/><line class="cls-12" x1="511.34" y1="309.8" x2="486.92" y2="309.8"/><polygon class="cls-10" points="484.16 309.8 484.1 309.62 483.98 309.5 483.74 309.5 483.62 309.62 483.56 309.8 483.62 309.98 483.74 310.1 483.98 310.1 484.1 309.98 484.16 309.8"/><polygon class="cls-13" points="484.16 309.8 484.1 309.62 483.98 309.5 483.74 309.5 483.62 309.62 483.56 309.8 483.62 309.98 483.74 310.1 483.98 310.1 484.1 309.98 484.16 309.8"/><line class="cls-12" x1="480.8" y1="309.8" x2="456.38" y2="309.8"/><polygon class="cls-10" points="453.62 309.8 453.56 309.62 453.44 309.5 453.2 309.5 453.08 309.62 453.02 309.8 453.08 309.98 453.2 310.1 453.44 310.1 453.56 309.98 453.62 309.8"/><polygon class="cls-13" points="453.62 309.8 453.56 309.62 453.44 309.5 453.2 309.5 453.08 309.62 453.02 309.8 453.08 309.98 453.2 310.1 453.44 310.1 453.56 309.98 453.62 309.8"/><line class="cls-12" x1="450.26" y1="309.8" x2="425.84" y2="309.8"/><polygon class="cls-10" points="423.08 309.8 423.02 309.62 422.9 309.5 422.66 309.5 422.54 309.62 422.48 309.8 422.54 309.98 422.66 310.1 422.9 310.1 423.02 309.98 423.08 309.8"/><polygon class="cls-13" points="423.08 309.8 423.02 309.62 422.9 309.5 422.66 309.5 422.54 309.62 422.48 309.8 422.54 309.98 422.66 310.1 422.9 310.1 423.02 309.98 423.08 309.8"/><line class="cls-12" x1="419.72" y1="309.8" x2="395.3" y2="309.8"/><polygon class="cls-10" points="392.54 309.8 392.48 309.62 392.36 309.5 392.12 309.5 392 309.62 391.94 309.8 392 309.98 392.12 310.1 392.36 310.1 392.48 309.98 392.54 309.8"/><polygon class="cls-13" points="392.54 309.8 392.48 309.62 392.36 309.5 392.12 309.5 392 309.62 391.94 309.8 392 309.98 392.12 310.1 392.36 310.1 392.48 309.98 392.54 309.8"/><line class="cls-12" x1="389.24" y1="309.8" x2="364.76" y2="309.8"/><polygon class="cls-10" points="362.06 309.8 362 309.62 361.88 309.5 361.64 309.5 361.52 309.62 361.46 309.8 361.52 309.98 361.64 310.1 361.88 310.1 362 309.98 362.06 309.8"/><polygon class="cls-13" points="362.06 309.8 362 309.62 361.88 309.5 361.64 309.5 361.52 309.62 361.46 309.8 361.52 309.98 361.64 310.1 361.88 310.1 362 309.98 362.06 309.8"/><line class="cls-12" x1="358.7" y1="309.8" x2="334.28" y2="309.8"/><polygon class="cls-10" points="331.52 309.8 331.46 309.62 331.34 309.5 331.1 309.5 330.98 309.62 330.92 309.8 330.98 309.98 331.1 310.1 331.34 310.1 331.46 309.98 331.52 309.8"/><polygon class="cls-13" points="331.52 309.8 331.46 309.62 331.34 309.5 331.1 309.5 330.98 309.62 330.92 309.8 330.98 309.98 331.1 310.1 331.34 310.1 331.46 309.98 331.52 309.8"/><line class="cls-12" x1="328.16" y1="309.8" x2="303.74" y2="309.8"/><polygon class="cls-10" points="300.98 309.8 300.92 309.62 300.8 309.5 300.56 309.5 300.44 309.62 300.38 309.8 300.44 309.98 300.56 310.1 300.8 310.1 300.92 309.98 300.98 309.8"/><polygon class="cls-13" points="300.98 309.8 300.92 309.62 300.8 309.5 300.56 309.5 300.44 309.62 300.38 309.8 300.44 309.98 300.56 310.1 300.8 310.1 300.92 309.98 300.98 309.8"/><line class="cls-12" x1="297.62" y1="309.8" x2="273.2" y2="309.8"/><polygon class="cls-10" points="270.44 309.8 270.38 309.62 270.26 309.5 270.02 309.5 269.9 309.62 269.84 309.8 269.9 309.98 270.02 310.1 270.26 310.1 270.38 309.98 270.44 309.8"/><polygon class="cls-13" points="270.44 309.8 270.38 309.62 270.26 309.5 270.02 309.5 269.9 309.62 269.84 309.8 269.9 309.98 270.02 310.1 270.26 310.1 270.38 309.98 270.44 309.8"/><line class="cls-12" x1="267.08" y1="309.8" x2="242.66" y2="309.8"/><polygon class="cls-10" points="239.9 309.8 239.84 309.62 239.72 309.5 239.48 309.5 239.36 309.62 239.3 309.8 239.36 309.98 239.48 310.1 239.72 310.1 239.84 309.98 239.9 309.8"/><polygon class="cls-13" points="239.9 309.8 239.84 309.62 239.72 309.5 239.48 309.5 239.36 309.62 239.3 309.8 239.36 309.98 239.48 310.1 239.72 310.1 239.84 309.98 239.9 309.8"/><line class="cls-12" x1="236.54" y1="309.8" x2="212.12" y2="309.8"/><polygon class="cls-10" points="209.36 309.8 209.3 309.62 209.18 309.5 208.94 309.5 208.82 309.62 208.76 309.8 208.82 309.98 208.94 310.1 209.18 310.1 209.3 309.98 209.36 309.8"/><polygon class="cls-13" points="209.36 309.8 209.3 309.62 209.18 309.5 208.94 309.5 208.82 309.62 208.76 309.8 208.82 309.98 208.94 310.1 209.18 310.1 209.3 309.98 209.36 309.8"/><line class="cls-12" x1="206" y1="309.8" x2="181.58" y2="309.8"/><polygon class="cls-10" points="178.82 309.8 178.76 309.62 178.64 309.5 178.4 309.5 178.28 309.62 178.22 309.8 178.28 309.98 178.4 310.1 178.64 310.1 178.76 309.98 178.82 309.8"/><polygon class="cls-13" points="178.82 309.8 178.76 309.62 178.64 309.5 178.4 309.5 178.28 309.62 178.22 309.8 178.28 309.98 178.4 310.1 178.64 310.1 178.76 309.98 178.82 309.8"/><line class="cls-12" x1="175.46" y1="309.8" x2="151.04" y2="309.8"/><polygon class="cls-10" points="148.28 309.8 148.22 309.62 148.1 309.5 147.86 309.5 147.74 309.62 147.68 309.8 147.74 309.98 147.86 310.1 148.1 310.1 148.22 309.98 148.28 309.8"/><polygon class="cls-13" points="148.28 309.8 148.22 309.62 148.1 309.5 147.86 309.5 147.74 309.62 147.68 309.8 147.74 309.98 147.86 310.1 148.1 310.1 148.22 309.98 148.28 309.8"/><line class="cls-12" x1="144.92" y1="309.8" x2="120.5" y2="309.8"/><polygon class="cls-10" points="117.74 309.8 117.68 309.62 117.56 309.5 117.32 309.5 117.2 309.62 117.14 309.8 117.2 309.98 117.32 310.1 117.56 310.1 117.68 309.98 117.74 309.8"/><polygon class="cls-13" points="117.74 309.8 117.68 309.62 117.56 309.5 117.32 309.5 117.2 309.62 117.14 309.8 117.2 309.98 117.32 310.1 117.56 310.1 117.68 309.98 117.74 309.8"/><line class="cls-12" x1="114.38" y1="309.8" x2="89.96" y2="309.8"/><polygon class="cls-10" points="87.2 309.8 87.14 309.62 87.02 309.5 86.78 309.5 86.66 309.62 86.6 309.8 86.66 309.98 86.78 310.1 87.02 310.1 87.14 309.98 87.2 309.8"/><polygon class="cls-13" points="87.2 309.8 87.14 309.62 87.02 309.5 86.78 309.5 86.66 309.62 86.6 309.8 86.66 309.98 86.78 310.1 87.02 310.1 87.14 309.98 87.2 309.8"/><line class="cls-12" x1="83.9" y1="309.8" x2="62.6" y2="309.8"/><polygon class="cls-14" points="310.7 273.14 306.62 297.56 302.54 273.14 310.7 273.14"/><polygon class="cls-15" points="310.7 273.14 306.62 297.56 302.54 273.14 310.7 273.14"/><line class="cls-16" x1="306.62" y1="273.14" x2="306.62" y2="211.22"/><polygon class="cls-14" points="524.84 273.14 520.76 297.56 516.68 273.14 524.84 273.14"/><polygon class="cls-15" points="524.84 273.14 520.76 297.56 516.68 273.14 524.84 273.14"/><line class="cls-16" x1="520.76" y1="273.14" x2="520.76" y2="211.22"/><polyline class="cls-16" points="483.56 224.54 483.56 213.86 488.3 213.86"/><line class="cls-16" x1="483.56" y1="218.6" x2="488.3" y2="218.6"/><polyline class="cls-16" points="491.9 224.54 491.9 217.4 495.44 217.4 495.44 218.6"/><polyline class="cls-16" points="498.98 217.4 501.38 224.54 503.78 217.4"/><polyline class="cls-16" points="509.72 224.54 509.72 213.86 507.32 216.26"/><polyline class="cls-16" points="318.62 224.72 318.62 214.04 323.36 214.04"/><line class="cls-16" x1="318.62" y1="218.78" x2="323.36" y2="218.78"/><polyline class="cls-16" points="326.9 224.72 326.9 217.58 330.5 217.58 330.5 218.78"/><polyline class="cls-16" points="334.04 217.58 336.38 224.72 338.78 217.58"/><path class="cls-16" d="M344.77,214a2.44,2.44,0,0,0-2.36,1.77"/><path class="cls-16" d="M346.76,217.61a2.37,2.37,0,0,0-2-3.63"/><polyline class="cls-16" points="346.76 217.64 342.32 224.72 347.12 224.72"/><polygon class="cls-17" points="557.36 313.88 532.94 309.8 557.36 305.72 557.36 313.88"/><polygon class="cls-18" points="557.36 313.88 532.94 309.8 557.36 305.72 557.36 313.88"/><line class="cls-19" x1="557.36" y1="309.8" x2="603.14" y2="309.8"/><polygon class="cls-17" points="269.96 305.72 294.38 309.8 269.96 313.88 269.96 305.72"/><polygon class="cls-18" points="269.96 305.72 294.38 309.8 269.96 313.88 269.96 305.72"/><line class="cls-19" x1="269.96" y1="309.8" x2="224.18" y2="309.8"/><polyline class="cls-19" points="363.02 330.62 363.02 319.94 367.76 319.94"/><line class="cls-19" x1="363.02" y1="324.68" x2="367.76" y2="324.68"/><polyline class="cls-19" points="373.1 323.48 375.2 323.48 375.2 328.82"/><line class="cls-19" x1="373.4" y1="330.62" x2="373.1" y2="330.62"/><path class="cls-19" d="M373.43,330.56a1.77,1.77,0,0,0,1.77-1.77"/><line class="cls-19" x1="376.34" y1="330.62" x2="375.2" y2="329.12"/><line class="cls-19" x1="371.3" y1="328.82" x2="371.3" y2="325.28"/><path class="cls-19" d="M371.36,328.79a1.77,1.77,0,0,0,1.77,1.77"/><path class="cls-19" d="M373.13,323.48a1.77,1.77,0,0,0-1.77,1.77"/><line class="cls-19" x1="379.64" y1="319.94" x2="381.98" y2="319.94"/><path class="cls-19" d="M382,324.68a2.37,2.37,0,0,0,0-4.74"/><line class="cls-19" x1="381.98" y1="324.68" x2="380.84" y2="324.68"/><path class="cls-19" d="M384.38,327.05a2.37,2.37,0,0,0-2.37-2.37"/><line class="cls-19" x1="384.38" y1="327.08" x2="384.38" y2="328.28"/><path class="cls-19" d="M382,330.62a2.37,2.37,0,0,0,2.37-2.37"/><line class="cls-19" x1="381.98" y1="330.62" x2="379.64" y2="330.62"/><path class="cls-20" d="M533,309.77A12.21,12.21,0,1,0,520.79,322,12.21,12.21,0,0,0,533,309.77"/><path class="cls-20" d="M318.86,309.77A12.21,12.21,0,1,0,306.65,322a12.21,12.21,0,0,0,12.21-12.21"/><path class="cls-20" d="M425.9,309.77A12.21,12.21,0,1,0,413.69,322a12.21,12.21,0,0,0,12.21-12.21"/><polygon class="cls-14" points="409.58 346.46 413.66 321.98 417.74 346.46 409.58 346.46"/><polygon class="cls-15" points="409.58 346.46 413.66 321.98 417.74 346.46 409.58 346.46"/><line class="cls-16" x1="413.66" y1="346.46" x2="413.66" y2="400.28"/><path class="cls-20" d="M417.74,309.77a4.05,4.05,0,1,0-4.05,4.05,4,4,0,0,0,4.05-4.05"/><line class="cls-20" x1="297.98" y1="301.16" x2="315.26" y2="318.44"/><line class="cls-20" x1="297.98" y1="318.44" x2="315.26" y2="301.16"/><line class="cls-20" x1="529.4" y1="301.16" x2="512.12" y2="318.44"/><line class="cls-20" x1="529.4" y1="318.44" x2="512.12" y2="301.16"/><polygon class="cls-17" points="377.06 305.72 401.48 309.8 377.06 313.88 377.06 305.72"/><polygon class="cls-18" points="377.06 305.72 401.48 309.8 377.06 313.88 377.06 305.72"/><line class="cls-19" x1="377.06" y1="309.8" x2="337.34" y2="309.8"/><polyline class="cls-20" points="402.56 289.88 402.56 279.2 407.3 279.2"/><line class="cls-20" x1="402.56" y1="283.94" x2="407.3" y2="283.94"/><line class="cls-20" x1="412.1" y1="289.88" x2="412.1" y2="279.2"/><line class="cls-20" x1="410.9" y1="282.74" x2="414.44" y2="282.74"/><line class="cls-20" x1="417.98" y1="279.2" x2="420.38" y2="279.2"/><path class="cls-20" d="M420.41,283.88a2.37,2.37,0,0,0,0-4.74"/><line class="cls-20" x1="420.38" y1="283.94" x2="419.18" y2="283.94"/><path class="cls-20" d="M422.78,286.31a2.37,2.37,0,0,0-2.37-2.37"/><line class="cls-20" x1="422.78" y1="286.34" x2="422.78" y2="287.48"/><path class="cls-20" d="M420.41,289.82a2.37,2.37,0,0,0,2.37-2.37"/><line class="cls-20" x1="420.38" y1="289.88" x2="417.98" y2="289.88"/><polyline class="cls-16" points="419.24 399.44 419.24 388.76 423.98 388.76"/><line class="cls-16" x1="419.24" y1="393.5" x2="423.98" y2="393.5"/><polyline class="cls-16" points="427.58 399.44 427.58 392.36 431.12 392.36 431.12 393.5"/><line class="cls-16" x1="434.72" y1="388.76" x2="437.06" y2="388.76"/><path class="cls-16" d="M437.09,393.5a2.37,2.37,0,1,0,0-4.74"/><line class="cls-16" x1="437.06" y1="393.5" x2="435.86" y2="393.5"/><path class="cls-16" d="M439.46,395.87a2.37,2.37,0,0,0-2.37-2.37"/><line class="cls-16" x1="439.46" y1="395.9" x2="439.46" y2="397.1"/><path class="cls-16" d="M437.09,399.44a2.37,2.37,0,0,0,2.37-2.37"/><line class="cls-16" x1="437.06" y1="399.44" x2="434.72" y2="399.44"/><polyline class="cls-19" points="224.12 303.86 224.12 293.18 228.86 293.18"/><line class="cls-19" x1="224.12" y1="297.92" x2="228.86" y2="297.92"/><polyline class="cls-19" points="237.2 293.18 237.2 303.86 234.5 303.86"/><path class="cls-19" d="M232.46,301.79a2.07,2.07,0,0,0,2.07,2.07"/><line class="cls-19" x1="232.4" y1="301.82" x2="232.4" y2="298.82"/><path class="cls-19" d="M234.53,296.72a2.07,2.07,0,0,0-2.07,2.07"/><line class="cls-19" x1="234.5" y1="296.78" x2="237.2" y2="296.78"/><path class="cls-19" d="M243.13,293.18a2.44,2.44,0,0,0-2.36,1.77"/><path class="cls-19" d="M245.18,296.81a2.37,2.37,0,0,0-2-3.63"/><polyline class="cls-19" points="245.12 296.84 240.74 303.86 245.48 303.86"/><polyline class="cls-19" points="582.26 303.86 582.26 293.18 587.06 293.18"/><line class="cls-19" x1="582.26" y1="297.92" x2="587.06" y2="297.92"/><polyline class="cls-19" points="595.34 293.18 595.34 303.86 592.7 303.86"/><path class="cls-19" d="M590.66,301.79a2.07,2.07,0,0,0,2.07,2.07"/><line class="cls-19" x1="590.6" y1="301.82" x2="590.6" y2="298.82"/><path class="cls-19" d="M592.73,296.72a2.07,2.07,0,0,0-2.07,2.07"/><line class="cls-19" x1="592.7" y1="296.78" x2="595.34" y2="296.78"/><polyline class="cls-19" points="601.28 303.86 601.28 293.18 598.88 295.58"/><polyline class="cls-20" points="292.88 343.82 292.88 333.14 297.68 333.14"/><line class="cls-20" x1="292.88" y1="337.88" x2="297.68" y2="337.88"/><polyline class="cls-20" points="301.22 343.82 301.22 336.74 304.76 336.74 304.76 337.88"/><line class="cls-20" x1="308.36" y1="343.82" x2="308.36" y2="333.14"/><line class="cls-20" x1="308.36" y1="336.74" x2="311" y2="336.74"/><path class="cls-20" d="M313.1,338.75a2.07,2.07,0,0,0-2.07-2.07"/><line class="cls-20" x1="313.1" y1="338.78" x2="313.1" y2="343.82"/><path class="cls-20" d="M319,333.14a2.44,2.44,0,0,0-2.36,1.77"/><path class="cls-20" d="M321.08,336.77a2.37,2.37,0,0,0-2-3.63"/><polyline class="cls-20" points="321.02 336.8 316.64 343.82 321.38 343.82"/><polyline class="cls-20" points="505.22 343.82 505.22 333.14 509.96 333.14"/><line class="cls-20" x1="505.22" y1="337.88" x2="509.96" y2="337.88"/><polyline class="cls-20" points="513.5 343.82 513.5 336.74 517.1 336.74 517.1 337.88"/><line class="cls-20" x1="520.64" y1="343.82" x2="520.64" y2="333.14"/><line class="cls-20" x1="520.64" y1="336.74" x2="523.28" y2="336.74"/><path class="cls-20" d="M525.38,338.75a2.07,2.07,0,0,0-2.07-2.07"/><line class="cls-20" x1="525.38" y1="338.78" x2="525.38" y2="343.82"/><path class="cls-20" d="M531.37,333.14a2.44,2.44,0,0,0-2.36,1.77"/><path class="cls-20" d="M533.36,336.77a2.37,2.37,0,0,0-2-3.63"/><polyline class="cls-20" points="533.36 336.8 528.92 343.82 533.72 343.82"/><line class="cls-5" x1="523.58" y1="179.54" x2="523.58" y2="198.26"/><path class="cls-16" d="M444.86,273.54a47.79,47.79,0,0,0-76,19.71"/><polyline class="cls-16" points="368.78 293.24 378.98 283.04 375.8 280.58 373.28 278.78 368.78 293.24"/><polyline class="cls-16" points="342.98 281 342.98 270.32 346.52 276.2 350.06 270.32 350.06 281"/><polyline class="cls-16" points="355.4 273.86 357.5 273.86 357.5 279.2"/><line class="cls-16" x1="355.7" y1="281" x2="355.4" y2="281"/><path class="cls-16" d="M355.73,280.94a1.77,1.77,0,0,0,1.77-1.77"/><line class="cls-16" x1="358.7" y1="281" x2="357.5" y2="279.5"/><line class="cls-16" x1="353.66" y1="279.2" x2="353.66" y2="275.66"/><path class="cls-16" d="M353.66,279.17a1.77,1.77,0,0,0,1.77,1.77"/><path class="cls-16" d="M355.43,273.86a1.77,1.77,0,0,0-1.77,1.77"/><line class="cls-16" x1="361.94" y1="270.32" x2="364.34" y2="270.32"/><path class="cls-16" d="M364.37,275a2.37,2.37,0,0,0,0-4.74"/><line class="cls-16" x1="364.34" y1="275.06" x2="363.14" y2="275.06"/><path class="cls-16" d="M366.74,277.37a2.37,2.37,0,0,0-2.37-2.37"/><line class="cls-16" x1="366.68" y1="277.4" x2="366.68" y2="278.6"/><path class="cls-16" d="M364.37,280.94a2.37,2.37,0,0,0,2.37-2.37"/><line class="cls-16" x1="364.34" y1="281" x2="361.94" y2="281"/><polygon class="cls-21" points="965.18 325.22 966.44 325.88 964.88 325.88 965.18 325.22"/><polygon class="cls-22" points="965.18 325.22 966.44 325.88 964.88 325.88 965.18 325.22"/><polygon class="cls-21" points="966.44 325.88 967.94 326.6 966.08 326.6 966.44 325.88"/><polygon class="cls-22" points="966.44 325.88 967.94 326.6 966.08 326.6 966.44 325.88"/><path class="cls-21" d="M966.08,326.6l.78.9H965.6Zm1.86,0h-1.86l.78.9Z"/><path class="cls-22" d="M966.08,326.6l.78.9H965.6Zm1.86,0h-1.86l.78.9Z"/><path class="cls-21" d="M964.88,325.88l.72,1.62h-1.44Zm1.56,0h-1.56l.72,1.62Z"/><path class="cls-22" d="M964.88,325.88l.72,1.62h-1.44Zm1.56,0h-1.56l.72,1.62Z"/><path class="cls-21" d="M965.6,327.5l-.42,1.44h-.6Zm1.26,0H965.6l-.42,1.44Z"/><path class="cls-22" d="M965.6,327.5l-.42,1.44h-.6Zm1.26,0H965.6l-.42,1.44Z"/><path class="cls-21" d="M964.16,327.5l.42,1.44H963.5Zm1.44,0h-1.44l.42,1.44Z"/><path class="cls-22" d="M964.16,327.5l.42,1.44H963.5Zm1.44,0h-1.44l.42,1.44Z"/><path class="cls-21" d="M963.56,330.26l-1.08,1.08,1.2-1.08Zm-.6,0h.6l-1.08,1.08Z"/><path class="cls-22" d="M963.56,330.26l-1.08,1.08,1.2-1.08Zm-.6,0h.6l-1.08,1.08Z"/><path class="cls-21" d="M964.58,328.94l-.9,1.32h-.12Zm.6,0h-.6l-.9,1.32Z"/><path class="cls-22" d="M964.58,328.94l-.9,1.32h-.12Zm.6,0h-.6l-.9,1.32Z"/><path class="cls-21" d="M963.5,328.94l.06,1.32H963Zm1.08,0H963.5l.06,1.32Z"/><path class="cls-22" d="M963.5,328.94l.06,1.32H963Zm1.08,0H963.5l.06,1.32Z"/><path class="cls-23" d="M962.52,331.32c5.05-4.37,8-14.45,7.22-24.81s-5-18.55-10.54-20.18-10.91,3.69-13.34,13.1"/><polyline class="cls-23" points="962.48 331.34 967.94 326.6 965.18 325.22 962.48 331.34"/><path class="cls-21" d="M452.48,294.32l.78.78h-.42Zm.9.78-.9-.78.78.78Z"/><path class="cls-22" d="M452.48,294.32l.78.78h-.42Zm.9.78-.9-.78.78.78Z"/><path class="cls-21" d="M453.26,295.1l1.2.9H454Zm.12,0h-.12l1.2.9Z"/><path class="cls-22" d="M453.26,295.1l1.2.9H454Zm.12,0h-.12l1.2.9Z"/><path class="cls-21" d="M452.84,295.1l1.2.9h-.84Zm.42,0h-.42l1.2.9Z"/><path class="cls-22" d="M452.84,295.1l1.2.9h-.84Zm.42,0h-.42l1.2.9Z"/><path class="cls-21" d="M454,296l1.62,1.08h-1Zm.42,0H454l1.62,1.08Z"/><path class="cls-22" d="M454,296l1.62,1.08h-1Zm.42,0H454l1.62,1.08Z"/><path class="cls-21" d="M453.2,296l1.5,1.08h-1Zm.84,0h-.84l1.5,1.08Z"/><path class="cls-22" d="M453.2,296l1.5,1.08h-1Zm.84,0h-.84l1.5,1.08Z"/><path class="cls-21" d="M455.06,297.74h1.38l-1.08.54Zm-.36-.66.36.66h1.38Z"/><path class="cls-22" d="M455.06,297.74h1.38l-1.08.54Zm-.36-.66.36.66h1.38Z"/><polygon class="cls-21" points="454.7 297.08 455.66 297.08 456.44 297.74 454.7 297.08"/><polygon class="cls-22" points="454.7 297.08 455.66 297.08 456.44 297.74 454.7 297.08"/><path class="cls-21" d="M453.68,297.08l1.38.66H454Zm1,0h-1l1.38.66Z"/><path class="cls-22" d="M453.68,297.08l1.38.66H454Zm1,0h-1l1.38.66Z"/><path class="cls-21" d="M454.22,298.28h1.14l-1,.42Zm-.24-.54.24.54h1.14Z"/><path class="cls-22" d="M454.22,298.28h1.14l-1,.42Zm-.24-.54.24.54h1.14Z"/><polygon class="cls-21" points="453.98 297.74 455.06 297.74 455.36 298.28 453.98 297.74"/><polygon class="cls-22" points="453.98 297.74 455.06 297.74 455.36 298.28 453.98 297.74"/><path class="cls-23" d="M440.6,317.21c1.74,6.77,5.61,10.59,9.54,9.42s7-7.07,7.53-14.52-1.55-14.7-5.16-17.84"/><polyline class="cls-23" points="452.48 294.32 456.44 297.74 454.4 298.7 452.48 294.32"/><line class="cls-23" x1="981.98" y1="294.8" x2="981.98" y2="284.12"/><line class="cls-23" x1="978.98" y1="284.12" x2="984.92" y2="284.12"/><polyline class="cls-23" points="438.74 342.68 438.74 332 442.28 337.94 445.82 332 445.82 342.68"/><line class="cls-23" x1="450.62" y1="342.68" x2="450.62" y2="332"/><line class="cls-23" x1="449.42" y1="335.54" x2="452.96" y2="335.54"/><line class="cls-23" x1="456.56" y1="332" x2="458.9" y2="332"/><path class="cls-23" d="M458.93,336.68a2.37,2.37,0,0,0,0-4.74"/><line class="cls-23" x1="458.9" y1="336.74" x2="457.7" y2="336.74"/><path class="cls-23" d="M461.3,339.11a2.37,2.37,0,0,0-2.37-2.37"/><line class="cls-23" x1="461.3" y1="339.14" x2="461.3" y2="340.28"/><path class="cls-23" d="M458.93,342.62a2.37,2.37,0,0,0,2.37-2.37"/><line class="cls-23" x1="458.9" y1="342.68" x2="456.56" y2="342.68"/><polyline class="cls-5" points="302.78 694.22 306.38 683.54 309.92 694.22"/><line class="cls-5" x1="308.9" y1="691.22" x2="303.8" y2="691.22"/><line class="cls-5" x1="409.88" y1="694.22" x2="412.82" y2="694.22"/><path class="cls-5" d="M412.85,694.16a3,3,0,1,0,0-5.94"/><line class="cls-5" x1="412.82" y1="688.28" x2="409.88" y2="688.28"/><path class="cls-5" d="M412.85,688.22a2.37,2.37,0,0,0,0-4.74"/><polyline class="cls-5" points="412.82 683.54 409.88 683.54 409.88 694.22"/><line class="cls-5" x1="522.26" y1="694.22" x2="520.16" y2="694.22"/><path class="cls-5" d="M517.52,691.49a2.68,2.68,0,0,0,2.67,2.67"/><line class="cls-5" x1="517.46" y1="691.52" x2="517.46" y2="686.18"/><path class="cls-5" d="M520.19,683.48a2.68,2.68,0,0,0-2.67,2.67"/><line class="cls-5" x1="520.16" y1="683.54" x2="522.26" y2="683.54"/><line class="cls-5" x1="953.36" y1="694.22" x2="956.06" y2="694.22"/><path class="cls-5" d="M956.09,694.16a3.26,3.26,0,0,0,3.27-3.27"/><line class="cls-5" x1="959.3" y1="690.92" x2="959.3" y2="686.78"/><path class="cls-5" d="M959.36,686.75a3.26,3.26,0,0,0-3.27-3.27"/><polyline class="cls-5" points="956.06 683.54 953.36 683.54 953.36 694.22"/><path class="cls-20" d="M1042.16,662.69A12.21,12.21,0,1,0,1030,674.9a12.21,12.21,0,0,0,12.21-12.21"/><line class="cls-20" x1="1038.56" y1="654.08" x2="1021.28" y2="671.36"/><line class="cls-20" x1="1038.56" y1="671.36" x2="1021.28" y2="654.08"/><polygon class="cls-14" points="1025.84 596.06 1029.92 571.64 1034 596.06 1025.84 596.06"/><polygon class="cls-15" points="1025.84 596.06 1029.92 571.64 1034 596.06 1025.84 596.06"/><line class="cls-16" x1="1029.92" y1="596.06" x2="1029.92" y2="650.54"/><polygon class="cls-17" points="1096.58 658.64 1121 662.72 1096.58 666.8 1096.58 658.64"/><polygon class="cls-18" points="1096.58 658.64 1121 662.72 1096.58 666.8 1096.58 658.64"/><line class="cls-19" x1="1096.58" y1="662.72" x2="1042.16" y2="662.72"/><polyline class="cls-20" points="1005.5 658.64 1011.44 658.64 1005.5 669.32 1011.44 669.32"/><polyline class="cls-16" points="1040.66 580.04 1044.26 585.38 1047.8 580.04"/><line class="cls-16" x1="1044.26" y1="585.38" x2="1044.26" y2="590.72"/><line class="cls-19" x1="1101.26" y1="642.08" x2="1108.4" y2="652.82"/><line class="cls-19" x1="1108.4" y1="642.08" x2="1101.26" y2="652.82"/></g></svg>