<?xml version="1.0" encoding="utf-8"?>
<!-- Generator: Adobe Illustrator 26.0.0, SVG Export Plug-In . SVG Version: 6.00 Build 0)  -->
<svg version="1.2" baseProfile="tiny" id="图层_1"
	 xmlns="http://www.w3.org/2000/svg" xmlns:xlink="http://www.w3.org/1999/xlink" x="0px" y="0px" viewBox="0 0 973 750.8"
	 overflow="visible" xml:space="preserve">
<g>
	<path fill="none" d="M236.4,732.8c-2.6,0-4.8,2.1-4.8,4.8c0,0.1,0,0.1-0.1,0.2v2.1h9.5v-2.2c0-0.1,0-0.1,0-0.2
		C241.1,734.9,239,732.8,236.4,732.8z"/>
	<path fill="none" d="M704,11.8c-2.6,0-4.8,2.1-4.8,4.8c0,0.1,0,0.1-0.1,0.2v2.1h9.5v-2.2c0-0.1,0-0.1,0-0.2
		C708.7,13.8,706.6,11.8,704,11.8z"/>
	<path fill="none" d="M373.5,694c2.7-2.9,4.3-6.7,4.4-10.9c0-0.1,0-0.1,0-0.2c0-0.1,0-0.2,0-0.2c-0.1-4.2-1.7-8-4.4-10.9l-11.2,11.2
		L373.5,694z"/>
	<path fill="none" d="M350.2,695c2.9,2.7,6.9,4.4,11.2,4.4c4.3,0,8.2-1.7,11.1-4.3l-11.2-11.2L350.2,695z"/>
	<path fill="none" d="M253,747.5h0.6c0,0,0,0,0,0c0,0,0,0,0,0c1.9,0,3.4-1.5,3.5-3.3c0,0,0-0.1,0-0.2v-11.2H253c-0.1,0-0.1,0-0.2,0
		c-1.8,0.1-3.3,1.6-3.3,3.5c0,0,0,0,0,0c0,0,0,0,0,0v7.6C249.5,746,251.1,747.5,253,747.5z"/>
	<path fill="none" d="M619.9,473.4h0.3c0,0,0,0,0,0c0,0,0,0,0,0c0.6,0,1-0.4,1.2-1c0,0,0,0,0-0.1c0,0,0,0,0-0.1c0,0,0-0.1,0-0.1v-5
		h-1.5c0,0-0.1,0-0.1,0c-0.6,0.1-1.1,0.6-1.1,1.2c0,0,0,0,0,0c0,0,0,0,0,0v3.8C618.7,472.8,619.2,473.4,619.9,473.4z"/>
	<path fill="none" d="M835.1,376.9h0.3c0,0,0,0,0,0c0,0,0,0,0,0c0.6,0,1.1-0.5,1.2-1.1c0,0,0-0.1,0-0.1v-5h-1.6c0,0-0.1,0-0.1,0
		c-0.6,0.1-1.1,0.6-1.1,1.2c0,0,0,0,0,0c0,0,0,0,0,0v3.8C833.9,376.3,834.4,376.9,835.1,376.9z"/>
	<path fill="none" d="M372.5,670.7c-2.9-2.7-6.9-4.4-11.1-4.4c-4.3,0-8.3,1.7-11.2,4.4l11.2,11.1L372.5,670.7z"/>
	<path fill="none" d="M720.6,661.4h0.6c0,0,0,0,0,0c0,0,0,0,0,0c1.9,0,3.4-1.5,3.5-3.3c0,0,0-0.1,0-0.2v-11.2h-4.1
		c-0.1,0-0.1,0-0.2,0c-1.8,0.1-3.3,1.6-3.3,3.5c0,0,0,0,0,0c0,0,0,0,0,0v7.7C717.1,659.9,718.7,661.4,720.6,661.4z"/>
	<path fill="none" d="M704,646.7c-2.6,0-4.8,2.1-4.8,4.8c0,0.1,0,0.1-0.1,0.2v2.1h9.5v-2.2c0-0.1,0-0.1,0-0.2
		C708.7,648.8,706.6,646.7,704,646.7z"/>
	<path fill="none" d="M344.8,682.8c0,4.3,1.7,8.2,4.3,11.1l11.1-11.1l-11.1-11.1C346.5,674.7,344.8,678.6,344.8,682.8z"/>
	<path fill="none" d="M289.8,91.3C289.8,91.3,289.8,91.3,289.8,91.3c-0.5-0.7-1.4-1.1-2.2-1.1c-0.9,0-1.7,0.4-2.2,1.1c0,0,0,0,0,0
		c-3.4,6.3-3.4,13.8,0,20.2c0,0,0,0,0,0c0.5,0.7,1.4,1.1,2.2,1.1c0.9,0,1.7-0.4,2.2-1.1c0,0,0,0,0,0
		C293.2,105.1,293.2,97.6,289.8,91.3z"/>
	<path fill="none" d="M253,112.6h0.6c0,0,0,0,0,0c0,0,0,0,0,0c1.9,0,3.4-1.5,3.5-3.3c0,0,0-0.1,0-0.2V97.9H253c-0.1,0-0.1,0-0.2,0
		c-1.8,0.1-3.3,1.6-3.3,3.5c0,0,0,0,0,0c0,0,0,0,0,0v7.6C249.5,111,251.1,112.6,253,112.6z"/>
	<polygon fill="none" points="602.3,197.6 597.7,211.3 606.8,211.3 	"/>
	<path fill="none" d="M374.5,388.1h0.3c0,0,0,0,0,0c0,0,0,0,0,0c0.7,0,1.3-0.5,1.5-1.1c0,0,0-0.1,0-0.1c0,0,0,0,0-0.1
		c0-0.1,0-0.1,0-0.2v-5.9h-1.9c-0.1,0-0.1,0-0.2,0c-0.7,0.1-1.3,0.7-1.3,1.5c0,0,0,0,0,0c0,0,0,0,0,0v4.4
		C373,387.4,373.6,388.1,374.5,388.1z"/>
	<polygon fill="none" points="343,197.6 338.4,211.3 347.5,211.3 	"/>
	<path fill="none" d="M236.4,97.9c-2.6,0-4.8,2.1-4.8,4.8c0,0.1,0,0.1-0.1,0.2v2h9.5v-2.2c0-0.1,0-0.1,0-0.2
		C241.1,100,239,97.9,236.4,97.9z"/>
	<path fill="none" d="M581.8,217.7c2.4,0,4.3-1.9,4.4-4.2c0-0.1,0-0.1,0-0.2v-5.1c0-0.1,0-0.1,0-0.2c-0.1-2.3-2-4.2-4.4-4.2
		c-2.4,0-4.4,2-4.4,4.4c0,0,0,0,0,0c0,0,0,0,0,0v5.1C577.4,215.7,579.4,217.7,581.8,217.7z"/>
	<path fill="none" d="M21.3,340.6v7.8h2.4c0.1,0,0.2-0.1,0.3-0.1c1.1,0,2-0.9,2-1.9v-3.8c0,0,0,0,0,0c0,0,0,0,0,0
		c0-1.1-0.9-1.9-2-1.9c0,0,0,0,0,0c0,0,0,0,0,0H21.3z"/>
	<path fill="none" d="M124.4,333.2h0.3c0,0,0,0,0,0c0,0,0,0,0,0c0.6,0,1.1-0.5,1.2-1.1c0,0,0-0.1,0-0.1v-5h-1.5c0,0-0.1,0-0.1,0
		c-0.6,0.1-1.1,0.6-1.1,1.2c0,0,0,0,0,0c0,0,0,0,0,0v3.8C123.1,332.6,123.7,333.2,124.4,333.2z"/>
	<path fill="none" d="M134.6,332.8C134.7,332.8,134.7,332.8,134.6,332.8c1.6-3,1.6-6.5,0-9.4c0,0,0,0,0,0c-0.3-0.4-1.1-0.4-1.4,0
		c0,0,0,0,0,0c-1.5,2.9-1.5,6.4,0,9.4c0,0,0,0,0,0C133.6,333.3,134.3,333.3,134.6,332.8z"/>
	<path fill="none" d="M240.4,318.9c2.5,2.3,5.8,3.6,9.4,3.6c3.6,0,6.9-1.4,9.4-3.6l-9.4-9.4L240.4,318.9z"/>
	<path fill="none" d="M260.2,317.9c2.3-2.5,3.7-5.8,3.7-9.4c0-3.6-1.4-6.9-3.6-9.4l-9.4,9.4L260.2,317.9z"/>
	<path fill="none" d="M249.5,294.4c-3.5,0.1-6.7,1.4-9.2,3.7l9.4,9.4l9.4-9.4c-2.4-2.2-5.7-3.6-9.2-3.6c-0.1,0-0.2,0-0.2,0
		C249.7,294.4,249.6,294.4,249.5,294.4z"/>
	<path fill="none" d="M239.4,299.1c-2.2,2.5-3.6,5.8-3.6,9.4c0,3.6,1.4,6.9,3.6,9.4l9.4-9.4L239.4,299.1z"/>
	<polygon fill="none" points="470.8,483.6 466.2,497.3 475.3,497.3 	"/>
	<path fill="none" d="M715.8,442.6l-9.4-9.4c-2.2,2.5-3.6,5.8-3.6,9.4c0,3.6,1.4,6.9,3.6,9.4L715.8,442.6z"/>
	<path fill="none" d="M726.3,432.1c-2.5-2.3-5.8-3.6-9.4-3.6c-3.6,0-6.9,1.4-9.4,3.7l9.4,9.4L726.3,432.1z"/>
	<path fill="none" d="M265.3,357c-0.4,8-6.8,14.4-14.8,14.7v97.8h3.4l-4.1,24.6l-4.1-24.6h3.4v-97.8c-8.2-0.4-14.8-7.2-14.8-15.5
		c0-8.6,7-15.5,15.5-15.5c8.3,0,15.1,6.6,15.5,14.8h34.2v-22.4h-97v183.8v183.8h23.6l73.3-61.1V516.9V357H265.3z M214.7,376.9
		c0.4,0,0.7,0.3,0.7,0.7s-0.3,0.7-0.7,0.7h-5.6v7.3c0,0.4-0.3,0.7-0.7,0.7s-0.7-0.3-0.7-0.7v-8v-6.4c0-0.4,0.3-0.7,0.7-0.7h6.4
		c0.4,0,0.7,0.3,0.7,0.7s-0.3,0.7-0.7,0.7h-5.6v4.9H214.7z M224.3,376.8h-2.5v8.8c0,0.4-0.3,0.7-0.7,0.7s-0.7-0.3-0.7-0.7v-8.8h-0.8
		c-0.4,0-0.7-0.3-0.7-0.7s0.3-0.7,0.7-0.7h0.8v-4.1c0-0.4,0.3-0.7,0.7-0.7s0.7,0.3,0.7,0.7v4.1h2.5c0.4,0,0.7,0.3,0.7,0.7
		S224.7,376.8,224.3,376.8z M233,385.6c0,0.4-0.3,0.7-0.7,0.7s-0.7-0.3-0.7-0.7V373l-2,2c-0.3,0.3-0.7,0.3-1,0c-0.3-0.3-0.3-0.7,0-1
		l3.2-3.2c0.2-0.2,0.5-0.3,0.8-0.2c0.3,0.1,0.4,0.4,0.4,0.7V385.6z M271,477.8c0.4,0,0.7,0.3,0.7,0.7s-0.3,0.7-0.7,0.7h-5.4v7
		c0,0.4-0.3,0.7-0.7,0.7s-0.7-0.3-0.7-0.7v-7.7v-6.2c0-0.4,0.3-0.7,0.7-0.7h6.1c0.4,0,0.7,0.3,0.7,0.7s-0.3,0.7-0.7,0.7h-5.4v4.7
		H271z M280.9,478.5c0,0.4-0.3,0.7-0.7,0.7s-0.7-0.3-0.7-0.7v-0.8h-3.2v8.5c0,0.4-0.3,0.7-0.7,0.7s-0.7-0.3-0.7-0.7v-9.2
		c0-0.4,0.3-0.7,0.7-0.7h4.6c0.4,0,0.7,0.3,0.7,0.7V478.5z M288.6,486.2c0,0.4-0.3,0.7-0.7,0.7s-0.7-0.3-0.7-0.7v-12.1l-1.8,1.9
		c-0.3,0.3-0.7,0.3-1,0c-0.3-0.3-0.3-0.7,0-1l3.1-3.1c0.2-0.2,0.5-0.3,0.8-0.2c0.3,0.1,0.4,0.4,0.4,0.7V486.2z"/>
	<polygon fill="none" points="767.1,50.1 696,50.1 767.1,109.4 	"/>
	<path fill="none" d="M249.8,342.2c-7.8,0-14.1,6.3-14.1,14.1c0,7.8,6.3,14.1,14.1,14.1c7.7,0,13.9-6.2,14.1-13.8c0-0.1,0-0.1,0-0.2
		c0-0.1,0-0.2,0-0.2C263.8,348.4,257.5,342.2,249.8,342.2z M249.8,359.5c-1.8,0-3.2-1.4-3.2-3.2s1.4-3.2,3.2-3.2s3.2,1.4,3.2,3.2
		S251.6,359.5,249.8,359.5z"/>
	<polygon fill="none" points="299.5,136.3 228.4,136.3 299.5,195.5 	"/>
	<path fill="none" d="M716.8,427c8.6,0,15.5,7,15.5,15.5c0,8.3-6.6,15.1-14.8,15.5v97.7h3.4l-4.1,24.6l-4.1-24.6h3.4V458
		c-3.9-0.2-7.5-1.8-10.1-4.4c0,0-0.1,0-0.1-0.1c0,0-0.1-0.1-0.1-0.1c-2.6-2.6-4.2-6.2-4.4-10.1h-31.2v73.6v97.7h23.6l73.3-61.1
		v-36.6v-97.7h-97v22.6h31.2C701.7,433.6,708.5,427,716.8,427z M684.7,560.5c0.4,0,0.7,0.3,0.7,0.7s-0.3,0.7-0.7,0.7h-4.4v5.7
		c0,0.4-0.3,0.7-0.7,0.7s-0.7-0.3-0.7-0.7v-6.4v-5.1c0-0.4,0.3-0.7,0.7-0.7h5.2c0.4,0,0.7,0.3,0.7,0.7s-0.3,0.7-0.7,0.7h-4.4v3.7
		H684.7z M693.1,561.2c0,0.4-0.3,0.7-0.7,0.7s-0.7-0.3-0.7-0.7v-0.5h-2.4v7c0,0.4-0.3,0.7-0.7,0.7s-0.7-0.3-0.7-0.7V560
		c0-0.4,0.3-0.7,0.7-0.7h3.8c0.4,0,0.7,0.3,0.7,0.7V561.2z M701.3,568.4h-5.2c-0.3,0-0.5-0.1-0.6-0.4c-0.1-0.2-0.1-0.5,0-0.7
		l4.7-7.6c0,0,0,0,0.1-0.1c0.3-0.6,0.3-1.2,0-1.8c-0.3-0.6-0.9-0.9-1.6-0.9c0,0,0,0,0,0c0,0,0,0,0,0c0,0,0,0,0,0c0,0,0,0,0,0
		c-0.8,0-1.6,0.6-1.8,1.4c-0.1,0.3-0.4,0.5-0.7,0.5c-0.1,0-0.1,0-0.2,0c-0.4-0.1-0.6-0.5-0.5-0.9c0.4-1.4,1.7-2.4,3.2-2.4
		c0,0,0,0,0,0c0,0,0,0,0,0c0,0,0,0,0,0c1.2,0,2.3,0.6,2.9,1.7c0.6,1,0.5,2.3-0.1,3.3c0,0-0.1,0-0.1,0.1l-4,6.4h3.9
		c0.4,0,0.7,0.3,0.7,0.7S701.7,568.4,701.3,568.4z M757.1,454.5c-0.3-0.5-0.8-0.9-1.4-0.9c-0.1,0-0.1,0-0.2,0c0,0,0,0,0,0
		c-0.8,0-1.6,0.6-1.8,1.4c-0.1,0.3-0.4,0.5-0.7,0.5c-0.1,0-0.1,0-0.2,0c-0.4-0.1-0.6-0.5-0.5-0.9c0.4-1.3,1.6-2.3,2.9-2.4
		c0.1,0,0.2-0.1,0.3-0.1c0,0,0,0,0,0c1.2,0,2.3,0.6,2.9,1.7c0.6,1,0.5,2.3-0.1,3.3c0,0,0,0,0,0c0,0,0,0,0,0l-4.1,6.5h3.8
		c0.4,0,0.7,0.3,0.7,0.7s-0.3,0.7-0.7,0.7h-5.1c-0.3,0-0.5-0.1-0.6-0.4c-0.1-0.2-0.1-0.5,0-0.7l4.7-7.6c0,0,0,0,0,0c0,0,0,0,0,0
		C757.4,455.8,757.4,455.1,757.1,454.5z M745.2,456.1h0.5v-3.1c0-0.4,0.3-0.7,0.7-0.7s0.7,0.3,0.7,0.7v3.1h1.9
		c0.4,0,0.7,0.3,0.7,0.7s-0.3,0.7-0.7,0.7h-1.9v7c0,0.4-0.3,0.7-0.7,0.7s-0.7-0.3-0.7-0.7v-7h-0.5c-0.4,0-0.7-0.3-0.7-0.7
		S744.8,456.1,745.2,456.1z M735.5,458v-5.1c0-0.4,0.3-0.7,0.7-0.7h5.2c0.4,0,0.7,0.3,0.7,0.7s-0.3,0.7-0.7,0.7h-4.4v3.7h4.4
		c0.4,0,0.7,0.3,0.7,0.7s-0.3,0.7-0.7,0.7h-4.4v5.7c0,0.4-0.3,0.7-0.7,0.7s-0.7-0.3-0.7-0.7V458z"/>
	<path fill="none" d="M230.2,182.2C230.1,182.2,230.1,182.2,230.2,182.2c-1.6,3-1.6,6.5,0,9.4c0,0,0,0,0,0c0.3,0.4,1,0.4,1.3,0.1
		c1.6-3,1.6-6.6,0-9.5C231.1,181.7,230.5,181.7,230.2,182.2z"/>
	<path fill="none" d="M42.4,256.5c0.3,0,0.7-0.1,1-0.2c5.1-1.5,9.1-9.4,9.8-19.2c0.1-0.8,0.1-1.6,0.1-2.4h-11V256.5z"/>
	<path fill="none" d="M226.1,136.3h-23.6v97.7v73.8h31.8c0.4-8,6.8-14.4,14.7-14.8v-97.7v0h-3.4l4.1-24.6l4.1,24.6h-3.4v0V293
		c8.2,0.4,14.8,7.2,14.8,15.5c0,8.6-7,15.5-15.5,15.5c-4.2,0-8-1.7-10.8-4.4c0,0-0.1,0-0.1-0.1s-0.1-0.1-0.1-0.1
		c-2.6-2.6-4.2-6.2-4.4-10.1h-31.8v22.5h97v-97.7v-36.6L226.1,136.3z M216.7,185.5c0.4,0,0.7,0.3,0.7,0.7s-0.3,0.7-0.7,0.7h-4.4v5.7
		c0,0.4-0.3,0.7-0.7,0.7s-0.7-0.3-0.7-0.7v-6.4v-5.1c0-0.4,0.3-0.7,0.7-0.7h5.2c0.4,0,0.7,0.3,0.7,0.7s-0.3,0.7-0.7,0.7h-4.4v3.7
		H216.7z M225.1,186.2c0,0.4-0.3,0.7-0.7,0.7s-0.7-0.3-0.7-0.7v-0.5h-2.4v7c0,0.4-0.3,0.7-0.7,0.7s-0.7-0.3-0.7-0.7V185
		c0-0.4,0.3-0.7,0.7-0.7h3.8c0.4,0,0.7,0.3,0.7,0.7V186.2z M232.7,192.4c-0.4,0.6-1.1,0.9-1.9,0.9s-1.4-0.4-1.9-0.9c0,0,0,0,0,0
		c0,0-0.1-0.1-0.1-0.1c-1.8-3.4-1.8-7.5,0-10.9c0.1-0.1,0.1-0.2,0.2-0.2c0.4-0.5,1.1-0.8,1.7-0.8c0.7,0,1.4,0.4,1.9,0.9
		c0.1,0.1,0.1,0.2,0.1,0.3c1.7,3.3,1.7,7.2,0,10.6C232.8,192.3,232.8,192.4,232.7,192.4z M276.5,296c0.4,0,0.7,0.3,0.7,0.7
		s-0.3,0.7-0.7,0.7h-4.1v5.3c0,0.4-0.3,0.7-0.7,0.7s-0.7-0.3-0.7-0.7v-6V292c0-0.4,0.3-0.7,0.7-0.7h4.8c0.4,0,0.7,0.3,0.7,0.7
		s-0.3,0.7-0.7,0.7h-4.1v3.4H276.5z M283.7,296.3h-1.7v6.5c0,0.4-0.3,0.7-0.7,0.7s-0.7-0.3-0.7-0.7v-6.5h-0.5
		c-0.4,0-0.7-0.3-0.7-0.7s0.3-0.7,0.7-0.7h0.5V292c0-0.4,0.3-0.7,0.7-0.7s0.7,0.3,0.7,0.7v2.9h1.7c0.4,0,0.7,0.3,0.7,0.7
		S284.1,296.3,283.7,296.3z M291.6,302.5C291.6,302.5,291.6,302.5,291.6,302.5C291.5,302.5,291.5,302.5,291.6,302.5
		c-0.4,0.6-1.1,1-1.8,1c-0.6,0-1.1-0.3-1.6-0.7c-0.1-0.1-0.2-0.2-0.3-0.3c-1.7-3.2-1.7-7,0-10.3c0.1-0.1,0.2-0.2,0.3-0.3
		c0.4-0.4,1-0.7,1.6-0.7c0.7,0,1.3,0.3,1.8,0.9c0,0,0,0,0,0.1c0,0,0,0,0,0C293.3,295.4,293.3,299.2,291.6,302.5z"/>
	<polygon fill="none" points="299.5,641.5 228.4,700.7 299.5,700.7 	"/>
	<path fill="none" d="M727.2,452c2.3-2.5,3.7-5.8,3.7-9.4c0-3.6-1.4-6.9-3.6-9.4l-9.4,9.4L727.2,452z"/>
	<polygon fill="none" points="767.1,555.4 696,614.6 767.1,614.6 	"/>
	<path fill="none" d="M720.6,26.5h0.6c0,0,0,0,0,0c0,0,0,0,0,0c1.9,0,3.4-1.5,3.5-3.3c0,0,0-0.1,0-0.2V11.8h-4.1c-0.1,0-0.1,0-0.2,0
		c-1.8,0.1-3.3,1.6-3.3,3.5c0,0,0,0,0,0c0,0,0,0,0,0v7.6C717.1,24.9,718.7,26.5,720.6,26.5z"/>
	<path fill="none" d="M707.4,453c2.5,2.3,5.8,3.6,9.4,3.6c3.6,0,6.9-1.4,9.4-3.6l-9.4-9.4L707.4,453z"/>
	<path fill="none" d="M716.1,378.1c-0.1,0-0.2,0-0.2,0c-0.1,0-0.2,0-0.2,0c-7.6,0.1-13.8,6.4-13.8,14.1c0,7.8,6.3,14.1,14.1,14.1
		c7.7,0,13.9-6.2,14.1-13.8c0-0.1,0-0.1,0-0.2c0-0.1,0-0.2,0-0.2C729.8,384.3,723.7,378.2,716.1,378.1z M715.9,395.3
		c-1.8,0-3.2-1.4-3.2-3.2s1.4-3.2,3.2-3.2c1.8,0,3.2,1.4,3.2,3.2S717.7,395.3,715.9,395.3z"/>
	<path fill="none" d="M289.2,293C289.2,293,289.1,293,289.2,293c-1.4,2.8-1.4,5.9-0.1,8.6c0,0,0,0,0.1,0.1c0.3,0.4,0.9,0.4,1.2,0
		c1.5-2.7,1.5-6,0-8.8C290,292.6,289.4,292.6,289.2,293z"/>
	<path fill="none" d="M693.8,50.1h-23.6v183.8v183.8h97v-24.9h-35.7c-0.4,8.2-7.2,14.8-15.5,14.8c-8.6,0-15.5-7-15.5-15.5
		c0-8.3,6.6-15.1,14.8-15.5V279h-3.4l4.1-24.7l4.1,24.7h-3.4v97.7c8,0.4,14.4,6.8,14.8,14.8h35.7V233.9V111.3L693.8,50.1z
		 M681.5,374.6c0.4,0,0.7,0.3,0.7,0.7s-0.3,0.7-0.7,0.7h-4.4v5.6c0,0.4-0.3,0.7-0.7,0.7s-0.7-0.3-0.7-0.7v-6.4v-5.2
		c0-0.4,0.3-0.7,0.7-0.7h5.1c0.4,0,0.7,0.3,0.7,0.7s-0.3,0.7-0.7,0.7h-4.4v3.7H681.5z M689.2,374.7h-1.9v7c0,0.4-0.3,0.7-0.7,0.7
		s-0.7-0.3-0.7-0.7v-7h-0.5c-0.4,0-0.7-0.3-0.7-0.7s0.3-0.7,0.7-0.7h0.5v-3.1c0-0.4,0.3-0.7,0.7-0.7s0.7,0.3,0.7,0.7v3.1h1.9
		c0.4,0,0.7,0.3,0.7,0.7S689.6,374.7,689.2,374.7z M698.9,377.8C698.9,377.8,698.9,377.8,698.9,377.8
		C698.9,377.8,698.9,377.8,698.9,377.8v1.3v0c0,0,0,0,0,0c0,1.8-1.5,3.2-3.3,3.2c0,0,0,0,0,0c0,0,0,0,0,0h-2.5
		c-0.4,0-0.7-0.3-0.7-0.7s0.3-0.7,0.7-0.7h2.5c0,0,0,0,0,0c0,0,0,0,0,0c1,0,1.8-0.8,1.8-1.8v-1.3c0,0,0,0,0,0c0,0,0,0,0,0
		c0-0.9-0.7-1.7-1.7-1.8c-0.1,0-0.1,0-0.2,0h-1.3c-0.4,0-0.7-0.3-0.7-0.7s0.3-0.7,0.7-0.7h1c0.1,0,0.2-0.1,0.3-0.1
		c1,0,1.8-0.8,1.8-1.8c0-1-0.8-1.8-1.8-1.8c0,0,0,0,0,0c0,0,0,0,0,0h-2.5c-0.4,0-0.7-0.3-0.7-0.7s0.3-0.7,0.7-0.7h2.5c0,0,0,0,0,0
		c0,0,0,0,0,0c1.8,0,3.3,1.5,3.3,3.3c0,1-0.5,2-1.2,2.6C698.4,375.8,698.9,376.8,698.9,377.8z M736.4,273.2c0.4,0,0.7,0.3,0.7,0.7
		s-0.3,0.7-0.7,0.7h-4.4v5.7c0,0.4-0.3,0.7-0.7,0.7s-0.7-0.3-0.7-0.7v-6.4v-5.1c0-0.4,0.3-0.7,0.7-0.7h5.1c0.4,0,0.7,0.3,0.7,0.7
		s-0.3,0.7-0.7,0.7h-4.4v3.7H736.4z M744.8,273.9c0,0.4-0.3,0.7-0.7,0.7s-0.7-0.3-0.7-0.7v-0.5H741v7c0,0.4-0.3,0.7-0.7,0.7
		s-0.7-0.3-0.7-0.7v-7.7c0-0.4,0.3-0.7,0.7-0.7h3.8c0.4,0,0.7,0.3,0.7,0.7V273.9z M753.8,276.4C753.8,276.5,753.8,276.5,753.8,276.4
		C753.8,276.5,753.8,276.5,753.8,276.4v1.3v0c0,0,0,0,0,0c0,1.7-1.3,3-3,3.2c-0.1,0.1-0.2,0.1-0.3,0.1H748c-0.4,0-0.7-0.3-0.7-0.7
		s0.3-0.7,0.7-0.7h2.3c0.1,0,0.2-0.1,0.3-0.1c1,0,1.8-0.8,1.8-1.8v-1.2c0,0,0,0,0,0s0,0,0,0c0-1-0.8-1.8-1.8-1.8c0,0,0,0,0,0
		c0,0,0,0,0,0h-1.3c-0.4,0-0.7-0.3-0.7-0.7s0.3-0.7,0.7-0.7h1.3c0,0,0,0,0,0c0,0,0,0,0,0c1,0,1.8-0.8,1.8-1.8c0-1-0.8-1.8-1.8-1.8
		c0,0,0,0,0,0c0,0,0,0,0,0H748c-0.4,0-0.7-0.3-0.7-0.7s0.3-0.7,0.7-0.7h2.6c0,0,0,0,0,0c0,0,0,0,0,0c1.8,0,3.3,1.5,3.3,3.3
		c0,1-0.5,2-1.2,2.6C753.3,274.5,753.8,275.4,753.8,276.4z"/>
	<path d="M300.5,197.7c-0.1,0-0.2,0.1-0.3,0.1c-0.2,0-0.3-0.1-0.5-0.2l-0.3-0.2v36.6c0-0.4,0.3-0.7,0.7-0.7h0.7V197
		C300.9,197.3,300.7,197.6,300.5,197.7z"/>
	<path d="M202.5,233.9c0,0.4-0.3,0.7-0.7,0.7h-0.7v73.1h1.4V233.9z"/>
	<path d="M201.8,331.7c0.4,0,0.7,0.3,0.7,0.7v0.7h97v-0.7c0-0.4,0.3-0.7,0.7-0.7s0.7,0.3,0.7,0.7v-97.7h-0.7c-0.4,0-0.7-0.3-0.7-0.7
		v97.7h-97v-22.5h-1.4v23.2C201.1,332,201.4,331.7,201.8,331.7z"/>
	<path d="M226.6,134.9c0,0,0.1,0,0.1,0.1c0,0,0.1,0,0.1,0l1.5,1.3h71.1v-0.7c0-0.4,0.3-0.7,0.7-0.7h-73.8c0,0,0.1,0,0.1,0
		C226.5,134.8,226.6,134.9,226.6,134.9z"/>
	<path d="M202.5,233.9v-97.7h-0.7c-0.4,0-0.7-0.3-0.7-0.7v97.7h0.7C202.2,233.2,202.5,233.5,202.5,233.9z"/>
	<path d="M299.5,701.5v-0.7h-71.1l-1.5,1.3c0,0-0.1,0-0.1,0.1c0,0-0.1,0-0.1,0.1c-0.1,0-0.2,0.1-0.3,0.1h73.8
		C299.8,702.2,299.5,701.9,299.5,701.5z"/>
	<polygon points="226.4,702.2 226.4,702.2 226.4,702.2 	"/>
	<path d="M299.5,516.9v122.7l0.3-0.2c0.2-0.2,0.5-0.2,0.8-0.1c0.3,0.1,0.4,0.4,0.4,0.7V517.6h-0.7
		C299.8,517.6,299.5,517.3,299.5,516.9z"/>
	<path d="M201.8,700.7h0.7V516.9c0,0.4-0.3,0.7-0.7,0.7h-0.7v183.8C201.1,701.1,201.4,700.7,201.8,700.7z"/>
	<path d="M299.5,516.9c0-0.4,0.3-0.7,0.7-0.7h0.7V357h-1.4V516.9z"/>
	<path d="M202.5,516.9V333.1v-0.7c0-0.4-0.3-0.7-0.7-0.7s-0.7,0.3-0.7,0.7v183.8h0.7C202.2,516.2,202.5,516.5,202.5,516.9z"/>
	<path d="M300.2,331.7c-0.4,0-0.7,0.3-0.7,0.7v0.7v22.4h1.4v-23.2C300.9,332,300.6,331.7,300.2,331.7z"/>
	<path fill="#008272" d="M299.5,233.9c0,0.4,0.3,0.7,0.7,0.7h0.7h91.6c0.4,0,0.7-0.3,0.7-0.7s-0.3-0.7-0.7-0.7h-91.6h-0.7
		C299.8,233.2,299.5,233.5,299.5,233.9z"/>
	<path d="M669.4,614.6h0.7v-97.7c0,0.4-0.3,0.7-0.7,0.7h-0.7v97.7C668.7,615,669,614.6,669.4,614.6z"/>
	<path d="M767.8,419.2c-0.4,0-0.7-0.3-0.7-0.7v-0.7h-97v0.7c0,0.4-0.3,0.7-0.7,0.7s-0.7-0.3-0.7-0.7v23.3h1.4v-22.6h97v97.7
		c0-0.4,0.3-0.7,0.7-0.7h0.7v-97.7C768.5,418.9,768.2,419.2,767.8,419.2z"/>
	<path d="M767.1,516.9v36.6l0.3-0.2c0.2-0.2,0.5-0.2,0.8-0.1c0.3,0.1,0.4,0.4,0.4,0.7v-36.2h-0.7
		C767.4,517.6,767.1,517.3,767.1,516.9z"/>
	<path d="M767.1,615.4v-0.7H696l-1.5,1.3c0,0-0.1,0-0.1,0.1c0,0-0.1,0-0.1,0.1c-0.1,0-0.2,0.1-0.3,0.1h73.8
		C767.4,616.1,767.1,615.8,767.1,615.4z"/>
	<path d="M670.1,516.9v-73.6h-1.4v72.9h0.7C669.8,516.2,670.1,516.5,670.1,516.9z"/>
	<path d="M767.1,417.8v0.7c0,0.4,0.3,0.7,0.7,0.7s0.7-0.3,0.7-0.7v-25.6h-1.4V417.8z"/>
	<path d="M694.3,48.7c0,0,0.1,0,0.1,0.1c0,0,0.1,0,0.1,0l1.5,1.3h71.1v-0.7c0-0.4,0.3-0.7,0.7-0.7H694c0,0,0.1,0,0.1,0
		C694.2,48.7,694.2,48.7,694.3,48.7z"/>
	<path d="M768.1,111.6c-0.1,0-0.2,0.1-0.3,0.1c-0.2,0-0.3-0.1-0.5-0.2l-0.3-0.2v122.7c0-0.4,0.3-0.7,0.7-0.7h0.7V110.9
		C768.5,111.2,768.4,111.5,768.1,111.6z"/>
	<path d="M670.1,233.9V50.1h-0.7c-0.4,0-0.7-0.3-0.7-0.7v183.8h0.7C669.8,233.2,670.1,233.5,670.1,233.9z"/>
	<path d="M767.1,233.9v157.5h1.4V234.7h-0.7C767.4,234.7,767.1,234.3,767.1,233.9z"/>
	<path d="M669.4,419.2c0.4,0,0.7-0.3,0.7-0.7v-0.7V233.9c0,0.4-0.3,0.7-0.7,0.7h-0.7v183.8C668.7,418.9,669,419.2,669.4,419.2z"/>
	<path fill="#C0392B" d="M670.1,233.9c0-0.4-0.3-0.7-0.7-0.7h-0.7h-91.6c-0.4,0-0.7,0.3-0.7,0.7s0.3,0.7,0.7,0.7h91.6h0.7
		C669.8,234.7,670.1,234.3,670.1,233.9z"/>
	<path fill="#008272" d="M250.3,309c-0.1,0.1-0.3,0.2-0.5,0.2s-0.4-0.1-0.5-0.2c-0.3-0.3-0.3-0.7,0-1l0.5-0.5l-9.4-9.4
		c-0.4,0.3-0.7,0.7-1,1l9.4,9.4l-9.4,9.4c0.3,0.4,0.7,0.7,1,1l9.4-9.4l9.4,9.4c0.4-0.3,0.7-0.7,1-1l-9.4-9.4L250.3,309z"/>
	<path fill="#008272" d="M238.7,319.3c0,0,0,0.1,0.1,0.1s0.1,0.1,0.1,0.1C238.9,319.4,238.8,319.4,238.7,319.3z"/>
	<path fill="#008272" d="M249.3,308c-0.3,0.3-0.3,0.7,0,1c0.1,0.1,0.3,0.2,0.5,0.2s0.4-0.1,0.5-0.2l0.5-0.5l9.4-9.4
		c-0.3-0.4-0.7-0.7-1-1l-9.4,9.4L249.3,308z"/>
	<path fill="#008272" d="M239,319.5c2.8,2.7,6.6,4.4,10.8,4.4c8.6,0,15.5-7,15.5-15.5c0-8.3-6.6-15.1-14.8-15.5v0.7
		c0,0.3-0.2,0.6-0.5,0.7c3.5,0.1,6.8,1.4,9.2,3.6c0.4,0.3,0.7,0.7,1,1c2.3,2.5,3.6,5.8,3.6,9.4c0,3.6-1.4,6.9-3.7,9.4
		c-0.3,0.4-0.7,0.7-1,1c-2.5,2.2-5.8,3.6-9.4,3.6c-3.6,0-6.9-1.4-9.4-3.6c-0.4-0.3-0.7-0.7-1-1c-2.3-2.5-3.6-5.8-3.6-9.4
		c0-3.6,1.4-6.9,3.6-9.4c0.3-0.4,0.7-0.7,1-1c2.4-2.2,5.6-3.6,9.2-3.7c-0.3-0.1-0.5-0.4-0.5-0.7V293c-8,0.4-14.4,6.8-14.7,14.8h0.7
		c0.4,0,0.7,0.3,0.7,0.7s-0.3,0.7-0.7,0.7h-0.7c0.2,3.9,1.8,7.5,4.4,10.1C238.8,319.4,238.9,319.4,239,319.5z"/>
	<path fill="#008272" d="M249.8,340.7c-8.6,0-15.5,7-15.5,15.5c0,8.3,6.6,15.1,14.8,15.5V371c0-0.4,0.3-0.7,0.7-0.7s0.7,0.3,0.7,0.7
		v0.7c8-0.4,14.4-6.8,14.8-14.7h-0.7c-0.3,0-0.6-0.2-0.7-0.5c-0.1,7.6-6.4,13.8-14.1,13.8c-7.8,0-14.1-6.3-14.1-14.1
		c0-7.8,6.3-14.1,14.1-14.1c7.7,0,13.9,6.2,14.1,13.9c0.1-0.3,0.4-0.5,0.7-0.5h0.7C264.9,347.3,258.1,340.7,249.8,340.7z"/>
	<path fill="#008272" d="M249.8,354.5c-0.3,0-0.5,0.1-0.8,0.2h1.5C250.3,354.5,250.1,354.5,249.8,354.5z"/>
	<path fill="#008272" d="M250.6,354.7H249c-0.2,0.1-0.4,0.2-0.5,0.4h2.5C250.9,354.9,250.8,354.8,250.6,354.7z"/>
	<path fill="#008272" d="M251.1,355h-2.5c-0.1,0.1-0.2,0.2-0.3,0.4h3.1C251.3,355.2,251.2,355.1,251.1,355z"/>
	<path fill="#008272" d="M251.3,355.4h-3.1c-0.1,0.1-0.2,0.3-0.2,0.5h3.4C251.5,355.7,251.4,355.5,251.3,355.4z"/>
	<path fill="#008272" d="M248.1,355.9c0,0.1,0,0.3,0,0.4c0,0,0,0,0,0h3.5c0,0,0,0,0,0c0-0.1,0-0.3,0-0.4H248.1z"/>
	<path fill="#008272" d="M248.1,356.8h3.4c0-0.2,0.1-0.3,0.1-0.5H248C248,356.4,248.1,356.6,248.1,356.8z"/>
	<path fill="#008272" d="M248.3,357.2h3c0.1-0.1,0.1-0.3,0.2-0.4h-3.4C248.2,356.9,248.2,357.1,248.3,357.2z"/>
	<path fill="#008272" d="M248.7,357.6h2.3c0.1-0.1,0.3-0.3,0.4-0.4h-3C248.4,357.3,248.5,357.5,248.7,357.6z"/>
	<path fill="#008272" d="M249.4,358h0.9c0.3-0.1,0.5-0.2,0.7-0.4h-2.3C248.9,357.8,249.1,357.9,249.4,358z"/>
	<path fill="#008272" d="M249.8,358c0.2,0,0.3,0,0.4-0.1h-0.9C249.5,358,249.7,358,249.8,358z"/>
	<path fill="#008272" d="M249.8,353c-1.8,0-3.2,1.4-3.2,3.2s1.4,3.2,3.2,3.2s3.2-1.4,3.2-3.2S251.6,353,249.8,353z M251.6,356.2
		C251.6,356.3,251.6,356.3,251.6,356.2c0,0.2,0,0.4-0.1,0.5c0,0.1-0.1,0.3-0.2,0.4c-0.1,0.2-0.2,0.3-0.4,0.4
		c-0.2,0.2-0.4,0.3-0.7,0.4c-0.1,0-0.3,0.1-0.4,0.1s-0.3,0-0.4-0.1c-0.3-0.1-0.5-0.2-0.7-0.4c-0.1-0.1-0.3-0.3-0.4-0.4
		c-0.1-0.1-0.1-0.3-0.2-0.4c0-0.2-0.1-0.3-0.1-0.5c0,0,0,0,0,0c0-0.1,0-0.3,0-0.4c0-0.2,0.1-0.3,0.2-0.5c0.1-0.1,0.2-0.3,0.3-0.4
		c0.1-0.1,0.3-0.3,0.5-0.4c0.2-0.1,0.5-0.2,0.8-0.2s0.5,0.1,0.8,0.2c0.2,0.1,0.4,0.2,0.5,0.4c0.1,0.1,0.2,0.2,0.3,0.4
		c0.1,0.1,0.2,0.3,0.2,0.5C251.6,356,251.6,356.1,251.6,356.2z"/>
	<path fill="#008272" d="M705.8,453.4c0,0,0,0.1,0.1,0.1c0,0,0.1,0.1,0.1,0.1C705.9,453.5,705.9,453.5,705.8,453.4z"/>
	<path fill="#008272" d="M706.4,451.9c0.3,0.4,0.7,0.7,1,1l9.4-9.4l9.4,9.4c0.4-0.3,0.7-0.7,1-1l-9.4-9.4l-0.5,0.5
		c-0.1,0.1-0.3,0.2-0.5,0.2s-0.4-0.1-0.5-0.2c-0.3-0.3-0.3-0.7,0-1l0.5-0.5l-9.4-9.4c-0.4,0.3-0.7,0.7-1,1l9.4,9.4L706.4,451.9z"/>
	<path fill="#008272" d="M716.3,442.1c-0.3,0.3-0.3,0.7,0,1c0.1,0.1,0.3,0.2,0.5,0.2s0.4-0.1,0.5-0.2l0.5-0.5l9.4-9.4
		c-0.3-0.4-0.7-0.7-1-1l-9.4,9.4L716.3,442.1z"/>
	<path fill="#008272" d="M706,453.6c2.6,2.6,6.2,4.2,10.1,4.4v-0.7c0-0.4,0.3-0.7,0.7-0.7s0.7,0.3,0.7,0.7v0.7
		c8.2-0.4,14.8-7.2,14.8-15.5c0-8.6-7-15.5-15.5-15.5c-8.3,0-15.1,6.6-15.5,14.8h0.7c0.4,0,0.7,0.3,0.7,0.7s-0.3,0.7-0.7,0.7h-0.7
		c0.2,3.9,1.8,7.5,4.4,10.1C705.9,453.5,705.9,453.5,706,453.6z M706.4,433.1c0.3-0.4,0.7-0.7,1-1c2.5-2.3,5.8-3.7,9.4-3.7
		c3.6,0,6.9,1.4,9.4,3.6c0.4,0.3,0.7,0.7,1,1c2.3,2.5,3.6,5.8,3.6,9.4c0,3.6-1.4,6.9-3.7,9.4c-0.3,0.4-0.7,0.7-1,1
		c-2.5,2.2-5.8,3.6-9.4,3.6c-3.6,0-6.9-1.4-9.4-3.6c-0.4-0.3-0.7-0.7-1-1c-2.3-2.5-3.6-5.8-3.6-9.4
		C702.8,438.9,704.2,435.6,706.4,433.1z"/>
	<path fill="#008272" d="M715.9,406.2c-7.8,0-14.1-6.3-14.1-14.1c0-7.7,6.2-13.9,13.8-14.1c-0.3-0.1-0.5-0.4-0.5-0.7v-0.7
		c-8.2,0.4-14.8,7.2-14.8,15.5c0,8.6,7,15.5,15.5,15.5c8.3,0,15.1-6.6,15.5-14.8h-0.7c-0.3,0-0.6-0.2-0.7-0.5
		C729.8,400,723.6,406.2,715.9,406.2z"/>
	<path fill="#008272" d="M716.6,376.7v0.7c0,0.3-0.2,0.6-0.5,0.7c7.6,0.1,13.7,6.3,13.8,13.8c0.1-0.3,0.4-0.5,0.7-0.5h0.7
		C731,383.4,724.6,377,716.6,376.7z"/>
	<path fill="#008272" d="M715.9,390.4c-0.2,0-0.4,0-0.6,0.1h1.3C716.3,390.4,716.1,390.4,715.9,390.4z"/>
	<path fill="#008272" d="M716.5,390.5h-1.3c-0.2,0.1-0.4,0.2-0.6,0.4h2.4C716.9,390.7,716.7,390.6,716.5,390.5z"/>
	<path fill="#008272" d="M717.1,390.8h-2.4c-0.1,0.1-0.2,0.3-0.3,0.4h3.1C717.3,391.1,717.2,391,717.1,390.8z"/>
	<path fill="#008272" d="M717.4,391.3h-3.1c-0.1,0.1-0.2,0.3-0.2,0.5h3.4C717.6,391.6,717.5,391.4,717.4,391.3z"/>
	<path fill="#008272" d="M714.2,391.7c0,0.1,0,0.3,0,0.4c0,0,0,0,0,0h3.5c0,0,0,0,0,0c0-0.1,0-0.3,0-0.4H714.2z"/>
	<path fill="#008272" d="M714.2,392.6h3.4c0-0.2,0.1-0.3,0.1-0.5h-3.5C714.1,392.3,714.2,392.5,714.2,392.6z"/>
	<path fill="#008272" d="M714.4,393.1h3c0.1-0.1,0.1-0.3,0.2-0.4h-3.4C714.2,392.8,714.3,392.9,714.4,393.1z"/>
	<path fill="#008272" d="M714.8,393.5h2.3c0.1-0.1,0.3-0.3,0.4-0.4h-3C714.5,393.2,714.6,393.4,714.8,393.5z"/>
	<path fill="#008272" d="M715.5,393.8h0.9c0.3-0.1,0.5-0.2,0.7-0.4h-2.3C715,393.6,715.2,393.8,715.5,393.8z"/>
	<path fill="#008272" d="M715.9,393.9c0.2,0,0.3,0,0.4-0.1h-0.9C715.6,393.9,715.7,393.9,715.9,393.9z"/>
	<path fill="#008272" d="M715.9,388.9c-1.8,0-3.2,1.4-3.2,3.2s1.4,3.2,3.2,3.2c1.8,0,3.2-1.4,3.2-3.2S717.7,388.9,715.9,388.9z
		 M717.7,392.1C717.7,392.1,717.7,392.1,717.7,392.1c0,0.2,0,0.4-0.1,0.5c0,0.1-0.1,0.3-0.2,0.4c-0.1,0.2-0.2,0.3-0.4,0.4
		c-0.2,0.2-0.4,0.3-0.7,0.4c-0.1,0-0.3,0.1-0.4,0.1s-0.3,0-0.4-0.1c-0.3-0.1-0.5-0.2-0.7-0.4c-0.1-0.1-0.3-0.3-0.4-0.4
		c-0.1-0.1-0.1-0.3-0.2-0.4c0-0.2-0.1-0.3-0.1-0.5c0,0,0,0,0,0c0-0.1,0-0.3,0-0.4c0-0.2,0.1-0.3,0.2-0.5c0.1-0.2,0.2-0.3,0.3-0.4
		c0.2-0.2,0.4-0.3,0.6-0.4c0.2-0.1,0.4-0.1,0.6-0.1c0.2,0,0.4,0,0.6,0.1c0.2,0.1,0.4,0.2,0.6,0.4c0.1,0.1,0.2,0.3,0.3,0.4
		c0.1,0.1,0.2,0.3,0.2,0.5C717.6,391.9,717.7,392,717.7,392.1z"/>
	<path d="M226.6,134.9c0,0,0.1,0,0.1,0.1C226.7,134.9,226.7,134.9,226.6,134.9z"/>
	<path d="M201.8,136.3h0.7h23.6l-0.2-0.2c-0.3-0.3-0.3-0.7-0.1-1c0.2-0.2,0.4-0.3,0.7-0.2c0,0-0.1,0-0.1,0h-24.6
		c-0.4,0-0.7,0.3-0.7,0.7S201.4,136.3,201.8,136.3z"/>
	<path d="M299.5,135.5v0.7v59.2l-71.1-59.2l-1.5-1.3c0,0-0.1,0-0.1,0c0,0-0.1-0.1-0.1-0.1c0,0-0.1,0-0.1,0c-0.2,0-0.5,0-0.7,0.2
		c-0.3,0.3-0.2,0.8,0.1,1l0.2,0.2l73.3,61.1l0.3,0.2c0.1,0.1,0.3,0.2,0.5,0.2c0.1,0,0.2,0,0.3-0.1c0.3-0.1,0.4-0.4,0.4-0.7v-61.5
		c0-0.4-0.3-0.7-0.7-0.7S299.5,135.1,299.5,135.5z"/>
	<path d="M669.4,50.1h0.7h23.6l-0.2-0.2c-0.3-0.3-0.3-0.7-0.1-1c0.2-0.2,0.4-0.3,0.7-0.2c0,0-0.1,0-0.1,0h-24.6
		c-0.4,0-0.7,0.3-0.7,0.7S669,50.1,669.4,50.1z"/>
	<path d="M694.3,48.7c0,0,0.1,0,0.1,0.1C694.4,48.8,694.3,48.7,694.3,48.7z"/>
	<path d="M767.1,49.4v0.7v59.3L696,50.1l-1.5-1.3c0,0-0.1,0-0.1,0c0,0-0.1-0.1-0.1-0.1c0,0-0.1,0-0.1,0c-0.2,0-0.5,0-0.7,0.2
		c-0.3,0.3-0.2,0.8,0.1,1l0.2,0.2l73.3,61.2l0.3,0.2c0.1,0.1,0.3,0.2,0.5,0.2c0.1,0,0.2,0,0.3-0.1c0.3-0.1,0.4-0.4,0.4-0.7V49.4
		c0-0.4-0.3-0.7-0.7-0.7S767.1,49,767.1,49.4z"/>
	<path d="M226.6,702.1C226.7,702.1,226.7,702.1,226.6,702.1C226.7,702.1,226.7,702.1,226.6,702.1z"/>
	<path d="M225.8,701.9c-0.3-0.3-0.2-0.8,0.1-1l0.2-0.2h-23.6h-0.7c-0.4,0-0.7,0.3-0.7,0.7s0.3,0.7,0.7,0.7h24.6c0,0,0,0,0,0
		C226.2,702.2,226,702.1,225.8,701.9z"/>
	<path d="M300.5,639.3c-0.3-0.1-0.6-0.1-0.8,0.1l-0.3,0.2l-73.3,61.1l-0.2,0.2c-0.3,0.3-0.3,0.7-0.1,1c0.1,0.2,0.3,0.3,0.6,0.3
		c0,0,0,0,0,0c0.1,0,0.2,0,0.3-0.1c0,0,0.1,0,0.1-0.1c0,0,0.1,0,0.1-0.1l1.5-1.3l71.1-59.2v59.2v0.7c0,0.4,0.3,0.7,0.7,0.7
		s0.7-0.3,0.7-0.7V640C300.9,639.7,300.7,639.4,300.5,639.3z"/>
	<path d="M694.3,616C694.3,616,694.3,616,694.3,616C694.3,616,694.3,616,694.3,616z"/>
	<path d="M693.6,614.8l0.2-0.2h-23.6h-0.7c-0.4,0-0.7,0.3-0.7,0.7s0.3,0.7,0.7,0.7H694c-0.2,0-0.4-0.1-0.6-0.3
		C693.2,615.5,693.3,615.1,693.6,614.8z"/>
	<path d="M768.1,553.2c-0.3-0.1-0.6-0.1-0.8,0.1l-0.3,0.2l-73.3,61.1l-0.2,0.2c-0.3,0.3-0.3,0.7-0.1,1c0.1,0.2,0.3,0.3,0.6,0.3
		c0.1,0,0.2,0,0.3-0.1c0,0,0.1,0,0.1-0.1c0,0,0.1,0,0.1-0.1l1.5-1.3l71.1-59.2v59.2v0.7c0,0.4,0.3,0.7,0.7,0.7s0.7-0.3,0.7-0.7
		v-61.5C768.5,553.6,768.4,553.3,768.1,553.2z"/>
	<path fill="#C0392B" d="M249.8,194.5c0.4,0,0.7,0.3,0.7,0.7h3.4l-4.1-24.6l-4.1,24.6h3.4C249.1,194.8,249.4,194.5,249.8,194.5z"/>
	<path fill="#C0392B" d="M249.5,294.4c0.1,0,0.1,0,0.2,0c0.1,0,0.2,0,0.2,0c0.3-0.1,0.5-0.4,0.5-0.7V293v-97.7v0
		c0-0.4-0.3-0.7-0.7-0.7s-0.7,0.3-0.7,0.7v0V293v0.7C249.1,294,249.3,294.3,249.5,294.4z"/>
	<path fill="#002FA7" d="M135.8,308.5c0-0.4,0.3-0.7,0.7-0.7v-3.4l-24.6,4.1l24.6,4.1v-3.4C136.2,309.2,135.8,308.9,135.8,308.5z"/>
	<path fill="#002FA7" d="M234.3,309.2h0.7c0.4,0,0.7-0.3,0.7-0.7s-0.3-0.7-0.7-0.7h-0.7h-31.8h-1.4h-64.5h0c-0.4,0-0.7,0.3-0.7,0.7
		s0.3,0.7,0.7,0.7h0h64.5h1.4H234.3z"/>
	<path fill="#002FA7" d="M363.7,356.3c0,0.4-0.3,0.7-0.7,0.7v3.4l24.6-4.1l-24.6-4.1v3.4C363.3,355.6,363.7,355.9,363.7,356.3z"/>
	<path fill="#002FA7" d="M265.3,355.6h-0.7c-0.3,0-0.6,0.2-0.7,0.5c0,0.1,0,0.2,0,0.2c0,0.1,0,0.2,0,0.2c0.1,0.3,0.4,0.5,0.7,0.5
		h0.7h34.2h1.4h62h0c0.4,0,0.7-0.3,0.7-0.7s-0.3-0.7-0.7-0.7h0h-62h-1.4H265.3z"/>
	<path fill="#C0392B" d="M249.8,470.2c-0.4,0-0.7-0.3-0.7-0.7v0h-3.4l4.1,24.6l4.1-24.6h-3.4v0C250.5,469.9,250.2,470.2,249.8,470.2
		z"/>
	<path fill="#C0392B" d="M249.8,370.3c-0.4,0-0.7,0.3-0.7,0.7v0.7v97.8v0c0,0.4,0.3,0.7,0.7,0.7s0.7-0.3,0.7-0.7v0v-97.8V371
		C250.5,370.6,250.2,370.3,249.8,370.3z"/>
	<path fill="#C0392B" d="M715.9,278.3c0.4,0,0.7,0.3,0.7,0.7v0h3.4l-4.1-24.7l-4.1,24.7h3.4v0C715.1,278.6,715.5,278.3,715.9,278.3z
		"/>
	<path fill="#C0392B" d="M715.6,378.1c0.1,0,0.1,0,0.2,0c0.1,0,0.2,0,0.2,0c0.3-0.1,0.5-0.4,0.5-0.7v-0.7V279v0
		c0-0.4-0.3-0.7-0.7-0.7s-0.7,0.3-0.7,0.7v0v97.7v0.7C715.1,377.7,715.3,378,715.6,378.1z"/>
	<path fill="#002FA7" d="M829.8,392.2c0,0.4-0.3,0.7-0.7,0.7h0v3.4l24.6-4.1l-24.6-4.1v3.4h0C829.5,391.4,829.8,391.8,829.8,392.2z"
		/>
	<path fill="#002FA7" d="M731.4,391.4h-0.7c-0.3,0-0.6,0.2-0.7,0.5c0,0.1,0,0.2,0,0.2c0,0.1,0,0.2,0,0.2c0.1,0.3,0.4,0.5,0.7,0.5
		h0.7h35.7h1.4h60.5h0c0.4,0,0.7-0.3,0.7-0.7s-0.3-0.7-0.7-0.7h0h-60.5h-1.4H731.4z"/>
	<path fill="#002FA7" d="M602.9,442.6c0-0.4,0.3-0.7,0.7-0.7v-3.4l-24.7,4.1l24.7,4.1v-3.4C603.3,443.3,602.9,443,602.9,442.6z"/>
	<path fill="#002FA7" d="M701.4,443.3h0.7c0.4,0,0.7-0.3,0.7-0.7s-0.3-0.7-0.7-0.7h-0.7h-31.2h-1.4h-65c0,0,0,0,0,0
		c-0.4,0-0.7,0.3-0.7,0.7s0.3,0.7,0.7,0.7c0,0,0,0,0,0h65h1.4H701.4z"/>
	<path fill="#C0392B" d="M716.8,556.4c-0.4,0-0.7-0.3-0.7-0.7v0h-3.4l4.1,24.6l4.1-24.6h-3.4v0C717.5,556.1,717.2,556.4,716.8,556.4
		z"/>
	<path fill="#C0392B" d="M716.8,456.6c-0.4,0-0.7,0.3-0.7,0.7v0.7v97.7v0c0,0.4,0.3,0.7,0.7,0.7s0.7-0.3,0.7-0.7v0V458v-0.7
		C717.5,456.9,717.2,456.6,716.8,456.6z"/>
	<path fill="#002FA7" d="M367.8,376.2c0.4,0,0.7-0.3,0.7-0.7s-0.3-0.7-0.7-0.7h-5.9c-0.4,0-0.7,0.3-0.7,0.7v5.9
		c0-0.4,0.3-0.7,0.7-0.7h0.7v-4.5H367.8z"/>
	<path fill="#002FA7" d="M361.1,381.4v7.4c0,0.4,0.3,0.7,0.7,0.7s0.7-0.3,0.7-0.7v-6.7h-0.7C361.5,382.1,361.1,381.8,361.1,381.4z"
		/>
	<path fill="#002FA7" d="M361.1,381.4c0,0.4,0.3,0.7,0.7,0.7h0.7h5.2c0.4,0,0.7-0.3,0.7-0.7s-0.3-0.7-0.7-0.7h-5.2h-0.7
		C361.5,380.7,361.1,381,361.1,381.4z"/>
	<path fill="#002FA7" d="M375.2,379.9c0,0.4-0.3,0.7-0.7,0.7c-0.1,0-0.1,0-0.2,0c0.1,0,0.1,0,0.2,0h1.9v5.9c0,0.1,0,0.1,0,0.2
		c0-0.1,0-0.1,0-0.2c0-0.4,0.3-0.7,0.7-0.7c0.3,0,0.5,0.2,0.7,0.4v-6.3c0-0.4-0.3-0.7-0.7-0.7h-2.3
		C375,379.3,375.2,379.6,375.2,379.9z"/>
	<path fill="#002FA7" d="M374.5,388.1c0.1,0,0.1,0,0.2,0c0.1,0,0.1,0,0.2,0c0,0,0,0,0,0H374.5z"/>
	<path fill="#002FA7" d="M374.5,389.5h0.3c0,0,0,0,0,0c-0.1,0-0.1,0-0.2,0C374.6,389.5,374.6,389.5,374.5,389.5z"/>
	<path fill="#002FA7" d="M374.5,389.5L374.5,389.5C374.5,389.5,374.5,389.5,374.5,389.5C374.4,389.5,374.4,389.5,374.5,389.5z"/>
	<path fill="#002FA7" d="M376.3,386.9c-0.2,0.7-0.8,1.1-1.5,1.1c0,0,0,0,0,0c-0.1,0-0.1,0-0.2,0c0.3,0.1,0.5,0.3,0.5,0.7
		s-0.2,0.6-0.5,0.7c0.1,0,0.1,0,0.2,0c0,0,0,0,0,0c1,0,1.8-0.5,2.4-1.2l-0.7-0.9C376.4,387.3,376.3,387.1,376.3,386.9z"/>
	<path fill="#002FA7" d="M377.1,385.8c-0.4,0-0.7,0.3-0.7,0.7c0,0.1,0,0.1,0,0.2c0,0,0,0,0,0.1c0-0.1,0.1-0.3,0.2-0.4
		c0.3-0.3,0.8-0.2,1,0.1l0.2,0.2c0-0.1,0-0.2,0-0.2c0-0.1,0-0.2-0.1-0.3C377.6,386,377.4,385.8,377.1,385.8z"/>
	<path fill="#002FA7" d="M377.6,386.5c-0.3-0.3-0.7-0.3-1-0.1c-0.1,0.1-0.2,0.2-0.2,0.4c0,0,0,0.1,0,0.1c0,0.2,0,0.4,0.2,0.5
		l0.7,0.9l0.8,0.9c0.1,0.2,0.3,0.3,0.6,0.3c0.2,0,0.3-0.1,0.5-0.2c0.3-0.3,0.3-0.7,0.1-1l-1.3-1.6L377.6,386.5z"/>
	<path fill="#002FA7" d="M371.5,386.6C371.5,386.6,371.5,386.6,371.5,386.6C371.5,386.6,371.5,386.6,371.5,386.6L371.5,386.6z"/>
	<path fill="#002FA7" d="M371.5,386.6c0-0.4,0.3-0.7,0.7-0.7s0.7,0.3,0.7,0.7v-4.4c0,0,0,0,0,0c0,0.4-0.3,0.7-0.7,0.7
		s-0.7-0.3-0.7-0.7c0,0,0,0,0,0V386.6z"/>
	<path fill="#002FA7" d="M375.2,388.8c0-0.3-0.2-0.6-0.5-0.7c-0.1,0-0.1,0-0.2,0c-0.8,0-1.5-0.7-1.5-1.5c0-0.4-0.3-0.7-0.7-0.7
		s-0.7,0.3-0.7,0.7c0,0,0,0,0,0.1c0,1.6,1.3,2.9,2.9,2.9c0,0,0,0,0.1,0c0.1,0,0.1,0,0.2,0C375,389.4,375.2,389.1,375.2,388.8z"/>
	<path fill="#002FA7" d="M372.2,382.8c0.4,0,0.7-0.3,0.7-0.7c0,0,0,0,0,0c0-0.8,0.6-1.4,1.3-1.5c0.1,0,0.1,0,0.2,0
		c0.4,0,0.7-0.3,0.7-0.7c0-0.3-0.2-0.5-0.4-0.7c-0.1,0-0.2-0.1-0.3-0.1c-1.6,0-3,1.3-3,3c0,0,0,0,0,0
		C371.5,382.5,371.8,382.8,372.2,382.8z"/>
	<path fill="#002FA7" d="M385.6,389.5c0.4,0,0.7-0.3,0.7-0.7v-13.3c0-0.3-0.2-0.6-0.4-0.7c-0.3-0.1-0.6-0.1-0.8,0.2l-3,3
		c-0.3,0.3-0.3,0.7,0,1s0.7,0.3,1,0l1.8-1.8v11.6C384.9,389.2,385.2,389.5,385.6,389.5z"/>
	<path fill="#002FA7" d="M118.6,323.1c0.4,0,0.7-0.3,0.7-0.7s-0.3-0.7-0.7-0.7h-5.2c-0.4,0-0.7,0.3-0.7,0.7v5.1
		c0-0.4,0.3-0.7,0.7-0.7h0.7v-3.7H118.6z"/>
	<path fill="#002FA7" d="M112.7,327.5v6.4c0,0.4,0.3,0.7,0.7,0.7s0.7-0.3,0.7-0.7v-5.7h-0.7C113,328.2,112.7,327.9,112.7,327.5z"/>
	<path fill="#002FA7" d="M112.7,327.5c0,0.4,0.3,0.7,0.7,0.7h0.7h4.4c0.4,0,0.7-0.3,0.7-0.7s-0.3-0.7-0.7-0.7h-4.4h-0.7
		C113,326.8,112.7,327.1,112.7,327.5z"/>
	<path fill="#002FA7" d="M125.1,326.2c0,0.4-0.3,0.7-0.7,0.7c-0.1,0-0.1,0-0.2,0c0,0,0.1,0,0.1,0h1.5v5c0,0,0,0.1,0,0.1
		c0-0.1,0-0.1,0-0.2c0-0.4,0.3-0.7,0.7-0.7c0.3,0,0.5,0.2,0.7,0.4v-5.4c0-0.4-0.3-0.7-0.7-0.7h-1.9
		C124.9,325.6,125.1,325.9,125.1,326.2z"/>
	<path fill="#002FA7" d="M124.4,334.6h0.3c0,0,0,0,0,0c0,0-0.1,0-0.1,0C124.5,334.6,124.4,334.6,124.4,334.6z"/>
	<path fill="#002FA7" d="M124.3,334.6L124.3,334.6C124.3,334.6,124.3,334.6,124.3,334.6C124.3,334.6,124.3,334.6,124.3,334.6z"/>
	<path fill="#002FA7" d="M124.4,333.2c0.1,0,0.1,0,0.1,0c0,0,0.1,0,0.1,0c0,0,0,0,0,0H124.4z"/>
	<path fill="#002FA7" d="M126.6,331.2c-0.4,0-0.7,0.3-0.7,0.7c0,0.1,0,0.1,0,0.2c-0.1,0.6-0.6,1.1-1.2,1.1c0,0,0,0,0,0
		c0,0-0.1,0-0.1,0c0.3,0.1,0.6,0.3,0.6,0.7s-0.2,0.6-0.6,0.7c0,0,0.1,0,0.1,0c0,0,0,0,0,0c0.8,0,1.5-0.4,2-1l-0.7-0.9
		c-0.2-0.3-0.2-0.8,0.1-1c0.3-0.2,0.8-0.2,1,0.1l0.2,0.2c0-0.1,0-0.1,0-0.2c0-0.1,0-0.2-0.1-0.3
		C127.1,331.4,126.9,331.2,126.6,331.2z"/>
	<path fill="#002FA7" d="M127.1,331.9c-0.2-0.3-0.7-0.4-1-0.1c-0.3,0.2-0.4,0.7-0.1,1l0.7,0.9l0.6,0.7c0.1,0.2,0.4,0.3,0.6,0.3
		c0.2,0,0.3-0.1,0.5-0.2c0.3-0.2,0.4-0.7,0.1-1l-1.1-1.3L127.1,331.9z"/>
	<path fill="#002FA7" d="M121.7,332C121.7,332,121.7,332,121.7,332C121.7,332,121.7,332,121.7,332L121.7,332z"/>
	<path fill="#002FA7" d="M121.7,331.9c0-0.4,0.3-0.7,0.7-0.7s0.7,0.3,0.7,0.7v-3.8c0,0,0,0,0,0c0,0.4-0.3,0.7-0.7,0.7
		s-0.7-0.3-0.7-0.7c0,0,0,0,0,0V331.9z"/>
	<path fill="#002FA7" d="M125.1,333.9c0-0.3-0.2-0.6-0.6-0.7c0,0-0.1,0-0.1,0c-0.7,0-1.2-0.6-1.2-1.2c0-0.4-0.3-0.7-0.7-0.7
		s-0.7,0.3-0.7,0.7c0,0,0,0,0,0.1c0,1.4,1.2,2.6,2.6,2.6c0,0,0,0,0.1,0c0.1,0,0.1,0,0.1,0C124.8,334.5,125.1,334.2,125.1,333.9z"/>
	<path fill="#002FA7" d="M122.4,328.8c0.4,0,0.7-0.3,0.7-0.7c0,0,0,0,0,0c0-0.6,0.5-1.1,1.1-1.2c0.1,0,0.1,0,0.2,0
		c0.4,0,0.7-0.3,0.7-0.7c0-0.3-0.2-0.5-0.4-0.7c-0.1,0-0.2-0.1-0.3-0.1c-1.5,0-2.7,1.2-2.7,2.7c0,0,0,0,0,0
		C121.7,328.5,122,328.8,122.4,328.8z"/>
	<path fill="#002FA7" d="M132.2,332.7c0.3-0.2,0.7-0.2,1,0.1c-1.5-2.9-1.5-6.4,0-9.4c-0.2,0.3-0.7,0.4-1,0.1c-0.3-0.2-0.4-0.7-0.2-1
		c0-0.1,0.1-0.1,0.1-0.1c-0.1,0.1-0.2,0.1-0.2,0.2c-1.8,3.4-1.8,7.5,0,10.9c0,0,0.1,0.1,0.1,0.1
		C131.9,333.4,131.9,332.9,132.2,332.7z"/>
	<path fill="#002FA7" d="M132.2,323.5c0.3,0.2,0.7,0.2,1-0.1c0,0,0,0,0,0c0.3-0.4,1.1-0.4,1.4,0c0,0,0,0,0,0c0,0,0-0.1,0-0.1
		c-0.2-0.4-0.1-0.8,0.3-1c0.2-0.1,0.5-0.1,0.7,0c-0.4-0.5-1.1-0.8-1.7-0.8c-0.7,0-1.3,0.3-1.7,0.8c0,0-0.1,0.1-0.1,0.1
		C131.9,322.9,131.9,323.3,132.2,323.5z"/>
	<path fill="#002FA7" d="M134.9,322.3c-0.4,0.2-0.5,0.6-0.3,1c0,0,0,0.1,0,0.1c1.5,2.9,1.5,6.4,0,9.4c0.2-0.3,0.7-0.4,1-0.1
		c0.3,0.2,0.4,0.7,0.2,1c0,0,0.1-0.1,0.1-0.1c1.8-3.4,1.8-7.5,0-10.9c-0.1-0.1-0.1-0.2-0.2-0.2C135.5,322.2,135.2,322.2,134.9,322.3
		z"/>
	<path fill="#002FA7" d="M135.7,332.7c-0.3-0.2-0.7-0.2-1,0.1c0,0,0,0,0,0c-0.3,0.4-1.1,0.4-1.4,0c0,0,0,0,0,0
		c-0.2-0.3-0.7-0.4-1-0.1c-0.3,0.2-0.4,0.7-0.2,1c0,0,0,0,0,0c0.4,0.6,1.1,0.9,1.9,0.9c0.7,0,1.4-0.4,1.9-0.9c0,0,0,0,0,0
		C136,333.4,136,332.9,135.7,332.7z"/>
	<path fill="#C0392B" d="M216.7,181.9c0.4,0,0.7-0.3,0.7-0.7s-0.3-0.7-0.7-0.7h-5.2c-0.4,0-0.7,0.3-0.7,0.7v5.1
		c0-0.4,0.3-0.7,0.7-0.7h0.7v-3.7H216.7z"/>
	<path fill="#C0392B" d="M210.8,186.2v6.4c0,0.4,0.3,0.7,0.7,0.7s0.7-0.3,0.7-0.7V187h-0.7C211.2,187,210.8,186.6,210.8,186.2z"/>
	<path fill="#C0392B" d="M210.8,186.2c0,0.4,0.3,0.7,0.7,0.7h0.7h4.4c0.4,0,0.7-0.3,0.7-0.7s-0.3-0.7-0.7-0.7h-4.4h-0.7
		C211.2,185.5,210.8,185.8,210.8,186.2z"/>
	<path fill="#C0392B" d="M224.4,184.3h-3.8c-0.4,0-0.7,0.3-0.7,0.7v7.7c0,0.4,0.3,0.7,0.7,0.7s0.7-0.3,0.7-0.7v-7h2.4v0.5
		c0,0.4,0.3,0.7,0.7,0.7s0.7-0.3,0.7-0.7V185C225.1,184.6,224.8,184.3,224.4,184.3z"/>
	<path fill="#C0392B" d="M229.1,191.4c0.3-0.2,0.7-0.2,1,0.1c-1.5-2.9-1.5-6.4,0-9.4c-0.2,0.3-0.7,0.4-1,0.1c-0.3-0.2-0.4-0.7-0.1-1
		c0-0.1,0.1-0.1,0.1-0.1c-0.1,0.1-0.2,0.1-0.2,0.2c-1.8,3.4-1.8,7.5,0,10.9c0,0,0.1,0.1,0.1,0.1
		C228.8,192.1,228.8,191.7,229.1,191.4z"/>
	<path fill="#C0392B" d="M229.1,182.3c0.3,0.2,0.7,0.2,1-0.1c0,0,0,0,0,0c0.3-0.4,1-0.4,1.3-0.1c0,0,0,0,0,0c-0.2-0.4-0.1-0.8,0.3-1
		c0.4-0.2,0.8-0.1,1,0.3c0,0.1,0.1,0.1,0.1,0.2c0-0.1-0.1-0.2-0.1-0.3c-0.4-0.6-1.1-0.9-1.9-0.9c-0.7,0-1.3,0.3-1.7,0.8
		c0,0-0.1,0.1-0.1,0.1C228.8,181.6,228.8,182.1,229.1,182.3z"/>
	<path fill="#C0392B" d="M232.8,181.6c0-0.1-0.1-0.1-0.1-0.2c-0.2-0.4-0.6-0.5-1-0.3c-0.4,0.2-0.5,0.6-0.3,1c0,0,0,0,0,0
		c1.6,3,1.6,6.6,0,9.5c0,0,0.1,0,0.1-0.1c0.2-0.3,0.7-0.4,1-0.2c0.2,0.2,0.3,0.5,0.3,0.7C234.5,188.8,234.5,184.9,232.8,181.6z"/>
	<path fill="#C0392B" d="M232.6,191.4c-0.3-0.2-0.8-0.2-1,0.2c0,0,0,0-0.1,0.1c-0.4,0.4-1,0.4-1.3-0.1c0,0,0,0,0,0
		c-0.2-0.3-0.7-0.4-1-0.1c-0.3,0.2-0.4,0.7-0.2,1c0,0,0,0,0,0c0.4,0.6,1.1,0.9,1.9,0.9s1.4-0.4,1.9-0.9c0.1-0.1,0.1-0.2,0.1-0.3
		C232.9,191.9,232.8,191.6,232.6,191.4z"/>
	<path fill="#C0392B" d="M271,473c0.4,0,0.7-0.3,0.7-0.7s-0.3-0.7-0.7-0.7h-6.1c-0.4,0-0.7,0.3-0.7,0.7v6.2c0-0.4,0.3-0.7,0.7-0.7
		h0.7V473H271z"/>
	<path fill="#C0392B" d="M264.1,478.5v7.7c0,0.4,0.3,0.7,0.7,0.7s0.7-0.3,0.7-0.7v-7h-0.7C264.4,479.2,264.1,478.9,264.1,478.5z"/>
	<path fill="#C0392B" d="M264.1,478.5c0,0.4,0.3,0.7,0.7,0.7h0.7h5.4c0.4,0,0.7-0.3,0.7-0.7s-0.3-0.7-0.7-0.7h-5.4h-0.7
		C264.4,477.8,264.1,478.1,264.1,478.5z"/>
	<path fill="#C0392B" d="M280.2,476.2h-4.6c-0.4,0-0.7,0.3-0.7,0.7v9.2c0,0.4,0.3,0.7,0.7,0.7s0.7-0.3,0.7-0.7v-8.5h3.2v0.8
		c0,0.4,0.3,0.7,0.7,0.7s0.7-0.3,0.7-0.7v-1.6C280.9,476.5,280.6,476.2,280.2,476.2z"/>
	<path fill="#C0392B" d="M288.2,471.7c-0.3-0.1-0.6,0-0.8,0.2l-3.1,3.1c-0.3,0.3-0.3,0.7,0,1c0.3,0.3,0.7,0.3,1,0l1.8-1.9v12.1
		c0,0.4,0.3,0.7,0.7,0.7s0.7-0.3,0.7-0.7v-13.9C288.6,472,288.4,471.8,288.2,471.7z"/>
	<path fill="#008272" d="M276.5,292.7c0.4,0,0.7-0.3,0.7-0.7s-0.3-0.7-0.7-0.7h-4.8c-0.4,0-0.7,0.3-0.7,0.7v4.8
		c0-0.4,0.3-0.7,0.7-0.7h0.7v-3.4H276.5z"/>
	<path fill="#008272" d="M271,296.8v6c0,0.4,0.3,0.7,0.7,0.7s0.7-0.3,0.7-0.7v-5.3h-0.7C271.3,297.5,271,297.2,271,296.8z"/>
	<path fill="#008272" d="M271,296.8c0,0.4,0.3,0.7,0.7,0.7h0.7h4.1c0.4,0,0.7-0.3,0.7-0.7s-0.3-0.7-0.7-0.7h-4.1h-0.7
		C271.3,296,271,296.4,271,296.8z"/>
	<path fill="#008272" d="M280.6,302.8c0,0.4,0.3,0.7,0.7,0.7s0.7-0.3,0.7-0.7v-6.5h-1.4V302.8z"/>
	<path fill="#008272" d="M282.1,292c0-0.4-0.3-0.7-0.7-0.7s-0.7,0.3-0.7,0.7v2.9h1.4V292z"/>
	<path fill="#008272" d="M283.7,294.8h-1.7h-1.4h-0.5c-0.4,0-0.7,0.3-0.7,0.7s0.3,0.7,0.7,0.7h0.5h1.4h1.7c0.4,0,0.7-0.3,0.7-0.7
		S284.1,294.8,283.7,294.8z"/>
	<path fill="#008272" d="M288.2,301.5c0.3-0.2,0.7-0.2,0.9,0.1c-1.4-2.7-1.4-5.9,0-8.6c-0.2,0.3-0.7,0.3-0.9,0.1
		c-0.3-0.2-0.4-0.7-0.1-1c0.1-0.1,0.1-0.1,0.2-0.2c-0.1,0.1-0.2,0.1-0.3,0.3c-1.7,3.2-1.7,7.1,0,10.3c0.1,0.1,0.2,0.2,0.3,0.3
		c-0.1-0.1-0.1-0.1-0.2-0.2C287.8,302.2,287.8,301.8,288.2,301.5z"/>
	<path fill="#008272" d="M288.2,293.1c0.3,0.2,0.7,0.2,0.9-0.1c0,0,0,0,0.1-0.1c0.3-0.4,0.9-0.4,1.2,0c0,0,0,0,0-0.1
		c-0.2-0.4-0.1-0.8,0.3-1c0.3-0.2,0.8-0.1,1,0.3c0,0,0,0,0-0.1c-0.4-0.6-1.1-0.9-1.8-0.9c-0.6,0-1.2,0.3-1.6,0.7
		c-0.1,0.1-0.1,0.1-0.2,0.2C287.8,292.4,287.8,292.9,288.2,293.1z"/>
	<path fill="#008272" d="M291.6,292.2c-0.2-0.3-0.6-0.5-1-0.3c-0.4,0.2-0.5,0.6-0.3,1c0,0,0,0,0,0.1c1.5,2.7,1.5,6,0,8.8
		c0,0,0,0,0,0c0.2-0.3,0.7-0.4,1-0.1c0.3,0.2,0.4,0.6,0.2,0.9c0,0,0,0,0,0C293.3,299.2,293.3,295.4,291.6,292.2
		C291.6,292.2,291.6,292.2,291.6,292.2z"/>
	<path fill="#008272" d="M291.4,301.5c-0.3-0.2-0.8-0.2-1,0.1c0,0,0,0,0,0c-0.3,0.3-0.9,0.3-1.2,0c0,0,0,0-0.1-0.1
		c-0.2-0.3-0.7-0.3-0.9-0.1c-0.3,0.2-0.4,0.7-0.1,1c0.1,0.1,0.1,0.1,0.2,0.2c0.4,0.4,1,0.7,1.6,0.7c0.7,0,1.3-0.3,1.8-0.9
		c0,0,0,0,0-0.1C291.7,302.2,291.7,301.7,291.4,301.5z"/>
	<path fill="#008272" d="M214.7,372c0.4,0,0.7-0.3,0.7-0.7s-0.3-0.7-0.7-0.7h-6.4c-0.4,0-0.7,0.3-0.7,0.7v6.4c0-0.4,0.3-0.7,0.7-0.7
		h0.7V372H214.7z"/>
	<path fill="#008272" d="M207.7,377.6v8c0,0.4,0.3,0.7,0.7,0.7s0.7-0.3,0.7-0.7v-7.3h-0.7C208,378.4,207.7,378,207.7,377.6z"/>
	<path fill="#008272" d="M207.7,377.6c0,0.4,0.3,0.7,0.7,0.7h0.7h5.6c0.4,0,0.7-0.3,0.7-0.7s-0.3-0.7-0.7-0.7h-5.6h-0.7
		C208,376.9,207.7,377.2,207.7,377.6z"/>
	<path fill="#008272" d="M221.8,371.3c0-0.4-0.3-0.7-0.7-0.7s-0.7,0.3-0.7,0.7v4.1h1.4V371.3z"/>
	<path fill="#008272" d="M220.4,385.6c0,0.4,0.3,0.7,0.7,0.7s0.7-0.3,0.7-0.7v-8.8h-1.4V385.6z"/>
	<path fill="#008272" d="M224.3,375.4h-2.5h-1.4h-0.8c-0.4,0-0.7,0.3-0.7,0.7s0.3,0.7,0.7,0.7h0.8h1.4h2.5c0.4,0,0.7-0.3,0.7-0.7
		S224.7,375.4,224.3,375.4z"/>
	<path fill="#008272" d="M232.6,370.6c-0.3-0.1-0.6-0.1-0.8,0.2l-3.2,3.2c-0.3,0.3-0.3,0.7,0,1c0.3,0.3,0.7,0.3,1,0l2-2v12.6
		c0,0.4,0.3,0.7,0.7,0.7s0.7-0.3,0.7-0.7v-14.3C233,371,232.9,370.7,232.6,370.6z"/>
	<path fill="#C0392B" d="M730.6,273.9v6.4c0,0.4,0.3,0.7,0.7,0.7s0.7-0.3,0.7-0.7v-5.7h-0.7C730.9,274.6,730.6,274.3,730.6,273.9z"
		/>
	<path fill="#C0392B" d="M736.4,269.5c0.4,0,0.7-0.3,0.7-0.7s-0.3-0.7-0.7-0.7h-5.1c-0.4,0-0.7,0.3-0.7,0.7v5.1
		c0-0.4,0.3-0.7,0.7-0.7h0.7v-3.7H736.4z"/>
	<path fill="#C0392B" d="M730.6,273.9c0,0.4,0.3,0.7,0.7,0.7h0.7h4.4c0.4,0,0.7-0.3,0.7-0.7s-0.3-0.7-0.7-0.7h-4.4h-0.7
		C730.9,273.2,730.6,273.5,730.6,273.9z"/>
	<path fill="#C0392B" d="M744.1,271.9h-3.8c-0.4,0-0.7,0.3-0.7,0.7v7.7c0,0.4,0.3,0.7,0.7,0.7s0.7-0.3,0.7-0.7v-7h2.4v0.5
		c0,0.4,0.3,0.7,0.7,0.7s0.7-0.3,0.7-0.7v-1.3C744.8,272.2,744.5,271.9,744.1,271.9z"/>
	<path fill="#C0392B" d="M749.9,268.8c0-0.4,0.3-0.7,0.7-0.7c0,0,0,0,0,0H748c-0.4,0-0.7,0.3-0.7,0.7s0.3,0.7,0.7,0.7h2.6
		c0,0,0,0,0,0C750.2,269.5,749.9,269.2,749.9,268.8z"/>
	<path fill="#C0392B" d="M753.8,271.3c0-1.8-1.5-3.3-3.3-3.3c0,0,0,0,0,0c-0.4,0-0.7,0.3-0.7,0.7s0.3,0.7,0.7,0.7c0,0,0,0,0,0
		c1,0,1.8,0.8,1.8,1.8c0,1-0.8,1.8-1.8,1.8c0.8,0,1.5,0.3,2,0.7C753.3,273.3,753.8,272.4,753.8,271.3z"/>
	<path fill="#C0392B" d="M749.9,273.9c0-0.4,0.3-0.7,0.7-0.7c0,0,0,0,0,0h-1.3c-0.4,0-0.7,0.3-0.7,0.7s0.3,0.7,0.7,0.7h1.3
		c0,0,0,0,0,0C750.2,274.6,749.9,274.3,749.9,273.9z"/>
	<path fill="#C0392B" d="M750.6,273.2c-0.4,0-0.7,0.3-0.7,0.7s0.3,0.7,0.7,0.7c0,0,0,0,0,0c1,0,1.8,0.8,1.8,1.8c0,0,0,0,0,0
		c0-0.4,0.3-0.7,0.7-0.7s0.7,0.3,0.7,0.7c0,0,0,0,0,0c0-1-0.5-2-1.2-2.5C752,273.5,751.3,273.2,750.6,273.2
		C750.6,273.2,750.6,273.2,750.6,273.2z"/>
	<path fill="#C0392B" d="M753.8,277.7L753.8,277.7C753.8,277.7,753.8,277.7,753.8,277.7C753.8,277.8,753.8,277.8,753.8,277.7z"/>
	<path fill="#C0392B" d="M753.1,275.8c-0.4,0-0.7,0.3-0.7,0.7c0,0,0,0,0,0v1.2c0-0.4,0.3-0.7,0.7-0.7s0.7,0.3,0.7,0.7v-1.2
		c0,0,0,0,0,0C753.8,276.1,753.5,275.8,753.1,275.8z"/>
	<path fill="#C0392B" d="M753.1,277c-0.4,0-0.7,0.3-0.7,0.7c0,1-0.8,1.8-1.8,1.8c-0.1,0-0.2,0-0.3,0.1h0.3c0.4,0,0.7,0.3,0.7,0.7
		c0,0.3-0.2,0.5-0.4,0.6c1.6-0.2,2.9-1.5,3-3.2c0,0,0,0,0-0.1C753.8,277.3,753.5,277,753.1,277z"/>
	<path fill="#C0392B" d="M751.3,280.3c0-0.4-0.3-0.7-0.7-0.7h-0.3H748c-0.4,0-0.7,0.3-0.7,0.7s0.3,0.7,0.7,0.7h2.6
		c0.1,0,0.2,0,0.3-0.1C751.1,280.8,751.3,280.6,751.3,280.3z"/>
	<path fill="#002FA7" d="M823.5,371.2v6.4c0,0.4,0.3,0.7,0.7,0.7s0.7-0.3,0.7-0.7v-5.6h-0.7C823.8,371.9,823.5,371.6,823.5,371.2z"
		/>
	<path fill="#002FA7" d="M829.3,366.8c0.4,0,0.7-0.3,0.7-0.7s-0.3-0.7-0.7-0.7h-5.1c-0.4,0-0.7,0.3-0.7,0.7v5.2
		c0-0.4,0.3-0.7,0.7-0.7h0.7v-3.7H829.3z"/>
	<path fill="#002FA7" d="M823.5,371.2c0,0.4,0.3,0.7,0.7,0.7h0.7h4.4c0.4,0,0.7-0.3,0.7-0.7s-0.3-0.7-0.7-0.7h-4.4h-0.7
		C823.8,370.5,823.5,370.8,823.5,371.2z"/>
	<path fill="#002FA7" d="M835.8,369.8c0,0.4-0.3,0.7-0.7,0.7c-0.1,0-0.1,0-0.2,0c0,0,0.1,0,0.1,0h1.6v5c0,0,0,0.1,0,0.1
		c0-0.1,0-0.1,0-0.2c0-0.4,0.3-0.7,0.7-0.7c0.3,0,0.5,0.2,0.7,0.4v-5.4c0-0.4-0.3-0.7-0.7-0.7h-2
		C835.7,369.3,835.8,369.5,835.8,369.8z"/>
	<path fill="#002FA7" d="M835.1,378.3L835.1,378.3C835.1,378.3,835.1,378.3,835.1,378.3C835.1,378.3,835.1,378.3,835.1,378.3z"/>
	<path fill="#002FA7" d="M835.1,378.3h0.3c0,0,0,0,0,0c-0.1,0-0.1,0-0.2,0C835.2,378.3,835.2,378.3,835.1,378.3z"/>
	<path fill="#002FA7" d="M835.1,376.9c0.1,0,0.1,0,0.2,0c0.1,0,0.1,0,0.2,0c0,0,0,0,0,0H835.1z"/>
	<path fill="#002FA7" d="M837.4,374.9c-0.4,0-0.7,0.3-0.7,0.7c0,0.1,0,0.1,0,0.2c-0.1,0.6-0.6,1.1-1.2,1.1c0,0,0,0,0,0
		c-0.1,0-0.1,0-0.2,0c0.3,0.1,0.5,0.3,0.5,0.7s-0.2,0.6-0.5,0.7c0.1,0,0.1,0,0.2,0c0,0,0,0,0,0c0.8,0,1.5-0.4,2-1l-0.7-0.9
		c-0.2-0.3-0.2-0.8,0.1-1c0.3-0.2,0.8-0.2,1,0.1l0.2,0.2c0-0.1,0-0.1,0-0.2c0-0.1,0-0.2-0.1-0.3C838,375.1,837.7,374.9,837.4,374.9z
		"/>
	<path fill="#002FA7" d="M837.9,375.6c-0.3-0.3-0.7-0.4-1-0.1c-0.3,0.2-0.4,0.7-0.1,1l0.7,0.9l0.6,0.7c0.1,0.2,0.4,0.3,0.6,0.3
		c0.2,0,0.3-0.1,0.5-0.2c0.3-0.2,0.4-0.7,0.1-1l-1.1-1.3L837.9,375.6z"/>
	<path fill="#002FA7" d="M832.4,375.7C832.4,375.7,832.4,375.7,832.4,375.7C832.4,375.7,832.4,375.7,832.4,375.7L832.4,375.7z"/>
	<path fill="#002FA7" d="M832.4,375.6c0-0.4,0.3-0.7,0.7-0.7s0.7,0.3,0.7,0.7v-3.8c0,0,0,0,0,0c0,0.4-0.3,0.7-0.7,0.7
		s-0.7-0.3-0.7-0.7c0,0,0,0,0,0V375.6z"/>
	<path fill="#002FA7" d="M835.8,377.6c0-0.3-0.2-0.6-0.5-0.7c-0.1,0-0.1,0-0.2,0c-0.7,0-1.2-0.6-1.2-1.2c0-0.4-0.3-0.7-0.7-0.7
		s-0.7,0.3-0.7,0.7c0,0,0,0,0,0.1c0,1.4,1.2,2.6,2.6,2.6c0,0,0,0,0.1,0c0.1,0,0.1,0,0.2,0C835.6,378.2,835.8,377.9,835.8,377.6z"/>
	<path fill="#002FA7" d="M833.2,372.5c0.4,0,0.7-0.3,0.7-0.7c0,0,0,0,0,0c0-0.6,0.5-1.1,1.1-1.2c0.1,0,0.1,0,0.2,0
		c0.4,0,0.7-0.3,0.7-0.7c0-0.3-0.2-0.5-0.4-0.7c-0.1,0-0.2-0.1-0.3-0.1c-1.5,0-2.7,1.2-2.7,2.7c0,0,0,0,0,0
		C832.5,372.2,832.8,372.5,833.2,372.5z"/>
	<path fill="#002FA7" d="M844,366.1c0-0.4,0.3-0.7,0.7-0.7c0,0,0,0,0,0h-2.5c-0.4,0-0.7,0.3-0.7,0.7s0.3,0.7,0.7,0.7h2.5
		c0,0,0,0,0,0C844.3,366.8,844,366.5,844,366.1z"/>
	<path fill="#002FA7" d="M848,368.6c0-1.8-1.5-3.3-3.3-3.3c0,0,0,0,0,0c-0.4,0-0.7,0.3-0.7,0.7s0.3,0.7,0.7,0.7c0,0,0,0,0,0
		c1,0,1.8,0.8,1.8,1.8c0,1-0.8,1.8-1.8,1.8c0.8,0,1.5,0.3,2,0.7C847.5,370.6,848,369.6,848,368.6z"/>
	<path fill="#002FA7" d="M844,371.2c0-0.3,0.2-0.5,0.4-0.7h-1c-0.4,0-0.7,0.3-0.7,0.7s0.3,0.7,0.7,0.7h1.3c0.1,0,0.1,0,0.2,0
		c-0.1,0-0.1,0-0.2,0C844.3,371.9,844,371.6,844,371.2z"/>
	<path fill="#002FA7" d="M844.4,370.5c-0.3,0.1-0.4,0.4-0.4,0.7c0,0.4,0.3,0.7,0.7,0.7c0.1,0,0.1,0,0.2,0c0.9,0.1,1.7,0.9,1.7,1.8
		c0,0,0,0,0,0c0-0.4,0.3-0.7,0.7-0.7s0.7,0.3,0.7,0.7c0,0,0,0,0,0c0-1-0.5-2-1.2-2.6c-0.6-0.4-1.3-0.7-2-0.7
		C844.6,370.4,844.5,370.5,844.4,370.5z"/>
	<path fill="#002FA7" d="M848,375.1L848,375.1C848,375.1,848,375.1,848,375.1C848,375.1,848,375.1,848,375.1z"/>
	<path fill="#002FA7" d="M847.3,373c-0.4,0-0.7,0.3-0.7,0.7c0,0,0,0,0,0v1.3c0-0.4,0.3-0.7,0.7-0.7s0.7,0.3,0.7,0.7v-1.3
		c0,0,0,0,0,0C848,373.3,847.7,373,847.3,373z"/>
	<path fill="#002FA7" d="M847.3,374.3c-0.4,0-0.7,0.3-0.7,0.7c0,1-0.8,1.8-1.8,1.8c0,0,0,0,0,0c0.4,0,0.7,0.3,0.7,0.7
		s-0.3,0.7-0.7,0.7c0,0,0,0,0,0c1.8,0,3.2-1.4,3.3-3.2c0,0,0,0,0-0.1C848,374.6,847.7,374.3,847.3,374.3z"/>
	<path fill="#002FA7" d="M845.4,377.6c0-0.4-0.3-0.7-0.7-0.7c0,0,0,0,0,0h-2.5c-0.4,0-0.7,0.3-0.7,0.7s0.3,0.7,0.7,0.7h2.5
		c0,0,0,0,0,0C845.1,378.3,845.4,378,845.4,377.6z"/>
	<path fill="#008272" d="M681.5,370.9c0.4,0,0.7-0.3,0.7-0.7s-0.3-0.7-0.7-0.7h-5.1c-0.4,0-0.7,0.3-0.7,0.7v5.2
		c0-0.4,0.3-0.7,0.7-0.7h0.7v-3.7H681.5z"/>
	<path fill="#008272" d="M675.7,375.3v6.4c0,0.4,0.3,0.7,0.7,0.7s0.7-0.3,0.7-0.7V376h-0.7C676,376,675.7,375.7,675.7,375.3z"/>
	<path fill="#008272" d="M675.7,375.3c0,0.4,0.3,0.7,0.7,0.7h0.7h4.4c0.4,0,0.7-0.3,0.7-0.7s-0.3-0.7-0.7-0.7h-4.4h-0.7
		C676,374.6,675.7,374.9,675.7,375.3z"/>
	<path fill="#008272" d="M687.4,370.1c0-0.4-0.3-0.7-0.7-0.7s-0.7,0.3-0.7,0.7v3.1h1.4V370.1z"/>
	<path fill="#008272" d="M685.9,381.7c0,0.4,0.3,0.7,0.7,0.7s0.7-0.3,0.7-0.7v-7h-1.4V381.7z"/>
	<path fill="#008272" d="M689.2,373.3h-1.9h-1.4h-0.5c-0.4,0-0.7,0.3-0.7,0.7s0.3,0.7,0.7,0.7h0.5h1.4h1.9c0.4,0,0.7-0.3,0.7-0.7
		S689.6,373.3,689.2,373.3z"/>
	<path fill="#008272" d="M694.9,370.1c0-0.4,0.3-0.7,0.7-0.7c0,0,0,0,0,0h-2.5c-0.4,0-0.7,0.3-0.7,0.7s0.3,0.7,0.7,0.7h2.5
		c0,0,0,0,0,0C695.2,370.8,694.9,370.5,694.9,370.1z"/>
	<path fill="#008272" d="M698.9,372.7c0-1.8-1.5-3.3-3.3-3.3c0,0,0,0,0,0c-0.4,0-0.7,0.3-0.7,0.7s0.3,0.7,0.7,0.7c0,0,0,0,0,0
		c1,0,1.8,0.8,1.8,1.8c0,1-0.8,1.8-1.8,1.8c0.8,0,1.5,0.3,2,0.7C698.4,374.6,698.9,373.7,698.9,372.7z"/>
	<path fill="#008272" d="M694.9,375.2c0-0.3,0.2-0.5,0.4-0.7h-1c-0.4,0-0.7,0.3-0.7,0.7s0.3,0.7,0.7,0.7h1.3c0.1,0,0.1,0,0.2,0
		c-0.1,0-0.1,0-0.2,0C695.2,376,694.9,375.6,694.9,375.2z"/>
	<path fill="#008272" d="M695.3,374.6c-0.3,0.1-0.4,0.4-0.4,0.7c0,0.4,0.3,0.7,0.7,0.7c0.1,0,0.1,0,0.2,0c0.9,0.1,1.7,0.9,1.7,1.8
		c0,0,0,0,0,0c0-0.4,0.3-0.7,0.7-0.7s0.7,0.3,0.7,0.7c0,0,0,0,0,0c0-1-0.5-2-1.2-2.6c-0.6-0.4-1.3-0.7-2-0.7
		C695.5,374.5,695.4,374.5,695.3,374.6z"/>
	<path fill="#008272" d="M698.9,379.1L698.9,379.1C698.9,379.1,698.9,379.1,698.9,379.1C698.9,379.2,698.9,379.2,698.9,379.1z"/>
	<path fill="#008272" d="M698.2,377.1c-0.4,0-0.7,0.3-0.7,0.7c0,0,0,0,0,0v1.3c0-0.4,0.3-0.7,0.7-0.7s0.7,0.3,0.7,0.7v-1.3
		c0,0,0,0,0,0C698.9,377.4,698.6,377.1,698.2,377.1z"/>
	<path fill="#008272" d="M698.2,378.4c-0.4,0-0.7,0.3-0.7,0.7c0,1-0.8,1.8-1.8,1.8c0,0,0,0,0,0c0.4,0,0.7,0.3,0.7,0.7
		s-0.3,0.7-0.7,0.7c0,0,0,0,0,0c1.8,0,3.2-1.4,3.3-3.2c0,0,0,0,0-0.1C698.9,378.7,698.6,378.4,698.2,378.4z"/>
	<path fill="#008272" d="M696.3,381.7c0-0.4-0.3-0.7-0.7-0.7c0,0,0,0,0,0h-2.5c-0.4,0-0.7,0.3-0.7,0.7s0.3,0.7,0.7,0.7h2.5
		c0,0,0,0,0,0C696,382.4,696.3,382.1,696.3,381.7z"/>
	<path fill="#002FA7" d="M614.1,463.3c0.4,0,0.7-0.3,0.7-0.7s-0.3-0.7-0.7-0.7h-5.2c-0.4,0-0.7,0.3-0.7,0.7v5.1
		c0-0.4,0.3-0.7,0.7-0.7h0.7v-3.7H614.1z"/>
	<path fill="#002FA7" d="M608.2,467.7v6.4c0,0.4,0.3,0.7,0.7,0.7s0.7-0.3,0.7-0.7v-5.7h-0.7C608.5,468.4,608.2,468.1,608.2,467.7z"
		/>
	<path fill="#002FA7" d="M608.2,467.7c0,0.4,0.3,0.7,0.7,0.7h0.7h4.4c0.4,0,0.7-0.3,0.7-0.7s-0.3-0.7-0.7-0.7h-4.4h-0.7
		C608.5,467,608.2,467.3,608.2,467.7z"/>
	<path fill="#002FA7" d="M620.6,466.4c0,0.4-0.3,0.7-0.7,0.7c-0.1,0-0.1,0-0.2,0c0,0,0.1,0,0.1,0h1.5v5c0,0,0,0.1,0,0.1
		c0-0.1,0-0.1,0-0.2c0-0.4,0.3-0.7,0.7-0.7c0.3,0,0.5,0.2,0.7,0.4v-5.4c0-0.4-0.3-0.7-0.7-0.7h-1.9
		C620.4,465.8,620.6,466.1,620.6,466.4z"/>
	<path fill="#002FA7" d="M619.9,474.8h0.3c0,0,0,0,0,0c0,0-0.1,0-0.1,0C620,474.8,619.9,474.8,619.9,474.8z"/>
	<path fill="#002FA7" d="M619.9,474.8L619.9,474.8C619.9,474.8,619.9,474.8,619.9,474.8C619.8,474.8,619.8,474.8,619.9,474.8z"/>
	<path fill="#002FA7" d="M619.9,473.4c0.1,0,0.1,0,0.2,0c0,0,0.1,0,0.1,0c0,0,0,0,0,0H619.9z"/>
	<path fill="#002FA7" d="M621.4,472.4c-0.1,0.5-0.6,1-1.2,1c0,0,0,0,0,0c0,0-0.1,0-0.1,0c0.3,0.1,0.6,0.3,0.6,0.7s-0.2,0.6-0.6,0.7
		c0,0,0.1,0,0.1,0c0,0,0,0,0,0c0.8,0,1.6-0.4,2.1-1l-0.7-0.9C621.4,472.8,621.4,472.6,621.4,472.4z"/>
	<path fill="#002FA7" d="M622.1,471.5c-0.4,0-0.7,0.3-0.7,0.7c0,0.1,0,0.1,0,0.2c0,0,0,0,0,0.1c0-0.2,0.1-0.3,0.2-0.4
		c0.3-0.2,0.8-0.2,1,0.1l0.2,0.3c0,0,0-0.1,0-0.1c0-0.1,0-0.2-0.1-0.3C622.7,471.6,622.4,471.5,622.1,471.5z"/>
	<path fill="#002FA7" d="M622.6,472c-0.3-0.3-0.7-0.4-1-0.1c-0.1,0.1-0.2,0.3-0.2,0.4c0,0,0,0,0,0.1c0,0.2,0,0.4,0.2,0.5l0.7,0.9
		l0.6,0.7c0.1,0.2,0.3,0.3,0.6,0.3c0.2,0,0.3-0.1,0.5-0.2c0.3-0.3,0.4-0.7,0.1-1l-1.1-1.4L622.6,472z"/>
	<path fill="#002FA7" d="M617.2,472.2c0-0.4,0.3-0.7,0.7-0.7s0.7,0.3,0.7,0.7v-3.8c0,0,0,0,0,0c0,0.4-0.3,0.7-0.7,0.7
		s-0.7-0.3-0.7-0.7c0,0,0,0,0,0V472.2z"/>
	<path fill="#002FA7" d="M617.2,472.2C617.2,472.2,617.2,472.2,617.2,472.2C617.2,472.2,617.2,472.2,617.2,472.2L617.2,472.2z"/>
	<path fill="#002FA7" d="M620.6,474.1c0-0.3-0.2-0.6-0.6-0.7c-0.1,0-0.1,0-0.2,0c-0.7,0-1.2-0.6-1.2-1.2c0-0.4-0.3-0.7-0.7-0.7
		s-0.7,0.3-0.7,0.7c0,0,0,0,0,0.1c0,1.4,1.2,2.6,2.6,2.6c0,0,0,0,0.1,0c0.1,0,0.1,0,0.2,0C620.4,474.7,620.6,474.5,620.6,474.1z"/>
	<path fill="#002FA7" d="M617.9,469.1c0.4,0,0.7-0.3,0.7-0.7c0,0,0,0,0,0c0-0.6,0.5-1.1,1.1-1.2c0.1,0,0.1,0,0.2,0
		c0.4,0,0.7-0.3,0.7-0.7c0-0.3-0.2-0.5-0.4-0.7c-0.1,0-0.2-0.1-0.3-0.1c-1.5,0-2.7,1.2-2.7,2.7c0,0,0,0,0,0
		C617.2,468.7,617.5,469.1,617.9,469.1z"/>
	<path fill="#002FA7" d="M629.5,463.3c-0.4,0-0.7-0.3-0.7-0.7c0-0.3,0.2-0.5,0.4-0.6c-1.3,0.1-2.5,1.1-2.9,2.4
		c-0.1,0.4,0.1,0.8,0.5,0.9c0.1,0,0.1,0,0.2,0c0.3,0,0.6-0.2,0.7-0.5C627.9,463.9,628.6,463.3,629.5,463.3
		C629.5,463.3,629.5,463.3,629.5,463.3c0.1,0.1,0.1,0,0.2,0C629.6,463.3,629.6,463.3,629.5,463.3
		C629.5,463.3,629.5,463.3,629.5,463.3z"/>
	<path fill="#002FA7" d="M631,466.1c0.2-0.3,0.6-0.4,1-0.2c0.3,0.2,0.4,0.6,0.2,0.9c0,0,0,0,0,0c0.6-1,0.7-2.3,0.1-3.3
		c-0.6-1-1.7-1.7-2.9-1.7c0,0,0,0,0,0c-0.1,0-0.2,0-0.3,0.1c-0.2,0.1-0.4,0.4-0.4,0.6c0,0.4,0.3,0.7,0.7,0.7c0,0,0,0,0,0
		c0.1,0,0.1,0,0.2,0c0.6,0.1,1.1,0.4,1.4,0.9C631.4,464.8,631.4,465.5,631,466.1C631,466.1,631,466.1,631,466.1z"/>
	<path fill="#002FA7" d="M632,465.9c-0.3-0.2-0.8-0.1-1,0.2c0,0,0,0,0,0l-4.7,7.6c-0.1,0.2-0.1,0.5,0,0.7c0.1,0.2,0.4,0.4,0.6,0.4
		h5.2c0.4,0,0.7-0.3,0.7-0.7s-0.3-0.7-0.7-0.7h-3.9l4.1-6.5c0,0,0,0,0,0C632.4,466.5,632.3,466.1,632,465.9z"/>
	<path fill="#008272" d="M736.2,457.3h0.7v-3.7h4.4c0.4,0,0.7-0.3,0.7-0.7s-0.3-0.7-0.7-0.7h-5.2c-0.4,0-0.7,0.3-0.7,0.7v5.1
		C735.5,457.6,735.8,457.3,736.2,457.3z"/>
	<path fill="#008272" d="M736.2,465.2c0.4,0,0.7-0.3,0.7-0.7v-5.7h-0.7c-0.4,0-0.7-0.3-0.7-0.7v6.4
		C735.5,464.9,735.8,465.2,736.2,465.2z"/>
	<path fill="#008272" d="M736.2,458.8h0.7h4.4c0.4,0,0.7-0.3,0.7-0.7s-0.3-0.7-0.7-0.7h-4.4h-0.7c-0.4,0-0.7,0.3-0.7,0.7
		S735.8,458.8,736.2,458.8z"/>
	<path fill="#008272" d="M745.7,464.5c0,0.4,0.3,0.7,0.7,0.7s0.7-0.3,0.7-0.7v-7h-1.4V464.5z"/>
	<path fill="#008272" d="M747.2,452.9c0-0.4-0.3-0.7-0.7-0.7s-0.7,0.3-0.7,0.7v3.1h1.4V452.9z"/>
	<path fill="#008272" d="M745.2,457.5h0.5h1.4h1.9c0.4,0,0.7-0.3,0.7-0.7s-0.3-0.7-0.7-0.7h-1.9h-1.4h-0.5c-0.4,0-0.7,0.3-0.7,0.7
		S744.8,457.5,745.2,457.5z"/>
	<path fill="#008272" d="M755.5,453.6c-0.4,0-0.7-0.3-0.7-0.7c0-0.3,0.2-0.5,0.4-0.6c-1.4,0.1-2.6,1.1-2.9,2.4
		c-0.1,0.4,0.1,0.8,0.5,0.9c0.1,0,0.1,0,0.2,0c0.3,0,0.6-0.2,0.7-0.5C753.8,454.2,754.6,453.7,755.5,453.6
		C755.4,453.7,755.4,453.7,755.5,453.6c0,0.1,0.1,0,0.2,0C755.6,453.6,755.5,453.6,755.5,453.6C755.5,453.6,755.5,453.6,755.5,453.6
		z"/>
	<path fill="#008272" d="M757,456.4c0.2-0.3,0.6-0.4,1-0.2c0.3,0.2,0.4,0.6,0.2,0.9c0,0,0,0,0,0c0.6-1,0.7-2.3,0.1-3.3
		c-0.6-1-1.7-1.7-2.9-1.7c0,0,0,0,0,0c-0.1,0-0.2,0-0.3,0.1c-0.2,0.1-0.4,0.4-0.4,0.6c0,0.4,0.3,0.7,0.7,0.7c0,0,0,0,0,0
		c0.1,0,0.1,0,0.2,0c0.6,0.1,1.1,0.4,1.4,0.9C757.4,455.1,757.4,455.8,757,456.4C757,456.4,757,456.4,757,456.4z"/>
	<path fill="#008272" d="M758,456.2c-0.3-0.2-0.8-0.1-1,0.2c0,0,0,0,0,0l-4.7,7.6c-0.1,0.2-0.1,0.5,0,0.7c0.1,0.2,0.4,0.4,0.6,0.4
		h5.1c0.4,0,0.7-0.3,0.7-0.7s-0.3-0.7-0.7-0.7h-3.8l4.1-6.5c0,0,0,0,0,0C758.4,456.8,758.3,456.4,758,456.2z"/>
	<path fill="#C0392B" d="M684.7,556.9c0.4,0,0.7-0.3,0.7-0.7s-0.3-0.7-0.7-0.7h-5.2c-0.4,0-0.7,0.3-0.7,0.7v5.1
		c0-0.4,0.3-0.7,0.7-0.7h0.7v-3.7H684.7z"/>
	<path fill="#C0392B" d="M678.8,561.2v6.4c0,0.4,0.3,0.7,0.7,0.7s0.7-0.3,0.7-0.7V562h-0.7C679.1,562,678.8,561.6,678.8,561.2z"/>
	<path fill="#C0392B" d="M678.8,561.2c0,0.4,0.3,0.7,0.7,0.7h0.7h4.4c0.4,0,0.7-0.3,0.7-0.7s-0.3-0.7-0.7-0.7h-4.4h-0.7
		C679.1,560.5,678.8,560.8,678.8,561.2z"/>
	<path fill="#C0392B" d="M692.3,559.3h-3.8c-0.4,0-0.7,0.3-0.7,0.7v7.7c0,0.4,0.3,0.7,0.7,0.7s0.7-0.3,0.7-0.7v-7h2.4v0.5
		c0,0.4,0.3,0.7,0.7,0.7s0.7-0.3,0.7-0.7V560C693.1,559.6,692.7,559.3,692.3,559.3z"/>
	<path fill="#C0392B" d="M698.1,556.1c0-0.4,0.3-0.7,0.7-0.7c0,0,0,0,0,0c0,0,0,0,0,0c-1.5,0-2.8,1-3.2,2.4
		c-0.1,0.4,0.1,0.8,0.5,0.9c0.1,0,0.1,0,0.2,0c0.3,0,0.6-0.2,0.7-0.5c0.2-0.8,1-1.4,1.8-1.4c0,0,0,0,0,0c0,0,0,0,0,0
		C698.4,556.9,698.1,556.5,698.1,556.1z"/>
	<path fill="#C0392B" d="M701.3,559.4c0.3,0.2,0.4,0.7,0.2,1l0,0.1c0,0,0.1,0,0.1-0.1c0.6-1,0.7-2.3,0.1-3.3c-0.6-1-1.7-1.7-2.9-1.7
		c0,0,0,0,0,0c-0.4,0-0.7,0.3-0.7,0.7c0,0.4,0.3,0.7,0.7,0.7c0,0,0,0,0,0c0,0,0,0,0,0c0.7,0,1.3,0.4,1.6,0.9c0.3,0.6,0.3,1.2,0,1.8
		C700.6,559.3,701,559.2,701.3,559.4z"/>
	<path fill="#C0392B" d="M701.3,566.9h-3.9l4-6.4l0-0.1c0.2-0.3,0.1-0.8-0.2-1c-0.3-0.2-0.7-0.1-0.9,0.2c0,0,0,0-0.1,0.1l-4.7,7.6
		c-0.1,0.2-0.1,0.5,0,0.7c0.1,0.2,0.4,0.4,0.6,0.4h5.2c0.4,0,0.7-0.3,0.7-0.7S701.7,566.9,701.3,566.9z"/>
	<path fill="#008272" d="M361.3,666.3c-0.4,0-0.7-0.3-0.7-0.7v-0.7c-4.6,0.2-8.8,2.1-11.9,5.2c0.3-0.2,0.6-0.2,0.9,0.1l0.6,0.5
		C353.1,668,357,666.3,361.3,666.3c4.3,0,8.2,1.7,11.2,4.4l0.5-0.5c0.3-0.3,0.7-0.3,1,0c0.3,0.3,0.3,0.7,0,1l-0.5,0.5
		c2.7,2.9,4.3,6.7,4.4,10.9c0.1-0.3,0.4-0.5,0.7-0.5h0.7c-0.4-9.4-7.9-16.9-17.2-17.2v0.7C362,666,361.7,666.3,361.3,666.3z"/>
	<path fill="#008272" d="M348.6,694.5l0.6-0.6c-2.7-2.9-4.3-6.8-4.3-11.1c0-4.3,1.6-8.2,4.3-11.1l-0.6-0.6c-0.2-0.2-0.3-0.6-0.1-0.9
		c-3.1,3.2-5.1,7.6-5.1,12.5c0,4.8,1.9,9.2,5,12.4C348.3,695,348.4,694.7,348.6,694.5z"/>
	<path fill="#008272" d="M377.9,683.1c-0.1,4.2-1.7,8-4.4,10.9l0.5,0.5c0.3,0.3,0.3,0.7,0,1c-0.1,0.1-0.3,0.2-0.5,0.2
		c-0.2,0-0.4-0.1-0.5-0.2l-0.5-0.5c-2.9,2.7-6.8,4.3-11.1,4.3c-4.3,0-8.2-1.7-11.2-4.4l-0.6,0.6c-0.1,0.1-0.3,0.2-0.5,0.2
		c-0.1,0-0.2,0-0.2,0c3.2,3.1,7.6,5.1,12.5,5.1c9.7,0,17.5-7.7,17.9-17.2h-0.7C378.2,683.6,378,683.4,377.9,683.1z"/>
	<path fill="#008272" d="M362.3,682.9l11.2-11.2l0.5-0.5c0.3-0.3,0.3-0.7,0-1c-0.3-0.3-0.7-0.3-1,0l-0.5,0.5l-11.2,11.2L362.3,682.9
		z"/>
	<path fill="#008272" d="M349.6,695.6l0.6-0.6l11.1-11.1l-1-1l-11.1,11.1l-0.6,0.6c-0.2,0.2-0.2,0.5-0.2,0.7c0,0.1,0.1,0.2,0.2,0.3
		c0.1,0.1,0.2,0.1,0.3,0.2c0.1,0,0.1,0,0.2,0C349.3,695.8,349.4,695.7,349.6,695.6z"/>
	<path fill="#008272" d="M348.6,671.2l0.6,0.6l11.1,11.1l1,1l11.2,11.2l0.5,0.5c0.1,0.1,0.3,0.2,0.5,0.2c0.2,0,0.4-0.1,0.5-0.2
		c0.3-0.3,0.3-0.7,0-1l-0.5-0.5l-11.2-11.2l-1-1l-11.2-11.1l-0.6-0.5c-0.2-0.2-0.6-0.3-0.9-0.1c0,0-0.1,0-0.1,0.1
		c0,0-0.1,0.1-0.1,0.2C348.3,670.6,348.3,671,348.6,671.2z"/>
	<path fill="#008272" d="M335.8,676.7c-0.1-0.2-0.4-0.4-0.6-0.4h-8.4c-0.4,0-0.7,0.3-0.7,0.7s0.3,0.7,0.7,0.7h7.2l-7.8,14
		c-0.1,0.2-0.1,0.5,0,0.7c0.1,0.2,0.4,0.4,0.6,0.4h8.4c0.4,0,0.7-0.3,0.7-0.7s-0.3-0.7-0.7-0.7H328l7.8-14
		C335.9,677.2,335.9,676.9,335.8,676.7z"/>
	<path fill="#C0392B" d="M381.5,572.9c0.4,0,0.7,0.3,0.7,0.7v0.2l4.9-7.4c0.2-0.3,0.1-0.8-0.2-1c-0.3-0.2-0.8-0.1-1,0.2l-4.4,6.7
		l-4.4-6.7c-0.2-0.3-0.7-0.4-1-0.2c-0.3,0.2-0.4,0.7-0.2,1l4.9,7.4v-0.2C380.8,573.2,381.1,572.9,381.5,572.9z"/>
	<path fill="#C0392B" d="M381.5,581.9c0.4,0,0.7-0.3,0.7-0.7v-7.3v-0.2c0-0.4-0.3-0.7-0.7-0.7s-0.7,0.3-0.7,0.7v0.2v7.3
		C380.8,581.6,381.1,581.9,381.5,581.9z"/>
	<path fill="#002FA7" d="M462.6,653.3c-0.2-0.3-0.7-0.4-1-0.2c-0.3,0.2-0.4,0.7-0.2,1l4.8,7.2l0.9-1.3L462.6,653.3z"/>
	<path fill="#002FA7" d="M471.5,669.2c0.1,0.2,0.4,0.3,0.6,0.3c0.1,0,0.3,0,0.4-0.1c0.3-0.2,0.4-0.7,0.2-1l-4.8-7.2l-0.9,1.3
		L471.5,669.2z"/>
	<path fill="#002FA7" d="M461.6,669.4c0.1,0.1,0.3,0.1,0.4,0.1c0.2,0,0.5-0.1,0.6-0.3l4.4-6.7l0.9-1.3l4.8-7.2
		c0.2-0.3,0.1-0.8-0.2-1c-0.3-0.2-0.8-0.1-1,0.2L467,660l-0.9,1.3l-4.8,7.2C461.2,668.8,461.3,669.2,461.6,669.4z"/>
	<path fill="#008272" d="M155.6,222.2c0.4,0,0.7,0.3,0.7,0.7h3.4l-4.1-24.6l-4.1,24.6h3.4C154.9,222.6,155.2,222.2,155.6,222.2z"/>
	<path fill="#008272" d="M156.4,223C156.4,223,156.4,223,156.4,223c0-0.4-0.3-0.7-0.7-0.7s-0.7,0.3-0.7,0.7c0,0,0,0,0,0v10.3h1.4
		V223z"/>
	<path fill="#008272" d="M154.9,269.6c0,0.4,0.3,0.7,0.7,0.7s0.7-0.3,0.7-0.7v-34.9h-1.4V269.6z"/>
	<path fill="#008272" d="M41.7,233.2H9.4c-0.4,0-0.7,0.3-0.7,0.7s0.3,0.7,0.7,0.7H41v-0.7C41,233.5,41.3,233.2,41.7,233.2z"/>
	<path fill="#008272" d="M42.4,233.9v0.7h11c0-0.5,0-1,0-1.4H41.7C42.1,233.2,42.4,233.5,42.4,233.9z"/>
	<path fill="#008272" d="M202.5,233.9c0-0.4-0.3-0.7-0.7-0.7h-0.7h-44.7h-1.4H54.8c0,0.5,0,1,0,1.4h100.1h1.4h44.7h0.7
		C202.2,234.7,202.5,234.3,202.5,233.9z"/>
	<path fill="#002FA7" d="M670.1,516.9c0-0.4-0.3-0.7-0.7-0.7h-0.7H300.9h-0.7c-0.4,0-0.7,0.3-0.7,0.7s0.3,0.7,0.7,0.7h0.7h367.8h0.7
		C669.8,517.6,670.1,517.3,670.1,516.9z"/>
	<path fill="#002FA7" d="M860.1,517.6c0.4,0,0.7-0.3,0.7-0.7s-0.3-0.7-0.7-0.7h-45.4v1.4H860.1z"/>
	<path fill="#002FA7" d="M767.1,516.9c0,0.4,0.3,0.7,0.7,0.7h0.7h44.7v-1.4h-44.7h-0.7C767.4,516.2,767.1,516.5,767.1,516.9z"/>
	<path fill="#002FA7" d="M109.5,516.2c-0.4,0-0.7,0.3-0.7,0.7s0.3,0.7,0.7,0.7h45.4v-1.4H109.5z"/>
	<path fill="#002FA7" d="M202.5,516.9c0-0.4-0.3-0.7-0.7-0.7h-0.7h-44.7v1.4h44.7h0.7C202.2,517.6,202.5,517.3,202.5,516.9z"/>
	<path fill="#002FA7" d="M155.6,528.7c-0.4,0-0.7-0.3-0.7-0.7h-3.4l4.1,24.6l4.1-24.6h-3.4C156.4,528.3,156,528.7,155.6,528.7z"/>
	<path fill="#002FA7" d="M156.4,481.3c0-0.4-0.3-0.7-0.7-0.7s-0.7,0.3-0.7,0.7v34.9v1.4v10.3c0,0,0,0,0,0c0,0.4,0.3,0.7,0.7,0.7
		s0.7-0.3,0.7-0.7c0,0,0,0,0,0v-10.3v-1.4V481.3z"/>
	<path fill="#002FA7" d="M814,528.7c-0.4,0-0.7-0.3-0.7-0.7h-3.4l4.1,24.6l4.1-24.6h-3.4C814.7,528.3,814.4,528.7,814,528.7z"/>
	<path fill="#002FA7" d="M813.2,527.9C813.2,527.9,813.2,527.9,813.2,527.9c0,0.4,0.3,0.7,0.7,0.7s0.7-0.3,0.7-0.7c0,0,0,0,0,0
		v-10.3v-1.4v-34.9c0-0.4-0.3-0.7-0.7-0.7s-0.7,0.3-0.7,0.7v34.9v1.4V527.9z"/>
	<path fill="#C0392B" d="M814,222.2c0.4,0,0.7,0.3,0.7,0.7h3.4l-4.1-24.6l-4.1,24.6h3.4C813.2,222.6,813.6,222.2,814,222.2z"/>
	<path fill="#C0392B" d="M813.2,269.6c0,0.4,0.3,0.7,0.7,0.7s0.7-0.3,0.7-0.7v-34.9h-1.4V269.6z"/>
	<path fill="#C0392B" d="M814.7,223C814.7,223,814.7,223,814.7,223c0-0.4-0.3-0.7-0.7-0.7s-0.7,0.3-0.7,0.7c0,0,0,0,0,0v10.3h1.4
		V223z"/>
	<path fill="#C0392B" d="M361.3,576.2c0.4,0,0.7,0.3,0.7,0.7h3.1l-3.8-22.8l-3.8,22.8h3.1C360.6,576.6,360.9,576.2,361.3,576.2z"/>
	<path fill="#C0392B" d="M360.6,664.9v0.7c0,0.4,0.3,0.7,0.7,0.7s0.7-0.3,0.7-0.7v-0.7V577c0,0,0,0,0,0c0-0.4-0.3-0.7-0.7-0.7
		s-0.7,0.3-0.7,0.7c0,0,0,0,0,0V664.9z"/>
	<path fill="#002FA7" d="M467.9,682.9c0,0.4-0.3,0.7-0.7,0.7h0v3.1l22.8-3.8l-22.8-3.8v3.1h0C467.6,682.1,467.9,682.5,467.9,682.9z"
		/>
	<path fill="#002FA7" d="M377.9,682.6c0,0.1,0,0.2,0,0.2c0,0.1,0,0.2,0,0.2c0.1,0.3,0.4,0.5,0.7,0.5h0.7h87.9h0
		c0.4,0,0.7-0.3,0.7-0.7s-0.3-0.7-0.7-0.7h0h-87.9h-0.7C378.2,682.1,378,682.3,377.9,682.6z"/>
	<path d="M217.1,113.3L217.1,113.3C217.1,113.3,217.1,113.3,217.1,113.3C217.1,113.3,217.1,113.3,217.1,113.3z"/>
	<path d="M217.5,112.9c0,0.2-0.2,0.4-0.4,0.4h6.4c0.2,0,0.4-0.2,0.4-0.4v-12.8c0-0.2-0.2-0.4-0.4-0.4h-3.8c-0.2,0-0.4,0.2-0.4,0.4
		s0.2,0.4,0.4,0.4h3.5v12.1h-6C217.3,112.6,217.5,112.7,217.5,112.9z"/>
	<path d="M210.7,106.9c-0.2,0-0.4-0.2-0.4-0.3c0,3.7,3,6.7,6.7,6.7c0,0,0,0,0,0c0.2,0,0.4-0.2,0.4-0.4s-0.2-0.4-0.4-0.4
		c-3.3,0-6-2.7-6-6v0C211.1,106.8,210.9,106.9,210.7,106.9z"/>
	<path d="M210.4,106.6C210.4,106.6,210.4,106.6,210.4,106.6c0,0.2,0.2,0.4,0.4,0.4c0.2,0,0.4-0.2,0.4-0.4v0V96.3c0,0,0,0,0,0
		c0,0.2-0.2,0.3-0.4,0.3s-0.3-0.2-0.4-0.3c0,0,0,0,0,0V106.6z"/>
	<path d="M210.7,96.6c0.2,0,0.3-0.2,0.4-0.3c0,0,0,0,0,0c0-3.3,2.7-6,6-6h0c-0.2,0-0.4-0.2-0.4-0.4c0-0.2,0.2-0.4,0.3-0.4
		c-3.7,0-6.7,3-6.7,6.7c0,0,0,0,0,0C210.4,96.5,210.5,96.6,210.7,96.6z"/>
	<path d="M216.7,89.9c0,0.2,0.2,0.4,0.4,0.4h0h6.4c0.2,0,0.4-0.2,0.4-0.4s-0.2-0.4-0.4-0.4h-6.4c0,0,0,0,0,0
		C216.9,89.5,216.7,89.7,216.7,89.9z"/>
	<path d="M235.4,112.9c0,0.2-0.2,0.4-0.4,0.4h6.4c0.2,0,0.4-0.2,0.4-0.4s-0.2-0.4-0.4-0.4H235C235.2,112.6,235.4,112.7,235.4,112.9z
		"/>
	<path d="M235,113.3L235,113.3C235,113.3,235,113.3,235,113.3C235,113.3,235,113.3,235,113.3z"/>
	<path d="M231.2,109.4c-0.2,0-0.3-0.1-0.4-0.3c0,2.3,1.9,4.1,4.2,4.2c0,0,0,0,0.1,0c0.2,0,0.4-0.2,0.4-0.4s-0.2-0.4-0.4-0.4
		c-1.9,0-3.5-1.6-3.5-3.5v0C231.5,109.3,231.4,109.4,231.2,109.4z"/>
	<path d="M231.2,105.6c-0.2,0-0.4-0.2-0.4-0.4v3.8c0,0,0,0,0,0c0,0.2,0.2,0.3,0.4,0.3c0.2,0,0.4-0.2,0.4-0.4v0v-3.5H231.2z"/>
	<path d="M231.2,104.9h0.4v-2c-0.1,0.1-0.2,0.2-0.3,0.2c-0.2,0-0.4-0.2-0.4-0.4c0-0.1,0-0.1,0-0.2c0,0.1-0.1,0.1-0.1,0.2v2.5
		C230.8,105,231,104.9,231.2,104.9z"/>
	<path d="M231.2,103c0.1,0,0.2-0.1,0.3-0.2c0-0.1,0.1-0.1,0.1-0.2c0-2.6,2.1-4.8,4.8-4.8c2.6,0,4.7,2.1,4.8,4.6
		c0.1-0.1,0.2-0.2,0.3-0.2c0.2,0,0.4,0.2,0.4,0.4v0.2c0-0.1,0.1-0.1,0.1-0.2c0-3-2.5-5.5-5.5-5.5c-3,0-5.4,2.4-5.5,5.3
		c0,0.1,0,0.1,0,0.2C230.9,102.9,231,103,231.2,103z"/>
	<path d="M231.2,105.6h0.4h9.9c0.2,0,0.4-0.2,0.4-0.4v-2.4v-0.2c0-0.2-0.2-0.4-0.4-0.4c-0.1,0-0.3,0.1-0.3,0.2c0,0.1,0,0.1,0,0.2
		v2.2h-9.5h-0.4c-0.2,0-0.4,0.2-0.4,0.4S231,105.6,231.2,105.6z"/>
	<path d="M253.4,97.5c0,0.2-0.2,0.4-0.4,0.4c-0.1,0-0.1,0-0.2,0c0,0,0.1,0,0.2,0h4.1v11.2c0,0.1,0,0.1,0,0.2c0-0.1,0-0.1,0-0.2
		c0-0.2,0.2-0.4,0.4-0.4c0.1,0,0.2,0.1,0.3,0.2V97.6c0-0.2-0.2-0.4-0.4-0.4h-4.3C253.3,97.3,253.4,97.4,253.4,97.5z"/>
	<path d="M253.3,113.1c-0.1,0.1-0.2,0.2-0.3,0.2h0.6c0,0,0,0,0,0C253.5,113.3,253.4,113.2,253.3,113.1z"/>
	<path d="M253,112.6c0.1,0,0.3,0.1,0.3,0.2c0.1-0.1,0.2-0.2,0.3-0.2c0,0,0,0,0,0H253z"/>
	<path d="M253,113.3L253,113.3C253,113.3,253,113.3,253,113.3C252.9,113.3,252.9,113.3,253,113.3z"/>
	<path d="M257.5,108.7c-0.2,0-0.4,0.2-0.4,0.4c0,0.1,0,0.1,0,0.2c-0.1,1.8-1.6,3.3-3.5,3.3c0,0,0,0,0,0c-0.1,0-0.3,0.1-0.3,0.2
		c0,0,0,0.1,0,0.1s0,0.1,0,0.1c0.1,0.1,0.2,0.2,0.3,0.2c0,0,0,0,0,0c1.8,0,3.4-1.2,4-2.8l-0.4-0.5c-0.1-0.2-0.1-0.4,0.1-0.5
		c0.2-0.1,0.4-0.1,0.5,0.1l0.1,0.1c0-0.2,0.1-0.4,0.1-0.6c0-0.1,0-0.1-0.1-0.2C257.8,108.8,257.6,108.7,257.5,108.7z"/>
	<path d="M257.2,109.5c-0.2,0.1-0.2,0.4-0.1,0.5l0.4,0.5l2.2,2.7c0.1,0.1,0.2,0.1,0.3,0.1c0.1,0,0.2,0,0.2-0.1
		c0.2-0.1,0.2-0.4,0.1-0.5l-2.5-3.1l-0.1-0.1C257.6,109.4,257.4,109.3,257.2,109.5z"/>
	<path d="M248.8,109.1c0-0.2,0.2-0.4,0.4-0.4s0.4,0.2,0.4,0.4v-7.6c0,0,0,0,0,0c0,0.2-0.2,0.3-0.4,0.3s-0.3-0.2-0.4-0.3c0,0,0,0,0,0
		V109.1z"/>
	<path d="M248.8,109.1C248.8,109.1,248.8,109.1,248.8,109.1C248.8,109.1,248.8,109.1,248.8,109.1L248.8,109.1z"/>
	<path d="M253.3,113.1c0,0,0-0.1,0-0.1s0-0.1,0-0.1c-0.1-0.1-0.2-0.2-0.3-0.2c-1.9,0-3.5-1.6-3.5-3.5c0-0.2-0.2-0.4-0.4-0.4
		s-0.4,0.2-0.4,0.4c0,0,0,0,0,0.1c0,2.3,1.9,4.1,4.2,4.2c0,0,0,0,0.1,0C253.1,113.3,253.3,113.2,253.3,113.1z"/>
	<path d="M249.1,101.7c0.2,0,0.3-0.2,0.4-0.3c0,0,0,0,0,0c0-1.9,1.5-3.4,3.3-3.5c0.1,0,0.1,0,0.2,0c0.2,0,0.4-0.2,0.4-0.4
		c0-0.1-0.1-0.2-0.2-0.3c-0.1,0-0.1-0.1-0.2-0.1c-2.3,0-4.2,1.9-4.2,4.2c0,0,0,0,0,0C248.8,101.6,248.9,101.7,249.1,101.7z"/>
	<path d="M274.7,100.5c0.2,0,0.4-0.2,0.4-0.4v-2.6c0-0.2-0.2-0.4-0.4-0.4h-7.7c-0.2,0-0.4,0.2-0.4,0.4v15.4c0,0.2,0.2,0.4,0.4,0.4
		s0.4-0.2,0.4-0.4v-15h7v2.2C274.4,100.3,274.5,100.5,274.7,100.5z"/>
	<path d="M284.8,111.3c0.2-0.1,0.4-0.1,0.5,0.1c0,0,0,0,0.1,0.1c0,0,0,0,0,0c-3.4-6.3-3.4-13.8,0-20.2c0,0,0,0,0,0c0,0,0,0-0.1,0.1
		c-0.1,0.2-0.3,0.2-0.5,0.1c-0.1-0.1-0.1-0.2-0.1-0.3c-3.4,6.5-3.4,14.1,0,20.6C284.7,111.5,284.7,111.4,284.8,111.3z"/>
	<path d="M284.8,91.4c0.2,0.1,0.4,0.1,0.5-0.1c0,0,0,0,0.1-0.1c0.5-0.7,1.4-1.1,2.2-1.1c0.9,0,1.7,0.4,2.2,1.1
		c-0.1-0.2,0-0.4,0.2-0.5c0.2-0.1,0.4,0,0.5,0.1c0,0,0,0.1,0.1,0.1c0-0.1,0-0.1-0.1-0.2c-0.7-0.9-1.7-1.4-2.9-1.4
		c-1.1,0-2.2,0.5-2.9,1.4c0,0.1-0.1,0.1-0.1,0.2C284.7,91.2,284.7,91.3,284.8,91.4z"/>
	<path d="M290,90.8c-0.2,0.1-0.2,0.3-0.2,0.5c0,0,0,0,0,0c3.4,6.3,3.4,13.8,0,20.2c0,0,0,0,0,0c0,0,0,0,0.1-0.1
		c0.1-0.2,0.3-0.2,0.5-0.1c0.1,0.1,0.2,0.2,0.1,0.3c3.4-6.5,3.4-14.1,0-20.6c0,0,0-0.1-0.1-0.1C290.4,90.8,290.2,90.7,290,90.8z"/>
	<path d="M287.6,113.3c1.1,0,2.2-0.5,2.9-1.4c0-0.1,0.1-0.1,0.1-0.2c0-0.1,0-0.2-0.1-0.3c-0.2-0.1-0.4-0.1-0.5,0.1c0,0,0,0-0.1,0.1
		c-0.5,0.7-1.4,1.1-2.2,1.1c-0.9,0-1.7-0.4-2.2-1.1c0,0,0,0-0.1-0.1c-0.1-0.2-0.3-0.2-0.5-0.1c-0.1,0.1-0.1,0.2-0.1,0.3
		c0,0.1,0,0.1,0.1,0.2C285.4,112.7,286.5,113.3,287.6,113.3z"/>
	<path d="M685.1,26.8c0,0.2-0.2,0.4-0.4,0.4c-0.1,0-0.2,0-0.2,0c0.1,0,0.1,0.1,0.2,0.1h6.4c0.2,0,0.4-0.2,0.4-0.4V14
		c0-0.2-0.2-0.4-0.4-0.4h-3.8c-0.2,0-0.4,0.2-0.4,0.4s0.2,0.4,0.4,0.4h3.5v12.1h-5.8C685,26.5,685.1,26.6,685.1,26.8z"/>
	<path d="M678.4,20.8c-0.2,0-0.4-0.2-0.4-0.3c0,3.6,2.9,6.6,6.5,6.7c0.1,0,0.2,0,0.2,0c0.2,0,0.4-0.2,0.4-0.4c0-0.1-0.1-0.2-0.2-0.3
		c-0.1,0-0.1-0.1-0.2-0.1c-3.3,0-6-2.7-6-6v0C678.7,20.6,678.6,20.8,678.4,20.8z"/>
	<path d="M678,20.4C678,20.4,678,20.4,678,20.4c0,0.2,0.2,0.4,0.4,0.4c0.2,0,0.4-0.2,0.4-0.4v0V10.1c0,0,0,0,0,0
		c0,0.2-0.2,0.3-0.4,0.3s-0.3-0.2-0.4-0.3c0,0,0,0,0,0V20.4z"/>
	<path d="M678.4,10.5c0.2,0,0.3-0.2,0.4-0.3c0,0,0,0,0,0c0-3.3,2.6-5.9,5.8-6c-0.1-0.1-0.2-0.2-0.2-0.3c0-0.2,0.2-0.4,0.4-0.4h0.2
		c-0.1,0-0.1-0.1-0.2-0.1c-3.7,0-6.8,3-6.8,6.8c0,0,0,0,0,0C678,10.3,678.2,10.5,678.4,10.5z"/>
	<path d="M684.4,3.8c0,0.1,0.1,0.2,0.2,0.3c0.1,0,0.1,0,0.2,0h6.4c0.2,0,0.4-0.2,0.4-0.4s-0.2-0.4-0.4-0.4h-6.2h-0.2
		C684.5,3.4,684.4,3.6,684.4,3.8z"/>
	<path d="M703,26.8c0,0.2-0.2,0.4-0.4,0.4h6.4c0.2,0,0.4-0.2,0.4-0.4s-0.2-0.4-0.4-0.4h-6.4C702.9,26.5,703,26.6,703,26.8z"/>
	<path d="M702.7,27.2L702.7,27.2C702.7,27.2,702.7,27.2,702.7,27.2C702.6,27.2,702.6,27.2,702.7,27.2z"/>
	<path d="M698.8,23.3c-0.2,0-0.3-0.1-0.4-0.3c0,2.3,1.9,4.1,4.2,4.2c0,0,0,0,0.1,0c0.2,0,0.4-0.2,0.4-0.4s-0.2-0.4-0.4-0.4
		c-1.9,0-3.5-1.6-3.5-3.5v0C699.2,23.2,699,23.3,698.8,23.3z"/>
	<path d="M698.8,18.8h0.4v-2.1c-0.1,0.1-0.2,0.2-0.3,0.2c-0.2,0-0.4-0.2-0.4-0.4c0-0.1,0-0.1,0-0.2c0,0.1-0.1,0.1-0.1,0.2v2.6
		C698.5,18.9,698.6,18.8,698.8,18.8z"/>
	<path d="M698.8,19.5c-0.2,0-0.4-0.2-0.4-0.4V23c0,0,0,0,0,0c0,0.2,0.2,0.3,0.4,0.3c0.2,0,0.4-0.2,0.4-0.4v0v-3.5H698.8z"/>
	<path d="M698.9,16.9c0.1,0,0.2-0.1,0.3-0.2c0-0.1,0.1-0.1,0.1-0.2c0-2.6,2.1-4.8,4.8-4.8c2.6,0,4.7,2.1,4.8,4.6
		c0.1-0.1,0.2-0.2,0.3-0.2c0.2,0,0.4,0.2,0.4,0.4v0.2c0-0.1,0.1-0.1,0.1-0.2c0-3-2.5-5.5-5.5-5.5c-3,0-5.4,2.4-5.5,5.3
		c0,0.1,0,0.1,0,0.2C698.5,16.7,698.7,16.9,698.9,16.9z"/>
	<path d="M698.8,19.5h0.4h9.9c0.2,0,0.4-0.2,0.4-0.4v-2.4v-0.2c0-0.2-0.2-0.4-0.4-0.4c-0.1,0-0.3,0.1-0.3,0.2c0,0.1,0,0.1,0,0.2v2.2
		h-9.5h-0.4c-0.2,0-0.4,0.2-0.4,0.4S698.6,19.5,698.8,19.5z"/>
	<path d="M721,11.4c0,0.2-0.2,0.4-0.4,0.4c-0.1,0-0.1,0-0.2,0c0,0,0.1,0,0.2,0h4.1V23c0,0.1,0,0.1,0,0.2c0-0.1,0-0.1,0-0.2
		c0-0.2,0.2-0.4,0.4-0.4c0.1,0,0.2,0.1,0.3,0.2V11.5c0-0.2-0.2-0.4-0.4-0.4h-4.3C720.9,11.2,721,11.3,721,11.4z"/>
	<path d="M720.6,27.2L720.6,27.2C720.6,27.2,720.6,27.2,720.6,27.2C720.6,27.2,720.6,27.2,720.6,27.2z"/>
	<path d="M720.6,26.5c0.1,0,0.3,0.1,0.3,0.2c0.1-0.1,0.2-0.2,0.3-0.2c0,0,0,0,0,0H720.6z"/>
	<path d="M721,27c-0.1,0.1-0.2,0.2-0.3,0.2h0.6c0,0,0,0,0,0C721.1,27.2,721,27.1,721,27z"/>
	<path d="M725.2,22.6c-0.2,0-0.4,0.2-0.4,0.4c0,0.1,0,0.1,0,0.2c-0.1,1.8-1.6,3.3-3.5,3.3c0,0,0,0,0,0c-0.1,0-0.3,0.1-0.3,0.2
		c0,0,0,0.1,0,0.1s0,0.1,0,0.1c0.1,0.1,0.2,0.2,0.3,0.2c0,0,0,0,0,0c1.8,0,3.4-1.2,4-2.8l-0.4-0.5c-0.1-0.2-0.1-0.4,0.1-0.5
		c0.2-0.1,0.4-0.1,0.5,0.1l0.1,0.1c0-0.2,0.1-0.4,0.1-0.6c0-0.1,0-0.1-0.1-0.2C725.4,22.7,725.3,22.6,725.2,22.6z"/>
	<path d="M724.9,23.4c-0.2,0.1-0.2,0.4-0.1,0.5l0.4,0.5l2.2,2.7c0.1,0.1,0.2,0.1,0.3,0.1c0.1,0,0.2,0,0.2-0.1
		c0.2-0.1,0.2-0.4,0.1-0.5l-2.5-3.1l-0.1-0.1C725.3,23.3,725,23.2,724.9,23.4z"/>
	<path d="M716.4,23C716.4,23,716.4,23,716.4,23C716.4,23,716.4,23,716.4,23L716.4,23z"/>
	<path d="M716.4,22.9c0-0.2,0.2-0.4,0.4-0.4s0.4,0.2,0.4,0.4v-7.6c0,0,0,0,0,0c0,0.2-0.2,0.3-0.4,0.3s-0.3-0.2-0.4-0.3c0,0,0,0,0,0
		V22.9z"/>
	<path d="M721,27c0,0,0-0.1,0-0.1s0-0.1,0-0.1c-0.1-0.1-0.2-0.2-0.3-0.2c-1.9,0-3.5-1.6-3.5-3.5c0-0.2-0.2-0.4-0.4-0.4
		s-0.4,0.2-0.4,0.4c0,0,0,0,0,0.1c0,2.3,1.9,4.1,4.2,4.2c0,0,0,0,0.1,0C720.8,27.2,720.9,27.1,721,27z"/>
	<path d="M716.8,15.6c0.2,0,0.3-0.2,0.4-0.3c0,0,0,0,0,0c0-1.9,1.5-3.4,3.3-3.5c0.1,0,0.1,0,0.2,0c0.2,0,0.4-0.2,0.4-0.4
		c0-0.1-0.1-0.2-0.2-0.3c-0.1,0-0.1-0.1-0.2-0.1c-2.3,0-4.2,1.9-4.2,4.2c0,0,0,0,0,0C716.4,15.5,716.6,15.6,716.8,15.6z"/>
	<path d="M742.4,14.3c0.2,0,0.4-0.2,0.4-0.4v-2.5c0-0.2-0.2-0.4-0.4-0.4h-7.7c-0.2,0-0.4,0.2-0.4,0.4v15.4c0,0.2,0.2,0.4,0.4,0.4
		s0.4-0.2,0.4-0.4v-15h7V14C742.1,14.2,742.2,14.3,742.4,14.3z"/>
	<path d="M754.9,3.7c0-0.1,0.1-0.2,0.2-0.3h-4.9c-0.2,0-0.4,0.2-0.4,0.4s0.2,0.4,0.4,0.4h5.1c0.1,0,0.1,0,0.2,0c0,0-0.1,0-0.1,0
		C755.1,4.1,754.9,3.9,754.9,3.7z"/>
	<path d="M760.7,8.8c0-3-2.5-5.5-5.5-5.5c-0.1,0-0.1,0-0.2,0.1c-0.1,0.1-0.2,0.2-0.2,0.3c0,0.2,0.2,0.4,0.4,0.4c0,0,0.1,0,0.1,0
		c2.6,0.1,4.6,2.2,4.6,4.8c0,2.6-2.1,4.8-4.8,4.8c0.7,0,1.3,0.1,1.9,0.4C759.3,13.2,760.7,11.2,760.7,8.8z"/>
	<path d="M754.9,14c0-0.2,0.2-0.3,0.3-0.4c0,0,0,0,0,0h-2.6c-0.2,0-0.4,0.2-0.4,0.4s0.2,0.4,0.4,0.4h2.6c0,0,0,0,0,0
		C755,14.3,754.9,14.2,754.9,14z"/>
	<path d="M760.4,18.8c0.2,0,0.3,0.2,0.4,0.3c0,0,0,0,0,0c0-2.3-1.5-4.3-3.6-5.1c-0.6-0.2-1.3-0.4-1.9-0.4c0,0,0,0,0,0
		c-0.2,0-0.3,0.2-0.3,0.4s0.2,0.3,0.3,0.4c0,0,0,0,0,0c2.6,0,4.8,2.1,4.8,4.8c0,0,0,0,0,0C760,18.9,760.2,18.8,760.4,18.8z"/>
	<path d="M760.7,21.7L760.7,21.7C760.7,21.7,760.7,21.7,760.7,21.7C760.7,21.7,760.7,21.7,760.7,21.7z"/>
	<path d="M760,21.7c0-0.2,0.2-0.4,0.4-0.4s0.4,0.2,0.4,0.4v-2.5c0,0,0,0,0,0c0-0.2-0.2-0.3-0.4-0.3s-0.3,0.2-0.4,0.3c0,0,0,0,0,0
		V21.7z"/>
	<path d="M760.4,21.3c-0.2,0-0.4,0.2-0.4,0.4c0,2.6-2.1,4.8-4.8,4.8c0,0,0,0,0,0c0.2,0,0.3,0.2,0.3,0.4s-0.2,0.3-0.3,0.4
		c0,0,0,0,0,0c3,0,5.5-2.4,5.5-5.4c0,0,0,0,0,0C760.7,21.5,760.6,21.3,760.4,21.3z"/>
	<path d="M755.6,26.8c0-0.2-0.2-0.3-0.3-0.4c0,0,0,0,0,0h-5.1c-0.2,0-0.4,0.2-0.4,0.4s0.2,0.4,0.4,0.4h5.1c0,0,0,0,0,0
		C755.4,27.2,755.6,27,755.6,26.8z"/>
	<path d="M217.5,747.8c0,0.2-0.2,0.4-0.4,0.4c-0.1,0-0.2,0-0.2,0c0.1,0,0.1,0.1,0.2,0.1h6.4c0.2,0,0.4-0.2,0.4-0.4v-12.8
		c0-0.2-0.2-0.4-0.4-0.4h-3.8c-0.2,0-0.4,0.2-0.4,0.4s0.2,0.4,0.4,0.4h3.5v12.1h-5.8C217.4,747.6,217.5,747.7,217.5,747.8z"/>
	<path d="M210.7,741.8c-0.2,0-0.4-0.2-0.4-0.4c0,3.6,2.9,6.6,6.5,6.7c0.1,0,0.2,0,0.2,0c0.2,0,0.4-0.2,0.4-0.4
		c0-0.1-0.1-0.2-0.2-0.3c-0.1,0-0.1-0.1-0.2-0.1c-3.3,0-6-2.7-6-6v0C211.1,741.7,210.9,741.8,210.7,741.8z"/>
	<path d="M210.4,741.5C210.4,741.5,210.4,741.5,210.4,741.5c0,0.2,0.2,0.4,0.4,0.4c0.2,0,0.4-0.2,0.4-0.4v0v-10.2c0,0,0,0,0,0
		c0,0.2-0.2,0.3-0.4,0.3s-0.3-0.2-0.4-0.3c0,0,0,0,0,0V741.5z"/>
	<path d="M210.7,731.6c0.2,0,0.3-0.2,0.4-0.3c0,0,0,0,0,0c0-3.3,2.6-5.9,5.8-6c-0.1-0.1-0.2-0.2-0.2-0.3c0-0.2,0.2-0.4,0.4-0.4h0.2
		c-0.1,0-0.1-0.1-0.2-0.1c-3.7,0-6.8,3-6.8,6.8c0,0,0,0,0,0C210.4,731.4,210.5,731.6,210.7,731.6z"/>
	<path d="M216.7,724.9c0,0.1,0.1,0.2,0.2,0.3c0.1,0,0.1,0,0.2,0h6.4c0.2,0,0.4-0.2,0.4-0.4s-0.2-0.4-0.4-0.4h-6.2h-0.2
		C216.9,724.5,216.7,724.7,216.7,724.9z"/>
	<path d="M235,748.3L235,748.3C235,748.3,235,748.3,235,748.3C235,748.3,235,748.3,235,748.3z"/>
	<path d="M235.4,747.9c0,0.2-0.2,0.4-0.4,0.4h6.4c0.2,0,0.4-0.2,0.4-0.4s-0.2-0.4-0.4-0.4H235C235.2,747.5,235.4,747.7,235.4,747.9z
		"/>
	<path d="M231.2,744.4c-0.2,0-0.3-0.1-0.4-0.3c0,2.3,1.9,4.1,4.2,4.2c0,0,0,0,0.1,0c0.2,0,0.4-0.2,0.4-0.4s-0.2-0.4-0.4-0.4
		c-1.9,0-3.5-1.6-3.5-3.5v0C231.5,744.3,231.4,744.4,231.2,744.4z"/>
	<path d="M231.2,740.6c-0.2,0-0.4-0.2-0.4-0.4v3.8c0,0,0,0,0,0c0,0.2,0.2,0.3,0.4,0.3c0.2,0,0.4-0.2,0.4-0.4v0v-3.4H231.2z"/>
	<path d="M231.2,739.9h0.4v-2.1c-0.1,0.1-0.2,0.2-0.3,0.2c-0.2,0-0.4-0.2-0.4-0.4c0-0.1,0-0.1,0-0.2c0,0.1-0.1,0.1-0.1,0.2v2.6
		C230.8,740,231,739.9,231.2,739.9z"/>
	<path d="M231.2,738c0.1,0,0.2-0.1,0.3-0.2c0-0.1,0.1-0.1,0.1-0.2c0-2.6,2.1-4.8,4.8-4.8c2.6,0,4.7,2.1,4.8,4.6
		c0.1-0.1,0.2-0.2,0.3-0.2c0.2,0,0.4,0.2,0.4,0.4v0.2c0-0.1,0.1-0.1,0.1-0.2c0-3-2.5-5.5-5.5-5.5c-3,0-5.4,2.4-5.5,5.3
		c0,0.1,0,0.1,0,0.2C230.9,737.8,231,738,231.2,738z"/>
	<path d="M231.2,740.6h0.4h9.9c0.2,0,0.4-0.2,0.4-0.4v-2.4v-0.2c0-0.2-0.2-0.4-0.4-0.4c-0.1,0-0.3,0.1-0.3,0.2c0,0.1,0,0.1,0,0.2
		v2.2h-9.5h-0.4c-0.2,0-0.4,0.2-0.4,0.4S231,740.6,231.2,740.6z"/>
	<path d="M253.4,732.5c0,0.2-0.2,0.4-0.4,0.4c-0.1,0-0.1,0-0.2,0c0,0,0.1,0,0.2,0h4.1v11.2c0,0.1,0,0.1,0,0.2c0-0.1,0-0.1,0-0.2
		c0-0.2,0.2-0.4,0.4-0.4c0.1,0,0.2,0.1,0.3,0.2v-11.3c0-0.2-0.2-0.4-0.4-0.4h-4.3C253.3,732.2,253.4,732.4,253.4,732.5z"/>
	<path d="M253,748.3L253,748.3C253,748.3,253,748.3,253,748.3C252.9,748.3,252.9,748.3,253,748.3z"/>
	<path d="M253,747.5c0.1,0,0.3,0.1,0.3,0.2c0.1-0.1,0.2-0.2,0.3-0.2c0,0,0,0,0,0H253z"/>
	<path d="M253.3,748c-0.1,0.1-0.2,0.2-0.3,0.2h0.6c0,0,0,0,0,0C253.5,748.3,253.4,748.2,253.3,748z"/>
	<path d="M257.5,743.7c-0.2,0-0.4,0.2-0.4,0.4c0,0.1,0,0.1,0,0.2c-0.1,1.8-1.6,3.3-3.5,3.3c0,0,0,0,0,0c-0.1,0-0.3,0.1-0.3,0.2
		c0,0,0,0.1,0,0.1s0,0.1,0,0.1c0.1,0.1,0.2,0.2,0.3,0.2c0,0,0,0,0,0c1.8,0,3.4-1.2,4-2.8l-0.4-0.5c-0.1-0.2-0.1-0.4,0.1-0.5
		s0.4-0.1,0.5,0.1l0.1,0.1c0-0.2,0.1-0.4,0.1-0.6c0-0.1,0-0.1-0.1-0.2C257.8,743.7,257.6,743.7,257.5,743.7z"/>
	<path d="M257.2,744.4c-0.2,0.1-0.2,0.4-0.1,0.5l0.4,0.5l2.2,2.7c0.1,0.1,0.2,0.1,0.3,0.1c0.1,0,0.2,0,0.2-0.1
		c0.2-0.1,0.2-0.4,0.1-0.5l-2.5-3.1l-0.1-0.1C257.6,744.3,257.4,744.3,257.2,744.4z"/>
	<path d="M248.8,744.1C248.8,744.1,248.8,744.1,248.8,744.1C248.8,744.1,248.8,744.1,248.8,744.1L248.8,744.1z"/>
	<path d="M248.8,744c0-0.2,0.2-0.4,0.4-0.4s0.4,0.2,0.4,0.4v-7.6c0,0,0,0,0,0c0,0.2-0.2,0.3-0.4,0.3s-0.3-0.2-0.4-0.3c0,0,0,0,0,0
		V744z"/>
	<path d="M253.3,748c0,0,0-0.1,0-0.1s0-0.1,0-0.1c-0.1-0.1-0.2-0.2-0.3-0.2c-1.9,0-3.5-1.6-3.5-3.5c0-0.2-0.2-0.4-0.4-0.4
		s-0.4,0.2-0.4,0.4c0,0,0,0,0,0.1c0,2.3,1.9,4.1,4.2,4.2c0,0,0,0,0.1,0C253.1,748.3,253.3,748.2,253.3,748z"/>
	<path d="M249.1,736.7c0.2,0,0.3-0.2,0.4-0.3c0,0,0,0,0,0c0-1.9,1.5-3.4,3.3-3.5c0.1,0,0.1,0,0.2,0c0.2,0,0.4-0.2,0.4-0.4
		c0-0.1-0.1-0.2-0.2-0.3c-0.1,0-0.1-0.1-0.2-0.1c-2.3,0-4.2,1.9-4.2,4.2c0,0,0,0,0,0C248.8,736.6,248.9,736.7,249.1,736.7z"/>
	<path d="M274.7,735.4c0.2,0,0.4-0.2,0.4-0.4v-2.5c0-0.2-0.2-0.4-0.4-0.4h-7.7c-0.2,0-0.4,0.2-0.4,0.4v15.4c0,0.2,0.2,0.4,0.4,0.4
		s0.4-0.2,0.4-0.4v-15h7v2.2C274.4,735.3,274.5,735.4,274.7,735.4z"/>
	<path d="M287.6,748.3c0.2,0,0.4-0.2,0.4-0.4v-23c0-0.1-0.1-0.3-0.2-0.3c-0.1-0.1-0.3,0-0.4,0.1l-5.1,5.1c-0.1,0.1-0.1,0.4,0,0.5
		s0.4,0.1,0.5,0l4.5-4.5v22.2C287.2,748.1,287.4,748.3,287.6,748.3z"/>
	<path d="M685.1,661.7c0,0.2-0.2,0.4-0.4,0.4c-0.1,0-0.2,0-0.2,0c0.1,0,0.1,0.1,0.2,0.1h6.4c0.2,0,0.4-0.2,0.4-0.4V649
		c0-0.2-0.2-0.4-0.4-0.4h-3.8c-0.2,0-0.4,0.2-0.4,0.4s0.2,0.4,0.4,0.4h3.5v12.1h-5.8C685,661.5,685.1,661.6,685.1,661.7z"/>
	<path d="M678.4,655.7c-0.2,0-0.4-0.2-0.4-0.4c0,3.6,2.9,6.6,6.5,6.7c0.1,0,0.2,0,0.2,0c0.2,0,0.4-0.2,0.4-0.4
		c0-0.1-0.1-0.2-0.2-0.3c-0.1,0-0.1-0.1-0.2-0.1c-3.3,0-6-2.7-6-6v0C678.7,655.6,678.6,655.7,678.4,655.7z"/>
	<path d="M678,655.4C678,655.4,678,655.4,678,655.4c0,0.2,0.2,0.4,0.4,0.4c0.2,0,0.4-0.2,0.4-0.4v0v-10.2c0,0,0,0,0,0
		c0,0.2-0.2,0.3-0.4,0.3s-0.3-0.2-0.4-0.3c0,0,0,0,0,0V655.4z"/>
	<path d="M678.4,645.5c0.2,0,0.3-0.2,0.4-0.3c0,0,0,0,0,0c0-3.3,2.7-6,6-6h0c-0.2,0-0.4-0.2-0.4-0.4c0-0.2,0.2-0.4,0.4-0.4
		c-3.7,0-6.7,3-6.7,6.7c0,0,0,0,0,0C678,645.3,678.2,645.5,678.4,645.5z"/>
	<path d="M684.4,638.7c0,0.2,0.2,0.4,0.4,0.4h0h6.4c0.2,0,0.4-0.2,0.4-0.4s-0.2-0.4-0.4-0.4h-6.4c0,0,0,0,0,0
		C684.5,638.3,684.4,638.5,684.4,638.7z"/>
	<path d="M702.7,662.2L702.7,662.2C702.7,662.2,702.7,662.2,702.7,662.2C702.6,662.2,702.6,662.2,702.7,662.2z"/>
	<path d="M703,661.8c0,0.2-0.2,0.4-0.4,0.4h6.4c0.2,0,0.4-0.2,0.4-0.4s-0.2-0.4-0.4-0.4h-6.4C702.9,661.4,703,661.6,703,661.8z"/>
	<path d="M698.8,658.3c-0.2,0-0.3-0.1-0.4-0.3c0,2.3,1.9,4.1,4.2,4.2c0,0,0,0,0.1,0c0.2,0,0.4-0.2,0.4-0.4s-0.2-0.4-0.4-0.4
		c-1.9,0-3.5-1.6-3.5-3.5v0C699.2,658.2,699,658.3,698.8,658.3z"/>
	<path d="M698.8,653.8h0.4v-2.1c-0.1,0.1-0.2,0.2-0.3,0.2c-0.2,0-0.4-0.2-0.4-0.4c0-0.1,0-0.1,0-0.2c0,0.1-0.1,0.1-0.1,0.2v2.6
		C698.5,653.9,698.6,653.8,698.8,653.8z"/>
	<path d="M698.8,654.5c-0.2,0-0.4-0.2-0.4-0.4v3.8c0,0,0,0,0,0c0,0.2,0.2,0.3,0.4,0.3c0.2,0,0.4-0.2,0.4-0.4v0v-3.4H698.8z"/>
	<path d="M698.9,651.9c0.1,0,0.2-0.1,0.3-0.2c0-0.1,0.1-0.1,0.1-0.2c0-2.6,2.1-4.8,4.8-4.8c2.6,0,4.7,2.1,4.8,4.6
		c0.1-0.1,0.2-0.2,0.3-0.2c0.2,0,0.4,0.2,0.4,0.4v0.2c0-0.1,0.1-0.1,0.1-0.2c0-3-2.5-5.5-5.5-5.5c-3,0-5.4,2.4-5.5,5.3
		c0,0.1,0,0.1,0,0.2C698.5,651.7,698.7,651.9,698.9,651.9z"/>
	<path d="M698.8,654.5h0.4h9.9c0.2,0,0.4-0.2,0.4-0.4v-2.4v-0.2c0-0.2-0.2-0.4-0.4-0.4c-0.1,0-0.3,0.1-0.3,0.2c0,0.1,0,0.1,0,0.2
		v2.2h-9.5h-0.4c-0.2,0-0.4,0.2-0.4,0.4S698.6,654.5,698.8,654.5z"/>
	<path d="M721,646.3c0,0.2-0.2,0.4-0.4,0.4c-0.1,0-0.1,0-0.2,0c0,0,0.1,0,0.2,0h4.1V658c0,0.1,0,0.1,0,0.2c0-0.1,0-0.1,0-0.2
		c0-0.2,0.2-0.4,0.4-0.4c0.1,0,0.2,0.1,0.3,0.2v-11.4c0-0.2-0.2-0.4-0.4-0.4h-4.3C720.9,646.1,721,646.2,721,646.3z"/>
	<path d="M720.6,662.2L720.6,662.2C720.6,662.2,720.6,662.2,720.6,662.2C720.6,662.2,720.6,662.2,720.6,662.2z"/>
	<path d="M721,661.9c-0.1,0.1-0.2,0.2-0.3,0.2h0.6c0,0,0,0,0,0C721.1,662.2,721,662.1,721,661.9z"/>
	<path d="M720.6,661.4c0.1,0,0.3,0.1,0.3,0.2c0.1-0.1,0.2-0.2,0.3-0.2c0,0,0,0,0,0H720.6z"/>
	<path d="M725.2,657.6c-0.2,0-0.4,0.2-0.4,0.4c0,0.1,0,0.1,0,0.2c-0.1,1.8-1.6,3.3-3.5,3.3c0,0,0,0,0,0c-0.1,0-0.3,0.1-0.3,0.2
		c0,0,0,0.1,0,0.1s0,0.1,0,0.1c0.1,0.1,0.2,0.2,0.3,0.2c0,0,0,0,0,0c1.8,0,3.4-1.2,4-2.8l-0.4-0.6c-0.1-0.2-0.1-0.4,0.1-0.5
		c0.2-0.1,0.4-0.1,0.5,0.1l0.1,0.1c0-0.2,0.1-0.3,0.1-0.5c0-0.1,0-0.1-0.1-0.2C725.4,657.6,725.3,657.6,725.2,657.6z"/>
	<path d="M724.9,658.3c-0.2,0.1-0.2,0.3-0.1,0.5l0.4,0.6l2.1,2.7c0.1,0.1,0.2,0.1,0.3,0.1c0.1,0,0.2,0,0.2-0.1
		c0.2-0.1,0.2-0.3,0.1-0.5l-2.5-3.1l-0.1-0.1C725.3,658.2,725,658.2,724.9,658.3z"/>
	<path d="M716.4,657.9c0-0.2,0.2-0.4,0.4-0.4s0.4,0.2,0.4,0.4v-7.7c0,0,0,0,0,0c0,0.2-0.2,0.3-0.4,0.3s-0.3-0.2-0.4-0.3c0,0,0,0,0,0
		V657.9z"/>
	<path d="M716.4,658C716.4,658,716.4,658,716.4,658C716.4,658,716.4,658,716.4,658L716.4,658z"/>
	<path d="M721,661.9c0,0,0-0.1,0-0.1s0-0.1,0-0.1c-0.1-0.1-0.2-0.2-0.3-0.2c-1.9,0-3.5-1.6-3.5-3.5c0-0.2-0.2-0.4-0.4-0.4
		s-0.4,0.2-0.4,0.4c0,0,0,0,0,0.1c0,2.3,1.9,4.1,4.2,4.2c0,0,0,0,0.1,0C720.8,662.2,720.9,662.1,721,661.9z"/>
	<path d="M716.8,650.6c0.2,0,0.3-0.2,0.4-0.3c0,0,0,0,0,0c0-1.9,1.5-3.4,3.3-3.5c0.1,0,0.1,0,0.2,0c0.2,0,0.4-0.2,0.4-0.4
		c0-0.1-0.1-0.2-0.2-0.3c-0.1,0-0.1-0.1-0.2-0.1c-2.3,0-4.2,1.9-4.2,4.2c0,0,0,0,0,0C716.4,650.4,716.6,650.6,716.8,650.6z"/>
	<path d="M742.4,649.3c0.2,0,0.4-0.2,0.4-0.4v-2.6c0-0.2-0.2-0.4-0.4-0.4h-7.7c-0.2,0-0.4,0.2-0.4,0.4v15.4c0,0.2,0.2,0.4,0.4,0.4
		s0.4-0.2,0.4-0.4v-15.1h7v2.2C742.1,649.2,742.2,649.3,742.4,649.3z"/>
	<path d="M755.3,639c-0.2,0-0.4-0.2-0.4-0.4c0-0.1,0.1-0.2,0.2-0.3c-2.5,0-4.6,1.7-5.3,4.1c-0.1,0.2,0.1,0.4,0.2,0.4
		c0,0,0.1,0,0.1,0c0.2,0,0.3-0.1,0.3-0.3C751.1,640.5,753,639.1,755.3,639C755.2,639.1,755.2,639.1,755.3,639c0,0.1,0.1,0,0.1,0
		C755.4,639,755.3,639,755.3,639C755.3,639,755.3,639,755.3,639z"/>
	<path d="M759.4,646.3c0.1-0.1,0.3-0.1,0.4-0.1c0.2,0.1,0.2,0.3,0.1,0.5c0,0,0,0,0.1-0.1c1.1-1.7,1.1-3.8,0.1-5.6
		c-1-1.7-2.8-2.8-4.8-2.8c-0.1,0-0.2,0-0.2,0.1c-0.1,0.1-0.2,0.2-0.2,0.3c0,0.2,0.2,0.4,0.4,0.4c0,0,0,0,0,0c0,0,0.1,0,0.1,0
		c1.7,0,3.2,1,4.1,2.4C760.3,643,760.3,644.8,759.4,646.3C759.4,646.3,759.4,646.3,759.4,646.3z"/>
	<path d="M759.8,646.3c-0.1-0.1-0.3-0.1-0.4,0.1c0,0,0,0-0.1,0.1l-9.5,15.2c-0.1,0.1-0.1,0.3,0,0.4s0.2,0.2,0.3,0.2h10.3
		c0.2,0,0.4-0.2,0.4-0.4s-0.2-0.4-0.4-0.4h-9.6l9.1-14.7c0,0,0,0,0,0C760,646.6,760,646.4,759.8,646.3z"/>
	<path fill="#C0392B" d="M41.7,333.1c-0.4,0-0.7-0.3-0.7-0.7v0h-3.4l4.1,24.6l4.1-24.6h-3.4v0C42.4,332.8,42.1,333.1,41.7,333.1z"/>
	<path fill="#C0392B" d="M42.4,256.5v-21.9v-0.7c0-0.4-0.3-0.7-0.7-0.7s-0.7,0.3-0.7,0.7v0.7v21.9C41.5,256.6,41.9,256.6,42.4,256.5
		z"/>
	<path fill="#C0392B" d="M41,257.9v74.5v0c0,0.4,0.3,0.7,0.7,0.7s0.7-0.3,0.7-0.7v0v-74.5c-0.2,0-0.5,0.1-0.7,0.1
		C41.5,258,41.2,258,41,257.9z"/>
	<path fill="#C0392B" d="M16,335.9c0.4,0,0.7-0.3,0.7-0.7s-0.3-0.7-0.7-0.7H9.8c-0.4,0-0.7,0.3-0.7,0.7v6.2c0-0.4,0.3-0.7,0.7-0.7
		h0.7v-4.7H16z"/>
	<path fill="#C0392B" d="M9.1,341.4v7.7c0,0.4,0.3,0.7,0.7,0.7s0.7-0.3,0.7-0.7v-7H9.8C9.4,342.1,9.1,341.8,9.1,341.4z"/>
	<path fill="#C0392B" d="M9.1,341.4c0,0.4,0.3,0.7,0.7,0.7h0.7H16c0.4,0,0.7-0.3,0.7-0.7s-0.3-0.7-0.7-0.7h-5.5H9.8
		C9.4,340.7,9.1,341,9.1,341.4z"/>
	<path fill="#C0392B" d="M19.9,349.1v4.6c0,0.4,0.3,0.7,0.7,0.7s0.7-0.3,0.7-0.7v-3.9h-0.7C20.2,349.8,19.9,349.5,19.9,349.1z"/>
	<path fill="#C0392B" d="M20.6,348.4h0.7v-7.8H24c0,0,0,0,0,0c-0.4,0-0.7-0.3-0.7-0.7s0.3-0.7,0.7-0.7c0,0,0,0,0,0h-3.4
		c-0.4,0-0.7,0.3-0.7,0.7v9.2C19.9,348.7,20.2,348.4,20.6,348.4z"/>
	<path fill="#C0392B" d="M24,339.1C24,339.1,24,339.1,24,339.1c-0.4,0-0.7,0.3-0.7,0.7s0.3,0.7,0.7,0.7c0,0,0,0,0,0
		c1.1,0,2,0.9,2,1.9c0,0,0,0,0,0c0-0.4,0.3-0.7,0.7-0.7s0.7,0.3,0.7,0.7c0,0,0,0,0,0C27.4,340.6,25.9,339.1,24,339.1z"/>
	<path fill="#C0392B" d="M27.4,346.4L27.4,346.4C27.4,346.4,27.4,346.4,27.4,346.4C27.4,346.4,27.4,346.4,27.4,346.4z"/>
	<path fill="#C0392B" d="M26.7,341.8c-0.4,0-0.7,0.3-0.7,0.7c0,0,0,0,0,0v3.8c0-0.4,0.3-0.7,0.7-0.7s0.7,0.3,0.7,0.7v-3.8
		c0,0,0,0,0,0C27.4,342.1,27.1,341.8,26.7,341.8z"/>
	<path fill="#C0392B" d="M26.7,345.6c-0.4,0-0.7,0.3-0.7,0.7c0,1.1-0.9,1.9-2,1.9c-0.1,0-0.2,0-0.3,0.1H24c0.4,0,0.7,0.3,0.7,0.7
		c0,0.3-0.2,0.5-0.4,0.6c1.7-0.2,3.1-1.6,3.1-3.3c0,0,0,0,0-0.1C27.4,346,27.1,345.6,26.7,345.6z"/>
	<path fill="#C0392B" d="M24.7,349.1c0-0.4-0.3-0.7-0.7-0.7h-0.3h-2.4h-0.7c-0.4,0-0.7,0.3-0.7,0.7s0.3,0.7,0.7,0.7h0.7H24
		c0.1,0,0.2,0,0.3-0.1C24.6,349.6,24.7,349.4,24.7,349.1z"/>
	<path fill="#5C2D91" d="M47.4,212.2l0.7,0.6C47.9,212.6,47.6,212.4,47.4,212.2c-0.3-0.3-0.8-0.3-1,0c-0.1,0.2-0.2,0.4-0.2,0.6
		c0-0.2,0.1-0.4,0.3-0.6C46.8,212,47.1,212,47.4,212.2z"/>
	<path fill="#5C2D91" d="M54.8,233.2c-0.1-5.5-1.2-10.7-3-14.7l-1.3,0.6c1.7,3.9,2.8,8.9,2.9,14.1c0,0.5,0,1,0,1.4
		c0,0.8,0,1.6-0.1,2.4c-0.7,9.8-4.8,17.7-9.8,19.2c-0.3,0.1-0.7,0.2-1,0.2c-0.5,0.1-1,0.1-1.4,0c-0.8-0.1-1.6-0.4-2.5-0.8
		c-3.1-1.8-5.8-6.1-7.3-11.8c-0.1-0.4-0.5-0.6-0.9-0.5c-0.4,0.1-0.6,0.5-0.5,0.9c1.6,6.1,4.4,10.7,7.9,12.7c1,0.6,2.1,0.9,3.2,1
		c0.3,0,0.5,0.1,0.8,0.1c0.2,0,0.5,0,0.7-0.1c0.5,0,1-0.1,1.4-0.3c5.7-1.7,10.1-9.9,10.9-20.5c0.1-0.8,0.1-1.7,0.1-2.5
		C54.8,234.2,54.8,233.7,54.8,233.2z"/>
	<polygon fill="#5C2D91" points="51,217.3 48.9,215.4 49.9,217.8 	"/>
	<path fill="#5C2D91" d="M52.6,218.1c0.2-0.1,0.4-0.3,0.4-0.6c0-0.2-0.1-0.5-0.2-0.6l-4.7-4l-0.7-0.6c-0.3-0.2-0.6-0.2-0.9,0
		c-0.2,0.1-0.3,0.4-0.3,0.6c0,0.1,0,0.2,0.1,0.3l2.6,6c0.1,0.2,0.2,0.3,0.4,0.4c0.1,0,0.2,0,0.3,0c0.1,0,0.2,0,0.3-0.1l0.6-0.3
		l1.3-0.6L52.6,218.1z M48.9,215.4l2.1,1.9l-1.1,0.5L48.9,215.4z"/>
	<path fill="#5C2D91" d="M44.8,206.4c0.4,0,0.7-0.3,0.7-0.7v-10.8h-1.4v10.8C44.1,206.1,44.4,206.4,44.8,206.4z"/>
	<path fill="#5C2D91" d="M48.1,194.9c0.4,0,0.7-0.3,0.7-0.7s-0.3-0.7-0.7-0.7h-6.4c-0.4,0-0.7,0.3-0.7,0.7s0.3,0.7,0.7,0.7h2.5h1.4
		H48.1z"/>
	<path fill="#C0392B" d="M960.2,233.2h-19.3c0,0.5,0,1,0,1.4h19.3c0.4,0,0.7-0.3,0.7-0.7S960.6,233.2,960.2,233.2z"/>
	<path fill="#C0392B" d="M939.4,233.2H814.7h-1.4h-44.7h-0.7c-0.4,0-0.7,0.3-0.7,0.7s0.3,0.7,0.7,0.7h0.7h44.7h1.4h124.7
		C939.4,234.2,939.4,233.7,939.4,233.2z"/>
	<path fill="#5C2D91" d="M922.9,206.4c0.4,0,0.7-0.3,0.7-0.7v-10.8h-1.4v10.8C922.1,206.1,922.5,206.4,922.9,206.4z"/>
	<path fill="#5C2D91" d="M926.1,194.9c0.4,0,0.7-0.3,0.7-0.7s-0.3-0.7-0.7-0.7h-6.4c-0.4,0-0.7,0.3-0.7,0.7s0.3,0.7,0.7,0.7h2.5h1.4
		H926.1z"/>
	<path fill="#5C2D91" d="M931.8,206.4c0.3,0,0.6-0.2,0.7-0.5l1.2-3.3l1.2,3.3c0.1,0.3,0.4,0.5,0.7,0.5c0,0,0,0,0,0
		c0.3,0,0.6-0.2,0.7-0.5l1.9-7.7c0.1-0.4-0.1-0.8-0.5-0.9c-0.4-0.1-0.8,0.1-0.9,0.5l-1.4,5.4l-1.1-3c-0.2-0.6-1.1-0.6-1.3,0l-1.1,3
		l-1.4-5.4c-0.1-0.4-0.5-0.6-0.9-0.5c-0.4,0.1-0.6,0.5-0.5,0.9l1.9,7.7C931.2,206.2,931.5,206.4,931.8,206.4z"/>
	<path fill="#5C2D91" d="M932.9,255.8c-0.1,0-0.3,0-0.4-0.1C932.7,255.8,932.8,255.9,932.9,255.8c0.2,0,0.3,0,0.5-0.2
		c0,0,0.1-0.1,0.1-0.1l-0.1,0.1C933.3,255.8,933.1,255.8,932.9,255.8z"/>
	<path fill="#5C2D91" d="M932.3,255.5c0-0.1-0.1-0.1-0.1-0.2C932.3,255.4,932.3,255.4,932.3,255.5z"/>
	<path fill="#5C2D91" d="M932.2,255.3c0-0.1,0-0.1,0-0.2C932.2,255.1,932.2,255.2,932.2,255.3z"/>
	<path fill="#5C2D91" d="M932.4,255.6c0,0,0.1,0.1,0.1,0.1C932.4,255.6,932.4,255.6,932.4,255.6
		C932.4,255.6,932.4,255.6,932.4,255.6z"/>
	<path fill="#5C2D91" d="M940.8,233.2c0-0.9,0-1.7-0.1-2.6c-0.8-10.6-5.1-18.8-10.9-20.5c-2-0.6-4.1-0.3-6,0.8
		c-3.5,2-6.4,6.6-7.9,12.7c-0.1,0.4,0.1,0.8,0.5,0.9c0.4,0.1,0.8-0.1,0.9-0.5c1.5-5.7,4.1-10,7.3-11.8c1.6-0.9,3.3-1.1,4.9-0.6
		c5.1,1.5,9.1,9.4,9.8,19.2c0.1,0.8,0.1,1.6,0.1,2.5c0,0.5,0,1,0,1.4c-0.1,5.2-1.1,10.2-2.9,14.1l1.3,0.6c1.9-4.1,2.9-9.2,3-14.7
		C940.9,234.2,940.9,233.7,940.8,233.2z"/>
	<polygon fill="#5C2D91" points="935.9,250.1 934.9,252.5 937,250.6 	"/>
	<path fill="#5C2D91" d="M935.9,248.5c-0.2-0.1-0.4-0.1-0.6,0c-0.2,0.1-0.3,0.2-0.4,0.4l-2.6,6c0,0.1-0.1,0.2-0.1,0.2
		c0,0.1,0,0.1,0,0.2c0,0,0,0,0,0c0,0.1,0.1,0.1,0.1,0.2c0,0,0,0,0,0c0,0.1,0.1,0.1,0.2,0.2c0,0,0,0,0,0c0,0,0,0,0,0
		c0.1,0.1,0.3,0.1,0.4,0.1c0.2,0,0.3-0.1,0.5-0.2l0.1-0.1l5.3-4.6c0.2-0.2,0.3-0.4,0.2-0.6c0-0.2-0.2-0.4-0.4-0.6l-0.8-0.4l-1.3-0.6
		L935.9,248.5z M937,250.6l-2.1,1.9l1.1-2.4L937,250.6z"/>
	<path fill="#008272" d="M326.9,218.5c0,0.4,0.3,0.7,0.7,0.7s0.7-0.3,0.7-0.7V203c0-0.4-0.3-0.7-0.7-0.7s-0.7,0.3-0.7,0.7V218.5z"/>
	<path fill="#008272" d="M327.6,197.4c0.4,0,0.7-0.3,0.7-0.7v-1.3c0-0.4-0.3-0.7-0.7-0.7s-0.7,0.3-0.7,0.7v1.3
		C326.9,197.1,327.2,197.4,327.6,197.4z"/>
	<path fill="#008272" d="M336,218.7l2-5.9h-0.4c-0.4,0-0.7-0.3-0.7-0.7s0.3-0.7,0.7-0.7h0.9l4.5-13.7l4.5,13.7h0.9
		c0.4,0,0.7,0.3,0.7,0.7s-0.3,0.7-0.7,0.7H348l2,5.9c0.1,0.3,0.4,0.5,0.7,0.5c0.1,0,0.2,0,0.2,0c0.4-0.1,0.6-0.5,0.5-0.9l-7.7-23.1
		c-0.1-0.3-0.4-0.5-0.7-0.5s-0.6,0.2-0.7,0.5l-7.7,23.1c-0.1,0.4,0.1,0.8,0.5,0.9C335.4,219.3,335.8,219.1,336,218.7z"/>
	<path fill="#008272" d="M349.1,212c0-0.4-0.3-0.7-0.7-0.7h-0.9h-9.1h-0.9c-0.4,0-0.7,0.3-0.7,0.7s0.3,0.7,0.7,0.7h0.4H348h0.4
		C348.8,212.8,349.1,212.4,349.1,212z"/>
	<path fill="#008272" d="M369.2,203.4c0.2-0.3,0.1-0.8-0.2-1c-0.3-0.2-0.8-0.1-1,0.2l-4.5,6.8l0.9,1.3L369.2,203.4z"/>
	<path fill="#008272" d="M357.9,219.1c0.1,0.1,0.3,0.1,0.4,0.1c0.2,0,0.5-0.1,0.6-0.3l4.5-6.8l-0.9-1.3l-4.9,7.3
		C357.5,218.4,357.6,218.8,357.9,219.1z"/>
	<path fill="#008272" d="M368,218.9c0.1,0.2,0.4,0.3,0.6,0.3c0.1,0,0.3,0,0.4-0.1c0.3-0.2,0.4-0.7,0.2-1l-4.9-7.3l-0.9-1.3l-4.5-6.8
		c-0.2-0.3-0.7-0.4-1-0.2c-0.3,0.2-0.4,0.7-0.2,1l4.9,7.3l0.9,1.3L368,218.9z"/>
	<path fill="#008272" d="M375.5,218.5c0,0.4,0.3,0.7,0.7,0.7s0.7-0.3,0.7-0.7V203c0-0.4-0.3-0.7-0.7-0.7s-0.7,0.3-0.7,0.7V218.5z"/>
	<path fill="#008272" d="M376.3,197.4c0.4,0,0.7-0.3,0.7-0.7v-1.3c0-0.4-0.3-0.7-0.7-0.7s-0.7,0.3-0.7,0.7v1.3
		C375.5,197.1,375.9,197.4,376.3,197.4z"/>
	<path fill="#008272" d="M387.9,203c0,0.4-0.3,0.7-0.8,0.7c-0.1,0-0.1,0-0.2,0c0.1,0,0.2,0.1,0.2,0.1c1.9,0.1,3.8,0.5,5.5,1.2
		c0.1,0,0.2,0.1,0.3,0.1c0.3,0,0.5-0.2,0.7-0.4c0.2-0.4,0-0.8-0.4-0.9c-1.8-0.8-3.7-1.2-5.7-1.3C387.8,202.5,387.9,202.7,387.9,203z
		"/>
	<path fill="#008272" d="M386.9,203.7c0.1,0,0.1,0,0.2,0c0.4,0,0.7-0.3,0.8-0.7c0-0.3-0.1-0.5-0.4-0.7c-0.1,0-0.2-0.1-0.3-0.1
		c-1.8-0.1-3.4,1-3.9,2.8c-0.5,1.6,0.2,3.3,1.5,4.3c-0.1-0.2-0.2-0.5-0.1-0.7c0.2-0.4,0.6-0.5,1-0.3l0.2,0.1c0-0.1-0.1-0.1-0.2-0.1
		c-1-0.6-1.4-1.7-1.1-2.8C385,204.4,385.9,203.7,386.9,203.7z"/>
	<path fill="#008272" d="M384.8,208.6c-0.1,0.2-0.1,0.5,0.1,0.7c0.1,0.1,0.2,0.2,0.3,0.3l7,3.4c0.1,0,0.1,0,0.2,0c0,0-0.1,0-0.1-0.1
		c-0.4-0.2-0.5-0.6-0.3-1c0.1-0.3,0.4-0.4,0.7-0.4l-6.6-3.2l-0.2-0.1C385.4,208.1,385,208.2,384.8,208.6z"/>
	<path fill="#008272" d="M391.9,211.9c-0.2,0.4,0,0.8,0.3,1c0,0,0.1,0,0.1,0.1c1,0.5,1.4,1.6,1.2,2.7c-0.3,1.1-1.2,1.9-2.4,1.9
		c0,0,0,0,0,0c0.4,0,0.7,0.3,0.7,0.6c0,0.4-0.2,0.7-0.6,0.8c0,0,0,0-0.1,0c0,0,0,0,0,0c0,0,0,0,0,0c1.8,0,3.4-1.3,3.8-3
		c0.4-1.8-0.4-3.6-2.1-4.4c-0.1,0-0.2-0.1-0.3-0.1C392.3,211.5,392,211.7,391.9,211.9z"/>
	<path fill="#008272" d="M391.8,218.3c0-0.4-0.3-0.6-0.7-0.6c0,0-0.1,0-0.1,0c-2.3,0.2-4.6-0.2-6.6-1.2c-0.4-0.2-0.8,0-1,0.3
		c-0.2,0.4,0,0.8,0.3,1c1.9,0.9,4,1.4,6,1.4c0.4,0,0.9,0,1.3-0.1c0,0,0,0,0.1,0C391.6,219,391.9,218.7,391.8,218.3z"/>
	<path fill="#C0392B" d="M576.7,207.5c0.4,0,0.7,0.3,0.7,0.7c0,0,0,0,0,0c0-2.4,2-4.4,4.4-4.4c2.4,0,4.3,1.9,4.4,4.2
		c0.1-0.3,0.4-0.5,0.7-0.5c0.4,0,0.7,0.3,0.7,0.7v0.3c0-0.1,0.1-0.2,0.1-0.3c0-3.2-2.6-5.9-5.8-5.9s-5.8,2.6-5.8,5.9c0,0,0,0,0,0
		C576,207.8,576.3,207.5,576.7,207.5z"/>
	<path fill="#C0392B" d="M586.9,207.5c-0.3,0-0.6,0.2-0.7,0.5c0,0.1,0,0.1,0,0.2v5.1c0,0.1,0,0.1,0,0.2c0-0.1,0-0.1,0-0.2
		c0-0.4,0.3-0.7,0.7-0.7c0.3,0,0.5,0.2,0.7,0.4v-4.5v-0.3C587.6,207.8,587.3,207.5,586.9,207.5z"/>
	<path fill="#C0392B" d="M586.9,212.5c-0.4,0-0.7,0.3-0.7,0.7c0,0.1,0,0.1,0,0.2c-0.1,2.3-2,4.2-4.4,4.2c-2.4,0-4.4-2-4.4-4.4v0
		c0,0.4-0.3,0.7-0.7,0.7c-0.4,0-0.7-0.3-0.7-0.7c0,3.2,2.6,5.8,5.8,5.8c3.2,0,5.8-2.6,5.8-5.9c0-0.1,0-0.2-0.1-0.3
		C587.5,212.7,587.2,212.5,586.9,212.5z"/>
	<path fill="#C0392B" d="M575.9,213.3C575.9,213.3,575.9,213.3,575.9,213.3c0,0.4,0.3,0.7,0.7,0.7c0.4,0,0.7-0.3,0.7-0.7v0v-5.1
		c0,0,0,0,0,0c0-0.4-0.3-0.7-0.7-0.7s-0.7,0.3-0.7,0.7c0,0,0,0,0,0V213.3z"/>
	<path fill="#C0392B" d="M594.6,219.2c0.3,0,0.6-0.2,0.7-0.5l2-5.9h-0.4c-0.4,0-0.7-0.3-0.7-0.7s0.3-0.7,0.7-0.7h0.9l4.5-13.7
		l4.5,13.7h0.9c0.4,0,0.7,0.3,0.7,0.7s-0.3,0.7-0.7,0.7h-0.4l2,5.9c0.1,0.4,0.5,0.6,0.9,0.5c0.4-0.1,0.6-0.5,0.5-0.9l-7.7-23.1
		c-0.1-0.3-0.4-0.5-0.7-0.5s-0.6,0.2-0.7,0.5l-7.7,23.1c-0.1,0.4,0.1,0.8,0.5,0.9C594.4,219.2,594.5,219.2,594.6,219.2z"/>
	<path fill="#C0392B" d="M608.5,212c0-0.4-0.3-0.7-0.7-0.7h-0.9h-9.1h-0.9c-0.4,0-0.7,0.3-0.7,0.7s0.3,0.7,0.7,0.7h0.4h10.1h0.4
		C608.1,212.8,608.5,212.4,608.5,212z"/>
	<path fill="#C0392B" d="M617.2,219.1c0.1,0.1,0.3,0.1,0.4,0.1c0.2,0,0.5-0.1,0.6-0.3l4.5-6.8l-0.9-1.3l-4.9,7.3
		C616.8,218.4,616.9,218.8,617.2,219.1z"/>
	<path fill="#C0392B" d="M628.5,203.4c0.2-0.3,0.1-0.8-0.2-1s-0.8-0.1-1,0.2l-4.5,6.8l0.9,1.3L628.5,203.4z"/>
	<path fill="#C0392B" d="M627.3,218.9c0.1,0.2,0.4,0.3,0.6,0.3c0.1,0,0.3,0,0.4-0.1c0.3-0.2,0.4-0.7,0.2-1l-4.9-7.3l-0.9-1.3
		l-4.5-6.8c-0.2-0.3-0.7-0.4-1-0.2c-0.3,0.2-0.4,0.7-0.2,1l4.9,7.3l0.9,1.3L627.3,218.9z"/>
	<path fill="#C0392B" d="M634.9,218.5c0,0.4,0.3,0.7,0.7,0.7s0.7-0.3,0.7-0.7V203c0-0.4-0.3-0.7-0.7-0.7s-0.7,0.3-0.7,0.7V218.5z"/>
	<path fill="#C0392B" d="M635.6,197.4c0.4,0,0.7-0.3,0.7-0.7v-1.3c0-0.4-0.3-0.7-0.7-0.7s-0.7,0.3-0.7,0.7v1.3
		C634.9,197.1,635.2,197.4,635.6,197.4z"/>
	<path fill="#C0392B" d="M647.2,203c0,0.4-0.4,0.7-0.8,0.7c-0.1,0-0.1,0-0.2,0c0.1,0,0.2,0.1,0.2,0.1c1.9,0.1,3.7,0.5,5.5,1.2
		c0.1,0,0.2,0.1,0.3,0.1c0.3,0,0.5-0.2,0.7-0.4c0.2-0.4,0-0.8-0.4-0.9c-1.8-0.8-3.7-1.2-5.7-1.3C647.1,202.5,647.2,202.7,647.2,203z
		"/>
	<path fill="#C0392B" d="M646.3,203.7c0.1,0,0.1,0,0.2,0c0.4,0,0.7-0.3,0.8-0.7c0-0.3-0.1-0.5-0.4-0.7c-0.1,0-0.2-0.1-0.3-0.1
		c-1.8-0.1-3.4,1-3.9,2.8c-0.5,1.6,0.2,3.3,1.5,4.3c-0.1-0.2-0.2-0.5-0.1-0.7c0.2-0.4,0.6-0.5,1-0.3l0.2,0.1c0-0.1-0.1-0.1-0.2-0.1
		c-1-0.6-1.4-1.7-1.1-2.8C644.3,204.4,645.2,203.7,646.3,203.7z"/>
	<path fill="#C0392B" d="M644.1,208.6c-0.1,0.2-0.1,0.5,0.1,0.7c0.1,0.1,0.2,0.2,0.3,0.3l7,3.4c0,0,0.1,0,0.1,0c0,0,0,0-0.1,0
		c-0.4-0.2-0.5-0.6-0.3-1c0.2-0.3,0.5-0.4,0.8-0.4l-6.7-3.2l-0.2-0.1C644.7,208.1,644.3,208.3,644.1,208.6z"/>
	<path fill="#C0392B" d="M651.2,211.9c-0.2,0.4,0,0.8,0.3,1c0,0,0.1,0,0.1,0c1,0.5,1.5,1.6,1.2,2.7c-0.3,1.1-1.2,1.9-2.4,1.9
		c0,0,0,0,0,0c0.4,0,0.7,0.3,0.7,0.6c0,0.4-0.2,0.7-0.6,0.8c0,0-0.1,0-0.1,0c0,0,0,0,0,0c0,0,0,0,0,0c1.8,0,3.4-1.3,3.8-3
		c0.4-1.8-0.4-3.6-2.1-4.4c-0.1,0-0.1,0-0.2,0C651.7,211.5,651.3,211.6,651.2,211.9z"/>
	<path fill="#C0392B" d="M651.1,218.3c0-0.4-0.4-0.7-0.7-0.6c0,0,0,0,0,0c-2.3,0.2-4.6-0.2-6.6-1.2c-0.4-0.2-0.8,0-1,0.3
		c-0.2,0.4,0,0.8,0.3,1c1.9,0.9,4,1.4,6,1.4c0.4,0,0.8,0,1.3-0.1c0,0,0.1,0,0.1,0C650.9,219,651.2,218.7,651.1,218.3z"/>
	<path fill="#002FA7" d="M452.9,504.4c0,0.4-0.3,0.7-0.7,0.7c-0.1,0-0.2,0-0.4,0c0.1,0.1,0.2,0.1,0.3,0.1h3.2c0.4,0,0.7-0.3,0.7-0.7
		s-0.3-0.7-0.7-0.7h-2.9C452.7,503.8,452.9,504.1,452.9,504.4z"/>
	<path fill="#002FA7" d="M447.7,500.6c-0.3,0-0.5-0.2-0.6-0.4c0.2,2.6,2.2,4.6,4.8,4.8c0.1,0,0.2,0,0.4,0c0.4,0,0.7-0.3,0.7-0.7
		c0-0.3-0.2-0.5-0.4-0.7c-0.1,0-0.2-0.1-0.3-0.1c-2.1,0-3.8-1.7-3.8-3.8c0-0.1,0-0.2-0.1-0.3v0.3
		C448.4,500.3,448.1,500.6,447.7,500.6z"/>
	<path fill="#002FA7" d="M447.7,494.2c-0.4,0-0.7-0.3-0.7-0.7c0-0.1,0-0.2,0-0.3c-0.1,0.1-0.1,0.2-0.1,0.3v6.4c0,0.1,0,0.2,0.1,0.3
		c0.1,0.2,0.4,0.4,0.6,0.4c0.4,0,0.7-0.3,0.7-0.7v-0.3v-5.9C448.3,494,448,494.2,447.7,494.2z"/>
	<path fill="#002FA7" d="M447.7,494.2c0.3,0,0.6-0.2,0.7-0.4c0-0.1,0.1-0.2,0.1-0.3c0-2,1.6-3.6,3.5-3.7c-0.3-0.1-0.5-0.4-0.5-0.7
		c0-0.4,0.3-0.7,0.7-0.7h0.3c-0.1,0-0.2-0.1-0.3-0.1c-2.8,0-5,2.2-5.2,4.9c0,0.1,0,0.2,0,0.3C447,493.9,447.3,494.2,447.7,494.2z"/>
	<path fill="#002FA7" d="M451.4,489.1c0,0.3,0.2,0.6,0.5,0.7c0.1,0,0.1,0,0.2,0h3.2c0.4,0,0.7-0.3,0.7-0.7s-0.3-0.7-0.7-0.7h-2.9
		h-0.3C451.8,488.3,451.4,488.7,451.4,489.1z"/>
	<path fill="#002FA7" d="M463,505.1c0.3,0,0.6-0.2,0.7-0.5l2-5.9h-0.4c-0.4,0-0.7-0.3-0.7-0.7s0.3-0.7,0.7-0.7h0.9l4.6-13.6
		l4.5,13.6h0.9c0.4,0,0.7,0.3,0.7,0.7s-0.3,0.7-0.7,0.7h-0.4l2,5.9c0.1,0.4,0.5,0.6,0.9,0.5c0.4-0.1,0.6-0.5,0.5-0.9l-7.7-23
		c-0.1-0.3-0.4-0.5-0.7-0.5c0,0,0,0,0,0c-0.3,0-0.6,0.2-0.7,0.5l-7.7,23c-0.1,0.4,0.1,0.8,0.5,0.9
		C462.9,505.1,462.9,505.1,463,505.1z"/>
	<path fill="#002FA7" d="M476.9,498c0-0.4-0.3-0.7-0.7-0.7h-0.9h-9.1h-0.9c-0.4,0-0.7,0.3-0.7,0.7s0.3,0.7,0.7,0.7h0.4h10.1h0.4
		C476.6,498.7,476.9,498.4,476.9,498z"/>
	<path fill="#002FA7" d="M485.7,505c0.1,0.1,0.3,0.1,0.4,0.1c0.2,0,0.5-0.1,0.6-0.3l4.5-6.8l-0.9-1.3l-4.9,7.3
		C485.3,504.4,485.4,504.8,485.7,505z"/>
	<path fill="#002FA7" d="M497,489.5c0.2-0.3,0.1-0.8-0.2-1c-0.3-0.2-0.8-0.1-1,0.2l-4.5,6.8l0.9,1.3L497,489.5z"/>
	<path fill="#002FA7" d="M495.8,504.8c0.1,0.2,0.4,0.3,0.6,0.3c0.1,0,0.3,0,0.4-0.1c0.3-0.2,0.4-0.7,0.2-1l-4.9-7.3l-0.9-1.3
		l-4.5-6.8c-0.2-0.3-0.7-0.4-1-0.2c-0.3,0.2-0.4,0.7-0.2,1l4.9,7.3l0.9,1.3L495.8,504.8z"/>
	<path fill="#002FA7" d="M503.3,504.4c0,0.4,0.3,0.7,0.7,0.7s0.7-0.3,0.7-0.7v-15.4c0-0.4-0.3-0.7-0.7-0.7s-0.7,0.3-0.7,0.7V504.4z"
		/>
	<path fill="#002FA7" d="M504.1,483.4c0.4,0,0.7-0.3,0.7-0.7v-1.3c0-0.4-0.3-0.7-0.7-0.7s-0.7,0.3-0.7,0.7v1.3
		C503.3,483,503.7,483.4,504.1,483.4z"/>
	<path fill="#002FA7" d="M515.7,489c0,0.4-0.4,0.7-0.7,0.7c0,0,0,0,0,0c1.9,0.1,3.8,0.5,5.5,1.2c0.1,0,0.2,0.1,0.3,0.1
		c0.3,0,0.5-0.2,0.7-0.4c0.2-0.4,0-0.8-0.4-0.9c-1.9-0.8-3.9-1.3-6-1.3C515.4,488.3,515.7,488.6,515.7,489z"/>
	<path fill="#002FA7" d="M515,489.7C515,489.7,515,489.7,515,489.7c0.4,0,0.7-0.3,0.8-0.7c0-0.4-0.3-0.7-0.7-0.8c0,0,0,0,0,0
		c-1.8-0.1-3.4,1-3.9,2.8c-0.5,1.7,0.2,3.5,1.7,4.4c-0.3-0.2-0.4-0.6-0.3-0.9c0.2-0.4,0.6-0.5,1-0.3l0.1,0c0,0,0,0,0,0
		c-1-0.6-1.4-1.7-1.1-2.8C512.8,490.4,513.8,489.7,515,489.7z"/>
	<path fill="#002FA7" d="M512.6,494.6c-0.2,0.3,0,0.7,0.3,0.9c0,0,0,0,0.1,0.1l7,3.4c0,0,0.1,0,0.1,0c0,0,0,0-0.1,0
		c-0.4-0.2-0.5-0.6-0.3-1c0.2-0.3,0.5-0.4,0.8-0.4l-6.8-3.3l-0.1,0C513.2,494.1,512.8,494.2,512.6,494.6z"/>
	<path fill="#002FA7" d="M519.6,497.9c-0.2,0.4,0,0.8,0.3,1c0,0,0,0,0.1,0c1,0.5,1.5,1.6,1.2,2.7c-0.3,1.1-1.2,1.9-2.4,1.9
		c0,0,0,0,0,0c0.4,0,0.7,0.3,0.7,0.6c0,0.4-0.2,0.7-0.6,0.8c0,0-0.1,0-0.1,0c0,0,0,0,0,0c0,0,0,0,0,0c1.8,0,3.4-1.3,3.8-3
		c0.4-1.8-0.4-3.6-2.1-4.4c-0.1,0-0.1,0-0.2,0C520.1,497.5,519.8,497.6,519.6,497.9z"/>
	<path fill="#002FA7" d="M519.6,504.2c0-0.4-0.4-0.7-0.7-0.6c0,0,0,0,0,0c-2.3,0.2-4.6-0.2-6.6-1.2c-0.4-0.2-0.8,0-1,0.3
		c-0.2,0.4,0,0.8,0.3,1c1.9,0.9,4,1.4,6,1.4c0.4,0,0.8,0,1.3-0.1c0,0,0.1,0,0.1,0C519.4,505,519.7,504.6,519.6,504.2z"/>
</g>
</svg>
